<svg width="15" height="15" viewBox="0 0 15 15" fill="none" xmlns="http://www.w3.org/2000/svg">
<path d="M13.8281 10.8992V13.195C13.508 13.0389 13.2219 12.8103 12.9659 12.5068C12.467 11.9154 12.0741 11.0265 11.7981 9.86488C11.25 7.55757 11.25 4.58978 11.25 2.42277C11.25 1.7697 10.994 1.15732 10.5291 0.698502C10.0642 0.239717 9.44801 -0.00770353 8.79475 0.000205037C8.07029 0.00960744 7.42005 0.341504 6.97822 0.857406C6.53183 0.333331 5.86778 0 5.12695 0C4.46332 0 3.86121 0.267895 3.42229 0.700962C3.06732 0.273051 2.53178 0 1.93359 0C0.867393 0 0 0.867218 0 1.9332V3.10484H1.17188V1.9332C1.17188 1.51329 1.51359 1.17164 1.93359 1.17164C2.35359 1.17164 2.69531 1.51329 2.69531 1.9332V11.5992H3.86719V2.43115H3.8693C3.8693 1.73666 4.43347 1.17164 5.12695 1.17164C5.82158 1.17164 6.38672 1.73666 6.38672 2.43115V11.5992H7.55859V2.45016C7.55859 1.75421 8.11995 1.18072 8.80995 1.17176C8.81552 1.17167 8.82108 1.17164 8.82668 1.17164C9.15812 1.17164 9.46975 1.29935 9.70579 1.53233C9.94588 1.76929 10.0781 2.08552 10.0781 2.42277C10.0781 4.64766 10.0781 7.69477 10.6579 10.1356C10.9812 11.4963 11.4431 12.519 12.0701 13.2623C12.2505 13.4761 12.4438 13.6647 12.6493 13.8284H10.8984V15H15V14.6204V13.4487V10.8993H13.8281V10.8992Z" fill="#6f0cdb"/>
</svg>
