<svg version="1.1" id="Capa_1" xmlns="http://www.w3.org/2000/svg" xmlns:xlink="http://www.w3.org/1999/xlink" x="0px" y="0px"
	 width="40px" height="40px" viewBox="0 0 1200 1200" enable-background="new 0 0 1200 1200" xml:space="preserve">
<g>
	<polyline fill="#0162B3" points="940.168,848.801 599.997,1045.204 259.829,848.801 169.059,901.209 599.997,1150
		1030.941,901.209 940.168,848.801 	"/>
	<polyline fill="#FEC338" points="599.997,50 169.059,298.791 169.059,796.393 259.829,848.801 367.711,786.515 276.944,734.111
		276.944,361.083 599.997,174.573 923.053,361.083 923.053,734.111 832.283,786.515 940.168,848.801 1030.941,796.393
		1030.941,298.791 599.997,50 	"/>
	<polyline fill="#F1BB34" points="367.711,786.515 259.829,848.801 599.997,1045.204 940.168,848.801 832.283,786.515
		599.997,920.62 367.711,786.515 	"/>
	<polyline fill="#FFFFFF" points="276.944,361.083 599.997,174.573 923.053,361.083 923.053,734.111 599.997,920.62
		276.944,734.111 276.944,361.083 	"/>
	<path fill="#FEC338" d="M420.092,486.278l-106.211,61.324l106.204,61.317l106.214-61.322L420.092,486.278 M779.899,486.278
		l-106.204,61.319l106.211,61.322l106.207-61.317L779.899,486.278"/>
	<polyline fill="#DD1486" points="599.997,259.77 313.881,424.953 420.092,486.278 599.997,382.408 779.899,486.278
		886.113,424.953 599.997,259.77 	"/>
	<polyline fill="#DC0F1D" points="599.997,382.408 420.092,486.278 526.299,547.597 599.997,505.046 673.695,547.597
		779.899,486.278 599.997,382.408 	"/>
	<polyline fill="#DD1486" points="779.906,608.919 599.997,712.786 420.085,608.919 313.881,670.24 599.997,835.424 886.113,670.24
		779.906,608.919 	"/>
	<polyline fill="#DC0F1D" points="673.695,547.597 599.997,590.148 526.299,547.597 420.085,608.919 599.997,712.786
		779.906,608.919 673.695,547.597 	"/>
	<polyline fill="#BF010F" points="599.997,505.046 526.299,547.597 599.997,590.148 673.695,547.597 599.997,505.046 	"/>
</g>
</svg>
