<svg width="31" height="31" viewBox="0 0 31 31" fill="none" xmlns="http://www.w3.org/2000/svg">
<path d="M29.2993 22.2335L25.5838 18.5173C24.5925 17.526 22.8606 17.5243 21.8676 18.5173L21.248 19.1369L28.6799 26.5683L29.2993 25.949C30.328 24.9202 30.3246 23.2571 29.2993 22.2335Z" fill="white"/>
<path d="M19.9756 20.341C19.1938 20.9466 18.0785 20.9225 17.3641 20.2065L10.0179 12.8552C9.30187 12.1392 9.27775 11.023 9.88341 10.2432L2.46865 2.8288C-0.721152 6.54695 -0.596434 12.1495 2.92408 15.67L14.5493 27.3003C17.9277 30.6785 23.4614 31.1266 27.3907 27.7556L19.9756 20.341Z" fill="white"/>
<path d="M11.7072 4.63576L7.99179 0.919535C7.00048 -0.0717783 5.26851 -0.0734715 4.27556 0.919535L3.65601 1.53909L11.0879 8.97056L11.7072 8.35118C12.7359 7.32249 12.7325 5.65937 11.7072 4.63576Z" fill="white"/>
</svg>
