<svg width="43" height="41" viewBox="0 0 43 41" fill="none" xmlns="http://www.w3.org/2000/svg">
<path d="M5.41475 22.5709C5.33046 21.8835 5.28802 21.1915 5.28766 20.4989C5.28795 17.2805 6.20684 14.1289 7.93638 11.4147C9.66591 8.70043 12.1342 6.53621 15.0513 5.17633C17.9683 3.81645 21.2129 3.31741 24.4038 3.73785C27.5947 4.15828 30.5993 5.48074 33.0645 7.5498C34.0363 6.82817 34.9436 6.02362 35.7763 5.14519C32.0326 1.82393 27.1997 -0.00699638 22.1951 2.00917e-05C10.8726 2.00917e-05 1.694 9.17867 1.694 20.5011C1.69342 22.5153 1.98943 24.5185 2.57253 26.4464C3.34785 25.0367 4.30327 23.734 5.41475 22.5709Z" fill="#E04A49"/>
<path d="M2.98364 23.96C2.28003 20.0567 2.78227 16.0317 4.42346 12.4211C6.06466 8.81043 8.76691 5.78545 12.1704 3.74903C15.5738 1.71261 19.5169 0.761396 23.4744 1.02207C27.432 1.28274 31.2163 2.74294 34.3232 5.20817C33.9353 5.57616 33.5209 5.93752 33.0745 6.29445C29.9513 3.90412 26.1281 2.60825 22.1951 2.60686C12.3291 2.60686 4.30308 10.6329 4.30308 20.4989C4.30308 21.0713 4.33071 21.6515 4.38596 22.2272C3.88444 22.7764 3.41616 23.355 2.98364 23.96Z" fill="#C03F3E"/>
<path d="M39.6717 9.77426C39.1838 11.1488 38.5017 12.4464 37.6461 13.6276C39.1627 17.0339 39.5107 20.846 38.6361 24.4707C37.7614 28.0953 35.7131 31.3291 32.8099 33.6689C29.9068 36.0087 26.3116 37.3231 22.5838 37.4077C18.8561 37.4922 15.205 36.3422 12.1987 34.1365C10.7873 34.4436 9.39658 34.8392 8.03485 35.3211C11.8445 38.9715 16.9188 41.0065 22.1951 41C33.5176 41 42.6962 31.8213 42.6962 20.4989C42.7029 16.7126 41.6557 12.9991 39.6717 9.77426Z" fill="#056BD5"/>
<path d="M22.1952 40.0165C17.7522 40.0249 13.4407 38.5087 9.98096 35.7211C10.6366 35.5266 11.3045 35.3506 11.9844 35.1929C14.978 37.284 18.5437 38.4008 22.1952 38.391C32.0612 38.391 40.0873 30.3649 40.0873 20.4989C40.0911 18.1803 39.6406 15.8835 38.7612 13.7381C39.1341 13.1857 39.4718 12.6103 39.7723 12.0154C41.2077 14.9908 41.8645 18.2818 41.6811 21.5802C41.4977 24.8787 40.4802 28.0766 38.7238 30.8746C36.9675 33.6726 34.5297 35.979 31.6389 37.5779C28.7481 39.1768 25.4987 40.0159 22.1952 40.0165Z" fill="#0C97E8"/>
<path d="M26.3248 16.692C39.464 12.4054 39.5999 1.93167 39.5999 1.93167C37.5677 7.90895 32.2269 11.2816 25.2705 14.5294C19.3695 17.2832 13.6475 19.1773 8.26697 22.8439C0.91278 27.8542 0 38.4131 0 38.4131C2.77371 25.7038 13.1856 20.9785 26.3248 16.692Z" fill="#B73630"/>
<path d="M21.2039 21.1122C26.2087 19.6204 31.5064 18.1849 35.2382 14.5294C38.5269 11.3048 40.1911 6.5 39.6021 1.93167C39.6021 1.93167 39.4662 12.4054 26.327 16.692C13.1878 20.9785 2.77371 25.7038 0 38.4131C3.57377 35.2018 9.99528 32.9673 16.4157 32.4767C19.269 32.2557 22.6339 32.2446 25.3811 31.4468C30.5958 29.9317 32.0468 27.8719 33.7497 23.3522C30.8986 27.4509 24.6705 27.7415 19.6325 28.4543C14.5945 29.167 9.23389 29.9781 5.4137 33.3386C8.25702 30.1339 12.6375 28.8079 16.8456 28.0189C21.0536 27.2298 25.433 26.7779 29.2245 24.7888C33.1491 22.7039 36.0876 19.1487 37.3964 14.9018C34.5453 18.4501 31.0323 20.1729 25.7932 21.4835C22.6096 22.2803 19.3949 22.9555 16.2455 23.876C13.0961 24.7965 9.97318 26.2198 7.80284 28.6808C10.9401 24.5037 16.2002 22.6041 21.2039 21.1122Z" fill="#E04A49"/>
</svg>
