<svg width="25" height="25" viewBox="0 0 25 25" fill="none" xmlns="http://www.w3.org/2000/svg">
<circle cx="12.5" cy="12.5" r="12.5" fill="#575757"/>
<path d="M18.9913 10.1101H17.8104H6.77849C6.18574 10.1101 5.70338 9.62859 5.70188 9.03611V9.03326C5.70188 9.03298 5.70185 9.0327 5.70185 9.03243C5.7024 8.43922 6.18514 7.95676 6.77849 7.95676H8.60413C8.75037 7.95676 8.86883 7.83826 8.86883 7.69206C8.86883 7.54586 8.75037 7.42737 8.60413 7.42737H6.77849C5.89289 7.42737 5.17242 8.14786 5.17242 9.03347C5.17242 9.03437 5.17249 9.03528 5.17249 9.03618V17.8837C5.17249 18.0299 5.29099 18.1484 5.43719 18.1484C5.58342 18.1484 5.70188 18.0299 5.70188 17.8837V10.2242C5.98695 10.4821 6.36464 10.6395 6.77849 10.6395H17.8104H18.9913C19.2907 10.6395 19.5342 10.883 19.5342 11.1824V13.0568C19.5342 13.203 19.6527 13.3215 19.7989 13.3215C19.9451 13.3215 20.0636 13.203 20.0636 13.0568V11.1824C20.0636 10.5911 19.5826 10.1101 18.9913 10.1101Z" fill="white"/>
<path d="M19.7989 17.5182C19.6526 17.5182 19.5342 17.6367 19.5342 17.7829V20.1728C19.5342 20.4722 19.2906 20.7157 18.9913 20.7157H6.77831C6.18476 20.7157 5.70184 20.2326 5.70184 19.6389V18.7661C5.70184 18.6199 5.58338 18.5014 5.43715 18.5014C5.29095 18.5014 5.17245 18.6199 5.17245 18.7661V19.6389C5.17245 20.5246 5.89285 21.2451 6.77831 21.2451H18.9913C19.5826 21.2451 20.0636 20.7641 20.0636 20.1728V17.7829C20.0636 17.6367 19.9451 17.5182 19.7989 17.5182Z" fill="white"/>
<path d="M19.2357 7.42747H19.0257C18.8794 7.42747 18.761 7.54597 18.761 7.69217C18.761 7.83837 18.8795 7.95686 19.0257 7.95686H19.2357C19.4003 7.95686 19.5343 8.09079 19.5343 8.25541V9.78573C19.5343 9.93193 19.6527 10.0504 19.799 10.0504C19.9452 10.0504 20.0637 9.93193 20.0637 9.78573V8.25541C20.0636 7.79885 19.6923 7.42747 19.2357 7.42747Z" fill="white"/>
<path d="M18.3294 7.32939L14.7592 3.7592C14.5587 3.5587 14.2921 3.44827 14.0084 3.44827C13.7247 3.44827 13.4581 3.5587 13.2577 3.7592L12.1121 4.90477C12.0087 5.00814 12.0087 5.17572 12.112 5.27909C12.2154 5.38247 12.383 5.38247 12.4864 5.27909L13.632 4.13352C13.7325 4.033 13.8662 3.97766 14.0085 3.97766C14.1507 3.97766 14.2843 4.033 14.3848 4.13352L17.955 7.70371C18.1626 7.91126 18.1626 8.24902 17.9551 8.4566L17.1346 9.27703C17.0312 9.38041 17.0312 9.54799 17.1346 9.65136C17.1862 9.70305 17.254 9.72891 17.3217 9.72891C17.3894 9.72891 17.4572 9.70308 17.5089 9.65136L18.3294 8.83093C18.7433 8.41694 18.7433 7.74337 18.3294 7.32939Z" fill="white"/>
<path d="M11.8776 5.51358C11.7743 5.41021 11.6067 5.41021 11.5033 5.51358L7.73976 9.27704C7.63639 9.38041 7.63639 9.54802 7.73976 9.6514C7.79145 9.70308 7.8592 9.72894 7.92694 9.72894C7.99465 9.72894 8.06244 9.70312 8.11412 9.6514L11.8776 5.88791C11.981 5.78453 11.981 5.61692 11.8776 5.51358Z" fill="white"/>
<path d="M16.7298 8.84273C16.7073 8.7526 16.6393 8.68082 16.5505 8.65364C16.4556 8.62458 16.3722 8.57442 16.3021 8.50403C16.1888 8.39089 16.1264 8.24035 16.1264 8.08021C16.1264 7.92007 16.1888 7.76949 16.3026 7.65593C16.3722 7.58603 16.4556 7.53584 16.5505 7.50678C16.6393 7.47956 16.7073 7.40782 16.7298 7.31769C16.7523 7.22756 16.7258 7.13221 16.6601 7.06655L15.0221 5.42854C14.9565 5.36285 14.8611 5.33643 14.771 5.35885C14.6809 5.3813 14.6091 5.44933 14.5819 5.53821C14.5529 5.63269 14.5027 5.71621 14.4323 5.78657C14.3191 5.89981 14.1686 5.96221 14.0084 5.96221C13.8483 5.96221 13.6977 5.89981 13.5842 5.78615C13.5142 5.71646 13.4641 5.63307 13.435 5.53828C13.4078 5.44943 13.336 5.38137 13.2459 5.35888C13.1559 5.33636 13.0604 5.36285 12.9948 5.42854L9.14647 9.27701C9.04309 9.38039 9.04309 9.548 9.1465 9.65137C9.24984 9.75475 9.41745 9.75471 9.52083 9.65137L13.1168 6.05512C13.1456 6.09221 13.1767 6.12749 13.21 6.16065C13.4232 6.37404 13.7067 6.49156 14.0084 6.49156C14.0084 6.49156 14.0084 6.49156 14.0084 6.49156C14.3101 6.49156 14.5937 6.37404 14.8067 6.16075C14.84 6.12749 14.8712 6.0921 14.9 6.05498L16.0335 7.18849C15.9964 7.21734 15.9611 7.24848 15.928 7.28178C15.7146 7.49493 15.597 7.77846 15.597 8.08017C15.597 8.38189 15.7146 8.66542 15.9275 8.87808C15.9608 8.91155 15.9963 8.94284 16.0336 8.97179L15.7283 9.27708C15.6249 9.38046 15.6249 9.54807 15.7282 9.65144C15.7799 9.70313 15.8477 9.72899 15.9154 9.72899C15.9831 9.72899 16.0509 9.70317 16.1026 9.65144L16.6601 9.09394C16.7258 9.02817 16.7522 8.93286 16.7298 8.84273Z" fill="white"/>
<path d="M14.0597 9.40387C13.9816 9.06973 13.8115 8.76426 13.5678 8.5206C13.2194 8.17214 12.756 7.98019 12.2632 7.98019C11.7704 7.98019 11.3071 8.1721 10.9586 8.52064C10.7149 8.7643 10.5448 9.06973 10.4667 9.40391C10.4334 9.54628 10.5218 9.68862 10.6642 9.72192C10.8065 9.75515 10.9489 9.66676 10.9822 9.52442C11.0378 9.28642 11.1591 9.06876 11.3329 8.89496C11.5814 8.64643 11.9117 8.50962 12.2631 8.50962C12.6146 8.50962 12.9449 8.64646 13.1934 8.89493C13.3672 9.06872 13.4885 9.28642 13.5441 9.52439C13.5727 9.64646 13.6815 9.72888 13.8016 9.72888C13.8216 9.72888 13.8419 9.72662 13.8621 9.72189C14.0046 9.68862 14.093 9.54625 14.0597 9.40387Z" fill="white"/>
<path d="M19.8398 13.498H17.479C16.4193 13.498 15.5571 14.3602 15.5571 15.4199C15.5571 16.4795 16.4193 17.3417 17.479 17.3417H19.8398C20.3084 17.3417 20.6897 16.9604 20.6897 16.4918V14.3479C20.6897 13.8793 20.3084 13.498 19.8398 13.498ZM20.1603 16.4918C20.1603 16.6685 20.0165 16.8123 19.8398 16.8123H17.479C16.7111 16.8123 16.0865 16.1877 16.0865 15.4199C16.0865 14.652 16.7111 14.0274 17.479 14.0274H19.8398C20.0165 14.0274 20.1603 14.1712 20.1603 14.3479V16.4918Z" fill="white"/>
<path d="M17.4421 14.4923C16.9307 14.4923 16.5146 14.9084 16.5146 15.4199C16.5146 15.9313 16.9307 16.3474 17.4421 16.3474C17.9535 16.3474 18.3696 15.9313 18.3696 15.4199C18.3696 14.9084 17.9536 14.4923 17.4421 14.4923ZM17.4421 15.8181C17.2226 15.8181 17.044 15.6394 17.044 15.4199C17.044 15.2003 17.2226 15.0217 17.4421 15.0217C17.6616 15.0217 17.8402 15.2003 17.8402 15.4199C17.8402 15.6394 17.6617 15.8181 17.4421 15.8181Z" fill="white"/>
</svg>
