<svg width="25" height="25" viewBox="0 0 25 25" fill="none" xmlns="http://www.w3.org/2000/svg">
<circle cx="12.5" cy="12.5" r="12.5" fill="#575757"/>
<path d="M20.0823 17.024C20.0823 17.024 20.0823 17.024 20.082 17.0237C19.0803 14.969 17.4011 12.0546 15.9196 9.48338C15.1445 8.13761 14.4122 6.86688 13.8828 5.90102C13.633 5.44488 13.1891 5.17241 12.6956 5.17241C12.2021 5.17241 11.7582 5.44488 11.5084 5.90102C10.9787 6.86746 10.2461 8.13946 9.47008 9.48614C7.98956 12.0567 6.31097 14.9699 5.30958 17.024C5.21865 17.2111 5.17242 17.4091 5.17242 17.6121C5.17242 18.3585 5.77522 18.9655 6.5164 18.9655L12.6959 18.9649L18.8755 18.9655C19.6166 18.9655 20.2194 18.3585 20.2194 17.6121C20.2194 17.4091 20.1732 17.2111 20.0823 17.024ZM18.8755 18.3389H6.51696C6.12174 18.3389 5.79999 18.0125 5.79999 17.6121C5.79999 17.505 5.82479 17.3993 5.87376 17.2986C6.86562 15.2641 8.53834 12.3607 10.0139 9.79931C10.7915 8.44957 11.5259 7.17452 12.0585 6.20225C12.3347 5.69774 13.0571 5.69774 13.3333 6.20225C13.8657 7.17393 14.5994 8.44772 15.3764 9.79625C16.8529 12.3586 18.5262 15.2632 19.5184 17.2983C19.5677 17.3994 19.5925 17.505 19.5925 17.6121C19.5925 18.0125 19.2707 18.3389 18.8755 18.3389Z" fill="white"/>
<path d="M12.6959 8.3075C12.5227 8.3075 12.3824 8.44772 12.3824 8.62099V14.8906C12.3824 15.0638 12.5227 15.2041 12.6959 15.2041C12.8692 15.2041 13.0094 15.0638 13.0094 14.8906V8.62099C13.0094 8.44772 12.8692 8.3075 12.6959 8.3075Z" fill="white"/>
<path d="M12.6959 17.0846C12.8691 17.0846 13.0094 16.9442 13.0094 16.7711C13.0094 16.598 12.8691 16.4576 12.6959 16.4576C12.5228 16.4576 12.3824 16.598 12.3824 16.7711C12.3824 16.9442 12.5228 17.0846 12.6959 17.0846Z" fill="white"/>
</svg>
