<svg width="12" height="7" viewBox="0 0 12 7" fill="none" xmlns="http://www.w3.org/2000/svg">
<path d="M5.6714 0.433538C5.58212 0.433538 5.48167 0.478181 5.41471 0.545145L0.213814 5.74604C0.146851 5.813 0.102207 5.91345 0.102207 6.00273C0.102207 6.09202 0.146851 6.19247 0.213814 6.25943L0.771851 6.81747C0.838814 6.88443 0.939261 6.92907 1.02855 6.92907C1.11783 6.92907 1.21828 6.88443 1.28524 6.81747L5.6714 2.43131L10.0576 6.81747C10.1245 6.88443 10.225 6.92907 10.3143 6.92907C10.4147 6.92907 10.504 6.88443 10.571 6.81747L11.129 6.25943C11.196 6.19247 11.2406 6.09202 11.2406 6.00273C11.2406 5.91345 11.196 5.813 11.129 5.74604L5.9281 0.545145C5.86114 0.478181 5.76069 0.433538 5.6714 0.433538Z" fill="#4988D1"/>
</svg>
