<svg width="39" height="38" viewBox="0 0 39 38" fill="none" xmlns="http://www.w3.org/2000/svg">
<g filter="url(#filter0_d)">
<path d="M32.3675 23.6259C30.5369 23.6259 28.7395 23.3396 27.0362 22.7767C26.2016 22.4921 25.1756 22.7532 24.6662 23.2764L21.3042 25.8143C17.4053 23.7331 15.0037 21.3322 12.9508 17.4626L15.4141 14.1882C16.054 13.5491 16.2836 12.6155 16.0086 11.7395C15.4433 10.0273 15.1561 8.23069 15.1561 6.39932C15.1562 5.07632 14.0799 4 12.757 4H7.26594C5.94302 4 4.8667 5.07632 4.8667 6.39924C4.8667 21.5634 17.2034 33.9 32.3675 33.9C33.6905 33.9 34.7668 32.8237 34.7668 31.5008V26.0251C34.7667 24.7022 33.6904 23.6259 32.3675 23.6259Z" fill="white"/>
</g>
<defs>
<filter id="filter0_d" x="0.866699" y="0" width="37.9001" height="37.9" filterUnits="userSpaceOnUse" color-interpolation-filters="sRGB">
<feFlood flood-opacity="0" result="BackgroundImageFix"/>
<feColorMatrix in="SourceAlpha" type="matrix" values="0 0 0 0 0 0 0 0 0 0 0 0 0 0 0 0 0 0 127 0"/>
<feOffset/>
<feGaussianBlur stdDeviation="2"/>
<feColorMatrix type="matrix" values="0 0 0 0 0 0 0 0 0 0 0 0 0 0 0 0 0 0 0.5 0"/>
<feBlend mode="normal" in2="BackgroundImageFix" result="effect1_dropShadow"/>
<feBlend mode="normal" in="SourceGraphic" in2="effect1_dropShadow" result="shape"/>
</filter>
</defs>
</svg>
