<svg width="20" height="14" viewBox="0 0 20 14" fill="none" xmlns="http://www.w3.org/2000/svg">
<path fill-rule="evenodd" clip-rule="evenodd" d="M9.99 3C9.99 4.66 8.66 6 7 6C5.34 6 4 4.66 4 3C4 1.34 5.34 0 7 0C8.66 0 9.99 1.34 9.99 3ZM16.99 4.5C16.99 5.88 15.88 7 14.5 7C13.12 7 12 5.88 12 4.5C12 3.12 13.12 2 14.5 2C15.88 2 16.99 3.12 16.99 4.5ZM14.5 9C12.67 9 9 9.92 9 11.75V13C9 13.55 9.45 14 10 14H19C19.55 14 20 13.55 20 13V11.75C20 9.92 16.33 9 14.5 9ZM0 11.5C0 9.17 4.67 8 7 8C7.66 8 8.5 8.1 9.37 8.28C7.33 9.41 7 10.9 7 11.75V14H1C0.45 14 0 13.55 0 13V11.5Z" fill="white"/>
</svg>
