<svg width="279" height="155" viewBox="0 0 279 155" fill="none" xmlns="http://www.w3.org/2000/svg">
<g clip-path="url(#clip0)">
<path d="M6.50997 65.9363C3.33226 51.2838 9.99521 34.8188 23.9362 29.1774C34.9044 24.7357 51.6899 23.2551 74.1646 28.6668C133.619 42.962 128.493 26.6247 151.557 13.8612C171.854 2.62929 196.66 -11.1553 239.713 14.8823C272.362 34.6402 253.039 65.4257 275.078 84.3157C289.25 96.4666 265.34 155.281 196.66 142.517C127.981 129.754 112.425 147.674 81.3401 154.26C50.0755 160.897 -14.4783 121.406 2.92223 103.206C13.1729 92.4844 8.50886 75.126 6.50997 65.9363Z" fill="#36BE57"/>
<path d="M24.3206 69.51C21.6042 56.9252 27.3189 42.7577 39.3122 37.9076C48.7429 34.0785 63.1707 32.8277 82.4933 37.4736C133.593 49.7521 129.185 35.7123 149.02 24.7357C166.472 15.0865 187.794 3.24192 224.799 25.6036C252.86 42.579 236.254 69.0505 255.192 85.2857C267.365 95.7263 246.812 146.295 187.794 135.319C128.775 124.342 115.398 139.735 88.6694 145.402C61.7613 151.12 6.25373 117.194 21.2198 101.546C30.0354 92.3312 26.012 77.4234 24.3206 69.51Z" fill="#E8FFDD"/>
<path d="M156.321 92.8733L146.974 97.6744C146.165 96.8589 145.044 96.353 143.807 96.353H137.366C137.079 96.353 136.975 96.3354 136.943 96.3279C136.885 96.2883 136.739 96.1513 136.621 96.0401L136.559 95.9821C131.317 91.0451 126.887 91.3583 121.848 93.3468C121.06 93.6578 121.045 93.6585 120.264 93.6941L118.845 93.6959C118.402 92.4405 117.205 91.5382 115.801 91.5382H111.062C109.283 91.5382 107.835 92.9874 107.835 94.7687V107.198C107.835 108.977 109.283 110.425 111.062 110.425H115.801C117.205 110.425 118.402 109.523 118.845 108.269H121.451C121.746 108.295 122.033 108.355 122.314 108.449L134.569 111.726C135.106 111.872 135.598 112.015 136.075 112.153C137.657 112.613 138.988 113 140.375 113C141.942 113 143.582 112.506 145.739 111.068C145.749 111.06 145.76 111.053 145.77 111.046L160.881 100.286C162.867 98.8686 163.446 96.3108 162.227 94.335C161.022 92.387 158.482 91.759 156.321 92.8733ZM116.489 107.198C116.489 107.571 116.174 107.886 115.801 107.886H111.062C110.689 107.886 110.374 107.571 110.374 107.198V94.7689C110.374 94.394 110.689 94.0773 111.062 94.0773H115.801C116.174 94.0773 116.489 94.394 116.489 94.7689V107.198ZM159.407 98.2184L144.314 108.966C141.241 111.011 139.934 110.631 136.783 109.715C136.296 109.574 135.792 109.428 135.229 109.275L122.971 105.997C122.477 105.844 121.971 105.755 121.451 105.73H119.028V96.2362L120.379 96.2305C121.345 96.1865 121.645 96.1565 122.78 95.7087C127.147 93.985 130.517 93.7797 134.82 97.8316L134.881 97.8887C135.622 98.5863 136.081 98.8918 137.366 98.8918H143.807C144.869 98.8918 145.733 99.7559 145.733 100.818C145.733 101.878 144.869 102.74 143.807 102.74H133.365C132.664 102.74 132.095 103.308 132.095 104.01C132.095 104.711 132.664 105.279 133.365 105.279H143.807C146.269 105.279 148.272 103.278 148.272 100.818C148.272 100.507 148.239 100.203 148.179 99.9098L157.483 95.1307C158.331 94.6936 159.491 94.7384 160.067 95.6693C160.574 96.492 160.29 97.5882 159.407 98.2184Z" fill="black"/>
<path d="M137.056 78.0268C135.682 78.6962 134.732 80.107 134.732 81.7356C134.732 83.5313 135.889 85.0613 137.496 85.6239V87.5146C137.496 89.8298 139.378 91.7133 141.691 91.7133H147.315C149.63 91.7133 151.513 89.8298 151.513 87.5146V85.6239C153.121 85.0613 154.277 83.5312 154.277 81.7356C154.277 80.1069 153.327 78.696 151.953 78.0266C152.509 75.9615 153.636 74.4238 154.821 72.8108C156.644 70.3295 158.711 67.5171 158.706 62.5632C158.706 62.1209 158.688 61.667 158.652 61.2139C158.596 60.5149 157.986 59.9951 157.286 60.049C156.587 60.1046 156.065 60.7163 156.121 61.4152C156.152 61.8015 156.167 62.1877 156.167 62.5642C156.171 66.6854 154.522 68.9305 152.775 71.3073C151.45 73.1109 150.086 74.97 149.436 77.6124H139.573C138.923 74.9703 137.559 73.1112 136.233 71.3078C134.486 68.931 132.836 66.686 132.842 62.5646C132.847 58.1701 134.73 55.3948 136.308 53.8405C138.482 51.7001 141.459 50.4972 144.487 50.5398C144.499 50.54 144.511 50.54 144.523 50.5398C146.989 50.5024 149.463 51.3063 151.483 52.7994C152.046 53.2161 152.841 53.0969 153.258 52.5333C153.675 51.9695 153.556 51.1746 152.992 50.7578C150.533 48.9402 147.52 47.9623 144.504 48.0013C140.812 47.9562 137.177 49.4226 134.527 52.0318C131.769 54.748 130.308 58.3892 130.303 62.5617C130.296 67.5176 132.364 70.3303 134.188 72.8119C135.373 74.4245 136.5 75.962 137.056 78.0268ZM148.975 87.5148C148.975 88.4299 148.23 89.1745 147.315 89.1745H141.691C140.778 89.1745 140.035 88.4299 140.035 87.5148V85.8552H148.975V87.5148ZM138.855 80.1516H150.154C151.027 80.1516 151.738 80.8622 151.738 81.7356C151.738 82.6071 151.028 83.3161 150.154 83.3161H138.855C137.982 83.3161 137.271 82.6071 137.271 81.7356C137.271 80.8622 137.982 80.1516 138.855 80.1516Z" fill="black"/>
<path d="M145.774 57.2737C145.774 56.5725 145.206 56.0042 144.505 56.0042C143.803 56.0042 143.235 56.5725 143.235 57.2737V65.147C143.235 65.8482 143.803 66.4165 144.505 66.4165C145.206 66.4165 145.774 65.8482 145.774 65.147V57.2737Z" fill="black"/>
<path d="M144.505 69.6205C143.803 69.6205 143.235 70.1889 143.235 70.89V70.8973C143.235 71.5984 143.803 72.1633 144.505 72.1633C145.206 72.1633 145.774 71.5913 145.774 70.8902C145.774 70.189 145.206 69.6205 144.505 69.6205Z" fill="black"/>
<path d="M169.895 62.5532H164.738C164.037 62.5532 163.469 63.1215 163.469 63.8227C163.469 64.5238 164.037 65.0921 164.738 65.0921H169.895C170.596 65.0921 171.164 64.5238 171.164 63.8227C171.164 63.1215 170.596 62.5532 169.895 62.5532Z" fill="black"/>
<path d="M162.606 54.3762C162.849 54.3762 163.095 54.3064 163.312 54.1606L167.59 51.2891C168.173 50.8984 168.328 50.1098 167.937 49.5276C167.546 48.9455 166.758 48.7903 166.175 49.181L161.897 52.0526C161.315 52.4433 161.16 53.232 161.551 53.8141C161.796 54.179 162.197 54.3762 162.606 54.3762Z" fill="black"/>
<path d="M167.591 76.3562L163.312 73.4847C162.73 73.094 161.941 73.2492 161.551 73.8313C161.16 74.4133 161.315 75.202 161.897 75.5928L166.176 78.4643C166.393 78.6101 166.639 78.6799 166.882 78.6799C167.291 78.6799 167.692 78.4827 167.937 78.1178C168.328 77.5356 168.173 76.7469 167.591 76.3562Z" fill="black"/>
<path d="M119.115 65.0921H124.268C124.969 65.0921 125.537 64.5238 125.537 63.8227C125.537 63.1215 124.969 62.5532 124.268 62.5532H119.115C118.414 62.5532 117.845 63.1215 117.845 63.8227C117.845 64.5238 118.414 65.0921 119.115 65.0921Z" fill="black"/>
<path d="M121.419 51.2893L125.698 54.1608C125.915 54.3065 126.161 54.3763 126.404 54.3763C126.813 54.3763 127.214 54.1792 127.459 53.8142C127.85 53.2322 127.695 52.4435 127.113 52.0527L122.834 49.1812C122.252 48.7904 121.464 48.9457 121.073 49.5277C120.682 50.1098 120.837 50.8985 121.419 51.2893Z" fill="black"/>
<path d="M125.698 73.4847L121.42 76.3562C120.837 76.747 120.682 77.5357 121.073 78.1178C121.318 78.4827 121.719 78.6799 122.128 78.6799C122.372 78.6799 122.617 78.6101 122.835 78.4643L127.113 75.5928C127.695 75.202 127.85 74.4133 127.459 73.8313C127.069 73.2492 126.28 73.094 125.698 73.4847Z" fill="black"/>
<path d="M154.917 56.7896C155.164 57.037 155.488 57.1605 155.812 57.1605C156.137 57.1605 156.462 57.0361 156.71 56.7878C157.206 56.2921 157.204 55.4864 156.709 54.9905C156.213 54.4948 155.409 54.4948 154.913 54.9905C154.417 55.4863 154.417 56.2901 154.913 56.786L154.917 56.7896Z" fill="black"/>
</g>
<defs>
<clipPath id="clip0">
<rect width="279" height="155" fill="white"/>
</clipPath>
</defs>
</svg>
