<svg width="279" height="155" viewBox="0 0 279 155" fill="none" xmlns="http://www.w3.org/2000/svg">
<g clip-path="url(#clip0)">
<path d="M6.50997 65.9363C3.33226 51.2838 9.99521 34.8188 23.9362 29.1774C34.9044 24.7357 51.6899 23.2551 74.1646 28.6668C133.619 42.962 128.493 26.6247 151.557 13.8612C171.854 2.62929 196.66 -11.1553 239.713 14.8823C272.362 34.6402 253.039 65.4257 275.078 84.3157C289.25 96.4666 265.34 155.281 196.66 142.517C127.981 129.754 112.425 147.674 81.3401 154.26C50.0755 160.897 -14.4783 121.406 2.92223 103.206C13.1729 92.4844 8.50886 75.126 6.50997 65.9363Z" fill="#36BE57"/>
<path d="M24.3206 69.51C21.6042 56.9252 27.3189 42.7577 39.3122 37.9076C48.7429 34.0785 63.1707 32.8277 82.4933 37.4736C133.593 49.7521 129.185 35.7123 149.02 24.7357C166.472 15.0865 187.794 3.24192 224.799 25.6036C252.86 42.579 236.254 69.0505 255.192 85.2857C267.365 95.7263 246.812 146.295 187.794 135.319C128.775 124.342 115.398 139.735 88.6694 145.402C61.7613 151.12 6.25373 117.194 21.2198 101.546C30.0354 92.3312 26.012 77.4234 24.3206 69.51Z" fill="#E8FFDD"/>
<path d="M159.807 91.3756C159.648 91.3754 159.492 91.332 159.356 91.25C159.219 91.168 159.108 91.0505 159.033 90.9101C158.958 90.7697 158.923 90.6116 158.931 90.4527C158.939 90.2938 158.99 90.1401 159.079 90.008C159.59 89.2447 160.065 88.5842 160.53 87.9877L160.672 87.8059C160.746 87.7152 160.836 87.6399 160.939 87.5846C161.042 87.5293 161.155 87.495 161.271 87.4837C161.387 87.4724 161.504 87.4843 161.615 87.5188C161.727 87.5533 161.83 87.6096 161.92 87.6845C162.009 87.7594 162.083 87.8514 162.136 87.9551C162.19 88.0587 162.222 88.172 162.231 88.2883C162.241 88.4046 162.227 88.5216 162.19 88.6324C162.154 88.7432 162.095 88.8457 162.019 88.9338L161.896 89.091C161.476 89.6303 161.026 90.2566 160.538 90.9848C160.458 91.105 160.349 91.2036 160.222 91.2718C160.094 91.34 159.952 91.3757 159.807 91.3756Z" fill="black"/>
<path d="M155.109 110.243H126.289C126.056 110.243 125.833 110.151 125.668 109.986C125.503 109.821 125.411 109.598 125.411 109.365V100.968H120.966C120.157 100.965 119.382 100.642 118.81 100.069C118.239 99.4964 117.918 98.7201 117.918 97.9108V85.552H114.958C114.423 85.5522 113.898 85.4159 113.431 85.1559C112.964 84.8959 112.571 84.5209 112.289 84.0665C112.007 83.6121 111.847 83.0933 111.822 82.5593C111.797 82.0253 111.909 81.4938 112.147 81.0152L117.426 70.3965C118.235 64.4048 121.189 58.9097 125.741 54.9303C130.292 50.951 136.133 48.7575 142.179 48.7567C142.794 48.7567 143.431 48.7805 144.129 48.8296C150.06 49.3139 155.626 51.8894 159.834 56.0966C164.042 60.3039 166.619 65.8693 167.105 71.8001C167.427 75.758 166.786 79.7351 165.236 83.3912C165.146 83.6058 164.973 83.7754 164.757 83.8629C164.541 83.9504 164.299 83.9485 164.085 83.8576C163.87 83.7668 163.701 83.5944 163.613 83.3784C163.526 83.1625 163.528 82.9206 163.618 82.7061C165.058 79.3084 165.653 75.6124 165.352 71.9345C164.902 66.4223 162.507 61.2494 158.597 57.3384C154.686 53.4274 149.514 51.0326 144.002 50.5811C143.349 50.5355 142.75 50.5135 142.179 50.5135C136.535 50.5133 131.084 52.569 126.845 56.2961C122.607 60.0233 119.871 65.1667 119.15 70.7645C119.136 70.8625 119.107 70.9575 119.062 71.0456L113.721 81.797C113.616 82.0076 113.567 82.2417 113.578 82.4768C113.588 82.712 113.659 82.9405 113.783 83.1407C113.907 83.3409 114.08 83.5061 114.285 83.6207C114.491 83.7352 114.723 83.7953 114.958 83.7953H118.797C119.03 83.7953 119.253 83.8878 119.418 84.0525C119.582 84.2173 119.675 84.4407 119.675 84.6736V97.9108C119.674 98.2543 119.809 98.5842 120.052 98.828C120.294 99.0717 120.623 99.2094 120.966 99.2108H126.289C126.522 99.2108 126.746 99.3033 126.91 99.4681C127.075 99.6328 127.168 99.8562 127.168 100.089V108.486H154.23V105.711C154.23 105.428 154.23 105.145 154.25 104.862C154.265 104.629 154.372 104.412 154.548 104.258C154.724 104.104 154.953 104.027 155.186 104.042C155.419 104.057 155.636 104.165 155.79 104.34C155.944 104.516 156.022 104.745 156.006 104.978C155.99 105.223 155.991 105.467 155.991 105.711V109.365C155.991 109.481 155.968 109.595 155.923 109.702C155.879 109.809 155.814 109.906 155.732 109.987C155.65 110.069 155.553 110.133 155.446 110.177C155.339 110.221 155.224 110.244 155.109 110.243Z" fill="black"/>
<path d="M156.137 99.2995C156.001 99.2996 155.867 99.268 155.745 99.2075C155.623 99.1469 155.517 99.0589 155.435 98.9505C155.353 98.842 155.298 98.716 155.273 98.5824C155.248 98.4488 155.254 98.3112 155.292 98.1805C155.531 97.3372 155.819 96.4799 156.153 95.6332C156.239 95.4171 156.407 95.2438 156.62 95.1512C156.833 95.0586 157.074 95.0542 157.29 95.1391C157.507 95.2239 157.681 95.391 157.774 95.6038C157.868 95.8166 157.873 96.0577 157.789 96.2744C157.477 97.0693 157.206 97.873 156.982 98.6618C156.929 98.8455 156.818 99.0072 156.666 99.1223C156.513 99.2373 156.328 99.2996 156.137 99.2995Z" fill="black"/>
<path d="M142.574 82.6314C142.341 82.6314 142.118 82.5389 141.953 82.3742C141.788 82.2094 141.696 81.986 141.696 81.753C141.696 77.9971 143.816 75.8477 146.107 74.0839C146.826 73.5361 147.405 72.8268 147.799 72.0135C148.192 71.2001 148.389 70.3056 148.372 69.4022C148.324 67.903 147.706 66.4785 146.646 65.4176C145.586 64.3567 144.161 63.7388 142.662 63.6892C141.893 63.6776 141.13 63.8189 140.417 64.105C139.703 64.3911 139.054 64.8163 138.506 65.3558C137.958 65.8953 137.523 66.5383 137.227 67.2475C136.93 67.9566 136.777 68.7177 136.777 69.4865C136.777 69.7195 136.684 69.9429 136.52 70.1076C136.355 70.2723 136.132 70.3649 135.899 70.3649C135.666 70.3649 135.442 70.2723 135.278 70.1076C135.113 69.9429 135.02 69.7195 135.02 69.4865C135.02 68.4853 135.219 67.4941 135.605 66.5705C135.992 65.6469 136.558 64.8093 137.271 64.1064C137.984 63.4035 138.829 62.8494 139.758 62.4762C140.687 62.1029 141.681 61.9181 142.682 61.9324C144.645 61.9733 146.515 62.7712 147.903 64.1595C149.291 65.5477 150.088 67.4186 150.128 69.3811C150.15 70.5577 149.894 71.7229 149.381 72.7822C148.869 73.8416 148.114 74.7654 147.178 75.4788C144.942 77.2004 143.452 78.9256 143.452 81.7504C143.452 81.8659 143.43 81.9803 143.386 82.0872C143.342 82.194 143.277 82.2911 143.196 82.3729C143.114 82.4548 143.017 82.5197 142.911 82.5641C142.804 82.6084 142.69 82.6313 142.574 82.6314Z" fill="black"/>
<path d="M142.574 87.3975C142.341 87.3975 142.118 87.305 141.953 87.1402C141.788 86.9755 141.696 86.7521 141.696 86.5191V86.0193C141.696 85.7864 141.788 85.5629 141.953 85.3982C142.118 85.2335 142.341 85.1409 142.574 85.1409C142.807 85.1409 143.031 85.2335 143.195 85.3982C143.36 85.5629 143.453 85.7864 143.453 86.0193V86.5191C143.453 86.7521 143.36 86.9755 143.195 87.1402C143.031 87.305 142.807 87.3975 142.574 87.3975Z" fill="black"/>
</g>
<defs>
<clipPath id="clip0">
<rect width="279" height="155" fill="white"/>
</clipPath>
</defs>
</svg>
