<svg width="279" height="155" viewBox="0 0 279 155" fill="none" xmlns="http://www.w3.org/2000/svg">
<g clip-path="url(#clip0)">
<path d="M6.50997 65.9363C3.33226 51.2838 9.99521 34.8188 23.9362 29.1774C34.9044 24.7357 51.6899 23.2551 74.1646 28.6668C133.619 42.962 128.493 26.6247 151.557 13.8612C171.854 2.62929 196.66 -11.1553 239.713 14.8823C272.362 34.6402 253.039 65.4257 275.078 84.3157C289.25 96.4666 265.34 155.281 196.66 142.517C127.981 129.754 112.425 147.674 81.3401 154.26C50.0755 160.897 -14.4783 121.406 2.92223 103.206C13.1729 92.4844 8.50886 75.126 6.50997 65.9363Z" fill="#36BE57"/>
<path d="M24.3206 69.51C21.6042 56.9252 27.3189 42.7577 39.3122 37.9076C48.7429 34.0785 63.1707 32.8277 82.4933 37.4736C133.593 49.7521 129.185 35.7122 149.02 24.7356C166.472 15.0864 187.794 3.24189 224.799 25.6036C252.86 42.579 236.254 69.0505 255.192 85.2857C267.365 95.7262 246.812 146.295 187.794 135.319C128.775 124.342 115.398 139.735 88.6694 145.402C61.7613 151.12 6.25373 117.194 21.2198 101.546C30.0354 92.3311 26.012 77.4234 24.3206 69.51Z" fill="#E8FFDD"/>
<g clip-path="url(#clip1)">
<path d="M158.189 55.6517C155.755 55.6517 153.774 57.6323 153.774 60.0669C153.774 60.5927 154.2 61.019 154.726 61.019C155.252 61.019 155.678 60.5927 155.678 60.0669C155.678 58.6823 156.805 57.556 158.189 57.556C159.574 57.556 160.7 58.6823 160.7 60.0669C160.7 61.4514 159.574 62.5777 158.189 62.5777H157.585C157.059 62.5777 156.633 63.004 156.633 63.5299V66.7874C156.633 67.3132 157.059 67.7395 157.585 67.7395C158.111 67.7395 158.537 67.3132 158.537 66.7874V64.4684C160.81 64.2905 162.604 62.3843 162.604 60.0669C162.604 57.6323 160.624 55.6517 158.189 55.6517Z" fill="black"/>
<path d="M157.585 69.1904C157.059 69.1904 156.633 69.6167 156.633 70.1425V70.4214C156.633 70.9473 157.059 71.3736 157.585 71.3736C158.111 71.3736 158.537 70.9473 158.537 70.4214V70.1425C158.537 69.6167 158.111 69.1904 157.585 69.1904Z" fill="black"/>
<path d="M166.543 51H149.834C147.541 51 145.676 52.8651 145.676 55.1577V62.6919C142.543 58.191 137.333 55.239 131.445 55.239H127.188C122.21 55.239 117.574 57.8594 114.995 62.1033C111.494 63.201 109.155 66.4617 109.261 70.1695L109.502 78.478C108.761 79.1727 108.297 80.1587 108.297 81.2518V82.1455C108.297 84.2428 110.004 85.9491 112.102 85.9491H114.655C115.304 87.5562 116.25 89.0556 117.476 90.4217C116.801 91.3564 113.333 96.1584 113.121 96.4533C113.052 96.5489 113.001 96.6567 112.971 96.7707L108.58 113.666C108.433 114.229 108.553 114.816 108.909 115.276C109.265 115.736 109.803 116 110.385 116H145.805C146.44 116 147.052 115.734 147.484 115.269C147.917 114.804 148.139 114.174 148.093 113.539L147.733 108.604C147.642 107.354 147.311 106.159 146.747 105.051C146.509 104.582 145.935 104.395 145.467 104.633C144.998 104.872 144.811 105.445 145.05 105.914C145.498 106.795 145.761 107.746 145.834 108.742L146.194 113.677C146.205 113.825 146.134 113.925 146.09 113.972C146.047 114.018 145.952 114.096 145.805 114.096H141.413V110.205C141.413 109.68 140.987 109.253 140.461 109.253C139.935 109.253 139.509 109.68 139.509 110.205V114.096H118.661L121.09 104.75C121.098 104.719 121.126 104.698 121.157 104.698H125.364C126.218 104.698 127.023 104.485 127.73 104.112C128.341 104.223 128.968 104.28 129.598 104.28C132.268 104.28 134.816 103.26 136.682 101.462L136.685 101.463C136.871 101.502 136.73 101.473 139.551 101.917C140.585 102.079 141.554 102.447 142.43 103.011C142.59 103.114 142.768 103.163 142.945 103.163C143.258 103.163 143.564 103.009 143.746 102.726C144.031 102.284 143.903 101.695 143.461 101.41C142.36 100.701 141.143 100.239 139.845 100.036C137.402 99.6262 137.178 99.663 136.787 99.5127C136.1 99.2475 135.63 98.5932 135.618 97.8293C136.744 97.346 137.539 96.2456 137.549 94.9682C137.552 94.6168 137.497 94.2744 137.39 93.9507C139.643 92.6155 142.872 90.0887 144.542 85.9489H146.334C148.431 85.9489 150.137 84.2427 150.137 82.1454V81.2517C150.137 80.0827 149.607 79.0354 148.775 78.3369V75.8871C149.119 75.9778 149.475 76.025 149.834 76.025H152.833C153.179 76.025 153.461 76.3068 153.461 76.6534V79.3575C153.461 80.0297 153.872 80.6046 154.508 80.8221C154.678 80.8799 154.85 80.908 155.019 80.908C155.486 80.908 155.93 80.695 156.232 80.3056L159.382 76.2465C159.492 76.1057 159.656 76.025 159.834 76.025H166.545C168.837 76.025 170.703 74.1599 170.703 71.8673V55.1577C170.703 52.8651 168.837 51 166.543 51V51ZM110.202 82.1454V81.2517C110.202 80.2038 111.054 79.3512 112.102 79.3512H113.647C113.582 81.0068 113.625 82.3701 114.038 84.0446H112.102C111.054 84.0446 110.202 83.1926 110.202 82.1454ZM129.63 102.375C130.147 101.579 130.449 100.631 130.449 99.6131V98.0916H133.724C133.796 99.0427 134.219 99.8975 134.875 100.519C133.427 101.701 131.572 102.367 129.63 102.375ZM134.341 96.1872H130.233C129.302 96.1872 128.545 96.9447 128.545 97.8759V99.613C128.545 101.367 127.118 102.793 125.364 102.793H121.157C120.259 102.793 119.473 103.401 119.247 104.271L116.693 114.096H110.436L114.77 97.4226C115.105 96.9573 121.281 88.4048 122.06 87.3246C122.258 87.0506 122.55 86.8702 122.883 86.8168C123.22 86.7626 123.561 86.8445 123.839 87.0467L123.886 87.0806C124.188 87.3001 124.367 87.6396 124.377 88.0198C124.386 88.2774 124.312 88.5252 124.162 88.7378L122.388 91.2736C122.057 91.7446 122.016 92.3545 122.282 92.8652C122.547 93.3762 123.07 93.6937 123.646 93.6937H134.398C134.731 93.6937 135.044 93.8236 135.28 94.0593C135.518 94.2974 135.647 94.614 135.644 94.9521C135.639 95.6332 135.054 96.1872 134.341 96.1872ZM148.233 82.1454C148.233 83.1926 147.381 84.0446 146.334 84.0446H145.158C145.434 82.9305 145.575 81.7802 145.575 80.6093C145.575 80.1847 145.566 79.7645 145.549 79.3512H146.334C147.381 79.3512 148.233 80.2038 148.233 81.2517V82.1454ZM146.334 77.4469H145.413C145.302 76.3774 145.131 75.3417 144.904 74.3584C144.459 72.4445 142.77 71.0303 140.796 70.9192C137.107 70.7124 133.345 69.7559 129.915 68.153C128.955 67.7051 127.795 68.0144 127.217 68.8726C126.999 69.1968 126.54 69.4327 126.131 69.4234C125.465 69.4157 124.732 69.0494 123.825 68.2711C123.214 67.7452 122.598 67.1296 121.942 66.3898C121.471 65.8564 120.793 65.5502 120.083 65.5496H120.08C119.374 65.5496 118.7 65.8525 118.231 66.3811C117.315 67.415 116.52 68.6021 115.869 69.9089C115.634 70.3795 115.825 70.9512 116.296 71.1859C116.767 71.4205 117.338 71.2292 117.573 70.7586C118.15 69.601 118.851 68.5532 119.656 67.6446C119.803 67.4789 119.985 67.454 120.081 67.454C120.179 67.4555 120.364 67.4795 120.516 67.6516C121.23 68.4575 121.906 69.1325 122.584 69.7156C123.381 70.3993 124.613 71.3105 126.109 71.3277C127.169 71.3385 128.219 70.7943 128.797 69.9363C128.854 69.8509 128.995 69.8251 129.11 69.8786C132.756 71.5829 136.761 72.6002 140.689 72.8206C141.824 72.8844 142.794 73.694 143.049 74.7887C143.316 75.9444 143.499 77.1822 143.593 78.47C143.644 79.1567 143.67 79.8765 143.67 80.6094C143.67 82.015 143.44 83.3854 142.986 84.6826C141.564 88.7495 138.38 91.1789 136.266 92.4028C135.728 92.0047 135.079 91.7895 134.398 91.7895H124.351L125.721 89.8314C126.11 89.2789 126.303 88.6304 126.28 87.9635C126.255 86.9934 125.79 86.1098 125.005 85.5401L124.959 85.5064C124.267 85.0043 123.422 84.8022 122.582 84.9367C121.745 85.0709 121.012 85.5234 120.516 86.2108C120.157 86.7077 119.455 87.6806 118.62 88.8375C117.539 87.5634 116.73 86.1701 116.21 84.6824C115.477 82.5885 115.436 80.7078 115.604 78.4685C115.699 77.1535 115.889 75.8878 116.168 74.7066C116.289 74.1948 115.972 73.682 115.46 73.5611C114.949 73.4402 114.436 73.7571 114.315 74.269C114.076 75.2803 113.899 76.3466 113.784 77.4471H112.102C111.855 77.4471 111.614 77.4716 111.379 77.517L111.165 70.115C111.08 67.1635 113.012 64.5811 115.864 63.8347C116.111 63.7698 116.323 63.608 116.45 63.3855C118.647 59.5351 122.762 57.1433 127.188 57.1433H131.445C139.951 57.1433 146.871 64.0633 146.871 72.5693V77.4855C146.695 77.4606 146.516 77.4469 146.334 77.4469ZM168.798 71.8673C168.798 73.1099 167.787 74.1207 166.545 74.1207H159.834C159.065 74.1207 158.352 74.4693 157.879 75.0781L155.365 78.3162V76.6534C155.365 75.2569 154.229 74.1207 152.833 74.1207H149.834C149.457 74.1207 149.098 74.0294 148.775 73.8561V72.5693C148.775 70.339 148.351 68.206 147.581 66.2459V55.1577C147.581 53.9151 148.592 52.9043 149.834 52.9043H166.543C167.787 52.9043 168.798 53.9151 168.798 55.1577V71.8673Z" fill="black"/>
<path d="M124.787 81.5524C125.313 81.5524 125.739 81.1261 125.739 80.6002V79.5371C125.739 79.0113 125.313 78.585 124.787 78.585C124.261 78.585 123.835 79.0113 123.835 79.5371V80.6002C123.835 81.1261 124.261 81.5524 124.787 81.5524Z" fill="black"/>
<path d="M139.015 81.5524C139.541 81.5524 139.968 81.1261 139.968 80.6002V79.5371C139.968 79.0113 139.541 78.585 139.015 78.585C138.49 78.585 138.063 79.0113 138.063 79.5371V80.6002C138.063 81.1261 138.49 81.5524 139.015 81.5524Z" fill="black"/>
<path d="M130.259 86.2371C131.557 85.4798 132.766 85.4798 134.064 86.2371C134.215 86.325 134.38 86.3669 134.543 86.3668C134.871 86.3668 135.19 86.1976 135.367 85.8943C135.632 85.44 135.478 84.8571 135.024 84.5921C133.151 83.4998 131.172 83.4998 129.3 84.5921C128.845 84.8571 128.692 85.4402 128.957 85.8943C129.222 86.3486 129.805 86.502 130.259 86.2371Z" fill="black"/>
</g>
</g>
<defs>
<clipPath id="clip0">
<rect width="279" height="155" fill="white"/>
</clipPath>
<clipPath id="clip1">
<rect width="65" height="65" fill="white" transform="translate(107 51)"/>
</clipPath>
</defs>
</svg>
