<svg width="161" height="164" viewBox="0 0 161 164" fill="none" xmlns="http://www.w3.org/2000/svg">
<path d="M64.4252 30.34C62.3623 30.6219 60.2492 30.75 58.1361 30.75H55.3438V41H52.8281C51.4697 41 50.1867 41.3844 49.0798 41.9994L42.1367 33.1331L41.4323 32.1081C40.6525 30.7756 40.25 29.2638 40.25 27.675C40.25 26.3425 40.5519 24.9844 41.1556 23.78L46.212 13.4531C47.4698 10.9162 49.3817 8.815 51.6709 7.38C53.9853 5.945 56.6519 5.125 59.4442 5.125C60.0731 5.125 60.6769 5.17625 61.2806 5.25312L80.5 7.6875V25.625L77.0033 27.0344C72.9783 28.7 68.752 29.8019 64.4252 30.34Z" fill="#FCD770"/>
<path d="M45.2813 48.6875C45.2813 49.405 45.3819 50.0713 46.6648 53.1206L40.25 49.2L38.967 48.4056C36.6275 46.9963 35.2188 44.4338 35.2188 41.6919C35.2188 39.6163 36.0237 37.6175 37.4828 36.1313L41.4323 32.1082L42.1367 33.1332L49.0798 41.9994C46.8158 43.3319 45.2813 45.8175 45.2813 48.6875Z" fill="#FCD770"/>
<path d="M47.495 54.12C48.8534 55.5037 50.7402 56.3749 52.8281 56.3749H55.3438V58.9374C55.3438 63.4218 56.9286 67.4706 59.5952 70.6224L47.1428 66.3943C43.0172 65.0106 40.25 61.09 40.25 56.6825V49.2L46.6648 53.1206C46.9164 53.4793 47.1931 53.8125 47.495 54.12Z" fill="#FCD770"/>
<path d="M72.9531 76.8749C70.2362 76.8749 67.6955 76.2599 65.4062 75.1324V75.1581V87.0737C65.4062 91.6606 62.4378 95.6837 58.1109 96.9393L55.7211 97.6312C40.6022 102.039 30.1875 116.107 30.1875 132.122V158.875H57.8594H80.5V135.812V115.312V97.3749V87.1249V76.8749H72.9531Z" fill="#F0D0B4"/>
<path d="M55.3438 41V56.375H52.8281C50.7402 56.375 48.8534 55.5038 47.495 54.12C47.1931 53.8125 46.9164 53.4794 46.6648 53.1206C45.3819 50.0712 45.2812 49.405 45.2812 48.6875C45.2812 45.8175 46.8158 43.3319 49.0798 41.9994C50.1867 41.3844 51.4697 41 52.8281 41H55.3438Z" fill="#F0D0B4"/>
<path d="M80.5 66.625V76.875H72.9531C70.2362 76.875 67.6955 76.26 65.4062 75.1325C63.1673 74.0562 61.18 72.5187 59.5952 70.6225C56.9286 67.4706 55.3438 63.4219 55.3438 58.9375V56.375V41V30.75H58.1361C60.2492 30.75 62.3623 30.6219 64.4252 30.34C68.752 29.8019 72.9783 28.7 77.0033 27.0344L80.5 25.625V56.375V66.625Z" fill="#F0D0B4"/>
<path d="M147.894 155.902L148.422 158.875H138.359C136.8 151.674 134.536 144.704 131.617 138.042L141.579 133.993C144.447 141.04 146.56 148.369 147.894 155.902Z" fill="#E6E9ED"/>
<path d="M131.618 138.042C128.498 130.892 124.624 124.127 120.071 117.798C120.75 117.67 121.354 117.414 121.907 116.978L128.398 112.032C128.674 111.827 128.926 111.597 129.127 111.341L129.152 111.366C134.184 118.387 138.36 125.998 141.58 133.993L131.618 138.042Z" fill="#E6E9ED"/>
<path d="M115.719 146.063V147.344C115.719 153.724 110.662 158.875 104.398 158.875C101.958 158.875 99.5683 158.055 97.6061 156.569L90.5624 151.188V142.373C90.5624 140.604 89.6819 138.99 88.2731 138.068L115.719 146.063Z" fill="#E6E9ED"/>
<path d="M115.719 117.875V128.125H90.5625V121.873C90.5625 120.284 89.8581 118.823 88.6758 117.875H115.719Z" fill="#E6E9ED"/>
<path d="M95.5938 97.375H108.172L106.21 101.373C105.858 102.116 105.656 102.936 105.656 103.756C105.656 105.242 106.26 106.626 107.266 107.625H90.5625V97.375H95.5938Z" fill="#E6E9ED"/>
<path d="M86.7639 134.224C89.0028 133.66 90.5625 131.61 90.5625 129.252V128.125H115.719V146.062L88.2733 138.068C87.8205 137.76 87.3173 137.529 86.7639 137.401L80.5 135.812L86.7639 134.224Z" fill="#E6E9ED"/>
<path d="M113.203 113.416C113.203 115.21 114.235 116.748 115.719 117.439V117.875H88.6758C88.1475 117.414 87.4934 117.081 86.7639 116.901L80.5 115.312L86.7639 113.724C89.0028 113.16 90.5625 111.11 90.5625 108.752V107.625H107.266C107.82 108.163 108.499 108.599 109.254 108.855L110.21 109.162C111.996 109.777 113.203 111.494 113.203 113.391V113.416Z" fill="#E6E9ED"/>
<path d="M90.5625 151.188V158.875H80.5V135.812L86.7639 137.401C87.3173 137.529 87.8205 137.76 88.2733 138.068C89.682 138.99 90.5625 140.604 90.5625 142.373V151.188Z" fill="#CCD1D9"/>
<path d="M90.5625 128.125V129.252C90.5625 131.61 89.0028 133.66 86.7639 134.224L80.5 135.812V115.312L86.7639 116.901C87.4934 117.081 88.1475 117.414 88.6758 117.875C89.8581 118.823 90.5625 120.284 90.5625 121.873V128.125Z" fill="#CCD1D9"/>
<path d="M90.5625 107.625V108.752C90.5625 111.11 89.0028 113.16 86.7639 113.724L80.5 115.312V97.375H90.5625V107.625Z" fill="#CCD1D9"/>
<path d="M126.284 98.9125L129.605 103.423C130.385 104.499 130.812 105.78 130.812 107.112C130.812 108.701 130.209 110.213 129.127 111.341C128.926 111.597 128.674 111.828 128.398 112.033L121.907 116.978C121.354 117.414 120.75 117.67 120.071 117.798C119.819 117.849 119.568 117.875 119.291 117.875H117.58C116.926 117.875 116.272 117.721 115.719 117.439C114.235 116.748 113.203 115.21 113.203 113.416V113.391C113.203 111.494 111.996 109.777 110.21 109.162L109.254 108.855C108.499 108.599 107.82 108.163 107.266 107.625C106.26 106.626 105.656 105.242 105.656 103.756C105.656 102.936 105.858 102.116 106.21 101.373L108.172 97.375L108.901 95.8887C110.008 93.6594 112.222 92.25 114.662 92.25C115.367 92.25 116.046 92.3525 116.7 92.5831L121.706 94.2744C122.712 94.6331 123.618 95.2738 124.247 96.145L126.284 98.9125Z" fill="#CCD1D9"/>
<path d="M80.5 76.875H95.5938V97.375H80.5V76.875Z" fill="#E6E9ED"/>
<path d="M108.524 12.4538C104.097 7.91813 97.9584 5.125 91.1663 5.125C87.4683 5.125 83.8206 5.99625 80.5 7.6875V76.875H95.5938H98.1094C105.052 76.875 110.688 71.135 110.688 64.0625V46.3813V46.3556C111.015 46.2019 111.367 46.125 111.719 46.125H113.203C114.587 46.125 115.719 44.9719 115.719 43.5625V30.135C115.719 23.2163 112.977 16.9637 108.524 12.4538Z" fill="#E6E9ED"/>
<path d="M90.5625 56.375H80.5V66.625H90.5625H98.1094C99.493 66.625 100.625 65.4719 100.625 64.0625V56.375H90.5625Z" fill="#AAB2BD"/>
<path d="M95.5938 46.125C98.3724 46.125 100.625 43.8305 100.625 41C100.625 38.1695 98.3724 35.875 95.5938 35.875C92.8151 35.875 90.5625 38.1695 90.5625 41C90.5625 43.8305 92.8151 46.125 95.5938 46.125Z" fill="#838F9B"/>
<path d="M103.141 41C103.141 36.7616 99.7546 33.3125 95.5938 33.3125C91.4329 33.3125 88.0469 36.7616 88.0469 41C88.0469 45.2384 91.4329 48.6875 95.5938 48.6875C99.7546 48.6875 103.141 45.2384 103.141 41ZM95.5938 43.5625C94.2051 43.5625 93.0781 42.4145 93.0781 41C93.0781 39.5855 94.2051 38.4375 95.5938 38.4375C96.9824 38.4375 98.1094 39.5855 98.1094 41C98.1094 42.4145 96.9824 43.5625 95.5938 43.5625Z" fill="black"/>
<path d="M65.4062 43.5625C66.7956 43.5625 67.9219 42.4152 67.9219 41C67.9219 39.5848 66.7956 38.4375 65.4062 38.4375C64.0169 38.4375 62.8906 39.5848 62.8906 41C62.8906 42.4152 64.0169 43.5625 65.4062 43.5625Z" fill="black"/>
<path d="M65.4062 130.688C66.7956 130.688 67.9219 129.54 67.9219 128.125C67.9219 126.71 66.7956 125.562 65.4062 125.562C64.0169 125.562 62.8906 126.71 62.8906 128.125C62.8906 129.54 64.0169 130.688 65.4062 130.688Z" fill="black"/>
<path d="M150.364 155.441C147.549 139.664 141.257 124.476 132.194 111.359C132.906 110.07 133.328 108.619 133.328 107.112C133.328 105.237 132.719 103.379 131.615 101.888L126.262 94.6152C125.306 93.316 124.008 92.3602 122.498 91.8528L117.512 90.159C116.599 89.8464 115.643 89.6875 114.672 89.6875C111.256 89.6875 108.182 91.6222 106.655 94.7356L106.617 94.8125H98.1094V79.4375C106.434 79.4375 113.203 72.5418 113.203 64.0625V48.6875C115.978 48.6875 118.234 46.3889 118.234 43.5625V30.1453C118.234 14.9342 106.089 2.5625 91.1562 2.5625C87.3677 2.5625 83.5892 3.444 80.1428 5.06094L61.59 2.69575C60.8806 2.60863 60.1687 2.5625 59.4543 2.5625C52.8558 2.5625 46.9265 6.29606 43.9756 12.3077L38.9041 22.6371C38.1394 24.1977 37.7344 25.9428 37.7344 27.6878C37.7344 29.0126 37.9759 30.3195 38.4186 31.5546L35.6942 34.3298C33.7672 36.2927 32.7031 38.9064 32.7031 41.6867C32.7031 45.3178 34.6024 48.7362 37.6614 50.6068L37.7344 50.6529V56.6774C37.7344 62.1996 41.1908 67.0863 46.3353 68.8313L58.2317 72.8698C59.5901 74.3561 61.1548 75.6373 62.8906 76.6649V87.0814C62.8906 90.4947 60.6391 93.5364 57.4166 94.4743L55.0419 95.1661C38.9268 99.8555 27.6719 115.051 27.6719 132.125V161.438H93.0781V156.312L96.0944 158.619C98.4767 160.436 101.422 161.438 104.398 161.438C112.026 161.438 118.234 155.113 118.234 147.344V120.438H118.798C127.054 132.197 132.82 145.299 135.904 159.431L136.342 161.438H151.436L150.364 155.441ZM89.5085 135.769C91.287 134.644 92.5398 132.809 92.9372 130.688H113.203V142.665L89.5085 135.769ZM106.378 110.188C107.002 110.646 107.696 111.02 108.456 111.279L109.417 111.605C110.177 111.861 110.688 112.583 110.688 113.416C110.688 114.077 110.806 114.705 110.977 115.312H89.4305C91.2493 114.193 92.5348 112.34 92.9372 110.188H106.378ZM113.203 125.562H93.0781V121.878C93.0781 121.386 93.0228 120.906 92.9347 120.438H113.203V125.562ZM83.0156 118.592L86.14 119.389C87.262 119.676 88.0469 120.699 88.0469 121.878V129.25C88.0469 130.429 87.262 131.449 86.1425 131.738L83.0156 132.533V118.592ZM88.0469 108.747C88.0469 109.926 87.262 110.946 86.1425 111.236L83.0156 112.033V99.9375H88.0469V108.747ZM128.604 115.077C132.337 120.586 135.57 126.454 138.224 132.594L132.895 134.764C130.317 129.204 127.263 123.869 123.781 118.762L128.604 115.077ZM111.158 97.0265C111.827 95.6607 113.173 94.8125 114.672 94.8125C115.097 94.8125 115.515 94.8791 115.915 95.0175L120.911 96.7139L120.916 96.7164C121.444 96.8932 121.902 97.2315 122.237 97.6876L122.762 98.4L116.725 103.013L119.741 107.112L125.779 102.5L127.593 104.965C128.053 105.585 128.297 106.328 128.297 107.112C128.297 108.235 127.771 109.309 126.886 109.982L120.408 114.936C120.088 115.177 119.691 115.312 119.291 115.312H117.58C116.554 115.312 115.719 114.462 115.719 113.401C115.719 110.372 113.824 107.694 111.004 106.738L110.046 106.415C108.927 106.034 108.172 104.968 108.172 103.763C108.172 103.33 108.273 102.9 108.461 102.515L111.158 97.0265ZM103.963 100.219C103.425 101.311 103.141 102.538 103.141 103.763C103.141 104.204 103.178 104.637 103.249 105.062H93.0781V99.9375H104.102L103.963 100.219ZM83.0156 94.8125V89.6875H93.0781V94.8125H83.0156ZM93.0781 84.5625H83.0156V79.4375H93.0781V84.5625ZM98.1094 74.3125H83.0156V69.1875H98.1094C100.884 69.1875 103.141 66.8889 103.141 64.0625V57.4359L108.172 52.3109V64.0625C108.172 69.7154 103.659 74.3125 98.1094 74.3125ZM98.1094 58.9375V64.0625H93.0781V58.9375H98.1094ZM83.0156 9.33519C85.5891 8.25381 88.3764 7.6875 91.1562 7.6875C103.312 7.6875 113.203 17.7633 113.203 30.1453V43.5625H111.729C110.406 43.5625 109.108 44.1109 108.172 45.0641L99.5835 53.8125H83.0156V9.33519ZM88.0469 58.9375V64.0625H83.0156V58.9375H88.0469ZM43.4046 24.928L48.4761 14.6011C50.5691 10.3346 54.7727 7.6875 59.4543 7.6875C59.9675 7.6875 60.4781 7.72337 60.9762 7.78231L77.9844 9.95019V23.8902L76.0826 24.6641C74.3795 25.3585 72.6437 25.9171 70.8928 26.4066C72.2211 23.8364 72.9531 20.9536 72.9531 17.9375H67.9219C67.9219 21.8069 66.2716 25.379 63.4013 27.8672C61.6555 28.0619 59.8995 28.1875 58.126 28.1875H55.3438C53.9551 28.1875 52.8281 27.0395 52.8281 25.625C52.8281 24.2105 53.9551 23.0625 55.3438 23.0625H57.8594V17.9375H55.3438C51.1829 17.9375 47.7969 21.3866 47.7969 25.625C47.7969 28.9614 49.9075 31.7801 52.8281 32.841V38.4375C51.8018 38.4375 50.8332 38.6399 49.8999 38.9321L44.0939 31.5418C43.2386 30.4502 42.7656 29.0818 42.7656 27.6878C42.7656 26.7346 42.987 25.7787 43.4046 24.928ZM47.7969 48.6875C47.7969 45.8611 50.0534 43.5625 52.8281 43.5625V53.8125C50.0534 53.8125 47.7969 51.5139 47.7969 48.6875ZM39.2538 37.9532L41.1607 36.0108L45.5705 41.6252C44.0335 43.2627 43.06 45.4178 42.8562 47.8034L40.25 46.2121C38.6979 45.264 37.7344 43.5266 37.7344 41.6842C37.7344 40.2748 38.2752 38.95 39.2538 37.9532ZM47.9277 63.9703C44.8385 62.9196 42.7656 59.9881 42.7656 56.6748V53.7254L45.0674 55.1322C46.9139 57.4359 49.6886 58.9375 52.8281 58.9375C52.8281 61.4487 53.296 63.8447 54.1086 66.0689L47.9277 63.9703ZM57.8594 58.9375V33.3125H58.126C64.9434 33.3125 71.6123 32.0031 77.9492 29.4226L77.9844 29.4098V64.0625H72.9531C70.1784 64.0625 67.9219 61.7639 67.9219 58.9375H62.8906C62.8906 64.5904 67.4037 69.1875 72.9531 69.1875H77.9844V74.3125H72.9531C64.6289 74.3125 57.8594 67.4168 57.8594 58.9375ZM32.7031 132.125C32.7031 117.332 42.4562 104.158 56.423 100.094L58.8002 99.4019C64.1711 97.8363 67.9219 92.7702 67.9219 87.0789V78.761C69.5344 79.1889 71.2123 79.4375 72.9531 79.4375H77.9844V134.126C75.4059 135.213 72.6286 135.812 69.8438 135.812H60.375C56.2142 135.812 52.8281 132.363 52.8281 128.125V110.188H47.7969V128.125C47.7969 132.427 49.905 136.22 53.1099 138.547L55.0469 156.312H32.7031V132.125ZM77.9844 139.582V156.312H60.1109L58.4103 140.735C59.0568 140.84 59.7033 140.938 60.375 140.938H69.8438C72.6035 140.938 75.3555 140.453 77.9844 139.582ZM88.0469 156.312H83.0156V139.092L86.14 139.889C87.262 140.176 88.0469 141.199 88.0469 142.378V156.312ZM104.398 156.312C102.504 156.312 100.63 155.674 99.1131 154.519L93.0781 149.906V142.375C93.0781 142.293 93.0605 142.214 93.058 142.132L113.14 147.977C112.813 152.622 109.04 156.312 104.398 156.312ZM140.359 156.312C138.986 150.516 137.162 144.894 134.933 139.454L140.13 137.337C142.452 143.49 144.251 149.845 145.408 156.312H140.359Z" fill="black"/>
</svg>
