<svg width="161" height="164" viewBox="0 0 161 164" fill="none" xmlns="http://www.w3.org/2000/svg">
<g clip-path="url(#clip0)">
<path d="M136.85 53.2995L133.898 68.3329L130.142 87.4666L129.873 88.8329L126.117 107.967H34.8834L31.1272 88.8329L30.8582 87.4666L27.102 68.3329L24.1503 53.2995H136.85Z" fill="#795548"/>
<path d="M134.167 68.3329L130.384 87.4666H30.6174L26.8329 68.3329H134.167Z" fill="#F57C00"/>
<path d="M128.801 53.2995L125.849 68.3329L122.091 87.4666L121.824 88.8329L118.067 107.967H34.8834L31.1272 88.8329L30.8582 87.4666H30.6174L26.8329 68.3329H27.102L24.1503 53.2995H128.801Z" fill="#BFA885"/>
<path d="M126.117 68.3329L122.333 87.4666H30.6174L26.8329 68.3329H126.117Z" fill="#FF9801"/>
<path d="M34.8834 107.967H21.4663L10.7332 53.2995H24.1502L27.3697 69.7005L31.1272 88.8329L34.8834 107.967Z" fill="#FF9801"/>
<path d="M150.267 53.2995L139.534 107.967H126.117L129.873 88.8329L133.63 69.7005L136.85 53.2995H150.267Z" fill="#F57C00"/>
<path d="M5.36664 38.2673H155.633C157.116 38.2673 158.317 39.491 158.317 41V49.2005C158.317 50.7095 157.116 51.9332 155.633 51.9332H5.36664C3.88527 51.9332 2.68396 50.7095 2.68396 49.2005V41C2.68396 39.491 3.88527 38.2673 5.36664 38.2673Z" fill="#4E342E"/>
<path d="M52.0089 21.8663H33.8591C32.842 21.8676 31.9134 22.4519 31.4602 23.3778L26.0924 34.311C25.6772 35.1581 25.7214 36.164 26.2103 36.9698C26.6992 37.7756 27.5627 38.2661 28.4913 38.2673H57.3755C58.3054 38.2661 59.1677 37.7756 59.6565 36.9698C60.1454 36.164 60.1896 35.1581 59.7745 34.311L54.4079 23.3778C53.9534 22.4519 53.0248 21.8676 52.0089 21.8663Z" fill="#FEC108"/>
<path d="M132.503 38.2674H103.631C102.696 38.2736 101.825 37.7844 101.331 36.9749C100.839 36.1653 100.794 35.1543 101.216 34.3035L106.582 23.3704C107.041 22.4419 107.977 21.8601 108.997 21.8664H127.136C128.157 21.8601 129.093 22.4419 129.551 23.3704L134.918 34.3035C135.339 35.1543 135.295 36.1653 134.802 36.9749C134.308 37.7844 133.437 38.2736 132.503 38.2674Z" fill="#FF9801"/>
<path d="M89.575 21.8663H71.4251C70.4093 21.8676 69.4807 22.4519 69.0262 23.3778L63.6596 34.311C63.2444 35.1581 63.2887 36.164 63.7775 36.9698C64.2652 37.7756 65.1287 38.2661 66.0585 38.2673H94.9416C95.8714 38.2661 96.7349 37.7756 97.2238 36.9698C97.7114 36.164 97.7569 35.1581 97.3405 34.311L91.9739 23.3778C91.5194 22.4519 90.5908 21.8676 89.575 21.8663Z" fill="#FF9801"/>
<path d="M71.8195 2.73389H53.6672C52.5924 2.77893 51.649 3.47211 51.2682 4.49686L45.9016 17.2531C45.441 18.179 45.4496 19.275 45.9274 20.1934C46.404 21.1106 47.2897 21.7349 48.3006 21.8663H77.186C78.197 21.7337 79.0814 21.1106 79.5592 20.1934C80.037 19.2763 80.0468 18.179 79.5874 17.2531L74.2208 4.49686C73.8401 3.47086 72.8942 2.77768 71.8195 2.73389Z" fill="#FF9801"/>
<path d="M112.7 21.8663H83.8007C82.791 21.7299 81.9103 21.1031 81.4349 20.1859C80.9608 19.2675 80.9522 18.1727 81.4128 17.2468L86.7794 4.48309C87.1626 3.4671 88.1011 2.78018 89.1673 2.73389H107.333C108.402 2.77518 109.343 3.4646 109.722 4.48309L115.089 17.2468C115.556 18.1714 115.549 19.27 115.074 20.1897C114.599 21.1093 113.713 21.7362 112.7 21.8663Z" fill="#FF9801"/>
<path d="M123.836 38.2674H103.631C102.696 38.2736 101.825 37.7844 101.331 36.9749C100.839 36.1653 100.794 35.1543 101.216 34.3035L106.582 23.3704C107.041 22.4419 107.977 21.8601 108.997 21.8664H118.469C119.482 21.8626 120.408 22.4457 120.857 23.3704L126.225 34.3035C126.642 35.1493 126.602 36.1553 126.114 36.9636C125.628 37.7706 124.765 38.2636 123.836 38.2674Z" fill="#FEC108"/>
<path d="M104.033 21.8663H83.8007C82.791 21.7299 81.9103 21.1031 81.4349 20.1859C80.9608 19.2675 80.9522 18.1727 81.4128 17.2468L86.7794 4.48309C87.1626 3.4671 88.1011 2.78018 89.1673 2.73389H98.666C99.7334 2.78018 100.671 3.4671 101.055 4.48309L106.422 17.2468C106.881 18.1727 106.872 19.2675 106.398 20.1859C105.924 21.1031 105.042 21.7299 104.033 21.8663Z" fill="#FEC108"/>
<path d="M16.0998 106.6H144.9C146.382 106.6 147.583 107.824 147.583 109.333V125.734C147.583 127.243 146.382 128.467 144.9 128.467H16.0998C14.6184 128.467 13.4171 127.243 13.4171 125.734V109.333C13.4171 107.824 14.6184 106.6 16.0998 106.6Z" fill="#4E342E"/>
<path d="M13.4172 147.6H8.05064C6.627 147.593 5.2611 148.175 4.26615 149.213C3.24786 150.225 2.67546 151.617 2.68406 153.067C2.69265 156.082 5.09036 158.525 8.05064 158.533H152.95C155.905 158.511 158.295 156.076 158.317 153.067C158.308 150.051 155.91 147.609 152.95 147.6H13.4172Z" fill="#CFD8DC"/>
<path d="M5.36664 38.2673H147.583C149.066 38.2673 150.267 39.491 150.267 41V49.2005C150.267 50.7095 149.066 51.9332 147.583 51.9332H5.36664C3.88527 51.9332 2.68396 50.7095 2.68396 49.2005V41C2.68396 39.491 3.88527 38.2673 5.36664 38.2673Z" fill="#795548"/>
<path d="M16.0998 106.6H136.85C138.332 106.6 139.534 107.824 139.534 109.333V125.734C139.534 127.243 138.332 128.467 136.85 128.467H16.0998C14.6184 128.467 13.4171 127.243 13.4171 125.734V109.333C13.4171 107.824 14.6184 106.6 16.0998 106.6Z" fill="#795548"/>
<path d="M139.534 133.933C139.542 137.975 138.068 141.875 135.401 144.866L127.619 150.852L121.529 149.349L114.552 147.6C109.245 144.034 106.502 137.617 107.553 131.231C108.603 124.844 113.251 119.689 119.409 118.08C120.72 117.717 122.074 117.533 123.434 117.533C132.326 117.533 139.534 124.876 139.534 133.933Z" fill="#607D8B"/>
<path d="M131.483 133.933C131.492 137.975 130.018 141.875 127.351 144.866L121.529 149.349L114.552 147.6C109.245 144.034 106.502 137.617 107.553 131.231C108.603 124.844 113.251 119.689 119.409 118.08C126.507 119.947 131.472 126.465 131.483 133.933Z" fill="#CFD8DC"/>
<path d="M53.667 133.933C53.6707 139.436 50.9585 144.571 46.4481 147.6L34.8833 153.067L32.0655 150.579L25.5996 144.866C22.9316 141.875 21.4576 137.975 21.4662 133.933C21.4785 126.465 26.4422 119.947 33.542 118.08C34.8538 117.717 36.2074 117.533 37.5672 117.533C46.4579 117.533 53.667 124.876 53.667 133.933Z" fill="#607D8B"/>
<path d="M45.6165 133.933C45.6214 139.436 42.908 144.571 38.3988 147.6L32.0655 150.579L25.5996 144.866C22.9316 141.875 21.4576 137.975 21.4662 133.933C21.4785 126.465 26.4422 119.947 33.542 118.08C40.6405 119.947 45.6054 126.465 45.6165 133.933Z" fill="#CFD8DC"/>
<path d="M16.0998 144.866H32.1995C33.6821 144.866 34.8835 146.09 34.8835 147.6V158.533C34.8835 160.042 33.6821 161.267 32.1995 161.267H16.0998C14.6184 161.267 13.4171 160.042 13.4171 158.533V147.6C13.4171 146.09 14.6184 144.866 16.0998 144.866Z" fill="#4E342E"/>
<path d="M53.6671 144.866H69.7668C71.2482 144.866 72.4495 146.09 72.4495 147.6V158.533C72.4495 160.042 71.2482 161.267 69.7668 161.267H53.6671C52.1845 161.267 50.9832 160.042 50.9832 158.533V147.6C50.9832 146.09 52.1845 144.866 53.6671 144.866Z" fill="#4E342E"/>
<path d="M16.0998 144.866H24.1503C25.6317 144.866 26.833 146.09 26.833 147.6V158.533C26.833 160.042 25.6317 161.267 24.1503 161.267H16.0998C14.6184 161.267 13.4171 160.042 13.4171 158.533V147.6C13.4171 146.09 14.6184 144.866 16.0998 144.866Z" fill="#795548"/>
<path d="M53.6671 144.866H61.7163C63.1989 144.866 64.4002 146.09 64.4002 147.6V158.533C64.4002 160.042 63.1989 161.267 61.7163 161.267H53.6671C52.1845 161.267 50.9832 160.042 50.9832 158.533V147.6C50.9832 146.09 52.1845 144.866 53.6671 144.866Z" fill="#795548"/>
<path d="M91.2332 144.866H107.333C108.816 144.866 110.017 146.09 110.017 147.6V158.533C110.017 160.042 108.816 161.267 107.333 161.267H91.2332C89.7518 161.267 88.5505 160.042 88.5505 158.533V147.6C88.5505 146.09 89.7518 144.866 91.2332 144.866Z" fill="#4E342E"/>
<path d="M91.2332 144.866H99.2837C100.765 144.866 101.966 146.09 101.966 147.6V158.533C101.966 160.042 100.765 161.267 99.2837 161.267H91.2332C89.7518 161.267 88.5505 160.042 88.5505 158.533V147.6C88.5505 146.09 89.7518 144.866 91.2332 144.866Z" fill="#795548"/>
<path d="M128.8 144.866H144.9C146.382 144.866 147.583 146.09 147.583 147.6V158.533C147.583 160.042 146.382 161.267 144.9 161.267H128.8C127.318 161.267 126.117 160.042 126.117 158.533V147.6C126.117 146.09 127.318 144.866 128.8 144.866Z" fill="#4E342E"/>
<path d="M128.8 144.866H136.85C138.332 144.866 139.534 146.09 139.534 147.6V158.533C139.534 160.042 138.332 161.267 136.85 161.267H128.8C127.318 161.267 126.117 160.042 126.117 158.533V147.6C126.117 146.09 127.318 144.866 128.8 144.866Z" fill="#795548"/>
<path d="M37.5673 136.667C37.9174 136.662 38.2638 136.588 38.5868 136.448C39.416 136.102 40.0203 135.356 40.1984 134.461C40.3765 133.567 40.1038 132.641 39.4725 131.993C38.8202 131.363 37.9125 131.089 37.0305 131.254C36.8623 131.284 36.6989 131.339 36.5466 131.418C36.3758 131.478 36.2137 131.561 36.0639 131.665L35.6622 131.993L35.3391 132.403C35.2384 132.556 35.1573 132.721 35.0984 132.895C35.021 133.05 34.9657 133.215 34.9375 133.386C34.9068 133.568 34.8896 133.75 34.8834 133.933C34.8932 134.656 35.1721 135.35 35.6622 135.874C36.1732 136.378 36.8549 136.661 37.5673 136.667Z" fill="black"/>
<path d="M122.897 131.254C122.729 131.284 122.565 131.339 122.413 131.418C122.242 131.478 122.08 131.561 121.93 131.665L121.529 131.993L121.206 132.403C121.105 132.556 121.024 132.721 120.965 132.895C120.888 133.05 120.834 133.215 120.804 133.386C120.773 133.568 120.756 133.75 120.75 133.933C120.761 134.656 121.039 135.35 121.529 135.874C122.04 136.378 122.721 136.661 123.434 136.667C123.784 136.662 124.13 136.588 124.453 136.448C125.283 136.102 125.887 135.356 126.065 134.461C126.243 133.567 125.97 132.641 125.339 131.993C124.687 131.363 123.78 131.089 122.897 131.254Z" fill="black"/>
<path d="M155.633 35.5334H137.853C137.864 34.6863 137.68 33.8493 137.316 33.0873L131.95 22.1541C131.044 20.2948 129.179 19.1237 127.142 19.1337H118.034C118.11 18.1227 117.948 17.1079 117.562 16.1733L112.196 3.41959C111.392 1.39136 109.48 0.0462951 107.333 0H89.1804C87.032 0.0450439 85.117 1.39011 84.3125 3.41959L80.4997 12.4834L76.687 3.41959C75.8824 1.39011 73.9675 0.0450439 71.8191 0H53.6668C51.5197 0.0450439 49.6059 1.39136 48.8014 3.41959L43.4348 16.1733C43.0503 17.1079 42.8894 18.1227 42.9656 19.1337H33.8587C31.8234 19.1262 29.9625 20.2973 29.0572 22.1541L23.6906 33.0873C23.3282 33.8493 23.144 34.6863 23.1538 35.5334H5.36632C2.40236 35.5334 -0.000261503 37.9808 -0.000261503 41V49.2005C-0.000261503 52.2197 2.40236 54.6671 5.36632 54.6671H8.53296L18.1926 103.866H16.0995C13.1355 103.866 10.7329 106.314 10.7329 109.333V114.799H5.36632V112.067C5.36632 110.557 4.16501 109.333 2.68365 109.333C1.20105 109.333 -0.000261503 110.557 -0.000261503 112.067V123C-0.000261503 124.51 1.20105 125.734 2.68365 125.734C4.16501 125.734 5.36632 124.51 5.36632 123V120.267H10.7329V125.734C10.7329 128.753 13.1355 131.201 16.0995 131.201H18.9984C18.862 132.105 18.7908 133.019 18.7834 133.933C18.7834 136.772 19.4086 139.574 20.6136 142.134H16.0995C14.1907 142.139 12.4305 143.181 11.4797 144.866H8.05023C5.92521 144.851 3.88373 145.713 2.39376 147.256C0.85343 148.78 -0.0113165 150.878 -0.000261503 153.067C-0.000261503 157.595 3.60367 161.267 8.05023 161.267H11.4797C12.4305 162.953 14.1907 163.994 16.0995 164H32.1992C34.1081 163.994 35.8695 162.953 36.8202 161.267H49.0458C49.9966 162.953 51.758 163.994 53.6668 164H69.7666C71.6754 163.994 73.4356 162.953 74.3876 161.267H86.6119C87.5639 162.953 89.3241 163.994 91.2329 164H107.333C109.241 163.994 111.003 162.953 111.954 161.267H124.179C125.13 162.953 126.891 163.994 128.8 164H144.9C146.809 163.994 148.569 162.953 149.521 161.267H152.949C157.386 161.245 160.978 157.586 161 153.067C161 148.537 157.396 144.866 152.949 144.866H149.521C148.569 143.181 146.809 142.139 144.9 142.134H140.386C141.591 139.574 142.216 136.772 142.216 133.933C142.209 133.019 142.137 132.105 142.002 131.201H144.9C147.864 131.201 150.267 128.753 150.267 125.734V120.267H155.633V123C155.633 124.51 156.834 125.734 158.317 125.734C159.798 125.734 161 124.51 161 123V112.067C161 110.557 159.798 109.333 158.317 109.333C156.834 109.333 155.633 110.557 155.633 112.067V114.799H150.267V109.333C150.267 106.314 147.864 103.866 144.9 103.866H142.807L152.467 54.6671H155.633C158.597 54.6671 161 52.2197 161 49.2005V41C161 37.9808 158.597 35.5334 155.633 35.5334ZM132.509 35.5334H103.624L108.991 24.6003H127.142L132.509 35.5334ZM61.7161 32.1551L58.0077 24.6003H65.4244L61.7161 32.1551ZM71.4248 24.6003H89.5747L94.9412 35.5334H66.0582L71.4248 24.6003ZM99.2834 32.1551L95.5751 24.6003H102.992L99.2834 32.1551ZM83.8777 18.3304L89.1804 5.46658H107.333L107.266 5.57294L112.633 18.3304C112.801 18.7258 112.633 19.1061 112.699 19.1337H108.943L89.84 19.1662C89.7466 19.1662 89.6631 19.1274 89.5722 19.1274H83.9538C83.7941 18.8934 83.7646 18.5906 83.8777 18.3304ZM48.369 18.3304L53.6668 5.46658H71.8167L71.7528 5.57294L77.1194 18.3304C77.2852 18.7258 77.1194 19.1061 77.1832 19.1337H71.4248C71.4015 19.1324 71.3781 19.1324 71.3548 19.1337L52.3034 19.1637C52.2014 19.1637 52.1105 19.1224 52.0086 19.1224H48.4415C48.2855 18.8884 48.2572 18.5894 48.369 18.3304ZM33.8587 24.6003H52.0086L57.3752 35.5334H28.4909L33.8587 24.6003ZM14.0064 54.6671H21.95L31.6096 103.866H23.6672L14.0064 54.6671ZM37.0831 103.866L34.4004 90.2005H126.599L123.916 103.866H37.0831ZM127.673 84.7339H33.3269L30.643 71.0668H130.357L127.673 84.7339ZM131.43 65.6003H29.5706L27.4235 54.6671H133.576L131.43 65.6003ZM24.15 133.933C24.1303 127.492 28.5278 121.911 34.7063 120.538C40.8836 119.165 47.1653 122.372 49.7804 128.236C52.3967 134.101 50.639 141.029 45.5598 144.866H36.8202C35.8695 143.181 34.1081 142.139 32.1992 142.134H26.9272C25.1388 139.786 24.1635 136.904 24.15 133.933ZM123.434 150.333V155.799H112.699V150.333H123.434ZM106.496 142.134H91.2329C89.3241 142.139 87.5639 143.181 86.6119 144.866H74.3876C73.4356 143.181 71.6754 142.139 69.7666 142.134H54.5033C56.1358 138.745 56.7045 134.929 56.1358 131.201H104.865C104.295 134.929 104.864 138.745 106.496 142.134ZM75.1332 150.333H85.8663V155.799H75.1332V150.333ZM37.5671 150.333H48.3002V155.799H37.5671V150.333ZM5.36632 153.067C5.36387 152.33 5.66112 151.625 6.18808 151.121C6.67695 150.611 7.35008 150.327 8.05023 150.333H10.7329V155.799H8.05023C6.56763 155.799 5.36632 154.576 5.36632 153.067ZM16.0995 158.533V147.6H32.1992V158.533H16.0995ZM53.6668 158.533V147.6H69.7666V158.533H53.6668ZM91.2329 158.533V147.6H107.333V158.533H91.2329ZM155.633 153.067C155.636 153.804 155.338 154.508 154.813 155.012C154.323 155.523 153.649 155.807 152.949 155.799H150.267V150.333H152.949C154.432 150.333 155.633 151.557 155.633 153.067ZM144.9 158.515V158.533H128.8V147.6H144.9V158.515ZM128.8 142.134C126.891 142.139 125.13 143.181 124.179 144.866H115.44C111.018 141.577 108.992 135.888 110.314 130.476C111.637 125.063 116.044 121.006 121.463 120.21C126.883 119.415 132.236 122.042 135.003 126.854C137.771 131.666 137.403 137.707 134.072 142.134H128.8ZM144.9 125.734H140.378C137.281 119.057 130.682 114.801 123.434 114.801C116.184 114.801 109.585 119.057 106.488 125.734H54.5119C51.4141 119.057 44.8155 114.801 37.5671 114.801C30.3174 114.801 23.7188 119.057 20.621 125.734H16.0995V109.333H144.9V125.734ZM137.332 103.866H129.39L139.051 54.6671H146.993L137.332 103.866ZM150.267 49.2005H5.36632V41H155.633V49.2005H150.267Z" fill="black"/>
</g>
<defs>
<clipPath id="clip0">
<rect width="161" height="164" fill="white"/>
</clipPath>
</defs>
</svg>
