<svg width="279" height="155" viewBox="0 0 279 155" fill="none" xmlns="http://www.w3.org/2000/svg">
<g clip-path="url(#clip0)">
<path d="M6.50997 65.9363C3.33226 51.2838 9.99521 34.8189 23.9362 29.1774C34.9044 24.7357 51.6899 23.2552 74.1646 28.6669C133.619 42.962 128.493 26.6247 151.557 13.8612C171.854 2.62935 196.66 -11.1552 239.713 14.8823C272.362 34.6402 253.039 65.4258 275.078 84.3158C289.25 96.4666 265.34 155.281 196.66 142.517C127.981 129.754 112.425 147.674 81.3401 154.26C50.0755 160.897 -14.4783 121.407 2.92223 103.206C13.1729 92.4844 8.50886 75.1261 6.50997 65.9363Z" fill="#36BE57"/>
<path d="M24.3206 69.51C21.6042 56.9252 27.3189 42.7577 39.3122 37.9076C48.7429 34.0785 63.1707 32.8277 82.4933 37.4736C133.593 49.7521 129.185 35.7122 149.02 24.7356C166.472 15.0864 187.794 3.24189 224.799 25.6036C252.86 42.579 236.254 69.0505 255.192 85.2857C267.365 95.7262 246.812 146.295 187.794 135.319C128.775 124.342 115.398 139.735 88.6694 145.402C61.7613 151.12 6.25373 117.194 21.2198 101.546C30.0354 92.3311 26.012 77.4234 24.3206 69.51Z" fill="#E8FFDD"/>
<path d="M165.161 97.8216C164.176 93.1406 160.49 89.6085 155.772 88.8223L144.838 86.9991V85.4202C152.197 82.49 157.419 75.3096 157.419 66.9194C157.419 55.9354 148.483 47 137.499 47C126.516 47 117.58 55.9354 117.58 66.9194C117.58 75.3096 122.802 82.49 130.161 85.4202V86.9991L119.226 88.8223C114.508 89.6085 110.823 93.1406 109.837 97.8216L106.853 112H168.147L165.161 97.8216ZM148.697 89.7679L145.391 99.6888L139.033 94.126L144.149 89.0099L148.697 89.7679ZM137.499 92.695L132.258 87.4531V86.1153C133.931 86.5735 135.683 86.8387 137.499 86.8387C139.316 86.8387 141.068 86.5735 142.741 86.1153V87.4531L137.499 92.695ZM119.677 66.9194C119.677 57.0918 127.672 49.0968 137.499 49.0968C147.327 49.0968 155.322 57.0918 155.322 66.9194C155.322 76.7469 147.327 84.7419 137.499 84.7419C127.672 84.7419 119.677 76.7469 119.677 66.9194ZM130.85 89.0099L135.966 94.126L129.608 99.6888L126.302 89.7679L130.85 89.0099ZM132.515 109.903H117.703L118.622 101.631L116.539 101.4L115.593 109.903H109.436L111.889 98.2535C112.697 94.4238 115.712 91.5334 119.572 90.8907L124.208 90.1181L128.616 103.345L131.801 100.558L134.252 103.827L132.515 109.903ZM134.695 109.903L136.554 103.4L133.382 99.173L137.452 95.6127L137.499 95.6598L137.547 95.6127L141.615 99.173L138.444 103.4L140.303 109.903H134.695ZM158.461 101.401L156.378 101.632L157.296 109.903H142.484L140.747 103.826L143.197 100.557L146.382 103.343L150.791 90.117L155.427 90.8897C159.288 91.5334 162.303 94.4227 163.109 98.2535L165.563 109.903H159.406L158.461 101.401Z" fill="black"/>
<path d="M136.975 53.2903C133.796 53.2903 131.209 55.8777 131.209 59.0564V59.5806H133.306V59.0564C133.306 57.033 134.952 55.3871 136.975 55.3871C138.999 55.3871 140.645 57.033 140.645 59.0564V59.7232C140.645 60.7034 140.263 61.6239 139.57 62.319L136.451 65.4369V71.1129H138.548V66.305L141.054 63.8004C142.143 62.71 142.741 61.2622 142.741 59.7221V59.0564C142.741 55.8777 140.155 53.2903 136.975 53.2903Z" fill="black"/>
<path d="M137.5 74.2581C135.765 74.2581 134.354 75.6692 134.354 77.4032C134.354 79.1372 135.765 80.5484 137.5 80.5484C139.234 80.5484 140.645 79.1372 140.645 77.4032C140.645 75.6692 139.234 74.2581 137.5 74.2581ZM137.5 78.4516C136.922 78.4516 136.451 77.9819 136.451 77.4032C136.451 76.8245 136.922 76.3548 137.5 76.3548C138.077 76.3548 138.548 76.8245 138.548 77.4032C138.548 77.9819 138.077 78.4516 137.5 78.4516Z" fill="black"/>
</g>
<defs>
<clipPath id="clip0">
<rect width="279" height="155" fill="white"/>
</clipPath>
</defs>
</svg>
