<svg width="279" height="155" viewBox="0 0 279 155" fill="none" xmlns="http://www.w3.org/2000/svg">
<g clip-path="url(#clip0)">
<path d="M6.50997 65.9363C3.33226 51.2838 9.99521 34.8189 23.9362 29.1774C34.9044 24.7357 51.6899 23.2552 74.1646 28.6669C133.619 42.962 128.493 26.6247 151.557 13.8612C171.854 2.62935 196.66 -11.1552 239.713 14.8823C272.362 34.6402 253.039 65.4258 275.078 84.3158C289.25 96.4666 265.34 155.281 196.66 142.517C127.981 129.754 112.425 147.674 81.3401 154.26C50.0755 160.897 -14.4783 121.407 2.92223 103.206C13.1729 92.4844 8.50886 75.1261 6.50997 65.9363Z" fill="#36BE57"/>
<path d="M24.3206 69.51C21.6042 56.9252 27.3189 42.7577 39.3122 37.9076C48.7429 34.0785 63.1707 32.8277 82.4933 37.4736C133.593 49.7521 129.185 35.7122 149.02 24.7356C166.472 15.0864 187.794 3.24189 224.799 25.6036C252.86 42.579 236.254 69.0505 255.192 85.2857C267.365 95.7262 246.812 146.295 187.794 135.319C128.775 124.342 115.398 139.735 88.6694 145.402C61.7613 151.12 6.25373 117.194 21.2198 101.546C30.0354 92.3311 26.012 77.4234 24.3206 69.51Z" fill="#E8FFDD"/>
<g clip-path="url(#clip1)">
<path d="M139.5 70.4634C125.406 70.4634 113.941 82.0779 113.941 96.3542C113.941 103.245 116.632 107.706 122.16 109.983C123.889 113.316 127.29 115.617 131.282 115.805C134.022 115.935 136.78 115.999 139.538 115.999C142.296 115.999 145.056 115.935 147.794 115.805C151.802 115.617 155.215 113.299 156.937 109.945C159.025 109.073 160.664 107.918 161.939 106.42C162.28 106.02 162.232 105.419 161.831 105.078C161.431 104.737 160.83 104.786 160.489 105.186C159.77 106.03 158.904 106.75 157.87 107.36C158.002 106.765 158.09 106.153 158.122 105.525C158.367 100.73 158.322 95.87 157.99 91.0728C158.108 90.445 158.17 89.7999 158.17 89.1537C158.17 85.4233 156.191 81.9372 152.598 79.3373C149.098 76.8046 144.46 75.4099 139.538 75.4099C138.533 75.4099 137.541 75.4676 136.592 75.5812C134.275 75.8508 132.077 76.4331 130.057 77.3122C127.348 78.4911 125.073 80.1702 123.477 82.1678C121.796 84.2727 120.908 86.6882 120.908 89.1535C120.908 89.7995 120.969 90.4471 121.087 91.0794C120.756 95.8786 120.71 100.736 120.956 105.525C120.989 106.168 121.079 106.795 121.217 107.402C117.564 105.271 115.845 101.707 115.845 96.3539C115.845 83.1277 126.456 72.3674 139.5 72.3674C152.543 72.3674 163.155 83.1277 163.155 96.3539C163.155 98.6237 162.836 100.607 162.209 102.25C162.021 102.741 162.267 103.291 162.758 103.479C163.248 103.667 163.799 103.421 163.987 102.93C164.699 101.069 165.059 98.857 165.059 96.3538C165.06 82.0781 153.594 70.4634 139.5 70.4634ZM147.705 113.903C142.286 114.159 136.791 114.159 131.372 113.903C126.754 113.686 123.094 110.042 122.858 105.428C122.692 102.206 122.663 98.9519 122.763 95.7062C123.185 95.8228 123.616 95.8837 124.057 95.8837C124.489 95.8837 124.929 95.8275 125.377 95.7149C127.875 95.0872 130.113 92.7624 131.588 90.8588C131.832 91.2117 132.144 91.4476 132.415 91.6004C134.523 92.791 137.608 90.8147 139.825 88.9474C142.185 86.9593 144.524 84.2864 146.074 81.8296C151.273 83.4045 155.185 86.7983 156.074 90.9375C156.417 95.7452 156.466 100.62 156.22 105.428C155.983 110.042 152.322 113.686 147.705 113.903ZM124.965 83.3565C126.368 81.6003 128.391 80.1142 130.817 79.0586C132.665 78.2544 134.682 77.7208 136.815 77.4726C137.692 77.3676 138.609 77.3143 139.539 77.3143C147.021 77.3143 153.371 80.8097 155.502 85.6145C154.492 84.3772 153.214 83.2557 151.705 82.2973C148.331 80.1554 144.011 78.9758 139.539 78.9758C138.533 78.9758 137.54 79.0336 136.592 79.1472C134.275 79.4165 132.077 79.9986 130.057 80.8771C127.368 82.0482 125.17 83.6622 123.603 85.5661C123.948 84.8006 124.404 84.0594 124.965 83.3565ZM130.817 82.6235C132.664 81.8197 134.681 81.2866 136.815 81.0386C137.692 80.9336 138.608 80.8803 139.539 80.8803C141.121 80.8803 142.659 81.0396 144.121 81.337C142.684 83.4743 140.617 85.7897 138.598 87.491C135.758 89.8834 133.996 90.3068 133.351 89.9423C132.96 89.7213 132.99 89.1044 133.441 88.1088C133.651 87.6452 133.459 87.0983 133.005 86.8674C132.552 86.6366 131.997 86.8033 131.745 87.2459C130.842 88.8372 127.855 93.1287 124.913 93.8681C124.176 94.0532 123.494 94.0043 122.842 93.7184C122.886 92.7834 122.939 91.8495 123.006 90.9182C123.753 87.4807 126.586 84.4657 130.817 82.6235Z" fill="black"/>
<path d="M150.796 98.5316C150.194 98.4159 149.634 98.3733 149.123 98.3778C149.278 98.0096 149.37 97.5753 149.37 97.1089C149.37 95.7913 148.651 94.7195 147.766 94.7195C146.882 94.7195 146.163 95.7913 146.163 97.1089C146.163 97.7712 146.345 98.371 146.638 98.8042C146.174 98.9692 145.905 99.123 145.876 99.1401C145.422 99.4061 145.267 99.9915 145.533 100.445C145.71 100.748 146.028 100.917 146.354 100.917C146.517 100.917 146.681 100.875 146.832 100.787C146.891 100.754 148.284 99.987 150.436 100.402C150.952 100.501 151.451 100.163 151.551 99.6468C151.65 99.1303 151.312 98.631 150.796 98.5316Z" fill="black"/>
<path d="M133.202 99.14C133.172 99.1229 132.903 98.9692 132.439 98.8042C132.733 98.371 132.915 97.7711 132.915 97.1089C132.915 95.7913 132.195 94.7195 131.311 94.7195C130.427 94.7195 129.707 95.7913 129.707 97.1089C129.707 97.5753 129.799 98.0095 129.955 98.3776C129.443 98.3732 128.883 98.4157 128.282 98.5315C127.765 98.631 127.427 99.1302 127.527 99.6465C127.626 100.163 128.126 100.501 128.642 100.401C130.782 99.9891 132.173 100.746 132.244 100.786C132.394 100.873 132.558 100.914 132.719 100.914C133.046 100.914 133.364 100.745 133.541 100.443C133.807 99.9893 133.655 99.4058 133.202 99.14Z" fill="black"/>
<path d="M135.346 105.459C134.821 105.464 134.4 105.894 134.404 106.419C134.408 106.942 134.834 107.364 135.357 107.364H135.362C135.964 107.357 137.684 107.518 138.446 108.28C138.632 108.466 138.876 108.559 139.12 108.559C139.363 108.559 139.607 108.466 139.793 108.28C140.165 107.908 140.165 107.305 139.793 106.934C138.333 105.473 135.647 105.456 135.346 105.459Z" fill="black"/>
<path d="M127.926 67.2606V55.666C127.926 53.0934 125.833 51.0005 123.26 51.0005H116.264C115.738 51.0005 115.312 51.4268 115.312 51.9526C115.312 52.4785 115.738 52.9048 116.264 52.9048H123.26C124.783 52.9048 126.021 54.1435 126.021 55.666V67.2606C126.021 68.7832 124.783 70.0219 123.26 70.0219H111.666C110.143 70.0219 108.904 68.7832 108.904 67.2606V55.666C108.904 54.1435 110.143 52.9048 111.666 52.9048H112.455C112.981 52.9048 113.407 52.4785 113.407 51.9526C113.407 51.4268 112.981 51.0005 112.455 51.0005H111.666C109.093 51.0005 107 53.0934 107 55.666V67.2606C107 69.8332 109.093 71.9262 111.666 71.9262H123.26C125.833 71.926 127.926 69.8332 127.926 67.2606Z" fill="black"/>
<path d="M167.334 51.0005H155.74C153.167 51.0005 151.074 53.0934 151.074 55.666V67.2605C151.074 69.8331 153.167 71.9262 155.74 71.9262H167.334C169.907 71.9262 172 69.8332 172 67.2605V55.666C172 53.0934 169.907 51.0005 167.334 51.0005ZM170.096 67.2605C170.096 68.7831 168.857 70.0219 167.334 70.0219H155.74C154.217 70.0219 152.979 68.7832 152.979 67.2605V55.666C152.979 54.1435 154.217 52.9048 155.74 52.9048H167.334C168.857 52.9048 170.096 54.1435 170.096 55.666V67.2605Z" fill="black"/>
<path d="M135.452 58.2219C135.978 58.2219 136.404 57.7956 136.404 57.2698C136.404 57.1248 136.414 56.979 136.434 56.8367C136.65 55.2875 137.99 54.1423 139.564 54.1747C141.178 54.2072 142.508 55.4938 142.591 57.1037C142.636 57.9628 142.335 58.7785 141.745 59.4004C141.154 60.0227 140.357 60.3655 139.5 60.3655C138.974 60.3655 138.548 60.7918 138.548 61.3177V64.2809C138.548 64.8067 138.974 65.233 139.5 65.233C140.026 65.233 140.452 64.8067 140.452 64.2809V62.1803C141.468 61.9863 142.395 61.4816 143.126 60.7117C144.08 59.7074 144.565 58.391 144.493 57.0051C144.358 54.4029 142.21 52.3233 139.603 52.2707C137.074 52.2215 134.898 54.0695 134.548 56.5737C134.516 56.803 134.5 57.0372 134.5 57.2698C134.5 57.7956 134.926 58.2219 135.452 58.2219Z" fill="black"/>
<path d="M139.5 66.3665C138.974 66.3665 138.548 66.7928 138.548 67.3186V67.3821C138.548 67.9079 138.974 68.3342 139.5 68.3342C140.026 68.3342 140.452 67.9079 140.452 67.3821V67.3186C140.452 66.7928 140.026 66.3665 139.5 66.3665Z" fill="black"/>
<path d="M122.478 56.4483C122.106 56.0765 121.503 56.0765 121.131 56.4483L117.463 60.1168L113.794 56.4483C113.423 56.0765 112.82 56.0765 112.448 56.4483C112.076 56.8202 112.076 57.4229 112.448 57.7948L116.116 61.4632L112.448 65.1317C112.076 65.5035 112.076 66.1063 112.448 66.4781C112.634 66.6641 112.878 66.757 113.121 66.757C113.365 66.757 113.609 66.6641 113.794 66.4781L117.463 62.8097L121.131 66.4781C121.317 66.6641 121.561 66.757 121.805 66.757C122.048 66.757 122.292 66.6641 122.478 66.4781C122.85 66.1063 122.85 65.5035 122.478 65.1317L118.809 61.4633L122.478 57.7949C122.85 57.4229 122.85 56.8202 122.478 56.4483Z" fill="black"/>
<path d="M166.733 55.5069C166.268 55.2612 165.692 55.4393 165.447 55.9042L160.734 64.8292L157.537 60.7179C157.214 60.3027 156.616 60.2281 156.201 60.5507C155.786 60.8734 155.711 61.4716 156.034 61.8868L160.136 67.1619C160.317 67.395 160.595 67.5296 160.887 67.5296C160.915 67.5296 160.943 67.5283 160.971 67.5259C161.293 67.4976 161.579 67.3079 161.73 67.022L167.131 56.7932C167.376 56.3284 167.198 55.7524 166.733 55.5069Z" fill="black"/>
</g>
</g>
<defs>
<clipPath id="clip0">
<rect width="279" height="155" fill="white"/>
</clipPath>
<clipPath id="clip1">
<rect width="65" height="65" fill="white" transform="translate(107 51)"/>
</clipPath>
</defs>
</svg>
