<svg width="279" height="155" viewBox="0 0 279 155" fill="none" xmlns="http://www.w3.org/2000/svg">
<g clip-path="url(#clip0)">
<path d="M6.50997 65.9363C3.33226 51.2838 9.99521 34.8189 23.9362 29.1774C34.9044 24.7357 51.6899 23.2552 74.1646 28.6669C133.619 42.962 128.493 26.6247 151.557 13.8612C171.854 2.62935 196.66 -11.1552 239.713 14.8823C272.362 34.6402 253.039 65.4258 275.078 84.3158C289.25 96.4666 265.34 155.281 196.66 142.517C127.981 129.754 112.425 147.674 81.3401 154.26C50.0755 160.897 -14.4783 121.407 2.92223 103.206C13.1729 92.4844 8.50886 75.1261 6.50997 65.9363Z" fill="#36BE57"/>
<path d="M24.3206 69.51C21.6042 56.9252 27.3189 42.7577 39.3122 37.9076C48.7429 34.0785 63.1707 32.8277 82.4933 37.4736C133.593 49.7521 129.185 35.7122 149.02 24.7356C166.472 15.0864 187.794 3.24189 224.799 25.6036C252.86 42.579 236.254 69.0505 255.192 85.2857C267.365 95.7262 246.812 146.295 187.794 135.319C128.775 124.342 115.398 139.735 88.6694 145.402C61.7613 151.12 6.25373 117.194 21.2198 101.546C30.0354 92.3311 26.012 77.4234 24.3206 69.51Z" fill="#E8FFDD"/>
<path d="M126.297 77.4688H124.266C123.996 77.4688 123.738 77.5758 123.547 77.7662C123.357 77.9567 123.25 78.215 123.25 78.4844C123.25 78.7537 123.357 79.0121 123.547 79.2025C123.738 79.393 123.996 79.5 124.266 79.5H126.297C126.566 79.5 126.825 79.393 127.015 79.2025C127.205 79.0121 127.312 78.7537 127.312 78.4844C127.312 78.215 127.205 77.9567 127.015 77.7662C126.825 77.5758 126.566 77.4688 126.297 77.4688Z" fill="black"/>
<path d="M134.422 79.5H136.453C136.722 79.5 136.981 79.393 137.171 79.2025C137.362 79.0121 137.469 78.7537 137.469 78.4844C137.469 78.215 137.362 77.9567 137.171 77.7662C136.981 77.5758 136.722 77.4688 136.453 77.4688H134.422C134.153 77.4688 133.894 77.5758 133.704 77.7662C133.513 77.9567 133.406 78.215 133.406 78.4844C133.406 78.7537 133.513 79.0121 133.704 79.2025C133.894 79.393 134.153 79.5 134.422 79.5Z" fill="black"/>
<path d="M130.412 82.8681C130.497 83.1236 130.68 83.3349 130.921 83.4553C131.162 83.5758 131.441 83.5956 131.696 83.5104C131.952 83.4252 132.163 83.242 132.283 83.001C132.404 82.7601 132.424 82.4812 132.338 82.2256L131.323 79.1788C131.281 79.0523 131.214 78.9353 131.127 78.8345C131.039 78.7338 130.933 78.6512 130.814 78.5916C130.694 78.5319 130.564 78.4964 130.431 78.4869C130.298 78.4775 130.165 78.4943 130.038 78.5365C129.912 78.5787 129.795 78.6454 129.694 78.7328C129.593 78.8202 129.511 78.9266 129.451 79.0459C129.391 79.1651 129.356 79.295 129.346 79.4281C129.337 79.5611 129.354 79.6947 129.396 79.8212L130.412 82.8681Z" fill="black"/>
<path d="M125.281 81.5312C125.842 81.5312 126.297 81.0765 126.297 80.5156C126.297 79.9547 125.842 79.5 125.281 79.5C124.72 79.5 124.266 79.9547 124.266 80.5156C124.266 81.0765 124.72 81.5312 125.281 81.5312Z" fill="black"/>
<path d="M135.438 81.5312C135.998 81.5312 136.453 81.0765 136.453 80.5156C136.453 79.9547 135.998 79.5 135.438 79.5C134.877 79.5 134.422 79.9547 134.422 80.5156C134.422 81.0765 134.877 81.5312 135.438 81.5312Z" fill="black"/>
<path d="M129.344 87.625H131.375C131.644 87.625 131.903 87.518 132.093 87.3275C132.284 87.1371 132.391 86.8787 132.391 86.6094C132.391 86.34 132.284 86.0817 132.093 85.8912C131.903 85.7008 131.644 85.5938 131.375 85.5938H129.344C129.074 85.5938 128.816 85.7008 128.626 85.8912C128.435 86.0817 128.328 86.34 128.328 86.6094C128.328 86.8787 128.435 87.1371 128.626 87.3275C128.816 87.518 129.074 87.625 129.344 87.625Z" fill="black"/>
<path d="M144.429 94.967C142.32 93.6496 139.915 92.8813 137.433 92.7324C137.245 92.3357 136.973 91.9845 136.636 91.7031L135.168 90.4791C136.478 89.772 137.617 88.7862 138.506 87.5912C139.394 86.3963 140.01 85.0211 140.309 83.5625H140.516C141.41 83.5628 142.279 83.268 142.989 82.7238C143.698 82.1796 144.208 81.4165 144.44 80.5528C144.671 79.6891 144.611 78.7732 144.269 77.9471C143.927 77.121 143.321 76.431 142.547 75.9841V72.8113C142.547 72.2225 142.431 71.6396 142.206 71.0956C141.98 70.5517 141.65 70.0575 141.234 69.6412C140.817 69.2249 140.323 68.8947 139.779 68.6694C139.235 68.4441 138.652 68.3281 138.064 68.3281H137.957C137.958 68.028 137.899 67.7308 137.784 67.4535C137.67 67.1762 137.501 66.9243 137.289 66.7122L136.638 66.0609C134.838 64.2611 132.397 63.25 129.852 63.25C127.306 63.25 124.865 64.2611 123.065 66.0609L120.377 68.7488C120.331 68.795 120.269 68.8209 120.203 68.8209C120.138 68.8209 120.075 68.795 120.029 68.7488C119.71 68.4303 119.304 68.2133 118.863 68.1255C118.421 68.0376 117.963 68.0827 117.547 68.2551C117.13 68.4275 116.775 68.7194 116.524 69.094C116.274 69.4685 116.141 69.9089 116.141 70.3594V71.2518C116.138 72.0685 116.298 72.8776 116.611 73.6322C116.923 74.3868 117.382 75.0719 117.962 75.6479C118.06 75.7462 118.162 75.8394 118.265 75.9302C117.471 76.3611 116.844 77.0444 116.481 77.872C116.119 78.6997 116.043 79.6244 116.266 80.5001C116.488 81.3757 116.996 82.1523 117.709 82.7069C118.422 83.2615 119.3 83.5626 120.203 83.5625H120.41C120.703 84.9916 121.3 86.3409 122.161 87.5193C123.021 88.6976 124.124 89.6774 125.396 90.3924C125.07 90.6779 124.813 91.0332 124.644 91.4317C124.475 91.8303 124.398 92.2619 124.418 92.6944C124.367 92.6982 124.317 92.7031 124.265 92.7031H124.183C120.862 92.7031 117.636 93.8134 115.018 95.8575C112.4 97.9016 110.54 100.762 109.734 103.984C109.268 105.852 109.031 107.77 109.031 109.696V109.969H111.062V109.696C111.063 107.937 111.278 106.184 111.705 104.477C112.487 101.328 114.435 98.5943 117.156 96.8278V101.844C117.156 102.01 117.197 102.173 117.275 102.32C117.353 102.466 117.465 102.592 117.602 102.685C117.74 102.778 117.898 102.836 118.063 102.854C118.228 102.871 118.395 102.848 118.549 102.787L119.9 102.246L116.324 107.355L117.988 108.52L124.566 99.1228L130.85 102.714C130.973 102.784 131.08 102.879 131.164 102.993C131.248 103.107 131.307 103.237 131.338 103.376C131.368 103.514 131.37 103.657 131.342 103.796C131.314 103.935 131.257 104.066 131.175 104.182L128.217 108.367L129.875 109.539L132.834 105.354C133.213 104.819 133.409 104.175 133.392 103.519C133.376 102.863 133.147 102.23 132.741 101.715L137.123 95.8719C137.367 95.5472 137.543 95.1769 137.641 94.783C137.827 94.7991 138.013 94.82 138.198 94.8441L136.149 103.725C135.676 105.772 135.438 107.867 135.438 109.969H137.469C137.469 108.021 137.69 106.079 138.128 104.181L138.764 101.424L142.17 102.787C142.324 102.848 142.491 102.871 142.656 102.854C142.821 102.836 142.979 102.778 143.116 102.685C143.254 102.592 143.366 102.466 143.444 102.32C143.522 102.173 143.563 102.01 143.562 101.844V96.8278C146.284 98.5943 148.232 101.328 149.014 104.477C149.44 106.184 149.656 107.937 149.656 109.696V109.969H151.688V109.696C151.687 107.77 151.451 105.852 150.984 103.984C150.056 100.24 147.704 97.0052 144.429 94.967ZM140.516 81.5312V77.4688C141.054 77.4688 141.571 77.6828 141.952 78.0637C142.333 78.4446 142.547 78.9613 142.547 79.5C142.547 80.0387 142.333 80.5554 141.952 80.9363C141.571 81.3172 141.054 81.5312 140.516 81.5312ZM118.172 70.3594C118.172 70.3106 118.186 70.263 118.213 70.2225C118.241 70.1819 118.279 70.1504 118.324 70.1317C118.369 70.1131 118.419 70.1082 118.466 70.1177C118.514 70.1272 118.558 70.1507 118.593 70.1852C119.02 70.6116 119.599 70.8511 120.203 70.8511C120.807 70.8511 121.386 70.6116 121.814 70.1852L124.501 67.4974C125.204 66.7948 126.038 66.2374 126.956 65.8572C127.874 65.477 128.858 65.2812 129.852 65.2812C130.845 65.2812 131.829 65.477 132.747 65.8572C133.665 66.2374 134.499 66.7948 135.202 67.4974L135.853 68.1486C135.9 68.1963 135.927 68.2608 135.927 68.3281C135.927 68.3954 135.9 68.46 135.853 68.5076L134.719 69.6412C134.529 69.8316 134.422 70.09 134.422 70.3593C134.422 70.6287 134.529 70.887 134.719 71.0775C134.91 71.268 135.168 71.375 135.437 71.375C135.707 71.375 135.965 71.268 136.156 71.0776L136.874 70.3594H138.064C138.714 70.3594 139.338 70.6177 139.797 71.0775C140.257 71.5374 140.516 72.161 140.516 72.8113V75.4375H139.151C138.751 75.4386 138.355 75.3603 137.985 75.2071C137.615 75.0539 137.279 74.8289 136.997 74.545L134.124 71.6724C133.934 71.482 133.676 71.3751 133.406 71.3751C133.137 71.3751 132.879 71.482 132.688 71.6724C131.497 72.8698 130.081 73.8192 128.52 74.4654C126.96 75.1117 125.287 75.4421 123.599 75.4375H122.358C121.247 75.4375 120.183 74.9965 119.398 74.2115C118.613 73.4265 118.172 72.3619 118.172 71.2518V70.3594ZM118.172 79.5C118.172 78.9615 118.387 78.4452 118.767 78.0644C119.148 77.6836 119.665 77.4694 120.203 77.4688V81.5312C119.665 81.5306 119.148 81.3164 118.767 80.9356C118.387 80.5548 118.172 80.0385 118.172 79.5ZM122.234 81.5312V77.4657C122.275 77.4665 122.316 77.4688 122.358 77.4688H123.599C127.197 77.479 130.676 76.1756 133.382 73.803L135.561 75.9813C136.348 76.773 137.377 77.2806 138.484 77.4242V81.5312C138.483 83.1475 138 84.7266 137.098 86.0675C136.195 87.4084 134.914 88.4503 133.417 89.0605C132.746 88.6429 131.938 88.5031 131.165 88.6706C130.392 88.8382 129.715 89.2999 129.276 89.9581L129.062 90.2791L128.89 90.1646C128.701 90.038 128.497 89.9342 128.283 89.8553C128.236 89.7033 128.155 89.5643 128.045 89.4495C127.936 89.3346 127.8 89.2471 127.651 89.1941C126.067 88.632 124.697 87.5937 123.727 86.2218C122.757 84.8498 122.236 83.2113 122.234 81.5312ZM124.265 94.7344C124.551 94.7342 124.837 94.7039 125.116 94.644L125.125 94.6614L123.428 97.2075L123.156 97.5958L122.521 94.8437C123.072 94.7714 123.627 94.7349 124.183 94.7344H124.265ZM119.188 95.7459C119.627 95.5604 120.076 95.3996 120.533 95.2641L121.492 99.4217L119.188 100.344V95.7459ZM135.498 94.6532L131.1 100.517L125.714 97.4392L127.142 95.2977C127.241 95.1488 127.299 94.9762 127.311 94.7975C127.322 94.6187 127.285 94.4403 127.205 94.2801L126.535 92.9393C126.451 92.7721 126.425 92.5819 126.461 92.3984C126.497 92.2148 126.592 92.0482 126.732 91.9245C126.872 91.8008 127.049 91.7268 127.236 91.7142C127.422 91.7016 127.608 91.7509 127.764 91.8546L128.78 92.5325C129.005 92.6819 129.279 92.7362 129.543 92.6834C129.807 92.6305 130.039 92.475 130.189 92.2509L130.966 91.0848C131.045 90.9663 131.148 90.8657 131.269 90.7896C131.389 90.7135 131.524 90.6636 131.665 90.6431C131.806 90.6227 131.95 90.6321 132.087 90.6709C132.224 90.7096 132.352 90.7768 132.461 90.868L135.336 93.2635C135.536 93.4301 135.665 93.6673 135.695 93.9259C135.725 94.1845 135.655 94.4449 135.498 94.6532ZM139.226 99.4216L140.186 95.2637C140.643 95.3994 141.092 95.5604 141.531 95.7459V100.344L139.226 99.4216Z" fill="black"/>
<path d="M158.289 49.0312H155.242C153.193 49.0318 151.18 49.5712 149.406 50.5954C147.631 51.6196 146.157 53.0925 145.131 54.8664C144.106 56.6403 143.565 58.6528 143.563 60.7018C143.56 62.7508 144.097 64.7644 145.119 66.5404L143.615 71.0539C143.564 71.2066 143.55 71.3691 143.574 71.5282C143.598 71.6873 143.66 71.8383 143.754 71.9689C143.848 72.0994 143.972 72.2057 144.115 72.2791C144.259 72.3524 144.417 72.3906 144.578 72.3906C144.634 72.3906 144.69 72.386 144.745 72.3769L150.55 71.4097C152.028 72.0602 153.627 72.3943 155.242 72.3906H158.289C161.387 72.3906 164.357 71.1601 166.548 68.9697C168.738 66.7794 169.969 63.8086 169.969 60.7109C169.969 57.6133 168.738 54.6425 166.548 52.4522C164.357 50.2618 161.387 49.0312 158.289 49.0312ZM165.112 67.5338C164.218 68.4325 163.155 69.145 161.984 69.63C160.812 70.115 159.557 70.3629 158.289 70.3594H155.242C153.817 70.3629 152.41 70.0483 151.122 69.4386C150.935 69.3503 150.726 69.3211 150.521 69.355L146.075 70.0959L147.195 66.7372C147.242 66.5941 147.257 66.4422 147.239 66.2925C147.221 66.1427 147.169 65.999 147.088 65.8716C146.165 64.4123 145.65 62.7318 145.597 61.0055C145.545 59.2793 145.956 57.5705 146.789 56.0576C147.622 54.5447 148.846 53.2831 150.333 52.4045C151.82 51.5259 153.515 51.0624 155.242 51.0625H158.289C160.197 51.0626 162.063 51.6286 163.649 52.6888C165.236 53.749 166.473 55.2559 167.203 57.0189C167.933 58.7819 168.124 60.7218 167.752 62.5935C167.38 64.4651 166.461 66.1843 165.112 67.5338Z" fill="black"/>
<path d="M156.766 52.5501C156.16 52.5484 155.561 52.6668 155.002 52.8984C154.443 53.13 153.935 53.4701 153.508 53.8992C153.502 53.9053 153.496 53.9115 153.49 53.9177L153.016 54.4172C152.492 54.9462 152.2 55.6611 152.203 56.4053C152.206 57.1495 152.504 57.8622 153.031 58.3871C153.559 58.912 154.273 59.2063 155.017 59.2054C155.761 59.2046 156.475 58.9086 157.001 58.3825L157.484 57.8998C157.578 57.8055 157.653 57.6936 157.704 57.5703C157.755 57.4471 157.781 57.315 157.781 57.1817C157.781 57.0483 157.755 56.9162 157.704 56.793C157.653 56.6698 157.578 56.5578 157.484 56.4635C157.39 56.3692 157.278 56.2943 157.154 56.2433C157.031 56.1923 156.899 56.166 156.766 56.166C156.632 56.166 156.5 56.1922 156.377 56.2433C156.254 56.2943 156.142 56.3691 156.047 56.4634L155.565 56.9461C155.483 57.0277 155.385 57.0901 155.276 57.129C155.167 57.1678 155.051 57.1821 154.937 57.1707C154.822 57.1594 154.711 57.1227 154.612 57.0633C154.513 57.0039 154.429 56.9233 154.365 56.8273C154.265 56.6772 154.22 56.4973 154.238 56.318C154.256 56.1387 154.335 55.9711 154.462 55.8434C154.468 55.8373 154.474 55.8311 154.48 55.8249L154.953 55.3272C155.437 54.8469 156.093 54.5784 156.775 54.5807C157.457 54.5829 158.11 54.8557 158.591 55.3391C159.073 55.8225 159.342 56.4771 159.341 57.1592C159.341 57.8413 159.069 58.4952 158.587 58.9773L157.484 60.0802C156.932 60.6286 156.495 61.2809 156.198 61.9994C155.9 62.7178 155.748 63.4882 155.75 64.2658C155.75 64.5352 155.857 64.7935 156.047 64.984C156.238 65.1745 156.496 65.2815 156.766 65.2815C157.035 65.2815 157.293 65.1745 157.484 64.984C157.674 64.7935 157.781 64.5352 157.781 64.2658C157.78 63.755 157.88 63.249 158.075 62.7771C158.271 62.3052 158.558 61.8767 158.92 61.5165L160.023 60.4137C160.667 59.7695 161.106 58.9487 161.284 58.0552C161.461 57.1616 161.37 56.2354 161.021 55.3937C160.673 54.552 160.082 53.8325 159.325 53.3264C158.567 52.8202 157.677 52.5501 156.766 52.5501Z" fill="black"/>
<path d="M156.766 68.3281C157.327 68.3281 157.781 67.8734 157.781 67.3125C157.781 66.7516 157.327 66.2969 156.766 66.2969C156.205 66.2969 155.75 66.7516 155.75 67.3125C155.75 67.8734 156.205 68.3281 156.766 68.3281Z" fill="black"/>
</g>
<defs>
<clipPath id="clip0">
<rect width="279" height="155" fill="white"/>
</clipPath>
</defs>
</svg>
