<svg width="279" height="155" viewBox="0 0 279 155" fill="none" xmlns="http://www.w3.org/2000/svg">
<g clip-path="url(#clip0)">
<path d="M6.50997 65.9363C3.33226 51.2838 9.99521 34.8189 23.9362 29.1774C34.9044 24.7357 51.6899 23.2552 74.1646 28.6669C133.619 42.962 128.493 26.6247 151.557 13.8612C171.854 2.62935 196.66 -11.1552 239.713 14.8823C272.362 34.6402 253.039 65.4258 275.078 84.3158C289.25 96.4666 265.34 155.281 196.66 142.517C127.981 129.754 112.425 147.674 81.3401 154.26C50.0755 160.897 -14.4783 121.407 2.92223 103.206C13.1729 92.4844 8.50886 75.1261 6.50997 65.9363Z" fill="#36BE57"/>
<path d="M24.3206 69.5102C21.6042 56.9254 27.3189 42.7579 39.3122 37.9078C48.7429 34.0788 63.1707 32.8279 82.4933 37.4739C133.593 49.7523 129.185 35.7125 149.02 24.7359C166.472 15.0867 187.794 3.24214 224.799 25.6038C252.86 42.5793 236.254 69.0508 255.192 85.2859C267.365 95.7265 246.812 146.295 187.794 135.319C128.775 124.342 115.398 139.735 88.6694 145.402C61.7613 151.12 6.25373 117.195 21.2198 101.547C30.0354 92.3314 26.012 77.4236 24.3206 69.5102Z" fill="#E8FFDD"/>
<g clip-path="url(#clip1)">
<path d="M166.842 69.6198H153.071V60.0558C153.071 57.2116 150.757 54.8975 147.913 54.8975H112.158C109.314 54.8975 107 57.2116 107 60.0558V74.2347C107 74.7607 107.426 75.1869 107.952 75.1869C108.478 75.1869 108.904 74.7607 108.904 74.2347V60.0558C108.904 58.2615 110.364 56.8018 112.158 56.8018H147.913C149.707 56.8018 151.167 58.2615 151.167 60.0558V85.2945C151.167 87.0888 149.707 88.5487 147.913 88.5487H127.316C126.781 88.5487 126.278 88.7573 125.9 89.1354L119.59 95.445C119.572 95.4629 119.543 95.492 119.482 95.4667C119.42 95.4413 119.42 95.3997 119.42 95.3748V90.5524C119.42 89.4475 118.521 88.5487 117.416 88.5487H112.158C110.364 88.5487 108.904 87.0888 108.904 85.2945V78.0433C108.904 77.5173 108.478 77.0912 107.952 77.0912C107.426 77.0912 107 77.5173 107 78.0433V85.2945C107 88.1389 109.314 90.453 112.158 90.453H117.416C117.471 90.453 117.516 90.4977 117.516 90.5524V95.3748C117.516 96.1881 118.001 96.9148 118.753 97.2259C119.002 97.3294 119.263 97.3795 119.522 97.3795C120.042 97.3794 120.552 97.1759 120.937 96.7916L125.929 91.7993V100.017C125.929 102.861 128.243 105.175 131.087 105.175H142.619C143.145 105.175 143.571 104.749 143.571 104.223C143.571 103.697 143.145 103.271 142.619 103.271H131.087C129.293 103.271 127.833 101.811 127.833 100.017V90.453H147.913C150.757 90.453 153.071 88.1389 153.071 85.2945V71.5241H166.842C168.636 71.5241 170.096 72.984 170.096 74.7783V100.017C170.096 101.811 168.636 103.271 166.842 103.271H161.584C160.479 103.271 159.58 104.17 159.58 105.275V110.097C159.58 110.122 159.58 110.164 159.519 110.189C159.458 110.215 159.428 110.185 159.41 110.168L153.101 103.858C152.723 103.48 152.219 103.271 151.684 103.271H146.428C145.902 103.271 145.476 103.697 145.476 104.223C145.476 104.749 145.902 105.175 146.428 105.175H151.684C151.71 105.175 151.735 105.186 151.754 105.205L158.064 111.514C158.448 111.898 158.958 112.102 159.479 112.102C159.737 112.102 159.998 112.052 160.248 111.948C160.999 111.637 161.484 110.911 161.484 110.097V105.275C161.484 105.22 161.529 105.175 161.584 105.175H166.842C169.686 105.175 172 102.861 172 100.017V74.7783C172 71.9339 169.686 69.6198 166.842 69.6198Z" fill="black"/>
<path d="M136.445 95.8103C136.445 97.4951 137.815 98.8655 139.5 98.8655C141.185 98.8655 142.555 97.4949 142.555 95.8103C142.555 94.1256 141.185 92.7549 139.5 92.7549C137.815 92.7549 136.445 94.1255 136.445 95.8103ZM140.651 95.8103C140.651 96.4449 140.135 96.9612 139.5 96.9612C138.865 96.9612 138.349 96.4449 138.349 95.8103C138.349 95.1756 138.865 94.6593 139.5 94.6593C140.135 94.6593 140.651 95.1756 140.651 95.8103Z" fill="black"/>
<path d="M126.98 83.1915C126.98 84.8761 128.351 86.2467 130.036 86.2467C131.72 86.2467 133.091 84.8761 133.091 83.1915C133.091 81.5067 131.72 80.1362 130.036 80.1362C128.351 80.1362 126.98 81.5068 126.98 83.1915ZM131.187 83.1915C131.187 83.8261 130.67 84.3424 130.036 84.3424C129.401 84.3424 128.885 83.8261 128.885 83.1915C128.885 82.5568 129.401 82.0405 130.036 82.0405C130.67 82.0405 131.187 82.5568 131.187 83.1915Z" fill="black"/>
<path d="M133.091 72.9544C135.816 71.6919 137.489 68.8805 137.28 65.8571C137.032 62.2649 134.136 59.3692 130.545 59.1212C128.539 58.9824 126.547 59.6878 125.081 61.0563C123.615 62.4249 122.774 64.3601 122.774 66.3654C122.774 68.0502 124.145 69.4207 125.829 69.4207C127.514 69.4207 128.884 68.0501 128.884 66.3654C128.884 66.0382 129.011 65.7471 129.251 65.5235C129.486 65.304 129.797 65.1959 130.124 65.2174C130.67 65.2551 131.146 65.7305 131.183 66.2777C131.218 66.7789 130.932 67.2428 130.472 67.4317C128.351 68.3027 126.98 70.3609 126.98 72.6751V74.7782C126.98 76.463 128.351 77.8336 130.035 77.8336C131.72 77.8336 133.091 76.4629 133.091 74.7782V72.9544H133.091ZM132.07 71.3227C131.533 71.543 131.187 72.0739 131.187 72.675V74.7781C131.187 75.4129 130.67 75.9292 130.036 75.9292C129.401 75.9292 128.885 75.4129 128.885 74.7781V72.675C128.885 71.1363 129.792 69.7696 131.195 69.1931C132.416 68.692 133.175 67.4675 133.083 66.1464C132.981 64.6625 131.739 63.4199 130.254 63.3175C130.181 63.3126 130.109 63.3101 130.037 63.3101C129.257 63.3101 128.524 63.5974 127.952 64.1311C127.325 64.7156 126.98 65.5091 126.98 66.3654C126.98 67.0001 126.464 67.5164 125.829 67.5164C125.195 67.5164 124.678 67.0001 124.678 66.3654C124.678 64.8861 125.299 63.4582 126.381 62.4483C127.462 61.4388 128.93 60.9174 130.414 61.0211C133.062 61.2037 135.198 63.3391 135.38 65.9881C135.54 68.3002 134.209 70.4442 132.07 71.3227Z" fill="black"/>
<path d="M161.484 95.8101C161.484 94.1253 160.113 92.7549 158.429 92.7549C156.744 92.7549 155.374 94.1255 155.374 95.8101C155.374 97.4948 156.744 98.8654 158.429 98.8654C160.113 98.8654 161.484 97.4948 161.484 95.8101ZM157.278 95.8101C157.278 95.1755 157.794 94.6592 158.429 94.6592C159.063 94.6592 159.58 95.1755 159.58 95.8101C159.58 96.4448 159.063 96.9611 158.429 96.9611C157.794 96.9611 157.278 96.4448 157.278 95.8101Z" fill="black"/>
<path d="M148.964 98.8654C150.649 98.8654 152.02 97.4948 152.02 95.8101C152.02 94.1255 150.649 92.7549 148.964 92.7549C147.28 92.7549 145.909 94.1255 145.909 95.8101C145.909 97.4948 147.28 98.8654 148.964 98.8654ZM148.964 94.6591C149.599 94.6591 150.115 95.1754 150.115 95.81C150.115 96.4446 149.599 96.961 148.964 96.961C148.33 96.961 147.813 96.4446 147.813 95.81C147.813 95.1754 148.33 94.6591 148.964 94.6591Z" fill="black"/>
</g>
</g>
<defs>
<clipPath id="clip0">
<rect width="279" height="155" fill="white"/>
</clipPath>
<clipPath id="clip1">
<rect width="65" height="65" fill="white" transform="translate(107 51)"/>
</clipPath>
</defs>
</svg>
