<svg width="279" height="155" viewBox="0 0 279 155" fill="none" xmlns="http://www.w3.org/2000/svg">
<g clip-path="url(#clip0)">
<path d="M6.50997 65.9363C3.33226 51.2838 9.99521 34.8189 23.9362 29.1774C34.9044 24.7357 51.6899 23.2552 74.1646 28.6669C133.619 42.962 128.493 26.6247 151.557 13.8612C171.854 2.62935 196.66 -11.1552 239.713 14.8823C272.362 34.6402 253.039 65.4258 275.078 84.3158C289.25 96.4666 265.34 155.281 196.66 142.517C127.981 129.754 112.425 147.674 81.3401 154.26C50.0755 160.897 -14.4783 121.407 2.92223 103.206C13.1729 92.4844 8.50886 75.1261 6.50997 65.9363Z" fill="#36BE57"/>
<path d="M24.3206 69.5102C21.6042 56.9254 27.3189 42.7579 39.3122 37.9078C48.7429 34.0788 63.1707 32.8279 82.4933 37.4739C133.593 49.7523 129.185 35.7125 149.02 24.7359C166.472 15.0867 187.794 3.24214 224.799 25.6038C252.86 42.5793 236.254 69.0508 255.192 85.2859C267.365 95.7265 246.812 146.295 187.794 135.319C128.775 124.342 115.398 139.735 88.6694 145.402C61.7613 151.12 6.25373 117.195 21.2198 101.547C30.0354 92.3314 26.012 77.4236 24.3206 69.5102Z" fill="#E8FFDD"/>
<path d="M125.049 82.75C122.058 82.75 119.632 85.1752 119.632 88.1667C119.632 91.1582 122.058 93.5833 125.049 93.5833C128.039 93.5798 130.462 91.1567 130.466 88.1667C130.466 85.1752 128.04 82.75 125.049 82.75ZM125.049 91.4167C123.254 91.4167 121.799 89.9616 121.799 88.1667C121.799 86.3717 123.254 84.9167 125.049 84.9167C126.844 84.9167 128.299 86.3717 128.299 88.1667C128.299 89.9616 126.844 91.4167 125.049 91.4167Z" fill="black"/>
<path d="M142.093 95.6156L136.794 88.0442C135.824 86.6617 133.917 86.3276 132.534 87.298C131.177 88.2508 130.826 90.1121 131.744 91.4935L133.859 94.6666H116.239L118.354 91.4935C119.289 90.0867 118.906 88.1885 117.499 87.2539C116.118 86.3362 114.256 86.6868 113.303 88.0442L108.005 95.6156C106.888 97.2123 107.277 99.4123 108.873 100.529C109.466 100.944 110.172 101.166 110.895 101.167H118.549V110.917C118.549 111.515 119.034 112 119.632 112H130.466C131.064 112 131.549 111.515 131.549 110.917V101.167H139.203C141.151 101.166 142.731 99.586 142.73 97.6374C142.73 96.914 142.508 96.2083 142.093 95.6156ZM139.99 98.7536C139.759 98.915 139.484 99.0011 139.203 98.9999H130.466C129.867 98.9999 129.382 99.485 129.382 100.083V109.833H120.716V100.083C120.716 99.485 120.231 98.9999 119.632 98.9999H110.895C110.143 99.0001 109.533 98.3905 109.533 97.6386C109.533 97.3589 109.619 97.0862 109.779 96.8571L115.082 89.2857C115.36 88.8792 115.915 88.7749 116.322 89.0528C116.728 89.3306 116.832 89.8856 116.555 90.2921L113.314 95.1487C112.982 95.6463 113.116 96.3191 113.614 96.6511C113.792 96.7699 114.002 96.8333 114.216 96.8333H135.882C136.481 96.8334 136.966 96.3483 136.966 95.7501C136.966 95.536 136.902 95.3268 136.784 95.1487L133.547 90.2921C133.269 89.8856 133.373 89.3306 133.78 89.0528C134.186 88.7749 134.741 88.8792 135.019 89.2857L140.324 96.8571C140.755 97.4731 140.606 98.3223 139.99 98.7536Z" fill="black"/>
<path d="M127.216 63.25H123.966C122.171 63.25 120.716 64.7051 120.716 66.5H122.882C122.882 65.9017 123.367 65.4167 123.966 65.4167H127.216C127.814 65.4167 128.299 65.9017 128.299 66.5C128.299 67.0983 127.814 67.5833 127.216 67.5833C125.421 67.5833 123.966 69.0384 123.966 70.8333H126.132C126.132 70.2351 126.617 69.75 127.216 69.75C129.011 69.75 130.466 68.2949 130.466 66.5C130.466 64.7051 129.011 63.25 127.216 63.25Z" fill="black"/>
<path d="M126.132 71.9165H123.966V74.0832H126.132V71.9165Z" fill="black"/>
<path d="M125.049 58.9165C118.479 58.9165 113.132 63.2899 113.132 68.6665C113.132 73.0475 116.669 76.8522 121.785 78.0363L124.182 81.2332C124.541 81.7119 125.22 81.8088 125.699 81.4498C125.781 81.3882 125.854 81.3152 125.916 81.2332L128.313 78.0363C133.429 76.8522 136.966 73.0475 136.966 68.6665C136.966 63.2899 131.619 58.9165 125.049 58.9165ZM127.475 76.0018C127.215 76.0548 126.984 76.2014 126.825 76.4134L125.049 78.7773L123.276 76.4134C123.117 76.2012 122.885 76.0548 122.626 76.0018C118.311 75.1362 115.299 72.1202 115.299 68.6665C115.299 64.4859 119.672 61.0832 125.049 61.0832C130.426 61.0832 134.799 64.4859 134.799 68.6665C134.799 72.1202 131.787 75.1362 127.475 76.0018Z" fill="black"/>
<path d="M156.466 68.6665C153.476 68.67 151.052 71.0932 151.049 74.0832C151.049 77.0747 153.474 79.4998 156.466 79.4998C159.457 79.4998 161.882 77.0747 161.882 74.0832C161.882 71.0917 159.457 68.6665 156.466 68.6665ZM156.466 77.3332C154.671 77.3332 153.216 75.8781 153.216 74.0832C153.216 72.2882 154.671 70.8332 156.466 70.8332C158.261 70.8332 159.716 72.2882 159.716 74.0832C159.716 75.8781 158.261 77.3332 156.466 77.3332Z" fill="black"/>
<path d="M162.966 47H149.966C146.976 47.0035 144.552 49.4267 144.549 52.4167V58.9167C144.552 61.9067 146.976 64.3298 149.966 64.3333H152.767L155.7 67.2659C156.123 67.6888 156.808 67.6888 157.232 67.2659L160.164 64.3333H162.966C165.956 64.3298 168.379 61.9067 168.382 58.9167V52.4167C168.379 49.4267 165.956 47.0035 162.966 47ZM166.216 58.9167C166.216 60.7116 164.761 62.1667 162.966 62.1667H159.716C159.428 62.1667 159.153 62.281 158.95 62.4841L156.466 64.9682L153.982 62.4841C153.778 62.281 153.503 62.1667 153.216 62.1667H149.966C148.171 62.1667 146.716 60.7116 146.716 58.9167V52.4167C146.716 50.6217 148.171 49.1667 149.966 49.1667H162.966C164.761 49.1667 166.216 50.6217 166.216 52.4167V58.9167Z" fill="black"/>
<path d="M168.924 76.2934C167.154 75.9942 165.477 77.1864 165.178 78.9562C165.147 79.1359 165.132 79.3178 165.132 79.5V80.5834H147.799V75.2826C147.819 73.6656 146.679 72.2661 145.091 71.96C143.321 71.6609 141.644 72.8531 141.344 74.6229C141.314 74.8026 141.299 74.9844 141.299 75.1667V80.5834C141.302 84.1718 144.211 87.0798 147.799 87.0834H149.966V92.4047L147.393 106.986C146.994 109.312 148.556 111.521 150.882 111.92C153.208 112.319 155.417 110.756 155.816 108.43L156.466 104.508L157.116 108.432C157.515 110.756 159.723 112.317 162.047 111.918C164.372 111.519 165.933 109.311 165.534 106.986L162.966 92.4047V87.0834H165.132C168.721 87.0798 171.629 84.1718 171.632 80.5834V79.6159C171.653 77.9989 170.512 76.5994 168.924 76.2934ZM169.466 80.5834C169.466 82.9766 167.526 84.9167 165.132 84.9167H161.882C161.284 84.9167 160.799 85.4018 160.799 86V92.5C160.799 92.5633 160.805 92.6264 160.816 92.6885L163.405 107.363C163.608 108.508 162.844 109.6 161.7 109.803C160.555 110.006 159.463 109.242 159.26 108.097C159.259 108.09 159.258 108.083 159.256 108.075L157.534 97.739C157.434 97.1492 156.875 96.7517 156.285 96.8515C155.83 96.9284 155.474 97.2844 155.397 97.739L153.675 108.074C153.491 109.222 152.411 110.003 151.264 109.819C150.116 109.636 149.334 108.556 149.518 107.408C149.521 107.393 149.523 107.378 149.526 107.363L152.115 92.6885C152.127 92.6264 152.133 92.5633 152.132 92.5V86C152.132 85.4018 151.647 84.9167 151.049 84.9167H147.799C145.406 84.9167 143.466 82.9766 143.466 80.5834V75.1667C143.465 74.5684 143.95 74.0831 144.549 74.083C144.612 74.083 144.676 74.0885 144.739 74.0996C145.279 74.2319 145.653 74.7262 145.632 75.2826V80.5834C145.632 81.78 146.602 82.75 147.799 82.75H165.132C166.329 82.75 167.299 81.78 167.299 80.5834V79.5C167.299 79.1817 167.439 78.8794 167.681 78.6734C167.927 78.4635 168.254 78.3751 168.572 78.4329C169.113 78.5652 169.486 79.0595 169.466 79.6159V80.5834Z" fill="black"/>
<path d="M161.591 51.6505C161.176 51.2202 160.49 51.2083 160.06 51.624C160.051 51.6327 160.042 51.6416 160.033 51.6505L154.299 57.3846L152.898 55.9839C152.468 55.5681 151.782 55.5801 151.366 56.0104C150.961 56.4302 150.961 57.0959 151.366 57.5157L153.533 59.6824C153.956 60.1053 154.642 60.1053 155.065 59.6824L161.565 53.1824C161.995 52.7666 162.007 52.0809 161.591 51.6505Z" fill="black"/>
</g>
<defs>
<clipPath id="clip0">
<rect width="279" height="155" fill="white"/>
</clipPath>
</defs>
</svg>
