<svg width="279" height="155" viewBox="0 0 279 155" fill="none" xmlns="http://www.w3.org/2000/svg">
<g clip-path="url(#clip0)">
<path d="M6.50997 65.9363C3.33226 51.2838 9.99521 34.8189 23.9362 29.1774C34.9044 24.7357 51.6899 23.2552 74.1646 28.6669C133.619 42.962 128.493 26.6247 151.557 13.8612C171.854 2.62935 196.66 -11.1552 239.713 14.8823C272.362 34.6402 253.039 65.4258 275.078 84.3158C289.25 96.4666 265.34 155.281 196.66 142.517C127.981 129.754 112.425 147.674 81.3401 154.26C50.0755 160.897 -14.4783 121.407 2.92223 103.206C13.1729 92.4844 8.50886 75.1261 6.50997 65.9363Z" fill="#36BE57"/>
<path d="M24.3206 69.5102C21.6042 56.9254 27.3189 42.7579 39.3122 37.9078C48.7429 34.0788 63.1707 32.8279 82.4933 37.4739C133.593 49.7523 129.185 35.7125 149.02 24.7359C166.472 15.0867 187.794 3.24214 224.799 25.6038C252.86 42.5793 236.254 69.0508 255.192 85.2859C267.365 95.7265 246.812 146.295 187.794 135.319C128.775 124.342 115.398 139.735 88.6694 145.402C61.7613 151.12 6.25373 117.195 21.2198 101.547C30.0354 92.3314 26.012 77.4236 24.3206 69.5102Z" fill="#E8FFDD"/>
<g clip-path="url(#clip1)">
<path d="M132 97.9165C132 99.7086 130.056 101.167 127.667 101.167C125.277 101.167 123.333 99.7086 123.333 97.9165H121.167C121.167 100.903 124.082 103.333 127.667 103.333C131.251 103.333 134.167 100.903 134.167 97.9165H132Z" fill="black"/>
<path d="M138.5 88.1665C122.372 88.1665 109.25 98.3719 109.25 110.917C109.25 111.515 109.735 112 110.333 112H166.667C167.265 112 167.75 111.515 167.75 110.917C167.75 98.372 154.628 88.1665 138.5 88.1665ZM111.454 109.833C112.198 98.9856 124.045 90.3332 138.5 90.3332C152.955 90.3332 164.802 98.9856 165.546 109.833H111.454Z" fill="black"/>
<path d="M153.667 97.9165C153.667 99.7086 151.723 101.167 149.333 101.167C146.944 101.167 145 99.7086 145 97.9165H142.833C142.833 100.903 145.749 103.333 149.333 103.333C152.918 103.333 155.833 100.903 155.833 97.9165H153.667Z" fill="black"/>
<path d="M158.841 66.7743C158.72 66.3069 158.554 65.8521 158.347 65.4164C160.145 61.6441 158.546 57.1278 154.773 55.3289C154.338 55.121 153.883 54.9554 153.415 54.8342C152.469 51.0707 148.809 48.6497 144.975 49.2514C143.552 47.8087 141.61 46.9974 139.583 46.9996H138.5C136.383 46.992 134.361 47.8791 132.933 49.4423C128.908 48.3238 124.738 50.6805 123.619 54.706C123.607 54.7486 123.596 54.7913 123.585 54.8341C119.536 55.8875 117.107 60.0238 118.161 64.0728C118.391 64.9581 118.78 65.7944 119.308 66.5413C119.104 67.2312 119 67.9469 119 68.6662C119.003 71.6532 120.758 74.3606 123.484 75.582C124.264 79.5468 128.03 82.1925 132.025 81.5811C133.448 83.0239 135.39 83.8351 137.417 83.8329H138.5C140.617 83.8405 142.639 82.9534 144.067 81.3901C148.092 82.5087 152.263 80.152 153.381 76.1265C153.393 76.0838 153.404 76.0412 153.415 75.9984C157.461 74.9496 159.89 70.8198 158.841 66.7743ZM156.186 65.959C157.684 68.5381 156.808 71.8436 154.229 73.3422C153.644 73.6818 153.001 73.9086 152.333 74.011C151.866 74.0832 151.5 74.4493 151.428 74.9161C150.978 77.8633 148.224 79.8878 145.277 79.4378C144.875 79.3765 144.482 79.27 144.104 79.1204C143.649 78.9418 143.131 79.0892 142.839 79.4806C141.824 80.8589 140.212 81.6707 138.5 81.6664H137.417C135.805 81.6679 134.278 80.9504 133.25 79.7097C132.987 79.3934 132.567 79.2532 132.167 79.3479C129.292 80.0628 126.382 78.3117 125.667 75.4367C125.605 75.1895 125.562 74.9383 125.536 74.685C125.49 74.2692 125.209 73.9171 124.813 73.7804C121.995 72.8154 120.492 69.7485 121.457 66.93C121.481 66.8622 121.505 66.7949 121.531 66.7281C121.672 66.3606 121.603 65.9453 121.35 65.6439C119.429 63.3565 119.727 59.9454 122.014 58.0249C122.771 57.3887 123.689 56.9726 124.667 56.8217C125.134 56.7496 125.5 56.3834 125.572 55.9166C126.022 52.9694 128.776 50.9449 131.723 51.3949C132.125 51.4563 132.518 51.5627 132.896 51.7123C133.351 51.8916 133.869 51.744 134.161 51.3521C135.176 49.9737 136.788 49.1619 138.5 49.1662H139.583C141.195 49.1647 142.722 49.8822 143.75 51.1229C144.013 51.4393 144.433 51.5796 144.833 51.4847C147.692 50.7627 150.596 52.4956 151.318 55.3552C151.365 55.5402 151.401 55.7276 151.428 55.9165C151.5 56.3833 151.866 56.7494 152.333 56.8216C155.282 57.2731 157.306 60.0292 156.855 62.9776C156.752 63.6459 156.525 64.289 156.186 64.8735C155.991 65.2093 155.991 65.6233 156.186 65.959Z" fill="black"/>
<path d="M159.083 76.7915C156.69 76.7915 154.75 78.7316 154.75 81.1248C154.75 83.5181 156.69 85.4582 159.083 85.4582C161.477 85.4582 163.417 83.5181 163.417 81.1248C163.414 78.7328 161.475 76.7943 159.083 76.7915ZM159.083 83.2915C157.887 83.2915 156.917 82.3215 156.917 81.1248C156.917 79.9282 157.887 78.9582 159.083 78.9582C160.28 78.9582 161.25 79.9282 161.25 81.1248C161.249 82.321 160.279 83.2904 159.083 83.2915Z" fill="black"/>
<path d="M163.417 88.1665C161.622 88.1665 160.167 89.6216 160.167 91.4165C160.167 93.2115 161.622 94.6665 163.417 94.6665C165.212 94.6665 166.667 93.2115 166.667 91.4165C166.665 89.6225 165.211 88.1685 163.417 88.1665ZM163.417 92.4998C162.818 92.4998 162.333 92.0148 162.333 91.4165C162.333 90.8182 162.818 90.3332 163.417 90.3332C164.015 90.3332 164.5 90.8182 164.5 91.4165C164.499 92.0145 164.015 92.4992 163.417 92.4998Z" fill="black"/>
<path d="M139.583 77.3335H137.417V79.5002H139.583V77.3335Z" fill="black"/>
<path d="M146.006 60.0001C145.467 56.2691 142.27 53.5001 138.5 53.5C134.314 53.5047 130.921 56.8971 130.917 61.0833H133.083C133.083 58.0918 135.508 55.6667 138.5 55.6667C141.491 55.6667 143.917 58.0918 143.917 61.0833C143.917 64.0748 141.491 66.5 138.5 66.5C137.902 66.5 137.417 66.9851 137.417 67.5833V75.1667H139.583V68.5895C143.729 67.9911 146.604 64.1454 146.006 60.0001Z" fill="black"/>
</g>
</g>
<defs>
<clipPath id="clip0">
<rect width="279" height="155" fill="white"/>
</clipPath>
<clipPath id="clip1">
<rect width="65" height="65" fill="white" transform="translate(106 47)"/>
</clipPath>
</defs>
</svg>
