<svg width="51" height="34" viewBox="0 0 51 34" fill="none" xmlns="http://www.w3.org/2000/svg">
<path d="M3.39997 13.6001C1.53 13.6001 0 15.1301 0 17.0001C0 18.87 1.53 20.4 3.39997 20.4C5.26993 20.4 6.79993 18.87 6.79993 17.0001C6.79993 15.1301 5.27003 13.6001 3.39997 13.6001ZM3.39997 18.7001C2.46493 18.7001 1.69993 17.9351 1.69993 17.0001C1.69993 16.065 2.46493 15.3 3.39997 15.3C4.335 15.3 5.1 16.065 5.1 17.0001C5.1 17.9351 4.335 18.7001 3.39997 18.7001Z" fill="#E6EEFF"/>
<path d="M47.5999 13.6001C45.73 13.6001 44.2 15.1301 44.2 17.0001C44.2 18.87 45.73 20.4 47.5999 20.4C49.4699 20.4 50.9999 18.87 50.9999 17.0001C50.9999 15.1301 49.4699 13.6001 47.5999 13.6001ZM47.5999 18.7001C46.6649 18.7001 45.8999 17.9351 45.8999 17.0001C45.8999 16.065 46.6649 15.3 47.5999 15.3C48.535 15.3 49.2999 16.065 49.2999 17.0001C49.2998 17.9351 48.5349 18.7001 47.5999 18.7001Z" fill="#E6EEFF"/>
<path d="M25.5 0C24.735 0 23.46 0.0849668 21.25 0.594967H20.995C20.7318 0.668379 20.4719 0.748565 20.2144 0.83393L20.145 0.849966L20.1472 0.856541C13.2875 3.1628 8.5 9.64936 8.5 17C8.5 24.384 13.3309 30.8961 20.2404 33.0983L20.23 33.15L21.25 33.405C23.46 33.915 24.735 34 25.5 34C34.8501 34 42.5001 26.35 42.5001 16.9999C42.5001 7.6499 34.8501 0 25.5 0ZM10.2 17C10.2 10.2148 14.6856 4.19166 21.2076 2.30765C27.7298 4.19166 32.3001 10.2148 32.3001 17C32.3001 23.8001 27.795 29.835 21.2501 31.7051C14.7051 29.835 10.2 23.8001 10.2 17ZM25.5 32.3C25.2642 32.3 24.9547 32.2281 24.5734 32.2173C29.8596 29.5582 33.5048 24.269 33.9526 18.2524C33.9542 18.2312 33.9558 18.2101 33.9573 18.1889C33.9701 18.0071 33.9803 17.8247 33.9871 17.6417C33.9881 17.6147 33.9888 17.5876 33.9897 17.5605C33.9959 17.3743 34 17.1876 34 17.0001C34 16.8127 33.996 16.626 33.9897 16.4397C33.9888 16.4126 33.9882 16.3855 33.9871 16.3585C33.9802 16.1756 33.97 15.9932 33.9573 15.8114C33.9558 15.7902 33.9542 15.769 33.9526 15.7477C33.5181 9.91034 30.074 4.76013 25.041 2.07526C24.982 2.04339 24.922 2.01311 24.8625 1.98193C24.8147 1.95722 24.767 1.93242 24.719 1.90812C24.6393 1.86728 24.5605 1.82484 24.48 1.7852C24.9051 1.70023 25.245 1.70023 25.5 1.70023C33.915 1.70023 40.8 8.58523 40.8 17.0002C40.8 25.4152 33.915 32.3 25.5 32.3Z" fill="#E6EEFF"/>
</svg>
