<svg width="26" height="26" viewBox="0 0 26 26" fill="none" xmlns="http://www.w3.org/2000/svg">
<path d="M17.3487 18.4314C17.0883 18.1713 16.7277 18.0285 16.331 18.0285C15.9132 18.0285 15.5107 18.1919 15.2263 18.4775L13.4277 20.2841L12.9415 20.0133C11.8723 19.418 10.407 18.6015 8.86023 17.0459C7.30712 15.4882 6.49341 14.0136 5.89848 12.9354L5.63279 12.4609L7.43459 10.6519C8.03056 10.0513 8.05135 9.09563 7.47957 8.52065L4.15057 5.17829C3.89186 4.91842 3.5307 4.77499 3.13464 4.77499C2.71736 4.77499 2.31507 4.93922 2.02978 5.22511L1.21228 6.05071L1.13648 6.17758C0.831965 6.56955 0.582826 7.00997 0.396714 7.49005C0.22352 7.94731 0.115876 8.38192 0.0657664 8.81794C-0.363248 12.4001 1.28139 15.6887 5.74429 20.1691C11.0334 25.4794 15.4534 25.8926 16.6823 25.8926C16.8932 25.8926 17.0202 25.8809 17.0554 25.8774C17.5096 25.8218 17.9438 25.7122 18.382 25.542C18.855 25.3572 19.2927 25.1088 19.6824 24.803L19.8678 24.6557L20.6332 23.9019C21.2284 23.3039 21.2475 22.3495 20.676 21.7752L17.3487 18.4314Z" fill="white"/>
<path d="M13.8249 12.2494C13.1005 11.5225 12.1906 10.9994 11.1964 10.7382L10.739 10.6167L10.6079 11.0702C10.5587 11.2383 10.5007 11.3974 10.4349 11.5404L10.187 12.0707L10.755 12.218C11.5063 12.4087 12.191 12.7972 12.7346 13.3442C13.2542 13.8648 13.634 14.518 13.8328 15.2314L13.9287 15.5752L14.6436 15.6159C14.7159 15.6244 14.7881 15.6326 14.8572 15.6388L15.5294 15.7024L15.3734 15.0425C15.1229 13.9811 14.588 13.0153 13.8249 12.2494Z" fill="white"/>
<path d="M16.1611 9.90235C14.8162 8.55165 13.0975 7.67028 11.1932 7.35421L10.5308 7.24246L10.6349 7.90742C10.6654 8.10459 10.6924 8.30087 10.7149 8.49917L10.7572 8.84901L11.1078 8.91864C12.6257 9.2002 13.996 9.9198 15.0704 10.998C16.3038 12.237 17.0577 13.8176 17.2484 15.5715L17.289 15.9426L17.8493 16.0237C17.9394 16.0308 18.0308 16.0299 18.1596 16.0308L18.8345 16.0541L18.781 15.5008C18.571 13.3481 17.6643 11.4127 16.1611 9.90235Z" fill="white"/>
<path d="M18.699 7.35431C16.4924 5.13894 13.5532 3.81933 10.4227 3.63959L9.81464 3.6015L9.91604 4.20287C9.947 4.3987 9.98494 4.59901 10.025 4.80766L10.099 5.17249L10.4666 5.1953C13.168 5.38107 15.7043 6.53669 17.609 8.44895C19.4831 10.331 20.6283 12.849 20.8334 15.5356L20.8686 16.0137L21.3443 15.9855C21.457 15.9797 21.568 15.9699 21.7303 15.9555L22.411 15.9018L22.3735 15.4175C22.1408 12.3635 20.836 9.49998 18.699 7.35431Z" fill="white"/>
<path d="M25.9607 15.0746C25.6495 11.1978 23.973 7.54969 21.239 4.80384C18.3218 1.87432 14.4387 0.17578 10.3077 0.0197548L9.8394 0L9.80377 0.472699C9.79553 0.60472 9.78996 0.735251 9.78506 0.866378L9.75633 1.55265L10.242 1.5701C13.9881 1.70935 17.5061 3.24717 20.1478 5.8999C22.6224 8.38475 24.1407 11.6887 24.4242 15.2017L24.4638 15.695L24.9582 15.6467C25.1258 15.6288 25.2956 15.6158 25.4668 15.6024L26 15.5612L25.9607 15.0746Z" fill="white"/>
</svg>
