<svg width="43" height="38" viewBox="0 0 43 38" fill="none" xmlns="http://www.w3.org/2000/svg">
<path d="M39.1084 26.1425L38.641 23.801L34.6719 4.09045C33.8854 1.41855 31.5552 0.383952 29.3184 0.0761514C24.2163 -0.639364 23.1946 3.83099 22.4743 7.45692L22.0682 9.48743L20.339 17.8867L20.1778 18.657L19.2963 14.2559L18.8902 12.2238C18.6924 11.124 18.4233 10.0382 18.0845 8.97336C18.1328 8.99269 18.1586 9.00559 18.1586 9.00559C17.3738 6.33369 15.0419 5.29909 12.8051 4.99129C7.70468 4.27577 6.68136 8.74613 5.96101 12.3721L3.93533 22.5295L3.67588 23.8332C3.5534 24.4472 3.30201 25.6993 3.20693 26.1747C2.51397 29.6202 0 28.3954 0 28.3954C0.78481 31.0673 3.11668 32.1019 5.35347 32.4113C10.4539 33.1268 11.4772 28.6549 12.1976 25.0306L12.4506 23.7591L13.7398 30.2293C13.949 31.3784 14.2365 32.5117 14.6004 33.6216L14.6326 33.6409C15.5222 36.0195 17.7283 36.9655 19.8523 37.2636C20.1037 37.2991 20.3438 37.3184 20.5759 37.3297L20.6001 37.3442L20.6146 37.3313C25.0559 37.5118 26.0099 33.3186 26.6948 29.8828L28.756 19.5965L28.8897 18.9519L30.1193 24.9983C30.8429 28.6242 31.8614 33.0946 36.9634 32.3791C39.2002 32.0664 41.5305 31.0367 42.3169 28.3648C42.3185 28.3616 39.7965 29.5895 39.1084 26.1425Z" fill="#7F7F7F"/>
<path d="M39.1084 26.1425L38.6411 23.8009L34.6719 4.09042L33.8146 3.34106L31.3763 3.40553L24.8819 7.47623C24.5517 7.94701 24.3018 8.46923 24.1422 9.02168C24.1422 9.02168 26.6626 7.7937 27.3524 11.2424L27.8197 13.5839L28.0792 14.886L28.7963 18.4732L30.1226 24.9935C30.8461 28.6194 31.8646 33.0897 36.9667 32.3742C39.2035 32.0616 41.5337 31.0318 42.3202 28.3599C42.3185 28.3615 39.7965 29.5895 39.1084 26.1425Z" fill="url(#paint0_linear)"/>
<path d="M22.7337 31.3766L22.2664 29.0351L19.306 14.2558L18.8999 12.2237C18.6775 11.1085 18.4922 9.91759 18.1038 8.81853L15.3562 6.12891L8.50079 8.81531C9.07933 9.0796 9.64014 9.71132 9.91249 11.0714C10.0076 11.5549 10.2574 12.799 10.3814 13.413L13.7463 30.2292C13.9534 31.3781 14.2388 32.5115 14.6004 33.6215L20.6001 37.3441L24.8029 33.7987C24.0423 33.752 23.1125 33.2685 22.7337 31.3766Z" fill="url(#paint1_linear)"/>
<path d="M12.8084 4.99119C7.7079 4.27568 6.68459 8.74603 5.96424 12.372L3.93533 22.5294L3.67588 23.8331C3.5534 24.4471 3.302 25.6992 3.20692 26.1746C2.51397 29.6201 0 28.3953 0 28.3953C0.78481 31.0672 3.11668 32.1018 5.35347 32.4112C10.4539 33.1267 11.4772 28.6548 12.1976 25.0305L14.2265 14.8779L14.486 13.5758C14.6084 12.9618 14.8598 11.7096 14.9549 11.2326C15.643 7.78557 18.1634 9.01355 18.1634 9.01355C17.377 6.33359 15.0451 5.30544 12.8084 4.99119Z" fill="url(#paint2_linear)"/>
<path d="M29.3216 0.0761514C24.2195 -0.639364 23.1978 3.83099 22.4775 7.45691L22.0714 9.48743L20.3422 17.8867L18.1763 28.6839L17.709 31.027C17.0209 34.4741 14.486 33.2509 14.486 33.2509C15.2724 35.9228 17.6236 36.9461 19.8604 37.2604C24.9608 37.9759 25.9842 33.5055 26.7029 29.8796L28.764 19.5933L31.004 8.64944L31.4714 6.30629C32.1611 2.85925 34.6815 4.08723 34.6815 4.08723C33.8887 1.41855 31.5584 0.388786 29.3216 0.0761514Z" fill="url(#paint3_linear)"/>
<path d="M14.2217 14.8698L14.4811 13.5677L14.9485 11.2245C15.245 9.74033 15.8815 9.12957 16.5117 8.90234C15.7865 9.01354 14.963 9.55662 14.6133 11.31L14.1459 13.6515L13.8849 14.9552L11.8608 25.1078C11.2774 28.0295 10.5007 31.5007 7.54999 32.3596C10.773 31.6699 11.5917 28.0521 12.196 25.0224L14.2265 14.8698H14.2217Z" fill="url(#paint4_linear)"/>
<path d="M31.1265 6.39497C31.0314 6.87842 30.78 8.12252 30.6576 8.73651L28.4192 19.682L26.3645 29.9667C25.7811 32.89 25.0043 36.3596 22.0536 37.2185C25.2767 36.5288 26.0953 32.9093 26.6997 29.8797L28.7608 19.5933L31.0008 8.64949L31.4682 6.30633C31.7647 4.82212 32.4012 4.21136 33.0297 3.98413C32.2981 4.09855 31.4762 4.64163 31.1265 6.39497Z" fill="url(#paint5_linear)"/>
<defs>
<linearGradient id="paint0_linear" x1="31.5225" y1="8.59178" x2="31.1517" y2="29.44" gradientUnits="userSpaceOnUse">
<stop stop-color="#3A6A4F"/>
<stop offset="1" stop-color="#7CCA79"/>
</linearGradient>
<linearGradient id="paint1_linear" x1="15.1195" y1="11.7595" x2="14.6441" y2="34.1129" gradientUnits="userSpaceOnUse">
<stop stop-color="#3A6A4F"/>
<stop offset="1" stop-color="#7CCA79"/>
</linearGradient>
<linearGradient id="paint2_linear" x1="4.9103" y1="38.0725" x2="13.4659" y2="-1.66439" gradientUnits="userSpaceOnUse">
<stop stop-color="#3CA95D"/>
<stop offset="1" stop-color="#99EB6D"/>
</linearGradient>
<linearGradient id="paint3_linear" x1="19.9456" y1="44.8995" x2="33.7594" y2="-7.78161" gradientUnits="userSpaceOnUse">
<stop stop-color="#3CA95D"/>
<stop offset="1" stop-color="#99EB6D"/>
</linearGradient>
<linearGradient id="paint4_linear" x1="16.6212" y1="-0.265601" x2="9.31782" y2="32.9785" gradientUnits="userSpaceOnUse">
<stop stop-color="#D6FAA4"/>
<stop offset="1" stop-color="#8CBF76"/>
</linearGradient>
<linearGradient id="paint5_linear" x1="2374.12" y1="1722.53" x2="-940.063" y2="6704.76" gradientUnits="userSpaceOnUse">
<stop stop-color="#D6FAA4"/>
<stop offset="1" stop-color="#8CBF76"/>
</linearGradient>
</defs>
</svg>
