<svg width="161" height="164" viewBox="0 0 161 164" fill="none" xmlns="http://www.w3.org/2000/svg">
<path d="M109.867 33.1924L96.1495 43.3392L90.9503 81.9997L97.3972 120.448L109.867 130.807C114.748 130.051 119.474 128.831 123.935 127.172V36.8276C119.474 35.169 114.748 33.9486 109.867 33.1924Z" fill="#EFEDEE"/>
<path d="M111.193 124.345C108.53 124.755 105.821 125.03 103.085 125.173L109.866 130.807C114.748 130.051 119.474 128.831 123.935 127.172V121.258C119.852 122.627 115.583 123.664 111.193 124.345Z" fill="#D2D2D2"/>
<path d="M156.999 94.1196L155.754 91.8938L158.058 89.312C158.441 86.9523 158.642 84.5141 158.642 81.9999C158.642 60.3513 143.921 44.2412 123.935 36.8279C116.608 49.5411 112.63 65.3081 112.63 81.9999C112.63 98.6917 116.607 114.462 123.935 127.172C139.986 121.218 152.638 109.655 156.999 94.1196Z" fill="#FA9F6A"/>
<path d="M19.5058 103.741C9.55497 110.105 2.3584 105.145 2.3584 81.9998C2.3584 58.8546 9.55497 53.8943 19.5058 60.2589V103.741Z" fill="#3A484A"/>
<path d="M31.4813 71.6572V92.3429C27.2607 97.465 23.193 101.38 19.5057 103.741C16.564 100.328 14.8361 93.3503 14.8361 82C14.8361 70.6498 16.5643 63.6721 19.5057 60.2592C23.193 62.6199 27.2607 66.5347 31.4813 71.6572Z" fill="#E0712F"/>
<path d="M63.8799 40.3421C48.8692 21.1019 69.1986 12.6719 89.9084 19.9898L63.8799 40.3421Z" fill="#3A484A"/>
<path d="M63.8799 123.657C48.8692 142.898 69.1986 151.327 89.9084 144.01L63.8799 123.657Z" fill="#3A484A"/>
<path d="M109.866 33.1923L63.8799 40.3417C63.8799 40.3417 69.735 24.6032 89.9084 19.9894C96.9799 22.4904 104.098 26.8245 109.866 33.1923Z" fill="#E0712F"/>
<path d="M109.866 130.807L63.8799 123.658C63.8799 123.658 69.735 139.396 89.9084 144.01C96.9799 141.509 104.098 137.175 109.866 130.807Z" fill="#FA9F6A"/>
<path d="M63.8826 40.3421H63.8795C63.8785 40.344 63.8779 40.3459 63.8773 40.3479L53.9327 50.9656L46.6541 85.134L53.9327 112.822L63.8795 123.657C70.0965 126.765 76.5755 128.926 83.1108 130.216V33.7837C76.579 35.0736 70.0965 37.2344 63.8826 40.3421Z" fill="#EFEDEE"/>
<path d="M82.7535 123.716H82.75C75.8028 122.345 68.915 120.048 62.3059 116.744C59.3544 115.272 56.4602 113.599 53.6433 111.72L53.9329 112.822L63.8797 123.657C65.4341 124.434 67.0047 125.152 68.5883 125.812C73.3397 127.791 78.2097 129.248 83.111 130.216V123.783C82.9919 123.76 82.8727 123.74 82.7535 123.716Z" fill="#D2D2D2"/>
<path d="M98.5925 81.9996C98.5925 99.6953 102.542 116.606 109.866 130.807C101.247 132.135 92.1353 132.005 83.1139 130.216H83.1108C74.6042 117.026 69.95 100.051 69.95 81.9996C69.95 63.9481 74.6042 46.9767 83.1108 33.7833H83.1139C92.1353 31.9944 101.247 31.864 109.866 33.1923C102.545 47.3934 98.5925 64.3043 98.5925 81.9996Z" fill="#FA9F6A"/>
<path d="M55.9125 81.9997C55.9125 96.8103 58.6794 111.074 63.8795 123.657C50.1914 116.829 37.801 105.434 29.0604 88.6885C26.8832 84.5132 26.8832 79.4862 29.0604 75.3109C37.801 58.5653 50.1882 47.1705 63.8795 40.3421C58.6829 52.9253 55.9125 67.1859 55.9125 81.9997Z" fill="#FA9F6A"/>
<path d="M125.86 126.424C132.281 123.815 138.35 120.188 143.516 115.49C143.54 115.469 143.564 115.448 143.587 115.427C145.951 113.27 148.122 110.887 150.027 108.3C150.046 108.274 150.065 108.248 150.084 108.222C152.503 104.923 154.475 101.321 155.913 97.4426C149.345 107.899 138.732 115.813 126.148 120.48C124.552 121.074 122.921 121.61 121.266 122.097C122.099 123.836 122.989 125.53 123.935 127.172C124.58 126.933 125.222 126.683 125.86 126.424Z" fill="#E0712F"/>
<path d="M82.7499 123.716C81.4862 123.467 80.2243 123.186 78.9658 122.874C80.2249 125.429 81.6063 127.883 83.1141 130.216C90.838 131.747 98.7883 132.097 106.612 131.236C107.704 131.116 108.789 130.973 109.866 130.807C108.87 128.876 107.939 126.893 107.069 124.866C99.149 125.672 90.9169 125.335 82.7499 123.716Z" fill="#E0712F"/>
<path d="M63.8795 123.657C62.8698 121.214 61.955 118.707 61.1311 116.145C48.1666 109.408 36.3648 98.7562 27.5183 83.5955C27.5356 83.7524 27.5586 83.9091 27.5809 84.0657C27.8117 85.6794 28.3092 87.2477 29.0604 88.6884C31.42 93.209 34.1495 97.5335 37.2491 101.565C44.8736 111.483 54.0415 118.749 63.8795 123.657Z" fill="#E0712F"/>
<path d="M145.848 80.2296C143.733 78.8837 141.108 78.5473 138.645 79.3065C136.182 80.0662 134.181 81.8296 133.154 84.1448C132.618 85.354 133.145 86.7768 134.333 87.3236C135.509 87.8646 136.92 87.3233 137.453 86.123C137.919 85.0711 138.852 84.263 140.012 83.9052C141.172 83.5471 142.388 83.6928 143.349 84.3043C144.454 85.0077 145.909 84.665 146.599 83.54C147.289 82.4151 146.953 80.933 145.848 80.2296Z" fill="black"/>
<path d="M161 81.9997C161 71.1652 157.405 60.9818 150.605 52.5505C144.292 44.7227 135.35 38.5064 124.744 34.5711C120.39 32.9525 115.779 31.7402 111.029 30.9532C105.493 25.0472 98.4779 20.4777 90.6811 17.7204C85.5919 15.9222 80.3299 14.9718 75.4634 14.9718C66.5373 14.9718 59.9631 18.042 57.427 23.3951C55.895 26.6289 55.2862 31.9519 60.3363 39.4962C48.5434 45.9345 38.5142 55.4484 30.9255 67.357C27.3235 63.3108 23.9123 60.2432 20.7599 58.2246C17.7358 56.2902 14.9129 55.3094 12.3693 55.3094C9.50969 55.3094 5.55198 56.5477 2.93605 62.4479C0.988012 66.8426 0 73.4208 0 81.9997C0 90.5777 0.988012 97.1557 2.93668 101.551C5.5523 107.451 9.51001 108.69 12.3703 108.69C14.9129 108.69 17.7358 107.709 20.7608 105.774C23.9126 103.756 27.3238 100.689 30.9258 96.6425C38.5136 108.549 48.5428 118.063 60.3366 124.503C55.2872 132.047 55.8959 137.37 57.4279 140.603C59.9643 145.957 66.538 149.028 75.4656 149.028C80.3305 149.028 85.5926 148.077 90.6823 146.279C98.4785 143.522 105.493 138.952 111.029 133.046C115.78 132.259 120.391 131.047 124.747 129.427C135.35 125.493 144.292 119.276 150.605 111.449C157.267 103.19 161 92.6918 161 81.9997ZM86.4045 30.7792C80.8145 31.6159 75.1974 33.065 69.8614 35.1025C69.8127 35.1211 69.7633 35.1384 69.7146 35.1573C69.74 35.1243 69.7665 35.0909 69.7922 35.0576C71.7736 32.5182 74.1094 30.2853 76.7058 28.4096C80.5063 25.6638 84.8523 23.7471 89.3638 22.5956C89.5018 22.5603 89.6412 22.527 89.7801 22.4927C94.6328 24.2878 99.137 26.8522 103.084 30.0486C97.7185 29.7145 92.3329 29.9317 86.9777 30.695C86.7862 30.7225 86.5954 30.7504 86.4045 30.7792ZM61.6749 25.4832C63.3683 21.9098 68.5228 19.7762 75.4637 19.7762C77.3765 19.7762 79.3636 19.9424 81.3805 20.2672C71.4692 24.5988 66.0933 31.4862 63.5576 35.7405C61.0633 31.6591 60.4099 28.1536 61.6749 25.4832ZM12.37 103.885C5.7111 103.884 4.7168 90.1728 4.7168 81.9997C4.7168 73.826 5.7111 60.1141 12.3693 60.1141C13.463 60.1141 14.7057 60.4392 16.0818 61.0833C16.067 61.1103 16.0538 61.1394 16.039 61.1666C13.1328 66.5421 12.6712 73.1777 12.5149 79.1903C12.4483 81.7499 12.4608 84.4751 12.6014 87.0937C12.602 87.1055 12.6023 87.1177 12.603 87.1296C12.8787 92.4663 13.4599 98.0727 16.039 102.833C16.0535 102.859 16.067 102.889 16.0818 102.916C14.706 103.56 13.4636 103.885 12.37 103.885ZM28.3586 92.3593C25.4273 95.7652 22.6645 98.4587 20.1121 100.4C20.0954 100.369 20.0256 100.235 20.0074 100.199C17.2751 94.8014 17.1949 87.9313 17.1949 81.9997C17.1949 77.1275 17.4018 72.17 18.6697 67.4464C19.0059 66.1933 19.4219 64.9578 20.0074 63.8012C20.0256 63.765 20.0958 63.6308 20.1121 63.5991C22.6648 65.5405 25.4273 68.234 28.3586 71.6399C28.459 71.7565 27.0889 73.9718 26.9782 74.1838C24.4261 79.0779 24.4261 84.9213 26.9785 89.816C27.0895 90.0297 28.4539 92.2485 28.3586 92.3593ZM33.2578 91.3747C32.5236 90.1209 31.8164 88.8503 31.1434 87.5613C29.3272 84.0786 29.3272 79.9206 31.1431 76.4388C31.817 75.1476 32.5239 73.8741 33.261 72.6194C39.9293 61.2659 48.8424 52.0441 59.4011 45.5613C55.4497 57.2514 53.5545 69.6456 53.5545 81.9997C53.5545 87.2929 53.9117 92.6274 54.6164 97.8552C54.7935 99.1695 55.9808 100.091 57.2735 99.9084C58.5332 99.7303 59.4625 98.4875 59.2892 97.2018C58.6137 92.1889 58.2713 87.0738 58.2713 81.9997C58.2713 68.4086 60.6618 54.7053 65.7226 42.1068C65.761 42.0882 65.799 42.069 65.8374 42.0504C67.8801 41.0641 69.9687 40.1756 72.0918 39.3854C74.0276 38.665 75.9911 38.0292 77.9781 37.4725C78.0598 37.4497 78.1416 37.427 78.2237 37.4042C78.1919 37.4629 78.1617 37.5224 78.1303 37.5811C72.4959 48.0876 69.2728 59.861 68.0967 71.7443C67.7596 75.1511 67.5917 78.5753 67.5917 81.9994C67.5917 94.3347 69.7363 106.726 74.2974 118.174C75.4203 120.992 76.6901 123.76 78.1328 126.424C78.1633 126.481 78.1925 126.538 78.223 126.595C78.1425 126.573 78.0624 126.55 77.9822 126.528C73.8122 125.364 69.7419 123.835 65.8345 121.949C65.7965 121.931 65.7588 121.911 65.7207 121.893C65.5625 121.817 65.3547 120.973 65.2751 120.767C63.4658 116.098 62.0227 111.275 60.9275 106.381C60.6382 105.088 59.3747 104.277 58.104 104.573C56.8339 104.868 56.0393 106.155 56.3286 107.449C57.1575 111.153 58.176 114.815 59.3901 118.407C59.3933 118.417 59.3964 118.427 59.3996 118.437C48.8393 111.952 39.9249 102.728 33.2578 91.3747ZM86.1762 133.189C91.7684 134.038 97.4405 134.301 103.084 133.95C99.137 137.147 94.6328 139.711 89.7798 141.506C84.8143 140.292 79.9906 138.19 75.9241 135.011C73.6572 133.239 71.5746 131.226 69.7948 128.945C69.7683 128.911 69.7413 128.877 69.7152 128.843C69.7599 128.86 69.8048 128.876 69.8495 128.893C75.1241 130.906 80.6053 132.344 86.1762 133.189ZM75.4637 144.223C68.5234 144.223 63.3692 142.089 61.6759 138.515C60.4108 135.845 61.0646 132.34 63.5579 128.259C66.0936 132.513 71.4695 139.4 81.3802 143.732C79.3636 144.056 77.3778 144.223 75.4656 144.223C75.4647 144.223 75.4643 144.223 75.4637 144.223ZM111.182 128.153C110.127 126.008 109.155 123.817 108.27 121.594C103.278 109.067 100.951 95.4964 100.951 81.9997C100.951 74.0964 101.76 66.2766 103.355 58.7572C103.631 57.4606 102.822 56.1819 101.549 55.9017C100.34 55.6355 99.0197 56.4484 98.7452 57.7422C97.0789 65.5937 96.2343 73.7552 96.2343 81.9994C96.2343 98.0253 99.4379 114.144 106.176 128.662C106.206 128.726 106.235 128.79 106.265 128.854C103.596 129.144 100.896 129.294 98.2002 129.294C93.958 129.294 84.6055 128.141 84.542 128.039C84.503 127.977 84.4634 127.915 84.4247 127.853C78.0743 117.604 74.4131 105.722 72.9943 93.7344C72.5349 89.8525 72.3098 85.9425 72.3085 82.0327C72.3085 82.0215 72.3085 82.0106 72.3085 81.9994C72.3085 70.0825 74.4197 57.9843 78.9347 46.9697C80.2953 43.65 81.8949 40.4517 83.693 37.3568C83.8219 37.1384 84.5042 36.0211 84.5423 35.96C84.7388 35.9238 85.3973 35.8033 85.5303 35.7806C89.7078 35.0679 93.9605 34.7053 98.2006 34.7053C100.896 34.7053 103.597 34.8546 106.267 35.1444C104.953 37.9385 101.68 46.709 101.215 48.2289C101.212 48.2359 101.21 48.243 101.208 48.25C100.821 49.5015 101.525 50.8705 102.749 51.2629C103.992 51.662 105.316 50.9579 105.707 49.6924C106.965 45.6199 108.485 41.625 110.271 37.762C110.567 37.1195 110.872 36.4811 111.184 35.8459C114.374 36.4164 117.49 37.1935 120.491 38.1672C120.28 38.567 120.072 38.9693 119.868 39.3735C113.241 52.4673 110.272 67.3253 110.272 81.9997C110.272 97.146 113.423 112.433 120.491 125.832C117.49 126.806 114.374 127.583 111.182 128.153ZM124.989 124.193C124.928 124.081 124.626 123.516 124.536 123.344C119.496 113.707 116.578 102.996 115.494 92.1553C115.156 88.7821 114.988 85.3903 114.988 81.9994C114.988 70.7699 116.8 59.3601 120.831 48.8858C122.029 45.7743 123.408 42.7362 124.988 39.8066C144.627 47.7593 156.283 63.4085 156.283 81.9997C156.283 84.5052 156.064 86.955 155.65 89.3419C154.222 89.3352 152.08 89.1981 149.901 88.5873C148.646 88.2353 147.347 88.9864 147.001 90.2661C146.656 91.5454 147.394 92.8676 148.65 93.2197C150.799 93.8222 152.884 94.0509 154.527 94.1213C150.588 107.282 140.179 118.041 124.989 124.193Z" fill="black"/>
</svg>
