<svg width="279" height="155" viewBox="0 0 279 155" fill="none" xmlns="http://www.w3.org/2000/svg">
<g clip-path="url(#clip0)">
<path d="M6.50997 65.9363C3.33226 51.2838 9.99521 34.8189 23.9362 29.1774C34.9044 24.7357 51.6899 23.2552 74.1646 28.6669C133.619 42.962 128.493 26.6247 151.557 13.8612C171.854 2.62935 196.66 -11.1552 239.713 14.8823C272.362 34.6402 253.039 65.4258 275.078 84.3158C289.25 96.4666 265.34 155.281 196.66 142.517C127.981 129.754 112.425 147.674 81.3401 154.26C50.0755 160.897 -14.4783 121.407 2.92223 103.206C13.1729 92.4844 8.50886 75.1261 6.50997 65.9363Z" fill="#36BE57"/>
<path d="M24.3206 69.5101C21.6042 56.9253 27.3189 42.7578 39.3122 37.9077C48.7429 34.0786 63.1707 32.8278 82.4933 37.4737C133.593 49.7522 129.185 35.7124 149.02 24.7358C166.472 15.0865 187.794 3.24202 224.799 25.6037C252.86 42.5791 236.254 69.0506 255.192 85.2858C267.365 95.7264 246.812 146.295 187.794 135.319C128.775 124.342 115.398 139.735 88.6694 145.402C61.7613 151.12 6.25373 117.195 21.2198 101.547C30.0354 92.3313 26.012 77.4235 24.3206 69.5101Z" fill="#E8FFDD"/>
<g clip-path="url(#clip1)">
<path d="M136.794 92.5321C137.263 92.6037 137.729 92.6391 138.19 92.6391C140.926 92.6391 143.473 91.397 145.192 89.1684C147.201 86.563 147.62 83.2054 146.311 80.1868L143.925 74.6858C143.779 74.3499 143.665 73.9963 143.586 73.6349C143.474 73.1207 142.966 72.7957 142.452 72.9076C141.938 73.02 141.613 73.5278 141.725 74.0417C141.831 74.5235 141.983 74.9954 142.177 75.4439L144.563 80.9449C145.592 83.3177 145.263 85.9569 143.684 88.0049C142.288 89.814 140.199 90.7945 137.968 90.7284C138.63 89.4152 139.006 87.9334 139.006 86.3647V85.0249H139.129C140.907 85.0249 142.353 83.5791 142.353 81.8019C142.353 80.0247 140.907 78.5787 139.129 78.5787H139.006V76.2512C139.006 75.1053 138.109 74.184 136.963 74.1538L130.745 73.9898C128.593 73.9332 126.488 73.1535 124.817 71.7945L124.408 71.4618C124.057 71.1759 123.614 71.046 123.165 71.0929C122.714 71.1411 122.31 71.3622 122.027 71.7159C120.471 73.6599 119.601 76.0908 119.562 78.5787H119.435C117.658 78.5787 116.212 80.0247 116.212 81.8019C116.212 83.5791 117.658 85.0249 119.435 85.0249H119.558V86.3647C119.558 87.9338 119.934 89.4157 120.597 90.7293C118.366 90.7957 116.276 89.8141 114.88 88.0049C113.301 85.9569 112.972 83.3177 114.001 80.9449L116.387 75.4439C116.656 74.823 116.841 74.1689 116.938 73.4997C117.207 71.6237 117.879 69.8789 118.933 68.3139C119.227 67.8775 119.112 67.2855 118.676 66.9918C118.239 66.6978 117.647 66.8133 117.353 67.2495C116.137 69.0544 115.363 71.066 115.052 73.2284C114.98 73.73 114.841 74.2205 114.639 74.6858L112.253 80.1868C110.944 83.2056 111.362 86.563 113.372 89.1684C115.091 91.3971 117.638 92.6394 120.374 92.6391C120.835 92.6391 121.302 92.6038 121.77 92.5321C122.562 93.4949 123.535 94.3032 124.636 94.9048V97.2093L118.925 99.5005C118.415 99.7051 117.914 99.9557 117.437 100.245C116.987 100.518 116.843 101.104 117.116 101.554C117.295 101.849 117.61 102.012 117.932 102.012C118.1 102.012 118.27 101.968 118.425 101.874C118.814 101.638 119.221 101.435 119.634 101.269L124.836 99.1816C125.404 101.016 127.117 102.353 129.136 102.353C131.154 102.353 132.867 101.016 133.435 99.1816L138.637 101.269C141.792 102.534 143.83 105.549 143.83 108.948V114.047C143.83 114.573 144.257 115 144.783 115C145.309 115 145.735 114.573 145.735 114.047V108.948C145.735 104.766 143.227 101.058 139.346 99.5004L133.635 97.2092V95.0558C134.857 94.4416 135.933 93.579 136.794 92.5321ZM139.129 80.4838C139.856 80.4838 140.447 81.075 140.447 81.8019C140.447 82.5286 139.856 83.1198 139.129 83.1198H139.006V80.4838H139.129ZM119.435 83.1197C118.708 83.1197 118.117 82.5285 118.117 81.8018C118.117 81.0749 118.708 80.4837 119.435 80.4837H119.558V83.1197H119.435ZM121.463 86.3646V78.753C121.463 76.7092 122.142 74.7036 123.379 73.0802L123.615 73.2724C125.61 74.8953 128.124 75.8265 130.695 75.8942L136.913 76.0581C137.018 76.0609 137.101 76.1457 137.101 76.2512V86.3647C137.101 90.6761 133.593 94.1836 129.282 94.1836C124.971 94.1836 121.463 90.6761 121.463 86.3646ZM131.73 97.8535C131.73 99.2841 130.566 100.448 129.136 100.448C127.705 100.448 126.541 99.2841 126.541 97.8535V95.6927C127.411 95.9488 128.33 96.0886 129.282 96.0886C130.127 96.0886 130.948 95.9798 131.73 95.7761V97.8535H131.73Z" fill="black"/>
<path d="M120.913 65.7346C121.121 65.7346 121.331 65.6666 121.506 65.5265C123.706 63.7712 126.467 62.8044 129.282 62.8044C130.739 62.8044 132.172 63.057 133.542 63.5554C134.037 63.736 134.584 63.4802 134.763 62.9859C134.943 62.4914 134.688 61.9451 134.194 61.7652C132.614 61.1908 130.962 60.8994 129.282 60.8994C126.038 60.8994 122.854 62.0138 120.318 64.0375C119.907 64.3657 119.839 64.965 120.168 65.3761C120.356 65.6119 120.633 65.7346 120.913 65.7346Z" fill="black"/>
<path d="M115.529 103.085C115.089 102.797 114.499 102.919 114.21 103.358C113.115 105.024 112.536 106.957 112.536 108.948V114.048C112.536 114.574 112.962 115 113.488 115C114.014 115 114.441 114.574 114.441 114.048V108.948C114.441 107.33 114.911 105.759 115.802 104.405C116.091 103.965 115.969 103.374 115.529 103.085Z" fill="black"/>
<path d="M161.963 50H142.261C139.209 50 136.725 52.4831 136.725 55.5353V69.895C136.725 70.5775 137.069 71.2041 137.645 71.5709C137.971 71.7785 138.34 71.8835 138.712 71.8835C138.997 71.8835 139.284 71.8215 139.553 71.6962L141.088 70.9805H154.5C155.026 70.9805 155.452 70.5541 155.452 70.0279C155.452 69.5018 155.026 69.0754 154.5 69.0754H140.876C140.737 69.0754 140.6 69.1059 140.474 69.1645L138.748 69.9694C138.735 69.9751 138.707 69.9887 138.669 69.9642C138.63 69.9399 138.63 69.9084 138.63 69.8948V55.5353C138.631 53.5336 140.259 51.9051 142.261 51.9051H161.963C163.964 51.9051 165.593 53.5336 165.593 55.5353V65.4452C165.593 67.447 163.964 69.0755 161.963 69.0755H158.563C158.037 69.0755 157.611 69.5019 157.611 70.0281C157.611 70.5543 158.037 70.9806 158.563 70.9806H161.963C165.015 70.9806 167.498 68.4974 167.498 65.4452V55.5353C167.498 52.4831 165.015 50 161.963 50V50Z" fill="black"/>
<path d="M153.222 61.6499C153.995 61.4652 154.71 61.0592 155.264 60.4755C156.052 59.6459 156.453 58.5586 156.393 57.4141C156.282 55.2645 154.507 53.5469 152.354 53.5036C150.269 53.4604 148.468 54.989 148.179 57.0577C148.153 57.2467 148.139 57.4403 148.139 57.6324C148.139 58.1586 148.566 58.585 149.092 58.585C149.618 58.585 150.044 58.1586 150.044 57.6324C150.044 57.5279 150.052 57.4231 150.066 57.3209C150.219 56.2228 151.162 55.4078 152.27 55.4078C152.285 55.4078 152.3 55.4079 152.316 55.4082C153.475 55.4317 154.431 56.356 154.491 57.5128C154.523 58.1304 154.307 58.7167 153.883 59.1638C153.458 59.6109 152.885 59.8573 152.269 59.8573C151.743 59.8573 151.317 60.2837 151.317 60.8099V62.8837C151.317 63.4098 151.743 63.8362 152.269 63.8362C152.795 63.8362 153.222 63.4098 153.222 62.8837V61.6499H153.222Z" fill="black"/>
<path d="M152.269 65.3416C151.743 65.3416 151.317 65.7679 151.317 66.2941V66.9483C151.317 67.4745 151.743 67.9009 152.269 67.9009C152.795 67.9009 153.222 67.4745 153.222 66.9483V66.2941C153.222 65.7679 152.795 65.3416 152.269 65.3416Z" fill="black"/>
</g>
</g>
<defs>
<clipPath id="clip0">
<rect width="279" height="155" fill="white"/>
</clipPath>
<clipPath id="clip1">
<rect width="65" height="65" fill="white" transform="translate(107 50)"/>
</clipPath>
</defs>
</svg>
