<svg width="279" height="155" viewBox="0 0 279 155" fill="none" xmlns="http://www.w3.org/2000/svg">
<g clip-path="url(#clip0)">
<path d="M6.50997 65.9363C3.33226 51.2838 9.99521 34.8189 23.9362 29.1774C34.9044 24.7357 51.6899 23.2552 74.1646 28.6669C133.619 42.962 128.493 26.6247 151.557 13.8612C171.854 2.62935 196.66 -11.1552 239.713 14.8823C272.362 34.6402 253.039 65.4258 275.078 84.3158C289.25 96.4666 265.34 155.281 196.66 142.517C127.981 129.754 112.425 147.674 81.3401 154.26C50.0755 160.897 -14.4783 121.407 2.92223 103.206C13.1729 92.4844 8.50886 75.1261 6.50997 65.9363Z" fill="#36BE57"/>
<path d="M24.3206 69.5102C21.6042 56.9254 27.3189 42.7579 39.3122 37.9078C48.7429 34.0788 63.1707 32.8279 82.4933 37.4739C133.593 49.7523 129.185 35.7125 149.02 24.7359C166.472 15.0867 187.794 3.24214 224.799 25.6038C252.86 42.5793 236.254 69.0508 255.192 85.2859C267.365 95.7265 246.812 146.295 187.794 135.319C128.775 124.342 115.398 139.735 88.6694 145.402C61.7613 151.12 6.25373 117.195 21.2198 101.547C30.0354 92.3314 26.012 77.4236 24.3206 69.5102Z" fill="#E8FFDD"/>
<path d="M157.273 84.0703H145.561C145.21 84.0703 144.893 84.2124 144.663 84.4422H144.663L139.5 89.6051L134.337 84.4422H134.337C134.107 84.2124 133.79 84.0703 133.439 84.0703H121.727C115.426 84.0703 110.301 89.1959 110.301 95.4961V110.73C110.301 111.432 110.869 112 111.57 112H167.43C168.131 112 168.699 111.432 168.699 110.73V95.4961C168.699 89.1959 163.574 84.0703 157.273 84.0703ZM152.223 95.8702L155.555 99.2016L151.815 109.461H148.387V86.6094H151.288L155.489 90.8095L152.223 94.0749C151.985 94.313 151.851 94.6359 151.851 94.9725C151.851 95.3092 151.985 95.6322 152.223 95.8702ZM145.848 86.8483V95.9327L141.297 91.3989L145.848 86.8483ZM141.824 95.5078L139.5 97.8317L137.176 95.5078L139.5 93.1925L141.824 95.5078ZM133.152 86.8483L137.703 91.3989L133.152 95.9327V86.8483ZM112.84 95.4961C112.84 90.5958 116.826 86.6094 121.727 86.6094H124.121L120.818 89.9118C120.322 90.4076 120.322 91.2114 120.818 91.7073L124.083 94.9727L121.077 97.9787C120.728 98.3277 120.613 98.8475 120.782 99.3112L124.483 109.461H112.84V95.4961ZM130.613 109.461H127.185L123.445 99.2016L126.777 95.8702C127.015 95.6322 127.148 95.3092 127.148 94.9725C127.148 94.6359 127.015 94.313 126.777 94.0749L123.511 90.8095L127.711 86.6094H130.613V109.461ZM133.152 99.5167L135.377 97.2998L138.602 100.525C138.85 100.773 139.175 100.897 139.5 100.897C139.825 100.897 140.15 100.773 140.398 100.525L143.623 97.2998L145.848 99.5167V109.461H133.152V99.5167ZM166.16 109.461H154.517L158.218 99.311C158.387 98.8474 158.272 98.3275 157.923 97.9785L154.917 94.9725L158.182 91.7072C158.678 91.2114 158.678 90.4076 158.182 89.9117L154.879 86.6092H157.273C162.174 86.6092 166.16 90.5957 166.16 95.496V109.461Z" fill="black"/>
<path d="M139.5 83.5786C138.431 83.5786 137.384 83.1446 136.627 82.3879C135.871 81.632 135.438 80.5853 135.438 79.5161C135.438 78.4481 135.871 77.4012 136.626 76.6442C137.385 75.8866 138.432 75.4536 139.5 75.4536C140.568 75.4536 141.615 75.8866 142.372 76.6419C143.129 77.4012 143.562 78.4481 143.562 79.5161C143.562 80.5853 143.129 81.6319 142.373 82.3879C141.616 83.1446 140.569 83.5786 139.5 83.5786ZM139.5 77.9927C139.099 77.9927 138.706 78.1556 138.421 78.4395C138.139 78.722 137.977 79.1152 137.977 79.5161C137.977 79.9169 138.139 80.3093 138.422 80.5925C138.706 80.8767 139.099 81.0395 139.5 81.0395C139.901 81.0395 140.294 80.8767 140.577 80.5925C140.861 80.3092 141.023 79.9169 141.023 79.5161C141.023 79.1152 140.861 78.7219 140.576 78.4371C140.294 78.1554 139.901 77.9927 139.5 77.9927Z" fill="black"/>
<path d="M142.293 72.4071H136.707C136.006 72.4071 135.438 71.8386 135.438 71.1375V67.918C135.438 64.6573 137.466 61.7105 140.484 60.5851C141.626 60.1593 142.362 59.0518 142.315 57.8292C142.26 56.3697 141.073 55.1831 139.614 55.1277C138.839 55.0965 138.104 55.3763 137.547 55.9128C137.285 56.1647 137.078 56.4559 136.931 56.7782C136.257 58.2624 134.775 59.1986 133.144 59.1652C131.774 59.1364 130.52 58.4269 129.788 57.2666C129.059 56.1097 128.96 54.676 129.523 53.4318C130.094 52.1698 130.898 51.0353 131.911 50.0595C134.073 47.9785 136.918 46.8961 139.922 47.0084C143.231 47.1342 146.276 48.7436 148.275 51.4239C148.694 51.9859 148.578 52.7812 148.016 53.2006C147.454 53.6199 146.659 53.504 146.24 52.9421C144.702 50.8801 142.364 49.6422 139.826 49.5457C137.52 49.4574 135.332 50.2904 133.672 51.8886C132.892 52.6401 132.274 53.5114 131.836 54.4785C131.623 54.9504 131.659 55.4729 131.936 55.9125C132.215 56.3554 132.675 56.6156 133.198 56.6265C133.814 56.6369 134.366 56.2865 134.62 55.7278C134.899 55.112 135.292 54.5588 135.786 54.0834C136.845 53.0637 138.238 52.5323 139.711 52.5904C142.488 52.6958 144.747 54.9547 144.853 57.7327C144.941 60.0524 143.542 62.1548 141.371 62.9642C139.341 63.7212 137.977 65.7119 137.977 67.918V69.868H141.023V67.918C141.023 66.9775 141.591 66.1339 142.436 65.8191C144.184 65.1673 145.63 63.9904 146.619 62.4155C146.991 61.8216 147.775 61.6421 148.369 62.0151C148.963 62.3878 149.142 63.1712 148.769 63.7651C147.527 65.7442 145.73 67.2407 143.562 68.1055V71.1375C143.563 71.8386 142.994 72.4071 142.293 72.4071Z" fill="black"/>
<path d="M149.166 58.8384C148.832 58.8384 148.505 58.7025 148.269 58.4663C148.033 58.2303 147.897 57.9027 147.897 57.5688C147.897 57.2336 148.032 56.9074 148.269 56.6713C148.505 56.4352 148.831 56.2993 149.166 56.2993C149.5 56.2993 149.828 56.435 150.064 56.6713C150.3 56.9074 150.436 57.235 150.436 57.5688C150.436 57.9027 150.3 58.2303 150.064 58.4663C149.828 58.7025 149.5 58.8384 149.166 58.8384Z" fill="black"/>
</g>
<defs>
<clipPath id="clip0">
<rect width="279" height="155" fill="white"/>
</clipPath>
</defs>
</svg>
