<svg width="16" height="23" viewBox="0 0 16 23" fill="none" xmlns="http://www.w3.org/2000/svg">
<path d="M15.8759 11.9365L8.69429 22.7663C8.5252 23.0213 8.25401 23.0213 8.08492 22.7663C7.91583 22.5113 7.91583 22.1023 8.08492 21.8474L14.9603 11.4794L8.08492 1.11148C7.91583 0.856491 7.91583 0.447548 8.08492 0.19256C8.16787 0.0674705 8.27954 0.000114434 8.38801 0.000114431C8.49648 0.000114429 8.60815 0.0626602 8.6911 0.19256L15.8727 11.0224C16.0418 11.2725 16.0418 11.6863 15.8759 11.9365Z" fill="white"/>
<path d="M7.91787 11.9365L0.736221 22.7663C0.567129 23.0213 0.295943 23.0213 0.12685 22.7663C-0.0422426 22.5113 -0.0422426 22.1023 0.12685 21.8474L7.00222 11.4794L0.12685 1.11148C-0.0422423 0.856491 -0.0422423 0.447548 0.12685 0.19256C0.209801 0.0674705 0.321466 0.000114434 0.429941 0.000114431C0.538415 0.000114429 0.65008 0.0626602 0.733031 0.19256L7.91468 11.0224C8.08377 11.2725 8.08377 11.6863 7.91787 11.9365Z" fill="white"/>
</svg>
