<svg width="55" height="74" viewBox="0 0 55 74" fill="none" xmlns="http://www.w3.org/2000/svg">
    <path d="M26.3333 0.277543C21.5034 3.56 13.2564 7.78923 1.40013 9.3015C0.59914 9.40402 0 10.0849 0 10.8907V32.4485C0 46.2367 6.14039 59.2945 16.4267 67.3781C19.6659 69.9236 23.1054 71.9197 26.6489 73.3102C26.838 73.3839 27.035 73.4207 27.2337 73.4207C27.4323 73.4207 27.6309 73.3839 27.8184 73.3102C31.3588 71.9213 34.7998 69.9252 38.0422 67.3781C48.3269 59.2945 54.4673 46.2367 54.4673 32.4485V10.8907C54.4673 10.0849 53.8682 9.40402 53.0672 9.3015C41.2109 7.78923 32.9639 3.56 28.134 0.277543C27.5909 -0.0925143 26.8764 -0.0925143 26.3333 0.277543Z"
          fill="#4166B1"/>
    <path fill-rule="evenodd" clip-rule="evenodd"
          d="M27.2338 51.2169C35.4834 51.2169 42.1711 44.5292 42.1711 36.2795C42.1711 28.0299 35.4834 21.3422 27.2338 21.3422C18.9841 21.3422 12.2964 28.0299 12.2964 36.2795C12.2964 44.5292 18.9841 51.2169 27.2338 51.2169Z"
          stroke="white" stroke-width="2"/>
    <path fill-rule="evenodd" clip-rule="evenodd"
          d="M34.9396 32.7497L27.15 41.0154C26.967 41.1898 26.7256 41.2671 26.4868 41.2579C26.2472 41.2671 26.0058 41.1898 25.8228 41.0154L21.5189 36.9025C21.1721 36.5711 21.1721 36.0338 21.5189 35.7024C21.8666 35.3701 22.4295 35.3701 22.7772 35.7024L26.4555 39.2173L33.6812 31.5496C34.0289 31.2174 34.5919 31.2174 34.9396 31.5496C35.2873 31.881 35.2873 32.4183 34.9396 32.7497Z"
          fill="white"/>
</svg>
