<svg width="55" height="74" viewBox="0 0 55 74" fill="none" xmlns="http://www.w3.org/2000/svg">
    <path d="M27.1777 1.51711L27.1762 1.51816C22.1831 4.91148 13.7161 9.24253 1.59056 10.7893C1.53741 10.7961 1.5 10.8404 1.5 10.8905V32.4482C1.5 45.8048 7.4511 58.4162 17.3534 66.198C20.4869 68.6605 23.8 70.5803 27.1966 71.9131C27.2114 71.9185 27.2228 71.92 27.2334 71.92C27.2469 71.92 27.2592 71.9174 27.2693 71.9135L27.2703 71.9131C30.6637 70.5818 33.9784 68.662 37.1152 66.1978C47.0158 58.416 52.9668 45.8047 52.9668 32.4482V10.8905C52.9668 10.8405 52.9295 10.7963 52.8765 10.7893L27.1777 1.51711ZM27.1777 1.51711C27.2112 1.4943 27.2555 1.4943 27.289 1.51711L27.2906 1.51816M27.1777 1.51711L27.2906 1.51816M27.2906 1.51816C32.2837 4.91148 40.7506 9.24253 52.8762 10.7893L27.2906 1.51816Z"
          stroke="#4166B1" stroke-width="3"/>
    <path d="M20.1783 45.4574H16.0617C15.5654 45.4574 15.2659 45.1804 15.1316 45.0152C14.8997 44.73 14.8099 44.3589 14.8853 43.9967C16.0928 38.1969 21.2112 33.9612 27.1201 33.8238C27.2185 33.8275 27.3172 33.8299 27.4164 33.8299C27.5165 33.8299 27.6161 33.8274 27.7154 33.8237C29.1603 33.8567 30.5716 34.1283 31.915 34.6328C32.5161 34.8587 33.1865 34.5542 33.4123 33.953C33.638 33.3519 33.3337 32.6815 32.7325 32.4557C32.54 32.3834 32.3461 32.3157 32.1514 32.2515C34.0758 30.808 35.3231 28.5085 35.3231 25.9232C35.3231 21.5635 31.7762 18.0165 27.4164 18.0165C23.0566 18.0165 19.5097 21.5635 19.5097 25.9232C19.5097 28.5108 20.7592 30.8121 22.6865 32.2554C20.9208 32.8367 19.2639 33.7406 17.8138 34.9334C15.1551 37.1203 13.3065 40.1708 12.6087 43.5228C12.3899 44.5731 12.6519 45.6519 13.3274 46.4825C13.9995 47.309 14.9961 47.7829 16.0617 47.7829H20.1783C20.8205 47.7829 21.341 47.2624 21.341 46.6202C21.341 45.978 20.8205 45.4574 20.1783 45.4574ZM21.8352 25.9232C21.8352 22.8457 24.3389 20.342 27.4164 20.342C30.4939 20.342 32.9976 22.8457 32.9976 25.9232C32.9976 28.9096 30.6399 31.3555 27.6882 31.4977C27.5976 31.4961 27.5071 31.4947 27.4164 31.4947C27.3255 31.4947 27.2346 31.496 27.1438 31.4977C24.1925 31.355 21.8352 28.9093 21.8352 25.9232Z"
          fill="#4166B1"/>
    <path d="M41.4095 38.0511C40.9118 36.9378 39.7907 36.2164 38.5505 36.2136H34.9244C34.9217 36.2136 34.9193 36.2136 34.9166 36.2136C33.6085 36.2136 32.4673 36.9845 32.0081 38.179C31.947 38.338 31.8723 38.5382 31.7943 38.7716H24.1814C23.867 38.7716 23.5661 38.8989 23.3471 39.1244L21.3497 41.1818C20.9098 41.6349 20.912 42.3563 21.3547 42.8067L23.3895 44.8771C23.6081 45.0996 23.9069 45.2248 24.2188 45.2248H27.9977C28.6399 45.2248 29.1605 44.7043 29.1605 44.0621C29.1605 43.4199 28.6399 42.8993 27.9977 42.8993H24.7063L23.8094 41.9867L24.6731 41.0971H32.6665C33.2022 41.0971 33.6685 40.7311 33.7959 40.2109C33.89 39.8268 34.008 39.4575 34.1787 39.0135C34.2912 38.7207 34.5739 38.5391 34.9194 38.5391C34.9202 38.5391 34.9209 38.5391 34.9217 38.5391H38.5478C38.8766 38.5398 39.1596 38.7166 39.2864 39.0002C39.5986 39.6986 39.9713 40.7797 39.9741 41.9644C39.9769 43.1579 39.6046 44.2638 39.2916 44.9814C39.1654 45.2708 38.88 45.4574 38.5614 45.4574C38.5608 45.4574 38.5601 45.4574 38.5595 45.4574H34.8895C34.5679 45.4567 34.2665 45.2497 34.1398 44.9425C34.0038 44.6128 33.886 44.2363 33.7795 43.7915C33.63 43.167 33.0024 42.7819 32.3781 42.9313C31.7535 43.0808 31.3684 43.7083 31.5179 44.3328C31.6528 44.8966 31.8073 45.3861 31.99 45.8291C32.4783 47.013 33.6143 47.7799 34.8869 47.7829H38.5568C38.5593 47.7829 38.5616 47.7829 38.5641 47.7829C39.8054 47.7828 40.9272 47.0486 41.4233 45.9108C41.8252 44.9893 42.3034 43.5556 42.2996 41.9589C42.2959 40.3666 41.8135 38.9549 41.4095 38.0511Z"
          fill="#4166B1"/>
    <path d="M37.5905 43.132C38.2327 43.132 38.7532 42.6114 38.7532 41.9692C38.7532 41.327 38.2327 40.8065 37.5905 40.8065C36.9483 40.8065 36.4277 41.327 36.4277 41.9692C36.4277 42.6114 36.9483 43.132 37.5905 43.132Z"
          fill="#4166B1"/>
</svg>
