<svg width="25" height="18" viewBox="0 0 25 18" fill="none" xmlns="http://www.w3.org/2000/svg">
<path d="M10.3317 7.27168C11.7502 8.00537 13.4133 8.00537 14.7828 7.27168L22.4622 3.35863L24.223 2.4782C23.5872 1.10863 22.1687 0.130371 20.5056 0.130371H4.65782C3.04369 0.130371 1.62521 1.10863 0.94043 2.4782L2.7013 3.35863L10.3317 7.27168Z" fill="white"/>
<path d="M15.712 9.03256C14.7337 9.52169 13.6576 9.76625 12.5815 9.76625C11.5054 9.76625 10.4293 9.52169 9.45109 9.03256L2.45652 5.4619L0.5 4.48364V13.7771C0.5 16.0271 2.3587 17.8858 4.6087 17.8858H20.5054C22.7554 17.8858 24.6141 16.0271 24.6141 13.7771V4.48364L22.6576 5.4619L15.712 9.03256Z" fill="white"/>
</svg>
