<svg width="15" height="15" viewBox="0 0 15 15" fill="none" xmlns="http://www.w3.org/2000/svg">
<path d="M2.46804 2.2238C3.44605 1.74392 5.01369 1.17187 6.92802 1.17187C8.23661 1.17187 9.49839 1.48529 10.6895 2.10427C9.00921 2.42185 7.73423 3.90152 7.73423 5.67383C7.73423 6.64396 8.11253 7.55345 8.79943 8.23469C9.48372 8.91338 10.3948 9.28712 11.3647 9.28712C12.3347 9.28712 13.2457 8.91338 13.93 8.23469C14.6169 7.55345 14.9952 6.64399 14.9952 5.67383C14.9952 4.69238 14.6041 3.80073 13.9698 3.14636L13.97 3.14619C13.9424 3.11349 13.2801 2.33622 12.0864 1.56322C10.5072 0.540556 8.72342 0 6.92799 0C4.77013 0 3.00957 0.647782 1.9126 1.19124C0.717229 1.78344 0.0287219 2.38048 0 2.40559L0.769871 3.28869C0.77602 3.28335 1.39722 2.74921 2.46804 2.2238ZM11.3647 8.11522C10.0086 8.11522 8.90536 7.02002 8.90536 5.67383C8.90536 4.31686 10.0086 3.21289 11.3647 3.21289C12.7208 3.21289 13.8241 4.31686 13.8241 5.67383C13.8241 7.02002 12.7208 8.11522 11.3647 8.11522ZM14.2301 11.7113C14.224 11.7166 13.6028 12.2508 12.532 12.7762C11.554 13.256 9.98631 13.8281 8.07198 13.8281C6.77135 13.8281 5.51271 13.5141 4.31948 12.894C5.99533 12.5728 7.26575 11.0953 7.26575 9.32617C7.26575 8.35604 6.88744 7.44655 6.20054 6.76531C5.51625 6.08662 4.6052 5.71288 3.63524 5.71288C2.66529 5.71288 1.75423 6.08662 1.06994 6.76531C0.383047 7.44655 0.00474307 8.35601 0.00474307 9.32617C0.00474307 10.2884 0.380705 11.1643 0.993147 11.815L0.992474 11.8156C1.02046 11.8486 1.69146 12.6345 2.8936 13.4167C4.48545 14.4525 6.27611 15 8.07198 15C10.2298 15 11.9904 14.3522 13.0874 13.8088C14.2828 13.2166 14.9713 12.6195 15 12.5944L14.2301 11.7113ZM3.63527 6.88475C4.99138 6.88475 6.09465 7.97996 6.09465 9.32614C6.09465 10.6831 4.99138 11.7871 3.63527 11.7871C2.27916 11.7871 1.1759 10.6831 1.1759 9.32614C1.1759 7.97996 2.27916 6.88475 3.63527 6.88475Z" fill="#6f0cdb"/>
</svg>
