<svg width="80" height="100" viewBox="0 0 80 100" fill="none" xmlns="http://www.w3.org/2000/svg">
    <g clip-path="url(#clip0)">
        <path d="M77.8977 10.3937C77.0146 12.6237 76.3012 14.9442 75.1826 17.0488C74.4139 18.3997 73.3621 19.566 72.1004 20.4669C70.1991 21.8606 68.606 21.6237 66.9056 19.993C62.7947 16.0627 62.1402 11.2578 63.6017 6.00694C64.0731 4.52045 64.7049 3.09033 65.4856 1.74213C66.3514 5.04527 66.3722 9.09405 71.1618 8.77698C75.3939 8.50172 75.7021 4.85712 76.3982 1.17767C76.7861 2.34492 77.0562 3.09057 77.2813 3.85363C77.5064 4.6167 77.6934 5.40067 77.8977 6.17419V10.3937Z"
              fill="#EDE6DE"/>
        <path d="M3.09277 5.85015L4.92134 -0.104553C5.42351 1.91287 5.67632 3.65851 6.30663 5.25782C6.99927 6.99998 8.52654 7.81879 10.4174 7.85712C13.3058 7.91635 14.7084 6.13238 15.7889 0.888478C16.0408 1.24168 16.272 1.60932 16.4815 1.98952C19.3179 8.02437 18.1265 14.7805 13.711 18.8641C11.1343 21.2474 8.86247 20.4599 6.97849 18.4773C5.04256 16.4146 4.12134 13.8049 3.44256 11.108C3.35251 10.7596 3.21052 10.4111 3.09624 10.0627L3.09277 5.85015Z"
              fill="#EDE6DE"/>
        <path d="M33.2225 32.4982C33.7974 31.892 34.3134 31.324 34.8502 30.7805C35.7818 29.8327 36.2701 28.8676 35.6294 27.4669C34.7878 25.6411 35.0857 24.331 36.516 22.7526C36.6718 23.8362 36.6718 24.8432 36.9904 25.7526C37.2329 26.4495 37.7939 27.3798 38.3757 27.4947C38.7801 27.5387 39.1891 27.4891 39.5715 27.3496C39.9538 27.2101 40.2994 26.9844 40.5818 26.6899C41.5446 25.4982 42.2095 24.0662 43.0372 22.6585C43.8684 24.5819 44.4467 26.4913 42.9091 28.4285C42.1956 29.3275 42.0121 30.2125 42.9818 31.1393C44.4502 32.5331 44.419 32.5749 44.4017 34.2752C47.3662 33.6097 50.2891 31.7596 53.3402 33.8083L53.3922 34.4878L48.1627 34.7177C48.4814 36.2822 49.2536 37.0069 50.7671 37.4285C52.5541 37.9233 54.2026 38.9407 55.9099 39.7317L55.8614 40.3519C55.1446 40.5017 54.3896 40.8711 53.7143 40.7561C52.2409 40.5087 50.7971 40.1082 49.406 39.5609C49.1221 39.4017 48.8765 39.1814 48.6868 38.9158C48.497 38.6503 48.3678 38.3459 48.3082 38.0244C48.0277 36.0871 47.6606 35.7003 45.78 35.6899C45.5307 36.9512 45.6519 38.4773 44.9558 39.2683C44.1697 40.1603 42.6701 40.7526 41.4372 40.8327C39.3176 41.0182 37.1821 40.8653 35.1099 40.3798C32.748 39.763 32.5229 38.3937 34.071 36.547C35.5013 34.7944 35.3246 33.6724 33.2225 32.4982Z"
              fill="#EDE6DE"/>
        <path d="M47.8131 53.2509C47.9758 55.8258 45.9845 58.77 43.1862 59.3484C39.4494 60.1219 35.7161 59.8989 32.1802 58.3031C29.8945 57.2578 29.4304 55.993 30.1473 53.6446C36.1352 56.1428 42.0226 56.7944 47.8131 53.2509Z"
              fill="#EDE6DE"/>
        <path d="M30.1541 46.8745C35.6952 51.2334 41.3541 50.3832 47.058 47.7212C47.7506 50.2439 45.7939 53.2229 42.9021 53.4285C39.7572 53.6132 36.6016 53.4484 33.4926 52.9372C31.1688 52.5818 30.2337 50.5226 30.1541 46.8745Z"
              fill="#EDE6DE"/>
        <path d="M33.354 68.9896C34.9436 69.0976 36.5332 69.2927 38.1229 69.2753C38.8702 69.2726 39.5939 69.0118 40.1731 68.5366C41.0285 67.7108 41.9047 67.2056 43.0337 67.6063C44.225 68.0314 44.038 69.1255 44.1627 70.1708C44.3428 71.6481 44.8969 73.0836 45.2882 74.5296C44.5933 75.1053 43.9405 75.7306 43.335 76.4007C42.5142 77.4042 41.4579 77.6551 40.7514 76.7108C38.909 74.2718 36.419 72.6202 34.0605 70.7875C33.638 70.46 33.4094 69.8781 33.0908 69.4112L33.354 68.9896Z"
              fill="#EDE6DE"/>
        <path d="M31.9999 40.9094C32.9073 41.7038 33.6034 42.5296 34.4865 43.0278C35.567 43.6376 36.7826 44.2822 37.974 44.3554C39.1318 44.43 40.2927 44.2661 41.3854 43.8736C42.4781 43.4812 43.4797 42.8685 44.3289 42.0731C44.7826 41.6689 45.9255 41.2578 46.0882 41.4425C46.8038 42.2665 47.3711 43.2098 47.7644 44.2299C47.8683 44.4982 47.245 45.2752 46.7982 45.5017C42.6424 47.4703 38.3549 48.3763 33.8631 46.7107C30.9679 45.6445 30.4346 44.1986 31.9999 40.9094Z"
              fill="#EDE6DE"/>
        <path d="M46.1161 59.9303C46.6009 62.7178 44.7827 65.7491 41.8529 66.3868C38.923 67.0244 35.9654 66.9024 33.2226 65.5122C31.1723 64.4669 29.9429 62.8327 29.7905 60.5575C35.4425 64.1498 40.8139 63.1045 46.1161 59.9303Z"
              fill="#EDE6DE"/>
        <path d="M50.2337 82.7282C49.0978 82.1219 47.9723 81.4982 46.826 80.9129C46.0848 80.5331 45.2987 80.2369 44.5679 79.8432C44.1247 79.6063 43.3974 79.223 43.4182 78.9547C43.4528 78.4773 43.8718 77.7735 44.2909 77.6272C45.9532 77.0488 47.6571 76.4495 49.3853 76.2752C50.1021 76.2056 51.1342 77.0313 51.6398 77.7282C52.2805 78.6167 52.6199 79.77 52.897 80.8641C52.9801 81.2125 52.5299 81.8641 52.1558 82.0732C51.671 82.3449 51.0199 82.3101 50.4242 82.4216L50.2337 82.7282Z"
              fill="#EDE6DE"/>
        <path d="M25.6864 33.7038C25.0249 33.77 24.3011 34.0522 23.7158 33.8571C22.2059 33.338 20.779 32.6132 19.3003 31.9616C19.198 31.9262 19.1095 31.8591 19.0474 31.77C17.8665 29.1115 14.8119 28.669 13.0907 26.655C12.2907 25.7212 11.3972 24.8432 10.7739 23.8049C10.5072 23.3623 10.8189 22.5714 10.8674 21.9373C11.7089 22.0941 12.9072 21.9373 13.3297 22.4564C15.0821 24.5679 16.5782 26.892 18.2267 29.0766C18.3745 29.2187 18.5532 29.3241 18.7485 29.3846C18.9439 29.4451 19.1506 29.4589 19.3522 29.4251C20.6163 29.101 21.3089 29.7735 22.102 30.6062C23.1929 31.7317 24.45 32.6968 25.631 33.7421L25.6864 33.7038Z"
              fill="#EDE6DE"/>
        <path d="M53.2676 33.878C53.9949 33.3728 54.3481 33.1185 54.7117 32.8746C55.4044 32.4042 56.2425 32.0523 56.7897 31.4425C57.7767 30.3449 58.7187 29.4181 60.3637 29.9059C60.5193 29.934 60.6794 29.9251 60.8309 29.8797C60.9825 29.8343 61.1214 29.7538 61.2364 29.6446C63.0096 27.554 64.665 25.3205 66.549 23.3171C67.02 22.8188 68.1905 22.9686 69.039 22.8467C69.039 23.5157 69.3403 24.3728 69.039 24.8223C67.3074 27.3275 64.8174 28.8955 62.1126 30.1916C61.8148 30.3345 61.42 30.439 61.2572 30.6829C59.9585 32.7526 56.3394 34.3624 53.2676 33.878Z"
              fill="#EDE6DE"/>
        <path d="M25.6277 33.7666C28.5541 32.439 33.503 33.3693 34.5178 35.6376C33.9767 35.7864 33.4274 35.9027 32.8727 35.9861C31.4632 36.1185 30.5108 36.6829 30.5316 38.2753C30.5422 38.5442 30.485 38.8115 30.3654 39.0523C29.4372 40.6655 24.2286 41.1707 22.7463 39.5889C24.5334 38.8711 26.1853 37.9582 27.9411 37.5645C29.4199 37.216 30.4208 36.6969 30.9541 34.9338C29.7074 34.8572 28.5299 34.77 27.3351 34.7143C26.5905 34.6795 25.7455 34.8641 25.6901 33.7108L25.6277 33.7666Z"
              fill="#EDE6DE"/>
        <path d="M55.1897 82.0697C55.3005 84.1603 55.5117 85.7526 55.4009 87.3345C55.3628 87.8885 54.6182 88.6028 54.0399 88.8223C53.7247 88.9408 53.0009 88.2369 52.5992 87.777C51.9065 86.9965 51.2832 86.1254 50.6251 85.2997C50.2079 84.82 49.8465 84.294 49.5481 83.7317C51.8269 85.0174 53.2295 83.2265 55.1897 82.0697Z"
              fill="#EDE6DE"/>
        <path d="M24.5404 81.8606L25.5413 84.2997L27.9343 83.2056C28.7863 84.993 28.4642 85.784 26.414 86.5645C25.9746 86.7433 25.6168 87.0798 25.4097 87.5087C25.1638 88.108 25.4096 89.0558 24.2391 88.7108C23.2694 88.4216 22.5837 87.1429 22.8538 86.3031C23.0027 85.8118 23.162 85.2195 23.0235 84.7631C22.414 82.8432 22.7049 82.3031 24.5404 81.8606Z"
              fill="#EDE6DE"/>
        <path d="M65.3091 44.5053C66.1853 44.4147 66.8537 44.4634 67.4355 44.2648C68.1844 43.9667 68.9053 43.6017 69.5896 43.1742C70.2822 42.7945 70.9299 42.3694 71.6086 41.9756C72.4364 41.4948 73.2744 41.0314 74.1333 40.5436C74.826 41.6133 74.5939 42.23 73.2502 42.9826C72.3104 43.5184 71.4635 44.2045 70.7428 45.014C69.5238 46.4147 66.9541 46.3415 65.3091 44.5053Z"
              fill="#EDE6DE"/>
        <path d="M40.6962 94.3693C41.8068 94.4189 42.9136 94.5353 44.0105 94.7177C44.4745 94.8118 44.8416 95.4146 45.2537 95.763C44.8174 96.0592 44.3949 96.5853 43.9447 96.6132C42.2927 96.7108 40.6304 96.6655 38.975 96.6132C38.5492 96.6078 38.136 96.4676 37.794 96.2125C37.4465 95.8363 37.1495 95.4157 36.9109 94.9616C37.3611 94.7665 37.7975 94.4599 38.2615 94.4007C39.0717 94.3401 39.8848 94.3296 40.6962 94.3693Z"
              fill="#EDE6DE"/>
        <path d="M13.2261 43.7039C10.8988 45.7213 8.57847 45.3554 7.30747 43.3276C6.89535 42.6725 6.08843 42.2126 5.37847 41.8084C3.99319 41.0209 3.80964 40.4704 4.49189 39.2997C7.45639 40.5227 9.27111 43.7039 13.2261 43.7039Z"
              fill="#EDE6DE"/>
        <path d="M53.5723 91.446C53.331 91.8712 53.0248 92.2557 52.665 92.5854C51.6635 93.3019 50.6229 93.9615 49.5481 94.561C48.7169 95.0348 47.9931 94.8502 47.5706 93.9268C47.1481 93.0035 47.2243 92.2683 48.284 91.8362C49.5065 91.3205 50.7083 90.7596 51.9273 90.2369C52.949 89.7944 53.6451 90.1916 53.5723 91.446Z"
              fill="#EDE6DE"/>
        <path d="M11.4978 38.9268C11.1792 38.6411 10.258 38.1986 10.0537 37.5331C9.70733 36.3659 9.06318 35.7909 8.01036 35.3206C7.4424 35.0697 7.09954 34.3101 6.65625 33.784C7.25538 33.3937 7.80603 32.8397 8.45712 32.6516C9.44759 32.3693 10.0259 32.9303 9.8424 33.9721C9.66231 35.0836 10.1368 35.5993 11.0995 36.0383C11.8227 36.3632 12.4415 36.8844 12.8866 37.5436C13.3956 38.3275 13.1047 39.0244 11.4978 38.9268Z"
              fill="#EDE6DE"/>
        <path d="M73.0425 34.9861C72.1143 35.6829 71.6572 36.1812 71.065 36.3798C70.026 36.7631 69.0632 37.1324 68.8728 38.4216C68.8548 38.5283 68.8146 38.63 68.755 38.7201C68.6953 38.8101 68.6174 38.8865 68.5264 38.9443C67.8288 39.2765 67.1033 39.5459 66.3585 39.7491C66.2026 39.7875 65.6658 39.1324 65.7282 39.0523C66.0745 38.4321 66.445 37.6585 67.0199 37.3484C68.2355 36.6794 69.6104 36.3031 69.316 34.4251C69.2883 34.2544 70.2269 33.669 70.6251 33.7491C71.3212 33.892 71.9481 34.3972 73.0425 34.9861Z"
              fill="#EDE6DE"/>
        <path d="M63.2969 40.0244C61.4372 41.3449 58.0432 41.1219 56.8069 39.5993C58.4623 37.9791 62.393 38.2543 63.2969 40.0244Z"
              fill="#EDE6DE"/>
        <path d="M22.0156 39.216C20.6304 40.7874 17.3507 40.8432 15.4355 39.4111C16.3741 37.6968 19.7091 37.5575 22.0156 39.216Z"
              fill="#EDE6DE"/>
        <path d="M30.5144 91.7631C31.7093 92.5052 32.9387 93.1951 34.0608 94.0209C34.3274 94.2195 34.2582 94.878 34.3413 95.324C33.9119 95.3763 33.4166 95.5888 33.0634 95.4495C31.8882 94.98 30.7462 94.4305 29.6452 93.8049C29.2989 93.6167 28.9075 92.8711 29.0114 92.7317C29.2781 92.3624 29.808 92.1812 30.5144 91.7631Z"
              fill="#EDE6DE"/>
        <path d="M65.3715 53.1324C62.3482 53.6446 59.5222 53.8781 56.7585 52.4355C58.078 51.3728 64.7274 51.7875 65.3715 53.1324Z"
              fill="#EDE6DE"/>
        <path d="M12.5542 52.209C13.0287 51.1463 19.1343 50.9129 20.9767 51.8885C19.439 53.1812 15.1758 53.3449 12.5542 52.209Z"
              fill="#EDE6DE"/>
        <path d="M27.7886 47.0383C28.3669 50.1916 28.1141 50.4983 25.115 50.7596C24.462 50.8822 23.8219 51.0665 23.2033 51.3101C23.0128 49.9164 23.2241 48.9164 25.205 48.8711C26.0258 48.8397 26.8327 47.7561 27.7886 47.0383Z"
              fill="#EDE6DE"/>
        <path d="M73.2536 48.3972C72.8553 49.0279 72.6856 49.5262 72.3393 49.791C71.3517 50.5939 70.3103 51.3274 69.2224 51.9861C68.9419 52.1533 68.0484 51.8885 68.0449 51.8049C68.0449 51.223 67.9687 50.3624 68.3081 50.108C69.5119 49.2449 70.7863 48.4861 72.1176 47.8397C72.315 47.7352 72.786 48.1638 73.2536 48.3972Z"
              fill="#EDE6DE"/>
        <path d="M26.2961 45.0035C25.4406 45.4808 24.5922 45.9756 23.7264 46.4286C23.4497 46.537 23.1615 46.613 22.8675 46.655C22.8363 46.3066 22.6493 45.8362 22.8051 45.662C23.2253 45.1891 23.7246 44.794 24.2805 44.4948C25.1276 44.0313 26.0172 43.6509 26.9367 43.3589C27.4766 43.2007 28.0537 43.2301 28.5748 43.4425C28.8831 43.5854 29.1913 44.5261 29.1013 44.5958C28.6065 44.9483 28.0595 45.22 27.4805 45.4007C27.1627 45.4515 26.8389 45.4515 26.5212 45.4007L26.2961 45.0035Z"
              fill="#EDE6DE"/>
        <path d="M55.0649 47.338C54.1091 45.1464 52.3636 45.3659 50.6563 45.3171C50.1749 45.2997 49.6173 44.8363 49.2918 44.4216C49.1775 44.2718 49.5688 43.4599 49.9013 43.2962C50.384 43.0915 50.9258 43.0778 51.4182 43.2579C52.5069 43.7103 53.5583 44.2485 54.5628 44.8676C55.3247 45.3345 56.0346 45.9547 55.0649 47.338Z"
              fill="#EDE6DE"/>
        <path d="M55.1619 51.5679C53.9878 51.202 53.4095 50.9372 52.8034 50.8536C49.9636 50.4494 49.6865 50.0836 50.3272 47.0662C50.6112 47.1881 51.0199 47.2299 51.1134 47.4146C51.7298 48.5644 52.6441 48.9825 53.922 49.1811C54.3723 49.2752 54.6528 50.54 55.1619 51.5679Z"
              fill="#EDE6DE"/>
        <path d="M5.63465 46.5679C6.98184 47.3937 8.28054 48.0453 9.38876 48.9373C9.80089 49.2857 9.75933 50.1638 9.92556 50.8049C9.34028 50.7631 8.64418 50.9024 8.19396 50.6376C7.32409 50.1117 6.52653 49.4733 5.82166 48.7387C5.22253 48.1394 4.62686 47.3867 5.63465 46.5679Z"
              fill="#EDE6DE"/>
        <path d="M57.2434 57.7875L64.2425 58.1359C63.6399 60.0418 58.878 60.0802 57.2087 58.3136L57.2434 57.7875Z"
              fill="#EDE6DE"/>
        <path d="M13.1394 57.5889H20.4121C18.8121 59.5819 13.8978 59.4181 13.1394 57.5889Z" fill="#EDE6DE"/>
        <path d="M10.0745 57.1812C8.50909 56.5505 7.06493 55.9861 5.63117 55.3868C4.4987 54.9129 4.24588 53.993 4.87965 52.8711C10.3896 56.2892 10.3896 56.2892 10.0745 57.1812Z"
              fill="#EDE6DE"/>
        <path d="M67.051 58.2091C67.3142 57.6899 67.4216 57.0418 67.7887 56.8154C69.3956 55.8223 71.0787 54.9512 72.7376 54.0279C73.4857 55.1255 73.2051 56.0627 71.9134 56.5366C70.4138 57.0941 68.8935 57.5819 67.051 58.2091Z"
              fill="#EDE6DE"/>
        <path d="M50.3828 53.446C51.7681 54.3972 53.1153 55.1882 54.2859 56.1812C54.6668 56.5087 54.6079 57.3624 54.6668 57.6098C53.6153 57.1713 52.5386 56.7966 51.4426 56.4878C49.9672 56.1568 49.6521 55.4669 50.3828 53.446Z"
              fill="#EDE6DE"/>
        <path d="M22.781 57.4913C22.8087 56.4181 23.2624 55.5993 24.6858 55.1951C25.6174 54.9303 26.3793 54.0662 27.2624 53.4529C27.9966 55.8223 27.5637 56.3763 25.4615 56.5366C24.5576 56.5853 23.6849 57.1428 22.781 57.4913Z"
              fill="#EDE6DE"/>
        <path d="M20.2355 45.7422H12.561C14.1403 44.3519 18.1887 44.4739 20.2355 45.7422Z" fill="#EDE6DE"/>
        <path d="M65.2952 46.6899L57.9255 46.3415C59.6156 45.0139 63.903 44.9721 65.2952 46.0697V46.6899Z"
              fill="#EDE6DE"/>
        <path d="M23.896 90.2613C25.122 89.8745 26.1956 89.0069 26.9194 90.5784C27.1029 90.9756 26.9886 91.9721 26.8293 92.007C25.4683 92.3763 24.6371 91.6167 23.896 90.2613Z"
              fill="#EDE6DE"/>
    </g>
    <defs>
        <clipPath id="clip0">
            <rect width="80" height="100" fill="white"/>
        </clipPath>
    </defs>
</svg>
