<svg width="14" height="14" viewBox="0 0 14 14" fill="none" xmlns="http://www.w3.org/2000/svg">
    <path fill-rule="evenodd" clip-rule="evenodd"
          d="M13.2222 9.72222C12.25 9.72222 11.3167 9.56667 10.4456 9.27889C10.1733 9.19333 9.87 9.25556 9.65222 9.46556L7.94111 11.1767C5.74 10.0567 3.93556 8.26 2.81556 6.05111L4.52667 4.33222C4.74444 4.13 4.80667 3.82667 4.72111 3.55444C4.43333 2.68333 4.27778 1.75 4.27778 0.777778C4.27778 0.35 3.92778 0 3.5 0H0.777778C0.35 0 0 0.35 0 0.777778C0 8.08111 5.91889 14 13.2222 14C13.65 14 14 13.65 14 13.2222V10.5C14 10.0722 13.65 9.72222 13.2222 9.72222ZM12.4444 7H14C14 3.13444 10.8656 0 7 0V1.55556C10.01 1.55556 12.4444 3.99 12.4444 7ZM9.33333 7H10.8889C10.8889 4.85333 9.14667 3.11111 7 3.11111V4.66667C8.29111 4.66667 9.33333 5.70889 9.33333 7Z"
          fill="#fff"/>
</svg>
