<svg width="42" height="42" viewBox="0 0 42 42" fill="none" xmlns="http://www.w3.org/2000/svg">
<path d="M9.89758 42C9.30286 42 8.71262 41.834 8.19447 41.5071C7.2979 40.9409 6.74226 39.9703 6.7083 38.9099L6.6048 35.5144C2.34686 31.6963 0 26.3355 0 20.4206C0 14.7753 2.16389 9.58368 6.09242 5.80205C9.97993 2.06049 15.2742 0 21 0C26.7258 0 32.0201 2.06049 35.9076 5.80205C39.8361 9.58368 42 14.7753 42 20.4206C42 26.0657 39.8361 31.2573 35.9076 35.0389C32.0201 38.7804 26.7258 40.8413 21 40.8413C18.9358 40.8413 16.9157 40.5743 14.9957 40.0481L11.1841 41.7299C10.7711 41.9109 10.3334 42 9.89758 42ZM21 3.2814C10.8986 3.2814 3.28125 10.6495 3.28125 20.4206C3.28125 25.3975 5.24648 29.8966 8.81483 33.0889C9.47301 33.6818 9.8508 34.4848 9.88252 35.3539L9.88284 35.3641L9.9841 38.6728L13.7002 37.033C14.3692 36.7385 15.1239 36.6818 15.8266 36.8735C17.4781 37.3291 19.2171 37.5595 21 37.5595C31.1014 37.5595 38.7188 30.1914 38.7188 20.4206C38.7188 10.6495 31.1014 3.2814 21 3.2814Z" fill="white"/>
<path d="M18.6094 20.8554C19.1412 21.4494 19.6199 21.884 19.6154 21.8801C19.611 21.8766 20.0307 22.3631 20.6141 22.9116C21.0832 23.3522 21.6045 23.7872 22.1823 24.2003C22.8376 24.6692 23.8623 24.7299 24.4185 24.4066C24.9752 24.0836 26.0454 23.4285 26.8462 23.5956C27.519 23.7359 28.4122 24.2059 29.4869 25.4137C32.0207 28.2625 29.7507 29.1519 28.1777 30.3006C26.6031 31.4487 21.4089 28.6049 16.6518 23.9716C11.8944 19.3386 10.1027 14.5457 11.4198 13.1347C12.7372 11.7237 13.8353 9.63289 16.6344 12.246C17.8212 13.3542 18.2483 14.2369 18.3463 14.886C18.4631 15.6587 17.6995 16.6277 17.3205 17.1327C16.9417 17.638 16.9309 18.6153 17.3744 19.2719C17.7648 19.8511 18.1819 20.378 18.6094 20.8554Z" fill="white"/>
</svg>
