<svg width="74" height="74" viewBox="0 0 74 74" fill="none" xmlns="http://www.w3.org/2000/svg">
    <g clip-path="url(#clip0)">
        <path d="M36.7099 5.73737C35.9158 5.73737 35.2773 6.37692 35.2773 7.16992C35.2773 7.90799 35.8326 8.52217 36.5665 8.59501C37.4161 8.67933 38.1425 8.01755 38.1425 7.16992C38.1425 6.37578 37.5029 5.73737 36.7099 5.73737Z"
              fill="#4166B1"/>
        <path d="M65.3895 8.60391C61.4361 8.60391 58.2196 5.38748 58.2196 1.43398C58.2196 0.642138 57.5775 0 56.7856 0H16.6341C15.8422 0 15.2001 0.642138 15.2001 1.43398C15.2001 5.38748 11.9837 8.60391 8.03018 8.60391C7.23833 8.60391 6.59619 9.24604 6.59619 10.0379V33.4391C6.59619 51.6761 18.4832 68.0175 36.298 73.3596C36.4324 73.3998 36.5711 73.42 36.7099 73.42C36.8487 73.42 36.9876 73.3998 37.1218 73.3595C54.5508 68.1313 66.8235 52.075 66.8235 33.4391V10.0379C66.8235 9.24604 66.1814 8.60391 65.3895 8.60391ZM63.9556 33.4391C63.9556 50.5677 53.0256 65.4014 36.7099 70.4865C20.5242 65.442 9.46416 50.474 9.46416 33.4391V11.3698C13.8537 10.7391 17.3353 7.25754 17.966 2.86797H55.4538C56.0844 7.25754 59.566 10.7391 63.9556 11.3698V33.4391Z"
              fill="#4166B1"/>
        <path d="M60.2288 13.2629C57.2384 11.9533 54.8702 9.58503 53.5605 6.5946C53.3319 6.07292 52.8166 5.73593 52.247 5.73593H42.4428C41.651 5.73593 41.0089 6.37807 41.0089 7.16992C41.0089 7.96176 41.651 8.6039 42.4428 8.6039H51.3403C52.8553 11.5695 55.2539 13.968 58.2195 15.4832V33.4391C58.2195 47.4725 49.795 59.5811 36.7098 64.4281C23.6245 59.5809 15.2 47.4725 15.2 33.4391V15.4832C18.1656 13.968 20.5641 11.5695 22.0793 8.6039H30.9767C31.7685 8.6039 32.4107 7.96176 32.4107 7.16992C32.4107 6.37807 31.7685 5.73593 30.9767 5.73593H21.1725C20.603 5.73593 20.0876 6.07306 19.859 6.5946C18.5494 9.58503 16.1811 11.9533 13.1907 13.2629C12.6692 13.4915 12.332 14.007 12.332 14.5764V33.4391C12.332 48.8133 21.8409 62.2124 36.2314 67.3049C36.3861 67.3597 36.5479 67.3871 36.7098 67.3871C36.8717 67.3871 37.0334 67.3597 37.1881 67.3049C51.5666 62.2167 61.0875 48.8257 61.0875 33.4391V14.5764C61.0875 14.0069 60.7504 13.4915 60.2288 13.2629Z"
              fill="#4166B1"/>
        <path d="M36.7101 20.9362C29.5938 20.9362 23.8042 26.7257 23.8042 33.842C23.8042 40.9583 29.5938 46.7479 36.7101 46.7479C43.8264 46.7479 49.6159 40.9583 49.6159 33.842C49.6159 26.7257 43.8264 20.9362 36.7101 20.9362ZM36.7101 43.8799C31.1752 43.8799 26.6722 39.3769 26.6722 33.842C26.6722 28.3071 31.1752 23.8041 36.7101 23.8041C42.245 23.8041 46.748 28.3071 46.748 33.842C46.748 39.3769 42.245 43.8799 36.7101 43.8799Z"
              fill="#4166B1"/>
        <path d="M43.4601 29.9599C42.9 29.4001 41.9923 29.4001 41.432 29.9599L35.2762 36.1159L33.4222 34.262C32.8621 33.7022 31.9544 33.7022 31.3941 34.262C30.8341 34.822 30.8341 35.73 31.3941 36.2901L34.2621 39.1581C34.5423 39.4379 34.9091 39.578 35.2762 39.578C35.6433 39.578 36.0101 39.4379 36.2902 39.158L43.4601 31.988C44.02 31.4281 44.02 30.5201 43.4601 29.9599Z"
              fill="#4166B1"/>
    </g>
    <defs>
        <clipPath id="clip0">
            <rect width="73.42" height="73.42" fill="white"/>
        </clipPath>
    </defs>
</svg>
