<svg width="121" height="111" viewBox="0 0 121 111" fill="none" xmlns="http://www.w3.org/2000/svg">
    <path d="M87.6025 65.3562C87.6025 78.0291 87.6025 90.7027 87.6025 103.377C87.6025 107.936 85.0262 110.52 80.4761 110.522C69.74 110.522 59.0053 110.522 48.272 110.522C43.7011 110.522 41.1206 107.942 41.1206 103.404C41.1206 77.9531 41.1206 52.5009 41.1206 27.0473C41.1206 22.6337 43.7219 20.0146 48.1432 20.0022C58.9804 19.9925 69.8182 19.9925 80.6568 20.0022C84.9867 20.0022 87.6025 22.6628 87.6025 27.0142C87.6053 39.799 87.6053 52.5796 87.6025 65.3562ZM85.4667 65.3375C85.4667 52.5942 85.4667 39.8522 85.4667 27.1115C85.4667 23.7257 83.8835 22.1385 80.5363 22.1385C69.6991 22.1385 58.8619 22.1385 48.0247 22.1385C44.9269 22.1385 43.2648 23.763 43.2648 26.8629C43.2551 52.4491 43.2551 78.036 43.2648 103.624C43.2648 106.784 44.9144 108.389 48.0891 108.389C54.8056 108.389 61.5234 108.389 68.2427 108.389C72.6058 108.389 76.9689 108.412 81.3321 108.367C83.5552 108.344 85.1841 106.786 85.4064 104.593C85.4598 103.973 85.482 103.351 85.4729 102.728C85.4715 90.2655 85.4694 77.8019 85.4667 65.3375Z"
          fill="#4166B1"/>
    <path d="M53.6691 40.6227C52.2854 40.6227 50.9017 40.6351 49.5138 40.6227C47.166 40.5999 45.5953 39.2178 45.5225 36.9032C45.4339 33.9733 45.4339 31.0413 45.5225 28.1072C45.589 25.8279 47.114 24.4272 49.414 24.3961C52.248 24.3588 55.0861 24.3547 57.9222 24.3961C60.3073 24.4313 61.797 25.9294 61.8303 28.3124C61.8677 31.1055 61.8718 33.907 61.8303 36.694C61.7929 39.1142 60.2492 40.5916 57.8203 40.6206C56.4366 40.6372 55.0529 40.6227 53.6691 40.6227ZM53.7647 26.5034C52.3103 26.5034 50.856 26.4889 49.4016 26.5034C48.2485 26.5179 47.6688 27.0587 47.6584 28.2129C47.6321 31.0765 47.6321 33.9402 47.6584 36.8038C47.6688 37.9393 48.2692 38.505 49.4182 38.5112C52.2563 38.5305 55.0958 38.5305 57.9367 38.5112C59.0753 38.5112 59.682 37.9269 59.6944 36.7851C59.7277 33.9215 59.7277 31.0579 59.6944 28.1942C59.682 27.0546 59.0711 26.5179 57.918 26.5034C56.5343 26.4889 55.1484 26.5034 53.7647 26.5034Z"
          fill="#4166B1"/>
    <path d="M58.7515 67.2449C58.7702 63.971 61.0369 62.2263 63.8833 62.8935C64.3524 62.969 64.8326 62.9342 65.2858 62.7919C66.7007 62.4252 67.9597 62.6821 69.0484 63.6477C69.9107 64.4123 69.8899 65.0132 69.0277 65.782C68.2569 66.4699 68.2548 67.3941 69.1274 67.9245C70.0894 68.5109 70.187 69.1947 69.6157 70.0691C69.1648 70.7571 68.7638 71.4927 68.2195 72.0998C67.5255 72.8748 66.6176 73.055 65.5683 72.8105C64.947 72.6613 64.299 72.6613 63.6776 72.8105C62.5848 73.1006 61.6914 72.8893 60.9351 72.0998C59.6471 70.7949 58.8721 69.0719 58.7515 67.2449ZM66.9375 64.8392C66.522 64.8392 66.2083 64.7542 65.9839 64.8537C64.945 65.3137 63.9436 65.2059 62.8673 64.8765C61.9719 64.6009 61.3506 65.1355 61.039 65.983C60.5736 67.2594 61.3444 69.7935 62.458 70.5975C62.6566 70.7016 62.8804 70.7483 63.1042 70.7322C64.1119 70.7467 65.1258 70.7964 66.1272 70.7115C66.4887 70.6825 66.8877 70.3675 67.1453 70.0733C67.3198 69.8764 67.432 69.3543 67.3032 69.2051C66.1792 67.8831 66.148 66.4761 66.9396 64.8392H66.9375Z"
          fill="#4166B1"/>
    <path d="M67.6232 58.6808C67.7624 60.6597 66.3475 62.2801 64.5067 62.3402C64.1826 60.6307 65.4541 59.116 67.6232 58.6808Z"
          fill="#4166B1"/>
    <path d="M53.3643 35.3098C53.3779 35.6089 53.3298 35.9077 53.223 36.1875C53.1161 36.4674 52.9528 36.7224 52.7432 36.9368C52.5335 37.1511 52.282 37.3203 52.0041 37.4338C51.7262 37.5473 51.428 37.6027 51.1278 37.5966C50.8276 37.5905 50.5318 37.523 50.2588 37.3983C49.9859 37.2736 49.7414 37.0943 49.5407 36.8716C49.34 36.6489 49.1873 36.3874 49.092 36.1034C48.9967 35.8195 48.9608 35.519 48.9867 35.2207C48.9929 34.9333 49.0559 34.65 49.1719 34.3869C49.288 34.1239 49.4549 33.8861 49.6631 33.6874C49.8712 33.4886 50.1166 33.3327 50.3852 33.2285C50.6538 33.1243 50.9403 33.0739 51.2285 33.0802C51.5166 33.0865 51.8007 33.1493 52.0645 33.265C52.3282 33.3807 52.5666 33.5472 52.7659 33.7548C52.9652 33.9624 53.1215 34.2071 53.226 34.475C53.3305 34.7429 53.381 35.0286 53.3747 35.316L53.3643 35.3098Z"
          fill="#4166B1"/>
    <path d="M54.1284 32.5373C54.1223 32.2449 54.1746 31.9542 54.2822 31.6821C54.3898 31.4101 54.5505 31.162 54.755 30.9525C54.9596 30.7429 55.2038 30.5759 55.4736 30.4613C55.7434 30.3467 56.0333 30.2868 56.3266 30.2849C56.9017 30.3003 57.4493 30.5337 57.858 30.9375C58.2668 31.3412 58.5059 31.8852 58.5269 32.4585C58.5299 32.7516 58.4745 33.0423 58.364 33.3139C58.2534 33.5854 58.0899 33.8323 57.8829 34.0403C57.6759 34.2483 57.4295 34.4133 57.158 34.5255C56.8866 34.6378 56.5955 34.6952 56.3017 34.6943C56.0166 34.6962 55.734 34.6418 55.4701 34.5342C55.2063 34.4266 54.9664 34.268 54.7643 34.0674C54.5623 33.8669 54.4021 33.6284 54.2929 33.3658C54.1838 33.1032 54.1278 32.8216 54.1284 32.5373Z"
          fill="#4166B1"/>
    <path d="M51.1702 27.5373C51.6073 27.535 52.0352 27.6628 52.3991 27.9044C52.7629 28.1461 53.0462 28.4905 53.2127 28.8936C53.3791 29.2968 53.4211 29.7403 53.3333 30.1674C53.2455 30.5945 53.0319 30.9857 52.7198 31.291C52.4078 31.5963 52.0115 31.8018 51.5816 31.8811C51.1517 31.9605 50.7079 31.9101 50.307 31.7364C49.906 31.5627 49.5662 31.2736 49.3309 30.9061C49.0957 30.5386 48.9758 30.1095 48.9865 29.6737C48.9947 29.1024 49.2287 28.5575 49.6376 28.1575C50.0466 27.7574 50.5973 27.5345 51.1702 27.5373Z"
          fill="#4166B1"/>
    <path d="M57.5485 28.3828C56.9647 28.7972 56.6219 29.2282 56.331 29.1951C56.0401 29.1619 55.7368 28.6998 55.4438 28.4263C55.7264 28.1362 55.9799 27.6617 56.2957 27.614C56.6115 27.5664 56.9481 27.9808 57.5485 28.3828Z"
          fill="#4166B1"/>
    <path d="M119.364 43.0433L120.831 40.5393L118.233 39.4138L116.357 37.0936L114.48 39.4128L111.882 40.5383L113.349 43.0423L113.566 46.0287L116.357 45.3191L119.148 46.0297L119.364 43.0433ZM117.386 42.4273L117.309 43.4779L116.357 43.236L115.405 43.4779L115.328 42.4273L114.776 41.4835L115.738 41.0671L116.357 40.3028L116.975 41.0681L117.937 41.485L117.386 42.4273Z"
          fill="#4166B1"/>
    <path d="M104.246 36.6797H106.264V38.6982H104.246V36.6797Z" fill="#4166B1"/>
    <path d="M107.273 32.6426H109.291V34.6611H107.273V32.6426Z" fill="#4166B1"/>
    <path d="M117.366 28.6055H119.384V30.6241H117.366V28.6055Z" fill="#4166B1"/>
    <path d="M30.724 64.0546L32.1906 61.5507L29.5925 60.4251L27.7164 58.105L25.8403 60.4241L23.2422 61.5497L24.7088 64.0536L24.9256 67.0401L27.7164 66.3304L30.5081 67.041L30.724 64.0546ZM28.7459 63.4386L28.669 64.4893L27.7164 64.2473L26.7648 64.4893L26.6869 63.4386L26.135 62.4949L27.0969 62.0785L27.7164 61.3141L28.3349 62.0795L29.2968 62.4964L28.7459 63.4386Z"
          fill="#4166B1"/>
    <path d="M25.0298 44.6961H27.0483V46.7147H25.0298V44.6961Z" fill="#4166B1"/>
    <path d="M27.7114 41.1205H29.73V43.139H27.7114V41.1205Z" fill="#4166B1"/>
    <path d="M12.5151 66.1503H14.5337V68.1688H12.5151V66.1503Z" fill="#4166B1"/>
    <path d="M19.0029 27.7116H21.0215V29.7301H19.0029V27.7116Z" fill="#4166B1"/>
    <path d="M19.0029 31.7487H21.0215V33.7672H19.0029V31.7487Z" fill="#4166B1"/>
    <path d="M21.0215 29.7301H23.04V31.7487H21.0215V29.7301Z" fill="#4166B1"/>
    <path d="M16.9844 29.7301H19.0029V31.7487H16.9844V29.7301Z" fill="#4166B1"/>
    <path d="M96.7744 16.9845H98.7929V19.0031H96.7744V16.9845Z" fill="#4166B1"/>
    <path d="M96.7744 21.0216H98.7929V23.0401H96.7744V21.0216Z" fill="#4166B1"/>
    <path d="M98.793 19.0031H100.812V21.0216H98.793V19.0031Z" fill="#4166B1"/>
    <path d="M94.7559 19.0031H96.7744V21.0216H94.7559V19.0031Z" fill="#4166B1"/>
    <path d="M105.557 67.9381L108.612 67.1588L111.666 67.9375L111.905 64.6547L113.528 61.8807L110.658 60.6375L108.612 58.105L106.565 60.6375L103.695 61.8807L105.317 64.6547L105.557 67.9381ZM107.389 61.7226L108.612 60.2099L109.835 61.7233L111.632 62.5026L110.609 64.252L110.462 66.2651L108.612 65.7931L106.761 66.2644L106.614 64.2513L105.591 62.5016L107.389 61.7226Z"
          fill="#4166B1"/>
    <path d="M1.35451 53.6354L3.57593 53.0686L5.79735 53.6349L5.97139 51.2474L7.15138 49.23L5.06431 48.3259L3.57593 46.484L2.08707 48.3259L0 49.23L1.18 51.2474L1.35451 53.6354ZM2.68647 49.115L3.57593 48.0149L4.46539 49.1155L5.77268 49.6823L5.02861 50.9545L4.92174 52.4186L3.57593 52.0754L2.23011 52.4181L2.12324 50.9541L1.37917 49.6816L2.68647 49.115Z"
          fill="#4166B1"/>
    <path d="M47.6079 0H49.6264V2.01854H47.6079V0Z" fill="#4166B1"/>
    <path d="M49.627 2.01852H51.6455V4.03706H49.627V2.01852Z" fill="#4166B1"/>
    <path d="M45.5898 2.01852H47.6084V4.03706H45.5898V2.01852Z" fill="#4166B1"/>
</svg>
