<svg width="74" height="74" viewBox="0 0 74 74" fill="none" xmlns="http://www.w3.org/2000/svg">
    <path d="M32.9555 7.88199L32.477 10.8187C32.4016 11.2813 32.5969 11.7461 32.98 12.016C33.3632 12.2859 33.8668 12.3131 34.2769 12.0863L36.7094 10.7378L39.1419 12.0838C39.5521 12.3105 40.0559 12.283 40.4389 12.0128C40.8217 11.7431 41.017 11.2784 40.9418 10.8161L40.4634 7.87941L42.4799 5.81399C42.8003 5.48562 42.9101 5.00583 42.7644 4.57078C42.6187 4.13587 42.242 3.81883 41.7885 3.74971L39.0524 3.33244L37.8165 0.70291C37.6152 0.27388 37.1837 0 36.7095 0C36.2353 0 35.8039 0.27388 35.6021 0.703053L34.3662 3.33502L31.6301 3.75229C31.1767 3.82141 30.7999 4.13831 30.6542 4.57336C30.5085 5.00841 30.6184 5.4882 30.9387 5.81657L32.9555 7.88199ZM35.3819 5.65511C35.7852 5.59331 36.1312 5.33449 36.3044 4.96496L36.7095 4.10848L37.1146 4.96496C37.2878 5.33449 37.6338 5.59331 38.0372 5.65511L39.065 5.8117L38.2807 6.61555C38.0092 6.89373 37.8862 7.28434 37.949 7.66791L38.1215 8.72141L37.3017 8.26872C36.9332 8.06496 36.4858 8.06496 36.1173 8.26872L35.2975 8.72141L35.47 7.66791C35.5328 7.28434 35.4098 6.89388 35.1384 6.61555L34.354 5.8117L35.3819 5.65511Z"
          fill="#4166B1"/>
    <path d="M41.785 64.9331L39.0489 64.5158L37.813 61.8839C37.6113 61.4547 37.1798 61.1808 36.7056 61.1808C36.2314 61.1808 35.7999 61.4547 35.5982 61.8839L34.3623 64.5158L31.6262 64.9331C31.1727 65.0022 30.796 65.3191 30.6503 65.7542C30.5046 66.1891 30.6144 66.669 30.9348 66.9974L32.9513 69.0628L32.473 71.9995C32.3975 72.4621 32.5928 72.927 32.976 73.1968C33.3591 73.4667 33.8627 73.4939 34.2728 73.2671L36.7091 71.9186L39.1416 73.2646C39.5518 73.4913 40.0556 73.4638 40.4386 73.1937C40.8214 72.9239 41.0167 72.4592 40.9414 71.9969L40.4631 69.0602L42.4796 66.9948C42.7988 66.6669 42.9083 66.1882 42.7635 65.754C42.6177 65.3183 42.2397 65.0012 41.785 64.9331ZM38.2806 67.7964C38.0092 68.0746 37.8862 68.4652 37.949 68.8487L38.1215 69.9022L37.3017 69.4495C36.9332 69.2458 36.4858 69.2458 36.1173 69.4495L35.2975 69.9022L35.47 68.8487C35.5328 68.4652 35.4098 68.0747 35.1383 67.7964L34.354 66.9925L35.3818 66.8359C35.7852 66.7741 36.1312 66.5153 36.3044 66.1458L36.7095 65.2893L37.1146 66.1458C37.2878 66.5153 37.6338 66.7741 38.0372 66.8359L39.065 66.9925L38.2806 67.7964Z"
          fill="#4166B1"/>
    <path d="M18.0543 12.019L17.5771 14.9557C17.502 15.4178 17.6973 15.8823 18.08 16.152C18.4627 16.4217 18.9659 16.4494 19.3758 16.2233L21.8096 14.8772L24.2421 16.2233C24.6522 16.4501 25.1558 16.4227 25.539 16.153C25.9221 15.8831 26.1176 15.4181 26.042 14.9557L25.5636 12.019L27.5802 9.95357C27.9005 9.62521 28.0103 9.14541 27.8646 8.71036C27.719 8.27531 27.3423 7.95841 26.8887 7.8893L24.1515 7.47088L22.9169 4.84006C22.7154 4.41017 22.2835 4.13571 21.8089 4.13571C21.3343 4.13571 20.9024 4.41031 20.7009 4.84006L19.4663 7.47088L16.7302 7.8893C16.2768 7.95841 15.9 8.27531 15.7543 8.71036C15.6086 9.14527 15.7185 9.62521 16.0388 9.95357L18.0543 12.019ZM20.4807 9.78839C20.8844 9.72701 21.231 9.46805 21.4045 9.09824L21.8096 8.24175L22.2134 9.1044C22.3885 9.47192 22.7346 9.7283 23.1373 9.78839L24.1651 9.94497L23.3808 10.7488C23.1098 11.0267 22.9867 11.4167 23.0491 11.7999L23.2216 12.8558L22.4018 12.4031C22.0333 12.1994 21.5859 12.1994 21.2174 12.4031L20.3976 12.8558L20.5701 11.7999C20.6327 11.4167 20.5095 11.0267 20.2385 10.7488L19.4565 9.94855L20.4807 9.78839Z"
          fill="#4166B1"/>
    <path d="M57.4751 60.8731L54.7379 60.4558L53.5033 57.8239C53.3019 57.394 52.8701 57.1195 52.3953 57.1195C51.9207 57.1195 51.4888 57.3941 51.2873 57.8239L50.0527 60.4558L47.3167 60.8731C46.8632 60.9422 46.4864 61.2591 46.3407 61.6942C46.195 62.1291 46.3049 62.609 46.6252 62.9374L48.6405 65.0041L48.1632 67.9408C48.0881 68.4029 48.2834 68.8674 48.6661 69.1371C49.0488 69.4068 49.552 69.4345 49.962 69.2084L52.3958 67.8623L54.8283 69.2084C55.2384 69.4352 55.742 69.408 56.1251 69.1381C56.5083 68.8682 56.7037 68.4032 56.6281 67.9408L56.1498 65.0041L58.1663 62.9374C58.4878 62.6097 58.5988 62.1296 58.4538 61.6942C58.3078 61.2584 57.9298 60.9412 57.4751 60.8731ZM53.9708 63.7364C53.6993 64.0145 53.5763 64.4051 53.6391 64.7887L53.8116 65.8435L52.9918 65.3908C52.6233 65.1871 52.1759 65.1871 51.8074 65.3908L50.9876 65.8435L51.1601 64.7887C51.223 64.4051 51.0999 64.0147 50.8285 63.7364L50.0441 62.9336L51.0707 62.7771C51.4745 62.7157 51.821 62.4567 51.9945 62.0869L52.3996 61.2304L52.8034 62.0869C52.9769 62.4567 53.3234 62.7155 53.7273 62.7771L54.7551 62.9336L53.9708 63.7364Z"
          fill="#4166B1"/>
    <path d="M6.94994 22.585L6.47144 25.5217C6.39602 25.9843 6.59132 26.4492 6.97446 26.719C7.35761 26.9889 7.8612 27.0161 8.2713 26.7893L10.7038 25.4433L13.1363 26.7893C13.5464 27.0161 14.05 26.9889 14.4332 26.719C14.8163 26.4492 15.0118 25.9842 14.9363 25.5217L14.4578 22.585L16.4744 20.5196C16.7947 20.1914 16.9045 19.7114 16.7588 19.2764C16.6132 18.8415 16.2365 18.5244 15.7829 18.4553L13.0468 18.0381L11.8109 15.4061C11.6092 14.9769 11.1777 14.703 10.7035 14.703C10.2293 14.703 9.79786 14.9771 9.59611 15.4061L8.36021 18.0381L5.62915 18.4553C5.1756 18.5244 4.79891 18.8415 4.65323 19.2764C4.50754 19.7113 4.61738 20.1912 4.93772 20.5196L6.94994 22.585ZM9.37628 20.358C9.77965 20.2962 10.1257 20.0374 10.2989 19.6679L10.704 18.8114L11.109 19.6679C11.2823 20.0374 11.6283 20.2962 12.0316 20.358L13.0595 20.5146L12.2751 21.3184C12.0037 21.5966 11.8806 21.9872 11.9434 22.3708L12.1159 23.4256L11.2962 22.9716C10.9276 22.7679 10.4803 22.7679 10.1117 22.9716L9.29197 23.4256L9.46447 22.3708C9.52728 21.9872 9.40425 21.5968 9.1328 21.3184L8.34845 20.5146L9.37628 20.358Z"
          fill="#4166B1"/>
    <path d="M68.7677 49.0457L66.0316 48.6284L64.797 45.9964C64.5955 45.5665 64.1636 45.2921 63.689 45.2921C63.2144 45.2921 62.7825 45.5667 62.581 45.9964L61.3451 48.6284L58.609 49.0457C58.1558 49.1152 57.7794 49.4323 57.634 49.8672C57.4886 50.3021 57.5985 50.7817 57.9189 51.1099L59.9341 53.1754L59.4558 56.112C59.3803 56.5746 59.5756 57.0395 59.9588 57.3094C60.3419 57.5792 60.8455 57.6065 61.2556 57.3796L63.6881 56.0336L66.1219 57.3796C66.5319 57.6058 67.0351 57.5781 67.4178 57.3084C67.8005 57.0387 67.9958 56.5742 67.9207 56.112L67.4434 53.1754L69.4587 51.1099C69.7802 50.7823 69.8911 50.3022 69.7462 49.8667C69.6005 49.431 69.2224 49.1138 68.7677 49.0457ZM65.2633 51.9089C64.9919 52.1871 64.8688 52.5777 64.9316 52.9613L65.103 54.0161L64.2832 53.5621C63.9147 53.3583 63.4673 53.3583 63.0988 53.5621L62.2802 54.0161L62.4515 52.9613C62.5143 52.5777 62.3913 52.1873 62.1199 51.9089L61.3355 51.1051L62.3633 50.9485C62.7667 50.8867 63.1127 50.6279 63.2859 50.2583L63.6909 49.4019L64.0959 50.2583C64.2692 50.6279 64.6152 50.8867 65.0185 50.9485L66.0477 51.1051L65.2633 51.9089Z"
          fill="#4166B1"/>
    <path d="M8.55135 42.6743C8.9616 42.901 9.46533 42.8735 9.84834 42.6033C10.2312 42.3336 10.4265 41.8689 10.3512 41.4066L9.87271 38.4699L11.8892 36.4045C12.2096 36.0762 12.3194 35.5963 12.1737 35.1613C12.028 34.7262 11.6514 34.4093 11.1978 34.3402L8.46173 33.9229L7.22612 31.2909C7.02437 30.8618 6.5929 30.5879 6.1187 30.5879C5.6445 30.5879 5.21303 30.8619 5.01128 31.2909L3.77538 33.9229L1.03931 34.3402C0.58576 34.4093 0.209068 34.7262 0.0633815 35.1613C-0.0823052 35.5963 0.0275334 36.0761 0.347872 36.4045L2.3644 38.4723L1.8859 41.409C1.81047 41.8716 2.00578 42.3365 2.38906 42.6063C2.77221 42.8762 3.2758 42.9034 3.6859 42.6766L6.11841 41.3281L8.55135 42.6743ZM4.70672 39.3117L4.87922 38.2582C4.94202 37.8747 4.81899 37.4842 4.54755 37.2059L3.76319 36.402L4.79103 36.2454C5.19439 36.1836 5.5404 35.9248 5.71362 35.5553L6.1187 34.6988L6.52378 35.5553C6.697 35.9248 7.04301 36.1836 7.44637 36.2454L8.47421 36.402L7.68985 37.2059C7.41841 37.4841 7.29538 37.8747 7.35818 38.2582L7.53068 39.3117L6.71091 38.8591C6.34239 38.6553 5.89501 38.6553 5.52649 38.8591L4.70672 39.3117Z"
          fill="#4166B1"/>
    <path d="M73.3547 35.1613C73.209 34.7263 72.8323 34.4093 72.3788 34.3402L69.6427 33.9229L68.4068 31.2934C68.205 30.8642 67.7736 30.5903 67.2994 30.5903C66.8252 30.5903 66.3937 30.8644 66.192 31.2934L64.9561 33.9254L62.22 34.3426C61.7664 34.4117 61.3897 34.7288 61.244 35.1637C61.0984 35.5986 61.2082 36.0785 61.5285 36.4069L63.5451 38.4723L63.0667 41.409C62.9913 41.8716 63.1866 42.3365 63.5697 42.6063C63.9529 42.8762 64.4565 42.9034 64.8666 42.6766L67.2991 41.3281L69.7316 42.6742C70.1419 42.9009 70.6456 42.8733 71.0286 42.6032C71.4115 42.3335 71.6068 41.8687 71.5315 41.4064L71.053 38.4697L73.0695 36.4043C73.3906 36.0762 73.5004 35.5963 73.3547 35.1613ZM68.8707 37.206C68.5992 37.4842 68.4762 37.8748 68.539 38.2584L68.7115 39.3119L67.8917 38.8592C67.5232 38.6554 67.0758 38.6554 66.7073 38.8592L65.8875 39.3119L66.06 38.2584C66.1228 37.8748 65.9998 37.4844 65.7284 37.206L64.944 36.4022L65.9718 36.2456C66.3752 36.1838 66.7212 35.925 66.8944 35.5554L67.2995 34.699L67.7046 35.5554C67.8778 35.925 68.2238 36.1838 68.6272 36.2456L69.655 36.4022L68.8707 37.206Z"
          fill="#4166B1"/>
    <path d="M15.4754 55.8575L14.9969 52.9208L17.0086 50.859C17.3282 50.5306 17.4376 50.0511 17.2921 49.6166C17.1465 49.1822 16.7703 48.8654 16.3173 48.796L13.5825 48.3776L12.3466 45.7456C12.1448 45.3164 11.7134 45.0426 11.2392 45.0426C10.765 45.0426 10.3335 45.3164 10.1318 45.7456L8.89586 48.3776L6.15979 48.796C5.70681 48.8654 5.33069 49.1822 5.185 49.6166C5.03946 50.0511 5.14873 50.5306 5.46849 50.859L7.48875 52.9257L7.01025 55.8624C6.93697 56.3231 7.13213 56.7852 7.51312 57.0541C7.89612 57.3243 8.39986 57.3518 8.81011 57.1251L11.2426 55.7791L13.6751 57.1251C14.0852 57.3519 14.5888 57.3247 14.972 57.0548C15.3554 56.7851 15.5508 56.3201 15.4754 55.8575ZM12.8103 51.6593C12.5393 51.9372 12.4163 52.3272 12.4787 52.7103L12.6512 53.7651L11.8314 53.3124C11.4629 53.1087 11.0155 53.1087 10.647 53.3124L9.82719 53.7651L9.99969 52.7103C10.0622 52.3272 9.93904 51.9372 9.66803 51.6593L8.88367 50.8554L9.9115 50.6975C10.3146 50.636 10.6606 50.3776 10.8341 50.0087L11.2392 49.1522L11.6443 50.0087C11.8175 50.3782 12.1635 50.637 12.5668 50.6988L13.5947 50.8554L12.8103 51.6593Z"
          fill="#4166B1"/>
    <path d="M60.4731 22.3354L59.9946 25.2721C59.9218 25.7333 60.1179 26.1959 60.5002 26.4644C60.8825 26.7328 61.3842 26.76 61.7933 26.5349L64.2259 25.1889L66.6597 26.5349C67.0696 26.761 67.5728 26.7334 67.9555 26.4636C68.3382 26.1939 68.5335 25.7295 68.4584 25.2673L67.9812 22.3306L69.9964 20.2639C70.316 19.9356 70.4254 19.4561 70.2799 19.0216C70.1342 18.5871 69.7581 18.2703 69.3051 18.2009L66.5654 17.7874L65.3419 15.1554C65.1404 14.7255 64.7085 14.4511 64.2339 14.4511C63.7593 14.4511 63.3274 14.7257 63.1259 15.1554L61.89 17.7874L59.1539 18.2058C58.7009 18.2752 58.3248 18.592 58.1791 19.0264C58.0336 19.4609 58.1429 19.9404 58.4626 20.2688L60.4731 22.3354ZM62.8946 20.1072C63.2977 20.0457 63.6437 19.7873 63.8172 19.4183L64.2223 18.5619L64.6274 19.4245C64.8006 19.794 65.1466 20.0529 65.5499 20.1147L66.5791 20.2712L65.7936 21.0751C65.5226 21.353 65.3995 21.743 65.4619 22.1262L65.6344 23.181L64.8146 22.7283C64.4461 22.5245 63.9987 22.5245 63.6302 22.7283L62.8104 23.181L62.9829 22.1262C63.0453 21.743 62.9223 21.353 62.6513 21.0751L61.8669 20.2712L62.8946 20.1072Z"
          fill="#4166B1"/>
    <path d="M26.3453 59.362L23.6167 58.9436L22.3808 56.3116C22.179 55.8825 21.7476 55.6086 21.2734 55.6086C20.7992 55.6086 20.3677 55.8826 20.1659 56.3116L18.93 58.9436L16.194 59.362C15.741 59.4314 15.3649 59.7482 15.2192 60.1827C15.0736 60.6171 15.1829 61.0966 15.5027 61.425L17.5179 63.4917L17.0407 66.4284C16.9653 66.891 17.1606 67.3559 17.5437 67.6257C17.9269 67.8956 18.4305 67.9228 18.8406 67.696L21.2731 66.35L23.7056 67.696C24.1157 67.9228 24.6193 67.8956 25.0024 67.6257C25.3856 67.3559 25.581 66.8908 25.5056 66.4284L25.0271 63.4917L27.0423 61.425C27.3611 61.0964 27.4698 60.6171 27.3238 60.1831C27.178 59.7472 26.7998 59.43 26.3453 59.362ZM22.8408 62.2253C22.5698 62.5032 22.4467 62.8932 22.5091 63.2764L22.6816 64.3311L21.8618 63.8785C21.4933 63.6747 21.0459 63.6747 20.6774 63.8785L19.8576 64.3311L20.0301 63.2764C20.0927 62.8932 19.9695 62.5032 19.6985 62.2253L18.9141 61.4201L19.942 61.2635C20.3453 61.2017 20.6913 60.9429 20.8645 60.5734L21.2696 59.7169L21.6747 60.5734C21.8479 60.9429 22.1939 61.2017 22.5973 61.2635L23.6251 61.4201L22.8408 62.2253Z"
          fill="#4166B1"/>
    <path d="M48.1048 10.5067L47.6276 13.4433C47.5522 13.9059 47.7475 14.3708 48.1306 14.6407C48.5138 14.9105 49.0174 14.9378 49.4275 14.7109L51.86 13.3649L54.2925 14.7109C54.7026 14.9378 55.2062 14.9105 55.5893 14.6407C55.9725 14.3708 56.1679 13.9058 56.0925 13.4433L55.614 10.5067L57.6329 8.44238C57.9533 8.11401 58.0631 7.63422 57.9174 7.19917C57.7718 6.76426 57.3951 6.44722 56.9415 6.3781L54.2067 5.95969L52.9672 3.32772C52.7655 2.89854 52.334 2.62466 51.8598 2.62466C51.3856 2.62466 50.9542 2.89869 50.7524 3.32772L49.5165 5.95969L46.7804 6.37696C46.3265 6.44579 45.9492 6.76297 45.8035 7.19831C45.6578 7.63379 45.7681 8.11416 46.0891 8.44238L48.1048 10.5067ZM50.5362 8.27978C50.9395 8.21797 51.2855 7.95915 51.4588 7.58963L51.8638 6.73314L52.2689 7.58963C52.4421 7.95915 52.7881 8.21797 53.1915 8.27978L54.2193 8.43636L53.435 9.24022C53.1635 9.5184 53.0405 9.909 53.1033 10.2926L53.2758 11.3461L52.4561 10.8934C52.0875 10.6896 51.6401 10.6896 51.2716 10.8934L50.4519 11.3461L50.6244 10.2926C50.6872 9.909 50.5641 9.51854 50.2927 9.24022L49.5048 8.44238L50.5362 8.27978Z"
          fill="#4166B1"/>
    <path d="M36.3232 36.7095C39.3668 36.7095 41.8343 33.7126 41.8343 30.0156C41.8343 26.3186 41.0242 23.3217 36.3232 23.3217C31.6223 23.3217 30.812 26.3186 30.812 30.0156C30.812 33.7126 33.2795 36.7095 36.3232 36.7095Z"
          fill="#4166B1"/>
    <path d="M25.9137 46.9302C25.9127 46.7048 25.9118 46.8667 25.9137 46.9302V46.9302Z" fill="#4166B1"/>
    <path d="M46.7319 47.1063C46.7349 47.0446 46.733 46.6782 46.7319 47.1063V47.1063Z" fill="#4166B1"/>
    <path d="M46.7201 46.6599C46.618 40.2198 45.7769 38.3847 39.3406 37.2231C39.3406 37.2231 38.4346 38.3776 36.3229 38.3776C34.2112 38.3776 33.305 37.2231 33.305 37.2231C26.9389 38.372 26.0467 40.1799 25.9294 46.4507C25.9198 46.9628 25.9153 46.9897 25.9136 46.9302C25.914 47.0416 25.9144 47.2476 25.9144 47.6068C25.9144 47.6068 27.4468 50.6959 36.3229 50.6959C45.1989 50.6959 46.7314 47.6068 46.7314 47.6068C46.7314 47.376 46.7315 47.2155 46.7318 47.1064C46.73 47.1431 46.7266 47.0719 46.7201 46.6599Z"
          fill="#4166B1"/>
</svg>
