<svg width="65" height="65" viewBox="0 0 65 65" fill="none" xmlns="http://www.w3.org/2000/svg">
    <path d="M32.5 65C50.4493 65 65 50.4493 65 32.5C65 14.5507 50.4493 0 32.5 0C14.5507 0 0 14.5507 0 32.5C0 50.4493 14.5507 65 32.5 65Z"
          fill="#00796B"/>
    <path d="M65 32.4999C65 31.4825 64.9508 30.4768 64.8594 29.4833L52.1495 16.7734L14.4324 50.0214L29.2496 64.8386C30.3187 64.9447 31.4028 65 32.5 65C50.4492 65 65 50.4492 65 32.4999Z"
          fill="#006C60"/>
    <path d="M32.5 57.6685C46.4002 57.6685 57.6685 46.4002 57.6685 32.5C57.6685 18.5998 46.4002 7.33154 32.5 7.33154C18.5998 7.33154 7.33154 18.5998 7.33154 32.5C7.33154 46.4002 18.5998 57.6685 32.5 57.6685Z"
          fill="#FF583E"/>
    <path d="M32.4999 7.33154C32.4958 7.33154 32.4919 7.33167 32.4878 7.33167V57.6683C32.4919 57.6683 32.4958 57.6685 32.4999 57.6685C46.4 57.6685 57.6683 46.4001 57.6683 32.5C57.6683 18.5999 46.4 7.33154 32.4999 7.33154Z"
          fill="#E82E21"/>
    <path d="M21.998 26.8871V45.5305H16.8463V33.3142C16.0126 33.9478 15.2062 34.4605 14.4269 34.8523C13.6472 35.2442 12.67 35.6193 11.4946 35.9776V31.8012C13.2284 31.2428 14.5746 30.5716 15.5334 29.7881C16.4919 29.0047 17.2422 28.0375 17.7841 26.8872H21.998V26.8871Z"
          fill="white"/>
    <path d="M27.7455 35.6773C26.9453 35.2522 26.3617 34.7771 25.9951 34.2519C25.4949 33.535 25.2448 32.7098 25.2448 31.7761C25.2448 30.2423 25.9658 28.9877 27.4081 28.0124C28.5334 27.2621 30.0214 26.8871 31.872 26.8871C34.3227 26.8871 36.1337 27.354 37.3049 28.2875C38.476 29.2212 39.0617 30.3966 39.0617 31.8136C39.0617 32.6389 38.8283 33.4099 38.3616 34.1268C38.0114 34.6604 37.4613 35.1771 36.7111 35.6773C37.7029 36.1525 38.4428 36.7819 38.9306 37.5654C39.4182 38.349 39.6619 39.2159 39.6619 40.1663C39.6619 41.0834 39.4513 41.9399 39.0305 42.7359C38.6095 43.532 38.0927 44.1469 37.48 44.5802C36.8673 45.0137 36.1045 45.3325 35.1917 45.5368C34.279 45.7409 33.3055 45.8431 32.272 45.8431C30.3296 45.8431 28.8458 45.6137 27.8205 45.1554C26.7953 44.6971 26.0156 44.0218 25.4823 43.1297C24.9489 42.2379 24.6821 41.2415 24.6821 40.1412C24.6821 39.0658 24.9322 38.1553 25.4324 37.4091C25.9325 36.6632 26.7035 36.0859 27.7455 35.6773ZM29.7587 39.9662C29.7587 40.7749 30.0045 41.4354 30.4965 41.948C30.9883 42.4607 31.5509 42.717 32.1845 42.717C32.793 42.717 33.3391 42.4566 33.8225 41.9355C34.3059 41.4146 34.5477 40.7538 34.5477 39.9536C34.5477 39.1452 34.3039 38.4823 33.8163 37.9655C33.3285 37.4487 32.7638 37.1902 32.122 37.1902C31.4883 37.1902 30.936 37.4403 30.4651 37.9405C29.9941 38.4407 29.7587 39.116 29.7587 39.9662ZM30.0338 32.0763C30.0338 32.7099 30.2318 33.2204 30.6277 33.608C31.0236 33.9956 31.5509 34.1894 32.2096 34.1894C32.7929 34.1894 33.2723 33.9979 33.6474 33.6143C34.0226 33.2309 34.2102 32.7349 34.2102 32.1263C34.2102 31.4929 34.0142 30.9782 33.6225 30.5821C33.2306 30.1862 32.7304 29.988 32.1221 29.988C31.5051 29.988 31.003 30.1819 30.6153 30.5695C30.2277 30.9571 30.0338 31.4594 30.0338 32.0763Z"
          fill="white"/>
    <path d="M38.9307 37.5656C38.4429 36.7822 37.7032 36.1526 36.7111 35.6775C37.4613 35.1773 38.0115 34.6607 38.3617 34.1271C38.8285 33.4103 39.0618 32.6392 39.0618 31.8139C39.0618 30.3968 38.4761 29.2215 37.305 28.2877C36.2344 27.4345 34.6276 26.9722 32.4879 26.8989V30.0162C32.9335 30.0817 33.3126 30.2691 33.6226 30.5822C34.0143 30.9781 34.2103 31.493 34.2103 32.1264C34.2103 32.735 34.0227 33.231 33.6475 33.6144C33.3341 33.9349 32.9467 34.1194 32.4878 34.1721V37.2229C32.9802 37.3041 33.4238 37.5497 33.8164 37.9658C34.304 38.4827 34.5477 39.1454 34.5477 39.9538C34.5477 40.754 34.306 41.4148 33.8226 41.9357C33.4209 42.3685 32.9755 42.6186 32.4878 42.692V45.8405C33.4411 45.8272 34.343 45.7268 35.1918 45.5369C36.1046 45.3327 36.8673 45.0138 37.4801 44.5803C38.0928 44.147 38.6095 43.5321 39.0306 42.736C39.4514 41.94 39.6621 41.0835 39.6621 40.1665C39.6621 39.2161 39.4183 38.3493 38.9307 37.5656Z"
          fill="#E9EDF5"/>
    <path d="M38.6841 22.7421H43.4731V17.928H47.5119V22.7421H52.326V26.7809H47.5119V31.5699H43.4731V26.7809H38.6841V22.7421Z"
          fill="#E9EDF5"/>
</svg>
