<svg xmlns:xlink="http://www.w3.org/1999/xlink" xmlns="http://www.w3.org/2000/svg" class="x1lliihq x1rdy4ex xcud41i x4vbgl9 x139jcc6 x1k90msu x13hzchw x1qfuztq xsrhx6k x7p49u4" height="28" viewBox="0 0 36 36" width="28"><path clip-rule="evenodd" d="M18 29c6.075 0 11-4.925 11-11S24.075 7 18 7 7 11.925 7 18s4.925 11 11 11zm-1-16a1 1 0 112 0v3.75c0 .138.112.25.25.25H23a1 1 0 110 2h-3.75a.25.25 0 00-.25.25V23a1 1 0 11-2 0v-3.75a.25.25 0 00-.25-.25H13a1 1 0 110-2h3.75a.25.25 0 00.25-.25V13z" fill="#0084FF" fill-rule="evenodd"></path></svg>