<svg width="15" height="15" viewBox="0 0 15 15" fill="none" xmlns="http://www.w3.org/2000/svg">
<path d="M13.6962 0.556933C13.6124 0.274753 13.4418 0.072258 13.2393 0.0160094C13.0355 -0.0407079 12.8286 0.0563209 12.6833 0.274753L10.2285 3.95669L9.33066 0.589276C9.25253 0.296315 9.08159 0.0821015 8.87595 0.0192906C8.67063 -0.0444578 8.45687 0.0521023 8.30843 0.274753L5.85362 3.95669L4.95577 0.589276C4.88139 0.310377 4.72263 0.102257 4.52856 0.0286656C4.33512 -0.0444576 4.12917 0.024915 3.9751 0.217098L0.224926 4.90448C-0.0403987 5.23635 -0.0760252 5.82696 0.144922 6.22492C0.268053 6.44757 0.445874 6.56241 0.624945 6.56241C0.765889 6.56241 0.90777 6.49116 1.02465 6.34538L4.11386 2.48392L5.04452 5.9732C5.12265 6.26616 5.2936 6.48038 5.49923 6.54319C5.7058 6.60741 5.91863 6.51038 6.06676 6.28773L8.52156 2.60579L9.41941 5.9732C9.49754 6.26616 9.66849 6.48038 9.87412 6.54319C10.0804 6.60741 10.2935 6.51038 10.4416 6.28773L12.9233 2.56548L13.8037 5.53681C13.9437 6.00976 14.3121 6.2221 14.6287 6.01258C14.944 5.80211 15.0862 5.24853 14.9459 4.77511L13.6962 0.556933Z" fill="#00AE1C"/>
<path d="M13.6962 8.99421C13.6124 8.71203 13.4418 8.50953 13.2393 8.45328C13.0355 8.39657 12.8286 8.4936 12.6833 8.71203L10.2285 12.394L9.33066 9.02655C9.25253 8.73359 9.08159 8.51938 8.87595 8.45657C8.67063 8.39282 8.45687 8.48938 8.30843 8.71203L5.85362 12.394L4.95577 9.02655C4.88139 8.74765 4.72263 8.53953 4.52856 8.46594C4.33512 8.39235 4.12917 8.46219 3.9751 8.65437L0.224926 13.3418C-0.0403987 13.6736 -0.0760252 14.2642 0.144922 14.6622C0.268053 14.8848 0.445874 14.9997 0.624945 14.9997C0.765889 14.9997 0.90777 14.9284 1.02465 14.7827L4.11386 10.9212L5.04452 14.4105C5.12265 14.7034 5.2936 14.9177 5.49923 14.9805C5.7058 15.0447 5.91863 14.9481 6.06676 14.725L8.52156 11.0431L9.41941 14.4105C9.49754 14.7034 9.66849 14.9177 9.87412 14.9805C10.0804 15.0447 10.2935 14.9481 10.4416 14.725L12.9233 11.0028L13.8037 13.9741C13.9437 14.447 14.3121 14.6594 14.6287 14.4499C14.944 14.2394 15.0862 13.6858 14.9459 13.2124L13.6962 8.99421Z" fill="#00AE1C"/>
</svg>
