<svg width="15" height="15" viewBox="0 0 15 15" fill="none" xmlns="http://www.w3.org/2000/svg">
<path d="M11.9519 0C10.515 0 9.26844 1.06193 8.92031 2.58239C8.91625 2.60011 8.91313 2.61784 8.91031 2.63591L7.5 11.8913L6.09 2.63557C6.08719 2.6175 6.08375 2.59977 6.07969 2.58205C5.73125 1.06193 4.48469 0 3.04688 0C1.36688 0 0 1.49114 0 3.3242C0 4.00057 0.241562 4.6367 0.68 5.115L2.05813 6.61841C2.30188 6.88466 2.69812 6.88466 2.94187 6.61841C3.18594 6.35216 3.18594 5.92057 2.94187 5.65432L1.56375 4.15091C1.36156 3.93 1.25 3.63648 1.25 3.32386C1.25 2.24318 2.05625 1.36364 3.04812 1.36364C3.90219 1.36364 4.64437 1.9892 4.86125 2.88852L6.58 14.1719C6.58281 14.19 6.58625 14.2077 6.59031 14.2255C6.69656 14.6888 7.06219 15 7.5 15C7.93781 15 8.30313 14.6888 8.40938 14.2255C8.41375 14.2077 8.41687 14.19 8.41969 14.1719L10.1388 2.88818C10.3556 1.9892 11.0978 1.36364 11.9531 1.36364C12.9441 1.36364 13.75 2.24318 13.75 3.3242C13.75 3.63648 13.6388 3.93 13.4359 4.15091L12.0581 5.65432C11.8141 5.92057 11.8141 6.35216 12.0581 6.61841C12.3022 6.88466 12.6978 6.88466 12.9419 6.61841L14.3197 5.11534C14.7584 4.63705 15 4.00057 15 3.32386C15 1.49114 13.6331 0 11.9519 0Z" fill="#CB1E28" fill-opacity="0.5"/>
</svg>
