<svg width="83" height="99" viewBox="0 0 83 99" fill="none" xmlns="http://www.w3.org/2000/svg">
<path d="M55.8654 69.3206H51.0769V64.0439C56.6861 60.3686 60.5673 54.4527 61.7949 47.7091C65.0682 46.7309 67.0385 41.7087 67.0385 37.9923C67.2918 35.2002 65.6216 32.6045 63.0317 31.7648C67.3307 27.1532 68.2777 20.2115 65.3807 14.5516C62.4838 8.89175 56.3961 5.7929 50.2866 6.86691C42.7992 -1.48123 30.3012 -2.32901 21.8209 4.93466C13.3405 12.1991 11.8332 25.0438 18.3893 34.1898C16.7355 35.4627 15.8205 37.5157 15.9616 39.6412C15.9616 43.5008 18.0807 48.7775 21.5847 49.4586C23.1224 55.4953 26.8159 60.7068 31.9231 64.0439V69.3206H27.1346C19.9348 69.3117 13.028 72.2616 7.93714 77.5206C2.84707 82.7795 -0.00932957 89.9144 2.28943e-05 97.3511C2.28943e-05 98.2617 0.713927 99 1.59618 99H81.4038C82.2853 99 83 98.2617 83 97.3511C82.9829 81.8778 70.8441 69.3383 55.8654 69.3206ZM35.1154 72.0692V65.8321C35.2588 65.8957 35.41 65.9359 35.5557 65.9963C36.1761 66.2636 36.8082 66.5011 37.4504 66.7136C37.6912 66.7925 37.9289 66.8787 38.1752 66.9447C39.0247 67.1999 39.8875 67.4085 40.7588 67.5679L41.2381 67.6484C41.4112 67.6798 41.5881 67.6798 41.7611 67.6484L42.2404 67.5679C43.1125 67.4117 43.9753 67.2072 44.8264 66.9544C45.0703 66.8819 45.3049 66.8014 45.552 66.7217C46.1973 66.5108 46.8317 66.2716 47.4552 66.0027C47.5955 65.944 47.7451 65.9045 47.8862 65.8385V72.0644L43.8794 77.5649H39.1058L35.1154 72.0692ZM62.25 43.3197V34.9482C63.3427 35.3773 63.8462 36.3636 63.8462 37.9923C63.8197 39.8899 63.2655 41.7385 62.25 43.3197ZM35.1154 3.36631C40.2624 3.3639 45.1514 5.69548 48.4894 9.74436C48.8768 10.2129 49.4847 10.4198 50.0661 10.2798C54.7992 9.1043 59.7248 11.229 62.2422 15.5339C64.7596 19.838 64.2888 25.3304 61.0794 29.112C61.0365 29.0355 60.9742 28.9469 60.9297 28.8777C60.7193 28.5162 60.484 28.1467 60.2229 27.7715C60.1426 27.6556 60.0631 27.542 59.9828 27.4229C59.6352 26.9471 59.2502 26.46 58.8231 25.9624C58.735 25.8602 58.6361 25.7547 58.5464 25.6524C58.1786 25.237 57.7834 24.8135 57.361 24.3828C57.2199 24.2395 57.0781 24.0962 56.9316 23.9505C56.3946 23.4183 55.8319 22.8805 55.2123 22.3298C53.6668 20.9579 52.0496 19.6745 50.3677 18.4846C49.8019 18.0941 49.0591 18.1159 48.5167 18.5409L39.8446 25.3377C36.279 28.1386 31.9324 29.6748 27.4534 29.715H27.0785C26.7574 29.719 26.4379 29.748 26.1207 29.8012C26.0747 29.8012 26.031 29.8205 25.9851 29.8301C25.706 29.8817 25.4301 29.9517 25.1597 30.0403L25.0802 30.0693C24.7903 30.1691 24.5081 30.2907 24.2354 30.434H24.2213C23.1061 31.0136 22.1825 31.9226 21.5684 33.0457C17.2428 27.629 16.3325 20.1198 19.231 13.7691C22.1303 7.4176 28.3177 3.36551 35.1154 3.36631ZM19.1539 39.6412C18.9925 38.4681 19.5381 37.3112 20.531 36.7178C20.6043 36.7919 20.6744 36.8692 20.75 36.9416V43.1699C20.75 43.8116 20.7734 44.4501 20.8217 45.0861C19.7602 43.4791 19.1804 41.5855 19.1539 39.6412ZM24.3842 47.5046C24.0881 46.0804 23.94 44.6272 23.9423 43.1699V36.2806C23.9423 36.2629 23.9423 36.246 23.9423 36.2283C23.9501 35.9256 24.0008 35.6269 24.092 35.3395C24.1083 35.2847 24.1239 35.2292 24.1434 35.1744C24.2424 34.8854 24.3811 34.6117 24.5549 34.3629C24.5728 34.3387 24.5931 34.317 24.611 34.2936C24.7934 34.0489 25.0085 33.8315 25.2493 33.648L25.268 33.631C25.5143 33.4531 25.7832 33.3122 26.0661 33.2108C26.1113 33.1939 26.1557 33.181 26.2025 33.1665C26.4924 33.0707 26.7948 33.0192 27.0996 33.0127H27.4612C32.6689 32.9636 37.7193 31.1698 41.8554 27.9011L49.5174 21.8998C50.3693 22.5359 51.7121 23.5761 53.1306 24.8345C53.5444 25.2016 53.9388 25.5647 54.3121 25.9246C56.3704 27.6161 57.9728 29.8269 58.965 32.3437C59.0234 32.5723 59.0546 32.8082 59.0577 33.0457V43.1699C59.0608 44.1192 58.9961 45.0668 58.8629 46.0055C58.0048 52.5953 54.2435 58.4033 48.6741 61.7357C46.5277 63.0303 44.1694 63.9071 41.7167 64.3217L41.5 64.3507L41.2888 64.316C38.8346 63.8869 36.4738 63.0102 34.3173 61.726C29.1961 58.6642 25.5821 53.4906 24.3842 47.5046ZM10.1926 79.8538C14.6818 75.2075 20.7796 72.603 27.1346 72.6183H31.9231C31.9231 72.975 32.0345 73.322 32.2419 73.6078L36.6126 79.6259L33.7819 95.7023H3.24455C3.61553 89.722 6.08614 84.087 10.1926 79.8538ZM37.0303 95.7023L39.642 80.8626H43.3643L45.9689 95.7023H37.0303ZM49.2205 95.7023L46.3906 79.6259L50.515 73.9371L50.7558 73.6078C50.9639 73.3228 51.0762 72.975 51.0769 72.6183H55.8654C68.4624 72.6344 78.8989 82.7192 79.7547 95.7023H49.2205Z" fill="url(#paint0_linear)"/>
<path d="M82.9925 0.580729C82.986 0.523275 82.9749 0.467936 82.9566 0.416016C82.956 0.414714 82.956 0.412923 82.9557 0.411296C82.9557 0.41097 82.9554 0.410645 82.9551 0.410319C82.9349 0.355632 82.9073 0.30599 82.8761 0.259928C82.8684 0.249023 82.8609 0.238281 82.8527 0.228027C82.8194 0.185059 82.7832 0.145345 82.7412 0.112956C82.7401 0.111979 82.7387 0.111654 82.7375 0.110677C82.6969 0.0800781 82.6521 0.0569662 82.6051 0.038737C82.5934 0.0340169 82.582 0.0299479 82.57 0.0263672C82.5208 0.0110677 82.4701 0 82.4167 0H78.3333C78.0113 0 77.75 0.298665 77.75 0.666667C77.75 1.03467 78.0113 1.33333 78.3333 1.33333H81.0082L77.5266 5.31234C76.5981 4.4637 75.4551 4 74.25 4C71.3553 4 69 6.69173 69 10C69 13.3083 71.3553 16 74.25 16C77.1447 16 79.5 13.3083 79.5 10C79.5 8.62337 79.0945 7.31738 78.3514 6.25537L81.8333 2.27604V5.33333C81.8333 5.70133 82.0947 6 82.4167 6C82.7387 6 83 5.70133 83 5.33333V0.666667C83 0.652669 82.9972 0.639323 82.9964 0.625651C82.9956 0.610352 82.9942 0.595703 82.9925 0.580729ZM74.25 14.6667C71.9983 14.6667 70.1667 12.5734 70.1667 10C70.1667 7.4266 71.9983 5.33333 74.25 5.33333C75.3402 5.33333 76.3666 5.81836 77.1383 6.69727C77.9089 7.58105 78.3333 8.75407 78.3333 10C78.3333 12.5734 76.5017 14.6667 74.25 14.6667Z" fill="url(#paint1_linear)"/>
<path d="M31.1875 37C29.8117 37 28.4922 37.5215 27.5194 38.4498C26.5465 39.3781 26 40.6372 26 41.95H29.4583C29.4583 41.5124 29.6405 41.0927 29.9648 40.7833C30.2891 40.4738 30.7289 40.3 31.1875 40.3C31.6461 40.3 32.0859 40.4738 32.4102 40.7833C32.7345 41.0927 32.9167 41.5124 32.9167 41.95H36.375C36.375 40.6372 35.8285 39.3781 34.8556 38.4498C33.8828 37.5215 32.5633 37 31.1875 37Z" fill="url(#paint2_linear)"/>
<path d="M51.9375 40.3C52.3961 40.3 52.8359 40.4738 53.1602 40.7833C53.4845 41.0927 53.6667 41.5124 53.6667 41.95H57.125C57.125 40.6372 56.5785 39.3781 55.6056 38.4498C54.6328 37.5215 53.3133 37 51.9375 37C50.5617 37 49.2422 37.5215 48.2694 38.4498C47.2965 39.3781 46.75 40.6372 46.75 41.95H50.2083C50.2083 41.5124 50.3905 41.0927 50.7148 40.7833C51.0391 40.4738 51.4789 40.3 51.9375 40.3Z" fill="url(#paint3_linear)"/>
<path d="M46.75 51.8501H43.2917C43.2917 52.2877 43.1095 52.7074 42.7852 53.0168C42.4609 53.3263 42.0211 53.5001 41.5625 53.5001C41.1039 53.5001 40.6641 53.3263 40.3398 53.0168C40.0155 52.7074 39.8333 52.2877 39.8333 51.8501H36.375C36.375 53.1629 36.9215 54.422 37.8944 55.3503C38.8672 56.2786 40.1867 56.8001 41.5625 56.8001C42.9383 56.8001 44.2578 56.2786 45.2306 55.3503C46.2035 54.422 46.75 53.1629 46.75 51.8501Z" fill="url(#paint4_linear)"/>
<defs>
<linearGradient id="paint0_linear" x1="41.5" y1="0" x2="41.5" y2="99" gradientUnits="userSpaceOnUse">
<stop stop-color="#7B2BE0"/>
<stop offset="1" stop-color="#D9C9FF"/>
</linearGradient>
<linearGradient id="paint1_linear" x1="76" y1="0" x2="76" y2="16" gradientUnits="userSpaceOnUse">
<stop stop-color="#7B2BE0"/>
<stop offset="1" stop-color="#D9C9FF"/>
</linearGradient>
<linearGradient id="paint2_linear" x1="31.1875" y1="37" x2="31.1875" y2="41.95" gradientUnits="userSpaceOnUse">
<stop stop-color="#7B2BE0"/>
<stop offset="1" stop-color="#C9BCFE"/>
</linearGradient>
<linearGradient id="paint3_linear" x1="51.9375" y1="37" x2="51.9375" y2="41.95" gradientUnits="userSpaceOnUse">
<stop stop-color="#7B2BE0"/>
<stop offset="1" stop-color="#C9BCFE"/>
</linearGradient>
<linearGradient id="paint4_linear" x1="41.5625" y1="51.8501" x2="41.5625" y2="56.8001" gradientUnits="userSpaceOnUse">
<stop stop-color="#7B2BE0"/>
<stop offset="1" stop-color="#C9BCFE"/>
</linearGradient>
</defs>
</svg>
