<svg width="28" height="28" viewBox="0 0 28 28" fill="none" xmlns="http://www.w3.org/2000/svg">
<path d="M11.1936 16.4058C8.61379 13.7332 8.03129 11.0606 7.89988 9.98984C7.86315 9.69377 7.9615 9.39685 8.16596 9.18652L10.2537 7.0247C10.5608 6.70675 10.6153 6.21123 10.3851 5.82986L7.06107 0.482773C6.80641 0.0604747 6.28351 -0.0919369 5.85365 0.130838L0.517448 2.73438C0.169837 2.91171 -0.0346233 3.29432 0.00484411 3.69363C0.284446 6.44539 1.44246 13.2099 7.85933 19.858C14.2762 26.5061 20.8049 27.7053 23.4625 27.995C23.848 28.0359 24.2173 27.8241 24.3885 27.464L26.9016 21.9358C27.1159 21.4915 26.9697 20.9512 26.5638 20.6869L21.4023 17.2443C21.0344 17.0056 20.5561 17.0617 20.249 17.3795L18.1622 19.5423C17.9592 19.7541 17.6726 19.856 17.3868 19.8179C16.3532 19.6818 13.7734 19.0783 11.1936 16.4058Z" fill="white"/>
<path d="M21.4381 14.9658C20.9233 14.9658 20.506 14.5335 20.506 14.0003C20.5017 10.0028 17.3747 6.76334 13.516 6.75881C13.0013 6.75881 12.584 6.32653 12.584 5.79329C12.584 5.26004 13.0013 4.82776 13.516 4.82776C18.4037 4.83335 22.3647 8.93675 22.3701 14.0003C22.3701 14.5335 21.9528 14.9658 21.4381 14.9658Z" fill="white"/>
<path d="M26.0981 14.9657C25.5834 14.9657 25.1661 14.5334 25.1661 14.0001C25.1589 7.33766 19.9472 1.9385 13.516 1.93105C13.0013 1.93105 12.584 1.49877 12.584 0.965527C12.584 0.432281 13.0013 0 13.516 0C20.9762 0.00851396 27.0219 6.27161 27.0301 14.0001C27.0301 14.2562 26.9319 14.5018 26.7571 14.6829C26.5823 14.8639 26.3453 14.9657 26.0981 14.9657Z" fill="white"/>
</svg>
