<svg width="15" height="15" viewBox="0 0 15 15" fill="none" xmlns="http://www.w3.org/2000/svg">
<path d="M12.3633 7.67578C11.3574 7.67578 10.4315 7.87711 9.60938 8.26752V3.45703C9.60938 1.55083 8.05855 0 6.15234 0C5.17397 0 4.28933 0.408633 3.65982 1.06406C3.3409 0.433535 2.68714 0 1.93359 0C0.867393 0 0 0.867393 0 1.93359V3.10547H1.17188V1.93359C1.17188 1.51359 1.51359 1.17188 1.93359 1.17188C2.35359 1.17188 2.69531 1.51359 2.69531 1.93359V10.4004H3.86719V3.45703C3.86719 2.197 4.89231 1.17188 6.15234 1.17188C7.41237 1.17188 8.4375 2.197 8.4375 3.45703V8.99414C8.4375 8.9993 8.43768 9.00439 8.43768 9.00955C8.13105 9.26036 7.84606 9.54527 7.5849 9.86385C6.50997 11.1751 5.91797 12.9991 5.91797 15H7.08984C7.08984 13.2887 7.59929 11.569 8.68433 10.3845C8.87701 10.9058 9.17897 11.3836 9.57879 11.7883C10.3184 12.5369 11.3073 12.9492 12.3633 12.9492C13.8172 12.9492 15 11.7664 15 10.3125C15 8.85861 13.8172 7.67578 12.3633 7.67578ZM12.3633 11.7773C11.0389 11.7773 9.92997 10.8276 9.66806 9.5666C10.3999 9.1137 11.2949 8.84766 12.3633 8.84766C13.171 8.84766 13.8281 9.50479 13.8281 10.3125C13.8281 11.1202 13.171 11.7773 12.3633 11.7773Z" fill="#00AE1C"/>
</svg>
