<svg width="60" height="60" viewBox="0 0 60 60" fill="none" xmlns="http://www.w3.org/2000/svg">
<path d="M57.0772 46.9123C56.1125 42.5913 52.5042 39.331 47.8861 38.6052L37.1833 36.9223V35.4648C44.3866 32.76 49.4983 26.1319 49.4983 18.3871C49.4983 8.24806 40.7516 0 29.9995 0C19.2474 0 10.5006 8.24806 10.5006 18.3871C10.5006 26.1319 15.6124 32.76 22.8157 35.4648V36.9223L12.1119 38.6052C7.49371 39.331 3.88643 42.5913 2.92072 46.9123L0 60H60L57.0772 46.9123ZM40.9609 39.4781L37.7241 48.6358L31.5009 43.501L36.509 38.7784L40.9609 39.4781ZM29.9995 42.18L24.8682 37.3413V36.1065C26.5061 36.5294 28.221 36.7742 29.9995 36.7742C31.778 36.7742 33.4929 36.5294 35.1308 36.1065V37.3413L29.9995 42.18ZM12.5532 18.3871C12.5532 9.31548 20.3794 1.93548 29.9995 1.93548C39.6196 1.93548 47.4458 9.31548 47.4458 18.3871C47.4458 27.4587 39.6196 34.8387 29.9995 34.8387C20.3794 34.8387 12.5532 27.4587 12.5532 18.3871ZM23.49 38.7784L28.4981 43.501L22.2749 48.6358L19.0381 39.4781L23.49 38.7784ZM25.1207 58.0645H10.6207L11.5207 50.429L9.48157 50.2152L8.55589 58.0645H2.52869L4.93013 47.311C5.72035 43.7758 8.67186 41.1077 12.4505 40.5145L16.9886 39.8013L21.304 52.0103L24.4218 49.4381L26.8202 52.4555L25.1207 58.0645ZM27.2543 58.0645L29.0738 52.0616L25.9694 48.1597L29.9533 44.8732L29.9995 44.9168L30.0457 44.8732L34.0286 48.1597L30.9241 52.0616L32.7437 58.0645H27.2543ZM50.5184 50.2161L48.4793 50.43L49.3783 58.0645H34.8783L33.1788 52.4545L35.5772 49.4371L38.6949 52.0094L43.0104 39.8003L47.5485 40.5135C51.3281 41.1077 54.2797 43.7748 55.0689 47.311L57.4703 58.0645H51.4431L50.5184 50.2161Z" fill="url(#paint0_linear)"/>
<path d="M29.4864 5.8064C26.3738 5.8064 23.842 8.19478 23.842 11.129V11.6128H25.8946V11.129C25.8946 9.26124 27.5058 7.74188 29.4864 7.74188C31.4671 7.74188 33.0783 9.26124 33.0783 11.129V11.7445C33.0783 12.6493 32.7048 13.499 32.0264 14.1406L28.9733 17.0187V22.258H31.0258V17.8199L33.4786 15.508C34.5449 14.5016 35.1308 13.1651 35.1308 11.7435V11.129C35.1308 8.19478 32.5991 5.8064 29.4864 5.8064Z" fill="url(#paint1_linear)"/>
<path d="M29.9994 25.1614C28.302 25.1614 26.9207 26.464 26.9207 28.0646C26.9207 29.6652 28.302 30.9678 29.9994 30.9678C31.6968 30.9678 33.0782 29.6652 33.0782 28.0646C33.0782 26.464 31.6968 25.1614 29.9994 25.1614ZM29.9994 29.0323C29.434 29.0323 28.9732 28.5988 28.9732 28.0646C28.9732 27.5304 29.434 27.0969 29.9994 27.0969C30.5649 27.0969 31.0257 27.5304 31.0257 28.0646C31.0257 28.5988 30.5649 29.0323 29.9994 29.0323Z" fill="url(#paint2_linear)"/>
<defs>
<linearGradient id="paint0_linear" x1="30" y1="0" x2="30" y2="60" gradientUnits="userSpaceOnUse">
<stop stop-color="#7B2BE0"/>
<stop offset="1" stop-color="#D9C9FF"/>
</linearGradient>
<linearGradient id="paint1_linear" x1="29.4864" y1="5.8064" x2="29.4864" y2="22.258" gradientUnits="userSpaceOnUse">
<stop stop-color="#7B2BE0"/>
<stop offset="1" stop-color="#D9C9FF"/>
</linearGradient>
<linearGradient id="paint2_linear" x1="29.9994" y1="25.1614" x2="29.9994" y2="30.9678" gradientUnits="userSpaceOnUse">
<stop stop-color="#7B2BE0"/>
<stop offset="1" stop-color="#D9C9FF"/>
</linearGradient>
</defs>
</svg>
