<svg width="62" height="62" viewBox="0 0 62 62" fill="none" xmlns="http://www.w3.org/2000/svg">
<path d="M28.8788 61.25L29.244 61.25L29.2206 61.1898C29.3231 61.1556 29.4206 61.1062 29.5099 61.0426C29.695 60.9108 29.8356 60.7248 29.9142 60.5104L29.9143 60.5102L33.2229 51.4608L33.223 51.4606C33.2836 51.2944 33.3052 51.1162 33.2862 50.9403C33.2672 50.7643 33.2081 50.5949 33.1133 50.4461L33.1128 50.4453L26.9116 40.7852L31.1712 30.2596C31.2404 30.0886 31.2677 29.9031 31.2507 29.7193C31.2338 29.5354 31.1731 29.3583 31.0736 29.2034C31.0736 29.2033 31.0736 29.2033 31.0735 29.2033L24.8572 19.5206L29.6686 6.20385L29.6686 6.20378C29.7468 5.98725 29.7584 5.75153 29.7021 5.5282C29.6459 5.30521 29.5243 5.10421 29.3526 4.95288C26.321 2.24118 22.439 0.747944 18.4213 0.75L18.4203 0.750004C16.1448 0.759905 13.8943 1.23811 11.8011 2.15631C9.70805 3.07448 7.81473 4.41399 6.23217 6.09578C4.45799 7.97524 3.06108 10.1959 2.12091 12.6308C1.18074 15.0656 0.715626 17.6672 0.751978 20.2869C0.797229 24.1684 2.14649 28.3014 4.22802 32.3947C6.31066 36.4901 9.1343 40.5613 12.1468 44.3233C18.1715 51.8471 24.9686 58.1552 28.1552 60.9745L28.1553 60.9746C28.3557 61.1516 28.6123 61.25 28.8788 61.25ZM7.81491 7.68006L7.81523 7.67972C9.19323 6.213 10.8415 5.04515 12.663 4.24437C14.4844 3.44368 16.4424 3.02603 18.4222 3.01575C21.6481 3.01331 24.7806 4.12662 27.3184 6.17572L22.5898 19.271C22.5898 19.2711 22.5898 19.2711 22.5898 19.2711C22.5292 19.4372 22.5077 19.6154 22.5266 19.7914C22.5456 19.9673 22.6047 20.1367 22.6995 20.2856L22.7 20.2863L28.9003 29.9455L24.6416 40.4721C24.6416 40.4721 24.6416 40.4721 24.6416 40.4722C24.5724 40.643 24.5452 40.8285 24.5621 41.0123C24.5791 41.1962 24.6397 41.3734 24.7393 41.5283L30.9518 51.2096L28.4011 58.1856C24.81 54.9303 18.5974 48.9623 13.2089 42.1065C10.4446 38.5896 7.90134 34.8441 6.04005 31.1158C4.17777 27.3854 3.00576 23.6872 2.96628 20.2605L2.96627 20.2598C2.93258 17.9371 3.34361 15.6306 4.1757 13.472C5.00779 11.3134 6.24454 9.34531 7.81491 7.68006Z" fill="url(#paint0_linear)" stroke="url(#paint1_linear)" stroke-width="0.5"/>
<path d="M35.0076 59.5107H35.0075C34.8378 59.5107 34.6707 59.4707 34.5189 59.3942C34.3672 59.3177 34.235 59.207 34.1322 59.0709L34.3316 58.9201L34.1322 59.0709C34.0294 58.9348 33.9584 58.7768 33.9242 58.6092C33.8901 58.4415 33.8935 58.2681 33.9342 58.102L33.9342 58.1019L36.0319 49.5609L30.8355 40.9719L35.0076 59.5107ZM35.0076 59.5107C35.2818 59.5108 35.5451 59.4068 35.7476 59.2206M35.0076 59.5107L28.8096 19.7508M28.8096 19.7508L28.8096 19.7507C28.7214 19.6086 28.6654 19.4484 28.6454 19.2819C28.6254 19.1155 28.6417 18.9464 28.6933 18.787C28.6933 18.787 28.6933 18.787 28.6933 18.787L33.2792 4.62575L33.2795 4.62476C33.353 4.4008 33.4935 4.20503 33.6824 4.06601C36.5363 1.91647 39.9799 0.754949 43.5173 0.75L43.5198 0.749997V0.75001C46.0339 0.771984 48.5155 1.33617 50.8045 2.40596C53.0928 3.47541 55.1378 5.02631 56.808 6.95837C58.417 8.75211 59.6372 10.8771 60.3882 13.1924C61.1393 15.5084 61.4039 17.9622 61.1644 20.3912L61.1644 20.3914C60.4252 27.8269 56.2673 35.5101 51.2113 42.3335C46.1514 49.1622 40.1708 55.1577 35.7476 59.2206M28.8096 19.7508L34.8093 29.4141L30.7466 39.9575C30.683 40.122 30.658 40.2993 30.6733 40.4753C30.6887 40.6511 30.744 40.8211 30.8353 40.9717L28.8096 19.7508ZM35.7476 59.2206L35.5785 59.0365L35.7477 59.2205C35.7477 59.2205 35.7477 59.2206 35.7476 59.2206ZM38.2925 49.6485L38.2925 49.6484C38.3286 49.5014 38.3354 49.3485 38.3127 49.1988C38.29 49.0491 38.2381 48.9053 38.1599 48.7761L33.01 40.2633L37.071 29.7134L37.071 29.7134C37.1349 29.5473 37.1595 29.3682 37.143 29.1908C37.1265 29.0133 37.0692 28.8421 36.9755 28.691L30.9568 18.9897L35.2674 5.6893C37.6862 3.95406 40.5617 3.02124 43.509 3.01575C45.7099 3.05058 47.8803 3.55302 49.8845 4.49187C51.8894 5.43103 53.6849 6.78678 55.1582 8.47459L55.1582 8.47461L55.1606 8.47729C56.5607 10.0353 57.6239 11.8824 58.2792 13.8964C58.9345 15.9103 59.167 18.0449 58.961 20.1585C58.3033 26.764 54.5907 33.7636 50.0589 40.0514C45.771 46.0008 40.7687 51.2872 36.9871 54.9634L38.2925 49.6485Z" fill="url(#paint2_linear)" stroke="url(#paint3_linear)" stroke-width="0.5"/>
<defs>
<linearGradient id="paint0_linear" x1="17.0214" y1="1" x2="17.0214" y2="61" gradientUnits="userSpaceOnUse">
<stop stop-color="#7B2BE0"/>
<stop offset="1" stop-color="#D9C9FF"/>
</linearGradient>
<linearGradient id="paint1_linear" x1="17.0214" y1="1" x2="17.0214" y2="61" gradientUnits="userSpaceOnUse">
<stop stop-color="#7B2BE0"/>
<stop offset="1" stop-color="#D9C9FF"/>
</linearGradient>
<linearGradient id="paint2_linear" x1="44.9435" y1="1" x2="44.9435" y2="59.2607" gradientUnits="userSpaceOnUse">
<stop stop-color="#7B2BE0"/>
<stop offset="1" stop-color="#D9C9FF"/>
</linearGradient>
<linearGradient id="paint3_linear" x1="44.9435" y1="1" x2="44.9435" y2="59.2607" gradientUnits="userSpaceOnUse">
<stop stop-color="#7B2BE0"/>
<stop offset="1" stop-color="#D9C9FF"/>
</linearGradient>
</defs>
</svg>
