<svg width="60" height="60" viewBox="0 0 60 60" fill="none" xmlns="http://www.w3.org/2000/svg">
<path d="M48.5041 0V3.67348H52.9274L44.2982 11.3386C41.2433 8.41008 36.9835 6.58898 32.2777 6.58898C25.9476 6.58898 20.4239 9.88336 17.5558 14.7376C17.3101 14.7275 17.0632 14.7214 16.8147 14.7214C7.54303 14.7214 0 21.7877 0 30.4736C0 38.5379 6.50288 45.2052 14.854 46.1179V50.9995H8.98374V54.673H14.8543V60H18.7756V54.6729H24.9023V50.9994H18.7756V46.1177C24.2732 45.5169 28.9692 42.4225 31.5368 38.0768C31.7825 38.0869 32.0293 38.093 32.2776 38.093C41.5494 38.093 49.0924 31.0267 49.0924 22.341C49.0924 19.3894 48.2207 16.6253 46.7068 14.2616L56.0787 5.93684V10.4993H60V0H48.5041ZM16.815 42.552C9.70553 42.552 3.92157 37.1336 3.92157 30.4733C3.92157 24.0727 9.2637 18.82 15.9902 18.4202C15.6461 19.6741 15.463 20.9878 15.463 22.341C15.463 29.4266 20.4832 35.4339 27.3665 37.4068C25.0315 40.5162 21.1725 42.552 16.815 42.552ZM29.13 34.0547C23.5372 32.7352 19.3844 27.9841 19.3844 22.341C19.3844 21.0946 19.5871 19.8916 19.963 18.7596C25.5558 20.0791 29.7085 24.8303 29.7085 30.4734C29.7085 31.7198 29.5058 32.9227 29.13 34.0547ZM33.1026 34.3939C33.4467 33.14 33.6298 31.8265 33.6298 30.4733C33.6298 23.3877 28.6096 17.3804 21.7264 15.4073C24.0614 12.2981 27.9206 10.2622 32.278 10.2622C39.3875 10.2622 45.1715 15.6806 45.1715 22.3409C45.1713 28.7415 39.8291 33.9943 33.1026 34.3939Z" fill="url(#paint0_linear)"/>
<defs>
<linearGradient id="paint0_linear" x1="30" y1="0" x2="30" y2="60" gradientUnits="userSpaceOnUse">
<stop stop-color="#7B2BE0"/>
<stop offset="1" stop-color="#D9C9FF"/>
</linearGradient>
</defs>
</svg>
