<svg width="38" height="60" viewBox="0 0 38 60" fill="none" xmlns="http://www.w3.org/2000/svg">
<path d="M32.4413 34.0047C39.8529 26.236 39.8529 13.5953 32.4413 5.82663C25.0298 -1.94221 12.9704 -1.94221 5.55867 5.82663C-1.85289 13.5953 -1.85289 26.236 5.55867 34.0047C8.69591 37.2931 12.6659 39.1891 16.7635 39.6937V46.3644H12.2909C11.0558 46.3644 10.0546 47.4139 10.0546 48.7085C10.0546 50.0031 11.0558 51.0526 12.2909 51.0526H16.7635V57.6559C16.7636 58.9505 17.7648 60 19.0001 60C20.2352 60 21.2364 58.9505 21.2364 57.6559V51.0526H25.7091C26.9442 51.0526 27.9454 50.0031 27.9454 48.7085C27.9454 47.4139 26.9442 46.3644 25.7091 46.3644H21.2364V39.6938C25.3341 39.1891 29.3041 37.2931 32.4413 34.0047ZM8.72139 30.6896C3.05369 24.7488 3.05369 15.0825 8.72139 9.14163C14.389 3.20104 23.6108 3.20069 29.2787 9.14163C34.9464 15.0825 34.9464 24.7488 29.2787 30.6896C23.611 36.6303 14.3891 36.6303 8.72139 30.6896Z" fill="url(#paint0_linear)"/>
<defs>
<linearGradient id="paint0_linear" x1="19" y1="0" x2="19" y2="60" gradientUnits="userSpaceOnUse">
<stop stop-color="#7B2BE0"/>
<stop offset="1" stop-color="#CABDFE"/>
</linearGradient>
</defs>
</svg>
