<svg width="83" height="99" viewBox="0 0 83 99" fill="none" xmlns="http://www.w3.org/2000/svg">
<path d="M31.125 31.3501C29.7492 31.3501 28.4297 31.8716 27.4569 32.7999C26.484 33.7282 25.9375 34.9873 25.9375 36.3001H29.3958C29.3958 35.8625 29.578 35.4428 29.9023 35.1334C30.2266 34.8239 30.6664 34.6501 31.125 34.6501C31.5836 34.6501 32.0234 34.8239 32.3477 35.1334C32.672 35.4428 32.8542 35.8625 32.8542 36.3001H36.3125C36.3125 34.9873 35.766 33.7282 34.7931 32.7999C33.8203 31.8716 32.5008 31.3501 31.125 31.3501Z" fill="url(#paint0_linear)"/>
<path d="M51.875 34.6501C52.3336 34.6501 52.7734 34.8239 53.0977 35.1334C53.422 35.4428 53.6042 35.8625 53.6042 36.3001H57.0625C57.0625 34.9873 56.516 33.7282 55.5431 32.7999C54.5703 31.8716 53.2508 31.3501 51.875 31.3501C50.4992 31.3501 49.1797 31.8716 48.2069 32.7999C47.234 33.7282 46.6875 34.9873 46.6875 36.3001H50.1458C50.1458 35.8625 50.328 35.4428 50.6523 35.1334C50.9766 34.8239 51.4164 34.6501 51.875 34.6501Z" fill="url(#paint1_linear)"/>
<path d="M71.3973 68.409L50.1458 63.0795V57.75C54.4301 56.032 58.0537 53.093 60.5208 49.335V52.8C60.5272 56.7366 62.1689 60.5102 65.0861 63.2938C68.0032 66.0774 71.9579 67.6439 76.0833 67.65H79.5417C80.0003 67.65 80.4401 67.4762 80.7644 67.1667C81.0887 66.8573 81.2708 66.4376 81.2708 66V52.8C81.2663 49.3848 80.0295 46.0753 77.7684 43.4279C75.5074 40.7805 72.3599 38.9568 68.8554 38.2635C70.1678 36.7952 70.891 34.9298 70.8958 33C70.8863 31.2316 70.2799 29.5133 69.1667 28.0995V26.4C69.1667 19.3983 66.2518 12.6833 61.0633 7.73238C55.8748 2.78142 48.8377 0 41.5 0C34.1623 0 27.1252 2.78142 21.9367 7.73238C16.7482 12.6833 13.8333 19.3983 13.8333 26.4V28.0995C12.9443 29.2245 12.3747 30.5495 12.1798 31.9461C11.9849 33.3428 12.1713 34.7639 12.7209 36.0716C13.2705 37.3794 14.1647 38.5296 15.3169 39.4108C16.469 40.292 17.8402 40.8744 19.2975 41.1015C19.8665 44.7546 21.413 48.2059 23.7877 51.1222C26.1624 54.0386 29.2851 56.3213 32.8542 57.75V63.0795L11.5854 68.409C8.2665 69.2548 5.33253 71.1214 3.23803 73.7196C1.14353 76.3178 0.00541046 79.5025 0 82.7805V97.35C0 97.7876 0.18218 98.2073 0.506462 98.5167C0.830743 98.8262 1.27056 99 1.72917 99H81.2708C81.7294 99 82.1693 98.8262 82.4935 98.5167C82.8178 98.2073 83 97.7876 83 97.35V82.7805C82.9942 79.5002 81.8538 76.3135 79.7558 73.7149C77.6579 71.1164 74.7197 69.2512 71.3973 68.409ZM77.8125 52.8V64.35H76.0833C72.8742 64.3465 69.7976 63.1285 67.5284 60.9632C65.2593 58.7979 63.9828 55.8622 63.9792 52.8V41.25H65.7083C68.9174 41.2535 71.994 42.4715 74.2632 44.6368C76.5324 46.8021 77.8088 49.7378 77.8125 52.8ZM67.4375 33C67.4324 34.0188 67.0974 35.0112 66.4783 35.8412C65.8592 36.6712 64.9863 37.2983 63.9792 37.6365V28.347C64.7008 28.5935 65.3605 28.9813 65.9158 29.4855C66.8911 30.4183 67.4384 31.6824 67.4375 33ZM19.0208 37.653C18.1967 37.3747 17.4596 36.9022 16.8781 36.2794C16.2965 35.6565 15.8894 34.9035 15.6944 34.0903C15.4995 33.2771 15.5231 32.4301 15.763 31.6279C16.003 30.8258 16.4515 30.0945 17.0669 29.502C17.623 28.9867 18.2897 28.5927 19.0208 28.347V37.653ZM17.3435 25.4265C17.6094 19.4798 20.2693 13.8602 24.7693 9.73842C29.2693 5.61659 35.2623 3.31031 41.5 3.3C47.7386 3.30747 53.7333 5.6128 58.2339 9.73522C62.7345 13.8576 65.3936 19.4788 65.6565 25.4265C64.7779 25.0727 63.8419 24.8661 62.8898 24.816L51.1488 16.8135C50.9377 16.6656 50.6936 16.5663 50.4356 16.5234C50.1776 16.4805 49.9128 16.495 49.6617 16.566L20.3696 24.783C19.3283 24.8202 18.3028 25.0382 17.3435 25.4265ZM22.4792 37.95V27.6375L49.8173 19.965L60.5208 27.2415V37.95C60.5208 42.7637 58.5169 47.3802 54.9498 50.784C51.3827 54.1878 46.5446 56.1 41.5 56.1C36.4554 56.1 31.6173 54.1878 28.0502 50.784C24.4831 47.3802 22.4792 42.7637 22.4792 37.95ZM35.0156 65.9505C35.3853 65.8554 35.7121 65.6475 35.9463 65.3585C36.1805 65.0695 36.3091 64.7153 36.3125 64.35V58.806C39.721 59.598 43.279 59.598 46.6875 58.806V64.35C46.6909 64.7153 46.8195 65.0695 47.0537 65.3585C47.2879 65.6475 47.6147 65.8554 47.9844 65.9505L53.5177 67.3365C53.1645 70.1409 51.7466 72.7247 49.5321 74.599C47.3177 76.4734 44.4601 77.5085 41.5 77.5085C38.5399 77.5085 35.6823 76.4734 33.4679 74.599C31.2534 72.7247 29.8355 70.1409 29.4823 67.3365L35.0156 65.9505ZM79.5417 95.7H66.5037C67.8455 94.2793 68.7265 92.5176 69.0398 90.6286C69.3531 88.7396 69.0854 86.8044 68.269 85.0577C67.4526 83.311 66.1226 81.8279 64.4404 80.7881C62.7582 79.7484 60.796 79.1967 58.7917 79.2V82.5C60.6261 82.5 62.3854 83.1954 63.6825 84.4331C64.9796 85.6708 65.7083 87.3496 65.7083 89.1C65.7083 90.8504 64.9796 92.5292 63.6825 93.7669C62.3854 95.0046 60.6261 95.7 58.7917 95.7H24.2083C22.3739 95.7 20.6146 95.0046 19.3175 93.7669C18.0204 92.5292 17.2917 90.8504 17.2917 89.1C17.2917 87.3496 18.0204 85.6708 19.3175 84.4331C20.6146 83.1954 22.3739 82.5 24.2083 82.5V79.2C22.204 79.1967 20.2418 79.7484 18.5596 80.7881C16.8774 81.8279 15.5474 83.311 14.731 85.0577C13.9146 86.8044 13.6469 88.7396 13.9602 90.6286C14.2735 92.5176 15.1545 94.2793 16.4963 95.7H3.45833V82.7805C3.46285 80.2322 4.34808 77.7564 5.97683 75.7369C7.60558 73.7173 9.88691 72.2668 12.4673 71.61L26.1277 68.178C26.6687 71.6997 28.5195 74.9182 31.3419 77.2453C34.1642 79.5725 37.7699 80.8531 41.5 80.8531C45.2301 80.8531 48.8358 79.5725 51.6581 77.2453C54.4805 74.9182 56.3313 71.6997 56.8723 68.178L70.5154 71.61C73.0993 72.2632 75.3848 73.7123 77.017 75.7322C78.6492 77.7522 79.5367 80.2299 79.5417 82.7805V95.7Z" fill="url(#paint2_linear)"/>
<path d="M46.6875 46.2001H43.2292C43.2292 46.6377 43.047 47.0574 42.7227 47.3668C42.3984 47.6762 41.9586 47.8501 41.5 47.8501C41.0414 47.8501 40.6016 47.6762 40.2773 47.3668C39.953 47.0574 39.7708 46.6377 39.7708 46.2001H36.3125C36.3125 47.5129 36.859 48.7719 37.8319 49.7002C38.8047 50.6286 40.1242 51.1501 41.5 51.1501C42.8758 51.1501 44.1953 50.6286 45.1681 49.7002C46.141 48.7719 46.6875 47.5129 46.6875 46.2001Z" fill="url(#paint3_linear)"/>
<path d="M81.3909 10.2014C83.5364 7.87081 83.5364 4.0786 81.3909 1.74799C79.2455 -0.582663 75.7546 -0.582663 73.6091 1.74799C71.4636 4.0786 71.4636 7.87081 73.6091 10.2014C74.5172 11.1879 75.6664 11.7567 76.8526 11.9081V13.9093H75.5579C75.2004 13.9093 74.9106 14.2242 74.9106 14.6126C74.9106 15.0009 75.2004 15.3158 75.5579 15.3158H76.8526V17.2968C76.8526 17.6851 77.1425 18 77.5 18C77.8575 18 78.1474 17.6851 78.1474 17.2968V15.3158H79.4421C79.7996 15.3158 80.0894 15.0009 80.0894 14.6126C80.0894 14.2242 79.7996 13.9093 79.4421 13.9093H78.1474V11.9082C79.3336 11.7567 80.4828 11.1879 81.3909 10.2014ZM74.5246 9.20689C72.884 7.42464 72.884 4.52474 74.5246 2.74249C76.1652 0.960312 78.8347 0.960206 80.4754 2.74249C82.1161 4.52474 82.1161 7.42464 80.4754 9.20689C78.8348 10.9891 76.1653 10.9891 74.5246 9.20689Z" fill="url(#paint4_linear)"/>
<defs>
<linearGradient id="paint0_linear" x1="31.125" y1="31.3501" x2="31.125" y2="36.3001" gradientUnits="userSpaceOnUse">
<stop stop-color="#7B2BE0"/>
<stop offset="1" stop-color="#C9BCFE"/>
</linearGradient>
<linearGradient id="paint1_linear" x1="51.875" y1="31.3501" x2="51.875" y2="36.3001" gradientUnits="userSpaceOnUse">
<stop stop-color="#7B2BE0"/>
<stop offset="1" stop-color="#C9BCFE"/>
</linearGradient>
<linearGradient id="paint2_linear" x1="41.5" y1="0" x2="41.5" y2="99" gradientUnits="userSpaceOnUse">
<stop stop-color="#7B2BE0"/>
<stop offset="1" stop-color="#C9BCFE"/>
</linearGradient>
<linearGradient id="paint3_linear" x1="41.5" y1="46.2001" x2="41.5" y2="51.1501" gradientUnits="userSpaceOnUse">
<stop stop-color="#7B2BE0"/>
<stop offset="1" stop-color="#C9BCFE"/>
</linearGradient>
<linearGradient id="paint4_linear" x1="77.5" y1="0" x2="77.5" y2="18" gradientUnits="userSpaceOnUse">
<stop stop-color="#7B2BE0"/>
<stop offset="1" stop-color="#CABDFE"/>
</linearGradient>
</defs>
</svg>
