<svg width="15" height="15" viewBox="0 0 15 15" fill="none" xmlns="http://www.w3.org/2000/svg">
<path d="M13.8281 12.5977C13.8281 12.9294 13.6981 13.2404 13.462 13.4734C13.226 13.7064 12.9137 13.8311 12.5811 13.828C11.9118 13.8193 11.3672 13.2553 11.3672 12.5706V2.63672C11.3672 1.18283 10.1844 0 8.73047 0C7.27658 0 6.09375 1.18283 6.09375 2.63672V8.69748C5.44605 8.09997 4.58139 7.73438 3.63281 7.73438C1.62967 7.73438 0 9.36404 0 11.3672C0 13.3703 1.62967 15 3.63281 15C5.63596 15 7.26562 13.3703 7.26562 11.3672V2.63672C7.26562 1.829 7.92275 1.17188 8.73047 1.17188C9.53818 1.17188 10.1953 1.829 10.1953 2.63672V12.5706C10.1953 13.8931 11.2588 14.9828 12.5659 14.9998C12.5767 14.9999 12.5873 15 12.5981 15C13.234 15 13.8321 14.7548 14.2853 14.3074C14.7462 13.8524 15 13.2452 15 12.5977H13.8281ZM3.63281 13.8281C2.27584 13.8281 1.17188 12.7242 1.17188 11.3672C1.17188 10.0102 2.27584 8.90625 3.63281 8.90625C4.98979 8.90625 6.09375 10.0102 6.09375 11.3672C6.09375 12.7242 4.98979 13.8281 3.63281 13.8281Z" fill="#00AE1C"/>
</svg>
