<svg width="53" height="60" viewBox="0 0 53 60" fill="none" xmlns="http://www.w3.org/2000/svg">
<path d="M52.9714 2.17773C52.9472 1.96228 52.9051 1.75476 52.8356 1.56006C52.8334 1.55518 52.8334 1.54846 52.8323 1.54236C52.8323 1.54114 52.8312 1.53992 52.8302 1.5387C52.7536 1.33362 52.649 1.14746 52.5309 0.974731C52.5018 0.933838 52.4733 0.893555 52.4425 0.855102C52.3164 0.69397 52.1794 0.545044 52.0204 0.423584C52.0161 0.419922 52.0107 0.418701 52.0064 0.415039C51.8527 0.300293 51.6829 0.213623 51.505 0.145264C51.4607 0.127563 51.4176 0.112305 51.3723 0.0988769C51.1858 0.0415039 50.9938 0 50.7917 0H35.3333C34.1143 0 33.125 1.12 33.125 2.5C33.125 3.88 34.1143 5 35.3333 5H45.4595L32.2791 19.9213C28.7644 16.7389 24.4372 15 19.875 15C8.91636 15 0 25.094 0 37.5C0 49.906 8.91636 60 19.875 60C30.8336 60 39.75 49.906 39.75 37.5C39.75 32.3376 38.2151 27.4402 35.4018 23.4576L48.5833 8.53516V20C48.5833 21.38 49.5727 22.5 50.7917 22.5C52.0107 22.5 53 21.38 53 20V2.5C53 2.44751 52.9892 2.39746 52.9865 2.34619C52.9833 2.28882 52.9779 2.23389 52.9714 2.17773ZM19.875 55C11.3506 55 4.41667 47.1503 4.41667 37.5C4.41667 27.8497 11.3506 20 19.875 20C24.0021 20 27.8878 21.8188 30.8094 25.1147C33.7267 28.429 35.3333 32.8278 35.3333 37.5C35.3333 47.1503 28.3994 55 19.875 55Z" fill="url(#paint0_linear)"/>
<defs>
<linearGradient id="paint0_linear" x1="26.5" y1="0" x2="26.5" y2="60" gradientUnits="userSpaceOnUse">
<stop stop-color="#7B2BE0"/>
<stop offset="1" stop-color="#CABDFE"/>
</linearGradient>
</defs>
</svg>
