<svg width="60" height="60" viewBox="0 0 60 60" fill="none" xmlns="http://www.w3.org/2000/svg">
<path d="M22.0456 10.7322L29.1841 17.681C29.4112 17.9021 29.7047 18.0125 29.9982 18.0125C30.2916 18.0125 30.5851 17.9021 30.8121 17.6812L37.9539 10.7325C37.9641 10.7226 37.9742 10.7124 37.9841 10.7021C40.3841 8.19112 40.3839 4.10853 37.9838 1.60177C36.9372 0.507361 35.504 -0.0589755 33.9493 0.00492196C32.4951 0.0653942 31.092 0.666101 30 1.69484C28.9063 0.66551 27.5039 0.0653942 26.0505 0.00492196C24.4957 -0.0593298 23.0625 0.507243 22.0165 1.60118C19.616 4.10853 19.6158 8.19112 22.0158 10.7021C22.0256 10.7123 22.0356 10.7223 22.0456 10.7322ZM23.7036 3.2409C25.0236 1.86066 27.1708 2.26153 28.4038 3.42444L28.469 3.48597C28.9434 3.93396 29.3531 4.32101 29.9988 4.32101C30.6431 4.32101 31.0537 3.93479 31.5291 3.48763L31.5964 3.42432C32.8291 2.26165 34.9768 1.86055 36.2969 3.24137C37.8276 4.84022 37.8318 7.441 36.3099 9.04883L29.9986 15.1896L23.69 9.04871C22.1681 7.441 22.1723 4.84022 23.7036 3.2409Z" fill="url(#paint0_linear)"/>
<path d="M59.9998 50.7848C59.8969 44.6145 54.9022 43.2562 50.889 42.1647C50.356 42.0198 49.8421 41.88 49.347 41.7333V39.5034C52.5144 37.3979 54.8944 33.683 54.8944 30.4508V25.1471C54.8944 19.3785 50.241 14.6854 44.5211 14.6854C38.5833 14.6854 33.932 19.2807 33.932 25.1471V30.4508C33.932 33.6872 36.3115 37.401 39.4795 39.5046V41.7333C38.984 41.8801 38.4699 42.0199 37.9366 42.165C37.5818 42.2614 37.2194 42.3601 36.8534 42.4639C36.8415 42.4669 36.8296 42.4706 36.8178 42.474C36.8109 42.4758 36.804 42.4777 36.797 42.4799C34.2342 43.2094 31.5056 44.203 29.9982 46.5328C29.6888 46.0546 29.3286 45.632 28.9283 45.2571L26.7091 30.2397V25.9043C26.7091 19.7182 21.7189 14.6854 15.5852 14.6854C9.45139 14.6854 4.4612 19.7182 4.4612 25.9043V30.2397L2.24179 45.2574C0.929881 46.486 0.0414843 48.2194 0 50.7853V50.8046V58.8188C0 59.4711 0.524765 59.9999 1.17187 59.9999H10.3234C10.9705 59.9999 11.4953 59.4711 11.4953 58.8188C11.4953 58.1665 10.9705 57.6377 10.3234 57.6377H7.79143V52.309C7.79143 52.0875 7.77303 51.3771 7.77877 51.2723C7.84709 51.2147 8.00483 51.1015 8.36811 50.8933C9.95072 49.9861 13.3329 50.1672 14.7562 51.6027C14.9759 51.8244 15.2742 51.949 15.5851 51.949C15.896 51.949 16.1942 51.8244 16.414 51.6027C17.8373 50.1672 21.2192 49.9861 22.8018 50.8932C23.1653 51.1015 23.3231 51.2147 23.3913 51.2723C23.397 51.3771 23.3786 57.6377 23.3786 57.6377H20.8468C20.1997 57.6377 19.6749 58.1665 19.6749 58.8188C19.6749 59.4711 20.1997 59.9999 20.8468 59.9999H29.9983H44.408C44.4088 59.9999 44.4096 60 44.4105 60C44.4108 60 44.4112 59.9999 44.4115 59.9999C44.412 59.9999 58.8281 59.9998 58.8281 59.9998C59.4752 59.9998 60 59.471 60 58.8187V50.8045C59.9999 50.798 59.9999 50.7914 59.9998 50.7848ZM26.3092 43.569C24.9367 42.9463 23.4416 42.5397 22.0624 42.1646C21.5294 42.0197 21.0155 41.88 20.5205 41.7332V39.8181C22.5471 38.3556 24.1778 36.1873 24.8949 33.9982L26.3092 43.569ZM17.3129 38.9057C16.0214 39.3893 15.152 39.3901 13.8674 38.9092C10.9134 37.8027 8.22327 34.3589 8.22327 31.6838V30.2178C9.86658 29.2087 11.0881 28.2142 12.0833 27.0782C14.8552 28.8968 18.4973 30.242 22.9468 31.0927V31.6838C22.9468 34.3552 20.2609 37.7978 17.3129 38.9057ZM6.80483 25.9043C6.80483 21.0207 10.7436 17.0476 15.5851 17.0476C20.4266 17.0476 24.3652 21.0207 24.3652 25.9043V28.9493C19.2891 28.0901 15.3214 26.6072 12.5576 24.5346C12.3541 24.382 12.1085 24.3011 11.8579 24.3011C11.8009 24.3011 11.7435 24.3054 11.6864 24.3139C11.3784 24.3598 11.1013 24.5274 10.9161 24.7794C10.072 25.9287 8.99811 27.0063 6.80483 28.3231V25.9043ZM6.27538 33.9973C6.99233 36.1884 8.62405 38.3574 10.6529 39.8203V41.7333C10.1578 41.88 9.64393 42.0196 9.11108 42.1644C7.73073 42.5396 6.23436 42.9464 4.86081 43.5694L6.27538 33.9973ZM28.8263 57.6376H25.7224V52.3088C25.7224 52.1109 25.7269 51.938 25.7309 51.7849C25.7688 50.3346 25.5295 49.7392 23.9606 48.8396C21.8307 47.6188 18.0013 47.6251 15.5851 49.2511C13.169 47.6251 9.33959 47.6189 7.20936 48.8396C5.64046 49.7391 5.40116 50.3345 5.43913 51.7848C5.44311 51.9379 5.44768 52.1108 5.44768 52.3087V57.6375H2.34375V50.8145C2.41382 46.725 5.17827 45.6799 9.72139 44.445C10.5436 44.2215 11.3938 43.9904 12.1926 43.7241C12.6726 43.5642 12.9967 43.1122 12.9967 42.6027V41.1016C13.0148 41.1086 13.0327 41.1165 13.051 41.1234C13.9496 41.4599 14.7661 41.6281 15.5833 41.6281C16.4036 41.6281 17.2249 41.4586 18.1304 41.1195C18.1459 41.1137 18.1611 41.1068 18.1767 41.1009V42.6027C18.1767 43.1121 18.5007 43.564 18.9805 43.724C19.7791 43.9904 20.6294 44.2215 21.4516 44.4451C25.9926 45.68 28.756 46.7256 28.8263 50.814V57.6376ZM50.0256 44.3759L48.3619 47.8507L46.1866 45.8727L48.4431 43.9261C48.9654 44.0853 49.4988 44.2323 50.0256 44.3759ZM44.4174 44.2897L41.8232 42.0175V40.6933C42.7395 41.0229 43.579 41.1896 44.4169 41.1896C45.2541 41.1896 46.0914 41.023 47.0032 40.6938V42.0589L44.4174 44.2897ZM44.5211 17.0476C48.9485 17.0476 52.5506 20.681 52.5506 25.1471V25.1869C47.3185 27.5863 45.2212 26.5668 43.0077 25.488C41.2962 24.6538 39.387 23.7254 36.3125 24.375C36.6966 20.2087 40.1632 17.0476 44.5211 17.0476ZM36.2758 30.4508V26.8095C38.8789 26.1005 40.2688 26.7769 41.9874 27.6147C43.3869 28.2969 44.8876 29.0284 47.0452 29.0283C48.5161 29.0283 50.293 28.6876 52.5505 27.7597V30.4508C52.5505 31.8294 51.8913 33.4889 50.742 35.0035C49.5504 36.5739 47.9435 37.8217 46.3326 38.4276C44.903 38.9669 43.9362 38.9676 42.5004 38.4299C39.2427 37.2115 36.2758 33.4084 36.2758 30.4508ZM40.4175 43.916L42.6442 45.8663L40.4618 47.8522L39.7609 46.3882L39.695 46.2472C39.6899 46.2365 39.6838 46.2267 39.6784 46.2161L38.7979 44.3772C39.337 44.2302 39.8838 44.0792 40.4175 43.916ZM31.1701 57.6376V50.8207C31.2209 47.7366 32.8033 46.3824 35.5239 45.3737L33.8855 52.5291C33.774 53.0166 33.9792 53.5221 34.3979 53.7909L40.3901 57.6376H31.1701ZM36.3555 52.247L37.5228 47.1489L41.5648 55.591L36.3555 52.247ZM41.5232 50.0689L44.4118 47.4404L47.3005 50.0671L44.4114 56.1011L41.5232 50.0689ZM51.301 47.1473L52.4704 52.2471L47.2575 55.5923L51.301 47.1473ZM57.6561 57.6376H48.434L54.4282 53.791C54.847 53.5222 55.0524 53.0163 54.9406 52.5286L53.2998 45.3737C56.0183 46.3819 57.6015 47.7347 57.6561 50.8149V57.6376Z" fill="url(#paint1_linear)"/>
<path d="M15.585 57.6376C14.9379 57.6376 14.4131 58.1664 14.4131 58.8187C14.4131 59.471 14.9379 59.9998 15.585 59.9998H15.5916C16.2387 59.9998 16.7602 59.471 16.7602 58.8187C16.7602 58.1664 16.2322 57.6376 15.585 57.6376Z" fill="url(#paint2_linear)"/>
<defs>
<linearGradient id="paint0_linear" x1="30" y1="0" x2="30" y2="18.0125" gradientUnits="userSpaceOnUse">
<stop stop-color="#7B2BE0"/>
<stop offset="1" stop-color="#D9C9FF"/>
</linearGradient>
<linearGradient id="paint1_linear" x1="30" y1="14.6854" x2="30" y2="60" gradientUnits="userSpaceOnUse">
<stop stop-color="#7B2BE0"/>
<stop offset="1" stop-color="#D9C9FF"/>
</linearGradient>
<linearGradient id="paint2_linear" x1="15.5867" y1="57.6376" x2="15.5867" y2="59.9998" gradientUnits="userSpaceOnUse">
<stop stop-color="#7B2BE0"/>
<stop offset="1" stop-color="#D9C9FF"/>
</linearGradient>
</defs>
</svg>
