<svg width="31" height="60" viewBox="0 0 31 60" fill="none" xmlns="http://www.w3.org/2000/svg">
<path d="M-3.22427e-06 27.8571C0.0166921 34.9835 5.19797 41.1207 12.4104 42.5571C12.9676 42.6674 13.3494 43.1663 13.2961 43.7143C13.2871 43.7307 13.2833 43.7493 13.285 43.7679V49.2857C13.285 49.8774 12.7893 50.3571 12.1779 50.3571H9.96375C8.74089 50.3571 7.74958 51.3165 7.74958 52.5C7.74958 53.6835 8.74089 54.6429 9.96375 54.6429H12.1779C12.7893 54.6429 13.285 55.1226 13.285 55.7143V57.8571C13.285 59.0406 14.2763 60 15.4992 60C16.722 60 17.7133 59.0406 17.7133 57.8571V55.7143C17.7133 55.1226 18.209 54.6429 18.8204 54.6429H21.0346C22.2574 54.6429 23.2487 53.6835 23.2487 52.5C23.2487 51.3165 22.2574 50.3571 21.0346 50.3571H18.8204C18.209 50.3571 17.7133 49.8774 17.7133 49.2857V43.6071C17.7065 43.0993 18.0737 42.6585 18.5879 42.5571C24.5695 41.3803 29.2803 36.9153 30.6209 31.1522C31.9614 25.3891 29.6821 19.4012 24.7987 15.8571C24.5199 15.6548 24.3558 15.3372 24.3558 15C24.3558 14.6628 24.5199 14.3452 24.7987 14.1429C28.7106 11.3174 31.0099 6.86685 30.9983 2.14286C30.9983 0.95939 30.007 0 28.7842 0C27.5613 0 26.57 0.95939 26.57 2.14286C26.57 8.06019 21.6134 12.8571 15.4992 12.8571C9.38491 12.8571 4.42833 8.06019 4.42833 2.14286C4.42833 0.95939 3.43701 0 2.21416 0C0.991313 0 -3.22427e-06 0.95939 -3.22427e-06 2.14286C-0.0115703 6.86685 2.28776 11.3174 6.19966 14.1429C6.47843 14.3452 6.6425 14.6628 6.6425 15C6.6425 15.3372 6.47843 15.6548 6.19966 15.8571C2.28387 18.6794 -0.0165189 23.132 -3.22427e-06 27.8571ZM15.4992 17.1429C21.6134 17.1429 26.57 21.9398 26.57 27.8571C26.57 33.7745 21.6134 38.5714 15.4992 38.5714C9.38491 38.5714 4.42833 33.7745 4.42833 27.8571C4.43808 21.9437 9.38895 17.1523 15.4992 17.1429Z" fill="url(#paint0_linear)"/>
<defs>
<linearGradient id="paint0_linear" x1="15.4999" y1="0" x2="15.4999" y2="60" gradientUnits="userSpaceOnUse">
<stop stop-color="#7B2BE0"/>
<stop offset="1" stop-color="#D9C9FF"/>
</linearGradient>
</defs>
</svg>
