<svg width="15" height="15" viewBox="0 0 15 15" fill="none" xmlns="http://www.w3.org/2000/svg">
<path d="M13.4838 12.2849C12.8734 11.3318 12.1574 9.86906 12.0245 8.11334H14.1718V6.9394H12.0267C12.1648 5.18891 12.8782 3.71388 13.487 2.74732C14.2331 1.56257 14.9924 0.854453 15 0.847439L14.5768 0.424027L14.1543 0C14.1194 0.0320486 13.2907 0.800305 12.4624 2.1064C11.4827 3.65104 10.9147 5.30979 10.8018 6.9394H4.19821C4.08535 5.30982 3.51731 3.65104 2.53764 2.1064C1.70927 0.800305 0.880588 0.0320486 0.845697 0L0 0.847439C0.00757705 0.854453 0.766902 1.56257 1.51303 2.74732C2.12176 3.71388 2.83519 5.18891 2.97326 6.9394H0.850922V8.11334H2.97549C2.84268 9.86906 2.12662 11.3318 1.51627 12.2849C0.77179 13.4474 0.0140848 14.1339 0.00721042 14.14L0.839128 15C0.874111 14.9688 1.70514 14.2207 2.5352 12.9342C3.52165 11.4053 4.0914 9.75014 4.20001 8.11334H10.8C10.9086 9.75014 11.4784 11.4053 12.4648 12.9342C13.2948 14.2206 14.1259 14.9688 14.1609 15L14.9935 14.1407C14.9859 14.1339 14.2282 13.4474 13.4838 12.2849Z" fill="#006B12" fill-opacity="0.5"/>
</svg>
