<svg width="60" height="60" viewBox="0 0 60 60" fill="none" xmlns="http://www.w3.org/2000/svg">
<path d="M58.3416 44.7925L57 44.0865V29.4739C57 24.4469 55.9075 20.5838 53.7526 17.9914C52.9175 16.9674 51.8813 16.1462 50.7155 15.5844C49.5497 15.0226 48.2821 14.7335 47 14.7372C43.6225 14.7372 41.5116 16.1239 40.6864 16.7964C38.6812 16.5952 37.0256 17.0789 35.7614 18.2373C32.9937 20.7739 32.998 25.8141 33 28.2362V44.0863L31.6581 44.7925C31.4423 44.9066 31.2402 45.0474 31.0561 45.212C30.9 45.0554 30.7282 44.9173 30.5436 44.8L22 39.4041V38.6735C22.9256 37.9955 23.6818 37.092 24.2042 36.0401C24.7265 34.9881 24.9996 33.8188 25 32.6318V29.8997C26.975 27.5362 27 24.3636 27 24.2235C27 21.8519 26.3554 20.0932 25.0841 18.9961C23.8031 17.8909 22.2466 17.804 21.4066 17.8552C20.058 16.3308 18.2792 15.3035 16.3331 14.9251C14.3907 14.5617 12.3916 14.7459 10.5387 15.4591C7.17412 16.7413 5 19.3556 5 22.1187C5 26.3487 6.24037 28.2072 7 28.9495V32.6318C7.00044 33.8188 7.27346 34.9881 7.79582 36.0401C8.31818 37.092 9.07438 37.9955 10 38.6735V39.4041L1.4565 44.8C1.01328 45.0818 0.646457 45.4789 0.391357 45.9532C0.136256 46.4274 0.0014765 46.9629 0 47.5079V58.9474C0 59.2266 0.105357 59.4943 0.292893 59.6917C0.480429 59.8891 0.734783 60 1 60H59C59.2652 60 59.5196 59.8891 59.7071 59.6917C59.8946 59.4943 60 59.2266 60 58.9474V47.6171C60.0019 47.0302 59.8475 46.4545 59.5544 45.9553C59.2613 45.456 58.8411 45.0532 58.3416 44.7925ZM7 22.1187C7 20.2815 8.69575 18.4009 11.2195 17.439C13.9209 16.4097 17.707 16.4456 20.232 19.6348C20.3472 19.7804 20.4976 19.8905 20.6674 19.9535C20.8371 20.0166 21.0199 20.0303 21.1964 19.9931C21.2117 19.9899 22.7442 19.6995 23.8164 20.6247C24.6019 21.3026 25.0002 22.5136 25.0002 24.2207C25.0002 24.2431 24.9762 26.0638 24.0627 27.6888L20.8319 22.5876C20.754 22.4647 20.6525 22.3604 20.5339 22.2815C20.4153 22.2026 20.2822 22.1509 20.1433 22.1297C20.0045 22.1085 19.8629 22.1183 19.7279 22.1585C19.5929 22.1986 19.4674 22.2683 19.3596 22.3628C19.3036 22.4119 13.7971 27.1879 8.32975 27.3759C7.95 26.9823 7 25.645 7 22.1187ZM9 32.6318V29.4424C13.6101 29.05 17.9512 26.0861 19.7616 24.6924L23 29.8053V32.6318C22.9985 34.0272 22.4712 35.365 21.5339 36.3517C20.5965 37.3384 19.3256 37.8934 18 37.8949H14C12.6744 37.8934 11.4035 37.3384 10.4661 36.3517C9.52875 35.365 9.00149 34.0272 9 32.6318ZM20 39.6922V40.0002C20 41.1169 19.5786 42.1878 18.8284 42.9775C18.0783 43.7671 17.0609 44.2107 16 44.2107C14.9391 44.2107 13.9217 43.7671 13.1716 42.9775C12.4214 42.1878 12 41.1169 12 40.0002V39.6922C12.6489 39.8965 13.3227 40.0002 14 40.0002H18C18.6773 40.0002 19.3511 39.8965 20 39.6922ZM30 47.6171V57.8948H26V54.7369C26 54.4577 25.8946 54.19 25.7071 53.9926C25.5196 53.7952 25.2652 53.6843 25 53.6843C24.7348 53.6843 24.4804 53.7952 24.2929 53.9926C24.1053 54.19 24 54.4577 24 54.7369V57.8948H8V54.7369C8 54.4577 7.89464 54.19 7.7071 53.9926C7.51957 53.7952 7.26521 53.6843 7 53.6843C6.73478 53.6843 6.48043 53.7952 6.29289 53.9926C6.10536 54.19 6 54.4577 6 54.7369V57.8948H2V47.5079C2.00048 47.3262 2.04541 47.1477 2.13044 46.9896C2.21548 46.8316 2.33775 46.6992 2.4855 46.6053L10.2269 41.7161C10.5817 43.0402 11.3376 44.2061 12.3797 45.0364C13.4218 45.8667 14.693 46.3161 16 46.3161C17.307 46.3161 18.5782 45.8667 19.6203 45.0364C20.6624 44.2061 21.4183 43.0402 21.7731 41.7161L29.5145 46.6054C29.6622 46.6993 29.7845 46.8317 29.8695 46.9898C29.9546 47.1479 29.9995 47.3263 30 47.508V47.6171ZM37.075 19.8251C37.9892 18.9872 39.2274 18.6967 40.8615 18.9376C41.0135 18.9611 41.1686 18.9469 41.3145 18.8961C41.4603 18.8453 41.5929 18.7594 41.7016 18.6451C41.7737 18.5715 43.5087 16.8425 47 16.8425C47.9967 16.841 48.9819 17.0668 49.8877 17.5045C50.7935 17.9421 51.5985 18.5812 52.2472 19.3777C54.0739 21.5749 55 24.9719 55 29.4739V43.0338L50 40.4023V38.6735C50.9256 37.9955 51.6818 37.092 52.2042 36.0401C52.7265 34.9881 52.9995 33.8188 53 32.6318V29.4739C53 29.2392 52.9254 29.0112 52.7882 28.8262C52.6509 28.6411 52.4588 28.5097 52.2425 28.4528C48.3937 27.44 46.0657 25.6582 44.7905 24.3424C43.4135 22.9214 42.9309 21.7201 42.928 21.7141C42.847 21.5008 42.7018 21.3212 42.5148 21.2028C42.3277 21.0843 42.109 21.0336 41.892 21.0583C41.6749 21.083 41.4715 21.1818 41.3128 21.3395C41.1541 21.4973 41.0488 21.7054 41.013 21.932C40.7547 23.5636 39.6101 28.1307 37.4447 29.6503C37.3078 29.7465 37.1956 29.8768 37.118 30.0297C37.0404 30.1826 36.9999 30.3533 37 30.5266V32.6318C37.0004 33.8188 37.2735 34.9881 37.7958 36.0401C38.3182 37.092 39.0744 37.9955 40 38.6735V40.4023L35 43.0338V28.2344C34.9982 26.1237 34.9946 21.7316 37.075 19.8251ZM46 37.8949H44C42.6744 37.8934 41.4035 37.3384 40.4661 36.3517C39.5287 35.365 39.0015 34.0272 39 32.6318V31.0554C40.229 29.9983 41.259 28.2611 42.0667 25.8807C42.2014 25.4836 42.3195 25.0988 42.4219 24.7378C43.7977 26.5087 46.4 28.9011 51 30.282V32.6318C50.9985 34.0272 50.4712 35.365 49.5339 36.3517C48.5965 37.3384 47.3256 37.8934 46 37.8949ZM48 39.6922V41.0528C48 41.8903 47.6839 42.6935 47.1213 43.2858C46.5587 43.878 45.7956 44.2107 45 44.2107C44.2043 44.2107 43.4413 43.878 42.8787 43.2858C42.3161 42.6935 42 41.8903 42 41.0528V39.6922C42.6489 39.8965 43.3227 40.0002 44 40.0002H46C46.6773 40.0002 47.3511 39.8965 48 39.6922ZM58 57.8948H54V54.7369C54 54.4577 53.8946 54.19 53.7071 53.9926C53.5196 53.7952 53.2652 53.6843 53 53.6843C52.7348 53.6843 52.4804 53.7952 52.2929 53.9926C52.1053 54.19 52 54.4577 52 54.7369V57.8948H38V54.7369C38 54.4577 37.8946 54.19 37.7071 53.9926C37.5196 53.7952 37.2652 53.6843 37 53.6843C36.7348 53.6843 36.4804 53.7952 36.2929 53.9926C36.1053 54.19 36 54.4577 36 54.7369V57.8948H32V47.6171C31.9993 47.4215 32.0508 47.2295 32.1485 47.0631C32.2463 46.8967 32.3863 46.7624 32.5529 46.6755L40.231 42.6344C40.5507 43.702 41.1854 44.6346 42.043 45.2965C42.9005 45.9585 43.9363 46.3154 44.9997 46.3154C46.0632 46.3154 47.0989 45.9585 47.9565 45.2965C48.8141 44.6346 49.4488 43.702 49.7685 42.6344L57.4466 46.6755C57.6132 46.7623 57.7534 46.8966 57.8512 47.063C57.949 47.2294 58.0006 47.4214 58 47.6171V57.8948Z" fill="url(#paint0_linear)"/>
<path d="M29.2933 16.1736C29.4808 16.371 29.7351 16.4819 30.0003 16.4819C30.2655 16.4819 30.5198 16.371 30.7074 16.1736L37.5365 8.98513C38.4721 7.99695 38.9974 6.6587 38.9974 5.26358C38.9974 3.86846 38.4721 2.53021 37.5365 1.54203C36.5986 0.555202 35.3267 0.000846254 34.0006 0.000846254C32.6745 0.000846254 31.4027 0.555202 30.4648 1.54203L30 2.03031L29.5359 1.54163C29.0715 1.05287 28.5203 0.665162 27.9136 0.400648C27.3069 0.136134 26.6567 -6.10372e-06 26 2.05246e-10C25.3434 6.10413e-06 24.6931 0.136158 24.0864 0.400684C23.4798 0.665209 22.9285 1.05293 22.4642 1.5417C21.9999 2.03047 21.6315 2.61073 21.3803 3.24934C21.129 3.88795 20.9996 4.5724 20.9996 5.26363C20.9996 5.95485 21.129 6.6393 21.3803 7.27791C21.6316 7.91651 21.9999 8.49676 22.4643 8.98553L29.2933 16.1736ZM23.8786 3.03031C24.4415 2.43827 25.2046 2.10571 26.0003 2.10571C26.796 2.10571 27.5592 2.43827 28.122 3.03031L29.2933 4.26319C29.4808 4.46057 29.7351 4.57145 30.0003 4.57145C30.2655 4.57145 30.5198 4.46057 30.7074 4.26319L31.8786 3.03031C32.4413 2.43799 33.2045 2.10522 34.0003 2.10521C34.796 2.1052 35.5592 2.43794 36.1219 3.03024C36.6846 3.62254 37.0008 4.42588 37.0008 5.26353C37.0008 6.10119 36.6847 6.90453 36.122 7.49685L30 13.9406L23.8788 7.49712C23.3173 6.90408 23.002 6.10098 23.002 5.26374C23.002 4.4265 23.3172 3.62338 23.8786 3.03031Z" fill="url(#paint1_linear)"/>
<defs>
<linearGradient id="paint0_linear" x1="30" y1="14.7372" x2="30" y2="60" gradientUnits="userSpaceOnUse">
<stop stop-color="#7B2BE0"/>
<stop offset="1" stop-color="#D9C9FF"/>
</linearGradient>
<linearGradient id="paint1_linear" x1="29.9985" y1="0" x2="29.9985" y2="16.4819" gradientUnits="userSpaceOnUse">
<stop stop-color="#7B2BE0"/>
<stop offset="1" stop-color="#D9C9FF"/>
</linearGradient>
</defs>
</svg>
