<svg width="15" height="15" viewBox="0 0 15 15" fill="none" xmlns="http://www.w3.org/2000/svg">
<path d="M14.7656 0.234404C14.6156 0.0844051 14.412 0 14.1999 0L8.29328 0.000552304C7.8516 0.000552304 7.49323 0.3589 7.49323 0.800549C7.49323 1.24246 7.8516 1.60055 8.29328 1.60055L12.3113 1.59999L5.80774 8.08102L4.25968 6.5333C3.94718 6.22083 3.44091 6.22083 3.12835 6.5333C2.81585 6.84578 2.81585 7.35231 3.12835 7.66455L4.67433 9.2101L0.235434 13.6333C-0.077615 13.9453 -0.0786547 14.4519 0.233387 14.7646C0.389668 14.9216 0.594847 15 0.800059 15C1.00423 15 1.2084 14.9222 1.36468 14.7667L5.80562 10.3414L7.33594 11.8716C7.49222 12.0279 7.69691 12.106 7.90157 12.106C8.1063 12.106 8.31096 12.0279 8.46727 11.8716C8.77977 11.5591 8.77977 11.0526 8.46727 10.7404L6.93907 9.21224L13.3999 2.774V6.70757C13.3999 7.14951 13.7583 7.50757 14.1999 7.50757C14.6417 7.50757 15 7.14951 15 6.70757V0.799997C15 0.587782 14.9156 0.384371 14.7656 0.234404Z" fill="#00AE1C"/>
</svg>
