<svg width="56" height="60" viewBox="0 0 56 60" fill="none" xmlns="http://www.w3.org/2000/svg">
<path d="M7.4506 10.6591C8.58058 9.48588 8.58058 7.57718 7.4506 6.40427L4.94825 3.80663C3.81578 2.63104 1.98218 2.6308 0.849481 3.80663C-0.283104 4.98259 -0.283217 6.88555 0.849481 8.0615L3.35182 10.6591C4.48441 11.8347 6.31801 11.835 7.4506 10.6591ZM2.04697 5.04961C2.51771 4.56084 3.28003 4.56072 3.75099 5.04961L6.25333 7.64725C6.72305 8.13486 6.72305 8.92855 6.25322 9.41628C5.78248 9.90505 5.02016 9.90517 4.5492 9.41628L2.04686 6.81852C1.57601 6.32974 1.5759 5.53851 2.04697 5.04961ZM28 9.69072C29.5981 9.69072 30.8983 8.34099 30.8983 6.68212L30.8982 3.00861C30.8982 1.34974 29.598 0 28 0C26.4019 0.000117185 25.1017 1.34974 25.1017 3.00861L25.1018 6.68212C25.1018 8.3411 26.402 9.69072 28 9.69072ZM28 1.75777C28.6645 1.75777 29.2049 2.31897 29.2049 3.00861L29.2051 6.68212C29.2051 7.37187 28.6645 7.93295 28 7.93295C27.3356 7.93295 26.7951 7.37175 26.7951 6.68212L26.795 3.00861C26.795 2.31897 27.3356 1.75777 28 1.75777ZM21.7747 25.0844C21.5665 25.3323 21.2661 25.4745 20.9505 25.4745C20.6349 25.4745 20.3344 25.3322 20.1262 25.0843C19.8188 24.7183 19.284 24.6802 18.9317 24.9992C18.5791 25.318 18.5424 25.8733 18.8496 26.2391C19.3795 26.8703 20.1453 27.2323 20.9504 27.2323C21.7557 27.2323 22.5214 26.8703 23.0511 26.239C23.3584 25.873 23.3215 25.3179 22.9689 24.9991C22.6166 24.6801 22.0817 24.7183 21.7747 25.0844ZM28 25.3903C26.8958 25.3903 25.1737 24.3065 24.0769 25.9909C23.6624 26.6276 23.6426 27.4192 24.0229 28.1625C24.6632 29.414 26.2986 30.2881 27.9999 30.2881C29.7012 30.2881 31.3367 29.414 31.9769 28.1625C32.3572 27.419 32.3374 26.6276 31.9229 25.9909C30.8275 24.3079 29.1032 25.3903 28 25.3903ZM28 28.5302C26.2279 28.5302 25.2583 27.3156 25.4798 26.9751C25.6209 26.7584 25.7116 26.7295 26.5726 26.934C27.7734 27.2195 28.2223 27.2205 29.4276 26.934C30.3142 26.7234 30.3858 26.7687 30.5203 26.9751C30.7388 27.3106 29.7832 28.5302 28 28.5302ZM55.1505 3.80663C54.0181 2.63092 52.1846 2.63068 51.0516 3.80663L48.5495 6.40416C47.4194 7.57718 47.4194 9.48588 48.5494 10.659V10.6591C49.6819 11.8349 51.5154 11.8351 52.6483 10.6591L55.1504 8.06162C56.2831 6.88579 56.2832 4.98282 55.1505 3.80663ZM53.953 6.81864L51.4509 9.41616C50.9801 9.90482 50.2178 9.90529 49.7468 9.41616V9.41628C49.277 8.92844 49.277 8.13486 49.7468 7.64714L52.2489 5.04973C52.7198 4.56107 53.4821 4.5606 53.953 5.04973C54.424 5.53839 54.4242 6.32963 53.953 6.81864ZM35.8738 25.0843C35.6656 25.3322 35.3651 25.4745 35.0495 25.4745C34.7339 25.4745 34.4335 25.3322 34.2253 25.0843C33.9179 24.7183 33.3831 24.6802 33.0308 24.9992C32.6782 25.318 32.6415 25.8733 32.9487 26.2391C33.4786 26.8703 34.2443 27.2323 35.0494 27.2323C35.8546 27.2323 36.6203 26.8703 37.1502 26.2391C37.4575 25.8733 37.4207 25.318 37.0681 24.9992C36.7158 24.6801 36.1812 24.7184 35.8738 25.0843ZM53.6808 35.2151C54.5438 32.9063 54.9806 30.6945 54.9778 28.6314C54.9715 24.3075 53.2122 20.1444 50.1509 17.2094C49.8074 16.88 49.2719 16.9023 48.9545 17.2588C48.6372 17.6152 48.6585 18.1714 49.002 18.5007C51.7181 21.1047 53.279 24.7981 53.2845 28.634C53.2872 30.576 52.8456 32.6883 51.9735 34.9158C49.135 36.4533 44.9161 37.4576 42.1287 37.9358C41.8316 34.672 38.6357 32.5872 35.6738 33.7237C31.7348 35.2348 27.5719 36.2473 23.2985 36.7359C22.4738 36.4793 21.6549 36.1956 20.8426 35.884C19.0238 35.1863 17.0541 35.7076 15.7666 37.0467C15.4917 37.0378 15.2253 37.0273 14.9724 37.0148C9.48627 36.7454 5.52679 35.6274 3.97055 34.8598C3.12662 32.6847 2.69641 30.6178 2.6937 28.7124C2.68263 21.0927 8.64549 14.8844 15.9856 14.873H16.0059C20.5958 14.873 24.8031 17.2817 27.2623 21.3189C27.5952 21.8653 28.3653 21.8611 28.6947 21.3166C32.4361 15.1343 39.9269 13.1942 45.8913 16.2731C46.3098 16.4891 46.818 16.312 47.0264 15.8774C47.2345 15.4427 47.0638 14.9153 46.6451 14.6991C40.3615 11.4555 32.4363 13.1227 27.9756 19.3016C23.1946 12.7198 16.0561 13.1334 15.9831 13.1152C7.70933 13.1281 0.988105 20.1262 1.00041 28.7151C1.00334 30.7613 1.43852 32.9516 2.29216 35.2338C0.895199 36.7856 1.04421 39.7258 1.95328 41.6765C2.92782 43.7674 5.49293 45.3638 9.13452 46.2507C11.78 49.3428 14.9548 52.3372 18.3336 54.9227C18.7116 55.2118 19.2411 55.1259 19.5174 54.7367C19.7949 54.346 19.7146 53.7958 19.3383 53.5078C16.6685 51.4649 14.1322 49.1606 11.8967 46.7581C15.0618 47.1713 19.1868 47.1219 22.4404 46.8518C29.2517 48.6751 36.2762 48.9576 42.9951 47.9047C39.2466 51.7288 34.838 55.1742 30.6002 57.5604C28.9927 58.4659 27.0713 58.4687 25.4608 57.5683C24.5268 57.046 23.5669 56.4618 22.6074 55.8317C22.2126 55.5723 21.6892 55.6944 21.4393 56.1045C21.1893 56.5147 21.3069 57.0576 21.7021 57.3171C22.6947 57.9692 23.6892 58.5743 24.6578 59.1158C26.7723 60.2981 29.2956 60.2948 31.4077 59.1055C36.4468 56.268 41.7158 51.9842 45.9018 47.3274C50.4246 46.2101 53.2341 44.3329 54.4432 41.6337C55.4947 39.2859 55.1116 36.5267 53.6808 35.2151ZM36.2607 35.3726C38.217 34.622 40.309 36.0389 40.4509 38.1851C36.0993 38.7342 31.8299 38.6144 27.6888 37.8306C30.6274 37.2539 33.4971 36.4327 36.2607 35.3726ZM14.5977 45.235C5.72897 44.7994 3.77842 41.5565 3.47746 40.9108C2.70262 39.2483 2.83503 37.3683 3.44145 36.5419C5.46268 37.4741 9.5829 38.4881 14.6927 38.7598C13.7478 41.2852 14.8737 44.2487 17.6392 45.3008C16.6196 45.3051 15.6042 45.2844 14.5977 45.235ZM52.9078 40.8924C51.6725 43.6502 47.9673 45.4667 41.8952 46.2914C33.6662 47.4091 25.6583 46.5048 18.0945 43.6032C16.4824 42.9848 15.6556 41.1201 16.2513 39.4464C16.8469 37.7728 18.6433 36.9144 20.2557 37.5329C26.8611 40.0668 33.8695 40.855 41.0864 39.8745C46.2463 39.1737 50.3851 37.7075 52.5898 36.5622C53.3597 37.313 53.6694 39.1921 52.9078 40.8924Z" fill="url(#paint0_linear)"/>
<defs>
<linearGradient id="paint0_linear" x1="28" y1="0" x2="28" y2="60" gradientUnits="userSpaceOnUse">
<stop stop-color="#7B2BE0"/>
<stop offset="1" stop-color="#C9BCFE"/>
</linearGradient>
</defs>
</svg>
