<svg width="25" height="25" viewBox="0 0 25 25" fill="none" xmlns="http://www.w3.org/2000/svg">
<path d="M24.6017 12.0749C23.8027 11.9375 23.0286 11.7503 22.3009 11.5185C16.9667 9.81947 13.9513 5.69159 12.9592 0.377593C12.865 -0.12583 12.0983 -0.125899 12.0041 0.377593C10.851 6.55244 7.01354 10.9192 0.394703 12.0827C-0.131688 12.1752 -0.131544 12.8937 0.394992 12.986C6.95274 14.1349 10.8574 18.4933 12.0065 24.6189C12.0788 25.0048 12.5091 25.0068 12.4845 24.9979C12.7197 24.9976 12.921 24.8373 12.9616 24.618C13.5466 21.4591 15.1891 17.1675 19.6923 14.6617C21.1309 13.862 22.7831 13.2958 24.6028 12.9786C24.8331 12.9385 25.0003 12.7482 25 12.5264C24.9997 12.3045 24.8321 12.1145 24.6017 12.0749Z" fill="url(#paint0_linear)"/>
<defs>
<linearGradient id="paint0_linear" x1="12.5" y1="0" x2="12.5" y2="25" gradientUnits="userSpaceOnUse">
<stop stop-color="#7B2BE0"/>
<stop offset="1" stop-color="#C9BCFE"/>
</linearGradient>
</defs>
</svg>
