<svg width="15" height="15" viewBox="0 0 15 15" fill="none" xmlns="http://www.w3.org/2000/svg">
<path d="M15 0.804566L14.1407 0.00623944C14.1339 0.0135041 13.4474 0.739974 12.2849 1.45376C11.2347 2.09859 9.52442 2.87263 7.52637 2.87263C5.50132 2.87263 3.80985 2.09223 2.74732 1.45066C1.56257 0.735287 0.854453 0.0072647 0.847439 0L0 0.810864C0.0320779 0.844317 0.800334 1.63883 2.1064 2.43306C2.92523 2.93099 3.77616 3.31795 4.63774 3.58794C2.72601 4.61048 1.42261 6.62421 1.42261 8.93632C1.42261 12.2798 4.14789 15 7.49776 15C10.8476 15 13.5729 12.2798 13.5729 8.93632C13.5729 6.6349 12.2817 4.6289 10.3843 3.60197C11.2557 3.33101 12.1132 2.9386 12.9342 2.43072C14.2207 1.63488 14.9688 0.838077 15 0.804566ZM12.399 8.93632C12.399 11.6337 10.2003 13.8283 7.49776 13.8283C4.79523 13.8283 2.59655 11.6337 2.59655 8.93632C2.59655 6.2511 4.8406 4.04436 7.5264 4.04436C10.2264 4.04436 12.399 6.26317 12.399 8.93632Z" fill="#00AE1C"/>
</svg>
