<svg width="15" height="15" viewBox="0 0 15 15" fill="none" xmlns="http://www.w3.org/2000/svg">
<path d="M12.9746 12.8378C12.7666 12.579 12.5768 12.2665 12.406 11.9027C12.717 11.553 13.0055 11.1858 13.2692 10.8022C14.3853 9.17871 15 7.34748 15 5.64592C15 4.99271 14.744 4.38021 14.2791 3.9213C13.8142 3.46242 13.1983 3.21378 12.5447 3.22289C12.07 3.22904 11.6272 3.37263 11.2531 3.61438C11.2501 3.19102 11.25 2.79035 11.25 2.42326C11.25 1.77006 10.994 1.15755 10.5291 0.698643C10.0642 0.239766 9.44909 -0.00770508 8.79475 0.000205078C8.06985 0.00960938 7.41926 0.341982 6.97743 0.858516C6.53142 0.333809 5.86758 0 5.12695 0C4.46332 0 3.86121 0.267949 3.42229 0.701133C3.06732 0.273105 2.53178 0 1.93359 0C0.867393 0 0 0.867393 0 1.93359V3.10547H1.17188V1.93359C1.17188 1.51359 1.51359 1.17188 1.93359 1.17188C2.35359 1.17188 2.69531 1.51359 2.69531 1.93359V11.6016H3.86719V2.43164H3.8693C3.8693 1.73701 4.43347 1.17188 5.12695 1.17188C5.82044 1.17188 6.38461 1.73701 6.38461 2.4319L6.38883 11.5997L7.5607 11.5992L7.55648 2.45063H7.55859C7.55859 1.75453 8.11995 1.18093 8.80992 1.17196C9.14795 1.16713 9.46576 1.29565 9.70579 1.53261C9.94588 1.76965 10.0781 2.08594 10.0781 2.42326V5.6543C10.1398 7.20943 10.3292 8.88545 10.6568 10.321C10.766 10.7999 10.8911 11.2384 11.0329 11.6394C10.13 12.5279 8.99985 13.3199 7.62917 13.9175L8.09748 14.9917C9.38555 14.4302 10.5458 13.6818 11.5366 12.7811C11.6968 13.0728 11.8714 13.336 12.0613 13.5721C12.8231 14.5196 13.8118 15 15 15V13.8281C14.1729 13.8281 13.5104 13.5042 12.9746 12.8378ZM12.5599 4.39465C12.898 4.38891 13.2157 4.51834 13.4558 4.75529C13.6959 4.9923 13.8281 5.30859 13.8281 5.64592C13.8281 7.14612 13.221 8.97486 11.9409 10.6202C11.8908 10.4408 11.8435 10.2541 11.7993 10.0602C11.4919 8.71313 11.3566 7.13414 11.297 5.63962C11.3156 4.97001 11.8862 4.40338 12.5599 4.39465Z" fill="#7AAFFF"/>
</svg>
