<svg width="164" height="164" viewBox="0 0 164 164" fill="none" xmlns="http://www.w3.org/2000/svg">
<path d="M9.6999 106.937C4.63335 92.2801 4.14477 76.4289 8.29903 61.4879C12.4533 46.5469 21.0539 33.2228 32.9588 23.2849C44.8638 13.3469 59.51 7.26512 74.9528 5.847C90.3956 4.42888 105.905 7.74151 119.42 15.3451L118.334 17.2754C105.21 9.89245 90.1502 6.67617 75.1548 8.05359C60.1593 9.43101 45.9375 15.337 34.3777 24.9873C22.8178 34.6377 14.4666 47.5759 10.433 62.0842C6.39942 76.5925 6.87416 91.9845 11.7942 106.217L9.6999 106.937Z" fill="#323C6B"/>
<path d="M81.8845 158.42C66.8717 158.438 52.1891 154.015 39.6855 145.705L40.9155 143.859C54.3958 152.799 70.4259 157.093 86.5698 156.09C102.714 155.087 118.089 148.841 130.359 138.302C142.629 127.762 151.123 113.505 154.55 97.6973C157.977 81.8895 156.15 65.395 149.346 50.7204L151.354 49.7874C156.762 61.4464 159.144 74.2806 158.279 87.1038C157.415 99.9269 153.332 112.325 146.407 123.153C139.483 133.98 129.941 142.888 118.664 149.052C107.386 155.216 94.7368 158.438 81.8845 158.42Z" fill="#323C6B"/>
<path d="M82 131.827C72.1425 131.829 62.5059 128.907 54.3089 123.432C46.1119 117.957 39.7226 110.174 35.9491 101.067C32.1756 91.9608 31.1874 81.9397 33.1094 72.2714C35.0314 62.6031 39.7774 53.722 46.747 46.7511C53.7167 39.7802 62.597 35.0327 72.2649 33.1089C81.9328 31.1852 91.9541 32.1716 101.061 35.9435C110.169 39.7154 117.953 46.1033 123.43 54.2993C128.906 62.4954 131.829 72.1315 131.829 81.9889C131.814 95.2006 126.56 107.867 117.218 117.21C107.877 126.553 95.2117 131.81 82 131.827ZM82 34.3669C72.5809 34.3651 63.3728 37.1566 55.5402 42.3883C47.7076 47.62 41.6024 55.057 37.9966 63.7586C34.3909 72.4603 33.4465 82.0357 35.283 91.2741C37.1195 100.512 41.6544 108.999 48.3141 115.66C54.9738 122.321 63.4593 126.857 72.6973 128.695C81.9353 130.534 91.5109 129.591 100.213 125.987C108.916 122.383 116.354 116.279 121.587 108.447C126.82 100.616 129.613 91.4081 129.613 81.9889C129.599 69.3646 124.579 57.2613 115.653 48.3337C106.727 39.4062 94.6243 34.3833 82 34.3669Z" fill="#323C6B"/>
<path d="M128.252 33.2587C134.375 33.2587 139.338 28.2956 139.338 22.1732C139.338 16.0509 134.375 11.0877 128.252 11.0877C122.13 11.0877 117.167 16.0509 117.167 22.1732C117.167 28.2956 122.13 33.2587 128.252 33.2587Z" fill="#FE7058"/>
<path d="M30.9073 149.575C37.0297 149.575 41.9928 144.612 41.9928 138.489C41.9928 132.367 37.0297 127.404 30.9073 127.404C24.7849 127.404 19.8218 132.367 19.8218 138.489C19.8218 144.612 24.7849 149.575 30.9073 149.575Z" fill="#27CCBC"/>
<path d="M139.333 22.1843C139.336 24.0531 138.863 25.8918 137.96 27.5277C137.056 29.1637 135.752 30.5432 134.169 31.5367C134.838 30.076 135.185 28.489 135.189 26.8827C135.189 23.9438 134.021 21.1253 131.943 19.0472C129.865 16.9691 127.047 15.8016 124.108 15.8016C122.009 15.7923 119.954 16.3929 118.19 17.5303C119.249 15.2358 121.06 13.372 123.324 12.2481C125.587 11.1242 128.166 10.8077 130.634 11.3509C133.102 11.8941 135.31 13.2646 136.892 15.235C138.475 17.2054 139.336 19.6573 139.333 22.1843Z" fill="#EA6453"/>
<path d="M41.9969 138.491C42.0026 140.363 41.529 142.206 40.6213 143.843C39.7135 145.48 38.4018 146.857 36.811 147.844C37.4893 146.386 37.8375 144.797 37.8304 143.19C37.8304 140.251 36.6629 137.432 34.5848 135.354C32.5067 133.276 29.6882 132.109 26.7493 132.109C24.6511 132.099 22.5953 132.7 20.832 133.837C21.896 131.547 23.7096 129.687 25.9731 128.566C28.2367 127.446 30.8148 127.13 33.2817 127.673C35.7486 128.215 37.9567 129.583 39.5413 131.55C41.1259 133.517 41.9921 135.966 41.9969 138.491Z" fill="#21B3A9"/>
<path d="M81.9957 73.9995L81.9935 110.603L51.2036 99.6234V63.0204L81.9957 73.9995Z" fill="#FA9825"/>
<path d="M112.783 63.0204V99.6234L81.9932 110.603L81.9954 73.9995L112.783 63.0204Z" fill="#FA9825"/>
<path d="M112.783 63.0292V99.6189L82 110.611V103.608L106.666 94.8097V65.2011L112.783 63.0292Z" fill="#F7BE56"/>
<path d="M82 103.608V110.611L51.2168 99.6189V93.1697L82 103.608Z" fill="#F7BE56"/>
<path d="M112.783 63.0292L81.9997 73.9551L51.1943 63.0292L81.9997 52.0811L112.783 63.0292Z" fill="#FA9825"/>
<path d="M82.0001 75.0632C81.874 75.063 81.7488 75.0413 81.63 74.999L50.8246 64.073C50.6092 63.9963 50.4228 63.8547 50.2909 63.6679C50.1591 63.481 50.0884 63.2579 50.0884 63.0292C50.0884 62.8005 50.1591 62.5774 50.2909 62.3905C50.4228 62.2036 50.6092 62.0621 50.8246 61.9853L81.63 51.0372C81.8703 50.9528 82.1322 50.9528 82.3724 51.0372L113.156 61.9853C113.371 62.0621 113.557 62.2036 113.689 62.3905C113.821 62.5774 113.892 62.8005 113.892 63.0292C113.892 63.2579 113.821 63.481 113.689 63.6679C113.557 63.8547 113.371 63.9963 113.156 64.073L82.3724 74.999C82.2529 75.0415 82.127 75.0633 82.0001 75.0632ZM54.5057 63.027L82.0001 72.7783L109.481 63.027L82.0001 53.2579L54.5057 63.027Z" fill="#323C6B"/>
<path d="M81.9997 75.0877C81.8552 75.09 81.7117 75.0636 81.5775 75.01C81.4433 74.9564 81.3211 74.8767 81.218 74.7754C81.1149 74.6742 81.0329 74.5534 80.9769 74.4202C80.9209 74.287 80.8919 74.144 80.8916 73.9995V73.9596C80.8916 73.6657 81.0083 73.3839 81.2162 73.1761C81.424 72.9682 81.7058 72.8515 81.9997 72.8515C82.2936 72.8515 82.5755 72.9682 82.7833 73.1761C82.9911 73.3839 83.1078 73.6657 83.1078 73.9596C83.1085 74.2555 82.9925 74.5398 82.7851 74.7509C82.5778 74.962 82.2956 75.083 81.9997 75.0877Z" fill="#323C6B"/>
<path d="M81.9997 53.1891C81.7058 53.1891 81.424 53.0724 81.2162 52.8646C81.0084 52.6568 80.8916 52.3749 80.8916 52.081C80.8904 51.7849 81.0061 51.5003 81.2136 51.2891C81.4212 51.0778 81.7036 50.957 81.9997 50.953C82.1442 50.9506 82.2877 50.977 82.4219 51.0306C82.5561 51.0842 82.6783 51.164 82.7814 51.2652C82.8845 51.3665 82.9665 51.4872 83.0225 51.6204C83.0786 51.7536 83.1076 51.8966 83.1078 52.0411V52.081C83.1078 52.3749 82.9911 52.6568 82.7833 52.8646C82.5755 53.0724 82.2936 53.1891 81.9997 53.1891Z" fill="#323C6B"/>
<path d="M95.5053 112.473C95.2442 112.473 94.9917 112.38 94.7923 112.212C94.5928 112.043 94.4592 111.81 94.415 111.553C94.3707 111.295 94.4187 111.031 94.5505 110.806C94.6822 110.58 94.8893 110.409 95.1351 110.321L109.643 105.168C109.917 105.081 110.214 105.104 110.471 105.232C110.729 105.36 110.927 105.583 111.023 105.854C111.119 106.125 111.106 106.423 110.986 106.684C110.867 106.946 110.65 107.151 110.383 107.256L95.8754 112.409C95.7566 112.451 95.6314 112.473 95.5053 112.473Z" fill="#323C6B"/>
<path d="M90.2111 114.483C89.9499 114.483 89.697 114.391 89.4972 114.223C89.2973 114.055 89.1633 113.821 89.1188 113.564C89.0742 113.307 89.1221 113.042 89.2538 112.816C89.3855 112.591 89.5927 112.419 89.8387 112.331L90.9025 111.952C91.1794 111.853 91.4841 111.869 91.7497 111.995C92.0153 112.121 92.2199 112.347 92.3187 112.624C92.4174 112.901 92.4022 113.205 92.2762 113.471C92.1503 113.736 91.924 113.941 91.6472 114.04L90.5834 114.419C90.4638 114.461 90.3379 114.483 90.2111 114.483Z" fill="#323C6B"/>
<path d="M81.9997 111.711C81.7058 111.711 81.424 111.594 81.2162 111.386C81.0083 111.178 80.8916 110.896 80.8916 110.602V73.9995C80.8916 73.7708 80.9623 73.5478 81.094 73.3609C81.2257 73.174 81.412 73.0325 81.6274 72.9556L112.415 61.9765C112.583 61.9184 112.761 61.9007 112.937 61.925C113.113 61.9493 113.28 62.0148 113.426 62.1161C113.571 62.2185 113.689 62.3542 113.771 62.512C113.853 62.6698 113.896 62.8449 113.896 63.0226V99.6234C113.896 99.852 113.825 100.075 113.693 100.262C113.561 100.449 113.375 100.59 113.16 100.667L82.3654 111.646C82.2479 111.688 82.1243 111.709 81.9997 111.711ZM83.1078 74.7796V109.038L111.675 98.8432V64.5916L83.1078 74.7796Z" fill="#323C6B"/>
<path d="M81.9998 111.711C81.873 111.71 81.7471 111.688 81.6275 111.646L50.8354 100.667C50.62 100.59 50.4337 100.449 50.302 100.262C50.1703 100.075 50.0996 99.8519 50.0996 99.6233V63.0203C50.0995 62.8426 50.1421 62.6675 50.2239 62.5097C50.3057 62.352 50.4242 62.2162 50.5694 62.1138C50.7153 62.0132 50.8828 61.9483 51.0583 61.9244C51.2339 61.9005 51.4126 61.9184 51.58 61.9764L82.3677 72.9556C82.5831 73.0324 82.7694 73.174 82.9011 73.3608C83.0328 73.5477 83.1035 73.7708 83.1035 73.9994V110.605C83.1035 110.899 82.9868 111.18 82.7789 111.388C82.5711 111.596 82.2893 111.713 81.9954 111.713L81.9998 111.711ZM52.3158 98.8432L80.8917 109.038V74.7862L52.3203 64.5916L52.3158 98.8432Z" fill="#323C6B"/>
<path d="M128.252 34.3669C125.841 34.3669 123.485 33.652 121.48 32.3126C119.476 30.9732 117.913 29.0695 116.991 26.8423C116.068 24.615 115.827 22.1641 116.297 19.7997C116.768 17.4352 117.928 15.2633 119.633 13.5586C121.338 11.8539 123.51 10.693 125.874 10.2227C128.239 9.75236 130.689 9.99375 132.917 10.9163C135.144 11.8389 137.048 13.4012 138.387 15.4057C139.726 17.4102 140.441 19.7669 140.441 22.1777C140.437 25.4092 139.152 28.5072 136.867 30.7922C134.582 33.0772 131.484 34.3627 128.252 34.3669ZM128.252 12.2047C126.28 12.2047 124.352 12.7896 122.711 13.8854C121.071 14.9813 119.793 16.5388 119.038 18.3612C118.284 20.1835 118.086 22.1887 118.471 24.1233C118.856 26.0579 119.805 27.8349 121.2 29.2296C122.595 30.6244 124.372 31.5742 126.307 31.959C128.241 32.3438 130.246 32.1463 132.069 31.3915C133.891 30.6367 135.449 29.3584 136.544 27.7183C137.64 26.0783 138.225 24.1501 138.225 22.1777C138.225 19.5312 137.175 16.993 135.305 15.1202C133.435 13.2475 130.899 12.1933 128.252 12.1892V12.2047Z" fill="#323C6B"/>
<path d="M30.907 150.683C28.4962 150.683 26.1395 149.968 24.135 148.629C22.1305 147.289 20.5682 145.385 19.6456 143.158C18.7231 140.931 18.4817 138.48 18.952 136.116C19.4223 133.751 20.5832 131.579 22.2879 129.875C23.9926 128.17 26.1645 127.009 28.529 126.539C30.8934 126.068 33.3443 126.31 35.5716 127.232C37.7989 128.155 39.7025 129.717 41.0419 131.722C42.3813 133.726 43.0962 136.083 43.0962 138.494C43.0915 141.725 41.8057 144.823 39.5208 147.107C37.2359 149.392 34.1383 150.678 30.907 150.683ZM30.907 128.521C28.9345 128.521 27.0063 129.106 25.3663 130.201C23.7262 131.297 22.448 132.855 21.6931 134.677C20.9383 136.499 20.7408 138.505 21.1256 140.439C21.5104 142.374 22.4603 144.151 23.855 145.546C25.2498 146.94 27.0268 147.89 28.9613 148.275C30.8959 148.66 32.9011 148.462 34.7235 147.707C36.5458 146.953 38.1033 145.674 39.1992 144.034C40.295 142.394 40.8799 140.466 40.8799 138.494C40.8782 135.848 39.8272 133.312 37.9575 131.44C36.0879 129.569 33.5522 128.516 30.907 128.512V128.521Z" fill="#323C6B"/>
<path d="M56.4444 85.9138C56.1235 85.9138 55.8157 85.7863 55.5888 85.5594C55.3619 85.3325 55.2344 85.0247 55.2344 84.7038V73.4675C55.2477 73.1559 55.3809 72.8614 55.6062 72.6456C55.8314 72.4297 56.1314 72.3093 56.4433 72.3093C56.7553 72.3093 57.0552 72.4297 57.2805 72.6456C57.5057 72.8614 57.6389 73.1559 57.6523 73.4675V84.7038C57.6523 85.0243 57.5251 85.3318 57.2986 85.5586C57.0722 85.7855 56.765 85.9132 56.4444 85.9138Z" fill="white"/>
<path d="M56.445 90.3375C56.1241 90.3375 55.8163 90.21 55.5894 89.9831C55.3625 89.7561 55.235 89.4483 55.235 89.1274V88.4936C55.228 88.3305 55.2541 88.1676 55.3117 88.0149C55.3693 87.8621 55.4572 87.7226 55.5702 87.6047C55.6831 87.4868 55.8188 87.393 55.9689 87.3289C56.1191 87.2648 56.2807 87.2318 56.4439 87.2318C56.6072 87.2318 56.7688 87.2648 56.9189 87.3289C57.0691 87.393 57.2047 87.4868 57.3177 87.6047C57.4306 87.7226 57.5186 87.8621 57.5762 88.0149C57.6338 88.1676 57.6599 88.3305 57.6529 88.4936V89.1274C57.6529 89.448 57.5257 89.7554 57.2993 89.9823C57.0728 90.2091 56.7656 90.3369 56.445 90.3375Z" fill="white"/>
</svg>
