<svg width="164" height="164" viewBox="0 0 164 164" fill="none" xmlns="http://www.w3.org/2000/svg">
<path d="M115.467 39.5551H48.5352C43.567 39.5551 39.5396 43.5825 39.5396 48.5507V115.449C39.5396 120.418 43.567 124.445 48.5352 124.445H115.467C120.435 124.445 124.463 120.418 124.463 115.449V48.5507C124.463 43.5825 120.435 39.5551 115.467 39.5551Z" fill="#FA9825"/>
<path d="M124.463 48.5573V115.443C124.464 117.377 123.842 119.261 122.688 120.814C121.534 122.367 119.911 123.507 118.058 124.064C118.263 123.298 118.368 122.508 118.368 121.715V54.8292C118.369 53.6472 118.137 52.4767 117.686 51.3845C117.234 50.2923 116.571 49.2999 115.735 48.4641C114.9 47.6284 113.907 46.9657 112.815 46.5139C111.723 46.0621 110.552 45.8302 109.37 45.8313H42.4406C41.5626 45.8306 40.6892 45.9575 39.8477 46.2081C40.3666 44.3008 41.498 42.6168 43.0678 41.4155C44.6375 40.2142 46.5585 39.562 48.5352 39.5595H115.465C116.647 39.5583 117.817 39.7902 118.91 40.242C120.002 40.6938 120.994 41.3565 121.83 42.1923C122.666 43.028 123.328 44.0204 123.78 45.1126C124.232 46.2048 124.464 47.3753 124.463 48.5573Z" fill="#F7BE56"/>
<path d="M112.207 82C112.215 89.395 109.501 96.5342 104.583 102.057V102.079C104.521 102.17 104.447 102.252 104.362 102.323C101.531 105.432 98.0839 107.917 94.239 109.619C90.3941 111.321 86.2366 112.202 82.0319 112.206C77.8272 112.211 73.6679 111.338 69.8197 109.644C65.9715 107.949 62.5189 105.471 59.6827 102.367C59.594 102.278 59.5275 102.168 59.4389 102.079C56.186 98.4238 53.8697 94.0332 52.6894 89.2847C51.509 84.5362 51.5 79.572 52.6629 74.8192C53.8259 70.0665 56.1261 65.6674 59.3657 62.0004C62.6052 58.3334 66.6871 55.5084 71.2603 53.7682C75.8334 52.0281 80.7608 51.425 85.6186 52.0109C90.4764 52.5967 95.1191 54.3539 99.1474 57.1313C103.176 59.9087 106.469 63.6232 108.744 67.9552C111.019 72.2872 112.207 77.107 112.207 82Z" fill="#EEEFEE"/>
<path d="M112.207 81.9999C112.215 89.3949 109.501 96.5342 104.583 102.057V102.079C104.521 102.17 104.447 102.252 104.361 102.323C103.918 102.81 103.453 103.298 102.965 103.741C106.581 98.6617 108.519 92.5787 108.506 86.3437C108.506 80.4108 106.76 74.6091 103.484 69.6628C100.208 64.7164 95.5472 60.8444 90.0843 58.5302C84.6214 56.216 78.5978 55.5619 72.7655 56.6497C66.9332 57.7376 61.5504 60.519 57.2891 64.647C60.9768 59.3914 66.2437 55.448 72.3249 53.3891C78.4062 51.3303 84.9854 51.2632 91.1074 53.1976C97.2293 55.132 102.575 58.9673 106.37 64.1466C110.164 69.3259 112.208 75.5796 112.207 81.9999Z" fill="#E1E6E9"/>
<path d="M82 81.2931C87.6952 81.2931 92.3121 76.6762 92.3121 70.981C92.3121 65.2858 87.6952 60.6689 82 60.6689C76.3049 60.6689 71.688 65.2858 71.688 70.981C71.688 76.6762 76.3049 81.2931 82 81.2931Z" fill="#89C5CD"/>
<path d="M104.583 102.057V102.079C104.521 102.17 104.447 102.252 104.362 102.323C101.532 105.432 98.084 107.917 94.2391 109.619C90.3942 111.321 86.2367 112.202 82.032 112.206C77.8273 112.211 73.668 111.338 69.8198 109.644C65.9716 107.949 62.519 105.471 59.6828 102.367C59.5941 102.278 59.5276 102.168 59.439 102.079C59.8591 98.4073 61.1714 94.8943 63.2613 91.8463C65.3512 88.7984 68.1552 86.3082 71.4287 84.593C74.3629 87.1374 78.1163 88.5381 82.0001 88.5381C85.8838 88.5381 89.6372 87.1374 92.5714 84.593C95.844 86.3061 98.6488 88.7924 100.742 91.8359C102.836 94.8794 104.154 98.3879 104.583 102.057Z" fill="#89C5CD"/>
<path d="M92.3052 70.9854C92.3076 72.9168 91.7664 74.8098 90.7435 76.4481C89.7206 78.0863 88.2573 79.4036 86.5209 80.2492C87.7134 78.532 88.3479 76.4891 88.3382 74.3984C88.3375 72.6503 87.8923 70.931 87.0445 69.4022C86.1966 67.8734 84.974 66.5853 83.4914 65.659C82.0088 64.7327 80.3151 64.1986 78.5693 64.1068C76.8236 64.0151 75.0832 64.3688 73.5117 65.1346C74.7597 63.3247 76.5536 61.9613 78.6315 61.2433C80.7095 60.5254 82.9625 60.4906 85.0615 61.1441C87.1606 61.7976 88.9958 63.1051 90.299 64.8756C91.6022 66.6462 92.3052 68.787 92.3052 70.9854Z" fill="#6EAAAD"/>
<path d="M92.5717 84.593C91.264 85.7212 89.784 86.6326 88.188 87.2924V87.5406C91.424 89.2616 94.1947 91.7413 96.2627 94.7674C98.3307 97.7934 99.6346 101.276 100.062 104.916V104.938C100.001 105.029 99.926 105.111 99.8408 105.182C98.5729 106.557 97.1861 107.818 95.6965 108.949C98.9588 107.278 101.894 105.033 104.362 102.323C104.447 102.252 104.522 102.17 104.584 102.079V102.057C104.154 98.3879 102.836 94.8794 100.742 91.8359C98.6491 88.7924 95.8443 86.3061 92.5717 84.593Z" fill="#6EAAAD"/>
<path d="M50.727 25.8898C54.2435 25.8898 57.0942 23.0391 57.0942 19.5226C57.0942 16.0061 54.2435 13.1554 50.727 13.1554C47.2105 13.1554 44.3599 16.0061 44.3599 19.5226C44.3599 23.0391 47.2105 25.8898 50.727 25.8898Z" fill="#FE7058"/>
<path d="M72.147 19.5227C75.6635 19.5227 78.5142 16.672 78.5142 13.1555C78.5142 9.63902 75.6635 6.78833 72.147 6.78833C68.6305 6.78833 65.7798 9.63902 65.7798 13.1555C65.7798 16.672 68.6305 19.5227 72.147 19.5227Z" fill="#89C5CD"/>
<path d="M92.7021 19.5227C96.2186 19.5227 99.0693 16.672 99.0693 13.1555C99.0693 9.63902 96.2186 6.78833 92.7021 6.78833C89.1856 6.78833 86.335 9.63902 86.335 13.1555C86.335 16.672 89.1856 19.5227 92.7021 19.5227Z" fill="#FCD462"/>
<path d="M113.273 40.6454C112.979 40.6454 112.697 40.5286 112.49 40.3208C112.282 40.113 112.165 39.8312 112.165 39.5373V25.7502C112.165 25.4563 112.282 25.1745 112.49 24.9666C112.697 24.7588 112.979 24.6421 113.273 24.6421C113.567 24.6421 113.849 24.7588 114.057 24.9666C114.265 25.1745 114.381 25.4563 114.381 25.7502V39.5373C114.381 39.8312 114.265 40.113 114.057 40.3208C113.849 40.5286 113.567 40.6454 113.273 40.6454Z" fill="#323C6B"/>
<path d="M92.7019 40.6476C92.408 40.6476 92.1261 40.5309 91.9183 40.323C91.7105 40.1152 91.5938 39.8334 91.5938 39.5395V19.383C91.5938 19.0891 91.7105 18.8073 91.9183 18.5995C92.1261 18.3916 92.408 18.2749 92.7019 18.2749C92.9958 18.2749 93.2776 18.3916 93.4854 18.5995C93.6932 18.8073 93.81 19.0891 93.81 19.383V39.5395C93.81 39.8334 93.6932 40.1152 93.4854 40.323C93.2776 40.5309 92.9958 40.6476 92.7019 40.6476Z" fill="#323C6B"/>
<path d="M72.1535 40.6477C71.8596 40.6477 71.5778 40.5309 71.37 40.3231C71.1622 40.1153 71.0454 39.8334 71.0454 39.5396V20.0612C71.0454 19.7673 71.1622 19.4855 71.37 19.2777C71.5778 19.0699 71.8596 18.9531 72.1535 18.9531C72.4474 18.9531 72.7293 19.0699 72.9371 19.2777C73.1449 19.4855 73.2616 19.7673 73.2616 20.0612V39.5396C73.2616 39.8334 73.1449 40.1153 72.9371 40.3231C72.7293 40.5309 72.4474 40.6477 72.1535 40.6477Z" fill="#323C6B"/>
<path d="M50.7268 40.6454C50.4329 40.6454 50.151 40.5286 49.9432 40.3208C49.7354 40.113 49.6187 39.8312 49.6187 39.5373V25.7502C49.6187 25.4563 49.7354 25.1745 49.9432 24.9666C50.151 24.7588 50.4329 24.6421 50.7268 24.6421C51.0206 24.6421 51.3025 24.7588 51.5103 24.9666C51.7181 25.1745 51.8349 25.4563 51.8349 25.7502V39.5373C51.8349 39.8312 51.7181 40.113 51.5103 40.3208C51.3025 40.5286 51.0206 40.6454 50.7268 40.6454Z" fill="#323C6B"/>
<path d="M50.727 25.7502C54.2435 25.7502 57.0942 22.8996 57.0942 19.3831C57.0942 15.8666 54.2435 13.0159 50.727 13.0159C47.2105 13.0159 44.3599 15.8666 44.3599 19.3831C44.3599 22.8996 47.2105 25.7502 50.727 25.7502Z" fill="#FE7058"/>
<path d="M72.147 19.3831C75.6635 19.3831 78.5142 16.5324 78.5142 13.0159C78.5142 9.49937 75.6635 6.64868 72.147 6.64868C68.6305 6.64868 65.7798 9.49937 65.7798 13.0159C65.7798 16.5324 68.6305 19.3831 72.147 19.3831Z" fill="#89C5CD"/>
<path d="M113.273 25.7502C116.789 25.7502 119.64 22.8996 119.64 19.3831C119.64 15.8666 116.789 13.0159 113.273 13.0159C109.756 13.0159 106.906 15.8666 106.906 19.3831C106.906 22.8996 109.756 25.7502 113.273 25.7502Z" fill="#9297AB"/>
<path d="M92.7021 19.3831C96.2186 19.3831 99.0693 16.5324 99.0693 13.0159C99.0693 9.49937 96.2186 6.64868 92.7021 6.64868C89.1856 6.64868 86.335 9.49937 86.335 13.0159C86.335 16.5324 89.1856 19.3831 92.7021 19.3831Z" fill="#FCD462"/>
<path d="M113.273 139.36C112.979 139.36 112.697 139.243 112.49 139.036C112.282 138.828 112.165 138.546 112.165 138.252V124.465C112.165 124.171 112.282 123.889 112.49 123.681C112.697 123.474 112.979 123.357 113.273 123.357C113.567 123.357 113.849 123.474 114.057 123.681C114.265 123.889 114.381 124.171 114.381 124.465V138.252C114.381 138.546 114.265 138.828 114.057 139.036C113.849 139.243 113.567 139.36 113.273 139.36Z" fill="#323C6B"/>
<path d="M92.7019 145.727C92.408 145.727 92.1261 145.611 91.9183 145.403C91.7105 145.195 91.5938 144.913 91.5938 144.619V124.463C91.5938 124.169 91.7105 123.887 91.9183 123.679C92.1261 123.471 92.408 123.355 92.7019 123.355C92.9958 123.355 93.2776 123.471 93.4854 123.679C93.6932 123.887 93.81 124.169 93.81 124.463V144.619C93.81 144.913 93.6932 145.195 93.4854 145.403C93.2776 145.611 92.9958 145.727 92.7019 145.727Z" fill="#323C6B"/>
<path d="M72.1535 145.049C71.8596 145.049 71.5778 144.932 71.37 144.725C71.1622 144.517 71.0454 144.235 71.0454 143.941V124.463C71.0454 124.169 71.1622 123.887 71.37 123.679C71.5778 123.471 71.8596 123.355 72.1535 123.355C72.4474 123.355 72.7293 123.471 72.9371 123.679C73.1449 123.887 73.2616 124.169 73.2616 124.463V143.941C73.2616 144.235 73.1449 144.517 72.9371 144.725C72.7293 144.932 72.4474 145.049 72.1535 145.049Z" fill="#323C6B"/>
<path d="M50.7268 139.36C50.4329 139.36 50.151 139.243 49.9432 139.036C49.7354 138.828 49.6187 138.546 49.6187 138.252V124.465C49.6187 124.171 49.7354 123.889 49.9432 123.681C50.151 123.474 50.4329 123.357 50.7268 123.357C51.0206 123.357 51.3025 123.474 51.5103 123.681C51.7181 123.889 51.8349 124.171 51.8349 124.465V138.252C51.8349 138.546 51.7181 138.828 51.5103 139.036C51.3025 139.243 51.0206 139.36 50.7268 139.36Z" fill="#323C6B"/>
<path d="M50.727 150.986C54.2435 150.986 57.0942 148.136 57.0942 144.619C57.0942 141.103 54.2435 138.252 50.727 138.252C47.2105 138.252 44.3599 141.103 44.3599 144.619C44.3599 148.136 47.2105 150.986 50.727 150.986Z" fill="#9297AB"/>
<path d="M72.147 157.354C75.6635 157.354 78.5142 154.503 78.5142 150.986C78.5142 147.47 75.6635 144.619 72.147 144.619C68.6305 144.619 65.7798 147.47 65.7798 150.986C65.7798 154.503 68.6305 157.354 72.147 157.354Z" fill="#89C5CD"/>
<path d="M113.273 150.986C116.789 150.986 119.64 148.136 119.64 144.619C119.64 141.103 116.789 138.252 113.273 138.252C109.756 138.252 106.906 141.103 106.906 144.619C106.906 148.136 109.756 150.986 113.273 150.986Z" fill="#FE7058"/>
<path d="M92.7021 157.354C96.2186 157.354 99.0693 154.503 99.0693 150.986C99.0693 147.47 96.2186 144.619 92.7021 144.619C89.1856 144.619 86.335 147.47 86.335 150.986C86.335 154.503 89.1856 157.354 92.7021 157.354Z" fill="#FCD462"/>
<path d="M138.252 114.381H124.463C124.169 114.381 123.887 114.264 123.679 114.057C123.471 113.849 123.354 113.567 123.354 113.273C123.354 112.979 123.471 112.697 123.679 112.489C123.887 112.282 124.169 112.165 124.463 112.165H138.252C138.546 112.165 138.828 112.282 139.035 112.489C139.243 112.697 139.36 112.979 139.36 113.273C139.36 113.567 139.243 113.849 139.035 114.057C138.828 114.264 138.546 114.381 138.252 114.381Z" fill="#323C6B"/>
<path d="M144.617 93.8124H124.463C124.169 93.8124 123.887 93.6957 123.679 93.4878C123.471 93.28 123.354 92.9982 123.354 92.7043C123.354 92.4104 123.471 92.1286 123.679 91.9207C123.887 91.7129 124.169 91.5962 124.463 91.5962H144.617C144.911 91.5962 145.193 91.7129 145.4 91.9207C145.608 92.1286 145.725 92.4104 145.725 92.7043C145.725 92.9982 145.608 93.28 145.4 93.4878C145.193 93.6957 144.911 93.8124 144.617 93.8124Z" fill="#323C6B"/>
<path d="M143.939 73.2637H124.463C124.169 73.2637 123.887 73.1469 123.679 72.9391C123.471 72.7313 123.354 72.4495 123.354 72.1556C123.354 71.8617 123.471 71.5799 123.679 71.372C123.887 71.1642 124.169 71.0475 124.463 71.0475H143.939C144.233 71.0475 144.514 71.1642 144.722 71.372C144.93 71.5799 145.047 71.8617 145.047 72.1556C145.047 72.4495 144.93 72.7313 144.722 72.9391C144.514 73.1469 144.233 73.2637 143.939 73.2637Z" fill="#323C6B"/>
<path d="M138.252 51.8373H124.463C124.169 51.8373 123.887 51.7206 123.679 51.5128C123.471 51.3049 123.354 51.0231 123.354 50.7292C123.354 50.4353 123.471 50.1535 123.679 49.9457C123.887 49.7378 124.169 49.6211 124.463 49.6211H138.252C138.546 49.6211 138.828 49.7378 139.035 49.9457C139.243 50.1535 139.36 50.4353 139.36 50.7292C139.36 51.0231 139.243 51.3049 139.035 51.5128C138.828 51.7206 138.546 51.8373 138.252 51.8373Z" fill="#323C6B"/>
<path d="M144.617 57.0964C148.134 57.0964 150.984 54.2457 150.984 50.7292C150.984 47.2127 148.134 44.3621 144.617 44.3621C141.101 44.3621 138.25 47.2127 138.25 50.7292C138.25 54.2457 141.101 57.0964 144.617 57.0964Z" fill="#FE7058"/>
<path d="M150.984 78.5161C154.5 78.5161 157.351 75.6654 157.351 72.1489C157.351 68.6324 154.5 65.7817 150.984 65.7817C147.467 65.7817 144.617 68.6324 144.617 72.1489C144.617 75.6654 147.467 78.5161 150.984 78.5161Z" fill="#FCD462"/>
<path d="M144.617 119.64C148.134 119.64 150.984 116.79 150.984 113.273C150.984 109.757 148.134 106.906 144.617 106.906C141.101 106.906 138.25 109.757 138.25 113.273C138.25 116.79 141.101 119.64 144.617 119.64Z" fill="#9297AB"/>
<path d="M150.984 99.0715C154.5 99.0715 157.351 96.2209 157.351 92.7043C157.351 89.1878 154.5 86.3372 150.984 86.3372C147.467 86.3372 144.617 89.1878 144.617 92.7043C144.617 96.2209 147.467 99.0715 150.984 99.0715Z" fill="#89C5CD"/>
<path d="M39.5375 114.381H25.7482C25.4544 114.381 25.1725 114.264 24.9647 114.057C24.7569 113.849 24.6401 113.567 24.6401 113.273C24.6401 112.979 24.7569 112.697 24.9647 112.489C25.1725 112.282 25.4544 112.165 25.7482 112.165H39.5375C39.8314 112.165 40.1133 112.282 40.3211 112.489C40.5289 112.697 40.6457 112.979 40.6457 113.273C40.6457 113.567 40.5289 113.849 40.3211 114.057C40.1133 114.264 39.8314 114.381 39.5375 114.381Z" fill="#323C6B"/>
<path d="M39.5373 93.8124H19.383C19.0891 93.8124 18.8073 93.6957 18.5995 93.4878C18.3916 93.28 18.2749 92.9982 18.2749 92.7043C18.2749 92.4104 18.3916 92.1286 18.5995 91.9207C18.8073 91.7129 19.0891 91.5962 19.383 91.5962H39.5373C39.8312 91.5962 40.113 91.7129 40.3208 91.9207C40.5286 92.1286 40.6454 92.4104 40.6454 92.7043C40.6454 92.9982 40.5286 93.28 40.3208 93.4878C40.113 93.6957 39.8312 93.8124 39.5373 93.8124Z" fill="#323C6B"/>
<path d="M39.5373 73.2637H20.0612C19.7673 73.2637 19.4855 73.1469 19.2777 72.9391C19.0699 72.7313 18.9531 72.4495 18.9531 72.1556C18.9531 71.8617 19.0699 71.5799 19.2777 71.372C19.4855 71.1642 19.7673 71.0475 20.0612 71.0475H39.5373C39.8312 71.0475 40.1131 71.1642 40.3209 71.372C40.5287 71.5799 40.6455 71.8617 40.6455 72.1556C40.6455 72.4495 40.5287 72.7313 40.3209 72.9391C40.1131 73.1469 39.8312 73.2637 39.5373 73.2637Z" fill="#323C6B"/>
<path d="M39.5375 51.8373H25.7482C25.4544 51.8373 25.1725 51.7206 24.9647 51.5128C24.7569 51.3049 24.6401 51.0231 24.6401 50.7292C24.6401 50.4353 24.7569 50.1535 24.9647 49.9457C25.1725 49.7378 25.4544 49.6211 25.7482 49.6211H39.5375C39.8314 49.6211 40.1133 49.7378 40.3211 49.9457C40.5289 50.1535 40.6457 50.4353 40.6457 50.7292C40.6457 51.0231 40.5289 51.3049 40.3211 51.5128C40.1133 51.7206 39.8314 51.8373 39.5375 51.8373Z" fill="#323C6B"/>
<path d="M19.3828 57.0964C22.8993 57.0964 25.75 54.2457 25.75 50.7292C25.75 47.2127 22.8993 44.3621 19.3828 44.3621C15.8663 44.3621 13.0156 47.2127 13.0156 50.7292C13.0156 54.2457 15.8663 57.0964 19.3828 57.0964Z" fill="#9297AB"/>
<path d="M13.0156 78.5161C16.5321 78.5161 19.3828 75.6654 19.3828 72.1489C19.3828 68.6324 16.5321 65.7817 13.0156 65.7817C9.49913 65.7817 6.64844 68.6324 6.64844 72.1489C6.64844 75.6654 9.49913 78.5161 13.0156 78.5161Z" fill="#89C5CD"/>
<path d="M19.3828 119.64C22.8993 119.64 25.75 116.79 25.75 113.273C25.75 109.757 22.8993 106.906 19.3828 106.906C15.8663 106.906 13.0156 109.757 13.0156 113.273C13.0156 116.79 15.8663 119.64 19.3828 119.64Z" fill="#FE7058"/>
<path d="M13.0156 99.0715C16.5321 99.0715 19.3828 96.2209 19.3828 92.7043C19.3828 89.1878 16.5321 86.3372 13.0156 86.3372C9.49913 86.3372 6.64844 89.1878 6.64844 92.7043C6.64844 96.2209 9.49913 99.0715 13.0156 99.0715Z" fill="#FCD462"/>
<path d="M57.0897 19.3919C57.0878 20.7249 56.6675 22.0237 55.8882 23.1052C55.1089 24.1867 54.0098 24.9964 52.7459 25.42C53.3148 24.461 53.6134 23.3658 53.6102 22.2508C53.6108 20.5616 52.9416 18.9412 51.7492 17.7447C50.5569 16.5482 48.9388 15.8734 47.2497 15.8681C46.5634 15.863 45.8813 15.9754 45.2329 16.2005C45.9306 14.9845 47.011 14.0336 48.3058 13.4961C49.6006 12.9586 51.0368 12.8647 52.3906 13.2291C53.7443 13.5934 54.9394 14.3956 55.7894 15.5104C56.6394 16.6252 57.0966 17.99 57.0897 19.3919Z" fill="#EA6453"/>
<path d="M78.5205 13.0092C78.5193 14.345 78.0996 15.6469 77.3206 16.7321C76.5415 17.8173 75.4421 18.6311 74.1767 19.0594C74.7311 18.0904 75.0215 16.9929 75.0191 15.8766C75.0167 14.7602 74.7216 13.664 74.1631 12.6973C73.6047 11.7306 72.8024 10.9274 71.8365 10.3677C70.8706 9.80795 69.7747 9.51138 68.6584 9.50755C67.9722 9.50425 67.2904 9.61663 66.6416 9.83998C67.3401 8.62496 68.4202 7.67456 69.7143 7.13634C71.0083 6.59812 72.4438 6.5022 73.7979 6.86347C75.152 7.22474 76.349 8.02298 77.203 9.13426C78.0569 10.2455 78.5201 11.6077 78.5205 13.0092Z" fill="#6EAAAD"/>
<path d="M119.632 19.3919C119.63 20.7249 119.21 22.0237 118.43 23.1052C117.651 24.1867 116.552 24.9964 115.288 25.42C115.857 24.461 116.155 23.3658 116.152 22.2508C116.153 20.5616 115.484 18.9412 114.291 17.7447C113.099 16.5482 111.481 15.8734 109.792 15.8681C109.106 15.8648 108.424 15.9772 107.775 16.2005C108.473 14.9845 109.553 14.0336 110.848 13.4961C112.143 12.9586 113.579 12.8647 114.933 13.2291C116.286 13.5934 117.481 14.3956 118.331 15.5104C119.181 16.6252 119.639 17.99 119.632 19.3919Z" fill="#84879C"/>
<path d="M99.0648 13.0092C99.0681 14.3431 98.6528 15.6444 97.8776 16.7298C97.1023 17.8152 96.006 18.63 94.7431 19.0595C95.2975 18.0905 95.5879 16.993 95.5855 15.8766C95.5831 14.7602 95.288 13.664 94.7295 12.6974C94.1711 11.7307 93.3688 10.9274 92.4029 10.3677C91.437 9.80801 90.3411 9.51143 89.2248 9.5076C88.5385 9.50254 87.8564 9.61497 87.208 9.84003C87.9047 8.62573 88.9833 7.67575 90.2758 7.13786C91.5683 6.59997 93.0024 6.50435 94.3549 6.86586C95.7074 7.22737 96.9025 8.02575 97.7543 9.13679C98.6061 10.2478 99.0668 11.6092 99.0648 13.0092Z" fill="#F7BE56"/>
<path d="M57.0897 144.608C57.0927 145.942 56.6773 147.243 55.902 148.328C55.1268 149.414 54.0307 150.229 52.768 150.658C53.3224 149.689 53.6128 148.592 53.6104 147.475C53.6081 146.359 53.3129 145.263 52.7544 144.296C52.196 143.33 51.3937 142.526 50.4278 141.967C49.4619 141.407 48.366 141.11 47.2497 141.106C46.5634 141.101 45.8813 141.214 45.2329 141.439C45.9296 140.225 47.0082 139.275 48.3007 138.737C49.5932 138.199 51.0273 138.103 52.3798 138.465C53.7323 138.826 54.9274 139.625 55.7792 140.736C56.631 141.847 57.0917 143.208 57.0897 144.608Z" fill="#84879C"/>
<path d="M78.5202 150.991C78.5154 152.323 78.094 153.621 77.3151 154.702C76.5362 155.782 75.4388 156.593 74.1764 157.019C74.7309 156.051 75.0215 154.955 75.019 153.84C75.0165 152.725 74.721 151.63 74.1621 150.665C73.6033 149.7 72.8007 148.898 71.8347 148.341C70.8687 147.784 69.7733 147.49 68.6581 147.489C67.9647 147.486 67.2756 147.598 66.6191 147.822C67.316 146.601 68.3973 145.645 69.6943 145.103C70.9914 144.56 72.4314 144.462 73.7899 144.824C75.1483 145.186 76.3489 145.987 77.2046 147.102C78.0602 148.218 78.5228 149.585 78.5202 150.991Z" fill="#6EAAAD"/>
<path d="M119.632 144.608C119.635 145.942 119.219 147.243 118.444 148.328C117.669 149.414 116.573 150.229 115.31 150.658C115.864 149.689 116.155 148.592 116.152 147.475C116.15 146.359 115.855 145.263 115.296 144.296C114.738 143.33 113.936 142.526 112.97 141.967C112.004 141.407 110.908 141.11 109.792 141.106C109.106 141.103 108.424 141.216 107.775 141.439C108.472 140.225 109.55 139.275 110.843 138.737C112.135 138.199 113.569 138.103 114.922 138.465C116.274 138.826 117.469 139.625 118.321 140.736C119.173 141.847 119.634 143.208 119.632 144.608Z" fill="#EA6453"/>
<path d="M99.0649 150.991C99.0646 152.321 98.6476 153.618 97.8725 154.699C97.0974 155.78 96.0031 156.592 94.7433 157.019C95.2978 156.051 95.5884 154.955 95.5859 153.84C95.5833 152.725 95.2879 151.63 94.729 150.665C94.1702 149.7 93.3676 148.898 92.4016 148.341C91.4356 147.784 90.3402 147.49 89.2249 147.489C88.5316 147.486 87.8425 147.598 87.186 147.822C87.88 146.6 88.9595 145.642 90.2556 145.099C91.5517 144.556 92.9912 144.458 94.349 144.82C95.7068 145.182 96.9062 145.985 97.7595 147.101C98.6128 148.218 99.0719 149.586 99.0649 150.991Z" fill="#F7BE56"/>
<path d="M150.991 50.7291C150.992 52.063 150.573 53.3634 149.793 54.4455C149.014 55.5277 147.913 56.3366 146.647 56.7572C147.201 55.7897 147.492 54.6934 147.489 53.5782C147.487 52.463 147.191 51.368 146.633 50.4029C146.074 49.4378 145.271 48.6365 144.305 48.0792C143.339 47.5219 142.244 47.2282 141.129 47.2275C140.442 47.2243 139.761 47.3367 139.112 47.5599C139.81 46.3449 140.89 45.3945 142.184 44.8563C143.478 44.3181 144.914 44.2222 146.268 44.5834C147.622 44.9447 148.819 45.743 149.673 46.8542C150.527 47.9655 150.99 49.3276 150.991 50.7291Z" fill="#EA6453"/>
<path d="M157.351 72.1378C157.35 73.4706 156.933 74.7697 156.158 75.8542C155.384 76.9388 154.29 77.7546 153.03 78.1881C153.585 77.2174 153.875 76.1179 153.872 74.9997C153.869 73.8814 153.572 72.7837 153.01 71.8164C152.449 70.8491 151.644 70.0462 150.675 69.488C149.706 68.9299 148.607 68.6362 147.489 68.6362C146.796 68.6329 146.107 68.7453 145.45 68.9686C146.15 67.7529 147.232 66.8021 148.528 66.2635C149.823 65.7249 151.26 65.6287 152.616 65.9897C153.972 66.3508 155.171 67.1489 156.027 68.2604C156.883 69.372 157.348 70.7348 157.351 72.1378Z" fill="#F7BE56"/>
<path d="M150.991 113.271C150.992 114.605 150.573 115.905 149.793 116.987C149.014 118.069 147.913 118.878 146.647 119.299C147.201 118.331 147.492 117.235 147.489 116.12C147.487 115.005 147.191 113.91 146.633 112.945C146.074 111.979 145.271 111.178 144.305 110.621C143.339 110.064 142.244 109.77 141.129 109.769C140.442 109.766 139.761 109.878 139.112 110.102C139.81 108.887 140.89 107.936 142.184 107.398C143.478 106.86 144.914 106.764 146.268 107.125C147.622 107.486 148.819 108.285 149.673 109.396C150.527 110.507 150.99 111.869 150.991 113.271Z" fill="#84879C"/>
<path d="M157.351 92.7044C157.353 94.0351 156.937 95.3329 156.161 96.4144C155.386 97.496 154.291 98.3068 153.03 98.7325C153.585 97.7632 153.876 96.6649 153.872 95.5478C153.869 94.4307 153.571 93.3342 153.01 92.3685C152.448 91.4028 151.643 90.6018 150.674 90.0461C149.704 89.4904 148.606 89.1995 147.489 89.2027C146.796 89.1995 146.107 89.3119 145.45 89.5352C146.15 88.3194 147.232 87.3686 148.528 86.83C149.823 86.2915 151.26 86.1952 152.616 86.5563C153.972 86.9173 155.171 87.7154 156.027 88.827C156.883 89.9385 157.348 91.3014 157.351 92.7044Z" fill="#6EAAAD"/>
<path d="M25.7526 50.7291C25.7543 52.0599 25.3381 53.3577 24.5627 54.4392C23.7873 55.5208 22.6919 56.3316 21.431 56.7572C21.9865 55.788 22.277 54.6897 22.2736 53.5726C22.2701 52.4555 21.9726 51.359 21.4112 50.3933C20.8497 49.4276 20.044 48.6266 19.0749 48.0709C18.1058 47.5152 17.0076 47.2243 15.8905 47.2275C15.1971 47.2243 14.508 47.3367 13.8516 47.5599C14.5518 46.3442 15.6336 45.3934 16.9291 44.8548C18.2246 44.3162 19.6616 44.22 21.0173 44.5811C22.3731 44.9421 23.5719 45.7402 24.428 46.8517C25.2841 47.9633 25.7497 49.3261 25.7526 50.7291Z" fill="#84879C"/>
<path d="M19.3921 72.1378C19.3909 73.4737 18.9712 74.7756 18.1921 75.8608C17.4131 76.9459 16.3137 77.7598 15.0483 78.1881C15.6026 77.2191 15.8931 76.1216 15.8907 75.0052C15.8883 73.8888 15.5932 72.7926 15.0347 71.826C14.4762 70.8593 13.674 70.056 12.7081 69.4963C11.7422 68.9366 10.6463 68.64 9.52994 68.6362C8.84379 68.633 8.16199 68.7453 7.51318 68.9686C8.21169 67.7536 9.29181 66.8032 10.5858 66.265C11.8799 65.7268 13.3154 65.6309 14.6695 65.9921C16.0236 66.3534 17.2206 67.1516 18.0745 68.2629C18.9285 69.3742 19.3917 70.7363 19.3921 72.1378Z" fill="#6EAAAD"/>
<path d="M25.7526 113.271C25.7543 114.602 25.3381 115.899 24.5627 116.981C23.7873 118.063 22.6919 118.873 21.431 119.299C21.9865 118.33 22.277 117.231 22.2736 116.114C22.2701 114.997 21.9726 113.901 21.4112 112.935C20.8497 111.969 20.044 111.168 19.0749 110.613C18.1058 110.057 17.0076 109.766 15.8905 109.769C15.1971 109.766 14.508 109.878 13.8516 110.102C14.5518 108.886 15.6336 107.935 16.9291 107.397C18.2246 106.858 19.6616 106.762 21.0173 107.123C22.3731 107.484 23.5719 108.282 24.428 109.393C25.2841 110.505 25.7497 111.868 25.7526 113.271Z" fill="#EA6453"/>
<path d="M19.3921 92.7044C19.3936 94.0382 18.9746 95.3386 18.1949 96.4207C17.4151 97.5029 16.3141 98.3118 15.0483 98.7325C15.6028 97.7649 15.8934 96.6686 15.8909 95.5534C15.8883 94.4382 15.5929 93.3432 15.034 92.3781C14.4752 91.413 13.6726 90.6117 12.7066 90.0544C11.7406 89.4971 10.6451 89.2034 9.52994 89.2027C8.84379 89.1995 8.162 89.3119 7.51318 89.5352C8.21169 88.3202 9.29181 87.3697 10.5858 86.8315C11.8799 86.2933 13.3154 86.1974 14.6695 86.5587C16.0236 86.9199 17.2206 87.7182 18.0745 88.8295C18.9285 89.9407 19.3917 91.3029 19.3921 92.7044Z" fill="#F7BE56"/>
<path d="M115.465 125.553H48.5354C45.8566 125.55 43.2884 124.485 41.3942 122.591C39.5 120.696 38.4346 118.128 38.4316 115.449V48.5506C38.4346 45.8719 39.5 43.3036 41.3942 41.4095C43.2884 39.5153 45.8566 38.4498 48.5354 38.4469H115.465C118.144 38.4498 120.712 39.5153 122.606 41.4095C124.5 43.3036 125.566 45.8719 125.569 48.5506V115.449C125.566 118.128 124.5 120.696 122.606 122.591C120.712 124.485 118.144 125.55 115.465 125.553ZM48.5354 40.672C46.4442 40.6743 44.4393 41.5061 42.9606 42.9848C41.482 44.4635 40.6502 46.4683 40.6479 48.5595V115.449C40.6502 117.541 41.482 119.545 42.9606 121.024C44.4393 122.503 46.4442 123.334 48.5354 123.337H115.465C117.556 123.334 119.561 122.503 121.04 121.024C122.519 119.545 123.35 117.541 123.353 115.449V48.5506C123.35 46.4595 122.519 44.4546 121.04 42.9759C119.561 41.4972 117.556 40.6655 115.465 40.6631L48.5354 40.672Z" fill="#323C6B"/>
<path d="M81.9999 113.315C77.6475 113.313 73.3431 112.406 69.3602 110.651C65.3773 108.896 61.8031 106.331 58.8649 103.121C58.8427 103.098 58.7031 102.932 58.6853 102.899C54.6571 98.4046 52.0135 92.8421 51.0725 86.8806C50.1314 80.9191 50.9332 74.8127 53.3812 69.2961C55.8292 63.7796 59.8192 59.088 64.871 55.7859C69.9228 52.4837 75.8212 50.7118 81.8564 50.6832C87.8917 50.6547 93.8066 52.3707 98.8894 55.6249C103.972 58.8791 108.006 63.5327 110.507 69.0258C113.007 74.519 113.866 80.6175 112.982 86.5876C112.097 92.5578 109.506 98.1451 105.521 102.677L105.476 102.742C105.354 102.923 105.204 103.084 105.033 103.22C102.105 106.41 98.5453 108.955 94.5796 110.693C90.614 112.431 86.3297 113.324 81.9999 113.315ZM81.9999 52.9011C76.3884 52.8996 70.8961 54.521 66.1851 57.57C61.4741 60.619 57.7454 64.9654 55.4485 70.0853C53.1516 75.2053 52.3844 80.8803 53.2395 86.4263C54.0946 91.9724 56.5354 97.1528 60.2677 101.343L60.4361 101.545C63.1633 104.551 66.4886 106.953 70.1989 108.598C73.9091 110.243 77.9223 111.095 81.9809 111.098C86.0395 111.101 90.0539 110.255 93.7665 108.615C97.4791 106.976 100.808 104.578 103.539 101.576L103.577 101.594C103.621 101.494 103.68 101.401 103.752 101.319C107.477 97.1261 109.91 91.9462 110.76 86.4027C111.609 80.8591 110.839 75.1882 108.54 70.0725C106.242 64.9569 102.514 60.6144 97.8056 57.568C93.097 54.5215 87.6082 52.9009 81.9999 52.9011Z" fill="#323C6B"/>
<path d="M82.0002 82.4011C79.7416 82.4011 77.5336 81.7313 75.6555 80.4765C73.7775 79.2216 72.3138 77.438 71.4494 75.3513C70.585 73.2645 70.3589 70.9683 70.7995 68.753C71.2402 66.5377 72.3278 64.5028 73.925 62.9057C75.5221 61.3085 77.557 60.2209 79.7723 59.7802C81.9876 59.3396 84.2838 59.5657 86.3706 60.4301C88.4573 61.2945 90.2409 62.7582 91.4958 64.6363C92.7506 66.5143 93.4204 68.7223 93.4204 70.981C93.4169 74.0087 92.2126 76.9114 90.0716 79.0523C87.9307 81.1933 85.028 82.3976 82.0002 82.4011ZM82.0002 61.777C80.1799 61.777 78.4004 62.3168 76.8868 63.3282C75.3732 64.3395 74.1935 65.777 73.4969 67.4588C72.8003 69.1406 72.618 70.9912 72.9732 72.7766C73.3283 74.5619 74.2049 76.2019 75.4921 77.4891C76.7793 78.7763 78.4193 79.6529 80.2046 80.008C81.99 80.3632 83.8406 80.1809 85.5224 79.4843C87.2042 78.7877 88.6417 77.608 89.6531 76.0944C90.6644 74.5808 91.2042 72.8013 91.2042 70.981C91.2013 68.5408 90.2306 66.2015 88.5052 64.476C86.7797 62.7506 84.4404 61.7799 82.0002 61.777Z" fill="#323C6B"/>
<path d="M81.9997 113.315C77.6473 113.313 73.3429 112.406 69.36 110.651C65.3771 108.896 61.803 106.331 58.8647 103.121C58.8425 103.098 58.7029 102.932 58.6851 102.899C58.5615 102.775 58.4664 102.625 58.4063 102.461C58.3462 102.296 58.3226 102.121 58.3372 101.946C58.778 98.0952 60.1551 94.4109 62.3483 91.2152C64.5415 88.0195 67.484 85.4095 70.9187 83.6134C71.1163 83.5093 71.3407 83.4674 71.5626 83.4931C71.7845 83.5188 71.9934 83.6109 72.162 83.7575C74.894 86.1268 78.389 87.4312 82.0053 87.4312C85.6216 87.4312 89.1166 86.1268 91.8486 83.7575C92.0162 83.6133 92.2231 83.5225 92.4427 83.4968C92.6622 83.4712 92.8845 83.5118 93.0808 83.6134C96.5132 85.4105 99.4549 88.0183 101.651 91.2104C103.846 94.4025 105.229 98.0824 105.68 101.93C105.682 101.973 105.682 102.016 105.68 102.059V102.081C105.68 102.321 105.602 102.554 105.458 102.746C105.336 102.927 105.186 103.089 105.015 103.225C102.089 106.412 98.5317 108.955 94.5693 110.692C90.6069 112.429 86.3262 113.322 81.9997 113.315ZM60.6 101.724C63.3278 104.682 66.6388 107.041 70.3242 108.655C74.0096 110.269 77.9894 111.101 82.0126 111.1C86.0358 111.099 90.0151 110.264 93.6995 108.648C97.3839 107.032 100.693 104.67 103.419 101.711C102.962 98.4341 101.757 95.3064 99.898 92.5695C98.0388 89.8326 95.5751 87.5599 92.6974 85.9271C89.6521 88.3363 85.8828 89.647 81.9997 89.647C78.1167 89.647 74.3474 88.3363 71.3021 85.9271C68.4235 87.5599 65.9604 89.8347 64.1042 92.5746C62.248 95.3144 61.0489 98.4455 60.6 101.724Z" fill="#323C6B"/>
<path d="M113.273 26.8583C111.794 26.8588 110.349 26.4207 109.119 25.5996C107.89 24.7784 106.931 23.6111 106.365 22.2452C105.799 20.8793 105.651 19.3762 105.939 17.926C106.227 16.4758 106.939 15.1436 107.984 14.098C109.029 13.0523 110.361 12.3401 111.812 12.0515C113.262 11.7629 114.765 11.9108 116.131 12.4765C117.497 13.0423 118.665 14.0004 119.486 15.2297C120.308 16.4591 120.746 17.9044 120.746 19.383C120.744 21.3645 119.956 23.2642 118.555 24.6655C117.154 26.0668 115.254 26.8554 113.273 26.8583ZM113.273 14.1239C112.233 14.1235 111.216 14.4316 110.351 15.0092C109.485 15.5868 108.811 16.408 108.413 17.3689C108.014 18.3298 107.91 19.3873 108.112 20.4077C108.315 21.428 108.816 22.3652 109.551 23.101C110.287 23.8367 111.224 24.3378 112.244 24.5409C113.264 24.744 114.322 24.64 115.283 24.242C116.244 23.844 117.065 23.1699 117.643 22.305C118.221 21.4401 118.53 20.4233 118.53 19.383C118.527 17.9895 117.973 16.6538 116.988 15.6684C116.002 14.6831 114.666 14.1285 113.273 14.1262V14.1239Z" fill="#323C6B"/>
<path d="M50.7268 26.998C49.2483 26.998 47.803 26.5595 46.5737 25.7381C45.3444 24.9168 44.3863 23.7493 43.8205 22.3833C43.2547 21.0174 43.1067 19.5144 43.3951 18.0643C43.6835 16.6142 44.3955 15.2823 45.4409 14.2368C46.4864 13.1914 47.8183 12.4794 49.2684 12.191C50.7185 11.9026 52.2215 12.0506 53.5874 12.6164C54.9534 13.1822 56.1209 14.1403 56.9423 15.3696C57.7636 16.5989 58.2021 18.0442 58.2021 19.5227C58.2003 21.5047 57.4122 23.405 56.0107 24.8066C54.6091 26.2081 52.7088 26.9962 50.7268 26.998ZM50.7268 14.2636C49.6866 14.2636 48.6698 14.572 47.805 15.1499C46.9401 15.7278 46.2661 16.5491 45.868 17.5101C45.47 18.4711 45.3658 19.5285 45.5687 20.5487C45.7717 21.5688 46.2725 22.5059 47.008 23.2414C47.7435 23.9769 48.6806 24.4778 49.7008 24.6807C50.7209 24.8836 51.7784 24.7795 52.7393 24.3814C53.7003 23.9834 54.5217 23.3093 55.0995 22.4445C55.6774 21.5796 55.9858 20.5628 55.9858 19.5227C55.9847 18.1282 55.4302 16.7912 54.4442 15.8052C53.4582 14.8192 52.1212 14.2648 50.7268 14.2636Z" fill="#323C6B"/>
<path d="M72.1489 20.6308C70.6703 20.6312 69.2248 20.1932 67.9952 19.372C66.7657 18.5509 65.8072 17.3836 65.2411 16.0177C64.6749 14.6518 64.5266 13.1487 64.8148 11.6985C65.1029 10.2483 65.8147 8.91609 66.8601 7.87043C67.9054 6.82477 69.2374 6.11259 70.6875 5.82398C72.1376 5.53536 73.6408 5.68327 75.0068 6.24899C76.3729 6.81471 77.5405 7.77284 78.362 9.00219C79.1835 10.2315 79.622 11.6769 79.622 13.1555C79.6202 15.1371 78.8324 17.0371 77.4314 18.4386C76.0303 19.84 74.1306 20.6284 72.1489 20.6308ZM72.1489 7.89639C71.1087 7.89596 70.0917 8.20402 69.2265 8.78163C68.3614 9.35924 67.687 10.1804 67.2886 11.1414C66.8902 12.1023 66.7857 13.1598 66.9884 14.1801C67.1911 15.2004 67.6918 16.1377 68.4272 16.8734C69.1626 17.6091 70.0997 18.1102 71.1199 18.3133C72.1401 18.5164 73.1976 18.4124 74.1587 18.0144C75.1198 17.6165 75.9413 16.9424 76.5193 16.0775C77.0973 15.2126 77.4058 14.1957 77.4058 13.1555C77.404 11.7616 76.8497 10.4253 75.8643 9.43947C74.8789 8.45364 73.5428 7.89874 72.1489 7.89639Z" fill="#323C6B"/>
<path d="M92.7024 20.6308C91.2237 20.6316 89.778 20.194 88.5481 19.3731C87.3182 18.5523 86.3594 17.3851 85.793 16.0192C85.2265 14.6534 85.0778 13.1502 85.3658 11.6998C85.6537 10.2495 86.3653 8.91709 87.4106 7.87121C88.4558 6.82533 89.7878 6.11293 91.238 5.82414C92.6882 5.53534 94.1914 5.68312 95.5576 6.24878C96.9238 6.81444 98.0915 7.77256 98.9131 9.00196C99.7347 10.2314 100.173 11.6768 100.173 13.1555C100.171 15.1367 99.384 17.0364 97.9834 18.4378C96.5829 19.8392 94.6836 20.6278 92.7024 20.6308ZM92.7024 7.89639C91.6621 7.89552 90.6448 8.20321 89.7794 8.78055C88.914 9.3579 88.2392 10.1789 87.8405 11.1398C87.4417 12.1007 87.337 13.1583 87.5394 14.1788C87.7418 15.1992 88.2423 16.1367 88.9777 16.8726C89.713 17.6086 90.65 18.1099 91.6703 18.3132C92.6906 18.5165 93.7483 18.4126 94.7095 18.0147C95.6707 17.6167 96.4923 16.9427 97.0704 16.0777C97.6485 15.2128 97.957 14.1958 97.957 13.1555C97.9553 11.762 97.4012 10.426 96.4163 9.44025C95.4314 8.45449 94.0959 7.89933 92.7024 7.89639Z" fill="#323C6B"/>
<path d="M50.7268 152.092C49.2483 152.092 47.803 151.654 46.5737 150.833C45.3444 150.011 44.3863 148.844 43.8205 147.478C43.2547 146.112 43.1067 144.609 43.3951 143.159C43.6835 141.709 44.3955 140.377 45.4409 139.331C46.4864 138.286 47.8183 137.574 49.2684 137.285C50.7185 136.997 52.2215 137.145 53.5874 137.711C54.9534 138.277 56.1209 139.235 56.9423 140.464C57.7636 141.693 58.2021 143.139 58.2021 144.617C58.2003 146.599 57.4122 148.499 56.0107 149.901C54.6091 151.302 52.7088 152.091 50.7268 152.092ZM50.7268 139.358C49.6866 139.358 48.6698 139.666 47.805 140.244C46.9401 140.822 46.2661 141.643 45.868 142.604C45.47 143.565 45.3658 144.623 45.5687 145.643C45.7717 146.663 46.2725 147.6 47.008 148.336C47.7435 149.071 48.6806 149.572 49.7008 149.775C50.7209 149.978 51.7784 149.874 52.7393 149.476C53.7003 149.078 54.5217 148.404 55.0995 147.539C55.6774 146.674 55.9858 145.657 55.9858 144.617C55.9841 143.223 55.4294 141.887 54.4434 140.901C53.4575 139.915 52.1208 139.361 50.7268 139.36V139.358Z" fill="#323C6B"/>
<path d="M72.1489 158.46C70.6703 158.46 69.2248 158.022 67.9952 157.201C66.7657 156.38 65.8072 155.212 65.2411 153.846C64.6749 152.481 64.5266 150.977 64.8148 149.527C65.1029 148.077 65.8147 146.745 66.8601 145.699C67.9054 144.653 69.2374 143.941 70.6875 143.653C72.1376 143.364 73.6408 143.512 75.0068 144.078C76.3729 144.643 77.5405 145.602 78.362 146.831C79.1835 148.06 79.622 149.506 79.622 150.984C79.6196 152.966 78.8316 154.865 77.4307 156.267C76.0298 157.668 74.1304 158.457 72.1489 158.46ZM72.1489 145.725C71.1087 145.725 70.0917 146.033 69.2265 146.61C68.3614 147.188 67.687 148.009 67.2886 148.97C66.8902 149.931 66.7857 150.989 66.9884 152.009C67.1911 153.029 67.6918 153.966 68.4272 154.702C69.1626 155.438 70.0997 155.939 71.1199 156.142C72.1401 156.345 73.1976 156.241 74.1587 155.843C75.1198 155.445 75.9413 154.771 76.5193 153.906C77.0973 153.041 77.4058 152.024 77.4058 150.984C77.4034 149.591 76.8488 148.255 75.8635 147.27C74.8781 146.284 73.5424 145.73 72.1489 145.727V145.725Z" fill="#323C6B"/>
<path d="M113.273 152.092C111.794 152.093 110.349 151.655 109.119 150.834C107.89 150.012 106.931 148.845 106.365 147.479C105.799 146.113 105.651 144.61 105.939 143.16C106.227 141.71 106.939 140.378 107.984 139.332C109.029 138.286 110.361 137.574 111.812 137.286C113.262 136.997 114.765 137.145 116.131 137.711C117.497 138.276 118.665 139.234 119.486 140.464C120.308 141.693 120.746 143.138 120.746 144.617C120.744 146.599 119.956 148.499 118.555 149.9C117.154 151.302 115.255 152.09 113.273 152.092ZM113.273 139.358C112.233 139.358 111.216 139.666 110.351 140.243C109.485 140.821 108.811 141.642 108.413 142.603C108.014 143.564 107.91 144.621 108.112 145.642C108.315 146.662 108.816 147.599 109.551 148.335C110.287 149.071 111.224 149.572 112.244 149.775C113.264 149.978 114.322 149.874 115.283 149.476C116.244 149.078 117.065 148.404 117.643 147.539C118.221 146.674 118.53 145.657 118.53 144.617C118.527 143.224 117.973 141.888 116.988 140.902C116.002 139.917 114.666 139.363 113.273 139.36V139.358Z" fill="#323C6B"/>
<path d="M92.7024 158.459C91.2237 158.46 89.778 158.023 88.5481 157.202C87.3182 156.381 86.3594 155.214 85.793 153.848C85.2265 152.482 85.0778 150.979 85.3658 149.529C85.6537 148.078 86.3653 146.746 87.4106 145.7C88.4558 144.654 89.7878 143.942 91.238 143.653C92.6882 143.364 94.1914 143.512 95.5576 144.078C96.9238 144.643 98.0915 145.601 98.9131 146.831C99.7347 148.06 100.173 149.506 100.173 150.984C100.171 152.965 99.3832 154.865 97.9828 156.266C96.5823 157.667 94.6835 158.456 92.7024 158.459ZM92.7024 145.725C91.6621 145.724 90.6448 146.032 89.7794 146.609C88.914 147.187 88.2392 148.008 87.8405 148.969C87.4417 149.929 87.337 150.987 87.5394 152.007C87.7418 153.028 88.2423 153.965 88.9777 154.701C89.713 155.437 90.65 155.939 91.6703 156.142C92.6906 156.345 93.7483 156.241 94.7095 155.843C95.6707 155.445 96.4923 154.771 97.0704 153.906C97.6485 153.042 97.957 152.025 97.957 150.984C97.9547 149.591 97.4004 148.256 96.4155 147.27C95.4307 146.285 94.0955 145.73 92.7024 145.727V145.725Z" fill="#323C6B"/>
<path d="M144.617 58.2023C143.138 58.2023 141.693 57.7639 140.464 56.9425C139.235 56.1211 138.276 54.9536 137.711 53.5877C137.145 52.2217 136.997 50.7187 137.285 49.2687C137.574 47.8186 138.286 46.4866 139.331 45.4412C140.377 44.3957 141.708 43.6838 143.159 43.3953C144.609 43.1069 146.112 43.2549 147.478 43.8207C148.844 44.3865 150.011 45.3447 150.832 46.574C151.654 47.8033 152.092 49.2485 152.092 50.727C152.09 52.709 151.302 54.6094 149.901 56.0109C148.499 57.4124 146.599 58.2005 144.617 58.2023ZM144.617 45.4679C143.577 45.4679 142.56 45.7764 141.695 46.3542C140.83 46.9321 140.156 47.7535 139.758 48.7144C139.36 49.6754 139.256 50.7328 139.459 51.753C139.662 52.7732 140.163 53.7102 140.898 54.4457C141.634 55.1812 142.571 55.6821 143.591 55.885C144.611 56.088 145.668 55.9838 146.629 55.5858C147.59 55.1877 148.412 54.5137 148.99 53.6488C149.568 52.7839 149.876 51.7672 149.876 50.727C149.874 49.333 149.32 47.9965 148.334 47.011C147.348 46.0255 146.011 45.4713 144.617 45.4701V45.4679Z" fill="#323C6B"/>
<path d="M150.984 79.6242C149.506 79.6242 148.06 79.1858 146.831 78.3644C145.602 77.543 144.644 76.3755 144.078 75.0096C143.512 73.6436 143.364 72.1406 143.652 70.6905C143.941 69.2405 144.653 67.9085 145.698 66.8631C146.744 65.8176 148.076 65.1057 149.526 64.8172C150.976 64.5288 152.479 64.6768 153.845 65.2426C155.211 65.8084 156.378 66.7665 157.2 67.9958C158.021 69.2251 158.459 70.6704 158.459 72.1489C158.457 74.1307 157.669 76.0307 156.267 77.4321C154.866 78.8335 152.966 79.6218 150.984 79.6242ZM150.984 66.8898C149.944 66.8898 148.927 67.1982 148.062 67.7761C147.197 68.354 146.523 69.1753 146.125 70.1363C145.727 71.0973 145.623 72.1547 145.826 73.1749C146.029 74.195 146.53 75.1321 147.265 75.8676C148.001 76.6031 148.938 77.104 149.958 77.3069C150.978 77.5098 152.036 77.4057 152.997 77.0076C153.958 76.6096 154.779 75.9355 155.357 75.0707C155.935 74.2058 156.243 73.189 156.243 72.1489C156.241 70.7546 155.687 69.418 154.701 68.4321C153.715 67.4462 152.378 66.8916 150.984 66.8898Z" fill="#323C6B"/>
<path d="M144.617 120.748C143.138 120.748 141.693 120.31 140.464 119.489C139.235 118.667 138.276 117.5 137.711 116.134C137.145 114.768 136.997 113.265 137.285 111.815C137.574 110.365 138.286 109.033 139.331 107.987C140.377 106.942 141.708 106.23 143.159 105.941C144.609 105.653 146.112 105.801 147.478 106.367C148.844 106.933 150.011 107.891 150.832 109.12C151.654 110.349 152.092 111.795 152.092 113.273C152.09 115.255 151.302 117.155 149.901 118.557C148.499 119.958 146.599 120.747 144.617 120.748ZM144.617 108.014C143.577 108.014 142.56 108.322 141.695 108.9C140.83 109.478 140.156 110.299 139.758 111.26C139.36 112.221 139.256 113.279 139.459 114.299C139.662 115.319 140.163 116.256 140.898 116.992C141.634 117.727 142.571 118.228 143.591 118.431C144.611 118.634 145.668 118.53 146.629 118.132C147.59 117.734 148.412 117.06 148.99 116.195C149.568 115.33 149.876 114.313 149.876 113.273C149.874 111.879 149.32 110.543 148.334 109.557C147.348 108.571 146.011 108.017 144.617 108.016V108.014Z" fill="#323C6B"/>
<path d="M150.984 100.173C149.505 100.173 148.06 99.7344 146.83 98.9127C145.601 98.091 144.643 96.9232 144.077 95.5569C143.512 94.1905 143.364 92.6872 143.653 91.2369C143.942 89.7867 144.655 88.4547 145.701 87.4095C146.747 86.3644 148.079 85.6529 149.53 85.3652C150.98 85.0776 152.484 85.2265 153.849 85.7934C155.215 86.3602 156.382 87.3193 157.203 88.5495C158.023 89.7797 158.461 91.2256 158.459 92.7044C158.455 94.6851 157.666 96.5834 156.265 97.9833C154.864 99.3833 152.965 100.171 150.984 100.173ZM150.984 87.4386C149.944 87.4386 148.928 87.7469 148.063 88.3245C147.198 88.9021 146.524 89.723 146.126 90.6836C145.728 91.6442 145.623 92.7013 145.826 93.7213C146.028 94.7413 146.528 95.6783 147.263 96.4141C147.998 97.1499 148.934 97.6513 149.954 97.8549C150.974 98.0586 152.031 97.9554 152.992 97.5584C153.953 97.1614 154.775 96.4883 155.354 95.6243C155.932 94.7604 156.242 93.7442 156.243 92.7044C156.241 91.3101 155.687 89.9735 154.701 88.9876C153.715 88.0017 152.378 87.447 150.984 87.4453V87.4386Z" fill="#323C6B"/>
<path d="M19.3833 58.2023C17.9047 58.2027 16.4592 57.7647 15.2296 56.9436C14 56.1224 13.0416 54.9551 12.4754 53.5892C11.9093 52.2233 11.7609 50.7202 12.0491 49.27C12.3373 47.8198 13.0491 46.4876 14.0944 45.442C15.1398 44.3963 16.4718 43.6841 17.9219 43.3955C19.372 43.1069 20.8752 43.2548 22.2412 43.8205C23.6073 44.3862 24.7749 45.3444 25.5964 46.5737C26.4179 47.8031 26.8564 49.2484 26.8564 50.727C26.8546 52.7087 26.0668 54.6087 24.6657 56.0101C23.2647 57.4116 21.3649 58.2 19.3833 58.2023ZM19.3833 45.4679C18.343 45.4675 17.326 45.7756 16.4609 46.3532C15.5957 46.9308 14.9213 47.752 14.5229 48.7129C14.1246 49.6738 14.0201 50.7313 14.2228 51.7516C14.4254 52.772 14.9261 53.7092 15.6615 54.445C16.397 55.1807 17.334 55.6818 18.3543 55.8849C19.3745 56.088 20.432 55.984 21.3931 55.586C22.3542 55.188 23.1757 54.5139 23.7537 53.649C24.3316 52.7841 24.6401 51.7673 24.6401 50.727C24.6378 49.3335 24.0832 47.9978 23.0979 47.0124C22.1125 46.0271 20.7768 45.4725 19.3833 45.4701V45.4679Z" fill="#323C6B"/>
<path d="M13.0158 79.6242C11.5374 79.6242 10.0921 79.1858 8.86278 78.3644C7.63347 77.543 6.67534 76.3755 6.10955 75.0096C5.54377 73.6436 5.39573 72.1406 5.68417 70.6905C5.9726 69.2405 6.68456 67.9085 7.72999 66.8631C8.77543 65.8176 10.1074 65.1057 11.5575 64.8172C13.0075 64.5288 14.5106 64.6768 15.8765 65.2426C17.2424 65.8084 18.4099 66.7665 19.2313 67.9958C20.0527 69.2251 20.4911 70.6704 20.4911 72.1489C20.4888 74.1307 19.7005 76.0307 18.2991 77.4321C16.8977 78.8335 14.9977 79.6218 13.0158 79.6242ZM13.0158 66.8898C11.9757 66.8898 10.9589 67.1982 10.094 67.7761C9.22919 68.354 8.55512 69.1753 8.15707 70.1363C7.75902 71.0973 7.65488 72.1547 7.8578 73.1749C8.06072 74.195 8.5616 75.1321 9.2971 75.8676C10.0326 76.6031 10.9697 77.104 11.9898 77.3069C13.01 77.5098 14.0674 77.4057 15.0284 77.0076C15.9894 76.6096 16.8107 75.9355 17.3886 75.0707C17.9665 74.2058 18.2749 73.189 18.2749 72.1489C18.2732 70.7546 17.7185 69.418 16.7326 68.4321C15.7467 67.4462 14.4101 66.8916 13.0158 66.8898Z" fill="#323C6B"/>
<path d="M19.3833 120.748C17.9047 120.749 16.4592 120.311 15.2296 119.49C14 118.668 13.0416 117.501 12.4754 116.135C11.9093 114.769 11.7609 113.266 12.0491 111.816C12.3373 110.366 13.0491 109.034 14.0944 107.988C15.1398 106.942 16.4718 106.23 17.9219 105.942C19.372 105.653 20.8752 105.801 22.2412 106.367C23.6073 106.932 24.7749 107.89 25.5964 109.12C26.4179 110.349 26.8564 111.794 26.8564 113.273C26.854 115.255 26.066 117.154 24.6651 118.555C23.2642 119.957 21.3647 120.745 19.3833 120.748ZM19.3833 108.014C18.343 108.014 17.326 108.322 16.4609 108.899C15.5957 109.477 14.9213 110.298 14.5229 111.259C14.1246 112.22 14.0201 113.277 14.2228 114.298C14.4254 115.318 14.9261 116.255 15.6615 116.991C16.397 117.727 17.334 118.228 18.3543 118.431C19.3745 118.634 20.432 118.53 21.3931 118.132C22.3542 117.734 23.1757 117.06 23.7537 116.195C24.3316 115.33 24.6401 114.313 24.6401 113.273C24.6378 111.88 24.0832 110.544 23.0979 109.558C22.1125 108.573 20.7768 108.019 19.3833 108.016V108.014Z" fill="#323C6B"/>
<path d="M13.0158 100.173C11.5371 100.173 10.0915 99.7344 8.86208 98.9127C7.63263 98.091 6.67451 96.9232 6.10892 95.5569C5.54333 94.1905 5.39568 92.6872 5.68465 91.2369C5.97363 89.7867 6.68624 88.4547 7.73235 87.4095C8.77845 86.3644 10.111 85.6529 11.5615 85.3652C13.0121 85.0776 14.5153 85.2265 15.8811 85.7934C17.2469 86.3602 18.4139 87.3193 19.2345 88.5495C20.0551 89.7797 20.4924 91.2256 20.4911 92.7044C20.487 94.6851 19.6979 96.5834 18.2967 97.9833C16.8955 99.3833 14.9965 100.171 13.0158 100.173ZM13.0158 87.4386C11.976 87.4386 10.9594 87.7469 10.0947 88.3245C9.23002 88.9021 8.55595 89.723 8.15771 90.6836C7.75946 91.6442 7.65493 92.7013 7.85731 93.7213C8.0597 94.7413 8.55992 95.6783 9.29475 96.4141C10.0296 97.1499 10.966 97.6513 11.9858 97.8549C13.0055 98.0586 14.0627 97.9554 15.0238 97.5584C15.9849 97.1614 16.8067 96.4883 17.3854 95.6243C17.964 94.7604 18.2736 93.7442 18.2749 92.7044C18.2731 91.3101 17.7185 89.9735 16.7326 88.9876C15.7467 88.0017 14.4101 87.447 13.0158 87.4453V87.4386Z" fill="#323C6B"/>
<path d="M46.5914 97.5579C46.7567 97.5582 46.9202 97.591 47.0727 97.6546C47.2252 97.7181 47.3636 97.8111 47.4801 97.9283C47.5966 98.0454 47.6889 98.1843 47.7517 98.3372C47.8144 98.49 47.8464 98.6537 47.8458 98.8189L47.8059 114.25C47.8059 114.584 47.6734 114.904 47.4376 115.14C47.2017 115.376 46.8818 115.508 46.5482 115.508C46.2147 115.508 45.8948 115.376 45.6589 115.14C45.423 114.904 45.2905 114.584 45.2905 114.25L45.3304 98.8189C45.3298 98.6531 45.3621 98.4889 45.4252 98.3356C45.4884 98.1824 45.5812 98.0431 45.6985 97.9259C45.8157 97.8087 45.9549 97.7158 46.1082 97.6527C46.2614 97.5895 46.4257 97.5573 46.5914 97.5579Z" fill="white"/>
<path d="M46.6048 91.9729C46.77 91.9732 46.9335 92.0061 47.086 92.0696C47.2385 92.1332 47.377 92.2262 47.4935 92.3433C47.61 92.4604 47.7022 92.5994 47.765 92.7522C47.8277 92.905 47.8597 93.0687 47.8592 93.2339V93.8988C47.8592 94.2324 47.7267 94.5523 47.4908 94.7881C47.2549 95.024 46.935 95.1565 46.6015 95.1565C46.2679 95.1565 45.948 95.024 45.7121 94.7881C45.4763 94.5523 45.3438 94.2324 45.3438 93.8988V93.2339C45.3432 93.0682 45.3754 92.9039 45.4386 92.7507C45.5017 92.5974 45.5946 92.4582 45.7118 92.3409C45.829 92.2237 45.9683 92.1309 46.1215 92.0677C46.2748 92.0045 46.439 91.9723 46.6048 91.9729Z" fill="white"/>
</svg>
