<svg width="164" height="164" viewBox="0 0 164 164" fill="none" xmlns="http://www.w3.org/2000/svg">
<path d="M157.351 98.4443V117.482C157.349 119.926 156.377 122.27 154.649 123.999C152.92 125.727 150.576 126.699 148.132 126.701H15.8679C13.4233 126.699 11.0793 125.727 9.3507 123.999C7.6221 122.27 6.6502 119.926 6.64844 117.482V98.4443H157.351Z" fill="#E1E6E9"/>
<path d="M157.351 20.8767V98.4443H6.64844V20.8767C6.6502 18.4321 7.6221 16.0881 9.3507 14.3595C11.0793 12.6309 13.4233 11.659 15.8679 11.6572H148.132C150.576 11.659 152.92 12.6309 154.649 14.3595C156.377 16.0881 157.349 18.4321 157.351 20.8767Z" fill="#89C5CD"/>
<path d="M157.351 20.8767V98.4443H6.64844V20.8767C6.6502 18.4321 7.6221 16.0881 9.3507 14.3595C11.0793 12.6309 13.4233 11.659 15.8679 11.6572H148.132C150.576 11.659 152.92 12.6309 154.649 14.3595C156.377 16.0881 157.349 18.4321 157.351 20.8767Z" fill="#FA9825"/>
<path d="M157.352 98.4443V117.482C157.35 119.926 156.378 122.27 154.649 123.999C152.921 125.727 150.577 126.699 148.132 126.701H141.483C143.928 126.699 146.272 125.727 148.001 123.999C149.729 122.27 150.701 119.926 150.703 117.482V98.4443H157.352Z" fill="#D5D6DB"/>
<path d="M157.352 20.8767V98.4443H150.703V20.8767C150.701 18.4321 149.729 16.0881 148.001 14.3595C146.272 12.6309 143.928 11.659 141.483 11.6572H148.132C150.577 11.659 152.921 12.6309 154.649 14.3595C156.378 16.0881 157.35 18.4321 157.352 20.8767Z" fill="#FCD462"/>
<path d="M106.117 144.464L102.704 126.683H61.2962L57.8633 144.464H106.117Z" fill="#EEEFEE"/>
<path d="M106.113 144.475H99.5526L96.1396 126.679H102.7L106.113 144.475Z" fill="#E1E6E9"/>
<path d="M117.539 155.275H46.4604C46.4604 152.413 47.5973 149.668 49.621 147.644C51.6446 145.621 54.3893 144.484 57.2512 144.484H106.748C109.61 144.484 112.355 145.621 114.378 147.644C116.402 149.668 117.539 152.413 117.539 155.275Z" fill="#E1E6E9"/>
<path d="M117.548 155.268H110.345C110.345 152.406 109.208 149.66 107.184 147.636C105.16 145.612 102.415 144.475 99.5522 144.475H106.755C109.617 144.475 112.363 145.612 114.387 147.636C116.411 149.66 117.548 152.406 117.548 155.268Z" fill="#D5D6DB"/>
<path d="M82.0002 116.839C84.4567 116.839 86.4481 114.848 86.4481 112.391C86.4481 109.935 84.4567 107.943 82.0002 107.943C79.5437 107.943 77.5522 109.935 77.5522 112.391C77.5522 114.848 79.5437 116.839 82.0002 116.839Z" fill="#27CCBC"/>
<path d="M81.9999 117.947C80.901 117.947 79.8268 117.621 78.9131 117.011C77.9994 116.4 77.2873 115.532 76.8668 114.517C76.4463 113.502 76.3362 112.385 76.5506 111.307C76.765 110.229 77.2942 109.239 78.0712 108.462C78.8482 107.685 79.8382 107.156 80.916 106.942C81.9937 106.727 83.1109 106.837 84.1261 107.258C85.1413 107.678 86.0091 108.391 86.6196 109.304C87.2301 110.218 87.556 111.292 87.556 112.391C87.5542 113.864 86.9683 115.276 85.9267 116.318C84.8851 117.359 83.4729 117.945 81.9999 117.947ZM81.9999 109.051C81.3393 109.051 80.6936 109.247 80.1444 109.614C79.5952 109.981 79.1671 110.503 78.9143 111.113C78.6615 111.723 78.5954 112.395 78.7242 113.043C78.8531 113.69 79.1712 114.286 79.6383 114.753C80.1054 115.22 80.7005 115.538 81.3483 115.667C81.9962 115.796 82.6677 115.729 83.278 115.477C83.8883 115.224 84.4099 114.796 84.7769 114.247C85.1439 113.697 85.3397 113.052 85.3397 112.391C85.3386 111.506 84.9863 110.657 84.3602 110.031C83.7341 109.405 82.8853 109.052 81.9999 109.051Z" fill="#323C6B"/>
<path d="M138.42 134.447H120.369C120.075 134.447 119.794 134.33 119.586 134.122C119.378 133.914 119.261 133.632 119.261 133.339C119.261 133.045 119.378 132.763 119.586 132.555C119.794 132.347 120.075 132.23 120.369 132.23H138.423C138.717 132.23 138.998 132.347 139.206 132.555C139.414 132.763 139.531 133.045 139.531 133.339C139.531 133.632 139.414 133.914 139.206 134.122C138.998 134.33 138.717 134.447 138.423 134.447H138.42Z" fill="#323C6B"/>
<path d="M115.946 134.447H115.438C115.144 134.447 114.862 134.33 114.655 134.122C114.447 133.914 114.33 133.632 114.33 133.339C114.33 133.045 114.447 132.763 114.655 132.555C114.862 132.347 115.144 132.23 115.438 132.23H115.946C116.24 132.23 116.521 132.347 116.729 132.555C116.937 132.763 117.054 133.045 117.054 133.339C117.054 133.632 116.937 133.914 116.729 134.122C116.521 134.33 116.24 134.447 115.946 134.447Z" fill="#323C6B"/>
<path d="M1.21019 15.9302C1.02888 15.9297 0.85046 15.8848 0.690575 15.7993C0.53069 15.7138 0.394225 15.5903 0.293149 15.4398C0.192074 15.2893 0.129476 15.1163 0.110846 14.9359C0.0922162 14.7556 0.118123 14.5734 0.186296 14.4054C1.46509 11.2983 3.63875 8.64143 6.43105 6.77253C9.22335 4.90363 12.5082 3.90705 15.8682 3.90943C16.1621 3.90943 16.444 4.02617 16.6518 4.23399C16.8596 4.4418 16.9764 4.72365 16.9764 5.01754C16.9764 5.31142 16.8596 5.59328 16.6518 5.80109C16.444 6.0089 16.1621 6.12564 15.8682 6.12564C12.9476 6.12295 10.0921 6.98849 7.66442 8.61231C5.23678 10.2361 3.34662 12.5449 2.23408 15.2454C2.15032 15.448 2.00832 15.6213 1.82606 15.7432C1.64379 15.8651 1.42946 15.9301 1.21019 15.9302Z" fill="#323C6B"/>
<path d="M22.1622 6.12564H21.238C20.9441 6.12564 20.6622 6.00889 20.4544 5.80108C20.2466 5.59327 20.1299 5.31142 20.1299 5.01753C20.1299 4.72364 20.2466 4.44179 20.4544 4.23398C20.6622 4.02617 20.9441 3.90942 21.238 3.90942H22.1622C22.456 3.90942 22.7379 4.02617 22.9457 4.23398C23.1535 4.44179 23.2703 4.72364 23.2703 5.01753C23.2703 5.31142 23.1535 5.59327 22.9457 5.80108C22.7379 6.00889 22.456 6.12564 22.1622 6.12564Z" fill="#323C6B"/>
<path d="M148.132 127.809H15.8681C13.13 127.806 10.5048 126.717 8.56864 124.781C6.63248 122.845 5.54346 120.22 5.54053 117.482V97.3362H158.459V117.482C158.456 120.22 157.367 122.845 155.431 124.781C153.495 126.717 150.87 127.806 148.132 127.809ZM7.75674 99.5524V117.482C7.75909 119.632 8.61443 121.694 10.1351 123.215C11.6558 124.735 13.7176 125.591 15.8681 125.593H148.132C150.282 125.591 152.344 124.735 153.865 123.215C155.386 121.694 156.241 119.632 156.243 117.482V99.5524H7.75674Z" fill="#323C6B"/>
<path d="M118.647 156.383H45.3525V155.275C45.3561 152.12 46.6108 149.096 48.8415 146.865C51.0722 144.634 54.0967 143.379 57.2514 143.376H106.748C109.903 143.379 112.928 144.634 115.158 146.865C117.389 149.096 118.644 152.12 118.647 155.275V156.383ZM47.6308 154.167H116.369C116.094 151.807 114.962 149.631 113.189 148.05C111.416 146.47 109.124 145.595 106.748 145.592H57.2514C54.876 145.595 52.5843 146.47 50.8109 148.05C49.0376 149.631 47.906 151.807 47.6308 154.167Z" fill="#323C6B"/>
<path d="M107.457 145.574H56.5132L60.3716 125.577H103.61L107.457 145.574ZM59.2059 143.358H104.774L101.786 127.794H62.2111L59.2059 143.358Z" fill="#323C6B"/>
<g opacity="0.4">
<path opacity="0.4" d="M86.0111 11.6572L47.6041 98.4443H44.5679L82.9971 11.6572H86.0111Z" fill="#EEEFEE"/>
<path opacity="0.4" d="M114.401 11.6572L75.9716 98.4443H66.1538L104.561 11.6572H114.401Z" fill="#EEEFEE"/>
<path opacity="0.4" d="M98.1115 11.6572L59.6823 98.4443H52.9229L91.3299 11.6572H98.1115Z" fill="#EEEFEE"/>
</g>
<path d="M158.459 99.5523H5.54053V20.8766C5.54346 18.1385 6.63248 15.5133 8.56864 13.5772C10.5048 11.641 13.13 10.552 15.8681 10.5491H148.132C150.87 10.552 153.495 11.641 155.431 13.5772C157.367 15.5133 158.456 18.1385 158.459 20.8766V99.5523ZM7.75674 97.3361H156.243V20.8766C156.241 18.7261 155.386 16.6643 153.865 15.1436C152.344 13.623 150.282 12.7676 148.132 12.7653H15.8681C13.7176 12.7676 11.6558 13.623 10.1351 15.1436C8.61443 16.6643 7.75909 18.7261 7.75674 20.8766V97.3361Z" fill="#323C6B"/>
<path d="M45.5879 50.41C43.2763 50.4076 41.06 49.4883 39.4255 47.8538C37.7909 46.2192 36.8716 44.003 36.8693 41.6914V30.9782C36.8508 29.8217 37.0627 28.6731 37.4925 27.5993C37.9223 26.5255 38.5615 25.5479 39.3728 24.7236C40.1842 23.8992 41.1514 23.2445 42.2182 22.7976C43.285 22.3507 44.4301 22.1206 45.5868 22.1206C46.7434 22.1206 47.8885 22.3507 48.9553 22.7976C50.0221 23.2445 50.9894 23.8992 51.8007 24.7236C52.612 25.5479 53.2512 26.5255 53.681 27.5993C54.1108 28.6731 54.3227 29.8217 54.3042 30.9782V41.6914C54.3019 44.0026 53.3829 46.2185 51.7488 47.853C50.1148 49.4875 47.8991 50.407 45.5879 50.41ZM45.5879 24.4803C43.8639 24.482 42.211 25.1677 40.9919 26.3867C39.7729 27.6058 39.0872 29.2586 39.0855 30.9826V41.6958C39.1169 43.3993 39.8157 45.0223 41.0315 46.2159C42.2473 47.4095 43.883 48.0782 45.5868 48.0782C47.2905 48.0782 48.9262 47.4095 50.142 46.2159C51.3578 45.0223 52.0566 43.3993 52.088 41.6958V30.9782C52.0863 29.2546 51.4009 27.602 50.1824 26.383C48.9638 25.1641 47.3115 24.4782 45.5879 24.4758V24.4803Z" fill="#323C6B"/>
<path d="M61.8345 23.3677H64.0507V49.2996H61.8345V23.3677Z" fill="#323C6B"/>
<path d="M111.196 23.3677H113.413V49.2996H111.196V23.3677Z" fill="#323C6B"/>
<path d="M111.196 60.1147H113.413V86.0467H111.196V60.1147Z" fill="#323C6B"/>
<path d="M124.913 23.3677H127.129V49.2996H124.913V23.3677Z" fill="#323C6B"/>
<path d="M80.7632 50.41C78.4516 50.4076 76.2353 49.4883 74.6008 47.8538C72.9662 46.2192 72.0469 44.003 72.0446 41.6914V30.9782C72.0261 29.8217 72.238 28.6731 72.6678 27.5993C73.0976 26.5255 73.7368 25.5479 74.5481 24.7236C75.3594 23.8992 76.3267 23.2445 77.3935 22.7976C78.4603 22.3507 79.6054 22.1206 80.7621 22.1206C81.9187 22.1206 83.0638 22.3507 84.1306 22.7976C85.1974 23.2445 86.1647 23.8992 86.976 24.7236C87.7873 25.5479 88.4265 26.5255 88.8563 27.5993C89.2861 28.6731 89.498 29.8217 89.4795 30.9782V41.6914C89.4772 44.0026 88.5582 46.2185 86.9241 47.853C85.2901 49.4875 83.0744 50.407 80.7632 50.41ZM80.7632 24.4803C79.0392 24.482 77.3863 25.1677 76.1672 26.3867C74.9482 27.6058 74.2625 29.2586 74.2608 30.9826V41.6958C74.2922 43.3993 74.991 45.0223 76.2068 46.2159C77.4226 47.4095 79.0583 48.0782 80.7621 48.0782C82.4658 48.0782 84.1015 47.4095 85.3173 46.2159C86.5331 45.0223 87.2319 43.3993 87.2633 41.6958V30.9782C87.2616 29.2546 86.5762 27.602 85.3577 26.383C84.1391 25.1641 82.4868 24.4782 80.7632 24.4758V24.4803Z" fill="#323C6B"/>
<path d="M97.478 23.3677H99.6942V49.2996H97.478V23.3677Z" fill="#323C6B"/>
<path d="M94.7831 87.1549C92.4715 87.1526 90.2552 86.2333 88.6207 84.5987C86.9861 82.9642 86.0668 80.7479 86.0645 78.4363V67.7254C86.1009 65.4374 87.0354 63.2555 88.6663 61.6504C90.2972 60.0453 92.4937 59.1458 94.7819 59.1458C97.0702 59.1458 99.2667 60.0453 100.898 61.6504C102.528 63.2555 103.463 65.4374 103.499 67.7254V78.4386C103.496 80.7494 102.577 82.9647 100.943 84.5987C99.3092 86.2327 97.0939 87.152 94.7831 87.1549ZM94.7831 61.2252C93.0591 61.2269 91.4062 61.9126 90.1871 63.1316C88.9681 64.3507 88.2824 66.0036 88.2807 67.7276V78.4408C88.3121 80.1442 89.0109 81.7673 90.2267 82.9608C91.4425 84.1544 93.0782 84.8231 94.7819 84.8231C96.4857 84.8231 98.1214 84.1544 99.3372 82.9608C100.553 81.7673 101.252 80.1442 101.283 78.4408V67.7254C101.281 66.0017 100.596 64.3492 99.3776 63.1302C98.159 61.9112 96.5067 61.2253 94.7831 61.223V61.2252Z" fill="#323C6B"/>
<path d="M55.5605 60.1147H57.7768V86.0467H55.5605V60.1147Z" fill="#323C6B"/>
<path d="M36.8711 60.1147H39.0873V86.0467H36.8711V60.1147Z" fill="#323C6B"/>
<path d="M124.913 60.1147H127.129V86.0467H124.913V60.1147Z" fill="#323C6B"/>
<path d="M74.25 60.1147H76.4662V86.0467H74.25V60.1147Z" fill="#323C6B"/>
<path d="M31.4925 90.6432C31.4925 91.0699 31.323 91.4791 31.0212 91.7809C30.7195 92.0826 30.3102 92.2521 29.8835 92.2521H12.8541C12.6428 92.2521 12.4336 92.2105 12.2384 92.1297C12.0432 92.0488 11.8658 91.9303 11.7164 91.7809C11.567 91.6315 11.4485 91.4541 11.3676 91.2589C11.2867 91.0637 11.2451 90.8545 11.2451 90.6432C11.2451 90.4319 11.2867 90.2227 11.3676 90.0274C11.4485 89.8322 11.567 89.6549 11.7164 89.5054C11.8658 89.356 12.0432 89.2375 12.2384 89.1567C12.4336 89.0758 12.6428 89.0342 12.8541 89.0342H29.8768C30.0887 89.0333 30.2986 89.0743 30.4946 89.1548C30.6906 89.2352 30.8688 89.3536 31.0189 89.5031C31.169 89.6526 31.2881 89.8303 31.3694 90.0259C31.4506 90.2216 31.4925 90.4313 31.4925 90.6432Z" fill="white"/>
<path d="M37.9793 90.6432C37.9793 91.0699 37.8098 91.4791 37.5081 91.7809C37.2063 92.0826 36.7971 92.2521 36.3703 92.2521H35.526C35.0992 92.2521 34.69 92.0826 34.3882 91.7809C34.0865 91.4791 33.917 91.0699 33.917 90.6432C33.917 90.2164 34.0865 89.8072 34.3882 89.5054C34.69 89.2037 35.0992 89.0342 35.526 89.0342H36.3703C36.7971 89.0342 37.2063 89.2037 37.5081 89.5054C37.8098 89.8072 37.9793 90.2164 37.9793 90.6432Z" fill="white"/>
</svg>
