<svg width="164" height="164" viewBox="0 0 164 164" fill="none" xmlns="http://www.w3.org/2000/svg">
<g clip-path="url(#clip0)">
<path d="M111.314 93.2317L151.895 129.134C153.538 130.593 154.865 132.373 155.796 134.364C156.726 136.354 157.24 138.514 157.305 140.711C157.37 142.907 156.986 145.094 156.176 147.136C155.365 149.179 154.146 151.034 152.593 152.588C151.039 154.142 149.185 155.362 147.143 156.174C145.1 156.985 142.914 157.37 140.718 157.306C138.521 157.242 136.361 156.729 134.37 155.8C132.379 154.871 130.599 153.544 129.139 151.902L93.2051 111.303" fill="#9297AB"/>
<path d="M103.195 103.208C125.282 81.1207 125.282 45.31 103.195 23.2227C81.1074 1.13533 45.2968 1.13533 23.2095 23.2227C1.12212 45.31 1.12212 81.1207 23.2095 103.208C45.2968 125.295 81.1074 125.295 103.195 103.208Z" fill="#9297AB"/>
<path d="M111.314 93.2317L151.895 129.134C153.538 130.593 154.865 132.373 155.796 134.364C156.726 136.354 157.24 138.514 157.305 140.711C157.37 142.907 156.986 145.094 156.176 147.136C155.365 149.179 154.146 151.034 152.593 152.588C151.039 154.142 149.185 155.362 147.143 156.174C145.1 156.985 142.914 157.37 140.718 157.306C138.521 157.242 136.361 156.729 134.37 155.8C132.379 154.871 130.599 153.544 129.139 151.902L93.2051 111.303" fill="#9297AB"/>
<path d="M152.631 152.609C151.587 153.646 150.409 154.541 149.129 155.268C151.183 152.03 152.012 148.165 151.468 144.37C150.923 140.575 149.041 137.099 146.16 134.569L105.736 98.799L111.321 93.2363L151.9 129.139C153.549 130.595 154.884 132.373 155.82 134.364C156.756 136.355 157.274 138.517 157.343 140.716C157.411 142.915 157.028 145.105 156.218 147.15C155.408 149.195 154.187 151.053 152.631 152.609Z" fill="#84879C"/>
<path d="M103.209 103.209C101.946 104.472 100.616 105.669 99.2641 106.777C108.895 96.232 114.18 82.4343 114.06 68.1536C113.94 53.873 108.423 40.1662 98.6162 29.7844C88.8095 19.4027 75.4391 13.1143 61.1884 12.1815C46.9377 11.2486 32.8615 15.7403 21.7852 24.7551C22.2284 24.2454 22.716 23.7356 23.2257 23.2259C33.8553 12.7307 48.2051 6.86684 63.1428 6.91435C78.0805 6.96186 92.3928 12.9169 102.955 23.4795C113.518 34.0421 119.473 48.3544 119.52 63.292C119.568 78.2297 113.704 92.5796 103.209 103.209Z" fill="#84879C"/>
<path d="M15.0699 23.935C14.8619 23.9369 14.6575 23.8802 14.4801 23.7713C14.3028 23.6625 14.1597 23.5059 14.0672 23.3195C13.9747 23.1331 13.9365 22.9245 13.9571 22.7174C13.9776 22.5104 14.0561 22.3133 14.1834 22.1487L14.5159 21.69C14.6777 21.4683 14.8394 21.2467 15.0167 21.0251C15.1056 20.9048 15.2179 20.8037 15.3469 20.728C15.4759 20.6523 15.6189 20.6034 15.7672 20.5844C15.9156 20.5654 16.0663 20.5766 16.2102 20.6174C16.3541 20.6582 16.4882 20.7277 16.6046 20.8217C16.7209 20.9158 16.817 21.0324 16.887 21.1645C16.9571 21.2966 16.9997 21.4416 17.0122 21.5907C17.0248 21.7397 17.007 21.8897 16.96 22.0317C16.913 22.1737 16.8377 22.3047 16.7387 22.4169C16.5925 22.6008 16.4573 22.7892 16.3221 22.9798C16.1869 23.1704 16.0717 23.3344 15.9365 23.5073C15.8337 23.6394 15.7024 23.7465 15.5523 23.8206C15.4022 23.8946 15.2373 23.9338 15.0699 23.935Z" fill="#323C6B"/>
<path d="M18.7627 19.392C18.5431 19.3919 18.3286 19.3267 18.1462 19.2045C17.9638 19.0823 17.8218 18.9087 17.7382 18.7057C17.6547 18.5027 17.6333 18.2795 17.6768 18.0643C17.7203 17.8491 17.8267 17.6517 17.9826 17.4971C23.2534 12.2684 29.3918 7.99411 36.1245 4.86469C36.3911 4.74067 36.696 4.72762 36.9722 4.82841C37.1089 4.87831 37.2345 4.95466 37.3417 5.0531C37.449 5.15154 37.5358 5.27014 37.5972 5.40212C37.6586 5.53411 37.6934 5.6769 37.6996 5.82234C37.7059 5.96778 37.6834 6.11302 37.6335 6.24977C37.5836 6.38652 37.5072 6.5121 37.4088 6.61934C37.3103 6.72659 37.1917 6.81339 37.0597 6.8748C30.5618 9.89896 24.6379 14.0277 19.5516 19.0773C19.4473 19.1791 19.3239 19.2592 19.1885 19.3132C19.0531 19.3672 18.9084 19.394 18.7627 19.392Z" fill="#323C6B"/>
<path d="M131.53 162.914C131.368 162.914 131.207 162.879 131.06 162.81C128.117 161.44 125.487 159.478 123.334 157.048L118.789 151.915C118.687 151.807 118.608 151.68 118.557 151.541C118.505 151.401 118.482 151.253 118.488 151.105C118.495 150.957 118.531 150.812 118.595 150.678C118.659 150.544 118.749 150.424 118.86 150.326C118.971 150.227 119.101 150.152 119.242 150.105C119.382 150.057 119.531 150.039 119.679 150.05C119.827 150.061 119.971 150.102 120.103 150.17C120.235 150.238 120.352 150.332 120.447 150.446L124.994 155.578C126.948 157.781 129.333 159.559 132.002 160.802C132.231 160.909 132.416 161.09 132.527 161.316C132.639 161.543 132.669 161.8 132.615 162.047C132.56 162.293 132.423 162.513 132.226 162.671C132.029 162.828 131.784 162.914 131.532 162.914H131.53Z" fill="#323C6B"/>
<path d="M116.369 148.617C116.212 148.617 116.058 148.584 115.915 148.52C115.772 148.456 115.644 148.362 115.54 148.245L114.716 147.314C114.614 147.206 114.535 147.079 114.483 146.94C114.432 146.801 114.409 146.653 114.415 146.504C114.422 146.356 114.458 146.211 114.522 146.077C114.586 145.943 114.676 145.823 114.787 145.725C114.898 145.626 115.028 145.551 115.168 145.504C115.309 145.457 115.458 145.438 115.606 145.449C115.754 145.46 115.898 145.501 116.03 145.569C116.162 145.637 116.278 145.731 116.373 145.845L117.198 146.776C117.34 146.935 117.432 147.133 117.465 147.344C117.497 147.555 117.468 147.771 117.38 147.966C117.292 148.16 117.15 148.326 116.971 148.442C116.792 148.558 116.583 148.619 116.369 148.619V148.617Z" fill="#323C6B"/>
<path d="M141.242 158.46C141.064 158.46 140.885 158.46 140.708 158.46C138.353 158.395 136.037 157.844 133.905 156.842C131.773 155.84 129.872 154.409 128.319 152.638L92.3763 112.036C92.2746 111.929 92.1956 111.801 92.1439 111.662C92.0923 111.523 92.0692 111.375 92.0758 111.227C92.0825 111.079 92.1188 110.933 92.1827 110.799C92.2466 110.665 92.3368 110.546 92.4478 110.447C92.5588 110.349 92.6885 110.274 92.8291 110.226C92.9697 110.179 93.1183 110.16 93.2663 110.172C93.4142 110.183 93.5584 110.224 93.6903 110.291C93.8222 110.359 93.9391 110.453 94.0341 110.567L129.968 151.168C131.322 152.713 132.982 153.962 134.842 154.835C136.702 155.708 138.722 156.188 140.776 156.243C142.825 156.301 144.865 155.94 146.77 155.184C148.675 154.427 150.406 153.29 151.857 151.842C153.307 150.393 154.444 148.663 155.199 146.758C155.954 144.853 156.31 142.814 156.246 140.766C156.182 138.717 155.698 136.704 154.826 134.85C153.953 132.996 152.71 131.34 151.173 129.986L110.589 94.0607C110.378 93.8637 110.253 93.5922 110.239 93.3039C110.225 93.0156 110.324 92.7333 110.515 92.5171C110.706 92.3008 110.974 92.1677 111.262 92.146C111.55 92.1242 111.835 92.2157 112.056 92.4008L152.629 128.319C155.248 130.635 157.101 133.692 157.941 137.086C158.782 140.479 158.57 144.048 157.335 147.318C156.099 150.589 153.898 153.406 151.024 155.396C148.149 157.386 144.738 158.454 141.242 158.46Z" fill="#323C6B"/>
<path d="M63.2133 120.864C53.7305 120.864 44.394 118.525 36.031 114.055C27.668 109.584 20.5365 103.12 15.2684 95.2354C10.0003 87.3506 6.75814 78.2882 5.82914 68.8509C4.90014 59.4137 6.31298 49.8931 9.94249 41.1323C13.572 32.3716 19.3062 24.6412 26.637 18.626C33.9678 12.6108 42.669 8.49639 51.9699 6.64733C61.2707 4.79827 70.8839 5.27161 79.9581 8.02541C89.0323 10.7792 97.2872 15.7285 103.992 22.4347C112.062 30.4966 117.559 40.7714 119.787 51.9588C122.015 63.1461 120.873 74.743 116.507 85.2814C112.141 95.8198 104.747 104.826 95.26 111.16C85.7731 117.494 74.6203 120.871 63.2133 120.864ZM63.2133 7.78556C50.3964 7.79717 37.98 12.252 28.0791 20.3912C18.1783 28.5304 11.4055 39.8504 8.91456 52.4229C6.42359 64.9954 8.36853 78.0427 14.4181 89.3421C20.4676 100.641 30.2474 109.494 42.0917 114.392C53.9359 119.289 67.1118 119.929 79.3748 116.202C91.6379 112.475 102.229 104.612 109.345 93.9517C116.461 83.2916 119.661 70.4942 118.4 57.7395C117.139 44.9848 111.495 33.0618 102.429 24.0016C97.2829 18.8488 91.1692 14.7636 84.4393 11.9807C77.7093 9.19788 70.4959 7.77218 63.2133 7.78556Z" fill="#323C6B"/>
<path d="M94.2838 94.2972C111.45 77.1312 111.45 49.2995 94.2838 32.1334C77.1177 14.9674 49.286 14.9674 32.12 32.1334C14.9539 49.2995 14.9539 77.1312 32.12 94.2972C49.286 111.463 77.1177 111.463 94.2838 94.2972Z" fill="#89C5CD"/>
<g opacity="0.4">
<path opacity="0.4" d="M60.4098 19.3408L35.1449 97.0347C34.3701 96.4189 33.6303 95.7604 32.9287 95.0623L57.4379 19.6444C58.4374 19.5026 59.4125 19.4051 60.4098 19.3408Z" fill="#EEEFEE"/>
<path opacity="0.4" d="M85.3468 25.2383L58.7833 106.966C55.8233 106.669 52.9022 106.066 50.0669 105.166L77.2355 21.5527C80.0627 22.4892 82.7818 23.7248 85.3468 25.2383Z" fill="#EEEFEE"/>
<path opacity="0.4" d="M71.5993 20.0568L44.6235 103.054C42.7463 102.181 40.9346 101.174 39.2026 100.04L65.4404 19.2966C67.5084 19.4083 69.5662 19.6623 71.5993 20.0568Z" fill="#EEEFEE"/>
</g>
<path d="M90.1577 61.8878C90.9346 63.4525 91.3381 65.176 91.3367 66.923C91.3347 69.2259 90.6098 71.47 89.2642 73.3388C87.9186 75.2076 86.0203 76.6069 83.8371 77.3392L83.7728 87.4385L74.1455 90.2443L70.3381 79.5421C68.9326 79.527 67.5532 79.1604 66.3257 78.4756C65.0982 77.7908 64.0616 76.8097 63.3105 75.6217C61.8175 76.3303 60.1849 76.6961 58.5323 76.6921C57.0114 76.6912 55.5063 76.3833 54.1072 75.787C52.7082 75.1906 51.4438 74.3181 50.3899 73.2215C48.6338 74.2671 46.632 74.8287 44.5883 74.8491C42.5445 74.8696 40.5319 74.3481 38.7552 73.3378C36.9785 72.3275 35.5013 70.8645 34.4739 69.0977C33.4464 67.3309 32.9055 65.3234 32.9062 63.2796C32.8878 61.1642 33.4754 59.0879 34.5994 57.2958C34.2614 56.3549 34.0947 55.3611 34.1074 54.3615C34.1021 52.3996 34.7108 50.4853 35.8483 48.8868C36.9857 47.2883 38.5949 46.0858 40.4502 45.4479C41.1105 43.3072 42.4373 41.4335 44.2373 40.1C46.0373 38.7664 48.2163 38.0428 50.4564 38.0346C50.9226 38.0267 51.3886 38.0623 51.8482 38.141C52.8246 36.9552 54.0375 35.9858 55.4094 35.2948C56.7813 34.6039 58.2822 34.2064 59.8163 34.1278C61.3504 34.0492 62.884 34.2911 64.3194 34.8383C65.7548 35.3854 67.0604 36.2257 68.1529 37.3055C69.7022 36.5033 71.4213 36.0845 73.166 36.0844C75.187 36.0828 77.1675 36.6508 78.8805 37.7233C80.5934 38.7958 81.9695 40.3292 82.8508 42.1479C85.0535 42.3258 87.1596 43.129 88.9213 44.4631C90.683 45.7972 92.027 47.6067 92.7953 49.6787C93.5636 51.7507 93.7241 53.999 93.258 56.1592C92.7919 58.3193 91.7186 60.3014 90.1643 61.8723L90.1577 61.8878Z" fill="#FA9825"/>
<path d="M79.7616 81.9779C81.2746 81.4697 82.6587 80.6378 83.8173 79.54L83.773 87.4298L79.7173 88.6265L79.7616 81.9779Z" fill="#EA6453"/>
<path d="M90.1559 61.8989C90.9364 63.4606 91.3387 65.1839 91.3305 66.9297C91.3307 68.7839 90.8614 70.6079 89.9662 72.2317C89.071 73.8555 87.7791 75.226 86.2111 76.2156C86.9137 74.7649 87.2775 73.1735 87.2749 71.5616C87.2696 69.8173 86.868 68.097 86.1003 66.5308C87.6513 64.9568 88.7217 62.9734 89.186 60.813C89.6503 58.6525 89.4892 56.4045 88.7217 54.3323C87.9543 52.26 86.6121 50.4495 84.8525 49.1127C83.093 47.7759 80.9889 46.9682 78.7868 46.7843C78.1522 45.4904 77.2654 44.3365 76.1784 43.3903C75.0914 42.4442 73.8263 41.7249 72.4573 41.2747C71.0883 40.8246 69.6431 40.6527 68.2068 40.7692C66.7704 40.8857 65.3718 41.2881 64.0932 41.9529C63 40.8727 61.6936 40.0323 60.2574 39.4852C58.8211 38.9382 57.2866 38.6966 55.7518 38.7759C54.217 38.8551 52.7155 39.2535 51.3432 39.9455C49.971 40.6375 48.7581 41.608 47.7819 42.7951C47.3211 42.7133 46.8536 42.6762 46.3857 42.6843C44.4515 42.6772 42.5545 43.2149 40.9116 44.2356C41.7412 42.3943 43.0827 40.8304 44.7762 39.7301C46.4698 38.6299 48.444 38.0398 50.4635 38.0302C50.9241 38.0222 51.3843 38.0593 51.8376 38.141C52.8797 36.8832 54.187 35.8714 55.6659 35.1779C57.1448 34.4844 58.7587 34.1265 60.3922 34.1297C61.8315 34.125 63.2576 34.4044 64.5887 34.9521C65.9198 35.4997 67.1297 36.3048 68.1489 37.3211C69.6964 36.5186 71.4144 36.1006 73.1576 36.1021C75.1776 36.0973 77.158 36.6625 78.8712 37.7327C80.5844 38.803 81.9609 40.3349 82.8424 42.1524C85.0487 42.3285 87.1586 43.1317 88.9234 44.4673C90.6882 45.803 92.0343 47.6154 92.803 49.6909C93.5717 51.7664 93.7309 54.0184 93.2619 56.1814C92.7929 58.3444 91.7152 60.3282 90.1559 61.8989Z" fill="#EA6453"/>
<path d="M66.9607 49.9998C66.7574 49.9998 66.5581 49.9438 66.3845 49.8381C65.2079 49.3092 64.194 48.4757 63.4475 47.4237C62.701 46.3717 62.249 45.1394 62.1382 43.8543C62.1537 39.6435 67.3707 36.4853 67.5923 36.3524C67.7172 36.2776 67.8555 36.2281 67.9995 36.2068C68.1435 36.1855 68.2902 36.1927 68.4314 36.2281C68.5726 36.2635 68.7054 36.3264 68.8223 36.4131C68.9392 36.4998 69.0378 36.6087 69.1126 36.7336C69.1874 36.8584 69.2369 36.9968 69.2582 37.1408C69.2795 37.2847 69.2723 37.4315 69.2369 37.5727C69.2015 37.7138 69.1386 37.8467 69.0519 37.9636C68.9652 38.0804 68.8563 38.1791 68.7314 38.2539C67.5169 38.9852 64.3588 41.4186 64.3544 43.8654C64.3544 45.2815 65.4204 46.6511 67.5369 47.9343C67.7433 48.0601 67.9029 48.2498 67.9914 48.4747C68.08 48.6996 68.0926 48.9472 68.0273 49.1799C67.962 49.4126 67.8225 49.6176 67.6299 49.7636C67.4374 49.9096 67.2023 49.9887 66.9607 49.9888V49.9998Z" fill="#323C6B"/>
<path d="M57.7966 50.062C57.4261 50.0614 57.056 50.0377 56.6885 49.9911C56.401 49.9497 56.1412 49.797 55.9651 49.566C55.789 49.3349 55.7107 49.044 55.747 48.7557C55.7833 48.4675 55.9313 48.2051 56.1593 48.0249C56.3872 47.8448 56.6767 47.7614 56.9655 47.7926C57.555 47.9015 58.1605 47.8891 58.745 47.7561C59.3296 47.6231 59.8808 47.3723 60.3652 47.0191C61.3524 46.0942 61.9851 44.8531 62.1537 43.5109C62.1872 43.2206 62.3316 42.9546 62.5567 42.7683C62.7818 42.582 63.0701 42.49 63.3615 42.5113C63.6539 42.5389 63.9233 42.6813 64.1107 42.9073C64.2981 43.1334 64.3882 43.4246 64.361 43.717C64.1385 45.6598 63.2103 47.4532 61.7525 48.7566C60.6263 49.6394 59.2271 50.1011 57.7966 50.062Z" fill="#323C6B"/>
<path d="M34.6063 58.4062C34.3934 58.4064 34.1849 58.3452 34.0058 58.2301C33.8267 58.1149 33.6846 57.9506 33.5965 57.7568C33.5083 57.5629 33.4779 57.3478 33.5088 57.1372C33.5397 56.9265 33.6307 56.7292 33.7708 56.5689C34.9472 55.3916 36.4248 54.5606 38.042 54.167C39.6591 53.7734 41.3533 53.8323 42.9392 54.3372C43.0825 54.3718 43.2174 54.4346 43.3361 54.522C43.4548 54.6094 43.5548 54.7195 43.6304 54.846C43.706 54.9726 43.7555 55.1129 43.7762 55.2588C43.7969 55.4047 43.7883 55.5533 43.7508 55.6958C43.7134 55.8384 43.6479 55.972 43.5582 56.0889C43.4685 56.2058 43.3563 56.3037 43.2283 56.3767C43.1003 56.4498 42.959 56.4966 42.8128 56.5143C42.6665 56.5321 42.5181 56.5205 42.3763 56.4803C41.1884 56.0859 39.9156 56.0219 38.6941 56.2952C37.4726 56.5685 36.3484 57.1687 35.4418 58.0316C35.3372 58.15 35.2086 58.2446 35.0645 58.3092C34.9204 58.3738 34.7642 58.4069 34.6063 58.4062Z" fill="#323C6B"/>
<path d="M50.399 74.323C50.2445 74.3229 50.0918 74.2905 49.9506 74.2279C49.8093 74.1653 49.6828 74.0739 49.579 73.9595C47.8051 72.1407 46.4557 69.952 45.6275 67.5502C45.551 67.2663 45.5905 66.9637 45.7373 66.7089C45.884 66.4541 46.1259 66.2681 46.4098 66.1917C46.6937 66.1153 46.9963 66.1547 47.2511 66.3015C47.5058 66.4482 47.6919 66.6901 47.7683 66.974C48.5178 69.029 49.6938 70.9022 51.219 72.4702C51.3631 72.6291 51.4581 72.8264 51.4923 73.0382C51.5265 73.25 51.4985 73.4671 51.4117 73.6633C51.3248 73.8595 51.1829 74.0263 51.0032 74.1434C50.8234 74.2605 50.6135 74.3228 50.399 74.323Z" fill="#323C6B"/>
<path d="M90.1468 63.0026C89.9375 63.0024 89.7326 62.943 89.5557 62.8313C89.3789 62.7195 89.2372 62.5599 89.1473 62.371C88.1791 60.1637 86.5324 58.3226 84.4464 57.115C82.3605 55.9074 79.9439 55.3963 77.5476 55.6559C77.2604 55.6913 76.9708 55.613 76.7406 55.4378C76.5104 55.2625 76.3579 55.0042 76.3156 54.7179C76.2733 54.4317 76.3447 54.1403 76.5145 53.906C76.6842 53.6717 76.9389 53.5131 77.224 53.464C80.085 53.1673 82.967 53.7749 85.4647 55.2012C87.9624 56.6276 89.9502 58.801 91.1485 61.4158C91.2289 61.5846 91.2653 61.7711 91.2542 61.9578C91.2432 62.1445 91.1851 62.3253 91.0853 62.4835C90.9855 62.6417 90.8474 62.772 90.6836 62.8624C90.5199 62.9528 90.336 63.0002 90.149 63.0004L90.1468 63.0026Z" fill="#323C6B"/>
<path d="M63.3151 76.7319C63.0498 76.7315 62.7935 76.636 62.5926 76.4627C62.3918 76.2894 62.2598 76.0498 62.2206 75.7874C62.1815 75.525 62.2377 75.2573 62.3792 75.0329C62.5207 74.8085 62.7379 74.6423 62.9915 74.5644C64.6969 73.8988 66.2125 72.8242 67.405 71.4353C68.5976 70.0464 69.4306 68.3857 69.8308 66.5994C69.8896 66.3114 70.0603 66.0585 70.3055 65.8964C70.5508 65.7343 70.8503 65.6763 71.1383 65.735C71.4263 65.7938 71.6792 65.9646 71.8413 66.2098C72.0034 66.455 72.0614 66.7546 72.0027 67.0426C71.5291 69.2218 70.515 71.2469 69.0539 72.9315C67.5927 74.6162 65.7312 75.9063 63.6409 76.6831C63.5354 76.7158 63.4255 76.7323 63.3151 76.7319Z" fill="#323C6B"/>
<path d="M60.0441 65.9301C59.7729 65.9322 59.5103 65.8348 59.3061 65.6563C59.1018 65.4779 58.9702 65.2307 58.936 64.9616C58.6606 63.7446 58.6752 62.4799 58.9786 61.2695C59.2819 60.0592 59.8656 58.9371 60.6824 57.9938C61.4641 57.3085 62.3807 56.7945 63.3731 56.4849C64.3655 56.1754 65.4118 56.0771 66.4445 56.1964C66.7361 56.2347 67.0005 56.3871 67.1796 56.6203C67.3588 56.8534 67.4379 57.1482 67.3997 57.4397C67.3615 57.7313 67.2091 57.9957 66.9759 58.1748C66.7427 58.354 66.448 58.4331 66.1564 58.3949C65.4569 58.3178 64.749 58.3824 64.075 58.585C63.401 58.7876 62.7748 59.1239 62.2337 59.574C61.6736 60.2834 61.2826 61.1113 61.0906 61.9946C60.8986 62.8778 60.9106 63.7933 61.1256 64.6713C61.1443 64.8158 61.1342 64.9626 61.0961 65.1032C61.0579 65.2438 60.9924 65.3756 60.9032 65.4909C60.8141 65.6061 60.7031 65.7027 60.5766 65.775C60.4501 65.8473 60.3106 65.894 60.166 65.9123C60.1257 65.9202 60.085 65.9261 60.0441 65.9301Z" fill="#323C6B"/>
<path d="M73.4538 91.6027L69.5422 80.6147C68.2498 80.4983 66.9951 80.1169 65.8566 79.4942C64.718 78.8715 63.72 78.021 62.9246 76.9956C60.7903 77.8079 58.4727 78.0131 56.2289 77.5887C53.985 77.1643 51.9026 76.1267 50.2124 74.591C48.2799 75.5714 46.1284 76.0401 43.9633 75.9524C41.7981 75.8646 39.6916 75.2232 37.8449 74.0896C35.9981 72.9559 34.4728 71.3678 33.4146 69.4769C32.3563 67.5859 31.8004 65.4552 31.8001 63.2883C31.7865 61.147 32.3343 59.0396 33.3891 57.176C33.1235 56.2669 32.9921 55.3239 32.999 54.3769C32.9906 52.2779 33.6124 50.2247 34.7839 48.483C35.9555 46.7413 37.6228 45.3913 39.5701 44.6078C40.3708 42.3625 41.8473 40.4202 43.7966 39.0479C45.7459 37.6756 48.0723 36.9407 50.4562 36.9442C50.7288 36.9442 51.0545 36.9442 51.4025 36.9818C53.543 34.6406 56.5133 33.2279 59.6803 33.0449C62.8474 32.862 65.9606 33.9231 68.3565 36.0023C71.0737 34.8084 74.1388 34.6722 76.9511 35.6205C79.7634 36.5687 82.1203 38.533 83.5598 41.1284C86.616 41.5403 89.42 43.0439 91.4543 45.3617C93.4885 47.6794 94.6156 50.6548 94.6276 53.7386C94.6329 56.8219 93.5105 59.8007 91.4717 62.1137C92.1133 63.6405 92.4433 65.2801 92.4424 66.9362C92.4432 69.3352 91.7298 71.6802 90.3929 73.6722C89.0561 75.6642 87.1564 77.2131 84.9361 78.1215L84.8651 88.2828L73.4538 91.6027ZM63.7224 74.1987L64.2477 75.0298C64.8957 76.0648 65.7943 76.9196 66.8604 77.515C67.9265 78.1104 69.1256 78.4273 70.3467 78.4362H71.1224L74.839 88.8834L82.6644 86.6007L82.7354 76.5324L83.4844 76.2798C85.4469 75.625 87.1539 74.37 88.3641 72.6921C89.5743 71.0142 90.2265 68.9984 90.2284 66.9296C90.2298 65.3549 89.8665 63.8014 89.1668 62.3908L88.8122 61.6816L89.3707 61.1164C90.3393 60.1452 91.1068 58.9924 91.6293 57.7241C92.1518 56.4559 92.4191 55.097 92.4158 53.7253C92.4069 51.0905 91.4112 48.5545 89.6251 46.6174C87.8389 44.6803 85.3919 43.4826 82.7664 43.2604L82.1325 43.2116L81.8555 42.6376C81.287 41.4747 80.4915 40.4374 79.5157 39.5869C78.5399 38.7364 77.4038 38.0898 76.1742 37.6854C74.9445 37.281 73.6464 37.1268 72.3563 37.2321C71.0662 37.3374 69.8102 37.6999 68.6624 38.2983L67.9488 38.6662L67.377 38.101C66.394 37.1298 65.2195 36.374 63.9282 35.8818C62.637 35.3896 61.2574 35.1718 59.8773 35.2422C58.4972 35.3127 57.147 35.6699 55.9126 36.2911C54.6782 36.9123 53.5868 37.7838 52.7078 38.8501L52.2912 39.362L51.6374 39.2269C51.2472 39.1614 50.8517 39.1324 50.4562 39.1404C48.4552 39.1584 46.5114 39.8101 44.9039 41.0018C43.2964 42.1936 42.108 43.8642 41.5093 45.7736L41.3431 46.3143L40.8068 46.496C39.1692 47.0566 37.7489 48.117 36.7461 49.5277C35.7433 50.9385 35.2086 52.6284 35.2175 54.3592C35.2062 55.2271 35.3495 56.0901 35.6408 56.9078L35.8336 57.4242L35.5366 57.8896C34.5271 59.5016 33.9996 61.3687 34.0163 63.2706C34.0152 65.1183 34.5038 66.9333 35.4322 68.5308C36.3607 70.1283 37.6959 71.4512 39.3019 72.3649C40.9078 73.2786 42.7273 73.7504 44.5749 73.7323C46.4225 73.7142 48.2323 73.2068 49.8201 72.2618L50.5758 71.8185L51.1853 72.4502C52.1351 73.4414 53.2756 74.2302 54.5381 74.7691C55.8007 75.308 57.1593 75.5859 58.5321 75.5861C60.0189 75.5872 61.4875 75.2579 62.8315 74.6221L63.7224 74.1987Z" fill="#323C6B"/>
<path d="M63.2131 108.286C55.8006 108.288 48.5023 106.461 41.9645 102.968C35.4268 99.4748 29.8515 94.4231 25.7326 88.2605C21.6136 82.0979 19.0782 75.0145 18.3508 67.6378C17.6235 60.2612 18.7267 52.819 21.5628 45.9706C24.3988 39.1222 28.8802 33.0789 34.6098 28.3762C40.3394 23.6735 47.1405 20.4566 54.4104 19.0103C61.6804 17.564 69.1948 17.9331 76.2881 20.0848C83.3813 22.2366 89.8344 26.1045 95.0756 31.346C101.378 37.649 105.67 45.6791 107.409 54.4212C109.149 63.1633 108.257 72.2247 104.846 80.4599C101.436 88.6951 95.6603 95.7342 88.2498 100.687C80.8392 105.64 72.1264 108.285 63.2131 108.286ZM63.2131 20.3603C53.2987 20.362 43.6916 23.8012 36.0287 30.0919C28.3657 36.3827 23.1209 45.1358 21.1879 54.8599C19.2549 64.584 20.7533 74.6775 25.4278 83.4207C30.1022 92.1639 37.6636 99.0159 46.8236 102.809C55.9835 106.603 66.1754 107.103 75.6627 104.224C85.15 101.346 93.3458 95.2669 98.8537 87.0233C104.362 78.7796 106.841 68.8813 105.869 59.0147C104.897 49.1481 100.535 39.9236 93.5242 32.9129C89.5531 28.9201 84.8292 25.7549 79.6262 23.6006C74.4231 21.4463 68.8444 20.3457 63.2131 20.3625V20.3603Z" fill="#323C6B"/>
<path d="M110.791 142.454C110.641 142.603 110.464 142.722 110.269 142.803C110.073 142.884 109.864 142.925 109.653 142.925C109.441 142.925 109.232 142.884 109.037 142.803C108.842 142.722 108.664 142.603 108.515 142.454L96.4763 130.415C96.3268 130.266 96.2083 130.089 96.1274 129.893C96.0465 129.698 96.0049 129.489 96.0049 129.277C96.0049 129.066 96.0465 128.857 96.1274 128.661C96.2083 128.466 96.3268 128.289 96.4763 128.139C96.6257 127.99 96.8031 127.871 96.9984 127.79C97.1937 127.71 97.4029 127.668 97.6143 127.668C97.8257 127.668 98.0349 127.71 98.2302 127.79C98.4255 127.871 98.6029 127.99 98.7523 128.139L110.791 140.178C110.94 140.327 111.059 140.505 111.14 140.7C111.221 140.895 111.262 141.104 111.262 141.316C111.262 141.527 111.221 141.737 111.14 141.932C111.059 142.127 110.94 142.304 110.791 142.454Z" fill="white"/>
<path d="M115.376 147.039C115.227 147.189 115.049 147.307 114.854 147.388C114.659 147.469 114.45 147.511 114.238 147.511C114.027 147.511 113.818 147.469 113.622 147.388C113.427 147.307 113.25 147.189 113.1 147.039L112.504 146.443C112.355 146.294 112.236 146.116 112.155 145.921C112.074 145.726 112.033 145.517 112.033 145.305C112.033 145.094 112.074 144.885 112.155 144.689C112.236 144.494 112.355 144.317 112.504 144.167C112.654 144.018 112.831 143.899 113.026 143.818C113.221 143.737 113.431 143.696 113.642 143.696C113.853 143.696 114.063 143.737 114.258 143.818C114.453 143.899 114.631 144.018 114.78 144.167L115.376 144.763C115.526 144.913 115.644 145.09 115.725 145.285C115.806 145.481 115.848 145.69 115.848 145.901C115.848 146.113 115.806 146.322 115.725 146.517C115.644 146.713 115.526 146.89 115.376 147.039Z" fill="white"/>
<path d="M21.8319 92.3809C21.6131 92.3817 21.3975 92.3285 21.2042 92.2261C21.0109 92.1236 20.8459 91.9751 20.7238 91.7936C17.508 87.0151 15.1272 81.7251 13.6828 76.1493C13.5947 75.8078 13.6458 75.4453 13.8249 75.1415C14.0041 74.8377 14.2965 74.6175 14.638 74.5293C14.9795 74.4411 15.3421 74.4922 15.6459 74.6714C15.9497 74.8505 16.1699 75.143 16.2581 75.4845C17.6263 80.7697 19.8828 85.784 22.9311 90.3132C23.066 90.5136 23.1438 90.747 23.156 90.9883C23.1682 91.2296 23.1145 91.4696 23.0006 91.6827C22.8866 91.8957 22.7168 92.0737 22.5093 92.1975C22.3019 92.3213 22.0646 92.3862 21.823 92.3853L21.8319 92.3809Z" fill="white"/>
<path d="M13.7981 71.2336C13.4768 71.2333 13.1664 71.1167 12.9244 70.9052C12.6823 70.6938 12.5251 70.4018 12.4817 70.0834L12.3931 69.5027C12.3399 69.1592 12.2845 68.8157 12.2512 68.4722C12.2274 68.1281 12.3382 67.7882 12.5603 67.5242C12.7823 67.2603 13.0983 67.0929 13.4414 67.0576C13.7845 67.0222 14.128 67.1215 14.3992 67.3346C14.6705 67.5477 14.8483 67.8578 14.8952 68.1996C14.9262 68.4966 14.9727 68.7913 15.0215 69.0861L15.119 69.7266C15.1427 69.8997 15.1321 70.0759 15.0876 70.245C15.0432 70.414 14.9659 70.5727 14.8601 70.7118C14.7543 70.851 14.6221 70.9679 14.471 71.0559C14.32 71.1439 14.1531 71.2013 13.9799 71.2247C13.9195 71.2314 13.8588 71.2344 13.7981 71.2336Z" fill="white"/>
</g>
<defs>
<clipPath id="clip0">
<rect width="164" height="164" fill="white"/>
</clipPath>
</defs>
</svg>
