<svg width="164" height="164" viewBox="0 0 164 164" fill="none" xmlns="http://www.w3.org/2000/svg">
<path d="M143.733 145.747L85.3244 157.351C83.2855 151.146 81.302 144.94 79.2631 138.722C78.9572 137.392 78.2944 136.17 77.3461 135.189C75.736 134.193 73.8227 133.805 71.9518 134.096C68.541 134.227 65.1303 134.3 61.7927 134.227C59.069 134.409 56.344 133.892 53.8763 132.725C51.6158 131.37 49.4439 127.552 51.0773 125.495C51.4284 124.907 51.6138 124.234 51.6138 123.548C51.6138 122.863 51.4284 122.19 51.0773 121.601C50.3231 120.45 49.6599 119.241 49.0937 117.987C48.4821 115.613 51.8197 114.853 53.0608 114.241C51.7621 114.518 48.3513 113.703 48.0743 111.646C47.8704 110.347 48.9608 109.051 48.8167 107.752C48.6596 106.846 48.2306 106.008 47.5866 105.351C46.9427 104.694 46.1141 104.249 45.2109 104.073C43.9876 103.721 42.6889 103.666 41.3924 103.313C40.7711 103.166 40.1964 102.865 39.7204 102.44C39.2445 102.014 38.8822 101.476 38.6665 100.875C38.4874 99.6188 38.8054 98.3419 39.5529 97.3161C41.7957 93.1629 44.1139 88.992 46.3744 84.841C47.8775 81.739 49.1963 78.551 50.3237 75.2936C50.9139 73.6246 51.1472 71.8503 51.0086 70.0854C50.7979 67.8303 50.8664 65.5577 51.2124 63.3193H139.639C142.362 73.1054 141.789 83.5155 138.008 92.9435C137.266 94.8162 136.543 96.7111 135.894 98.617C132.784 106.624 131.496 115.224 132.127 123.791C132.462 128.049 133.665 132.192 135.661 135.968C137.657 139.744 140.404 143.072 143.733 145.747Z" fill="#EEEFEE"/>
<path d="M143.744 145.738L137.427 147.002C130.917 140.866 126.748 132.653 125.637 123.776C124.998 115.21 126.278 106.609 129.383 98.5995C130.047 96.6936 130.757 94.8098 131.51 92.926C135.284 83.5014 135.852 73.0971 133.128 63.3174H139.644C142.36 73.0996 141.784 83.5037 138.004 92.926C137.272 94.8098 136.541 96.6936 135.898 98.5995C132.786 106.607 131.499 115.208 132.131 123.776C132.464 128.035 133.667 132.182 135.664 135.959C137.661 139.736 140.411 143.064 143.744 145.738Z" fill="#E1E6E9"/>
<path d="M139.635 63.3086L62.8496 19.4563C66.9965 14.293 72.6061 10.5025 78.9438 8.58137C91.5474 4.67861 105.239 6.8084 117.714 13.9225C120.498 15.5083 123.15 17.3152 125.644 19.3256C131.96 24.5341 136.639 31.454 139.121 39.2554C141.602 47.0567 141.781 55.4084 139.635 63.3086Z" fill="#EEEFEE"/>
<path d="M139.644 63.3175L135.344 60.8575C136.214 53.8174 135.286 46.6716 132.647 40.0872C130.008 33.5028 125.743 27.6944 120.252 23.204C117.752 21.1978 115.099 19.3898 112.318 17.7964C99.8405 10.6824 86.1443 8.55481 73.534 12.4553C71.1322 13.2023 68.8206 14.2131 66.6416 15.4694C70.202 12.3194 74.3962 9.96918 78.9416 8.57697C91.5519 4.67643 105.248 6.804 117.725 13.918C120.5 15.5115 123.145 17.3196 125.637 19.3256C131.955 24.5353 136.636 31.456 139.12 39.2585C141.604 47.061 141.786 55.4143 139.644 63.3175Z" fill="#E1E6E9"/>
<path d="M39.1118 32.8865H55.0287V43.347H39.1118V32.8865Z" fill="#27CCBC"/>
<path d="M81.2241 50.4189H97.8546V63.3151H81.2241V50.4189Z" fill="#FA9825"/>
<path d="M35.752 7.79883H52.3891V23.3611H35.752V7.79883Z" fill="#FA9825"/>
<path d="M20.8037 51.647H32.4721V63.3153H20.8037V51.647Z" fill="#FA9825"/>
<path d="M20.2676 29.6663H28.718V38.1167H20.2676V29.6663Z" fill="#FE7058"/>
<path d="M64.8838 45.2241H73.3342V53.6746H64.8838V45.2241Z" fill="#FE7058"/>
<path d="M55.0286 32.8887V43.3492H50.9951V36.213H39.1162V32.8887H55.0286Z" fill="#21B3A9"/>
<path d="M97.8457 50.4189V63.3173H93.8122V53.7433H81.2241V50.4189H97.8457Z" fill="#F7BE56"/>
<path d="M52.3913 7.80103V23.3589H48.3578V11.1253H35.7476V7.80103H52.3913Z" fill="#F7BE56"/>
<path d="M32.4674 51.6377V63.3172H28.4338V54.962H20.8101V51.6377H32.4674Z" fill="#F7BE56"/>
<path d="M28.7223 29.675V38.1188H24.6888V32.9994H20.2563V29.675H28.7223Z" fill="#EA6453"/>
<path d="M73.3344 45.2329V53.6767H69.3009V48.5572H64.8906V45.2329H73.3344Z" fill="#EA6453"/>
<path d="M33.1544 105.824C32.9567 105.824 32.7626 105.771 32.5923 105.671C32.422 105.57 32.2817 105.426 32.186 105.253L32.022 104.969C31.8459 104.686 31.6932 104.39 31.5654 104.082C31.5063 103.946 31.4753 103.799 31.4742 103.65C31.473 103.502 31.5018 103.354 31.5588 103.217C31.6158 103.08 31.6999 102.955 31.806 102.851C31.9121 102.747 32.0381 102.665 32.1764 102.611C32.3148 102.556 32.4627 102.53 32.6113 102.534C32.7599 102.538 32.9062 102.572 33.0415 102.634C33.1768 102.695 33.2983 102.783 33.3988 102.893C33.4993 103.003 33.5768 103.131 33.6265 103.271C33.7126 103.468 33.8141 103.658 33.9301 103.839L34.1274 104.18C34.2206 104.349 34.2683 104.539 34.2657 104.731C34.2631 104.924 34.2103 105.113 34.1125 105.279C34.0147 105.445 33.8753 105.582 33.7081 105.678C33.5409 105.774 33.3516 105.824 33.1589 105.824H33.1544Z" fill="#323C6B"/>
<path d="M32.0708 99.7989C32.0153 99.7989 31.9597 99.7953 31.9046 99.7878C31.7607 99.7662 31.6225 99.7164 31.4978 99.6413C31.3731 99.5662 31.2644 99.4672 31.178 99.3501C31.0916 99.233 31.029 99.1 30.994 98.9588C30.959 98.8175 30.9521 98.6707 30.9738 98.5268C31.2683 96.7612 31.8818 95.0639 32.7845 93.5181C34.0566 91.1601 35.4151 88.6912 36.7737 86.2224C36.915 85.9646 37.153 85.7736 37.4352 85.6913C37.7174 85.609 38.0207 85.6422 38.2785 85.7835C38.5362 85.9249 38.7272 86.1629 38.8095 86.4451C38.8918 86.7273 38.8586 87.0306 38.7173 87.2884C37.3632 89.7528 36.0091 92.2172 34.7281 94.5841C33.9538 95.9028 33.4238 97.3502 33.1634 98.857C33.1238 99.1186 32.9918 99.3573 32.7914 99.5301C32.591 99.7028 32.3354 99.7982 32.0708 99.7989Z" fill="#323C6B"/>
<path d="M133.469 18.4723C133.196 18.4728 132.933 18.3726 132.729 18.1908L132.044 17.5836C131.932 17.4885 131.839 17.3719 131.772 17.2407C131.705 17.1094 131.665 16.9661 131.654 16.8191C131.643 16.6722 131.661 16.5245 131.708 16.3847C131.755 16.245 131.829 16.116 131.927 16.0053C132.024 15.8946 132.142 15.8044 132.275 15.74C132.407 15.6756 132.552 15.6383 132.699 15.6303C132.846 15.6223 132.993 15.6437 133.132 15.6933C133.271 15.7429 133.398 15.8197 133.507 15.9192L134.207 16.5397C134.375 16.6894 134.493 16.8864 134.546 17.1048C134.599 17.3232 134.585 17.5525 134.504 17.7623C134.424 17.9722 134.282 18.1527 134.097 18.2799C133.911 18.4071 133.692 18.475 133.467 18.4745L133.469 18.4723Z" fill="#323C6B"/>
<path d="M146.397 41.8314C146.146 41.8313 145.903 41.7465 145.707 41.5908C145.511 41.4351 145.374 41.2175 145.317 40.9737C143.766 34.1904 140.719 27.8392 136.399 22.3841C136.303 22.2708 136.23 22.1393 136.185 21.9973C136.141 21.8553 136.125 21.7058 136.139 21.5576C136.154 21.4095 136.198 21.2658 136.269 21.135C136.34 21.0043 136.437 20.8893 136.554 20.7968C136.67 20.7043 136.804 20.6363 136.948 20.5967C137.091 20.5572 137.241 20.5469 137.389 20.5666C137.537 20.5863 137.679 20.6355 137.807 20.7113C137.935 20.7871 138.046 20.888 138.135 21.0078C142.659 26.7219 145.851 33.3744 147.476 40.4795C147.542 40.7657 147.492 41.0666 147.337 41.316C147.181 41.5653 146.933 41.7428 146.647 41.8092C146.565 41.8265 146.481 41.8339 146.397 41.8314Z" fill="#323C6B"/>
<path d="M85.3241 158.46C85.0907 158.46 84.8633 158.386 84.6743 158.249C84.4852 158.112 84.3442 157.919 84.2714 157.697C83.2549 154.595 82.2473 151.498 81.2485 148.407C80.2497 145.316 79.2376 142.203 78.2123 139.068C77.9618 137.929 77.4134 136.876 76.6233 136.018C75.2225 135.219 73.5892 134.926 71.998 135.19C67.9578 135.342 64.7044 135.387 61.7724 135.32C58.8535 135.503 55.9368 134.93 53.3042 133.656C51.3668 132.406 49.9985 130.445 49.4945 128.195C49.3593 127.61 49.3536 127.002 49.4776 126.415C49.6016 125.827 49.8525 125.274 50.2126 124.793C50.4278 124.368 50.5294 123.895 50.5072 123.419C50.4851 122.943 50.3401 122.481 50.0863 122.078C49.8554 121.638 49.6017 121.209 49.3261 120.795C48.7872 120.026 48.3541 119.187 48.0385 118.302C47.8526 117.626 47.8952 116.908 48.1598 116.259C48.4243 115.61 48.8959 115.067 49.5012 114.714C49.1706 114.566 48.8545 114.387 48.5571 114.18C48.1418 113.913 47.7872 113.562 47.5162 113.15C47.2451 112.738 47.0637 112.273 46.9836 111.786C46.9063 110.929 47.0497 110.066 47.4002 109.28C47.6005 108.837 47.7091 108.358 47.7194 107.872C47.579 107.192 47.2381 106.568 46.7404 106.083C46.2427 105.597 45.6111 105.272 44.9269 105.149C44.3322 104.99 43.7282 104.869 43.1185 104.785C42.4388 104.688 41.7648 104.554 41.0995 104.384C40.2802 104.191 39.5253 103.787 38.909 103.214C38.2927 102.64 37.8363 101.916 37.5846 101.113C37.3291 99.5888 37.6895 98.0256 38.5863 96.767C39.9028 94.3291 41.2458 91.8758 42.5999 89.4224L45.4034 84.303C46.5615 82.0022 47.5676 79.6279 48.4152 77.1956C48.7034 76.4266 48.9915 75.6553 49.3017 74.8841C49.8303 73.3775 50.0394 71.7775 49.9156 70.1857C49.6997 67.8393 49.7741 65.4752 50.1372 63.147C50.1765 62.8846 50.3086 62.6451 50.5095 62.4718C50.7104 62.2986 50.9668 62.2031 51.2321 62.2029H139.659C139.901 62.2032 140.136 62.2827 140.329 62.4291C140.521 62.5756 140.66 62.781 140.725 63.014C143.538 73.0309 142.951 83.6979 139.054 93.3451C138.323 95.1957 137.607 97.0706 136.964 98.9633C133.885 106.814 132.609 115.255 133.23 123.665C133.555 127.77 134.712 131.765 136.631 135.409C138.55 139.052 141.19 142.266 144.391 144.857C144.563 144.984 144.695 145.159 144.769 145.36C144.844 145.562 144.859 145.78 144.812 145.989C144.765 146.199 144.658 146.39 144.505 146.54C144.352 146.689 144.158 146.792 143.947 146.834L85.5457 158.438C85.4728 158.453 85.3986 158.46 85.3241 158.46ZM73.0995 132.953C74.8589 132.816 76.6107 133.302 78.0483 134.325C79.1694 135.441 79.9543 136.849 80.3132 138.39C81.3327 141.492 82.3448 144.604 83.3495 147.724C84.2522 150.508 85.1572 153.292 86.0643 156.075L141.21 145.118C135.313 139.54 131.686 131.978 131.027 123.887C130.361 115.155 131.667 106.386 134.848 98.2275C135.559 96.1331 136.359 94.0743 136.975 92.5163C140.583 83.5847 141.218 73.7287 138.786 64.408H52.1806C51.959 66.2471 51.936 68.1046 52.1119 69.9486C52.2635 71.8699 52.0114 73.8018 51.3717 75.6199C51.057 76.4288 50.7711 77.1912 50.4852 77.9513C49.6014 80.4769 48.5539 82.9421 47.3492 85.3313L44.5457 90.4885C43.2027 92.9374 41.853 95.3885 40.5344 97.833C39.9443 98.6203 39.6614 99.5958 39.7388 100.577C39.9271 101.399 40.8956 101.977 41.7444 102.261C42.3139 102.401 42.8901 102.512 43.4709 102.593C44.1612 102.69 44.845 102.829 45.5187 103.008C46.6422 103.238 47.6679 103.808 48.457 104.641C49.2462 105.473 49.7607 106.528 49.9311 107.662C49.9656 108.469 49.814 109.274 49.4879 110.013C49.2776 110.467 49.1702 110.961 49.1732 111.46C49.2137 111.65 49.2939 111.829 49.4085 111.986C49.523 112.143 49.6694 112.273 49.8381 112.369C50.7254 112.952 51.7802 113.225 52.8388 113.147C53.1035 113.09 53.3799 113.132 53.6159 113.264C53.8519 113.397 54.0311 113.612 54.1198 113.867C54.2084 114.123 54.2003 114.403 54.097 114.653C53.9937 114.903 53.8024 115.107 53.5591 115.226C53.3197 115.343 53.005 115.47 52.6593 115.607C50.5827 116.429 49.9799 116.937 50.1771 117.699C50.4392 118.375 50.783 119.015 51.201 119.607C51.5226 120.088 51.8185 120.585 52.0875 121.097C52.5328 121.874 52.7565 122.758 52.7342 123.654C52.7119 124.55 52.4446 125.422 51.9612 126.176C51.8016 126.411 51.6946 126.677 51.6475 126.956C51.6005 127.236 51.6145 127.523 51.6886 127.796C52.0768 129.423 53.0697 130.84 54.4655 131.761C56.7707 132.818 59.3043 133.281 61.8344 133.106C64.7155 133.173 67.9313 133.128 71.9293 132.978C72.3061 132.973 72.705 132.953 73.0995 132.953Z" fill="#323C6B"/>
<path d="M140.351 64.9952L61.1831 19.7822L61.9787 18.7716C66.2659 13.4318 72.0654 9.51089 78.6181 7.52207C91.2128 3.62374 105.292 5.55407 118.264 12.9607C121.099 14.5766 123.8 16.4168 126.342 18.4635C132.827 23.8021 137.632 30.8997 140.18 38.9033C142.729 46.9069 142.912 55.4761 140.708 63.5813L140.351 64.9952ZM64.5407 19.1461L138.897 61.611C140.678 54.0926 140.315 46.2254 137.849 38.9031C135.383 31.5808 130.912 25.0968 124.946 20.1877C122.498 18.2152 119.896 16.4417 117.165 14.8843C104.736 7.79244 91.2771 5.92196 79.2674 9.63855C73.569 11.3747 68.4686 14.6675 64.5407 19.1461Z" fill="#323C6B"/>
<path d="M56.1346 44.4553H38.0015V31.7786H56.1346V44.4553ZM40.2177 42.2391H53.9183V33.9948H40.2177V42.2391Z" fill="#323C6B"/>
<path d="M98.9628 64.4234H80.125V49.311H98.9628V64.4234ZM82.3412 62.2072H96.7466V51.5273H82.3412V62.2072Z" fill="#323C6B"/>
<path d="M53.4974 24.4716H34.644V6.69312H53.4974V24.4716ZM36.8603 22.2554H51.2812V8.90933H36.8603V22.2554Z" fill="#323C6B"/>
<path d="M33.5799 64.4235H19.6953V50.53H33.5821L33.5799 64.4235ZM21.9093 62.2073H31.3637V52.7462H21.9115L21.9093 62.2073Z" fill="#323C6B"/>
<path d="M29.8236 39.2275H19.1592V28.5586H29.8258L29.8236 39.2275ZM21.3754 37.0112H27.6096V30.7748H21.3754V37.0112Z" fill="#323C6B"/>
<path d="M74.443 54.7831H63.7764V44.1165H74.443V54.7831ZM65.9948 52.5669H72.2268V46.3327H65.9926L65.9948 52.5669Z" fill="#323C6B"/>
</svg>
