<svg width="164" height="164" viewBox="0 0 164 164" fill="none" xmlns="http://www.w3.org/2000/svg">
<g clip-path="url(#clip0)">
<path d="M72.838 28.853H13.9354C7.53025 28.853 2.33789 34.0454 2.33789 40.4505V145.754C2.33789 152.159 7.53025 157.351 13.9354 157.351H72.838C79.243 157.351 84.4354 152.159 84.4354 145.754V40.4505C84.4354 34.0454 79.243 28.853 72.838 28.853Z" fill="#9297AB"/>
<path d="M84.4378 40.4458V145.76C84.4383 148.05 83.7608 150.288 82.4908 152.193C81.2208 154.098 79.4152 155.585 77.3016 156.465C77.9879 154.962 78.3431 153.33 78.3432 151.678V46.3631C78.3438 44.8408 78.0444 43.3333 77.4621 41.9268C76.8798 40.5203 76.0261 39.2423 74.9497 38.1658C73.8733 37.0894 72.5953 36.2357 71.1887 35.6534C69.7822 35.0711 68.2747 34.7717 66.7524 34.7723H7.84541C6.30919 34.7685 4.78751 35.0699 3.36865 35.6588C4.29093 33.629 5.7784 31.9079 7.65314 30.7013C9.52789 29.4947 11.7105 28.8537 13.94 28.855H72.847C74.3693 28.8544 75.8768 29.1538 77.2833 29.7361C78.6898 30.3184 79.9678 31.1721 81.0443 32.2486C82.1207 33.325 82.9744 34.603 83.5567 36.0095C84.139 37.416 84.4384 38.9235 84.4378 40.4458Z" fill="#84879C"/>
<path d="M71.0142 42.3208V62.105H15.7595V42.3208H71.0142Z" fill="#BBBBCD"/>
<path d="M71.014 63.2132H15.757C15.4631 63.2132 15.1813 63.0964 14.9735 62.8886C14.7657 62.6808 14.6489 62.399 14.6489 62.1051V42.3298C14.6489 42.0359 14.7657 41.754 14.9735 41.5462C15.1813 41.3384 15.4631 41.2217 15.757 41.2217H71.014C71.3078 41.2217 71.5897 41.3384 71.7975 41.5462C72.0053 41.754 72.1221 42.0359 72.1221 42.3298V62.1139C72.1197 62.4063 72.0019 62.6859 71.7944 62.8918C71.5868 63.0977 71.3063 63.2132 71.014 63.2132ZM16.8651 60.997H69.9058V43.4379H16.8651V60.997Z" fill="#323C6B"/>
<path d="M71.0142 72.9912V92.7754H15.7595V72.9912H71.0142Z" fill="#BBBBCD"/>
<path d="M71.014 93.8856H15.757C15.4631 93.8856 15.1813 93.7689 14.9735 93.5611C14.7657 93.3533 14.6489 93.0714 14.6489 92.7775V72.9934C14.6489 72.6995 14.7657 72.4176 14.9735 72.2098C15.1813 72.002 15.4631 71.8853 15.757 71.8853H71.014C71.3078 71.8853 71.5897 72.002 71.7975 72.2098C72.0053 72.4176 72.1221 72.6995 72.1221 72.9934V92.7775C72.1221 93.0714 72.0053 93.3533 71.7975 93.5611C71.5897 93.7689 71.3078 93.8856 71.014 93.8856ZM16.8651 91.6694H69.9058V74.1015H16.8651V91.6694Z" fill="#323C6B"/>
<path d="M66.0587 117.032C68.7943 117.032 71.012 114.814 71.012 112.079C71.012 109.343 68.7943 107.125 66.0587 107.125C63.3231 107.125 61.1055 109.343 61.1055 112.079C61.1055 114.814 63.3231 117.032 66.0587 117.032Z" fill="#FE7058"/>
<path d="M49.4108 117.032C52.1464 117.032 54.364 114.814 54.364 112.079C54.364 109.343 52.1464 107.125 49.4108 107.125C46.6752 107.125 44.4575 109.343 44.4575 112.079C44.4575 114.814 46.6752 117.032 49.4108 117.032Z" fill="#27CCBC"/>
<path d="M71.0073 112.074C71.0108 113.186 70.6382 114.266 69.9502 115.139C69.2622 116.012 68.2991 116.627 67.2175 116.883C67.4948 116.263 67.6383 115.591 67.6386 114.911C67.6374 113.6 67.1164 112.344 66.1898 111.417C65.2632 110.491 64.0068 109.97 62.6965 109.969C62.285 109.964 61.8748 110.016 61.4775 110.124C61.8699 109.234 62.5124 108.477 63.3269 107.946C64.1414 107.415 65.0927 107.132 66.0651 107.132C67.3755 107.133 68.6319 107.654 69.5584 108.581C70.485 109.507 71.0061 110.764 71.0073 112.074Z" fill="#EA6453"/>
<path d="M54.3638 112.074C54.3654 113.182 53.9948 114.258 53.3117 115.13C52.6285 116.002 51.6722 116.62 50.5963 116.883C50.8559 116.258 50.9914 115.588 50.9952 114.911C50.994 114.26 50.8647 113.616 50.6145 113.016C50.3643 112.415 49.9983 111.87 49.5372 111.411C49.0762 110.952 48.5292 110.588 47.9276 110.341C47.3259 110.093 46.6814 109.967 46.0309 109.969C45.6412 109.964 45.253 110.016 44.8784 110.124C45.2537 109.235 45.883 108.477 46.6873 107.945C47.4915 107.413 48.4351 107.13 49.3995 107.132C50.0501 107.13 50.6946 107.257 51.2962 107.504C51.8979 107.752 52.4448 108.115 52.9059 108.574C53.3669 109.033 53.733 109.578 53.9831 110.179C54.2333 110.78 54.3627 111.423 54.3638 112.074Z" fill="#21B3A9"/>
<path d="M18.7955 142.857H15.757C15.4631 142.857 15.1813 142.741 14.9735 142.533C14.7657 142.325 14.6489 142.043 14.6489 141.749C14.6489 141.455 14.7657 141.173 14.9735 140.966C15.1813 140.758 15.4631 140.641 15.757 140.641H18.7955C19.0894 140.641 19.3712 140.758 19.579 140.966C19.7868 141.173 19.9036 141.455 19.9036 141.749C19.9036 142.043 19.7868 142.325 19.579 142.533C19.3712 142.741 19.0894 142.857 18.7955 142.857Z" fill="#323C6B"/>
<path d="M30.0494 142.857H27.0109C26.7171 142.857 26.4352 142.741 26.2274 142.533C26.0196 142.325 25.9028 142.043 25.9028 141.749C25.9028 141.455 26.0196 141.173 26.2274 140.966C26.4352 140.758 26.7171 140.641 27.0109 140.641H30.0494C30.3433 140.641 30.6251 140.758 30.8329 140.966C31.0407 141.173 31.1575 141.455 31.1575 141.749C31.1575 142.043 31.0407 142.325 30.8329 142.533C30.6251 142.741 30.3433 142.857 30.0494 142.857Z" fill="#323C6B"/>
<path d="M127.328 49.3307C127.034 49.3307 126.752 49.214 126.545 49.0062C126.337 48.7984 126.22 48.5165 126.22 48.2226V7.75674H44.4926V28.8551C44.4926 29.149 44.3758 29.4309 44.168 29.6387C43.9602 29.8465 43.6784 29.9632 43.3845 29.9632C43.0906 29.9632 42.8087 29.8465 42.6009 29.6387C42.3931 29.4309 42.2764 29.149 42.2764 28.8551V6.64864C42.2764 6.35475 42.3931 6.0729 42.6009 5.86508C42.8087 5.65727 43.0906 5.54053 43.3845 5.54053H127.328C127.622 5.54053 127.904 5.65727 128.112 5.86508C128.319 6.0729 128.436 6.35475 128.436 6.64864V48.2226C128.436 48.5165 128.319 48.7984 128.112 49.0062C127.904 49.214 127.622 49.3307 127.328 49.3307Z" fill="#323C6B"/>
<path d="M158.003 78.4388C158.848 80.1413 159.287 82.0165 159.286 83.9172C159.283 86.4225 158.494 88.8636 157.03 90.8965C155.566 92.9295 153.501 94.4517 151.126 95.2488L151.049 105.92L140.579 108.974L136.437 97.6511C134.907 97.6354 133.406 97.2368 132.07 96.4916C130.734 95.7463 129.606 94.6783 128.789 93.3849C127.165 94.1563 125.388 94.5546 123.59 94.5506C121.935 94.552 120.296 94.219 118.773 93.5716C117.249 92.9242 115.873 91.9757 114.725 90.7831C112.814 91.9212 110.636 92.5326 108.412 92.5551C106.188 92.5775 103.997 92.0102 102.064 90.911C100.131 89.8117 98.5229 88.2197 97.4047 86.2971C96.2866 84.3744 95.698 82.1898 95.6987 79.9657C95.6792 77.6662 96.3182 75.4091 97.5404 73.4611C97.1722 72.4372 96.9905 71.3556 97.004 70.2676C96.9981 68.1327 97.6603 66.0494 98.8979 64.3098C100.136 62.5702 101.886 61.2615 103.905 60.5672C104.624 58.2379 106.068 56.1992 108.027 54.7481C109.985 53.2969 112.356 52.5094 114.794 52.5001C115.301 52.492 115.809 52.5313 116.309 52.6176C117.372 51.3272 118.692 50.2724 120.185 49.5205C121.678 48.7686 123.311 48.3361 124.981 48.2506C126.65 48.1651 128.319 48.4285 129.881 49.0239C131.443 49.6194 132.864 50.5338 134.053 51.709C135.739 50.8355 137.61 50.3795 139.509 50.3792C141.706 50.375 143.861 50.9898 145.725 52.1531C147.59 53.3164 149.089 54.9812 150.051 56.957C152.448 57.1535 154.738 58.0299 156.654 59.4832C158.57 60.9365 160.031 62.9064 160.866 65.1613C161.7 67.4163 161.874 69.8627 161.367 72.2131C160.859 74.5635 159.692 76.7202 158.001 78.4299L158.003 78.4388Z" fill="#FA9825"/>
<path d="M151.124 96.1396L151.057 105.913L145.938 107.398L146.004 99.5305C147.981 98.8741 149.748 97.7039 151.124 96.1396Z" fill="#EA6453"/>
<path d="M157.994 78.4321C158.843 80.1399 159.283 82.0214 159.28 83.9283C159.277 86.2481 158.599 88.5169 157.327 90.4573C156.056 92.3977 154.247 93.9256 152.121 94.8542C153.451 92.8919 154.161 90.5759 154.16 88.2056C154.163 86.3058 153.723 84.4314 152.875 82.7315C154.566 81.0215 155.735 78.8641 156.242 76.5128C156.75 74.1615 156.576 71.7142 155.74 69.4586C154.904 67.203 153.442 65.2329 151.525 63.7799C149.608 62.3269 147.316 61.4514 144.918 61.2564C144.233 59.8453 143.271 58.5861 142.09 57.5532C140.909 56.5203 139.533 55.7347 138.043 55.2429C136.554 54.7512 134.98 54.5632 133.417 54.6901C131.853 54.817 130.331 55.2562 128.94 55.9818C127.751 54.8052 126.329 53.8895 124.766 53.2932C123.204 52.6969 121.534 52.4331 119.863 52.5186C118.193 52.6041 116.558 53.0371 115.064 53.7898C113.571 54.5426 112.25 55.5986 111.188 56.8905C110.69 56.8087 110.185 56.7716 109.681 56.7796C108.173 56.7759 106.68 57.0775 105.292 57.6661C106.321 56.0794 107.729 54.7741 109.389 53.8686C111.049 52.9631 112.909 52.4859 114.8 52.4802C115.306 52.4684 115.811 52.513 116.307 52.6132C117.37 51.3213 118.69 50.2653 120.184 49.5125C121.678 48.7598 123.312 48.3268 124.983 48.2413C126.653 48.1558 128.323 48.4196 129.886 49.0159C131.449 49.6122 132.87 50.5279 134.059 51.7045C135.451 50.9802 136.973 50.5414 138.537 50.414C140.101 50.2865 141.674 50.4729 143.165 50.9622C144.656 51.4516 146.034 52.234 147.218 53.2634C148.402 54.2929 149.368 55.5487 150.06 56.9569C152.46 57.1479 154.755 58.0216 156.674 59.475C158.593 60.9283 160.056 62.9006 160.891 65.1588C161.725 67.4169 161.896 69.8667 161.382 72.2187C160.869 74.5708 159.693 76.7268 157.994 78.4321Z" fill="#EA6453"/>
<path d="M105.292 57.666C104.702 58.5577 104.24 59.5274 103.918 60.5471C101.956 61.1896 100.248 62.4391 99.0425 64.1152C99.5995 62.6767 100.44 61.3646 101.513 60.2568C102.587 59.149 103.872 58.268 105.292 57.666Z" fill="#EA6453"/>
<path d="M131.774 66.2029C131.511 66.2024 131.256 66.1081 131.056 65.9369C130.025 65.1826 129.189 64.1926 128.618 63.0496C128.047 61.9065 127.757 60.6435 127.774 59.3658C128.022 54.5655 133.221 50.9442 133.443 50.7846C133.685 50.618 133.983 50.5544 134.272 50.6078C134.561 50.6612 134.817 50.8273 134.984 51.0694C135.151 51.3116 135.214 51.61 135.161 51.8991C135.108 52.1882 134.941 52.4442 134.699 52.6108C134.653 52.6418 130.174 55.7822 129.988 59.4811C130.001 60.4166 130.234 61.3358 130.67 62.1638C131.106 62.9919 131.731 63.7053 132.494 64.2459C132.666 64.393 132.789 64.5893 132.846 64.8083C132.903 65.0273 132.892 65.2586 132.814 65.471C132.736 65.6834 132.594 65.8667 132.409 65.9964C132.223 66.126 132.002 66.1958 131.776 66.1962L131.774 66.2029Z" fill="#323C6B"/>
<path d="M121.843 65.407H121.724C121.578 65.4062 121.434 65.3766 121.3 65.3201C121.166 65.2636 121.044 65.1813 120.942 65.0778C120.735 64.8687 120.62 64.5862 120.622 64.2923C120.624 63.9984 120.742 63.7172 120.951 63.5107C121.16 63.3041 121.443 63.189 121.737 63.1908H121.845C123.217 63.2266 124.559 62.7947 125.652 61.9662C126.745 61.1377 127.524 59.9619 127.86 58.6321C127.893 58.4902 127.954 58.3562 128.038 58.2377C128.123 58.1192 128.23 58.0185 128.354 57.9414C128.477 57.8644 128.615 57.8124 128.759 57.7885C128.902 57.7646 129.049 57.7692 129.191 57.8021C129.333 57.835 129.467 57.8955 129.585 57.9802C129.704 58.0648 129.805 58.172 129.882 58.2956C129.959 58.4192 130.011 58.5567 130.035 58.7004C130.059 58.8441 130.054 58.991 130.021 59.1329C129.568 60.949 128.512 62.5578 127.027 63.6972C125.542 64.8366 123.715 65.4393 121.843 65.407Z" fill="#323C6B"/>
<path d="M97.5536 74.5472C97.3415 74.5466 97.134 74.4853 96.9558 74.3703C96.7776 74.2554 96.636 74.0917 96.5481 73.8987C96.4601 73.7057 96.4294 73.4915 96.4595 73.2816C96.4896 73.0717 96.5794 72.8748 96.7181 72.7144C97.9876 71.4479 99.5807 70.5544 101.323 70.1315C103.066 69.7087 104.891 69.7726 106.6 70.3164C106.743 70.351 106.878 70.4138 106.997 70.5012C107.116 70.5886 107.216 70.6988 107.291 70.8253C107.367 70.9518 107.416 71.0921 107.437 71.238C107.458 71.384 107.449 71.5325 107.412 71.6751C107.374 71.8176 107.309 71.9512 107.219 72.0681C107.129 72.1851 107.017 72.2829 106.889 72.356C106.761 72.429 106.62 72.4758 106.474 72.4936C106.327 72.5113 106.179 72.4998 106.037 72.4595C104.726 72.0263 103.322 71.9572 101.974 72.2597C100.627 72.5622 99.3871 73.2249 98.3869 74.1771C98.2822 74.2943 98.1537 74.388 98.0101 74.4518C97.8664 74.5156 97.7108 74.5481 97.5536 74.5472Z" fill="#323C6B"/>
<path d="M114.736 91.873C114.581 91.8729 114.429 91.8406 114.287 91.778C114.146 91.7154 114.02 91.624 113.916 91.5096C111.996 89.5424 110.536 87.1751 109.638 84.5772C109.562 84.2933 109.601 83.9906 109.748 83.7356C109.894 83.4806 110.136 83.2943 110.42 83.2176C110.704 83.1409 111.006 83.1801 111.261 83.3266C111.516 83.4731 111.703 83.7149 111.779 83.9988C112.593 86.2502 113.878 88.3022 115.547 90.018C115.691 90.1769 115.786 90.3742 115.82 90.586C115.854 90.7978 115.826 91.015 115.74 91.2112C115.653 91.4073 115.511 91.5741 115.331 91.6912C115.151 91.8083 114.941 91.8707 114.727 91.8708L114.736 91.873Z" fill="#323C6B"/>
<path d="M157.992 79.5625C157.782 79.5623 157.577 79.5029 157.401 79.3911C157.224 79.2793 157.082 79.1198 156.992 78.9309C155.928 76.5106 154.121 74.4923 151.832 73.1688C149.544 71.8453 146.893 71.2856 144.264 71.5708C143.977 71.6062 143.688 71.528 143.457 71.3527C143.227 71.1775 143.075 70.9191 143.032 70.6329C142.99 70.3466 143.062 70.0552 143.231 69.8209C143.401 69.5866 143.656 69.428 143.941 69.379C147.034 69.0575 150.15 69.7143 152.85 71.2569C155.551 72.7994 157.699 75.1501 158.993 77.9779C159.074 78.1467 159.11 78.3332 159.099 78.5198C159.088 78.7065 159.03 78.8874 158.93 79.0455C158.83 79.2037 158.692 79.3341 158.528 79.4245C158.365 79.5148 158.181 79.5623 157.994 79.5625H157.992Z" fill="#323C6B"/>
<path d="M128.791 94.4948C128.526 94.4944 128.27 94.3989 128.069 94.2256C127.868 94.0523 127.736 93.8127 127.697 93.5503C127.658 93.2879 127.714 93.0202 127.855 92.7958C127.997 92.5714 128.214 92.4051 128.468 92.3273C134.478 90.479 135.965 83.6531 135.981 83.5843C136.049 83.3063 136.222 83.0655 136.464 82.9124C136.706 82.7593 136.998 82.7058 137.278 82.7631C137.559 82.8205 137.806 82.9841 137.969 83.2198C138.131 83.4556 138.196 83.745 138.15 84.0276C138.082 84.36 136.402 92.2032 129.117 94.4438C129.012 94.4772 128.902 94.4944 128.791 94.4948Z" fill="#323C6B"/>
<path d="M125.231 82.74C124.96 82.7421 124.698 82.6447 124.493 82.4662C124.289 82.2877 124.158 82.0405 124.123 81.7715C123.826 80.4621 123.841 79.1012 124.166 77.7984C124.491 76.4957 125.118 75.2877 125.996 74.2718C126.836 73.5355 127.821 72.9835 128.888 72.6514C129.954 72.3193 131.079 72.2145 132.188 72.3437C132.479 72.3829 132.742 72.5354 132.92 72.768C133.098 73.0006 133.177 73.2942 133.139 73.5848C133.098 73.8746 132.945 74.1368 132.713 74.3156C132.481 74.4944 132.189 74.5757 131.898 74.5422C131.122 74.4563 130.337 74.5281 129.589 74.7532C128.841 74.9782 128.147 75.352 127.547 75.852C126.927 76.6367 126.494 77.5528 126.282 78.5304C126.07 79.5079 126.085 80.521 126.324 81.4922C126.361 81.7838 126.281 82.0781 126.101 82.3104C125.921 82.5427 125.656 82.6941 125.364 82.7311C125.32 82.7364 125.276 82.7393 125.231 82.74Z" fill="#323C6B"/>
<path d="M72.8359 158.459H13.9355C10.5671 158.455 7.33776 157.115 4.95589 154.734C2.57402 152.352 1.23409 149.122 1.22998 145.754V40.4526C1.23409 37.0842 2.57402 33.8548 4.95589 31.473C7.33776 29.0911 10.5671 27.7512 13.9355 27.7471H72.8359C76.2052 27.75 79.4356 29.0894 81.8184 31.4714C84.2013 33.8534 85.5418 37.0834 85.5459 40.4526V145.754C85.5418 149.123 84.2013 152.353 81.8184 154.735C79.4356 157.117 76.2052 158.457 72.8359 158.459ZM13.9355 29.9633C11.1547 29.9668 8.48872 31.0731 6.52234 33.0394C4.55597 35.0058 3.44972 37.6718 3.4462 40.4526V145.754C3.44972 148.535 4.55597 151.201 6.52234 153.167C8.48872 155.134 11.1547 156.24 13.9355 156.243H72.8359C75.6176 156.241 78.2847 155.135 80.252 153.169C82.2193 151.202 83.3262 148.536 83.3297 145.754V40.4526C83.3262 37.6718 82.2199 35.0058 80.2536 33.0394C78.2872 31.0731 75.6212 29.9668 72.8404 29.9633H13.9355Z" fill="#323C6B"/>
<path d="M140.579 110.082C140.352 110.082 140.13 110.012 139.944 109.882C139.757 109.752 139.615 109.568 139.537 109.355L135.648 98.7169C134.23 98.5986 132.852 98.1847 131.603 97.5019C130.355 96.819 129.263 95.8823 128.399 94.7521C126.075 95.6498 123.548 95.8802 121.1 95.4173C118.653 94.9545 116.384 93.8167 114.549 92.1325C112.461 93.2033 110.133 93.7197 107.788 93.632C105.443 93.5444 103.16 92.8557 101.158 91.6321C99.1554 90.4085 97.5011 88.6909 96.3534 86.6441C95.2057 84.5973 94.6031 82.29 94.6034 79.9434C94.5854 77.6129 95.1841 75.3191 96.3387 73.2947C96.0455 72.3012 95.9006 71.2699 95.9088 70.2341C95.8984 67.9619 96.5731 65.7392 97.8449 63.8562C99.1167 61.9732 100.927 60.5172 103.038 59.6783C103.899 57.2484 105.493 55.1454 107.6 53.6593C109.706 52.1732 112.222 51.3771 114.8 51.3808C115.203 51.3808 115.551 51.3941 115.868 51.4251C118.183 48.8726 121.409 47.3317 124.849 47.1344C128.29 46.9371 131.671 48.0991 134.263 50.3702C137.208 49.0574 140.54 48.8998 143.596 49.9285C146.652 50.9573 149.21 53.0973 150.762 55.924C154.075 56.358 157.118 57.9787 159.326 60.4855C161.535 62.9923 162.759 66.2151 162.772 69.556C162.777 72.9058 161.549 76.1403 159.321 78.6424C160.028 80.3079 160.393 82.0988 160.392 83.9082C160.393 86.5104 159.617 89.0535 158.161 91.2107C156.706 93.3679 154.639 95.0404 152.225 96.0131L152.154 105.935C152.153 106.174 152.074 106.406 151.931 106.596C151.787 106.786 151.585 106.925 151.356 106.992L140.887 110.046C140.786 110.073 140.683 110.085 140.579 110.082ZM128.789 92.2766C128.975 92.2766 129.159 92.3238 129.322 92.4137C129.486 92.5036 129.624 92.6333 129.724 92.7908C130.439 93.9301 131.43 94.8709 132.605 95.5263C133.779 96.1817 135.1 96.5305 136.446 96.5406C136.671 96.5422 136.891 96.6126 137.076 96.7425C137.26 96.8724 137.401 97.0556 137.478 97.2675L141.264 107.617L149.947 105.084L150.018 95.2397C150.019 95.0086 150.093 94.7838 150.228 94.5966C150.364 94.4094 150.554 94.2693 150.773 94.1958C152.931 93.4762 154.806 92.0959 156.135 90.2507C157.464 88.4054 158.179 86.1888 158.178 83.9148C158.18 82.1858 157.782 80.4798 157.014 78.9305C156.911 78.7235 156.875 78.4892 156.912 78.2606C156.948 78.0321 157.055 77.8207 157.218 77.6562C158.761 76.0965 159.827 74.1287 160.29 71.984C160.754 69.8394 160.595 67.6071 159.833 65.5495C159.071 63.4919 157.738 61.6945 155.99 60.3687C154.242 59.0428 152.151 58.2436 149.965 58.0649C149.771 58.0495 149.585 57.9836 149.426 57.874C149.266 57.7643 149.138 57.6146 149.054 57.4399C148.429 56.163 147.555 55.0241 146.483 54.0903C145.411 53.1566 144.164 52.4468 142.813 52.0029C141.463 51.5591 140.037 51.3901 138.62 51.5059C137.204 51.6217 135.824 52.02 134.564 52.6772C134.356 52.784 134.12 52.8224 133.889 52.787C133.658 52.7516 133.445 52.6441 133.279 52.48C132.199 51.4135 130.91 50.5835 129.492 50.043C128.074 49.5025 126.559 49.2633 125.044 49.3406C123.528 49.418 122.046 49.8102 120.69 50.4923C119.335 51.1743 118.136 52.1313 117.171 53.3022C117.045 53.4565 116.88 53.574 116.693 53.6423C116.505 53.7105 116.303 53.727 116.107 53.6901C115.675 53.617 115.238 53.5843 114.8 53.5925C112.596 53.591 110.45 54.2987 108.68 55.611C106.909 56.9233 105.608 58.7705 104.969 60.8795C104.917 61.0468 104.826 61.1996 104.704 61.3252C104.582 61.4508 104.432 61.5456 104.266 61.6019C102.465 62.2174 100.903 63.3827 99.8002 64.9335C98.6972 66.4842 98.1089 68.3422 98.1183 70.2452C98.1054 71.2016 98.2638 72.1526 98.586 73.0531C98.646 73.214 98.6679 73.3866 98.6498 73.5574C98.6317 73.7282 98.5742 73.8924 98.4818 74.0371C97.3724 75.8067 96.7932 77.8571 96.813 79.9456C96.8165 82.9898 98.0274 85.9083 100.18 88.0608C102.333 90.2134 105.251 91.4243 108.295 91.4278C110.36 91.4316 112.388 90.8731 114.159 89.8122C114.375 89.6851 114.626 89.6337 114.874 89.6663C115.122 89.6988 115.352 89.8134 115.527 89.9917C116.569 91.0805 117.821 91.9469 119.207 92.5385C120.593 93.13 122.084 93.4345 123.592 93.4335C125.224 93.4352 126.836 93.0742 128.312 92.3763C128.461 92.3085 128.623 92.2744 128.786 92.2766H128.789Z" fill="#323C6B"/>
<path d="M66.0609 118.142C64.8616 118.142 63.689 117.787 62.6916 117.121C61.6941 116.455 60.9166 115.508 60.4573 114.4C59.998 113.292 59.8776 112.073 60.1114 110.897C60.3451 109.72 60.9224 108.64 61.7703 107.791C62.6182 106.943 63.6987 106.365 64.8749 106.131C66.0512 105.897 67.2705 106.017 68.3786 106.476C69.4867 106.935 70.4338 107.712 71.1002 108.709C71.7666 109.706 72.1223 110.879 72.1223 112.078C72.1205 113.685 71.4814 115.226 70.3451 116.363C69.2088 117.5 67.6681 118.139 66.0609 118.142ZM66.0609 108.233C65.2998 108.233 64.5556 108.458 63.9226 108.881C63.2896 109.303 62.7961 109.904 62.5046 110.607C62.2132 111.31 62.1368 112.084 62.2852 112.83C62.4335 113.577 62.8 114.263 63.3382 114.801C63.8764 115.339 64.5621 115.706 65.3087 115.854C66.0552 116.002 66.8289 115.926 67.532 115.634C68.2351 115.343 68.836 114.85 69.2586 114.217C69.6812 113.583 69.9065 112.839 69.906 112.078C69.9055 111.058 69.5002 110.08 68.7793 109.359C68.0584 108.638 67.0807 108.232 66.0609 108.231V108.233Z" fill="#323C6B"/>
<path d="M49.4105 118.142C48.2112 118.142 47.0386 117.787 46.0412 117.121C45.0437 116.455 44.2662 115.508 43.8069 114.4C43.3477 113.292 43.2273 112.073 43.461 110.897C43.6947 109.72 44.272 108.64 45.1199 107.791C45.9678 106.943 47.0483 106.365 48.2245 106.131C49.4008 105.897 50.6201 106.017 51.7282 106.476C52.8363 106.935 53.7834 107.712 54.4498 108.709C55.1162 109.706 55.4719 110.879 55.4719 112.078C55.4701 113.685 54.831 115.226 53.6947 116.363C52.5584 117.5 51.0177 118.139 49.4105 118.142ZM49.4105 108.233C48.6494 108.233 47.9052 108.458 47.2722 108.881C46.6392 109.303 46.1457 109.904 45.8542 110.607C45.5628 111.31 45.4864 112.084 45.6348 112.83C45.7831 113.577 46.1496 114.263 46.6878 114.801C47.226 115.339 47.9117 115.706 48.6583 115.854C49.4048 116.002 50.1785 115.926 50.8816 115.634C51.5847 115.343 52.1856 114.85 52.6082 114.217C53.0308 113.583 53.2561 112.839 53.2556 112.078C53.2551 111.058 52.8498 110.08 52.1289 109.359C51.408 108.638 50.4303 108.232 49.4105 108.231V108.233Z" fill="#323C6B"/>
<path d="M9.07105 85.2514C8.73778 85.2514 8.41816 85.119 8.1825 84.8834C7.94684 84.6477 7.81445 84.3281 7.81445 83.9948V70.2255C7.81445 69.8919 7.94696 69.572 8.18283 69.3361C8.41869 69.1003 8.73859 68.9678 9.07216 68.9678C9.40572 68.9678 9.72562 69.1003 9.96149 69.3361C10.1974 69.572 10.3299 69.8919 10.3299 70.2255V83.9948C10.3299 84.16 10.2973 84.3236 10.234 84.4762C10.1707 84.6288 10.0779 84.7674 9.96103 84.8842C9.84411 85.0009 9.70532 85.0934 9.55261 85.1564C9.39989 85.2194 9.23625 85.2517 9.07105 85.2514Z" fill="white"/>
<path d="M9.07105 90.2773C8.73778 90.2773 8.41816 90.1449 8.1825 89.9093C7.94684 89.6736 7.81445 89.354 7.81445 89.0207V88.3559C7.81445 88.0223 7.94696 87.7024 8.18283 87.4665C8.41869 87.2307 8.73859 87.0981 9.07216 87.0981C9.40572 87.0981 9.72562 87.2307 9.96149 87.4665C10.1974 87.7024 10.3299 88.0223 10.3299 88.3559V89.0207C10.3299 89.1859 10.2973 89.3495 10.234 89.5021C10.1707 89.6547 10.0779 89.7933 9.96103 89.91C9.84411 90.0268 9.70532 90.1193 9.55261 90.1823C9.39989 90.2453 9.23625 90.2776 9.07105 90.2773Z" fill="white"/>
<path d="M91.0866 146.363C90.7927 146.363 90.5109 146.246 90.3031 146.039C90.0953 145.831 89.9785 145.549 89.9785 145.255V144.054C89.9785 143.76 90.0953 143.478 90.3031 143.27C90.5109 143.063 90.7927 142.946 91.0866 142.946C91.3805 142.946 91.6624 143.063 91.8702 143.27C92.078 143.478 92.1947 143.76 92.1947 144.054V145.255C92.1947 145.549 92.078 145.831 91.8702 146.039C91.6624 146.246 91.3805 146.363 91.0866 146.363Z" fill="#323C6B"/>
<path d="M0.148576 29.6417C-0.0636988 29.6416 -0.271477 29.5805 -0.450045 29.4657C-0.628612 29.3509 -0.770453 29.1873 -0.858698 28.9942C-0.946942 28.8011 -0.977876 28.5868 -0.94782 28.3767C-0.917763 28.1665 -0.827981 27.9694 -0.689153 27.8088C1.12436 25.7059 3.3694 24.0181 5.89334 22.8601C8.41729 21.7022 11.161 21.1012 13.9379 21.0981C14.2318 21.0981 14.5136 21.2149 14.7214 21.4227C14.9292 21.6305 15.046 21.9124 15.046 22.2063C15.046 22.5001 14.9292 22.782 14.7214 22.9898C14.5136 23.1976 14.2318 23.3144 13.9379 23.3144C11.4793 23.317 9.05009 23.8489 6.8153 24.8737C4.58051 25.8986 2.59249 27.3924 0.986306 29.2538C0.882757 29.3749 0.75432 29.4722 0.609752 29.5391C0.465184 29.6061 0.307884 29.641 0.148576 29.6417Z" fill="#323C6B"/>
<path d="M21.1228 23.3144H19.4606C19.1668 23.3144 18.8849 23.1976 18.6771 22.9898C18.4693 22.782 18.3525 22.5001 18.3525 22.2063C18.3525 21.9124 18.4693 21.6305 18.6771 21.4227C18.8849 21.2149 19.1668 21.0981 19.4606 21.0981H21.1228C21.4167 21.0981 21.6985 21.2149 21.9064 21.4227C22.1142 21.6305 22.2309 21.9124 22.2309 22.2063C22.2309 22.5001 22.1142 22.782 21.9064 22.9898C21.6985 23.1976 21.4167 23.3144 21.1228 23.3144Z" fill="#323C6B"/>
<path d="M91.0866 140.36C90.7927 140.36 90.5109 140.243 90.3031 140.035C90.0953 139.828 89.9785 139.546 89.9785 139.252V124.846C89.9785 124.553 90.0953 124.271 90.3031 124.063C90.5109 123.855 90.7927 123.738 91.0866 123.738C91.3805 123.738 91.6624 123.855 91.8702 124.063C92.078 124.271 92.1947 124.553 92.1947 124.846V139.252C92.1947 139.546 92.078 139.828 91.8702 140.035C91.6624 140.243 91.3805 140.36 91.0866 140.36Z" fill="#323C6B"/>
</g>
<defs>
<clipPath id="clip0">
<rect width="164" height="164" fill="white"/>
</clipPath>
</defs>
</svg>
