<svg width="164" height="164" viewBox="0 0 164 164" fill="none" xmlns="http://www.w3.org/2000/svg">
<path d="M156.518 46.6426V141.339C156.516 144.263 155.354 147.066 153.286 149.134C151.219 151.201 148.416 152.363 145.492 152.365H23.762C20.8384 152.363 18.035 151.201 15.9676 149.134C13.9003 147.066 12.7381 144.263 12.7363 141.339V46.6426H156.518Z" fill="#EEEFEE"/>
<path d="M67.7964 56.23H97.9524V74.0528H67.7964V56.23Z" fill="#FA9825"/>
<path d="M37.8906 88.2656H61.1343V106.088H37.8906V88.2656Z" fill="#27CCBC"/>
<path d="M108.123 121.832H131.366V139.655H108.123V121.832Z" fill="#FA9825"/>
<path d="M108.176 97.9048L119.719 86.3617L131.262 97.9048L119.719 109.448L108.176 97.9048Z" fill="#89C5CD"/>
<path d="M49.5125 139.655C54.4341 139.655 58.4239 135.665 58.4239 130.743C58.4239 125.822 54.4341 121.832 49.5125 121.832C44.5908 121.832 40.6011 125.822 40.6011 130.743C40.6011 135.665 44.5908 139.655 49.5125 139.655Z" fill="#FE7058"/>
<path d="M97.9455 56.2344V74.0483H93.2738V60.1172H67.7983V56.2344H97.9455Z" fill="#F7BE56"/>
<path d="M61.1344 88.272V106.086H57.0034V92.1747H37.8818V88.272H61.1344Z" fill="#21B3A9"/>
<path d="M131.375 121.823V139.659H127.242V125.748H108.12V121.823H131.375Z" fill="#F7BE56"/>
<path d="M131.291 97.9061L119.747 109.448L119.685 109.386L128.115 100.958L116.633 89.4756L119.747 86.3618L131.291 97.9061Z" fill="#6EAAAD"/>
<path d="M58.4148 130.757C58.4155 132.333 57.9967 133.881 57.2014 135.242C56.4061 136.603 55.2629 137.728 53.8893 138.501C54.7729 137.095 55.2409 135.469 55.2389 133.809C55.2413 132.638 55.0126 131.477 54.5661 130.394C54.1195 129.312 53.4638 128.328 52.6365 127.498C51.8093 126.669 50.8266 126.011 49.7448 125.562C48.663 125.113 47.5032 124.882 46.332 124.882C44.8044 124.878 43.3021 125.271 41.9727 126.023C42.9958 124.381 44.5266 123.117 46.3329 122.424C48.1392 121.73 50.1224 121.644 51.9818 122.18C53.8411 122.715 55.4752 123.842 56.6361 125.39C57.797 126.938 58.4215 128.822 58.4148 130.757Z" fill="#EA6453"/>
<path d="M67.7961 66.2426H54.0002C53.7063 66.2426 53.4245 66.1258 53.2167 65.918C53.0088 65.7102 52.8921 65.4284 52.8921 65.1345C52.8921 64.8406 53.0088 64.5587 53.2167 64.3509C53.4245 64.1431 53.7063 64.0264 54.0002 64.0264H67.7961C68.09 64.0264 68.3719 64.1431 68.5797 64.3509C68.7875 64.5587 68.9043 64.8406 68.9043 65.1345C68.9043 65.4284 68.7875 65.7102 68.5797 65.918C68.3719 66.1258 68.09 66.2426 67.7961 66.2426Z" fill="#323C6B"/>
<path d="M49.5192 89.3691C49.2254 89.3691 48.9435 89.2523 48.7357 89.0445C48.5279 88.8367 48.4111 88.5548 48.4111 88.2609V69.6159C48.4111 69.322 48.5279 69.0402 48.7357 68.8324C48.9435 68.6246 49.2254 68.5078 49.5192 68.5078C49.8131 68.5078 50.095 68.6246 50.3028 68.8324C50.5106 69.0402 50.6273 69.322 50.6273 69.6159V88.2609C50.6273 88.5548 50.5106 88.8367 50.3028 89.0445C50.095 89.2523 49.8131 89.3691 49.5192 89.3691Z" fill="#323C6B"/>
<path d="M83.6731 102.387C86.148 102.387 88.1543 100.381 88.1543 97.906C88.1543 95.4311 86.148 93.4248 83.6731 93.4248C81.1982 93.4248 79.1919 95.4311 79.1919 97.906C79.1919 100.381 81.1982 102.387 83.6731 102.387Z" fill="#FE7058"/>
<path d="M83.6733 103.497C82.5678 103.497 81.4872 103.17 80.568 102.555C79.6489 101.941 78.9325 101.068 78.5094 100.047C78.0864 99.0258 77.9757 97.9019 78.1914 96.8177C78.407 95.7335 78.9394 94.7376 79.7211 93.9559C80.5027 93.1742 81.4986 92.6419 82.5829 92.4262C83.6671 92.2106 84.7909 92.3213 85.8122 92.7443C86.8335 93.1674 87.7065 93.8837 88.3206 94.8029C88.9348 95.7221 89.2626 96.8027 89.2626 97.9081C89.2608 99.39 88.6714 100.811 87.6236 101.858C86.5758 102.906 85.1551 103.496 83.6733 103.497ZM83.6733 94.5328C83.0062 94.5328 82.354 94.7307 81.7993 95.1013C81.2446 95.472 80.8123 95.9988 80.557 96.6151C80.3017 97.2315 80.2349 97.9097 80.365 98.564C80.4952 99.2183 80.8164 99.8193 81.2882 100.291C81.7599 100.763 82.3609 101.084 83.0152 101.214C83.6695 101.344 84.3478 101.278 84.9641 101.022C85.5805 100.767 86.1073 100.335 86.4779 99.7799C86.8485 99.2252 87.0464 98.5731 87.0464 97.9059C87.0458 97.0113 86.6903 96.1535 86.0579 95.5207C85.4255 94.8879 84.5679 94.5318 83.6733 94.5306V94.5328Z" fill="#323C6B"/>
<path d="M108.192 99.0136H88.1569C87.863 99.0136 87.5812 98.8968 87.3734 98.689C87.1656 98.4812 87.0488 98.1994 87.0488 97.9055C87.0488 97.6116 87.1656 97.3297 87.3734 97.1219C87.5812 96.9141 87.863 96.7974 88.1569 96.7974H108.192C108.485 96.7974 108.767 96.9141 108.975 97.1219C109.183 97.3297 109.3 97.6116 109.3 97.9055C109.3 98.1994 109.183 98.4812 108.975 98.689C108.767 98.8968 108.485 99.0136 108.192 99.0136Z" fill="#323C6B"/>
<path d="M83.6735 94.5303C83.3797 94.5303 83.0978 94.4135 82.89 94.2057C82.6822 93.9979 82.5654 93.7161 82.5654 93.4222V74.0524C82.5654 73.7586 82.6822 73.4767 82.89 73.2689C83.0978 73.0611 83.3797 72.9443 83.6735 72.9443C83.9674 72.9443 84.2493 73.0611 84.4571 73.2689C84.6649 73.4767 84.7817 73.7586 84.7817 74.0524V93.4222C84.7817 93.7161 84.6649 93.9979 84.4571 94.2057C84.2493 94.4135 83.9674 94.5303 83.6735 94.5303Z" fill="#323C6B"/>
<path d="M49.5124 122.94C49.2185 122.94 48.9367 122.823 48.7289 122.616C48.521 122.408 48.4043 122.126 48.4043 121.832V106.097C48.4043 105.803 48.521 105.521 48.7289 105.313C48.9367 105.106 49.2185 104.989 49.5124 104.989C49.8063 104.989 50.0881 105.106 50.296 105.313C50.5038 105.521 50.6205 105.803 50.6205 106.097V121.832C50.6205 122.126 50.5038 122.408 50.296 122.616C50.0881 122.823 49.8063 122.94 49.5124 122.94Z" fill="#323C6B"/>
<path d="M78.3921 131.845H58.424C58.1301 131.845 57.8483 131.728 57.6405 131.521C57.4327 131.313 57.3159 131.031 57.3159 130.737C57.3159 130.443 57.4327 130.161 57.6405 129.953C57.8483 129.746 58.1301 129.629 58.424 129.629H78.3921C78.686 129.629 78.9679 129.746 79.1757 129.953C79.3835 130.161 79.5002 130.443 79.5002 130.737C79.5002 131.031 79.3835 131.313 79.1757 131.521C78.9679 131.728 78.686 131.845 78.3921 131.845Z" fill="#323C6B"/>
<path d="M108.191 131.845H87.3586C87.0647 131.845 86.7829 131.728 86.575 131.521C86.3672 131.313 86.2505 131.031 86.2505 130.737C86.2505 130.443 86.3672 130.161 86.575 129.953C86.7829 129.746 87.0647 129.629 87.3586 129.629H108.191C108.485 129.629 108.767 129.746 108.975 129.953C109.182 130.161 109.299 130.443 109.299 130.737C109.299 131.031 109.182 131.313 108.975 131.521C108.767 131.728 108.485 131.845 108.191 131.845Z" fill="#323C6B"/>
<path d="M119.742 122.94C119.448 122.94 119.167 122.824 118.959 122.616C118.751 122.408 118.634 122.126 118.634 121.832V109.448C118.634 109.154 118.751 108.872 118.959 108.664C119.167 108.457 119.448 108.34 119.742 108.34C120.036 108.34 120.318 108.457 120.526 108.664C120.734 108.872 120.851 109.154 120.851 109.448V121.832C120.851 122.126 120.734 122.408 120.526 122.616C120.318 122.824 120.036 122.94 119.742 122.94Z" fill="#323C6B"/>
<path d="M82.8733 135.218C85.3482 135.218 87.3545 133.211 87.3545 130.737C87.3545 128.262 85.3482 126.255 82.8733 126.255C80.3984 126.255 78.3921 128.262 78.3921 130.737C78.3921 133.211 80.3984 135.218 82.8733 135.218Z" fill="#84879C"/>
<path d="M82.8735 136.326C81.768 136.326 80.6874 135.998 79.7682 135.384C78.8491 134.77 78.1327 133.897 77.7096 132.876C77.2866 131.854 77.1759 130.731 77.3916 129.646C77.6072 128.562 78.1396 127.566 78.9212 126.785C79.7029 126.003 80.6988 125.471 81.7831 125.255C82.8673 125.039 83.9911 125.15 85.0124 125.573C86.0337 125.996 86.9066 126.712 87.5208 127.632C88.135 128.551 88.4628 129.631 88.4628 130.737C88.461 132.219 87.8716 133.639 86.8238 134.687C85.7759 135.735 84.3553 136.324 82.8735 136.326ZM82.8735 127.364C82.2063 127.364 81.5542 127.562 80.9995 127.932C80.4448 128.303 80.0125 128.83 79.7572 129.446C79.5019 130.062 79.4351 130.741 79.5652 131.395C79.6954 132.049 80.0166 132.65 80.4883 133.122C80.9601 133.594 81.5611 133.915 82.2154 134.045C82.8697 134.175 83.548 134.108 84.1643 133.853C84.7807 133.598 85.3075 133.165 85.6781 132.611C86.0487 132.056 86.2466 131.404 86.2466 130.737C86.2454 129.843 85.8896 128.985 85.2573 128.353C84.625 127.721 83.7677 127.365 82.8735 127.364Z" fill="#323C6B"/>
<path d="M49.5188 69.6181C51.9937 69.6181 54 67.6118 54 65.137C54 62.6621 51.9937 60.6558 49.5188 60.6558C47.0439 60.6558 45.0376 62.6621 45.0376 65.137C45.0376 67.6118 47.0439 69.6181 49.5188 69.6181Z" fill="#84879C"/>
<path d="M49.5189 70.7239C48.4153 70.7226 47.3369 70.3942 46.4198 69.7803C45.5028 69.1663 44.7883 68.2944 44.3666 67.2746C43.9448 66.2547 43.8348 65.1328 44.0505 64.0505C44.2661 62.9682 44.7976 61.9741 45.578 61.1937C46.3583 60.4134 47.3525 59.8818 48.4348 59.6662C49.5171 59.4506 50.639 59.5606 51.6588 59.9823C52.6787 60.404 53.5506 61.1185 54.1646 62.0355C54.7785 62.9526 55.1069 64.031 55.1082 65.1346C55.1064 66.6164 54.517 68.0371 53.4692 69.0849C52.4213 70.1327 51.0007 70.7221 49.5189 70.7239ZM49.5189 61.7748C48.8531 61.7761 48.2026 61.9748 47.6497 62.3458C47.0968 62.7168 46.6664 63.2435 46.4128 63.8591C46.1592 64.4747 46.0939 65.1517 46.2251 65.8045C46.3563 66.4573 46.6781 67.0565 47.1498 67.5264C47.6215 67.9962 48.222 68.3157 48.8753 68.4443C49.5286 68.5729 50.2053 68.5049 50.8199 68.2489C51.4346 67.9928 51.9595 67.5603 52.3283 67.006C52.6971 66.4517 52.8933 65.8004 52.8919 65.1346C52.889 64.2421 52.5323 63.3872 51.9 62.7574C51.2676 62.1276 50.4113 61.7742 49.5189 61.7748Z" fill="#323C6B"/>
<path d="M156.518 21.6858V46.6426H12.7363V21.6858C12.7381 18.7622 13.9003 15.9588 15.9676 13.8914C18.035 11.8241 20.8384 10.6619 23.762 10.6602H145.492C148.416 10.6619 151.219 11.8241 153.286 13.8914C155.354 15.9588 156.516 18.7622 156.518 21.6858Z" fill="#FA9825"/>
<path d="M156.518 46.6426V141.339C156.517 144.19 155.411 146.929 153.432 148.981C151.454 151.033 148.757 152.238 145.909 152.343C146.994 151.323 147.858 150.091 148.448 148.723C149.037 147.355 149.339 145.88 149.335 144.391V46.6426H156.518Z" fill="#E1E6E9"/>
<path d="M156.518 21.6858V46.6426H149.333V28.33C149.332 25.4063 148.169 22.6029 146.102 20.5356C144.035 18.4683 141.231 17.3061 138.308 17.3043H16.5798C15.5282 17.2962 14.4817 17.4502 13.4771 17.7608C14.2668 15.6748 15.6732 13.8787 17.5091 12.6118C19.3449 11.3449 21.5231 10.6672 23.7536 10.6689H145.493C148.415 10.6707 151.217 11.8317 153.284 13.8971C155.351 15.9625 156.514 18.7636 156.518 21.6858Z" fill="#FCD462"/>
<path d="M137.962 33.5178C140.649 33.5178 142.828 31.3389 142.828 28.651C142.828 25.9631 140.649 23.7842 137.962 23.7842C135.274 23.7842 133.095 25.9631 133.095 28.651C133.095 31.3389 135.274 33.5178 137.962 33.5178Z" fill="#EEEFEE"/>
<path d="M137.962 34.6258C136.778 34.6258 135.621 34.2748 134.637 33.6173C133.653 32.9598 132.886 32.0253 132.434 30.9319C131.981 29.8385 131.862 28.6354 132.093 27.4746C132.324 26.3139 132.894 25.2477 133.731 24.4108C134.567 23.574 135.634 23.0041 136.794 22.7732C137.955 22.5423 139.158 22.6608 140.252 23.1137C141.345 23.5666 142.28 24.3335 142.937 25.3176C143.595 26.3016 143.946 27.4585 143.946 28.642C143.946 30.229 143.315 31.751 142.193 32.8732C141.071 33.9953 139.549 34.6258 137.962 34.6258ZM137.962 24.8922C137.217 24.8922 136.488 25.1131 135.869 25.5271C135.249 25.9411 134.766 26.5295 134.481 27.2179C134.196 27.9064 134.121 28.6639 134.267 29.3947C134.412 30.1256 134.771 30.7969 135.298 31.3238C135.825 31.8507 136.496 32.2095 137.227 32.3549C137.958 32.5003 138.715 32.4257 139.404 32.1405C140.092 31.8553 140.68 31.3724 141.094 30.7529C141.508 30.1333 141.729 29.4049 141.729 28.6597C141.729 27.6605 141.332 26.7022 140.626 25.9956C139.919 25.2891 138.961 24.8922 137.962 24.8922Z" fill="#323C6B"/>
<path d="M118.625 33.5178C121.313 33.5178 123.492 31.3389 123.492 28.651C123.492 25.9631 121.313 23.7842 118.625 23.7842C115.937 23.7842 113.758 25.9631 113.758 28.651C113.758 31.3389 115.937 33.5178 118.625 33.5178Z" fill="#EEEFEE"/>
<path d="M118.625 34.6258C117.441 34.6258 116.285 34.2748 115.3 33.6173C114.316 32.9598 113.55 32.0253 113.097 30.9319C112.644 29.8385 112.525 28.6354 112.756 27.4746C112.987 26.3139 113.557 25.2477 114.394 24.4108C115.231 23.574 116.297 23.0041 117.458 22.7732C118.618 22.5423 119.821 22.6608 120.915 23.1137C122.008 23.5666 122.943 24.3335 123.6 25.3176C124.258 26.3016 124.609 27.4585 124.609 28.642C124.609 30.229 123.978 31.751 122.856 32.8732C121.734 33.9953 120.212 34.6258 118.625 34.6258ZM118.625 24.8922C117.88 24.8922 117.151 25.1131 116.532 25.5271C115.912 25.9411 115.429 26.5295 115.144 27.2179C114.859 27.9064 114.784 28.6639 114.93 29.3947C115.075 30.1256 115.434 30.7969 115.961 31.3238C116.488 31.8507 117.159 32.2095 117.89 32.3549C118.621 32.5003 119.378 32.4257 120.067 32.1405C120.755 31.8553 121.344 31.3724 121.758 30.7529C122.172 30.1333 122.392 29.4049 122.392 28.6597C122.392 28.165 122.295 27.675 122.106 27.2179C121.916 26.7608 121.639 26.3455 121.289 25.9956C120.939 25.6458 120.524 25.3683 120.067 25.1789C119.61 24.9896 119.12 24.8922 118.625 24.8922Z" fill="#323C6B"/>
<path d="M99.2887 33.5178C101.977 33.5178 104.155 31.3389 104.155 28.651C104.155 25.9631 101.977 23.7842 99.2887 23.7842C96.6008 23.7842 94.4219 25.9631 94.4219 28.651C94.4219 31.3389 96.6008 33.5178 99.2887 33.5178Z" fill="#EEEFEE"/>
<path d="M99.2865 34.6267C98.103 34.6267 96.9461 34.2758 95.9621 33.6183C94.9781 32.9608 94.2111 32.0263 93.7582 30.9329C93.3053 29.8395 93.1868 28.6363 93.4177 27.4756C93.6486 26.3148 94.2185 25.2486 95.0553 24.4118C95.8922 23.5749 96.9584 23.005 98.1191 22.7742C99.2799 22.5433 100.483 22.6618 101.576 23.1147C102.67 23.5676 103.604 24.3345 104.262 25.3186C104.919 26.3026 105.27 27.4595 105.27 28.643C105.27 30.23 104.64 31.752 103.518 32.8741C102.396 33.9963 100.874 34.6267 99.2865 34.6267ZM99.2865 24.8931C98.5414 24.8931 97.8129 25.1141 97.1934 25.5281C96.5738 25.9421 96.0909 26.5305 95.8057 27.2189C95.5206 27.9073 95.446 28.6649 95.5913 29.3957C95.7367 30.1265 96.0955 30.7979 96.6224 31.3248C97.1494 31.8517 97.8207 32.2105 98.5515 32.3559C99.2823 32.5012 100.04 32.4266 100.728 32.1415C101.417 31.8563 102.005 31.3734 102.419 30.7538C102.833 30.1343 103.054 29.4058 103.054 28.6607C103.054 27.6615 102.657 26.7032 101.951 25.9966C101.244 25.2901 100.286 24.8931 99.2865 24.8931Z" fill="#323C6B"/>
<path d="M79.7836 29.7597H26.426C26.1321 29.7597 25.8502 29.6429 25.6424 29.4351C25.4346 29.2273 25.3179 28.9455 25.3179 28.6516C25.3179 28.3577 25.4346 28.0758 25.6424 27.868C25.8502 27.6602 26.1321 27.5435 26.426 27.5435H79.7836C80.0775 27.5435 80.3593 27.6602 80.5672 27.868C80.775 28.0758 80.8917 28.3577 80.8917 28.6516C80.8917 28.9455 80.775 29.2273 80.5672 29.4351C80.3593 29.6429 80.0775 29.7597 79.7836 29.7597Z" fill="#323C6B"/>
<path d="M145.492 153.473H23.7622C20.5452 153.47 17.461 152.19 15.1862 149.915C12.9114 147.641 11.6319 144.556 11.6284 141.339V46.6428C11.6284 46.3489 11.7452 46.067 11.953 45.8592C12.1608 45.6514 12.4426 45.5347 12.7365 45.5347H156.518C156.812 45.5347 157.094 45.6514 157.302 45.8592C157.509 46.067 157.626 46.3489 157.626 46.6428V141.339C157.623 144.556 156.343 147.641 154.068 149.915C151.794 152.19 148.709 153.47 145.492 153.473ZM13.8491 47.7597V141.339C13.852 143.969 14.8978 146.49 16.7571 148.349C18.6164 150.208 21.1372 151.254 23.7666 151.257H145.492C148.122 151.254 150.643 150.208 152.502 148.349C154.361 146.49 155.407 143.969 155.41 141.339V47.7509L13.8491 47.7597Z" fill="#323C6B"/>
<path d="M156.518 47.7509H12.739C12.4451 47.7509 12.1632 47.6342 11.9554 47.4264C11.7476 47.2186 11.6309 46.9367 11.6309 46.6428V21.686C11.6344 18.469 12.9139 15.3848 15.1886 13.11C17.4634 10.8353 20.5476 9.55577 23.7646 9.55225H145.493C148.71 9.55577 151.794 10.8353 154.069 13.11C156.343 15.3848 157.623 18.469 157.626 21.686V46.6428C157.626 46.9367 157.51 47.2186 157.302 47.4264C157.094 47.6342 156.812 47.7509 156.518 47.7509ZM13.8471 45.5347H155.41V21.686C155.407 19.0566 154.361 16.5358 152.502 14.6765C150.643 12.8172 148.122 11.7714 145.493 11.7685H23.7624C21.1334 11.772 18.6131 12.8181 16.7543 14.6773C14.8955 16.5365 13.85 19.057 13.8471 21.686V45.5347Z" fill="#323C6B"/>
<path d="M97.9566 75.1611H67.7961C67.5022 75.1611 67.2204 75.0444 67.0125 74.8365C66.8047 74.6287 66.688 74.3469 66.688 74.053V56.2302C66.688 55.9363 66.8047 55.6544 67.0125 55.4466C67.2204 55.2388 67.5022 55.1221 67.7961 55.1221H97.9566C98.2505 55.1221 98.5323 55.2388 98.7401 55.4466C98.948 55.6544 99.0647 55.9363 99.0647 56.2302V74.053C99.0647 74.3469 98.948 74.6287 98.7401 74.8365C98.5323 75.0444 98.2505 75.1611 97.9566 75.1611ZM68.9086 72.9449H96.8485V57.3383H68.9042L68.9086 72.9449Z" fill="#323C6B"/>
<path d="M61.132 107.199H37.8972C37.6033 107.199 37.3214 107.082 37.1136 106.874C36.9058 106.666 36.7891 106.384 36.7891 106.091V88.2678C36.7891 87.9739 36.9058 87.692 37.1136 87.4842C37.3214 87.2764 37.6033 87.1597 37.8972 87.1597H61.132C61.4259 87.1597 61.7077 87.2764 61.9155 87.4842C62.1233 87.692 62.2401 87.9739 62.2401 88.2678V106.091C62.2401 106.384 62.1233 106.666 61.9155 106.874C61.7077 107.082 61.4259 107.199 61.132 107.199ZM38.9964 104.982H60.0239V89.3759H39.0053L38.9964 104.982Z" fill="#323C6B"/>
<path d="M131.364 140.765H108.123C107.829 140.765 107.547 140.649 107.339 140.441C107.131 140.233 107.015 139.951 107.015 139.657V121.832C107.015 121.538 107.131 121.256 107.339 121.049C107.547 120.841 107.829 120.724 108.123 120.724H131.364C131.658 120.724 131.94 120.841 132.148 121.049C132.356 121.256 132.472 121.538 132.472 121.832V139.655C132.473 139.801 132.444 139.945 132.389 140.08C132.333 140.214 132.251 140.337 132.149 140.44C132.046 140.543 131.923 140.625 131.789 140.681C131.654 140.737 131.51 140.765 131.364 140.765ZM109.229 138.549H130.256V122.94H109.231L109.229 138.549Z" fill="#323C6B"/>
<path d="M119.742 110.556C119.597 110.557 119.452 110.528 119.318 110.473C119.183 110.417 119.061 110.336 118.958 110.233L107.413 98.6885C107.206 98.4807 107.089 98.1989 107.089 97.9051C107.089 97.6112 107.206 97.3294 107.413 97.1216L118.958 85.5774C119.165 85.3696 119.447 85.2529 119.741 85.2529C120.035 85.2529 120.317 85.3696 120.524 85.5774L132.069 97.1216C132.276 97.3294 132.393 97.6112 132.393 97.9051C132.393 98.1989 132.276 98.4807 132.069 98.6885L120.524 110.233C120.317 110.44 120.035 110.556 119.742 110.556ZM109.769 97.904L119.742 107.877L129.715 97.904L119.742 87.931L109.769 97.904Z" fill="#323C6B"/>
<path d="M49.5122 140.766C47.5305 140.766 45.5934 140.178 43.9457 139.077C42.298 137.976 41.0137 136.411 40.2554 134.58C39.497 132.75 39.2986 130.735 39.6852 128.791C40.0718 126.848 41.0261 125.062 42.4273 123.661C43.8286 122.26 45.6139 121.306 47.5575 120.919C49.5011 120.532 51.5157 120.731 53.3465 121.489C55.1773 122.248 56.7422 123.532 57.8431 125.18C58.9441 126.827 59.5317 128.764 59.5317 130.746C59.5282 133.402 58.4714 135.949 56.5932 137.827C54.7149 139.705 52.1685 140.762 49.5122 140.766ZM49.5122 122.943C47.9688 122.943 46.4602 123.4 45.1769 124.258C43.8937 125.115 42.8935 126.334 42.3029 127.76C41.7123 129.186 41.5577 130.755 41.8588 132.268C42.1599 133.782 42.9031 135.173 43.9944 136.264C45.0857 137.355 46.4762 138.098 47.9898 138.399C49.5035 138.701 51.0725 138.546 52.4984 137.955C53.9243 137.365 55.143 136.365 56.0004 135.081C56.8578 133.798 57.3155 132.289 57.3155 130.746C57.3137 128.677 56.4911 126.693 55.0281 125.229C53.5652 123.766 51.5814 122.943 49.5122 122.941V122.943Z" fill="#323C6B"/>
<path d="M63.2841 40.3752C63.2835 40.5405 63.2504 40.7041 63.1866 40.8566C63.1228 41.0091 63.0296 41.1475 62.9123 41.264C62.795 41.3805 62.6559 41.4727 62.5029 41.5354C62.35 41.5981 62.1862 41.6301 62.0209 41.6296L44.0518 41.6163C43.8865 41.6163 43.7228 41.5837 43.5701 41.5204C43.4173 41.4572 43.2786 41.3644 43.1617 41.2476C43.0448 41.1307 42.952 40.9919 42.8888 40.8392C42.8255 40.6864 42.793 40.5227 42.793 40.3574C42.793 40.1921 42.8255 40.0284 42.8888 39.8757C42.952 39.723 43.0448 39.5842 43.1617 39.4673C43.2786 39.3504 43.4173 39.2577 43.5701 39.1945C43.7228 39.1312 43.8865 39.0986 44.0518 39.0986L62.0209 39.1119C62.1869 39.1113 62.3514 39.1436 62.505 39.2069C62.6585 39.2702 62.798 39.3632 62.9154 39.4806C63.0328 39.598 63.1259 39.7375 63.1891 39.8911C63.2524 40.0446 63.2847 40.2091 63.2841 40.3752Z" fill="white"/>
<path d="M68.594 40.3883C68.5934 40.5536 68.5603 40.7171 68.4965 40.8696C68.4327 41.0221 68.3395 41.1606 68.2222 41.2771C68.1049 41.3935 67.9658 41.4858 67.8128 41.5485C67.6599 41.6112 67.4961 41.6432 67.3308 41.6426H66.626C66.2921 41.6426 65.972 41.51 65.7359 41.2739C65.4998 41.0379 65.3672 40.7177 65.3672 40.3838C65.3672 40.05 65.4998 39.7298 65.7359 39.4937C65.972 39.2576 66.2921 39.125 66.626 39.125H67.3308C67.4967 39.1247 67.6611 39.1572 67.8145 39.2206C67.9679 39.2839 68.1073 39.377 68.2246 39.4943C68.342 39.6117 68.435 39.7511 68.4984 39.9045C68.5618 40.0579 68.5943 40.2223 68.594 40.3883Z" fill="white"/>
<path d="M6.50899 121.983C6.2151 121.983 5.93325 121.866 5.72544 121.658C5.51763 121.451 5.40088 121.169 5.40088 120.875V119.665C5.40088 119.371 5.51763 119.089 5.72544 118.881C5.93325 118.673 6.2151 118.557 6.50899 118.557C6.80288 118.557 7.08473 118.673 7.29254 118.881C7.50035 119.089 7.6171 119.371 7.6171 119.665V120.875C7.6171 121.169 7.50035 121.451 7.29254 121.658C7.08473 121.866 6.80288 121.983 6.50899 121.983Z" fill="#323C6B"/>
<path d="M6.50899 116.274C6.2151 116.274 5.93325 116.157 5.72544 115.949C5.51763 115.741 5.40088 115.459 5.40088 115.165V99.0647C5.40088 98.7708 5.51763 98.4889 5.72544 98.2811C5.93325 98.0733 6.2151 97.9565 6.50899 97.9565C6.80288 97.9565 7.08473 98.0733 7.29254 98.2811C7.50035 98.4889 7.6171 98.7708 7.6171 99.0647V115.154C7.61856 115.301 7.59098 115.446 7.53595 115.582C7.48092 115.718 7.39953 115.841 7.29648 115.945C7.19344 116.049 7.07079 116.132 6.93562 116.188C6.80045 116.245 6.65544 116.274 6.50899 116.274Z" fill="#323C6B"/>
<path d="M112.311 5.54043H110.407C110.114 5.54043 109.832 5.42369 109.624 5.21588C109.416 5.00807 109.299 4.72622 109.299 4.43233C109.299 4.13844 109.416 3.85659 109.624 3.64878C109.832 3.44097 110.114 3.32422 110.407 3.32422H112.311C112.605 3.32422 112.887 3.44097 113.095 3.64878C113.303 3.85659 113.419 4.13844 113.419 4.43233C113.419 4.72622 113.303 5.00807 113.095 5.21588C112.887 5.42369 112.605 5.54043 112.311 5.54043Z" fill="#323C6B"/>
<path d="M137.745 5.54043H118.107C117.813 5.54043 117.531 5.42369 117.323 5.21588C117.115 5.00807 116.999 4.72622 116.999 4.43233C116.999 4.13844 117.115 3.85659 117.323 3.64878C117.531 3.44097 117.813 3.32422 118.107 3.32422H137.745C138.038 3.32422 138.32 3.44097 138.528 3.64878C138.736 3.85659 138.853 4.13844 138.853 4.43233C138.853 4.72622 138.736 5.00807 138.528 5.21588C138.32 5.42369 138.038 5.54043 137.745 5.54043Z" fill="#323C6B"/>
</svg>
