<svg width="164" height="164" viewBox="0 0 164 164" fill="none" xmlns="http://www.w3.org/2000/svg">
<path d="M127.266 102.531V108.125C127.256 115.869 124.183 123.295 118.718 128.782L107.956 139.544C105.241 142.264 102.015 144.422 98.4633 145.892C94.9119 147.361 91.105 148.115 87.2613 148.11H82V61.2695L127.266 61.5842V74.046" fill="#FA9825"/>
<path d="M127.277 61.5886V108.129C127.26 115.873 124.185 123.296 118.723 128.784L107.952 139.555C105.235 142.274 102.008 144.43 98.4558 145.898C94.9035 147.366 91.0961 148.118 87.2524 148.11H82V143.81H82.5984C86.4421 143.818 90.2495 143.066 93.8017 141.598C97.354 140.13 100.581 137.975 103.298 135.256L114.069 124.485C119.525 118.994 122.592 111.57 122.601 103.83V61.5664L127.277 61.5886Z" fill="#FCD462"/>
<path d="M36.7339 102.531V108.125C36.7442 115.869 39.817 123.295 45.2818 128.782L56.0438 139.544C58.7592 142.264 61.9853 144.422 65.5368 145.892C69.0882 147.361 72.8951 148.115 76.7388 148.11H82.0001V61.2695L36.7339 61.5842V74.046" fill="#FA9825"/>
<path d="M82 143.81V148.11H76.7475C72.9038 148.118 69.0965 147.366 65.5442 145.898C61.9919 144.43 58.7647 142.274 56.0481 139.555L45.2773 128.784C39.8146 123.296 36.7402 115.873 36.7227 108.129V103.83C36.7402 111.573 39.8146 118.996 45.2773 124.485L56.0481 135.256C58.7647 137.975 61.9919 140.13 65.5442 141.598C69.0965 143.066 72.9038 143.818 76.7475 143.81H82Z" fill="#FCD462"/>
<path d="M45.2818 129.89C45.0407 129.89 44.8061 129.812 44.6136 129.667C44.4211 129.522 44.2811 129.318 44.2149 129.086C44.1488 128.854 44.16 128.607 44.247 128.382C44.3339 128.157 44.4918 127.967 44.6967 127.84L61.6508 117.355L38.642 75.5548C38.5088 75.313 38.4706 75.0302 38.5349 74.7616C38.5993 74.4931 38.7616 74.2583 38.99 74.1032L58.7453 60.6641C58.8739 60.5774 59.0191 60.5183 59.1717 60.4904C59.3242 60.4626 59.4809 60.4666 59.6318 60.5023C59.7815 60.5373 59.9222 60.6031 60.045 60.6954C60.1679 60.7877 60.2702 60.9046 60.3454 61.0386L69.6159 77.5672L81.4194 70.3024C81.6698 70.1484 81.9712 70.1002 82.2571 70.1683C82.543 70.2365 82.7902 70.4155 82.9442 70.6659C83.0982 70.9163 83.1464 71.2176 83.0783 71.5035C83.0101 71.7895 82.8311 72.0366 82.5807 72.1906L69.7932 80.0604C69.6659 80.1393 69.524 80.1917 69.3759 80.2142C69.2278 80.2367 69.0767 80.229 68.9317 80.1915C68.7867 80.154 68.6509 80.0875 68.5323 79.9961C68.4137 79.9046 68.3149 79.79 68.2418 79.6593L58.9869 63.1662L41.0644 75.3554L64.1019 117.209C64.2394 117.458 64.2758 117.75 64.2036 118.025C64.1314 118.3 63.9561 118.537 63.7141 118.687L45.8647 129.726C45.6894 129.834 45.4876 129.89 45.2818 129.89Z" fill="#323C6B"/>
<path d="M39.1874 120.927C38.9442 120.928 38.7076 120.848 38.5141 120.7C38.3207 120.553 38.1812 120.346 38.1172 120.111C38.0532 119.876 38.0681 119.627 38.1598 119.402C38.2515 119.176 38.4148 118.987 38.6245 118.864L47.6091 113.565L44.3734 106.821C44.2533 106.57 44.2322 106.283 44.3143 106.017C44.3965 105.75 44.5758 105.525 44.8166 105.385L53.5042 100.299C53.6301 100.213 53.7723 100.154 53.9219 100.126C54.0715 100.098 54.2254 100.101 54.3738 100.135C54.5223 100.168 54.6622 100.233 54.7848 100.323C54.9074 100.413 55.0101 100.528 55.0864 100.66C55.1627 100.791 55.2111 100.937 55.2285 101.089C55.2458 101.24 55.2318 101.393 55.1874 101.539C55.1429 101.684 55.0689 101.819 54.9699 101.935C54.871 102.051 54.7492 102.145 54.6123 102.212L46.8046 106.781L50.038 113.514C50.1575 113.765 50.1782 114.052 50.0961 114.318C50.014 114.583 49.8351 114.808 49.5948 114.948L39.7481 120.783C39.5773 120.88 39.3838 120.93 39.1874 120.927Z" fill="#323C6B"/>
<path d="M74.4892 148.229C74.3069 148.229 74.1274 148.185 73.9666 148.099C73.8058 148.013 73.6686 147.889 73.5672 147.737L56.3362 121.991C56.2551 121.87 56.1987 121.735 56.1701 121.592C56.1414 121.449 56.1412 121.302 56.1694 121.159C56.1976 121.017 56.2537 120.881 56.3344 120.76C56.4151 120.638 56.5188 120.534 56.6398 120.453C56.7607 120.372 56.8964 120.316 57.0391 120.287C57.1819 120.259 57.3289 120.258 57.4717 120.287C57.6145 120.315 57.7504 120.371 57.8715 120.452C57.9927 120.532 58.0968 120.636 58.1778 120.757L75.4089 146.503C75.5205 146.67 75.5846 146.863 75.5946 147.064C75.6046 147.264 75.56 147.463 75.4656 147.64C75.3712 147.817 75.2305 147.965 75.0585 148.069C74.8866 148.172 74.6898 148.227 74.4892 148.227V148.229Z" fill="#323C6B"/>
<path d="M63.7053 132.115C63.4738 132.112 63.2491 132.037 63.0625 131.9C62.876 131.763 62.737 131.571 62.6651 131.351C62.5933 131.131 62.5921 130.894 62.6618 130.673C62.7315 130.453 62.8685 130.259 63.0537 130.12L81.3508 116.856C81.5888 116.684 81.8857 116.613 82.176 116.659C82.4663 116.706 82.7263 116.865 82.8988 117.104C83.0713 117.342 83.1422 117.638 83.0959 117.929C83.0495 118.219 82.8897 118.479 82.6517 118.652L64.3546 131.916C64.1644 132.048 63.9373 132.118 63.7053 132.115Z" fill="#323C6B"/>
<path d="M53.0959 100.616C52.8545 100.616 52.6197 100.537 52.4272 100.392C52.2346 100.246 52.0949 100.042 52.0292 99.8095C51.9634 99.5772 51.9754 99.3298 52.0631 99.105C52.1509 98.8801 52.3096 98.69 52.5153 98.5637L81.4192 80.7874C81.6693 80.642 81.9663 80.6001 82.2469 80.6708C82.5275 80.7414 82.7692 80.919 82.9206 81.1656C83.072 81.4122 83.1209 81.7082 83.0569 81.9903C82.9929 82.2725 82.8212 82.5184 82.5783 82.6756L53.6744 100.454C53.5001 100.56 53.2999 100.616 53.0959 100.616Z" fill="#323C6B"/>
<path d="M47.332 90.1487C47.0938 90.1488 46.862 90.0721 46.6708 89.93C46.4796 89.788 46.3393 89.5881 46.2707 89.36C46.202 89.1319 46.2087 88.8878 46.2897 88.6638C46.3707 88.4398 46.5217 88.2479 46.7203 88.1165L55.7647 82.1438L48.0722 69.1811C47.922 68.9284 47.8784 68.6263 47.9509 68.3414C48.0235 68.0565 48.2062 67.8121 48.4589 67.6619C48.7117 67.5117 49.0137 67.4681 49.2986 67.5406C49.5836 67.6131 49.828 67.7959 49.9782 68.0486L58.2092 81.9199C58.3548 82.165 58.4003 82.4567 58.3363 82.7345C58.2723 83.0123 58.1038 83.2547 57.8657 83.4114L47.9392 89.967C47.7588 90.0854 47.5478 90.1486 47.332 90.1487Z" fill="#323C6B"/>
<path d="M79.4495 119.609C79.2524 119.61 79.0587 119.557 78.8885 119.458C78.7183 119.359 78.5776 119.216 78.481 119.044L70.0838 104.087L59.2952 110.678C59.171 110.754 59.033 110.804 58.8891 110.827C58.7453 110.849 58.5985 110.843 58.457 110.809C58.3155 110.775 58.1821 110.713 58.0645 110.627C57.9469 110.541 57.8474 110.433 57.7716 110.309C57.6958 110.185 57.6452 110.047 57.6227 109.903C57.6002 109.759 57.6063 109.612 57.6405 109.471C57.6748 109.329 57.7366 109.196 57.8224 109.078C57.9082 108.961 58.0163 108.861 58.1406 108.785L69.9109 101.594C70.0377 101.515 70.1792 101.464 70.3267 101.442C70.4742 101.42 70.6245 101.429 70.7686 101.467C70.9128 101.505 71.048 101.571 71.1661 101.662C71.2841 101.753 71.3826 101.867 71.4556 101.997L80.4136 117.954C80.5084 118.122 80.5573 118.313 80.5557 118.506C80.554 118.7 80.5017 118.889 80.404 119.056C80.3062 119.223 80.1665 119.362 79.9987 119.458C79.8308 119.554 79.6407 119.605 79.4473 119.605L79.4495 119.609Z" fill="#323C6B"/>
<path d="M70.4494 103.528C70.1555 103.528 69.8737 103.411 69.6659 103.204C69.4581 102.996 69.3413 102.714 69.3413 102.42V88.8347C69.3413 88.6892 69.37 88.5451 69.4257 88.4106C69.4813 88.2762 69.563 88.154 69.6659 88.0511C69.7688 87.9482 69.8909 87.8666 70.0254 87.8109C70.1598 87.7552 70.3039 87.7266 70.4494 87.7266C70.5949 87.7266 70.739 87.7552 70.8735 87.8109C71.0079 87.8666 71.1301 87.9482 71.233 88.0511C71.3359 88.154 71.4175 88.2762 71.4732 88.4106C71.5289 88.5451 71.5575 88.6892 71.5575 88.8347V102.418C71.5578 102.564 71.5294 102.708 71.4738 102.843C71.4183 102.977 71.3367 103.1 71.2338 103.203C71.1308 103.306 71.0086 103.388 70.874 103.444C70.7394 103.499 70.5951 103.528 70.4494 103.528Z" fill="#323C6B"/>
<path d="M118.718 129.89C118.512 129.89 118.31 129.832 118.135 129.724L100.286 118.685C100.044 118.535 99.8687 118.299 99.7965 118.023C99.7243 117.748 99.7607 117.456 99.8982 117.207L122.931 75.369L105.009 63.1798L95.7539 79.6729C95.6808 79.8037 95.582 79.9182 95.4634 80.0097C95.3448 80.1012 95.2089 80.1677 95.0639 80.2052C94.919 80.2427 94.7679 80.2504 94.6198 80.2278C94.4717 80.2053 94.3298 80.153 94.2025 80.0741L81.4149 72.2043C81.1645 72.0503 80.9856 71.8031 80.9174 71.5172C80.8493 71.2312 80.8975 70.9299 81.0515 70.6795C81.2055 70.4291 81.4526 70.2502 81.7386 70.182C82.0245 70.1138 82.3258 70.1621 82.5762 70.3161L94.3842 77.5675L103.666 61.0279C103.741 60.894 103.843 60.7772 103.966 60.6849C104.088 60.5925 104.229 60.5267 104.378 60.4915C104.527 60.4563 104.682 60.4525 104.833 60.4803C104.984 60.5082 105.128 60.5671 105.255 60.6534L125.01 74.0925C125.239 74.2476 125.401 74.4824 125.465 74.7509C125.53 75.0194 125.491 75.3023 125.358 75.5441L102.347 117.355L119.301 127.84C119.506 127.967 119.664 128.158 119.751 128.382C119.838 128.607 119.849 128.854 119.783 129.086C119.717 129.318 119.577 129.522 119.384 129.667C119.192 129.812 118.957 129.89 118.716 129.89H118.718Z" fill="#323C6B"/>
<path d="M124.813 120.928C124.616 120.927 124.422 120.875 124.252 120.775L114.39 114.957C114.15 114.817 113.971 114.592 113.889 114.327C113.806 114.061 113.827 113.774 113.947 113.523L117.18 106.79L109.372 102.221C109.141 102.063 108.978 101.824 108.915 101.551C108.853 101.278 108.897 100.991 109.037 100.749C109.177 100.507 109.404 100.326 109.672 100.245C109.94 100.163 110.229 100.185 110.481 100.308L119.168 105.394C119.409 105.534 119.588 105.759 119.67 106.026C119.753 106.292 119.731 106.579 119.611 106.83L116.378 113.565L125.362 118.864C125.572 118.988 125.735 119.177 125.827 119.402C125.919 119.627 125.934 119.876 125.87 120.111C125.806 120.346 125.666 120.553 125.473 120.701C125.279 120.848 125.043 120.928 124.799 120.928H124.813Z" fill="#323C6B"/>
<path d="M89.5106 148.229C89.31 148.229 89.1132 148.174 88.9413 148.071C88.7693 147.967 88.6286 147.819 88.5342 147.642C88.4398 147.465 88.3952 147.266 88.4052 147.066C88.4152 146.865 88.4793 146.671 88.5909 146.505L105.822 120.759C105.986 120.515 106.24 120.346 106.528 120.289C106.817 120.232 107.116 120.292 107.36 120.455C107.604 120.619 107.773 120.873 107.83 121.161C107.887 121.45 107.827 121.749 107.664 121.993L90.4215 147.737C90.3212 147.887 90.1858 148.01 90.027 148.096C89.8683 148.182 89.691 148.227 89.5106 148.229Z" fill="#323C6B"/>
<path d="M100.295 132.115C100.06 132.112 99.8328 132.034 99.6452 131.894L81.3482 118.63C81.1101 118.457 80.9503 118.197 80.904 117.907C80.8577 117.616 80.9285 117.32 81.1011 117.082C81.2736 116.844 81.5336 116.684 81.8239 116.637C82.1142 116.591 82.411 116.662 82.6491 116.834L100.946 130.099C101.131 130.237 101.268 130.431 101.338 130.651C101.408 130.872 101.407 131.109 101.335 131.329C101.263 131.549 101.124 131.741 100.937 131.878C100.751 132.015 100.526 132.09 100.295 132.093V132.115Z" fill="#323C6B"/>
<path d="M110.904 100.616C110.699 100.616 110.499 100.559 110.325 100.452L81.4236 82.6778C81.2959 82.6036 81.1843 82.5045 81.0955 82.3865C81.0066 82.2685 80.9422 82.1339 80.9061 81.9906C80.87 81.8473 80.863 81.6983 80.8853 81.5523C80.9077 81.4062 80.959 81.2661 81.0363 81.1402C81.1136 81.0143 81.2153 80.9051 81.3354 80.8191C81.4555 80.7331 81.5916 80.6719 81.7357 80.6392C81.8797 80.6066 82.0289 80.6031 82.1744 80.6289C82.3198 80.6547 82.4587 80.7094 82.5827 80.7896L111.476 98.5659C111.681 98.6923 111.84 98.8823 111.928 99.1072C112.015 99.3321 112.027 99.5794 111.962 99.8117C111.896 100.044 111.756 100.248 111.564 100.394C111.371 100.54 111.136 100.618 110.895 100.618L110.904 100.616Z" fill="#323C6B"/>
<path d="M116.668 90.149C116.451 90.1486 116.239 90.0847 116.059 89.965L106.132 83.4095C105.894 83.2528 105.726 83.0103 105.662 82.7326C105.598 82.4548 105.643 82.163 105.789 81.918L114.02 68.0467C114.094 67.9215 114.192 67.8122 114.309 67.7251C114.426 67.6379 114.558 67.5746 114.699 67.5387C114.84 67.5027 114.987 67.495 115.131 67.5158C115.275 67.5366 115.414 67.5856 115.539 67.6599C115.664 67.7343 115.773 67.8326 115.861 67.9492C115.948 68.0658 116.011 68.1984 116.047 68.3394C116.083 68.4805 116.091 68.6273 116.07 68.7714C116.049 68.9154 116 69.054 115.926 69.1791L108.233 82.1418L117.278 88.1145C117.476 88.2459 117.627 88.4379 117.708 88.6618C117.789 88.8858 117.796 89.13 117.727 89.358C117.659 89.5861 117.518 89.786 117.327 89.9281C117.136 90.0701 116.904 90.1468 116.666 90.1468L116.668 90.149Z" fill="#323C6B"/>
<path d="M84.5508 119.609C84.3573 119.609 84.1672 119.559 83.9994 119.462C83.8316 119.366 83.6918 119.228 83.5941 119.061C83.4964 118.894 83.4441 118.704 83.4424 118.511C83.4407 118.317 83.4897 118.127 83.5845 117.958L92.5425 102.001C92.6153 101.87 92.714 101.756 92.8325 101.664C92.951 101.572 93.0869 101.505 93.2319 101.468C93.3769 101.43 93.528 101.422 93.6762 101.445C93.8243 101.467 93.9664 101.519 94.0938 101.598L105.864 108.79C106.115 108.943 106.295 109.189 106.364 109.475C106.433 109.761 106.386 110.062 106.233 110.313C106.08 110.564 105.833 110.744 105.548 110.813C105.262 110.882 104.96 110.835 104.71 110.682L93.921 104.091L85.5237 119.048C85.4262 119.22 85.2846 119.363 85.1135 119.461C84.9425 119.56 84.7482 119.611 84.5508 119.609Z" fill="#323C6B"/>
<path d="M93.551 103.528C93.2571 103.528 92.9752 103.411 92.7674 103.204C92.5596 102.996 92.4429 102.714 92.4429 102.42V88.8347C92.4429 88.5408 92.5596 88.2589 92.7674 88.0511C92.9752 87.8433 93.2571 87.7266 93.551 87.7266C93.8449 87.7266 94.1267 87.8433 94.3345 88.0511C94.5423 88.2589 94.6591 88.5408 94.6591 88.8347V102.418C94.6594 102.564 94.6309 102.708 94.5754 102.843C94.5198 102.977 94.4382 103.1 94.3353 103.203C94.2324 103.306 94.1101 103.388 93.9756 103.444C93.841 103.499 93.6967 103.528 93.551 103.528Z" fill="#323C6B"/>
<path d="M8.86494 36.0532C8.57106 36.0532 8.2892 35.9364 8.08139 35.7286C7.87358 35.5208 7.75684 35.239 7.75684 34.9451V7.75655C7.75684 7.46266 7.87358 7.18081 8.08139 6.973C8.2892 6.76518 8.57106 6.64844 8.86494 6.64844H36.0535C36.3474 6.64844 36.6292 6.76518 36.837 6.973C37.0448 7.18081 37.1616 7.46266 37.1616 7.75655C37.1616 8.05043 37.0448 8.33229 36.837 8.5401C36.6292 8.74791 36.3474 8.86465 36.0535 8.86465H9.97305V34.9451C9.97305 35.239 9.85631 35.5208 9.64849 35.7286C9.44068 35.9364 9.15883 36.0532 8.86494 36.0532Z" fill="#323C6B"/>
<path d="M155.136 36.0532C154.842 36.0532 154.56 35.9364 154.352 35.7286C154.144 35.5208 154.027 35.239 154.027 34.9451V8.86465H127.947C127.653 8.86465 127.371 8.74791 127.163 8.5401C126.956 8.33229 126.839 8.05043 126.839 7.75655C126.839 7.46266 126.956 7.18081 127.163 6.973C127.371 6.76518 127.653 6.64844 127.947 6.64844H155.136C155.429 6.64844 155.711 6.76518 155.919 6.973C156.127 7.18081 156.244 7.46266 156.244 7.75655V34.9451C156.244 35.239 156.127 35.5208 155.919 35.7286C155.711 35.9364 155.429 36.0532 155.136 36.0532Z" fill="#323C6B"/>
<path d="M36.0535 157.814H8.86494C8.57106 157.814 8.2892 157.698 8.08139 157.49C7.87358 157.282 7.75684 157 7.75684 156.706V129.518C7.75684 129.224 7.87358 128.942 8.08139 128.734C8.2892 128.526 8.57106 128.41 8.86494 128.41C9.15883 128.41 9.44068 128.526 9.64849 128.734C9.85631 128.942 9.97305 129.224 9.97305 129.518V155.598H36.0535C36.3474 155.598 36.6292 155.715 36.837 155.923C37.0448 156.131 37.1616 156.412 37.1616 156.706C37.1616 157 37.0448 157.282 36.837 157.49C36.6292 157.698 36.3474 157.814 36.0535 157.814Z" fill="#323C6B"/>
<path d="M155.136 157.814H127.947C127.653 157.814 127.371 157.698 127.163 157.49C126.956 157.282 126.839 157 126.839 156.706C126.839 156.412 126.956 156.131 127.163 155.923C127.371 155.715 127.653 155.598 127.947 155.598H154.027V129.518C154.027 129.224 154.144 128.942 154.352 128.734C154.56 128.526 154.842 128.41 155.136 128.41C155.429 128.41 155.711 128.526 155.919 128.734C156.127 128.942 156.244 129.224 156.244 129.518V156.706C156.244 157 156.127 157.282 155.919 157.49C155.711 157.698 155.429 157.814 155.136 157.814Z" fill="#323C6B"/>
<path d="M33.3166 74.0396H38.3917C39.1875 74.0396 39.9508 74.3557 40.5136 74.9184C41.0763 75.4812 41.3925 76.2445 41.3925 77.0403V99.5393C41.3925 100.335 41.0763 101.098 40.5136 101.661C39.9508 102.224 39.1875 102.54 38.3917 102.54H33.3166C29.7906 102.54 26.9316 98.9808 26.9316 94.5883V82.0002C26.9316 77.5988 29.7906 74.0396 33.3166 74.0396Z" fill="#9297AB"/>
<path d="M38.3916 103.648H33.3165C29.1855 103.648 25.8257 99.5857 25.8257 94.5904V82.0001C25.8257 77.0047 29.1877 72.9424 33.3165 72.9424H38.3938C39.4832 72.9436 40.5277 73.3768 41.298 74.1471C42.0683 74.9174 42.5015 75.9619 42.5027 77.0512V99.5392C42.5015 100.629 42.068 101.674 41.2972 102.444C40.5264 103.214 39.4814 103.647 38.3916 103.648ZM33.3143 75.1475C30.4066 75.1475 28.0397 78.217 28.0397 81.989V94.5882C28.0397 98.3557 30.4066 101.43 33.3143 101.43H38.3916C38.8934 101.429 39.3745 101.229 39.7293 100.875C40.0841 100.52 40.2837 100.039 40.2843 99.537V77.0402C40.2837 76.5384 40.0841 76.0573 39.7293 75.7025C39.3745 75.3477 38.8934 75.1481 38.3916 75.1475H33.3143Z" fill="#323C6B"/>
<path d="M130.684 74.0396H125.609C124.813 74.0396 124.05 74.3557 123.487 74.9184C122.924 75.4812 122.608 76.2445 122.608 77.0403V99.5393C122.608 100.335 122.924 101.098 123.487 101.661C124.05 102.224 124.813 102.54 125.609 102.54H130.684C134.21 102.54 137.069 98.9808 137.069 94.5883V82.0002C137.069 77.5988 134.21 74.0396 130.684 74.0396Z" fill="#9297AB"/>
<path d="M130.684 103.648H125.608C124.519 103.647 123.475 103.213 122.704 102.443C121.934 101.673 121.501 100.628 121.5 99.539V77.04C121.501 75.9506 121.934 74.9062 122.704 74.1359C123.475 73.3656 124.519 72.9323 125.608 72.9312H130.686C134.817 72.9312 138.177 76.9935 138.177 81.9888V94.588C138.177 99.5856 134.815 103.648 130.684 103.648ZM125.606 75.1474C125.104 75.148 124.623 75.3475 124.268 75.7024C123.914 76.0572 123.714 76.5382 123.714 77.04V99.539C123.714 100.041 123.914 100.522 124.268 100.877C124.623 101.232 125.104 101.431 125.606 101.432H130.684C133.593 101.432 135.958 98.3622 135.958 94.5902V81.9999C135.958 78.2323 133.591 75.1584 130.684 75.1584L125.606 75.1474Z" fill="#323C6B"/>
<path d="M127.009 61.5797H36.9778C36.6376 58.4268 36.6547 55.2456 37.0288 52.0965C37.9598 45.7786 40.3617 39.7676 44.0409 34.5478C47.7202 29.328 52.574 25.0453 58.2114 22.0447C65.4916 18.0068 73.6797 15.8882 82.0047 15.8882C90.3297 15.8882 98.5177 18.0068 105.798 22.0447C111.435 25.0453 116.289 29.328 119.968 34.5478C123.648 39.7676 126.05 45.7786 126.981 52.0965C127.347 55.2464 127.357 58.4277 127.009 61.5797Z" fill="#9297AB"/>
<path d="M127.011 61.5884H121.714C121.761 59.759 121.665 57.9287 121.426 56.1143C120.499 49.7975 118.1 43.787 114.424 38.5671C110.748 33.3472 105.896 29.0639 100.261 26.0624C92.9766 22.0287 84.7862 19.9125 76.4592 19.9125C68.1322 19.9125 59.9418 22.0287 52.6571 26.0624C52.0808 26.3949 51.4825 26.7273 50.9062 27.0819C53.1604 25.1628 55.6033 23.4772 58.1976 22.0511C65.4789 18.0066 73.6706 15.8843 81.9998 15.8843C90.3289 15.8843 98.5207 18.0066 105.802 22.0511C111.437 25.0525 116.288 29.3358 119.964 34.5557C123.641 39.7756 126.039 45.7862 126.967 52.103C127.347 55.2525 127.362 58.4355 127.011 61.5884Z" fill="#84879C"/>
<path d="M127.011 62.688H36.9774C36.7111 62.6881 36.4536 62.5923 36.2521 62.4181C36.0507 62.244 35.9187 62.003 35.8804 61.7395C35.5236 58.4726 35.5414 55.1756 35.9335 51.9128C36.8737 45.425 39.3322 39.2508 43.1089 33.8924C46.8856 28.5341 51.8739 24.143 57.668 21.0764C65.1169 16.9578 73.4893 14.7974 82.0009 14.7974C90.5126 14.7974 98.885 16.9578 106.334 21.0764C112.129 24.1431 117.117 28.5345 120.894 33.8932C124.672 39.2519 127.13 45.4267 128.071 51.915C128.457 55.1777 128.469 58.4739 128.108 61.7395C128.07 62.003 127.938 62.244 127.736 62.4181C127.535 62.5923 127.277 62.6881 127.011 62.688ZM37.968 60.4718H126.018C126.243 57.7407 126.198 54.9941 125.883 52.2718C124.991 46.1136 122.657 40.2531 119.072 35.167C115.487 30.0809 110.752 25.913 105.252 23.0022C98.1338 19.0677 90.1333 17.0038 81.9998 17.0038C73.8663 17.0038 65.8658 19.0677 58.7473 23.0022C53.247 25.9137 48.5118 30.0828 44.9272 35.1701C41.3426 40.2574 39.0098 46.1192 38.1187 52.2785C37.8005 54.998 37.7492 57.7423 37.9658 60.4718H37.968Z" fill="#323C6B"/>
<path d="M87.2615 149.22H82.0002C81.7063 149.22 81.4245 149.103 81.2166 148.896C81.0088 148.688 80.8921 148.406 80.8921 148.112V61.2697C80.8918 61.1235 80.9205 60.9788 80.9764 60.8437C81.0323 60.7087 81.1144 60.5861 81.2179 60.4829C81.3163 60.3747 81.4375 60.2897 81.5728 60.2341C81.7081 60.1785 81.8541 60.1538 82.0002 60.1616L127.266 60.4763C127.56 60.4763 127.842 60.593 128.05 60.8008C128.258 61.0086 128.375 61.2905 128.375 61.5844V74.0462C128.375 74.34 128.258 74.6219 128.05 74.8297C127.842 75.0375 127.56 75.1543 127.266 75.1543C126.973 75.1543 126.691 75.0375 126.483 74.8297C126.275 74.6219 126.158 74.34 126.158 74.0462V62.6858L83.1083 62.3866V147.004H87.2615C90.9607 147.019 94.6259 146.298 98.0441 144.883C101.462 143.469 104.565 141.389 107.172 138.764L117.936 128C120.547 125.391 122.617 122.293 124.028 118.882C125.439 115.471 126.163 111.816 126.158 108.125V102.531C126.158 102.237 126.275 101.955 126.483 101.748C126.691 101.54 126.973 101.423 127.266 101.423C127.56 101.423 127.842 101.54 128.05 101.748C128.258 101.955 128.375 102.237 128.375 102.531V108.125C128.38 112.106 127.6 116.049 126.079 119.728C124.558 123.407 122.325 126.75 119.51 129.565L108.743 140.329C105.931 143.161 102.583 145.405 98.8953 146.932C95.2074 148.458 91.2528 149.236 87.2615 149.22Z" fill="#323C6B"/>
<path d="M81.9998 149.22H76.7385C72.7476 149.235 68.7934 148.457 65.1059 146.931C61.4184 145.404 58.0712 143.16 55.2589 140.328L44.497 129.566C41.6809 126.752 39.4482 123.409 37.927 119.729C36.4058 116.05 35.6259 112.106 35.6321 108.125V102.531C35.6321 102.237 35.7489 101.955 35.9567 101.747C36.1645 101.539 36.4464 101.423 36.7402 101.423C37.0341 101.423 37.316 101.539 37.5238 101.747C37.7316 101.955 37.8483 102.237 37.8483 102.531V108.125C37.8439 111.816 38.5684 115.472 39.9801 118.883C41.3918 122.294 43.463 125.393 46.0749 128.002L56.8347 138.762C59.4415 141.386 62.5442 143.467 65.9623 144.882C69.3805 146.297 73.0458 147.018 76.7452 147.004H80.8917V62.3863L37.8417 62.6855V74.0458C37.8417 74.3397 37.725 74.6216 37.5171 74.8294C37.3093 75.0372 37.0275 75.1539 36.7336 75.1539C36.4397 75.1539 36.1579 75.0372 35.95 74.8294C35.7422 74.6216 35.6255 74.3397 35.6255 74.0458V61.584C35.6255 61.2902 35.7422 61.0083 35.95 60.8005C36.1579 60.5927 36.4397 60.4759 36.7336 60.4759L81.9998 60.1612C82.1461 60.1592 82.2914 60.1866 82.4269 60.2418C82.5624 60.297 82.6855 60.3789 82.7888 60.4826C82.8923 60.5858 82.9744 60.7084 83.0303 60.8434C83.0862 60.9784 83.1148 61.1232 83.1146 61.2693V148.112C83.1146 148.258 83.0857 148.403 83.0296 148.537C82.9735 148.672 82.8913 148.795 82.7877 148.898C82.6841 149.001 82.5611 149.082 82.4259 149.137C82.2907 149.193 82.1459 149.221 81.9998 149.22Z" fill="#323C6B"/>
<path d="M51.915 54.5192C51.9186 54.1645 52.0622 53.8257 52.3146 53.5765C52.5671 53.3274 52.9078 53.1883 53.2625 53.1895H67.5948C67.9513 53.1895 68.2931 53.3311 68.5452 53.5831C68.7973 53.8352 68.9389 54.1771 68.9389 54.5336C68.9389 54.8901 68.7973 55.232 68.5452 55.484C68.2931 55.7361 67.9513 55.8777 67.5948 55.8777L53.2581 55.8644C53.0815 55.8644 52.9067 55.8296 52.7436 55.762C52.5805 55.6944 52.4324 55.5952 52.3076 55.4703C52.1829 55.3453 52.084 55.197 52.0166 55.0338C51.9493 54.8706 51.9147 54.6957 51.915 54.5192Z" fill="white"/>
<path d="M46.9215 54.5011C46.925 54.1465 47.0686 53.8076 47.3211 53.5585C47.5735 53.3094 47.9142 53.1702 48.2689 53.1714H49.0202C49.3767 53.1714 49.7186 53.313 49.9707 53.5651C50.2227 53.8172 50.3643 54.159 50.3643 54.5155C50.3643 54.872 50.2227 55.2139 49.9707 55.466C49.7186 55.718 49.3767 55.8597 49.0202 55.8597H48.2689C48.0909 55.86 47.9147 55.8249 47.7503 55.7566C47.586 55.6883 47.4368 55.5881 47.3115 55.4617C47.1862 55.3354 47.0872 55.1854 47.0202 55.0205C46.9533 54.8556 46.9197 54.6791 46.9215 54.5011Z" fill="white"/>
<path d="M43.6328 25.9474C43.4141 25.9474 43.2002 25.8826 43.0183 25.7613C42.8363 25.6399 42.6943 25.4674 42.6101 25.2655C42.526 25.0636 42.5035 24.8413 42.5455 24.6267C42.5875 24.412 42.692 24.2146 42.846 24.0592L43.2516 23.6381C43.4887 23.3877 43.7281 23.1373 43.9807 22.9001C44.0867 22.8002 44.2113 22.722 44.3474 22.6702C44.4835 22.6184 44.6285 22.5939 44.7741 22.5981C44.9197 22.6023 45.0631 22.6352 45.196 22.6948C45.3289 22.7544 45.4487 22.8396 45.5487 22.9456C45.6487 23.0515 45.7268 23.1761 45.7786 23.3122C45.8305 23.4484 45.855 23.5934 45.8507 23.739C45.8465 23.8846 45.8137 24.0279 45.754 24.1608C45.6944 24.2937 45.6092 24.4136 45.5033 24.5135C45.2817 24.7352 45.06 24.9457 44.8584 25.1673L44.4151 25.6217C44.2078 25.8296 43.9264 25.9468 43.6328 25.9474Z" fill="#323C6B"/>
<path d="M49.4504 20.8966C49.2178 20.8966 48.9911 20.8234 48.8025 20.6875C48.6138 20.5515 48.4727 20.3596 48.3992 20.1389C48.3256 19.9183 48.3233 19.6801 48.3927 19.4581C48.462 19.2361 48.5995 19.0416 48.7855 18.902C50.5912 17.5772 52.4763 16.3641 54.4302 15.2696C57.761 13.4174 61.2728 11.9113 64.9107 10.7752C65.1911 10.687 65.495 10.7138 65.7556 10.8497C66.0162 10.9856 66.2121 11.2195 66.3003 11.4999C66.3884 11.7802 66.3616 12.0841 66.2257 12.3447C66.0898 12.6053 65.8559 12.8013 65.5756 12.8894C62.0833 13.9808 58.7119 15.4266 55.514 17.2044C53.6431 18.2525 51.838 19.4137 50.1086 20.6816C49.9178 20.8218 49.6871 20.8971 49.4504 20.8966Z" fill="#323C6B"/>
<path d="M126.825 130.619C126.62 130.619 126.418 130.562 126.243 130.454C126.068 130.345 125.926 130.191 125.834 130.007C125.742 129.822 125.703 129.616 125.722 129.411C125.74 129.207 125.815 129.011 125.939 128.846C129.213 124.457 131.39 119.348 132.288 113.947C132.341 113.66 132.504 113.407 132.743 113.24C132.981 113.073 133.275 113.007 133.562 113.055C133.849 113.103 134.105 113.262 134.276 113.498C134.446 113.734 134.517 114.027 134.474 114.314C133.516 120.061 131.199 125.495 127.716 130.165C127.614 130.305 127.48 130.419 127.325 130.498C127.17 130.577 126.999 130.619 126.825 130.619Z" fill="#323C6B"/>
<path d="M122.408 135.606C122.189 135.606 121.974 135.542 121.792 135.42C121.609 135.298 121.467 135.125 121.383 134.922C121.299 134.719 121.277 134.496 121.32 134.281C121.363 134.066 121.469 133.868 121.624 133.713L122.041 133.299C122.25 133.097 122.529 132.985 122.82 132.988C123.111 132.99 123.388 133.107 123.594 133.312C123.799 133.518 123.916 133.796 123.918 134.086C123.921 134.377 123.809 134.657 123.607 134.866L123.193 135.282C123.09 135.385 122.968 135.467 122.833 135.522C122.698 135.578 122.554 135.606 122.408 135.606Z" fill="#323C6B"/>
</svg>
