<svg width="164" height="164" viewBox="0 0 164 164" fill="none" xmlns="http://www.w3.org/2000/svg">
<path d="M52.9789 38.8569H142.049L149.604 157.351H45.4238L52.9789 38.8569Z" fill="#27CCBC"/>
<path d="M149.595 157.351H45.4326L45.898 150.148H141.151L134.059 38.8501H142.06L149.595 157.351Z" fill="#21B3A9"/>
<path d="M14.3965 157.351L21.9516 38.8569H52.9786L45.4235 157.351L31.0092 142.937L14.3965 157.351Z" fill="#21B3A9"/>
<path d="M45.4327 158.459C45.2871 158.46 45.1429 158.431 45.0083 158.376C44.8737 158.32 44.7513 158.239 44.6482 158.136L30.9631 144.453L15.1304 158.193C14.9651 158.337 14.7607 158.429 14.5433 158.457C14.3259 158.484 14.1051 158.447 13.9089 158.349C13.7127 158.252 13.5499 158.098 13.4411 157.908C13.3323 157.717 13.2824 157.499 13.2976 157.28L20.846 38.7838C20.8641 38.5023 20.9888 38.2384 21.1946 38.0457C21.4005 37.853 21.6721 37.746 21.9542 37.7466H52.9812C53.1329 37.7463 53.283 37.7771 53.4223 37.8372C53.5616 37.8972 53.687 37.9853 53.7909 38.0958C53.8948 38.2063 53.9749 38.337 54.0262 38.4797C54.0775 38.6225 54.099 38.7742 54.0893 38.9256L46.5409 157.422C46.5228 157.704 46.3981 157.968 46.1923 158.16C45.9864 158.353 45.7147 158.46 45.4327 158.459ZM31.0273 141.838C31.173 141.838 31.3172 141.866 31.4518 141.922C31.5864 141.977 31.7088 142.059 31.8119 142.161L44.4931 154.843L51.8066 39.9739H22.9958L15.6823 154.787L30.2938 142.108C30.4927 141.936 30.7465 141.84 31.0096 141.838H31.0273Z" fill="#323C6B"/>
<path d="M14.3965 157.351H45.4235L31.0092 142.937L14.3965 157.351Z" fill="#21B3A9"/>
<path d="M45.4325 158.459H14.4055C14.1799 158.459 13.9598 158.39 13.7745 158.262C13.5892 158.133 13.4476 157.951 13.3686 157.74C13.2895 157.528 13.2769 157.298 13.3323 157.079C13.3877 156.861 13.5085 156.664 13.6786 156.516L30.3002 142.11C30.512 141.926 30.7858 141.829 31.0664 141.839C31.347 141.849 31.6133 141.965 31.8116 142.164L46.217 156.569C46.3724 156.724 46.4783 156.922 46.5212 157.137C46.5641 157.352 46.5422 157.575 46.4581 157.778C46.3741 157.981 46.2318 158.154 46.0492 158.276C45.8666 158.397 45.652 158.462 45.4325 158.462V158.459ZM17.373 156.243H42.7487L30.9562 144.451L17.373 156.243Z" fill="#323C6B"/>
<path d="M92.6377 39.965H39.1604C38.8665 39.965 38.5846 39.8483 38.3768 39.6405C38.169 39.4326 38.0522 39.1508 38.0522 38.8569V33.3895C38.0522 26.0035 40.9863 18.92 46.209 13.6973C51.4317 8.47461 58.5152 5.54053 65.9012 5.54053C73.2872 5.54053 80.3707 8.47461 85.5934 13.6973C90.8161 18.92 93.7502 26.0035 93.7502 33.3895V38.8569C93.7502 39.0028 93.7214 39.1473 93.6654 39.282C93.6095 39.4167 93.5274 39.5391 93.4241 39.642C93.3207 39.745 93.198 39.8265 93.0631 39.8819C92.9281 39.9374 92.7835 39.9656 92.6377 39.965ZM40.264 37.7488H91.5295V33.3895C91.5295 26.5913 88.829 20.0715 84.0219 15.2644C79.2148 10.4573 72.695 7.75674 65.8968 7.75674C59.0986 7.75674 52.5788 10.4573 47.7717 15.2644C42.9646 20.0715 40.264 26.5913 40.264 33.3895V37.7488Z" fill="#323C6B"/>
<path d="M124.254 59.9464C123.961 59.9464 123.679 59.8297 123.471 59.6219C123.263 59.4141 123.146 59.1322 123.146 58.8383V33.3895C123.146 26.5913 120.446 20.0715 115.639 15.2644C110.832 10.4573 104.312 7.75674 97.5135 7.75674C90.7153 7.75674 84.1955 10.4573 79.3884 15.2644C74.5814 20.0715 71.8808 26.5913 71.8808 33.3895V58.8383C71.8808 59.1322 71.764 59.4141 71.5562 59.6219C71.3484 59.8297 71.0665 59.9464 70.7727 59.9464C70.4788 59.9464 70.1969 59.8297 69.9891 59.6219C69.7813 59.4141 69.6646 59.1322 69.6646 58.8383V33.3895C69.6646 26.0035 72.5986 18.92 77.8213 13.6973C83.044 8.47461 90.1275 5.54053 97.5135 5.54053C104.9 5.54053 111.983 8.47461 117.206 13.6973C122.428 18.92 125.363 26.0035 125.363 33.3895V58.8383C125.363 59.1322 125.246 59.4141 125.038 59.6219C124.83 59.8297 124.548 59.9464 124.254 59.9464Z" fill="#323C6B"/>
<path d="M112.285 83.7729H82.7427C79.6191 83.7729 77.0869 86.3051 77.0869 89.4287V118.953C77.0869 122.077 79.6191 124.609 82.7427 124.609H112.285C115.408 124.609 117.941 122.077 117.941 118.953V89.4287C117.941 86.3051 115.408 83.7729 112.285 83.7729Z" fill="#FCD462"/>
<path d="M112.285 125.717H82.7446C80.9511 125.715 79.2314 125.002 77.963 123.734C76.6945 122.466 75.9809 120.747 75.9785 118.953V89.4289C75.9809 87.6354 76.6945 85.916 77.963 84.6479C79.2314 83.3799 80.9511 82.6668 82.7446 82.665H112.285C114.078 82.6668 115.797 83.38 117.065 84.6481C118.333 85.9162 119.047 87.6356 119.048 89.4289V118.953C119.047 120.747 118.333 122.466 117.065 123.734C115.797 125.002 114.078 125.715 112.285 125.717ZM82.7446 84.8813C81.5387 84.8824 80.3824 85.3619 79.5294 86.2144C78.6765 87.0669 78.1965 88.223 78.1947 89.4289V118.953C78.1965 120.159 78.6765 121.315 79.5294 122.168C80.3824 123.02 81.5387 123.5 82.7446 123.501H112.285C113.49 123.5 114.646 123.02 115.499 122.168C116.352 121.315 116.831 120.159 116.832 118.953V89.4289C116.831 88.2232 116.352 87.0671 115.499 86.2145C114.646 85.3619 113.49 84.8824 112.285 84.8813H82.7446Z" fill="#323C6B"/>
<path d="M108.44 90.4214H86.5876C85.0124 90.4214 83.7354 91.6984 83.7354 93.2737V115.108C83.7354 116.683 85.0124 117.96 86.5876 117.96H108.44C110.015 117.96 111.292 116.683 111.292 115.108V93.2737C111.292 91.6984 110.015 90.4214 108.44 90.4214Z" fill="#FA9825"/>
<path d="M126.103 90.2553H117.943C117.649 90.2553 117.367 90.1385 117.159 89.9307C116.951 89.7229 116.834 89.4411 116.834 89.1472C116.834 88.8533 116.951 88.5714 117.159 88.3636C117.367 88.1558 117.649 88.0391 117.943 88.0391H126.103C126.397 88.0391 126.678 88.1558 126.886 88.3636C127.094 88.5714 127.211 88.8533 127.211 89.1472C127.211 89.4411 127.094 89.7229 126.886 89.9307C126.678 90.1385 126.397 90.2553 126.103 90.2553Z" fill="#323C6B"/>
<path d="M129.445 100.149H117.941C117.647 100.149 117.365 100.032 117.157 99.8243C116.949 99.6165 116.833 99.3346 116.833 99.0407C116.833 98.7468 116.949 98.465 117.157 98.2572C117.365 98.0494 117.647 97.9326 117.941 97.9326H129.445C129.739 97.9326 130.021 98.0494 130.229 98.2572C130.436 98.465 130.553 98.7468 130.553 99.0407C130.553 99.3346 130.436 99.6165 130.229 99.8243C130.021 100.032 129.739 100.149 129.445 100.149Z" fill="#323C6B"/>
<path d="M128.842 110.035H117.941C117.647 110.035 117.365 109.918 117.157 109.711C116.949 109.503 116.833 109.221 116.833 108.927C116.833 108.633 116.949 108.351 117.157 108.143C117.365 107.936 117.647 107.819 117.941 107.819H128.842C129.136 107.819 129.418 107.936 129.626 108.143C129.834 108.351 129.95 108.633 129.95 108.927C129.95 109.221 129.834 109.503 129.626 109.711C129.418 109.918 129.136 110.035 128.842 110.035Z" fill="#323C6B"/>
<path d="M126.103 120.34H117.943C117.649 120.34 117.367 120.223 117.159 120.016C116.951 119.808 116.834 119.526 116.834 119.232C116.834 118.938 116.951 118.656 117.159 118.449C117.367 118.241 117.649 118.124 117.943 118.124H126.103C126.397 118.124 126.678 118.241 126.886 118.449C127.094 118.656 127.211 118.938 127.211 119.232C127.211 119.526 127.094 119.808 126.886 120.016C126.678 120.223 126.397 120.34 126.103 120.34Z" fill="#323C6B"/>
<path d="M77.0868 90.2553H68.9245C68.6306 90.2553 68.3488 90.1385 68.141 89.9307C67.9332 89.7229 67.8164 89.4411 67.8164 89.1472C67.8164 88.8533 67.9332 88.5714 68.141 88.3636C68.3488 88.1558 68.6306 88.0391 68.9245 88.0391H77.0891C77.3829 88.0391 77.6648 88.1558 77.8726 88.3636C78.0804 88.5714 78.1972 88.8533 78.1972 89.1472C78.1972 89.4411 78.0804 89.7229 77.8726 89.9307C77.6648 90.1385 77.3829 90.2553 77.0891 90.2553H77.0868Z" fill="#323C6B"/>
<path d="M77.0866 100.149H65.5822C65.2883 100.149 65.0065 100.032 64.7987 99.8243C64.5909 99.6165 64.4741 99.3346 64.4741 99.0407C64.4741 98.7468 64.5909 98.465 64.7987 98.2572C65.0065 98.0494 65.2883 97.9326 65.5822 97.9326H77.0866C77.3805 97.9326 77.6624 98.0494 77.8702 98.2572C78.078 98.465 78.1947 98.7468 78.1947 99.0407C78.1947 99.3346 78.078 99.6165 77.8702 99.8243C77.6624 100.032 77.3805 100.149 77.0866 100.149Z" fill="#323C6B"/>
<path d="M77.0868 110.035H66.1853C65.8914 110.035 65.6095 109.918 65.4017 109.711C65.1939 109.503 65.0771 109.221 65.0771 108.927C65.0771 108.633 65.1939 108.351 65.4017 108.143C65.6095 107.936 65.8914 107.819 66.1853 107.819H77.0868C77.3807 107.819 77.6626 107.936 77.8704 108.143C78.0782 108.351 78.1949 108.633 78.1949 108.927C78.1949 109.221 78.0782 109.503 77.8704 109.711C77.6626 109.918 77.3807 110.035 77.0868 110.035Z" fill="#323C6B"/>
<path d="M77.0868 120.34H68.9245C68.6306 120.34 68.3488 120.223 68.141 120.016C67.9332 119.808 67.8164 119.526 67.8164 119.232C67.8164 118.938 67.9332 118.656 68.141 118.449C68.3488 118.241 68.6306 118.124 68.9245 118.124H77.0891C77.3829 118.124 77.6648 118.241 77.8726 118.449C78.0804 118.656 78.1972 118.938 78.1972 119.232C78.1972 119.526 78.0804 119.808 77.8726 120.016C77.6648 120.223 77.3829 120.34 77.0891 120.34H77.0868Z" fill="#323C6B"/>
<path d="M82.4699 84.8808C82.176 84.8808 81.8942 84.7641 81.6864 84.5563C81.4786 84.3485 81.3618 84.0666 81.3618 83.7727V75.5993C81.3618 75.3054 81.4786 75.0236 81.6864 74.8158C81.8942 74.608 82.176 74.4912 82.4699 74.4912C82.7638 74.4912 83.0457 74.608 83.2535 74.8158C83.4613 75.0236 83.578 75.3054 83.578 75.5993V83.7727C83.578 84.0666 83.4613 84.3485 83.2535 84.5563C83.0457 84.7641 82.7638 84.8808 82.4699 84.8808Z" fill="#323C6B"/>
<path d="M92.3654 84.8812C92.0715 84.8812 91.7897 84.7644 91.5819 84.5566C91.3741 84.3488 91.2573 84.0669 91.2573 83.7731V72.2487C91.2573 71.9548 91.3741 71.673 91.5819 71.4652C91.7897 71.2574 92.0715 71.1406 92.3654 71.1406C92.6593 71.1406 92.9412 71.2574 93.149 71.4652C93.3568 71.673 93.4735 71.9548 93.4735 72.2487V83.7731C93.4735 84.0669 93.3568 84.3488 93.149 84.5566C92.9412 84.7644 92.6593 84.8812 92.3654 84.8812Z" fill="#323C6B"/>
<path d="M102.252 84.881C101.958 84.881 101.676 84.7643 101.468 84.5565C101.26 84.3487 101.144 84.0668 101.144 83.7729V72.8625C101.144 72.5686 101.26 72.2868 101.468 72.079C101.676 71.8711 101.958 71.7544 102.252 71.7544C102.546 71.7544 102.827 71.8711 103.035 72.079C103.243 72.2868 103.36 72.5686 103.36 72.8625V83.7729C103.36 84.0668 103.243 84.3487 103.035 84.5565C102.827 84.7643 102.546 84.881 102.252 84.881Z" fill="#323C6B"/>
<path d="M112.557 84.8808C112.263 84.8808 111.982 84.7641 111.774 84.5563C111.566 84.3485 111.449 84.0666 111.449 83.7727V75.5993C111.449 75.3054 111.566 75.0236 111.774 74.8158C111.982 74.608 112.263 74.4912 112.557 74.4912C112.851 74.4912 113.133 74.608 113.341 74.8158C113.549 75.0236 113.665 75.3054 113.665 75.5993V83.7727C113.665 84.0666 113.549 84.3485 113.341 84.5563C113.133 84.7641 112.851 84.8808 112.557 84.8808Z" fill="#323C6B"/>
<path d="M82.4699 133.891C82.176 133.891 81.8942 133.774 81.6864 133.566C81.4786 133.358 81.3618 133.076 81.3618 132.782V124.618C81.3618 124.324 81.4786 124.042 81.6864 123.834C81.8942 123.627 82.176 123.51 82.4699 123.51C82.7638 123.51 83.0457 123.627 83.2535 123.834C83.4613 124.042 83.578 124.324 83.578 124.618V132.782C83.578 133.076 83.4613 133.358 83.2535 133.566C83.0457 133.774 82.7638 133.891 82.4699 133.891Z" fill="#323C6B"/>
<path d="M92.3654 137.231C92.0715 137.231 91.7897 137.114 91.5819 136.906C91.3741 136.698 91.2573 136.416 91.2573 136.123V124.616C91.2573 124.322 91.3741 124.04 91.5819 123.832C91.7897 123.625 92.0715 123.508 92.3654 123.508C92.6593 123.508 92.9412 123.625 93.149 123.832C93.3568 124.04 93.4735 124.322 93.4735 124.616V136.12C93.4738 136.266 93.4454 136.41 93.3898 136.545C93.3343 136.68 93.2527 136.802 93.1498 136.905C93.0468 137.008 92.9246 137.09 92.79 137.146C92.6554 137.202 92.5111 137.231 92.3654 137.231Z" fill="#323C6B"/>
<path d="M102.252 136.626C101.958 136.626 101.676 136.509 101.468 136.301C101.26 136.093 101.144 135.811 101.144 135.517V124.616C101.144 124.322 101.26 124.04 101.468 123.832C101.676 123.625 101.958 123.508 102.252 123.508C102.546 123.508 102.827 123.625 103.035 123.832C103.243 124.04 103.36 124.322 103.36 124.616V135.517C103.36 135.811 103.243 136.093 103.035 136.301C102.827 136.509 102.546 136.626 102.252 136.626Z" fill="#323C6B"/>
<path d="M112.557 133.891C112.263 133.891 111.982 133.774 111.774 133.566C111.566 133.358 111.449 133.076 111.449 132.782V124.618C111.449 124.324 111.566 124.042 111.774 123.834C111.982 123.627 112.263 123.51 112.557 123.51C112.851 123.51 113.133 123.627 113.341 123.834C113.549 124.042 113.665 124.324 113.665 124.618V132.782C113.665 133.076 113.549 133.358 113.341 133.566C113.133 133.774 112.851 133.891 112.557 133.891Z" fill="#323C6B"/>
<path d="M109.144 95.663H105.133C104.839 95.663 104.557 95.5462 104.349 95.3384C104.142 95.1306 104.025 94.8488 104.025 94.5549C104.025 94.261 104.142 93.9791 104.349 93.7713C104.557 93.5635 104.839 93.4468 105.133 93.4468H109.144C109.438 93.4468 109.72 93.5635 109.928 93.7713C110.136 93.9791 110.252 94.261 110.252 94.5549C110.252 94.8488 110.136 95.1306 109.928 95.3384C109.72 95.5462 109.438 95.663 109.144 95.663Z" fill="#323C6B"/>
<path d="M89.8944 95.663H85.883C85.5891 95.663 85.3073 95.5462 85.0995 95.3384C84.8916 95.1306 84.7749 94.8488 84.7749 94.5549C84.7749 94.261 84.8916 93.9791 85.0995 93.7713C85.3073 93.5635 85.5891 93.4468 85.883 93.4468H89.8944C90.1883 93.4468 90.4701 93.5635 90.6779 93.7713C90.8857 93.9791 91.0025 94.261 91.0025 94.5549C91.0025 94.8488 90.8857 95.1306 90.6779 95.3384C90.4701 95.5462 90.1883 95.663 89.8944 95.663Z" fill="#323C6B"/>
<path d="M109.144 114.935H105.133C104.839 114.935 104.557 114.819 104.349 114.611C104.142 114.403 104.025 114.121 104.025 113.827C104.025 113.533 104.142 113.252 104.349 113.044C104.557 112.836 104.839 112.719 105.133 112.719H109.144C109.438 112.719 109.72 112.836 109.928 113.044C110.136 113.252 110.252 113.533 110.252 113.827C110.252 114.121 110.136 114.403 109.928 114.611C109.72 114.819 109.438 114.935 109.144 114.935Z" fill="#323C6B"/>
<path d="M89.8944 114.935H85.883C85.5891 114.935 85.3073 114.819 85.0995 114.611C84.8916 114.403 84.7749 114.121 84.7749 113.827C84.7749 113.533 84.8916 113.252 85.0995 113.044C85.3073 112.836 85.5891 112.719 85.883 112.719H89.8944C90.1883 112.719 90.4701 112.836 90.6779 113.044C90.8857 113.252 91.0025 113.533 91.0025 113.827C91.0025 114.121 90.8857 114.403 90.6779 114.611C90.4701 114.819 90.1883 114.935 89.8944 114.935Z" fill="#323C6B"/>
<path d="M149.595 158.459H45.4326C45.281 158.46 45.1308 158.429 44.9915 158.369C44.8523 158.309 44.7268 158.221 44.6229 158.11C44.519 158 44.439 157.869 44.3876 157.726C44.3363 157.584 44.3148 157.432 44.3245 157.28L51.873 38.7838C51.891 38.5023 52.0157 38.2384 52.2216 38.0457C52.4275 37.853 52.6991 37.746 52.9811 37.7466H142.049C142.331 37.746 142.602 37.853 142.808 38.0457C143.014 38.2384 143.139 38.5023 143.157 38.7838L150.703 157.28C150.713 157.432 150.691 157.584 150.64 157.726C150.589 157.869 150.508 158 150.405 158.11C150.301 158.221 150.175 158.309 150.036 158.369C149.897 158.429 149.746 158.46 149.595 158.459ZM46.5962 156.243H148.422L141.009 39.965H54.0183L46.5962 156.243Z" fill="#323C6B"/>
<path d="M23.556 108.373C23.3802 108.359 23.2091 108.309 23.0523 108.228C22.8956 108.147 22.7563 108.036 22.6425 107.901C22.5287 107.767 22.4426 107.611 22.389 107.443C22.3355 107.274 22.3156 107.097 22.3305 106.922L23.7134 90.2646C23.7428 89.9096 23.912 89.5808 24.1838 89.3505C24.4556 89.1203 24.8078 89.0074 25.1628 89.0368C25.5178 89.0662 25.8466 89.2354 26.0769 89.5072C26.3071 89.7791 26.42 90.1312 26.3906 90.4862L25.0077 107.143C24.9934 107.319 24.9445 107.491 24.8638 107.648C24.7831 107.806 24.6721 107.945 24.5372 108.06C24.4024 108.174 24.2463 108.26 24.0779 108.314C23.9095 108.368 23.7322 108.388 23.556 108.373Z" fill="white"/>
<path d="M23.0775 114.029C22.7237 113.999 22.3961 113.83 22.1665 113.559C21.9368 113.289 21.8237 112.938 21.8519 112.584L21.9162 111.835C21.9456 111.48 22.1148 111.151 22.3866 110.921C22.6584 110.691 23.0106 110.578 23.3656 110.607C23.7206 110.637 24.0494 110.806 24.2797 111.078C24.5099 111.349 24.6228 111.702 24.5934 112.057L24.5313 112.806C24.5003 113.16 24.3298 113.489 24.0573 113.718C23.7848 113.947 23.4324 114.059 23.0775 114.029Z" fill="white"/>
</svg>
