<svg width="164" height="167" viewBox="0 0 164 167" fill="none" xmlns="http://www.w3.org/2000/svg">
<g filter="url(#filter0_d)">
<path d="M113.652 39.7324H47.2385C42.3058 39.7324 38.3071 43.7311 38.3071 48.6638V115.077C38.3071 120.01 42.3058 124.008 47.2385 124.008H113.652C118.584 124.008 122.583 120.01 122.583 115.077V48.6638C122.583 43.7311 118.584 39.7324 113.652 39.7324Z" fill="#27CCBC"/>
<path d="M122.579 48.6682V115.088C122.576 117.029 121.941 118.917 120.769 120.465C119.597 122.012 117.953 123.136 116.085 123.665C116.283 122.943 116.38 122.197 116.373 121.449V55.0287C116.373 52.6602 115.432 50.3888 113.757 48.714C112.082 47.0391 109.811 46.098 107.442 46.0974H41.0221C40.2053 46.0944 39.3921 46.2063 38.6064 46.4298C39.0975 44.5118 40.214 42.8122 41.7794 41.6C43.3449 40.3878 45.2698 39.7322 47.2497 39.7368H113.648C114.821 39.7354 115.983 39.9654 117.067 40.4137C118.151 40.8621 119.137 41.5199 119.966 42.3495C120.796 43.1792 121.454 44.1643 121.902 45.2486C122.35 46.3328 122.58 47.4949 122.579 48.6682Z" fill="#21B3A9"/>
<path d="M56.2763 51.1946H104.605C106.329 51.1946 107.983 51.8794 109.202 53.0984C110.421 54.3174 111.105 55.9708 111.105 57.6947V106.037C111.105 107.761 110.421 109.414 109.202 110.633C107.983 111.852 106.329 112.537 104.605 112.537H56.2763C54.5529 112.537 52.9001 111.853 51.6815 110.634C50.4629 109.415 49.7783 107.763 49.7783 106.039V57.7014C49.7772 56.8473 49.9444 56.0014 50.2704 55.212C50.5964 54.4226 51.0749 53.7052 51.6784 53.1009C52.2819 52.4966 52.9986 52.0172 53.7876 51.6901C54.5765 51.3629 55.4222 51.1946 56.2763 51.1946Z" fill="#FCD462"/>
<path d="M111.122 57.7103V106.046C111.121 107.724 110.469 109.336 109.303 110.543C108.138 111.751 106.549 112.458 104.872 112.517C104.89 112.4 104.898 112.281 104.894 112.163V63.827C104.895 62.9741 104.727 62.1295 104.401 61.3414C104.075 60.5533 103.596 59.8372 102.993 59.2341C102.39 58.631 101.674 58.1527 100.886 57.8266C100.098 57.5005 99.2534 57.3329 98.4005 57.3335H50.0648C49.9756 57.3299 49.8862 57.3373 49.7988 57.3557C49.8802 55.6943 50.5976 54.1278 51.8023 52.9808C53.007 51.8339 54.6068 51.1943 56.2702 51.1946H104.606C106.333 51.1975 107.989 51.8849 109.21 53.1062C110.431 54.3275 111.119 55.9831 111.122 57.7103Z" fill="#F7BE56"/>
<path d="M23.6118 56.2209H38.3075V58.4372H23.6118V56.2209Z" fill="#323C6B"/>
<path d="M21.7188 80.7612H38.3071V82.9774H21.7188V80.7612Z" fill="#323C6B"/>
<path d="M38.3076 107.52H21.163L15.0063 99.1069L16.7948 97.7971L22.2888 105.303H38.3076V107.52Z" fill="#323C6B"/>
<path d="M122.585 56.2209H135.457V58.4372H122.585V56.2209Z" fill="#323C6B"/>
<path d="M145.67 87.186L138.85 82.9774H122.585V80.7612H139.48L146.835 85.3023L145.67 87.186Z" fill="#323C6B"/>
<path d="M122.583 105.297H139.172V107.513H122.583V105.297Z" fill="#323C6B"/>
<path d="M54.7983 124.008H57.0146V138.952H54.7983V124.008Z" fill="#323C6B"/>
<path d="M79.3384 124.008H81.5546V140.597H79.3384V124.008Z" fill="#323C6B"/>
<path d="M99.0644 147.6L97.5596 145.975L103.878 140.107V124.008H106.094V141.073L99.0644 147.6Z" fill="#323C6B"/>
<path d="M57.0148 39.7322H54.7986V23.6203L48.8325 17.8537L50.3728 16.2603L57.0148 22.6806V39.7322Z" fill="#323C6B"/>
<path d="M79.3384 23.144H81.5546V39.7324H79.3384V23.144Z" fill="#323C6B"/>
<path d="M103.878 26.26H106.095V39.7324H103.878V26.26Z" fill="#323C6B"/>
<path d="M67.0914 65.2986C65.3571 65.7021 63.8028 66.6628 62.6665 68.0337C61.5302 69.4046 60.8744 71.1101 60.7996 72.8892C60.7908 73.2419 60.8236 73.5945 60.8971 73.9396C59.8565 74.6766 59.005 75.6493 58.4122 76.7782C57.8194 77.9072 57.5022 79.1604 57.4863 80.4354C57.4957 81.5502 57.7415 82.6504 58.2076 83.6632C58.6737 84.676 59.3494 85.5783 60.1901 86.3106C59.5144 87.4688 59.1587 88.7859 59.1596 90.1269C59.2019 91.7192 59.7109 93.264 60.6234 94.5697C61.5358 95.8753 62.8116 96.8843 64.2923 97.4714C64.632 99.7982 65.8249 101.915 67.6391 103.411C69.4533 104.907 71.7591 105.675 74.108 105.565H74.1811C75.7918 105.596 77.3504 104.994 78.5222 103.888C79.694 102.783 80.3856 101.262 80.4485 99.6522V61.5C80.0385 59.2107 78.0949 58.1513 75.4975 58.1757C73.5436 58.383 71.6972 59.173 70.1981 60.4433C68.699 61.7135 67.6166 63.4052 67.0914 65.2986Z" fill="#FA9825"/>
<path d="M74.1832 106.673C71.6605 106.769 69.1843 105.975 67.1887 104.428C65.193 102.882 63.8052 100.683 63.2684 98.216C61.7376 97.4802 60.4401 96.3355 59.5194 94.9082C58.5987 93.481 58.0906 91.827 58.0514 90.129C58.0526 88.8872 58.3193 87.6601 58.8337 86.5299C57.2669 84.8867 56.389 82.7057 56.3804 80.4353C56.3886 79.1006 56.6907 77.7842 57.2653 76.5796C57.8398 75.3749 58.6727 74.3116 59.7047 73.4653C59.687 73.2547 59.6847 73.0575 59.6847 72.8868C59.7569 70.9639 60.4281 69.1115 61.6047 67.5888C62.7813 66.0661 64.4044 64.9492 66.247 64.3943C66.8753 62.4013 68.0825 60.6403 69.7148 59.3356C71.3471 58.0308 73.3308 57.2413 75.4132 57.0675C76.7779 56.8812 78.1628 57.2127 79.2954 57.9965C80.4279 58.7804 81.2259 59.9599 81.5322 61.3027L81.5499 99.6432C81.4919 101.547 80.686 103.352 79.3067 104.666C77.9274 105.981 76.0858 106.698 74.181 106.664L74.1832 106.673ZM75.5861 59.2837H75.5063C72.1355 59.5053 69.6333 61.6706 68.1307 65.6886L67.9313 66.216L67.3883 66.3667C65.8919 66.7134 64.5485 67.5365 63.5601 68.7123C62.5717 69.8882 61.9918 71.3531 61.9076 72.8868C61.8997 73.1522 61.922 73.4177 61.9741 73.678L62.147 74.3939L61.553 74.8371C60.652 75.4707 59.914 76.3088 59.3993 77.2826C58.8847 78.2564 58.608 79.3384 58.5922 80.4397C58.6028 81.3993 58.8167 82.3458 59.2197 83.2167C59.6227 84.0877 60.2057 84.8634 60.9303 85.4927L61.5951 86.0955L61.1519 86.8712C60.5704 87.8591 60.2642 88.9848 60.2654 90.1312C60.3132 91.506 60.7612 92.8371 61.5544 93.961C62.3477 95.0849 63.4517 95.9529 64.7311 96.4585L65.3361 96.7222L65.3937 97.3871C65.715 99.4358 66.7824 101.293 68.3907 102.603C69.9989 103.912 72.0344 104.58 74.1057 104.479C75.4349 104.53 76.7302 104.053 77.7098 103.153C78.6893 102.253 79.2738 101.003 79.3359 99.6742V61.4999C78.9991 59.707 77.1242 59.2837 75.5839 59.2837H75.5861Z" fill="#323C6B"/>
<path d="M93.7987 65.2986C95.533 65.7021 97.0873 66.6628 98.2237 68.0337C99.36 69.4046 100.016 71.1101 100.091 72.8892C100.099 73.2419 100.067 73.5945 99.9931 73.9396C101.034 74.6766 101.885 75.6493 102.478 76.7782C103.071 77.9072 103.388 79.1604 103.404 80.4354C103.394 81.5502 103.149 82.6504 102.683 83.6632C102.216 84.676 101.541 85.5783 100.7 86.3106C101.376 87.4688 101.731 88.7859 101.731 90.1269C101.688 91.7192 101.179 93.264 100.267 94.5697C99.3543 95.8753 98.0786 96.8843 96.5978 97.4714C96.2582 99.7982 95.0652 101.915 93.251 103.411C91.4368 104.907 89.131 105.675 86.7822 105.565H86.7091C85.0995 105.594 83.5426 104.991 82.3722 103.886C81.2019 102.781 80.5112 101.261 80.4482 99.6522V61.5C80.8582 59.2107 82.8019 58.1513 85.3993 58.1757C87.352 58.3842 89.197 59.1749 90.6948 60.445C92.1926 61.7152 93.274 63.4062 93.7987 65.2986Z" fill="#FA9825"/>
<path d="M100.705 86.3217C101.382 87.4772 101.734 88.7943 101.724 90.1336C101.684 91.7236 101.178 93.2668 100.267 94.5712C99.3571 95.8755 98.0834 96.8833 96.6046 97.4692C96.3273 99.5322 95.3628 101.442 93.867 102.889C92.3712 104.337 90.4313 105.238 88.3603 105.448C89.2434 104.74 89.978 103.864 90.5219 102.872C91.0657 101.879 91.4082 100.789 91.5295 99.6633C93.0095 99.0727 94.2835 98.0607 95.1936 96.7527C96.1036 95.4448 96.6097 93.8984 96.649 92.3055C96.653 90.9669 96.3012 89.6514 95.6295 88.4936C96.4688 87.7606 97.1435 86.8584 97.6095 85.8462C98.0754 84.834 98.3221 83.7348 98.3333 82.6206C98.3149 81.3461 97.9963 80.0939 97.4033 78.9657C96.8103 77.8375 95.9596 76.8649 94.9203 76.1271C94.9837 75.7836 95.0133 75.4347 95.009 75.0854C94.9335 73.305 94.2774 71.5982 93.1409 70.2256C92.0045 68.8531 90.45 67.8901 88.7149 67.4838C88.2119 65.6774 87.2012 64.0532 85.8027 62.804C84.4042 61.5548 82.6767 60.7331 80.8252 60.4363C81.2767 59.6497 81.9517 59.0149 82.7645 58.6124C83.5773 58.21 84.4913 58.058 85.3906 58.1757C87.3432 58.3807 89.1889 59.1689 90.6871 60.4379C92.1852 61.7068 93.2665 63.3975 93.7901 65.2898C95.527 65.6923 97.0838 66.6542 98.2209 68.0276C99.358 69.401 100.013 71.1098 100.084 72.8914C100.1 73.241 100.07 73.5911 99.9955 73.933C101.033 74.6728 101.882 75.6457 102.475 76.7735C103.068 77.9013 103.387 79.1526 103.408 80.4265C103.396 81.5437 103.148 82.6457 102.683 83.6612C102.217 84.6767 101.543 85.5831 100.705 86.3217Z" fill="#EA6453"/>
<path d="M45.2089 18.9132C48.5957 18.9132 51.3412 16.1677 51.3412 12.781C51.3412 9.39419 48.5957 6.64868 45.2089 6.64868C41.8222 6.64868 39.0767 9.39419 39.0767 12.781C39.0767 16.1677 41.8222 18.9132 45.2089 18.9132Z" fill="#BBBBCD"/>
<path d="M45.2106 20.0213C43.7786 20.0213 42.3787 19.5966 41.1881 18.8011C39.9974 18.0055 39.0694 16.8747 38.5214 15.5517C37.9734 14.2287 37.83 12.7729 38.1093 11.3684C38.3887 9.96389 39.0783 8.67377 40.0909 7.66119C41.1035 6.6486 42.3936 5.95902 43.7981 5.67965C45.2026 5.40028 46.6584 5.54366 47.9814 6.09167C49.3044 6.63968 50.4352 7.5677 51.2308 8.75837C52.0263 9.94904 52.451 11.3489 52.451 12.7809C52.4486 14.7005 51.6851 16.5407 50.3277 17.898C48.9704 19.2554 47.1301 20.0189 45.2106 20.0213ZM45.2106 7.75675C44.2169 7.75675 43.2455 8.05141 42.4193 8.60347C41.5931 9.15553 40.9491 9.9402 40.5689 10.8582C40.1886 11.7763 40.0891 12.7865 40.283 13.7611C40.4768 14.7357 40.9553 15.6309 41.658 16.3335C42.3606 17.0362 43.2558 17.5147 44.2304 17.7085C45.205 17.9024 46.2152 17.8029 47.1333 17.4226C48.0513 17.0424 48.836 16.3984 49.388 15.5722C49.9401 14.746 50.2348 13.7746 50.2348 12.7809C50.2336 11.4488 49.7039 10.1715 48.7619 9.22959C47.82 8.28763 46.5427 7.75792 45.2106 7.75675Z" fill="#323C6B"/>
<path d="M150.918 96.359C154.305 96.359 157.05 93.6135 157.05 90.2268C157.05 86.84 154.305 84.0945 150.918 84.0945C147.531 84.0945 144.786 86.84 144.786 90.2268C144.786 93.6135 147.531 96.359 150.918 96.359Z" fill="#BBBBCD"/>
<path d="M150.924 97.4671C149.492 97.4671 148.093 97.0424 146.902 96.2469C145.711 95.4513 144.783 94.3205 144.235 92.9975C143.687 91.6745 143.544 90.2187 143.823 88.8142C144.103 87.4097 144.792 86.1196 145.805 85.107C146.817 84.0944 148.107 83.4048 149.512 83.1255C150.916 82.8461 152.372 82.9895 153.695 83.5375C155.018 84.0855 156.149 85.0135 156.945 86.2042C157.74 87.3948 158.165 88.7947 158.165 90.2267C158.162 92.1463 157.399 93.9865 156.042 95.3438C154.684 96.7012 152.844 97.4647 150.924 97.4671ZM150.924 85.2025C149.931 85.2025 148.959 85.4972 148.133 86.0493C147.307 86.6013 146.663 87.386 146.283 88.304C145.902 89.2221 145.803 90.2323 145.997 91.2069C146.191 92.1815 146.669 93.0767 147.372 93.7793C148.074 94.482 148.97 94.9605 149.944 95.1543C150.919 95.3482 151.929 95.2487 152.847 94.8684C153.765 94.4882 154.55 93.8442 155.102 93.018C155.654 92.1918 155.949 91.2204 155.949 90.2267C155.947 88.8946 155.418 87.6173 154.476 86.6754C153.534 85.7334 152.257 85.2037 150.924 85.2025Z" fill="#323C6B"/>
<path d="M94.0585 157.351C97.4453 157.351 100.191 154.606 100.191 151.219C100.191 147.832 97.4453 145.087 94.0585 145.087C90.6718 145.087 87.9263 147.832 87.9263 151.219C87.9263 154.606 90.6718 157.351 94.0585 157.351Z" fill="#BBBBCD"/>
<path d="M94.0583 158.46C92.6262 158.46 91.2264 158.035 90.0357 157.239C88.845 156.444 87.917 155.313 87.369 153.99C86.821 152.667 86.6776 151.211 86.957 149.807C87.2364 148.402 87.9259 147.112 88.9385 146.099C89.9511 145.087 91.2412 144.397 92.6457 144.118C94.0502 143.839 95.506 143.982 96.829 144.53C98.152 145.078 99.2828 146.006 100.078 147.197C100.874 148.387 101.299 149.787 101.299 151.219C101.296 153.139 100.533 154.979 99.1754 156.336C97.8181 157.694 95.9778 158.457 94.0583 158.46ZM94.0583 146.195C93.0646 146.195 92.0932 146.49 91.267 147.042C90.4408 147.594 89.7968 148.378 89.4165 149.296C89.0363 150.215 88.9368 151.225 89.1306 152.199C89.3245 153.174 89.803 154.069 90.5056 154.772C91.2083 155.474 92.1035 155.953 93.0781 156.147C94.0527 156.341 95.0629 156.241 95.9809 155.861C96.899 155.481 97.6836 154.837 98.2357 154.01C98.7878 153.184 99.0824 152.213 99.0824 151.219C99.0807 149.887 98.5508 148.61 97.6089 147.668C96.6671 146.727 95.3902 146.197 94.0583 146.195Z" fill="#323C6B"/>
<path d="M13.0825 99.1491C16.4692 99.1491 19.2147 96.4036 19.2147 93.0168C19.2147 89.63 16.4692 86.8845 13.0825 86.8845C9.69571 86.8845 6.9502 89.63 6.9502 93.0168C6.9502 96.4036 9.69571 99.1491 13.0825 99.1491Z" fill="#BBBBCD"/>
<path d="M13.0755 100.255C11.6437 100.254 10.2444 99.8278 9.05457 99.0313C7.86473 98.2348 6.93775 97.1035 6.39082 95.7802C5.8439 94.457 5.70159 93.0013 5.9819 91.5971C6.2622 90.193 6.95252 88.9035 7.96559 87.8917C8.97866 86.8799 10.269 86.1911 11.6735 85.9125C13.0779 85.634 14.5334 85.778 15.856 86.3266C17.1786 86.8751 18.3088 87.8035 19.1039 88.9943C19.8989 90.1851 20.323 91.5849 20.3226 93.0168C20.3196 94.9371 19.5549 96.7778 18.1962 98.1348C16.8375 99.4918 14.9958 100.254 13.0755 100.255ZM13.0755 87.9926C12.0821 87.9939 11.1114 88.2897 10.2861 88.8426C9.46072 89.3954 8.8178 90.1805 8.43855 91.0987C8.0593 92.0169 7.96076 93.0269 8.15537 94.001C8.34997 94.9752 8.829 95.8698 9.53191 96.5717C10.2348 97.2737 11.13 97.7516 12.1045 97.9449C13.0789 98.1382 14.0887 98.0383 15.0064 97.6579C15.924 97.2774 16.7083 96.6334 17.2601 95.8073C17.8118 94.9813 18.1063 94.0102 18.1063 93.0168C18.1069 92.3558 17.9772 91.7013 17.7246 91.0905C17.472 90.4798 17.1015 89.9248 16.6343 89.4574C16.167 88.9899 15.6122 88.6192 15.0016 88.3663C14.391 88.1134 13.7365 87.9835 13.0755 87.9837V87.9926Z" fill="#323C6B"/>
<path d="M104.98 26.2577C108.367 26.2577 111.112 23.5122 111.112 20.1254C111.112 16.7387 108.367 13.9932 104.98 13.9932C101.593 13.9932 98.8477 16.7387 98.8477 20.1254C98.8477 23.5122 101.593 26.2577 104.98 26.2577Z" fill="#BBBBCD"/>
<path d="M104.98 27.3658C103.548 27.3658 102.148 26.9411 100.957 26.1455C99.7664 25.35 98.8384 24.2192 98.2904 22.8962C97.7424 21.5732 97.599 20.1174 97.8784 18.7129C98.1578 17.3084 98.8473 16.0183 99.8599 15.0057C100.873 13.9931 102.163 13.3035 103.567 13.0241C104.972 12.7448 106.427 12.8881 107.75 13.4362C109.073 13.9842 110.204 14.9122 111 16.1029C111.795 17.2935 112.22 18.6934 112.22 20.1254C112.218 22.0449 111.454 23.8852 110.097 25.2425C108.739 26.5998 106.899 27.3634 104.98 27.3658ZM104.98 15.1012C103.986 15.1012 103.015 15.3959 102.188 15.948C101.362 16.5 100.718 17.2847 100.338 18.2027C99.9577 19.1208 99.8582 20.131 100.052 21.1056C100.246 22.0801 100.724 22.9754 101.427 23.678C102.13 24.3807 103.025 24.8592 103.999 25.053C104.974 25.2469 105.984 25.1474 106.902 24.7671C107.82 24.3868 108.605 23.7429 109.157 22.9167C109.709 22.0904 110.004 21.1191 110.004 20.1254C110.003 18.7933 109.473 17.516 108.531 16.5741C107.589 15.6321 106.312 15.1024 104.98 15.1012Z" fill="#323C6B"/>
<path d="M55.9106 151.219C59.2973 151.219 62.0429 148.474 62.0429 145.087C62.0429 141.7 59.2973 138.955 55.9106 138.955C52.5238 138.955 49.7783 141.7 49.7783 145.087C49.7783 148.474 52.5238 151.219 55.9106 151.219Z" fill="#BBBBCD"/>
<path d="M55.9132 152.327C54.4815 152.325 53.0825 151.899 51.893 151.103C50.7035 150.306 49.7769 149.175 49.2302 147.851C48.6836 146.528 48.5415 145.073 48.8218 143.669C49.1022 142.265 49.7925 140.976 50.8054 139.964C51.8184 138.952 53.1085 138.264 54.5128 137.985C55.917 137.706 57.3724 137.85 58.6948 138.398C60.0173 138.947 61.1476 139.875 61.9428 141.065C62.738 142.256 63.1624 143.655 63.1624 145.087C63.1601 147.008 62.3953 148.849 61.036 150.207C59.6768 151.565 57.8342 152.327 55.9132 152.327ZM55.9132 140.063C54.9199 140.064 53.9494 140.361 53.1243 140.914C52.2993 141.467 51.6567 142.252 51.2778 143.17C50.8989 144.088 50.8006 145.098 50.9955 146.072C51.1903 147.046 51.6695 147.941 52.3725 148.643C53.0755 149.344 53.9708 149.822 54.9451 150.015C55.9195 150.208 56.9292 150.108 57.8467 149.728C58.7643 149.347 59.5484 148.703 60.1001 147.877C60.6517 147.051 60.9462 146.08 60.9462 145.087C60.9444 143.754 60.4132 142.476 59.4694 141.534C58.5256 140.592 57.2464 140.064 55.9132 140.065V140.063Z" fill="#323C6B"/>
<path d="M17.4882 63.4679C20.875 63.4679 23.6205 60.7224 23.6205 57.3356C23.6205 53.9489 20.875 51.2034 17.4882 51.2034C14.1015 51.2034 11.356 53.9489 11.356 57.3356C11.356 60.7224 14.1015 63.4679 17.4882 63.4679Z" fill="#BBBBCD"/>
<path d="M17.4879 64.576C16.0559 64.576 14.6561 64.1513 13.4654 63.3558C12.2747 62.5602 11.3467 61.4294 10.7987 60.1064C10.2507 58.7834 10.1073 57.3276 10.3867 55.9231C10.6661 54.5186 11.3556 53.2285 12.3682 52.2159C13.3808 51.2033 14.6709 50.5137 16.0754 50.2343C17.4799 49.955 18.9357 50.0984 20.2587 50.6464C21.5817 51.1944 22.7125 52.1224 23.5081 53.3131C24.3037 54.5037 24.7283 55.9036 24.7283 57.3356C24.726 59.2551 23.9624 61.0954 22.6051 62.4527C21.2477 63.8101 19.4075 64.5736 17.4879 64.576ZM17.4879 52.3114C16.4943 52.3114 15.5229 52.6061 14.6967 53.1582C13.8704 53.7102 13.2265 54.4949 12.8462 55.4129C12.466 56.331 12.3665 57.3412 12.5603 58.3158C12.7542 59.2904 13.2327 60.1856 13.9353 60.8882C14.638 61.5909 15.5332 62.0694 16.5078 62.2632C17.4824 62.4571 18.4926 62.3576 19.4106 61.9773C20.3286 61.597 21.1133 60.9531 21.6654 60.1269C22.2174 59.3007 22.5121 58.3293 22.5121 57.3356C22.5127 56.6752 22.3832 56.0212 22.131 55.4109C21.8788 54.8006 21.5089 54.2459 21.0424 53.7785C20.5759 53.3112 20.0218 52.9403 19.412 52.687C18.8021 52.4338 18.1483 52.3032 17.4879 52.3026V52.3114Z" fill="#323C6B"/>
<path d="M141.589 63.4679C144.976 63.4679 147.722 60.7224 147.722 57.3356C147.722 53.9489 144.976 51.2034 141.589 51.2034C138.203 51.2034 135.457 53.9489 135.457 57.3356C135.457 60.7224 138.203 63.4679 141.589 63.4679Z" fill="#BBBBCD"/>
<path d="M141.592 64.5762C140.16 64.5762 138.76 64.1516 137.569 63.356C136.379 62.5604 135.451 61.4296 134.903 60.1066C134.355 58.7836 134.211 57.3278 134.491 55.9233C134.77 54.5188 135.46 53.2287 136.472 52.2161C137.485 51.2035 138.775 50.514 140.179 50.2346C141.584 49.9552 143.04 50.0986 144.363 50.6466C145.686 51.1946 146.817 52.1226 147.612 53.3133C148.408 54.504 148.832 55.9038 148.832 57.3358C148.83 59.2554 148.066 61.0956 146.709 62.453C145.352 63.8103 143.512 64.5739 141.592 64.5762ZM141.592 52.3117C140.598 52.3117 139.627 52.6063 138.801 53.1584C137.974 53.7105 137.33 54.4951 136.95 55.4132C136.57 56.3312 136.47 57.3414 136.664 58.316C136.858 59.2906 137.337 60.1858 138.039 60.8885C138.742 61.5911 139.637 62.0696 140.612 62.2635C141.586 62.4573 142.597 62.3578 143.515 61.9776C144.433 61.5973 145.217 60.9533 145.769 60.1271C146.321 59.3009 146.616 58.3295 146.616 57.3358C146.617 56.0024 146.088 54.7232 145.146 53.7794C144.204 52.8357 142.925 52.3046 141.592 52.3028V52.3117Z" fill="#323C6B"/>
<path d="M70.3162 87.4318C70.155 87.4319 69.9958 87.3969 69.8496 87.3292C69.7034 87.2614 69.5737 87.1626 69.4696 87.0396C69.0092 86.3879 68.41 85.8463 67.7153 85.4539C67.0205 85.0615 66.2474 84.828 65.4516 84.7702C63.7486 84.943 62.1743 85.7547 61.0457 87.0418C60.8537 87.2585 60.5845 87.3913 60.2957 87.412C60.0069 87.4327 59.7215 87.3395 59.5005 87.1525C59.2795 86.9654 59.1405 86.6992 59.1133 86.411C59.0861 86.1227 59.1727 85.8353 59.3548 85.6101C60.9027 83.8253 63.0952 82.727 65.4516 82.5562C66.5735 82.6029 67.6705 82.9017 68.6611 83.4304C69.6517 83.9591 70.5106 84.7041 71.1739 85.6101C71.3104 85.7715 71.398 85.9685 71.4262 86.178C71.4544 86.3875 71.4221 86.6007 71.3331 86.7925C71.2441 86.9842 71.1021 87.1465 70.9239 87.2602C70.7457 87.3739 70.5386 87.4342 70.3273 87.4341L70.3162 87.4318Z" fill="#323C6B"/>
<path d="M66.2032 84.8257C65.9405 84.8267 65.686 84.7344 65.4851 84.5651C65.2842 84.3959 65.1499 84.1608 65.1062 83.9018C65.0626 83.6427 65.1124 83.3766 65.2467 83.1509C65.3811 82.9251 65.5912 82.7545 65.8397 82.6693C66.5301 82.4072 67.1549 81.9975 67.6705 81.4689C68.1862 80.9402 68.5801 80.3054 68.825 79.6087C68.8582 79.4642 68.9201 79.3278 69.007 79.2076C69.0939 79.0874 69.2041 78.9859 69.3309 78.909C69.4578 78.8322 69.5988 78.7816 69.7456 78.7603C69.8924 78.739 70.0419 78.7473 70.1854 78.7849C70.3289 78.8224 70.4634 78.8884 70.5809 78.9789C70.6985 79.0693 70.7966 79.1825 70.8696 79.3116C70.9426 79.4407 70.9889 79.5832 71.0058 79.7305C71.0227 79.8779 71.0099 80.0271 70.9681 80.1694C70.6329 81.2196 70.0624 82.1793 69.3 82.9755C68.5376 83.7717 67.6035 84.3833 66.5689 84.7637C66.4513 84.8045 66.3277 84.8254 66.2032 84.8257Z" fill="#323C6B"/>
<path d="M71.8899 67.0671C71.7142 67.0671 71.541 67.0253 71.3846 66.9452C70.154 66.2935 68.7352 66.0898 67.371 66.369C67.0877 66.4477 66.7847 66.4107 66.5287 66.2661C66.2727 66.1215 66.0846 65.881 66.0058 65.5977C65.9271 65.3144 65.9641 65.0114 66.1087 64.7554C66.2534 64.4994 66.4938 64.3113 66.7771 64.2325C68.6769 63.8104 70.6646 64.0718 72.3908 64.9705C72.6121 65.0839 72.7889 65.2685 72.8926 65.4945C72.9963 65.7205 73.021 65.9749 72.9627 66.2166C72.9044 66.4584 72.7664 66.6735 72.571 66.8274C72.3756 66.9812 72.1342 67.0649 71.8855 67.0649L71.8899 67.0671Z" fill="#323C6B"/>
<path d="M64.4548 98.5772H64.2708C64.1253 98.5755 63.9816 98.5451 63.8478 98.4878C63.714 98.4305 63.5928 98.3474 63.4912 98.2433C63.3895 98.1391 63.3093 98.016 63.2553 97.8809C63.2012 97.7458 63.1743 97.6013 63.176 97.4558C63.1728 97.3089 63.1999 97.1629 63.2554 97.0268C63.311 96.8908 63.394 96.7676 63.4991 96.665C63.6043 96.5623 63.7294 96.4824 63.8667 96.4301C64.004 96.3778 64.1506 96.3543 64.2974 96.361C65.2786 96.4707 66.2719 96.3559 67.2021 96.0253C68.1324 95.6948 68.9754 95.157 69.6673 94.4528C69.8657 94.2359 70.1421 94.1067 70.4358 94.0936C70.7294 94.0805 71.0162 94.1846 71.2331 94.383C71.45 94.5814 71.5792 94.8578 71.5923 95.1514C71.6054 95.4451 71.5013 95.7319 71.3029 95.9488C70.4159 96.8513 69.3456 97.5529 68.1642 98.0063C66.9828 98.4598 65.7178 98.6544 64.4548 98.5772Z" fill="#323C6B"/>
<path d="M90.5771 87.4319C90.3657 87.432 90.1587 87.3717 89.9805 87.258C89.8022 87.1443 89.6603 86.982 89.5713 86.7903C89.4823 86.5985 89.45 86.3853 89.4782 86.1758C89.5064 85.9663 89.594 85.7693 89.7305 85.6079C90.3936 84.7022 91.2521 83.9573 92.2423 83.4286C93.2325 82.9 94.329 82.601 95.4506 82.554C97.8077 82.7245 100.001 83.8227 101.55 85.6079C101.732 85.8331 101.818 86.1205 101.791 86.4088C101.764 86.697 101.625 86.9632 101.404 87.1503C101.183 87.3373 100.897 87.4305 100.609 87.4098C100.32 87.3891 100.051 87.2562 99.8586 87.0396C98.7293 85.7538 97.1553 84.9431 95.4528 84.7702H95.4395C94.644 84.8283 93.8714 85.062 93.177 85.4544C92.4827 85.8468 91.8839 86.3882 91.4237 87.0396C91.3196 87.1626 91.1899 87.2614 91.0437 87.3292C90.8975 87.3969 90.7383 87.432 90.5771 87.4319Z" fill="#323C6B"/>
<path d="M94.6904 84.8257C94.5675 84.8259 94.4455 84.8057 94.3292 84.7659C93.2938 84.3863 92.359 83.7751 91.5961 82.9788C90.8332 82.1825 90.2626 81.2223 89.9278 80.1716C89.886 80.0293 89.8731 79.8801 89.89 79.7327C89.907 79.5854 89.9533 79.4429 90.0263 79.3138C90.0992 79.1847 90.1974 79.0715 90.3149 78.9811C90.4325 78.8906 90.567 78.8246 90.7104 78.7871C90.8539 78.7495 91.0035 78.7412 91.1503 78.7625C91.2971 78.7838 91.4381 78.8344 91.5649 78.9112C91.6918 78.9881 91.802 79.0896 91.8889 79.2098C91.9758 79.33 92.0377 79.4664 92.0709 79.6109C92.3168 80.3066 92.7115 80.9403 93.2275 81.4677C93.7434 81.9952 94.3682 82.4037 95.0583 82.6649C95.3056 82.7513 95.5143 82.9225 95.6473 83.1482C95.7803 83.3738 95.8291 83.6393 95.785 83.8975C95.7409 84.1557 95.6068 84.3899 95.4064 84.5586C95.206 84.7273 94.9524 84.8196 94.6904 84.819V84.8257Z" fill="#323C6B"/>
<path d="M88.9993 67.0671C88.7506 67.0671 88.5091 66.9834 88.3137 66.8296C88.1183 66.6757 87.9804 66.4606 87.922 66.2189C87.8637 65.9771 87.8884 65.7227 87.9921 65.4967C88.0959 65.2707 88.2726 65.0861 88.494 64.9727C90.2209 64.0765 92.2078 63.8153 94.1076 64.2347C94.2478 64.274 94.3788 64.3405 94.4932 64.4305C94.6077 64.5204 94.7033 64.632 94.7746 64.7589C94.8459 64.8857 94.8915 65.0254 94.9088 65.1699C94.9262 65.3144 94.9149 65.4609 94.8756 65.601C94.8363 65.7412 94.7698 65.8722 94.6798 65.9866C94.5899 66.1011 94.4783 66.1967 94.3515 66.268C94.2246 66.3393 94.0849 66.3849 93.9404 66.4022C93.7959 66.4195 93.6494 66.4082 93.5093 66.369C92.1461 66.0976 90.731 66.3018 89.5001 66.9474C89.3449 67.0261 89.1733 67.0671 88.9993 67.0671Z" fill="#323C6B"/>
<path d="M96.4387 98.5772C95.1743 98.6556 93.9079 98.4612 92.7252 98.0074C91.5425 97.5535 90.4712 96.8507 89.5839 95.9466C89.3856 95.7297 89.2815 95.4429 89.2946 95.1492C89.3077 94.8556 89.4369 94.5792 89.6537 94.3808C89.8706 94.1824 90.1574 94.0783 90.4511 94.0914C90.7447 94.1045 91.0211 94.2337 91.2195 94.4506C91.9023 95.1237 92.7215 95.6426 93.6218 95.9721C94.5222 96.3017 95.4827 96.4343 96.4387 96.361H96.6005C96.8944 96.3592 97.1769 96.4743 97.386 96.6809C97.595 96.8874 97.7135 97.1686 97.7152 97.4625C97.717 97.7564 97.6019 98.0389 97.3954 98.248C97.1888 98.457 96.9077 98.5755 96.6138 98.5772H96.4387Z" fill="#323C6B"/>
<path d="M74.9999 73.8245C74.7749 73.8241 74.5554 73.7553 74.3705 73.6272C73.8739 73.2593 73.2851 73.036 72.6695 72.982C72.0538 72.928 71.4352 73.0455 70.8821 73.3214C70.7569 73.3986 70.6175 73.4501 70.4722 73.4729C70.3268 73.4957 70.1784 73.4893 70.0355 73.4542C69.8927 73.419 69.7582 73.3557 69.6401 73.268C69.5219 73.1803 69.4224 73.07 69.3474 72.9434C69.2723 72.8169 69.2232 72.6766 69.203 72.5309C69.1827 72.3852 69.1916 72.2369 69.2293 72.0946C69.2669 71.9524 69.3325 71.8191 69.4223 71.7025C69.512 71.5859 69.624 71.4883 69.7519 71.4154C70.6706 70.9266 71.7077 70.7041 72.7461 70.773C73.7846 70.8419 74.7832 71.1995 75.6293 71.8055C75.8233 71.9399 75.9693 72.1327 76.046 72.3559C76.1228 72.579 76.1264 72.8208 76.0561 73.0461C75.9859 73.2714 75.8456 73.4684 75.6556 73.6084C75.4656 73.7484 75.2359 73.8241 74.9999 73.8245Z" fill="#323C6B"/>
<path d="M76.5774 91.5298C76.3526 91.5301 76.1331 91.4621 75.948 91.3347C75.4482 90.968 74.8571 90.7459 74.2394 90.6927C73.6218 90.6395 73.0014 90.7574 72.4463 91.0333C72.1945 91.1558 71.9057 91.1784 71.6379 91.0966C71.3701 91.0148 71.1432 90.8347 71.0028 90.5924C70.8624 90.3501 70.819 90.0636 70.8812 89.7906C70.9434 89.5176 71.1067 89.2783 71.3382 89.1207C72.2571 88.631 73.2947 88.4079 74.3337 88.4768C75.3727 88.5458 76.3717 88.9039 77.2178 89.5108C77.4118 89.6452 77.5578 89.838 77.6346 90.0612C77.7114 90.2843 77.7149 90.5262 77.6447 90.7515C77.5745 90.9768 77.4341 91.1737 77.2441 91.3137C77.0542 91.4537 76.8244 91.5294 76.5884 91.5298H76.5774Z" fill="#323C6B"/>
<path d="M90.5774 91.951C90.3526 91.9513 90.1331 91.8833 89.9479 91.7559C89.4481 91.3894 88.857 91.1674 88.2394 91.1143C87.6218 91.0611 87.0015 91.1788 86.4463 91.4545C86.1945 91.577 85.9057 91.5996 85.6379 91.5178C85.3701 91.436 85.1432 91.2558 85.0028 91.0136C84.8624 90.7713 84.819 90.4848 84.8812 90.2118C84.9434 89.9388 85.1067 89.6995 85.3382 89.5419C86.257 89.0516 87.2946 88.8283 88.3337 88.8972C89.3728 88.9662 90.3719 89.3246 91.2178 89.932C91.4118 90.0664 91.5578 90.2592 91.6346 90.4823C91.7114 90.7055 91.7149 90.9473 91.6447 91.1726C91.5745 91.3979 91.4341 91.5949 91.2441 91.7349C91.0542 91.8749 90.8244 91.9506 90.5884 91.951H90.5774Z" fill="#323C6B"/>
<path d="M90.4021 73.8245C90.1774 73.8248 89.9578 73.7568 89.7727 73.6294C89.2724 73.2638 88.6814 73.0424 88.064 72.9893C87.4466 72.9361 86.8265 73.0533 86.271 73.328C86.0192 73.4505 85.7304 73.4731 85.4626 73.3913C85.1948 73.3095 84.9679 73.1293 84.8275 72.8871C84.6872 72.6448 84.6437 72.3583 84.7059 72.0853C84.7682 71.8123 84.9314 71.573 85.1629 71.4154C86.0815 70.9248 87.119 70.7011 88.1581 70.7697C89.1972 70.8382 90.1964 71.1962 91.0426 71.8033C91.2375 71.9373 91.3845 72.1303 91.4619 72.3538C91.5393 72.5774 91.5431 72.8199 91.4727 73.0458C91.4024 73.2717 91.2616 73.4692 91.0709 73.6093C90.8803 73.7494 90.6498 73.8248 90.4132 73.8245H90.4021Z" fill="#323C6B"/>
<path d="M113.652 131.765C113.358 131.765 113.076 131.648 112.869 131.44C112.661 131.233 112.544 130.951 112.544 130.657C112.544 130.363 112.661 130.081 112.869 129.873C113.076 129.666 113.358 129.549 113.652 129.549C116.293 129.543 118.883 128.813 121.137 127.437C123.392 126.061 125.225 124.092 126.437 121.745C126.505 121.616 126.597 121.502 126.709 121.408C126.821 121.315 126.95 121.245 127.089 121.201C127.228 121.158 127.374 121.142 127.519 121.155C127.664 121.168 127.805 121.209 127.934 121.277C128.064 121.344 128.178 121.437 128.271 121.548C128.365 121.66 128.435 121.789 128.479 121.928C128.522 122.067 128.538 122.213 128.525 122.359C128.512 122.504 128.471 122.645 128.403 122.774C127.003 125.48 124.887 127.749 122.286 129.334C119.685 130.92 116.698 131.761 113.652 131.765Z" fill="#323C6B"/>
<path d="M31.6613 49.7274C31.3674 49.7274 31.0856 49.6106 30.8778 49.4028C30.67 49.195 30.5532 48.9132 30.5532 48.6193C30.5532 48.3755 30.571 48.1339 30.5865 47.8946L30.602 47.6729C30.6043 47.5257 30.6372 47.3805 30.6985 47.2467C30.7599 47.1128 30.8483 46.9931 30.9583 46.8952C31.0683 46.7973 31.1975 46.7233 31.3375 46.6778C31.4776 46.6324 31.6256 46.6166 31.7721 46.6313C32.0654 46.6485 32.3399 46.7813 32.5352 47.0008C32.7305 47.2202 32.8307 47.5082 32.8138 47.8015L32.7982 48.0497C32.785 48.2469 32.7717 48.4442 32.7694 48.6459C32.7625 48.9351 32.6427 49.2102 32.4356 49.4123C32.2286 49.6144 31.9507 49.7275 31.6613 49.7274Z" fill="#323C6B"/>
<path d="M33.0935 43.2849C32.9077 43.2848 32.7249 43.238 32.5619 43.1488C32.3989 43.0596 32.261 42.9308 32.1608 42.7744C32.0606 42.6179 32.0013 42.4387 31.9885 42.2534C31.9756 42.068 32.0096 41.8824 32.0873 41.7136C33.3413 38.9899 35.3071 36.655 37.7773 34.9551C40.2475 33.2553 43.1306 32.2535 46.1226 32.0553C46.4119 32.0506 46.6926 32.1534 46.9104 32.3437C47.1282 32.5341 47.2676 32.7986 47.3016 33.0859C47.3116 33.2313 47.2927 33.3772 47.2461 33.5153C47.1996 33.6535 47.1263 33.781 47.0303 33.8908C46.9344 34.0005 46.8177 34.0902 46.6871 34.1548C46.5564 34.2194 46.4143 34.2575 46.2689 34.2671C43.6749 34.4392 41.1754 35.3078 39.0337 36.7813C36.892 38.2549 35.1874 40.2789 34.0996 42.64C34.0111 42.8324 33.8693 42.9954 33.6909 43.1097C33.5126 43.224 33.3053 43.2848 33.0935 43.2849Z" fill="#323C6B"/>
<path d="M129.132 117.92H129.006C128.714 117.887 128.448 117.74 128.264 117.511C128.081 117.281 127.996 116.989 128.029 116.697C128.077 116.254 128.1 115.784 128.109 115.321C128.103 115.173 128.13 115.026 128.185 114.889C128.24 114.752 128.324 114.628 128.43 114.526C128.537 114.423 128.664 114.344 128.802 114.293C128.941 114.243 129.089 114.222 129.237 114.233C129.382 114.235 129.526 114.266 129.659 114.325C129.793 114.383 129.913 114.466 130.014 114.571C130.115 114.676 130.195 114.8 130.248 114.935C130.301 115.07 130.327 115.215 130.325 115.361C130.325 115.893 130.289 116.422 130.232 116.941C130.2 117.21 130.071 117.459 129.868 117.64C129.666 117.82 129.404 117.92 129.132 117.92Z" fill="#323C6B"/>
<path d="M113.653 125.117H47.2392C44.578 125.114 42.0265 124.056 40.1444 122.175C38.2622 120.294 37.2032 117.743 37.1997 115.081V48.6615C37.2032 46.0003 38.2622 43.4493 40.1444 41.568C42.0265 39.6867 44.578 38.6288 47.2392 38.6265H113.653C116.313 38.6294 118.864 39.6875 120.746 41.5688C122.628 43.45 123.686 46.0007 123.69 48.6615V115.081C123.686 117.742 122.628 120.293 120.746 122.174C118.864 124.055 116.313 125.114 113.653 125.117ZM47.2392 40.8405C45.1658 40.8428 43.178 41.6672 41.7115 43.1329C40.2449 44.5985 39.4194 46.5859 39.4159 48.6593V115.079C39.4194 117.153 40.2449 119.14 41.7115 120.606C43.178 122.071 45.1658 122.896 47.2392 122.898H113.653C115.726 122.896 117.713 122.071 119.179 120.606C120.646 119.14 121.471 117.152 121.474 115.079V48.6615C121.471 46.5883 120.646 44.601 119.179 43.1352C117.713 41.6695 115.726 40.845 113.653 40.8427L47.2392 40.8405Z" fill="#323C6B"/>
<path d="M104.606 113.645H56.2811C54.2642 113.644 52.3304 112.842 50.904 111.416C49.4776 109.99 48.6752 108.056 48.6729 106.039V57.7013C48.6729 55.6829 49.4742 53.747 50.9009 52.3191C52.3275 50.8912 54.2627 50.0882 56.2811 50.0864H104.606C106.623 50.0882 108.556 50.89 109.983 52.316C111.409 53.742 112.212 55.6756 112.214 57.6925V106.039C112.212 108.056 111.409 109.99 109.983 111.416C108.556 112.842 106.623 113.644 104.606 113.645ZM56.2811 52.3026C54.8518 52.3038 53.4813 52.872 52.4704 53.8824C51.4596 54.8929 50.8908 56.2632 50.8891 57.6925V106.039C50.8908 107.469 51.4596 108.839 52.4704 109.849C53.4813 110.86 54.8518 111.428 56.2811 111.429H104.606C106.035 111.428 107.406 110.86 108.416 109.849C109.427 108.839 109.996 107.469 109.998 106.039V57.7013C109.998 56.2705 109.431 54.898 108.42 53.8856C107.408 52.8732 106.037 52.3038 104.606 52.3026H56.2811Z" fill="#323C6B"/>
<path d="M86.7849 106.673C84.8684 106.722 83.0103 106.012 81.6154 104.697C80.2206 103.381 79.4021 101.568 79.3384 99.6522V61.5001C79.5789 60.1384 80.3316 58.9204 81.4419 58.0961C82.5521 57.2719 83.9358 56.9039 85.3089 57.0677H85.4064C87.4991 57.2319 89.4952 58.0172 91.1389 59.3229C92.7826 60.6286 93.9991 62.3953 94.6325 64.3967C96.4751 64.9516 98.0981 66.0685 99.2747 67.5912C100.451 69.1139 101.123 70.9663 101.195 72.8892C101.195 73.0687 101.195 73.2638 101.177 73.4677C102.209 74.314 103.042 75.3773 103.616 76.5819C104.191 77.7866 104.493 79.103 104.501 80.4376C104.492 82.7081 103.615 84.8889 102.048 86.5322C102.56 87.6623 102.826 88.8884 102.828 90.1292C102.789 91.8271 102.281 93.4812 101.36 94.9084C100.439 96.3356 99.1419 97.4804 97.6111 98.2161C97.0809 100.67 95.7072 102.859 93.7291 104.405C91.751 105.95 89.2937 106.753 86.7849 106.673ZM85.2557 59.2794C83.773 59.2794 81.8915 59.7027 81.5369 61.6929L81.5568 99.6522C81.6139 100.971 82.1876 102.214 83.1538 103.113C84.1201 104.012 85.4013 104.495 86.7206 104.457C88.8017 104.57 90.8509 103.908 92.472 102.598C94.0931 101.288 95.1708 99.4236 95.4968 97.3651L95.5544 96.7002L96.1572 96.4365C97.4327 95.9311 98.5335 95.0654 99.3253 93.945C100.117 92.8246 100.566 91.498 100.616 90.1269C100.616 88.9808 100.31 87.8554 99.7298 86.8669L99.2865 86.0912L99.9514 85.4906C100.676 84.8613 101.259 84.0857 101.662 83.2147C102.065 82.3437 102.279 81.3973 102.29 80.4376C102.274 79.3359 101.998 78.2536 101.483 77.2796C100.967 76.3056 100.228 75.4678 99.3264 74.8351L98.7303 74.3918L98.9076 73.6715C98.9581 73.4132 98.9796 73.1501 98.9718 72.887C98.8876 71.3533 98.3077 69.8883 97.3194 68.7125C96.331 67.5367 94.9876 66.7136 93.4911 66.3669L92.9482 66.2162L92.7487 65.6887C91.2461 61.6707 88.7418 59.5144 85.3089 59.2817L85.2557 59.2794Z" fill="#323C6B"/>
</g>
<defs>
<filter id="filter0_d" x="-4" y="0" width="172" height="172" filterUnits="userSpaceOnUse" color-interpolation-filters="sRGB">
<feFlood flood-opacity="0" result="BackgroundImageFix"/>
<feColorMatrix in="SourceAlpha" type="matrix" values="0 0 0 0 0 0 0 0 0 0 0 0 0 0 0 0 0 0 127 0"/>
<feOffset dy="4"/>
<feGaussianBlur stdDeviation="2"/>
<feColorMatrix type="matrix" values="0 0 0 0 0 0 0 0 0 0 0 0 0 0 0 0 0 0 0.25 0"/>
<feBlend mode="normal" in2="BackgroundImageFix" result="effect1_dropShadow"/>
<feBlend mode="normal" in="SourceGraphic" in2="effect1_dropShadow" result="shape"/>
</filter>
</defs>
</svg>
