<svg width="161" height="164" viewBox="0 0 161 164" fill="none" xmlns="http://www.w3.org/2000/svg">
<path d="M80.5001 156.427C83.2121 156.427 85.8131 155.33 87.7307 153.376C89.6484 151.423 90.7258 148.774 90.7258 146.011V143.666H70.2744V146.002C70.2733 147.371 70.5369 148.726 71.0503 149.991C71.5637 151.256 72.3167 152.405 73.2664 153.373C74.216 154.341 75.3437 155.109 76.5849 155.633C77.8261 156.157 79.1565 156.427 80.5001 156.427Z" fill="#9297AB"/>
<path d="M80.5 157.535C77.4996 157.529 74.624 156.311 72.5033 154.149C70.3827 151.987 69.19 149.056 69.1865 146V142.558H91.8136V146.002C91.8095 149.058 90.6166 151.988 88.496 154.15C86.3754 156.311 83.5001 157.529 80.5 157.535ZM71.3622 144.772V146C71.3622 148.471 72.326 150.841 74.0415 152.589C75.757 154.336 78.0837 155.318 80.5098 155.318C82.9359 155.318 85.2627 154.336 86.9782 152.589C88.6937 150.841 89.6575 148.471 89.6575 146V144.772H71.3622Z" fill="#323C6B"/>
<path d="M58.1926 113.991H102.807V136.215C102.807 138.697 101.839 141.077 100.117 142.832C98.3939 144.586 96.0575 145.572 93.6213 145.572H67.3761C64.9399 145.572 62.6035 144.586 60.8809 142.832C59.1582 141.077 58.1904 138.697 58.1904 136.215V113.991H58.1926Z" fill="#9297AB"/>
<path d="M102.801 113.98V136.209C102.802 138.691 101.835 141.073 100.114 142.83C98.3924 144.588 96.0568 145.578 93.6196 145.583H87.2666C89.7038 145.578 92.0394 144.588 93.7608 142.83C95.4821 141.073 96.4485 138.691 96.448 136.209V113.98H102.801Z" fill="#84879C"/>
<path d="M58.1929 123.379H102.809V125.595H58.1929V123.379Z" fill="#323C6B"/>
<path d="M58.1929 133.968H102.809V136.184H58.1929V133.968Z" fill="#323C6B"/>
<path d="M41.5347 7.10948L43.517 6.19625L48.6568 17.773L46.6745 18.6862L41.5347 7.10948Z" fill="#323C6B"/>
<path d="M25.0273 20.7444L26.3958 19.0224L36.0875 27.0142L34.719 28.7362L25.0273 20.7444Z" fill="#323C6B"/>
<path d="M16.2871 40.4452L16.7501 38.2821L28.9363 40.9884L28.4734 43.1515L16.2871 40.4452Z" fill="#323C6B"/>
<path d="M112.324 17.7809L117.464 6.20418L119.446 7.11742L114.307 18.6941L112.324 17.7809Z" fill="#323C6B"/>
<path d="M124.847 26.9921L134.538 19.0003L135.907 20.7223L126.215 28.7141L124.847 26.9921Z" fill="#323C6B"/>
<path d="M132.048 40.9995L144.235 38.2933L144.698 40.4563L132.511 43.1626L132.048 40.9995Z" fill="#323C6B"/>
<path d="M76.8887 99.005H86.0657V101.221H76.8887V99.005Z" fill="#323C6B"/>
<path d="M76.8887 33.5202H86.0657V35.7365H76.8887V33.5202Z" fill="#323C6B"/>
<path d="M110.798 29.8635C114.36 30.708 117.552 32.7179 119.885 35.5857C122.219 38.4535 123.566 42.0211 123.72 45.7427C123.738 46.4809 123.672 47.2188 123.522 47.9412C125.659 49.483 127.408 51.518 128.625 53.8799C129.843 56.2417 130.495 58.8635 130.527 61.531C130.508 63.8636 130.004 66.1655 129.046 68.2847C128.089 70.4039 126.702 72.292 124.975 73.8244C126.361 76.2461 127.091 78.9994 127.09 81.8027C127.003 85.1345 125.958 88.367 124.083 91.0989C122.209 93.8308 119.588 95.9418 116.546 97.17C115.72 106.662 106.995 114.104 96.3866 114.104H96.2387C92.9298 114.169 89.7278 112.91 87.3207 110.596C84.9136 108.283 83.4934 105.1 83.3652 101.731V21.9139C84.2072 17.1269 88.2018 14.9063 93.5343 14.9594C103.975 15.6819 108.649 24.0193 110.798 29.8635Z" fill="#FA9825"/>
<path d="M110.546 102.101C112.76 101.116 114.768 99.7089 116.464 97.9568C116.013 100.855 114.887 103.601 113.18 105.965C111.473 108.329 109.234 110.241 106.652 111.542C108.871 108.877 110.231 105.581 110.546 102.101Z" fill="#F7BE56"/>
<path d="M124.971 73.8222C126.351 76.2462 127.079 78.9983 127.081 81.8005C127.012 84.9464 126.081 88.0101 124.394 90.6456C122.706 93.2811 120.328 95.3836 117.53 96.7157C119.549 94.2309 120.769 91.1741 121.026 87.9592C121.283 84.7444 120.564 81.5268 118.966 78.7422C120.693 77.2087 122.08 75.3194 123.036 73.199C123.993 71.0786 124.496 68.7756 124.514 66.4422C124.485 63.7746 123.834 61.1522 122.616 58.7904C121.398 56.4287 119.648 54.3951 117.508 52.8568C117.662 52.1365 117.728 51.3995 117.704 50.6627C117.554 46.9383 116.209 43.3667 113.874 40.4962C111.54 37.6258 108.345 35.615 104.78 34.7724C102.648 28.9216 97.9705 20.5886 87.5273 19.8795C86.2839 19.8518 85.0419 19.9783 83.8286 20.2562C85.221 16.6216 88.8544 14.9151 93.5321 14.9595C103.975 15.6908 108.653 24.0238 110.807 29.8746C114.366 30.7173 117.555 32.7257 119.885 35.592C122.216 38.4583 123.559 42.0241 123.709 45.7427C123.733 46.4795 123.667 47.2165 123.513 47.9368C125.651 49.4769 127.4 51.5109 128.618 53.8722C129.836 56.2335 130.487 58.8551 130.519 61.5222C130.501 63.8556 129.998 66.1586 129.041 68.279C128.085 70.3994 126.697 72.2887 124.971 73.8222Z" fill="#F7BE56"/>
<path d="M104.175 74.9613C103.967 74.9618 103.764 74.9016 103.588 74.7878C103.413 74.674 103.273 74.5114 103.186 74.3192C103.098 74.1271 103.067 73.9134 103.095 73.7035C103.123 73.4937 103.21 73.2964 103.344 73.1351C104.598 71.3771 106.224 69.9284 108.101 68.8962C109.978 67.8639 112.059 67.2745 114.19 67.1713C120.782 67.1713 125.606 72.8913 125.806 73.1351C125.985 73.3603 126.07 73.6477 126.043 73.936C126.016 74.2242 125.88 74.4904 125.663 74.6774C125.446 74.8645 125.166 74.9577 124.882 74.937C124.599 74.9163 124.334 74.7834 124.146 74.5668C124.102 74.5158 119.76 69.3875 114.19 69.3875H114.177C112.367 69.5017 110.604 70.0257 109.018 70.9213C107.431 71.8168 106.061 73.0615 105.006 74.5646C104.905 74.6884 104.778 74.788 104.634 74.8566C104.49 74.9251 104.334 74.9608 104.175 74.9613Z" fill="#323C6B"/>
<path d="M112.622 69.5072C112.5 69.5076 112.38 69.4874 112.265 69.4473C110.32 68.7226 108.564 67.5556 107.129 66.0352C105.694 64.5148 104.618 62.681 103.984 60.6733C103.948 60.5325 103.939 60.3857 103.959 60.2415C103.978 60.0973 104.026 59.9584 104.098 59.8327C104.17 59.7071 104.266 59.5972 104.38 59.5093C104.494 59.4213 104.624 59.3572 104.762 59.3203C104.9 59.2835 105.044 59.2748 105.186 59.2947C105.327 59.3146 105.464 59.3627 105.587 59.4363C105.71 59.5098 105.818 59.6074 105.905 59.7235C105.991 59.8395 106.054 59.9718 106.09 60.1126C106.643 61.7626 107.547 63.2676 108.738 64.5198C109.929 65.7719 111.377 66.7402 112.978 67.3552C113.221 67.4416 113.426 67.6126 113.556 67.838C113.687 68.0634 113.735 68.3287 113.692 68.5867C113.649 68.8448 113.518 69.079 113.321 69.2479C113.125 69.4168 112.876 69.5094 112.619 69.5094L112.622 69.5072Z" fill="#323C6B"/>
<path d="M100.938 32.3567C100.694 32.3568 100.457 32.2731 100.265 32.1192C100.073 31.9654 99.9377 31.7503 99.8804 31.5085C99.8232 31.2668 99.8474 31.0124 99.9493 30.7864C100.051 30.5604 100.225 30.3758 100.442 30.2624C103.72 28.5149 107.498 28.0009 111.111 28.8108C111.385 28.8936 111.616 29.0826 111.754 29.3371C111.892 29.5916 111.926 29.8911 111.849 30.1711C111.773 30.4511 111.591 30.6892 111.343 30.834C111.096 30.9787 110.802 31.0186 110.526 30.945C107.438 30.3063 104.228 30.7638 101.43 32.2415C101.277 32.3186 101.108 32.3581 100.938 32.3567Z" fill="#323C6B"/>
<path d="M116.211 98.2825C113.78 98.4437 111.344 98.0708 109.067 97.189C106.79 96.3073 104.726 94.9373 103.014 93.1719C102.917 93.0645 102.843 92.9389 102.794 92.802C102.745 92.6652 102.723 92.52 102.73 92.3746C102.736 92.2292 102.77 92.0865 102.831 91.9547C102.891 91.8228 102.977 91.7044 103.082 91.6062C103.188 91.5079 103.311 91.4318 103.445 91.3822C103.58 91.3325 103.722 91.3103 103.865 91.3168C104.008 91.3233 104.148 91.3583 104.277 91.42C104.407 91.4816 104.523 91.5686 104.619 91.676C106.456 93.7238 109.989 96.1683 116.54 96.0641H116.553C116.841 96.0623 117.119 96.1774 117.324 96.3839C117.529 96.5905 117.646 96.8717 117.647 97.1655C117.649 97.4594 117.536 97.742 117.333 97.951C117.131 98.1601 116.854 98.2785 116.566 98.2803L116.211 98.2825Z" fill="#323C6B"/>
<path d="M97.0065 38.2918C99.5383 38.2918 101.591 36.2011 101.591 33.6222C101.591 31.0433 99.5383 28.9526 97.0065 28.9526C94.4748 28.9526 92.4224 31.0433 92.4224 33.6222C92.4224 36.2011 94.4748 38.2918 97.0065 38.2918Z" fill="#E1E6E9"/>
<path d="M97.007 39.3999C95.885 39.3999 94.7883 39.061 93.8555 38.426C92.9227 37.791 92.1957 36.8886 91.7665 35.8327C91.3373 34.7768 91.2251 33.615 91.4441 32.4942C91.6631 31.3734 92.2036 30.3439 92.997 29.536C93.7905 28.728 94.8013 28.1779 95.9017 27.9553C97.0021 27.7326 98.1427 27.8473 99.179 28.285C100.215 28.7226 101.101 29.4635 101.724 30.4139C102.347 31.3643 102.679 32.4816 102.679 33.6244C102.677 35.1558 102.078 36.6238 101.015 37.7065C99.9517 38.7891 98.5103 39.3981 97.007 39.3999ZM97.007 30.0629C96.3154 30.0629 95.6395 30.2718 95.0645 30.6632C94.4895 31.0545 94.0414 31.6107 93.7768 32.2615C93.5121 32.9123 93.4429 33.6284 93.5778 34.3192C93.7127 35.0101 94.0457 35.6447 94.5347 36.1427C95.0237 36.6408 95.6466 36.98 96.3249 37.1174C97.0031 37.2549 97.7061 37.1843 98.3449 36.9148C98.9838 36.6452 99.5298 36.1887 99.914 35.603C100.298 35.0174 100.503 34.3288 100.503 33.6244C100.503 32.6796 100.135 31.7735 99.4793 31.1053C98.8237 30.437 97.9344 30.0613 97.007 30.0607V30.0629Z" fill="#323C6B"/>
<path d="M103.975 60.5337C106.507 60.5337 108.559 58.4431 108.559 55.8642C108.559 53.2852 106.507 51.1946 103.975 51.1946C101.444 51.1946 99.3911 53.2852 99.3911 55.8642C99.3911 58.4431 101.444 60.5337 103.975 60.5337Z" fill="#E1E6E9"/>
<path d="M103.976 61.6397C102.854 61.6383 101.758 61.2983 100.826 60.6626C99.8939 60.0268 99.168 59.1239 98.7397 58.0679C98.3115 57.0119 98.2002 55.8503 98.42 54.7299C98.6398 53.6095 99.1807 52.5807 99.9744 51.7734C100.768 50.9661 101.779 50.4167 102.879 50.1946C103.979 49.9724 105.12 50.0875 106.156 50.5254C107.192 50.9632 108.077 51.7041 108.7 52.6544C109.322 53.6047 109.654 54.7217 109.654 55.8642C109.652 57.3968 109.052 58.8657 107.988 59.9486C106.923 61.0315 105.48 61.6397 103.976 61.6397ZM103.976 52.3027C103.284 52.3041 102.609 52.514 102.035 52.9062C101.461 53.2983 101.014 53.855 100.75 54.5059C100.486 55.1568 100.418 55.8727 100.554 56.5631C100.689 57.2535 101.023 57.8875 101.512 58.3849C102.001 58.8823 102.624 59.2208 103.302 59.3577C103.98 59.4946 104.683 59.4237 105.322 59.1539C105.96 58.8842 106.506 58.4277 106.89 57.8421C107.273 57.2566 107.478 56.5683 107.478 55.8642C107.478 55.396 107.387 54.9325 107.211 54.5001C107.035 54.0677 106.777 53.6749 106.451 53.3442C106.126 53.0134 105.74 52.7512 105.315 52.5725C104.89 52.3938 104.435 52.3022 103.976 52.3027Z" fill="#323C6B"/>
<path d="M101.591 93.0035C104.123 93.0035 106.175 90.9129 106.175 88.334C106.175 85.7551 104.123 83.6644 101.591 83.6644C99.0592 83.6644 97.0068 85.7551 97.0068 88.334C97.0068 90.9129 99.0592 93.0035 101.591 93.0035Z" fill="#E1E6E9"/>
<path d="M101.591 94.1116C100.469 94.1121 99.3724 93.7736 98.4394 93.139C97.5063 92.5044 96.779 91.6022 96.3494 90.5465C95.9197 89.4908 95.8071 88.3291 96.0257 87.2082C96.2443 86.0873 96.7844 85.0576 97.5775 84.2493C98.3707 83.4411 99.3813 82.8906 100.482 82.6675C101.582 82.4444 102.722 82.5586 103.759 82.9959C104.796 83.4331 105.682 84.1736 106.305 85.1238C106.928 86.074 107.261 87.1912 107.261 88.334C107.259 89.8654 106.661 91.3336 105.599 92.4167C104.536 93.4998 103.095 94.1093 101.591 94.1116ZM101.591 84.7747C100.899 84.7743 100.223 84.9828 99.6479 85.374C99.0726 85.7652 98.6241 86.3214 98.3592 86.9722C98.0943 87.6231 98.0249 88.3394 98.1597 89.0304C98.2946 89.7215 98.6276 90.3563 99.1167 90.8545C99.6058 91.3527 100.229 91.692 100.907 91.8293C101.586 91.9667 102.289 91.8959 102.928 91.6261C103.567 91.3563 104.113 90.8995 104.497 90.3134C104.881 89.7274 105.086 89.0385 105.085 88.334C105.084 87.3902 104.716 86.4853 104.061 85.8177C103.406 85.1501 102.518 84.7743 101.591 84.7725V84.7747Z" fill="#323C6B"/>
<path d="M50.2017 29.8635C46.6402 30.708 43.4484 32.7179 41.1148 35.5857C38.7812 38.4535 37.4343 42.0211 37.2803 45.7427C37.2616 46.4809 37.328 47.2188 37.4783 47.9412C35.3411 49.483 33.5923 51.518 32.3747 53.8799C31.1572 56.2417 30.5054 58.8635 30.4727 61.531C30.4917 63.8636 30.9964 66.1655 31.9535 68.2847C32.9107 70.4039 34.2984 72.292 36.025 73.8244C34.6388 76.2461 33.909 78.9994 33.9102 81.8027C33.997 85.1345 35.0425 88.367 36.9168 91.0989C38.7911 93.8308 41.4118 95.9418 44.4535 97.17C45.2803 106.662 54.0048 114.104 64.6134 114.104H64.7613C68.0702 114.169 71.2722 112.91 73.6793 110.596C76.0864 108.283 77.5066 105.1 77.6348 101.731V21.9139C76.7928 17.1269 72.7982 14.9063 67.4657 14.9594C57.0246 15.6819 52.3512 24.0193 50.2017 29.8635Z" fill="#FA9825"/>
<path d="M38.9878 78.7421C37.6049 81.165 36.8767 83.9179 36.8774 86.7205C36.8735 88.6637 37.2354 90.5896 37.9435 92.394C35.3739 89.4839 33.9417 85.7146 33.9185 81.8005C33.9142 79.2867 34.5037 76.8087 35.6373 74.5757C36.536 76.1325 37.6663 77.538 38.9878 78.7421Z" fill="#F7BE56"/>
<path d="M77.6066 21.8075C75.4776 20.3986 72.961 19.7227 70.4268 19.8794C60.0054 20.5886 55.3277 28.9216 53.1737 34.7724C49.612 35.6207 46.4206 37.6331 44.087 40.5024C41.7535 43.3716 40.4059 46.94 40.2502 50.6627C40.2368 51.3991 40.3025 52.1348 40.446 52.8567C38.3098 54.3985 36.5616 56.4328 35.3441 58.7938C34.1266 61.1548 33.4743 63.7755 33.4404 66.4421C33.438 68.4119 33.792 70.3652 34.4847 72.2043C31.9126 69.2622 30.4883 65.4618 30.4814 61.5221C30.5131 58.855 31.1645 56.2335 32.3822 53.8722C33.5998 51.5108 35.3492 49.4768 37.4871 47.9367C37.3329 47.2164 37.2671 46.4795 37.2913 45.7427C37.4411 42.0241 38.7843 38.4583 41.1147 35.592C43.4452 32.7257 46.6343 30.7172 50.1931 29.8746C52.347 24.0237 57.0247 15.6908 67.4679 14.9594C72.7548 14.9151 76.7145 17.087 77.6066 21.8075Z" fill="#F7BE56"/>
<path d="M56.8245 74.9613C56.6663 74.9614 56.51 74.9263 56.3665 74.8586C56.2229 74.7908 56.0956 74.692 55.9934 74.569C54.9388 73.0659 53.5684 71.8213 51.9821 70.9257C50.3957 70.0301 48.6332 69.5062 46.823 69.3919H46.8099C41.2402 69.3919 36.8975 74.518 36.854 74.5712C36.6671 74.7957 36.4002 74.9354 36.1121 74.9595C35.8241 74.9836 35.5384 74.8902 35.318 74.6998C35.0976 74.5093 34.9604 74.2375 34.9368 73.9441C34.9131 73.6506 35.0048 73.3596 35.1918 73.1351C35.3941 72.8913 40.2154 67.1713 46.8077 67.1713C48.939 67.2741 51.0203 67.8635 52.8979 68.8957C54.7756 69.928 56.4015 71.3768 57.6556 73.1351C57.7896 73.2963 57.8755 73.4932 57.9033 73.7025C57.9311 73.9118 57.8996 74.1248 57.8124 74.3165C57.7253 74.5081 57.5863 74.6704 57.4116 74.7843C57.237 74.8981 57.0341 74.9588 56.8267 74.9591L56.8245 74.9613Z" fill="#323C6B"/>
<path d="M48.3779 69.5072C48.121 69.5072 47.8723 69.4146 47.676 69.2457C47.4797 69.0768 47.3484 68.8426 47.3054 68.5845C47.2624 68.3265 47.3104 68.0613 47.441 67.8358C47.5717 67.6104 47.7764 67.4394 48.019 67.353C49.6204 66.738 51.0685 65.7697 52.2594 64.5176C53.4503 63.2654 54.3545 61.7604 54.9071 60.1104C54.9433 59.9696 55.0063 59.8373 55.0926 59.7213C55.1789 59.6052 55.2868 59.5076 55.4102 59.4341C55.5335 59.3605 55.6699 59.3124 55.8115 59.2925C55.9531 59.2726 56.0971 59.2813 56.2354 59.3181C56.3737 59.355 56.5035 59.4192 56.6174 59.5071C56.7313 59.595 56.8272 59.7049 56.8994 59.8305C56.9716 59.9562 57.0188 60.0951 57.0384 60.2393C57.0579 60.3835 57.0493 60.5303 57.0132 60.6711C56.3791 62.6785 55.3039 64.5122 53.8693 66.0326C52.4348 67.553 50.6787 68.7201 48.7347 69.4451C48.62 69.486 48.4994 69.5069 48.3779 69.5072Z" fill="#323C6B"/>
<path d="M60.062 32.3567C59.8902 32.3564 59.721 32.3146 59.5681 32.2349C56.776 30.744 53.5629 30.285 50.4759 30.9361C50.2085 30.988 49.9316 30.9359 49.7 30.7899C49.4685 30.644 49.2991 30.4149 49.2253 30.1479C49.1515 29.8809 49.1787 29.5955 49.3015 29.3479C49.4243 29.1003 49.6337 28.9087 49.8885 28.8108C53.4999 28.0045 57.2747 28.5209 60.5493 30.2691C60.7666 30.3825 60.9401 30.567 61.042 30.793C61.1438 31.0191 61.1681 31.2734 61.1108 31.5152C61.0535 31.7569 60.9181 31.972 60.7263 32.1259C60.5345 32.2798 60.2974 32.3634 60.0533 32.3634L60.062 32.3567Z" fill="#323C6B"/>
<path d="M44.7882 98.2825H44.4314C44.2886 98.2817 44.1473 98.2521 44.0156 98.1956C43.884 98.1391 43.7645 98.0568 43.6641 97.9533C43.4613 97.7442 43.3484 97.4617 43.3501 97.1678C43.3518 96.8739 43.4681 96.5927 43.6734 96.3862C43.8786 96.1796 44.156 96.0646 44.4445 96.0663H44.7861C46.9145 96.2226 49.0511 95.9115 51.0513 95.1541C53.0516 94.3966 54.8688 93.2106 56.3802 91.676C56.575 91.4591 56.8463 91.3299 57.1346 91.3168C57.4229 91.3037 57.7044 91.4078 57.9174 91.6062C58.1303 91.8046 58.2571 92.081 58.27 92.3746C58.2828 92.6682 58.1806 92.955 57.9859 93.1719C56.2739 94.9372 54.2095 96.3071 51.9325 97.1888C49.6555 98.0706 47.2191 98.4436 44.7882 98.2825Z" fill="#323C6B"/>
<path d="M63.9933 38.2918C66.5251 38.2918 68.5775 36.2011 68.5775 33.6222C68.5775 31.0433 66.5251 28.9526 63.9933 28.9526C61.4616 28.9526 59.4092 31.0433 59.4092 33.6222C59.4092 36.2011 61.4616 38.2918 63.9933 38.2918Z" fill="#E1E6E9"/>
<path d="M63.993 39.3999C62.871 39.4003 61.7741 39.0618 60.841 38.4271C59.9079 37.7924 59.1806 36.8901 58.751 35.8342C58.3215 34.7784 58.2089 33.6165 58.4277 32.4956C58.6465 31.3746 59.1868 30.3449 59.9801 29.5368C60.7735 28.7286 61.7844 28.1783 62.8848 27.9554C63.9853 27.7326 65.1259 27.8472 66.1624 28.2847C67.1989 28.7223 68.0848 29.4632 68.7078 30.4137C69.3309 31.3641 69.6633 32.4815 69.6628 33.6244C69.6605 35.1554 69.0624 36.6231 67.9996 37.7057C66.9368 38.7883 65.496 39.3975 63.993 39.3999ZM63.993 30.0629C63.3014 30.0625 62.6252 30.271 62.05 30.6621C61.4747 31.0532 61.0263 31.6092 60.7613 32.26C60.4963 32.9107 60.4268 33.6269 60.5614 34.3179C60.6961 35.0089 61.0289 35.6437 61.5178 36.142C62.0067 36.6403 62.6297 36.9797 63.3079 37.1173C63.9862 37.2549 64.6893 37.1845 65.3283 36.915C65.9673 36.6455 66.5135 36.189 66.8978 35.6033C67.282 35.0176 67.4872 34.3289 67.4872 33.6244C67.4866 32.6802 67.1184 31.7748 66.4634 31.1067C65.8083 30.4387 64.9199 30.0625 63.993 30.0607V30.0629Z" fill="#323C6B"/>
<path d="M57.0246 60.5337C59.5563 60.5337 61.6087 58.4431 61.6087 55.8642C61.6087 53.2852 59.5563 51.1946 57.0246 51.1946C54.4928 51.1946 52.4404 53.2852 52.4404 55.8642C52.4404 58.4431 54.4928 60.5337 57.0246 60.5337Z" fill="#E1E6E9"/>
<path d="M57.0243 61.6396C55.9024 61.6401 54.8055 61.3016 53.8725 60.667C52.9394 60.0324 52.2121 59.1302 51.7825 58.0745C51.3528 57.0188 51.2402 55.8571 51.4588 54.7362C51.6774 53.6153 52.2175 52.5856 53.0106 51.7773C53.8038 50.9691 54.8144 50.4186 55.9147 50.1955C57.015 49.9724 58.1556 50.0866 59.1922 50.5239C60.2287 50.9611 61.1147 51.7017 61.738 52.6518C62.3614 53.602 62.6941 54.7192 62.6941 55.862C62.6923 57.3934 62.0945 58.8616 61.0316 59.9447C59.9688 61.0278 58.5277 61.6373 57.0243 61.6396ZM57.0243 52.3027C56.3326 52.3023 55.6563 52.5108 55.081 52.902C54.5057 53.2932 54.0572 53.8494 53.7923 54.5002C53.5274 55.1511 53.458 55.8674 53.5928 56.5584C53.7277 57.2495 54.0607 57.8843 54.5498 58.3825C55.0389 58.8807 55.6621 59.22 56.3405 59.3573C57.0189 59.4947 57.7221 59.4239 58.3611 59.1541C59 58.8843 59.5461 58.4275 59.9301 57.8414C60.3141 57.2554 60.5188 56.5665 60.5184 55.862C60.5172 54.9184 60.1487 54.0137 59.4937 53.3465C58.8387 52.6793 57.9506 52.3039 57.0243 52.3027Z" fill="#323C6B"/>
<path d="M59.4093 93.0035C61.9411 93.0035 63.9935 90.9129 63.9935 88.334C63.9935 85.7551 61.9411 83.6644 59.4093 83.6644C56.8776 83.6644 54.8252 85.7551 54.8252 88.334C54.8252 90.9129 56.8776 93.0035 59.4093 93.0035Z" fill="#E1E6E9"/>
<path d="M59.4088 94.1116C58.2869 94.1116 57.1902 93.7727 56.2574 93.1378C55.3246 92.5028 54.5976 91.6003 54.1684 90.5445C53.7391 89.4886 53.6269 88.3268 53.846 87.206C54.065 86.0852 54.6054 85.0557 55.3989 84.2477C56.1923 83.4398 57.2032 82.8897 58.3036 82.667C59.404 82.4444 60.5445 82.5591 61.5809 82.9967C62.6173 83.4344 63.503 84.1752 64.1259 85.1257C64.7489 86.0761 65.0812 87.1934 65.0808 88.3362C65.0785 89.8676 64.4801 91.3356 63.4168 92.4182C62.3536 93.5009 60.9122 94.1099 59.4088 94.1116ZM59.4088 84.7747C58.7173 84.7747 58.0413 84.9836 57.4664 85.3749C56.8914 85.7663 56.4433 86.3225 56.1786 86.9733C55.914 87.624 55.8448 88.3401 55.9797 89.031C56.1146 89.7218 56.4476 90.3564 56.9365 90.8545C57.4255 91.3526 58.0485 91.6918 58.7267 91.8292C59.4049 91.9666 60.1079 91.8961 60.7468 91.6265C61.3857 91.357 61.9317 90.9005 62.3159 90.3148C62.7001 89.7291 62.9051 89.0406 62.9051 88.3362C62.9045 87.3916 62.5361 86.4858 61.8806 85.8177C61.2251 85.1496 60.3361 84.7737 59.4088 84.7725V84.7747Z" fill="#323C6B"/>
<path d="M96.4544 153.056C96.1827 153.056 95.9209 152.953 95.7204 152.766C95.52 152.579 95.3953 152.323 95.3711 152.047C95.3468 151.772 95.4246 151.497 95.5893 151.277C95.7539 151.057 95.9934 150.907 96.2607 150.858C99.5323 150.231 102.498 148.491 104.672 145.923C106.846 143.355 108.099 140.111 108.227 136.723C108.232 136.577 108.265 136.434 108.324 136.302C108.383 136.169 108.467 136.05 108.572 135.95C108.783 135.75 109.063 135.642 109.352 135.652C109.495 135.657 109.635 135.691 109.765 135.751C109.895 135.811 110.013 135.897 110.11 136.004C110.208 136.11 110.284 136.235 110.334 136.371C110.384 136.508 110.407 136.653 110.403 136.798C110.257 140.691 108.817 144.418 106.32 147.369C103.822 150.319 100.415 152.318 96.6567 153.039C96.59 153.051 96.5222 153.057 96.4544 153.056Z" fill="#323C6B"/>
<path d="M109.334 132.84C109.045 132.84 108.769 132.723 108.565 132.515C108.361 132.308 108.246 132.026 108.246 131.732V130.757C108.246 130.463 108.361 130.181 108.565 129.973C108.769 129.765 109.045 129.649 109.334 129.649C109.622 129.649 109.899 129.765 110.103 129.973C110.307 130.181 110.422 130.463 110.422 130.757V131.732C110.422 132.026 110.307 132.308 110.103 132.515C109.899 132.723 109.622 132.84 109.334 132.84Z" fill="#323C6B"/>
<path d="M54.664 13.8602C54.4331 13.8602 54.2083 13.7854 54.0219 13.6466C53.8356 13.5078 53.6974 13.3122 53.6274 13.0882C53.5574 12.8641 53.5592 12.6232 53.6325 12.4002C53.7058 12.1772 53.8468 11.9838 54.0352 11.8479L54.2636 11.6794C54.5008 11.5066 54.7379 11.3337 54.9838 11.1741C55.227 11.016 55.5219 10.9628 55.8036 11.0262C56.0854 11.0896 56.3309 11.2644 56.4861 11.5121C56.6413 11.7599 56.6935 12.0603 56.6313 12.3473C56.5691 12.6342 56.3975 12.8843 56.1543 13.0424C55.9367 13.1798 55.7387 13.3305 55.5321 13.4857L55.2905 13.6607C55.1068 13.7914 54.888 13.861 54.664 13.8602Z" fill="#323C6B"/>
<path d="M76.6925 11.5487C76.5158 11.5484 76.3418 11.5043 76.1856 11.4202C73.5462 10.0531 70.6174 9.36815 67.657 9.42558L67.0521 9.4411C64.9618 9.58828 62.8997 10.0152 60.9189 10.711C60.7828 10.7629 60.638 10.7866 60.4928 10.7806C60.3477 10.7746 60.2052 10.739 60.0737 10.6759C59.9423 10.6129 59.8246 10.5237 59.7275 10.4136C59.6305 10.3035 59.5561 10.1746 59.5087 10.0347C59.4613 9.89485 59.4419 9.74671 59.4517 9.59906C59.4614 9.45141 59.5001 9.30724 59.5654 9.17506C59.6308 9.04289 59.7214 8.92538 59.8321 8.82947C59.9427 8.73357 60.0711 8.66121 60.2096 8.61666C62.3875 7.85012 64.6554 7.38064 66.9542 7.22045L67.633 7.20272C70.9578 7.14224 74.2458 7.91792 77.206 9.46104C77.4208 9.57675 77.5914 9.76237 77.6905 9.98832C77.7897 10.2143 77.8118 10.4675 77.7532 10.7078C77.6946 10.948 77.5588 11.1613 77.3673 11.3137C77.1759 11.4661 76.9399 11.5488 76.6969 11.5487H76.6925Z" fill="#323C6B"/>
<path d="M96.3827 115.219C92.7604 115.323 89.2446 113.964 86.6017 111.439C83.9587 108.914 82.4029 105.426 82.2734 101.738V21.9139C83.1872 16.6571 87.3014 13.7826 93.5543 13.8513C101.822 14.4209 108.051 19.6401 111.63 28.9526C115.296 29.958 118.551 32.1283 120.923 35.1479C123.294 38.1675 124.658 41.879 124.817 45.7427C124.824 46.3211 124.792 46.8994 124.723 47.4736C126.848 49.1267 128.575 51.2524 129.772 53.6886C130.968 56.1248 131.602 58.8071 131.626 61.531C131.614 63.8708 131.139 66.184 130.232 68.3335C129.324 70.4829 128.002 72.4248 126.344 74.0438C127.563 76.4403 128.197 79.1012 128.191 81.8005C128.102 85.2353 127.058 88.5738 125.178 91.427C123.299 94.2803 120.663 96.531 117.576 97.9169C116.351 107.675 107.185 115.219 96.3827 115.219ZM93.3085 16.0653C90.3561 16.0653 85.3586 16.8743 84.4382 22.1112L84.4556 101.74C84.5736 104.819 85.877 107.728 88.0838 109.836C90.2905 111.944 93.2234 113.082 96.2478 113.005C106.308 113.005 114.689 106.01 115.466 97.0813C115.483 96.8823 115.553 96.6918 115.668 96.5299C115.782 96.368 115.938 96.2407 116.118 96.1616C118.959 95.0095 121.407 93.038 123.163 90.489C124.919 87.9399 125.907 84.9241 126.005 81.8116C126.011 79.2007 125.331 76.6357 124.036 74.3829C123.911 74.1625 123.865 73.9053 123.904 73.6543C123.944 73.4033 124.067 73.1739 124.253 73.0044C125.866 71.5755 127.163 69.8141 128.059 67.8367C128.954 65.8592 129.427 63.7107 129.446 61.5332C129.416 59.039 128.805 56.5877 127.664 54.3806C126.523 52.1735 124.884 50.2735 122.882 48.8365C122.71 48.707 122.579 48.5285 122.506 48.3235C122.433 48.1185 122.421 47.8961 122.471 47.6841C122.599 47.0463 122.656 46.3957 122.639 45.7449C122.47 42.2701 121.196 38.9456 119.008 36.2736C116.821 33.6017 113.839 31.7274 110.514 30.9339C110.349 30.8869 110.197 30.8008 110.07 30.6825C109.944 30.5643 109.847 30.4173 109.787 30.2536C106.524 21.3621 101.028 16.5906 93.4695 16.0698L93.3085 16.0653Z" fill="#323C6B"/>
<path d="M64.7676 115.219C53.8175 115.219 44.6492 107.684 43.446 97.9324C40.3595 96.5465 37.723 94.2959 35.8436 91.4426C33.9643 88.5893 32.9195 85.2509 32.8309 81.8161C32.8249 79.1168 33.4585 76.4558 34.678 74.0593C33.0197 72.4403 31.6976 70.4985 30.7902 68.349C29.8827 66.1996 29.4085 63.8863 29.3955 61.5466C29.4196 58.8227 30.054 56.1403 31.2504 53.7041C32.4467 51.2679 34.1735 49.1422 36.2989 47.4891C36.2295 46.915 36.1983 46.3367 36.2054 45.7582C36.3603 41.8924 37.7223 38.1779 40.0933 35.1552C42.4643 32.1326 45.7204 29.9596 49.3878 28.9527C52.9668 19.6446 59.1783 14.4209 67.4002 13.8536H67.6178C73.8185 13.8536 77.8435 16.7125 78.7137 21.7189L78.7311 101.738C78.6117 105.404 77.0793 108.874 74.4657 111.398C71.8521 113.921 68.3679 115.294 64.7676 115.219ZM67.6461 16.0676H67.4742C59.979 16.5884 54.4898 21.3599 51.2197 30.2514C51.1598 30.4151 51.0628 30.5621 50.9365 30.6803C50.8102 30.7986 50.6582 30.8847 50.493 30.9318C47.1676 31.7252 44.186 33.5995 41.9986 36.2715C39.8112 38.9434 38.5368 42.2679 38.368 45.7427C38.3512 46.3935 38.4074 47.0441 38.5355 47.6819C38.5859 47.8939 38.5738 48.1163 38.5007 48.3213C38.4275 48.5264 38.2966 48.7048 38.1243 48.8343C36.1227 50.2713 34.4841 52.1713 33.343 54.3784C32.202 56.5855 31.591 59.0368 31.5603 61.531C31.5798 63.7086 32.0528 65.8571 32.9481 67.8345C33.8433 69.812 35.1404 71.5733 36.7536 73.0022C36.9396 73.1717 37.0628 73.4011 37.1024 73.6521C37.142 73.9031 37.0957 74.1603 36.9712 74.3807C35.6758 76.6335 34.9959 79.1986 35.0022 81.8094C35.0992 84.9218 36.086 87.9377 37.8413 90.4872C39.5967 93.0366 42.0444 95.0087 44.8841 96.1616C45.0642 96.2408 45.22 96.368 45.3349 96.5299C45.4498 96.6918 45.5195 96.8824 45.5368 97.0814C46.3136 106.011 54.6943 113.005 64.6132 113.005C67.6591 113.111 70.6227 111.987 72.8581 109.876C75.0935 107.766 76.4193 104.842 76.5468 101.74V21.914C75.6417 16.8787 70.6594 16.0676 67.6461 16.0676Z" fill="#323C6B"/>
<path d="M93.6239 146.68H67.3766C64.6527 146.677 62.0413 145.574 60.1153 143.612C58.1892 141.65 57.1059 138.99 57.103 136.215V112.883H103.895V136.215C103.892 138.99 102.809 141.649 100.884 143.611C98.9583 145.573 96.3474 146.677 93.6239 146.68ZM59.2809 115.099V136.218C59.2832 138.405 60.1371 140.501 61.6552 142.048C63.1734 143.594 65.2318 144.464 67.3787 144.466H93.6239C95.7709 144.464 97.8293 143.594 99.3474 142.048C100.866 140.501 101.719 138.405 101.722 136.218V115.099H59.2809Z" fill="#323C6B"/>
<path d="M70.6811 63.5345C71.0541 63.5339 71.4121 63.6841 71.6764 63.9521C71.9407 64.2201 72.0898 64.584 72.091 64.9639L72.1193 80.0785C72.1193 80.4585 71.9711 80.823 71.7073 81.0917C71.4435 81.3604 71.0857 81.5113 70.7127 81.5113C70.3396 81.5113 69.9819 81.3604 69.7181 81.0917C69.4543 80.823 69.3061 80.4585 69.3061 80.0785L69.2778 64.9639C69.279 64.5852 69.4272 64.2223 69.6901 63.9545C69.953 63.6866 70.3093 63.5357 70.6811 63.5345Z" fill="white"/>
<path d="M70.6704 58.1601C71.0434 58.1595 71.4013 58.3097 71.6656 58.5778C71.93 58.8458 72.0791 59.2097 72.0803 59.5896V60.3409C72.0803 60.7209 71.9321 61.0853 71.6683 61.354C71.4045 61.6227 71.0467 61.7737 70.6737 61.7737C70.3006 61.7737 69.9429 61.6227 69.6791 61.354C69.4153 61.0853 69.2671 60.7209 69.2671 60.3409V59.5896C69.2682 59.2108 69.4165 58.8479 69.6794 58.5801C69.9423 58.3123 70.2986 58.1613 70.6704 58.1601Z" fill="white"/>
</svg>
