<svg width="78" height="78" viewBox="0 0 78 78" fill="none" xmlns="http://www.w3.org/2000/svg">
    <circle cx="39" cy="39" r="39" fill="#3DBA2E"/>
    <path d="M59.036 51.934L52.3953 45.2926C51.0726 43.9752 48.8822 44.0153 47.5134 45.3845L44.1678 48.7294C43.9565 48.6129 43.7377 48.4912 43.5077 48.3621C41.395 47.1915 38.5033 45.587 35.4605 42.542C32.4087 39.4905 30.8027 36.5944 29.6285 34.4804C29.5046 34.2564 29.3859 34.0405 29.2687 33.8354L31.514 31.5933L32.618 30.4881C33.9888 29.1168 34.0266 26.927 32.707 25.6058L26.0664 18.9636C24.7467 17.6443 22.5553 17.6843 21.1845 19.0555L19.3129 20.9379L19.364 20.9886C18.7365 21.7894 18.2121 22.7129 17.8218 23.7089C17.4621 24.6569 17.2381 25.5616 17.1357 26.4681C16.2588 33.7374 19.5807 40.3811 28.5959 49.3964C41.0576 61.8572 51.1001 60.9158 51.5333 60.8699C52.4769 60.7571 53.3812 60.5316 54.3001 60.1748C55.2874 59.7891 56.2104 59.2654 57.0106 58.6392L57.0515 58.6755L58.9476 56.8189C60.3156 55.4479 60.355 53.2574 59.036 51.934Z"
          fill="white"/>
</svg>
