<svg width="27" height="27" viewBox="0 0 27 27" fill="none" xmlns="http://www.w3.org/2000/svg">
    <rect x="1.5" y="1.5" width="24" height="24" rx="5.5" fill="#00796B" stroke="#00796B" stroke-width="3"/>
    <path d="M13.9656 4.59646L16.2213 9.13691C16.3782 9.4527 16.6815 9.67152 17.0324 9.72208L22.0766 10.4502C22.9602 10.5779 23.3127 11.6562 22.6736 12.2749L19.0236 15.8092C18.7699 16.0549 18.654 16.4092 18.714 16.7561L19.5755 21.7466C19.7266 22.6207 18.8029 23.2871 18.0127 22.8747L13.5013 20.5187C13.1875 20.355 12.8125 20.355 12.4987 20.5187L7.98725 22.8747C7.19709 23.2875 6.27344 22.6207 6.42446 21.7466L7.28596 16.7561C7.34603 16.4092 7.23005 16.0549 6.9764 15.8092L3.32641 12.2749C2.68727 11.6558 3.0398 10.5775 3.9234 10.4502L8.96765 9.72208C9.31851 9.67152 9.6218 9.4527 9.77867 9.13691L12.0344 4.59646C12.4291 3.80118 13.5705 3.80118 13.9656 4.59646Z"
          fill="#FFE7A9"/>
</svg>
