<svg width="37" height="35" viewBox="0 0 37 35" fill="none" xmlns="http://www.w3.org/2000/svg">
    <path d="M18.6873 24.3857C17.6634 24.3857 16.8052 25.2439 16.8052 26.2678C16.8052 27.2917 17.6634 28.15 18.6873 28.15C19.6736 28.15 20.5695 27.2917 20.5243 26.313C20.5695 25.2364 19.7188 24.3857 18.6873 24.3857Z"
          fill="#FFE7A9"/>
    <path d="M36.1088 31.0561C37.2908 29.0158 37.2984 26.5841 36.1239 24.5513L24.334 4.1335C23.167 2.07817 21.059 0.858521 18.695 0.858521C16.331 0.858521 14.2229 2.0857 13.056 4.12597L1.25098 24.5664C0.0765028 26.6217 0.0840315 29.0685 1.27357 31.1088C2.44804 33.1265 4.54855 34.3386 6.8975 34.3386H30.4473C32.8037 34.3386 34.9193 33.1114 36.1088 31.0561ZM33.5491 29.5805C32.8941 30.7098 31.7347 31.3798 30.4397 31.3798H6.88997C5.61009 31.3798 4.4582 30.7248 3.81826 29.6181C3.1708 28.4963 3.16327 27.1562 3.81073 26.0269L15.6157 5.59407C16.2557 4.47229 17.4 3.80977 18.695 3.80977C19.9824 3.80977 21.1343 4.47982 21.7742 5.60159L33.5717 26.0345C34.2041 27.1336 34.1965 28.4587 33.5491 29.5805Z"
          fill="#FFE7A9"/>
    <path d="M18.2206 11.1728C17.3247 11.4288 16.7676 12.2419 16.7676 13.2282C16.8128 13.8229 16.8504 14.4252 16.8956 15.02C17.0236 17.2861 17.1515 19.5071 17.2795 21.7732C17.3247 22.5412 17.9195 23.0983 18.6874 23.0983C19.4553 23.0983 20.0576 22.5035 20.0953 21.7281C20.0953 21.2613 20.0953 20.8321 20.1404 20.3578C20.2232 18.9048 20.3136 17.4518 20.3964 15.9987C20.4416 15.0576 20.5244 14.1165 20.5696 13.1755C20.5696 12.8367 20.5244 12.5355 20.3964 12.2344C20.0124 11.3912 19.1165 10.962 18.2206 11.1728Z"
          fill="#FFE7A9"/>
</svg>
