<svg xmlns:xlink="http://www.w3.org/1999/xlink" xmlns="http://www.w3.org/2000/svg" aria-hidden="true" height="22" viewBox="0 0 36 36" width="22"><g fill="none" fill-rule="evenodd" stroke="none" stroke-width="1"><polygon points="0 36 36 36 36 0 0 0" fill="none"></polygon><path class="x148u3ch" d="M22.001,11.0081937 L19,11.0081937 L19,23.007676 C19,23.5599911 18.5525,24.0073413 18,24.0073413 C17.448,24.0073413 17,23.5599911 17,23.007676 L17,11.0081937 L13.998,11.0081937 C13.199,11.0081937 12.7225,10.1169921 13.166,9.45171483 L17.1675,3.44572576 C17.5635,2.85142475 18.436,2.85142475 18.832,3.44572576 L22.8335,9.45171483 C23.2765,10.1169921 22.8,11.0081937 22.001,11.0081937 M24,31 L12,31 C9.791,31 8,29.2105991 8,27.0028383 L8,18.0103492 C8,15.8030883 9.791,14.0131875 12,14.0131875 L14,14.0131875 C14.5525,14.0131875 15,14.4610376 15,15.0128528 C15,15.5646681 14.5525,16.0120183 14,16.0120183 L12,16.0120183 C10.8955,16.0120183 10,16.9067187 10,18.0103492 L10,27.0028383 C10,28.1064688 10.8955,29.0011693 12,29.0011693 L24,29.0011693 C25.1045,29.0011693 26,28.1064688 26,27.0028383 L26,18.0103492 C26,16.9067187 25.1045,16.0120183 24,16.0120183 L22,16.0120183 C21.448,16.0120183 21,15.5646681 21,15.0128528 C21,14.4610376 21.448,14.0131875 22,14.0131875 L24,14.0131875 C26.2095,14.0131875 28,15.8030883 28,18.0103492 L28,27.0028383 C28,29.2105991 26.2095,31 24,31" fill="#65676B"></path></g></svg>