<svg width="15" height="15" viewBox="0 0 15 15" fill="none" xmlns="http://www.w3.org/2000/svg">
<path d="M14.9745 7.63128L14.9617 7.63802L12.8098 1.98272H13.7917C13.9678 1.98272 14.1105 1.832 14.1105 1.6461C14.1105 1.46019 13.9678 1.30947 13.7917 1.30947H7.79171V0.336625C7.79171 0.150724 7.64896 0 7.4729 0C7.29684 0 7.15409 0.150724 7.15409 0.336625V1.3061H1.15728C0.981217 1.3061 0.83847 1.45683 0.83847 1.64273C0.83847 1.82863 0.981217 1.97935 1.15728 1.97935H2.18066L0.0255048 7.63128C0.00956429 7.67071 0.000916578 7.713 0 7.75583C0 9.3017 1.18685 10.5549 2.6509 10.5549C4.11496 10.5549 5.30181 9.3017 5.30181 7.75583C5.30089 7.713 5.29224 7.67071 5.2763 7.63128L3.12434 1.97599H7.15409V12.3844C5.63337 12.5056 4.44421 13.4818 4.44421 14.6634C4.44421 14.8493 4.58696 15 4.76302 15H10.1828C10.3588 15 10.5016 14.8493 10.5016 14.6634C10.5016 13.4818 9.31243 12.5056 7.79171 12.3844V1.97599H11.8629L9.7237 7.63128C9.70776 7.67071 9.69911 7.713 9.69819 7.75583C9.69819 9.3017 10.885 10.5549 12.3491 10.5549C13.8132 10.5549 15 9.3017 15 7.75583C14.9991 7.713 14.9904 7.67071 14.9745 7.63128ZM2.64931 9.88667C1.66188 9.88524 0.820935 9.12842 0.663124 8.09919H4.62274C4.46573 9.12341 3.63192 9.87867 2.64931 9.88667ZM4.50797 7.42594H0.797024L2.65569 2.54152L4.50797 7.42594ZM9.80659 14.3268H5.13603C5.37195 13.603 6.34431 13.0442 7.46971 13.0442C8.59511 13.0442 9.57067 13.603 9.80659 14.3268ZM12.3348 2.54488L14.187 7.42594H10.4761L12.3348 2.54488ZM12.3348 9.88667V9.89004C11.3511 9.88175 10.5169 9.12476 10.3613 8.09919H14.3209C14.1631 9.12842 13.3222 9.88524 12.3348 9.88667Z" fill="#6f0cdb"/>
</svg>
