<svg width="35" height="35" viewBox="0 0 35 35" fill="none" xmlns="http://www.w3.org/2000/svg">
<path d="M32.6524 8.75124C27.8207 0.382598 17.1193 -2.48488 8.75132 2.34763C0.38268 7.17859 -2.48491 17.8796 2.3476 26.2479C7.17856 34.6165 17.8797 37.4845 26.2477 32.6524C34.6165 27.8198 37.4854 17.1193 32.6524 8.75124ZM24.4985 29.6209C17.8045 33.487 9.24289 31.1929 5.3779 24.4976C1.51202 17.8037 3.80692 9.24214 10.5011 5.37793C17.1954 1.51205 25.7566 3.80595 29.6218 10.501C33.4872 17.1959 31.1929 25.7557 24.4985 29.6209ZM23.7987 16.7886L14.6367 11.4451C13.8018 10.9577 13.1284 11.3474 13.1331 12.3131L13.18 22.9194C13.1842 23.8849 13.8659 24.2779 14.7033 23.7943L23.7952 18.5451C24.6316 18.0623 24.6334 17.276 23.7987 16.7886Z" fill="#4988D1"/>
</svg>
