<svg width="35" height="35" viewBox="0 0 35 35" fill="none" xmlns="http://www.w3.org/2000/svg">
<path d="M32.6524 8.75124C27.8207 0.382598 17.1193 -2.48488 8.75132 2.34763C0.38268 7.17859 -2.48491 17.8796 2.3476 26.2479C7.17856 34.6165 17.8797 37.4845 26.2477 32.6524C34.6165 27.8198 37.4854 17.1193 32.6524 8.75124ZM24.4985 29.6209C17.8045 33.487 9.24289 31.1929 5.3779 24.4976C1.51202 17.8037 3.80692 9.24214 10.5011 5.37793C17.1954 1.51205 25.7566 3.80595 29.6218 10.501C33.4872 17.1959 31.1929 25.7557 24.4985 29.6209Z" fill="#4988D1"/>
<rect x="12" y="11" width="3" height="14" rx="1" fill="#4988D1"/>
<rect x="20" y="11" width="3" height="14" rx="1" fill="#4988D1"/>
</svg>
