<svg width="36" height="35" viewBox="0 0 36 35" fill="none" xmlns="http://www.w3.org/2000/svg">
    <path d="M26.1345 22.4739C25.6037 22.1714 25.0493 22.0119 24.531 22.0119C23.7595 22.0119 23.1273 22.3654 22.7448 23.0082C22.1394 23.7322 21.3886 24.5773 21.2077 24.7083C19.7976 25.6631 18.6952 25.5557 17.4747 24.3353L10.6634 17.5234C9.45074 16.3107 9.33925 15.1941 10.2893 13.7922C10.4221 13.6084 11.2671 12.8582 11.9906 12.2534C12.452 11.9782 12.7686 11.5708 12.9074 11.0697C13.0918 10.4038 12.9554 9.6204 12.5202 8.85719C12.4176 8.68166 9.97674 4.54602 7.72568 3.35585C7.30523 3.13347 6.8326 3.01605 6.3576 3.01605C5.57602 3.01605 4.84069 3.32086 4.28859 3.87295L2.78413 5.37742C-1.60473 9.76687 -0.79231 15.219 5.13363 21.1443L13.8538 29.8651C17.2607 33.2726 20.5098 35 23.5086 35C23.5092 35 23.5092 35 23.5092 35C25.7158 35 27.7718 34.0625 29.6208 32.2141L31.1252 30.7096C32.0391 29.7958 32.2472 28.4146 31.6423 27.2725C30.4516 25.022 26.3165 22.58 26.1345 22.4739Z"
          fill="#0D7600"/>
    <path d="M16.2258 0C15.8979 0 15.6328 0.265075 15.6328 0.593009C15.6328 0.920943 15.8979 1.18602 16.2258 1.18602C26.2429 1.18602 34.3927 9.33575 34.3927 19.3529C34.3927 19.6808 34.6577 19.9459 34.9857 19.9459C35.3136 19.9459 35.5787 19.6808 35.5787 19.3529C35.5787 8.68166 26.897 0 16.2258 0Z"
          fill="#0D7600"/>
    <path d="M16.2258 5.35487C23.9444 5.35487 30.2232 11.6342 30.2232 19.3523C30.2232 19.6802 30.4883 19.9453 30.8162 19.9453C31.1442 19.9453 31.4092 19.6802 31.4092 19.3523C31.4092 10.9802 24.5979 4.16885 16.2258 4.16885C15.8979 4.16885 15.6328 4.43393 15.6328 4.76186C15.6328 5.0898 15.8979 5.35487 16.2258 5.35487Z"
          fill="#0D7600"/>
    <path d="M16.2258 9.52373C21.6459 9.52373 26.055 13.9333 26.055 19.3529C26.055 19.6808 26.32 19.9459 26.648 19.9459C26.9759 19.9459 27.241 19.6808 27.241 19.3529C27.241 13.2793 22.2994 8.33771 16.2258 8.33771C15.8979 8.33771 15.6328 8.60278 15.6328 8.93072C15.6328 9.25865 15.8979 9.52373 16.2258 9.52373Z"
          fill="#0D7600"/>
</svg>
