<svg width="78" height="78" viewBox="0 0 78 78" fill="none" xmlns="http://www.w3.org/2000/svg">
    <path d="M78 39C78 60.5391 60.5391 78 39 78C17.4609 78 0 60.5391 0 39C0 17.4609 17.4609 0 39 0C60.5391 0 78 17.4609 78 39Z"
          fill="#FF3931"/>
    <path d="M18.1347 48.2848L26.2698 48.2874C27.8868 48.2845 29.2042 46.9188 29.2044 45.2418L29.2059 41.144C29.4067 41.0859 29.6153 41.0265 29.8352 40.9647C31.8464 40.3882 34.6004 39.6006 38.3291 39.6029C42.0672 39.6036 44.8245 40.3945 46.8383 40.9707C47.0514 41.032 47.2563 41.0916 47.4537 41.1455L47.451 43.894L47.4515 45.2471C47.4513 46.9266 48.769 48.2913 50.3864 48.2927L58.522 48.2957C60.1383 48.2959 61.4563 46.9296 61.4565 45.2501L61.4505 42.9509L61.3881 42.9511C61.2823 42.0762 61.038 41.1893 60.6673 40.3402C60.3072 39.5391 59.8904 38.8477 59.3981 38.2297C55.4841 33.2392 49.3809 31.2031 38.3375 31.2002C23.0729 31.1968 17.4968 37.9228 17.2595 38.2162C16.7505 38.8631 16.3346 39.555 15.9901 40.3363C15.6214 41.1772 15.3766 42.0631 15.2698 42.9368L15.2225 42.9396L15.1978 45.238C15.1992 46.9156 16.5164 48.2818 18.1347 48.2848Z"
          fill="white"/>
</svg>
