<svg width="31" height="12" viewBox="0 0 31 12" fill="none" xmlns="http://www.w3.org/2000/svg">
<g filter="url(#filter0_d)">
<path d="M22.1392 3.89966H21.6924C21.8453 3.90653 21.9983 3.90653 22.1392 3.89966Z" fill="white"/>
<path d="M20.0459 3.61782C20.0118 3.60417 19.9759 3.59548 19.9393 3.59204C19.9743 3.60264 20.0099 3.61125 20.0459 3.61782Z" fill="white"/>
<path d="M22.7837 4.02162H22.7613C22.6634 4.00959 22.7012 4.01475 22.7837 4.02162Z" fill="white"/>
<path d="M22.6857 3.88927C22.6035 3.86101 22.519 3.83974 22.4331 3.82568C22.516 3.85194 22.6003 3.87317 22.6857 3.88927Z" fill="white"/>
<path d="M20.1438 1.24609C20.1558 1.28562 20.1644 1.30968 20.1644 1.30968L20.1438 1.24609Z" fill="white"/>
<path d="M20.1353 0.359272C20.0511 0.338649 20.015 0.445204 20.0047 0.507075C20.002 0.534509 20.002 0.562135 20.0047 0.589569C20.0347 0.811412 20.0807 1.03081 20.1421 1.24609C20.0994 1.10822 20.0734 0.965684 20.0648 0.821585C20.0648 0.833616 20.0648 0.843928 20.0648 0.855959C20.0923 1.09313 20.1782 1.5795 20.4893 1.61388C20.6801 1.69637 20.8691 1.78574 21.0599 1.86995C21.0204 1.8837 20.9447 1.86995 21.096 1.94042C21.5119 1.98854 22.299 2.58319 22.6874 2.7774L22.5431 2.71381C22.7304 2.83755 22.9195 2.96301 23.1051 3.09019C23.1176 3.0921 23.1304 3.0921 23.1429 3.09019C23.4861 3.37588 23.8555 3.6285 24.2462 3.84467C24.401 3.90347 24.5486 3.97957 24.6862 4.07153H24.602L24.7051 4.08356C24.877 4.18668 25.0712 4.3087 25.2568 4.42729L25.1417 4.40494C25.1743 4.3912 25.1674 4.37229 25.0763 4.33792C24.9045 4.29495 24.7773 4.26574 24.6708 4.24683L24.5333 4.16262L24.6433 4.24167C24.4785 4.21513 24.3111 4.20878 24.1448 4.22277L23.6379 4.14371C23.5365 4.087 23.6207 4.04231 23.0105 3.95638L23.5261 3.97185C23.0518 3.79998 23.0518 3.95466 22.6806 3.88592C22.8512 3.96223 23.0351 4.00428 23.2219 4.00966C23.2598 4.05778 22.9332 4.032 22.7785 4.00966L22.8765 4.02513H22.8507C22.4228 3.97357 21.9914 3.9306 21.5669 3.89107H21.5445H21.6855C21.3418 3.87904 20.998 3.84811 20.644 3.82233L20.6577 3.81373H20.5735L20.0803 3.77936C20.1267 3.76217 20.1061 3.74671 19.9084 3.73983C19.9943 3.6814 20.1903 3.71749 20.2865 3.72093C20.5031 3.73124 20.7213 3.75014 20.9362 3.77764C20.7927 3.77629 20.6511 3.74528 20.5202 3.68656C20.4927 3.66765 20.5374 3.66078 20.5512 3.65906C20.6421 3.65047 20.7336 3.65047 20.8244 3.65906C20.6852 3.58344 20.3243 3.65906 20.0476 3.60234C20.0957 3.62468 20.0047 3.64015 20.0236 3.66249C20.015 3.57312 18.9924 3.59375 18.9735 3.66249L19.4891 3.64015C19.5114 3.68484 19.2725 3.70546 19.135 3.7278C17.7928 3.66078 16.4385 3.62125 15.0945 3.6814C15.0945 3.64703 15.2114 3.60406 15.0498 3.57828C14.4483 3.56625 14.5342 3.64531 14.4913 3.70546C13.051 3.76561 11.7294 3.87732 10.5384 4.00966C10.5384 3.99591 10.5573 3.97872 10.6175 3.95466C10.2308 3.98388 10.4095 3.99419 10.4611 4.01825L9.89734 4.08528C9.87328 4.06981 9.85094 4.05091 10.0383 4.01653C9.71517 4.02856 9.67564 4.07153 9.6447 4.11793C9.28035 4.16605 8.92975 4.21418 8.5929 4.26574C8.5352 4.26398 8.47773 4.25766 8.42103 4.24683C8.22745 4.27435 8.03695 4.3204 7.85216 4.38432L7.30907 4.47885C7.38985 4.45135 7.43797 4.42213 7.41735 4.38948C7.10945 4.49924 6.79261 4.58205 6.47038 4.63696C6.10832 4.70915 5.74683 4.78591 5.38592 4.86726C4.80731 4.99673 4.23443 5.13823 3.66728 5.29176C3.28746 5.39316 2.90936 5.49972 2.53298 5.60627C2.41783 5.63721 2.3044 5.66986 2.18925 5.69564C2.0741 5.72142 2.0277 5.86751 2.01739 5.98609C1.97955 6.2538 2.00366 6.52662 2.08785 6.78354C2.10393 6.89204 2.1432 6.99579 2.203 7.08774C2.30096 7.19773 2.41611 7.14102 2.54673 7.11008C3.669 6.83166 4.76377 6.45012 5.88432 6.16655C6.02536 6.16063 6.16381 6.12675 6.29164 6.06687L6.68005 5.97406C6.5735 6.0325 6.49444 6.09437 6.38616 6.14593C6.56467 6.08713 6.73729 6.01175 6.90176 5.92078L7.2558 5.84173C7.27986 5.84173 7.2558 5.86922 7.27986 5.87954C7.36927 5.8505 7.45705 5.81665 7.54281 5.77814L8.50525 5.57018C8.63517 5.55577 8.76348 5.5293 8.8885 5.49113C9.0724 5.45332 9.25801 5.41894 9.4419 5.38457C9.81313 5.31754 10.1861 5.25911 10.559 5.20411C10.6096 5.20314 10.6601 5.21009 10.7085 5.22474C10.7308 5.20239 10.7571 5.18433 10.7859 5.17146C11.1038 5.12849 11.4218 5.08724 11.7397 5.05287C11.9889 5.0374 12.2398 5.02537 12.489 5.01334C12.6901 5.09412 11.9958 5.08896 11.6847 5.17146C12.5647 5.09928 12.2811 5.09584 12.9411 4.97725C13.1129 4.96694 13.326 4.93085 13.5409 4.89476C13.8313 4.87585 14.12 4.85867 14.4002 4.84492L14.3349 4.85867C14.9364 4.81914 14.658 4.9446 15.2509 4.86898C15.165 4.85523 15.055 4.83632 14.9312 4.82257C15.275 4.81112 15.6187 4.80138 15.9624 4.79336C16.0638 4.79336 16.1102 4.8157 16.0346 4.85179C16.242 4.85483 16.449 4.83407 16.6516 4.78992C16.8235 4.78992 17.0039 4.78992 17.1792 4.78992C16.9558 4.8432 16.478 4.85351 17.0073 4.90335L17.4989 4.8346C17.5814 4.8707 18.3582 4.89132 18.3204 4.97038C18.5954 4.97038 18.6401 4.936 18.8635 4.92397C19.0679 4.98468 19.2832 4.99994 19.4942 4.96866C18.3307 4.86038 18.6796 4.85695 17.6707 4.80711C17.6874 4.79941 17.7057 4.79587 17.724 4.7968C18.5713 4.81398 19.4186 4.85351 20.2624 4.90851C20.3398 4.94288 20.0631 4.96522 20.0201 4.99444C20.6268 5.06318 20.6646 4.94632 21.1957 5.02537C20.3673 5.02537 21.4896 5.09412 21.7559 5.16458C21.615 5.08381 21.3469 5.00991 20.8227 4.94804C22.4984 5.04962 24.1643 5.2748 25.8068 5.62174C25.6194 5.64924 25.4338 5.68017 25.2482 5.70939L25.1554 5.69564L25.207 5.71627C24.9285 5.75981 24.6501 5.80449 24.3717 5.85032C24.358 5.85032 24.3511 5.85032 24.3528 5.84173L24.3081 5.86063C24.0389 5.90532 23.769 5.95172 23.4986 5.99984C23.6036 5.94826 23.7162 5.91402 23.8321 5.89844C23.0999 5.9225 21.7697 6.21123 21.2764 6.44841L21.2455 6.457C20.6938 6.51543 21.6425 6.26451 21.933 6.15624C21.56 6.22498 21.1888 6.3006 20.8176 6.37966L20.7299 6.40028C20.7024 6.40028 20.6543 6.42091 20.6165 6.43122L20.4962 6.46559C20.1989 6.5309 20.259 7.00009 20.3054 7.2132C20.3587 7.45209 20.5099 7.93503 20.8313 7.9144L20.9499 7.89894C21.8642 7.68926 22.7803 7.49334 23.6997 7.32835C23.7135 7.20976 23.8991 7.21836 24.1741 7.09118L24.358 7.10149C24.2978 7.10149 24.3923 7.04477 24.358 7.01899C25.3032 6.85744 26.2485 6.69761 27.2057 6.59449C27.0576 6.66528 26.9035 6.72279 26.7451 6.76635C27.1265 6.67918 27.5158 6.63195 27.9069 6.62543H28.0118C28.2421 6.62543 28.4741 6.72339 28.6992 6.67011C29.0155 6.61339 28.8453 6.08921 28.7714 5.90704C28.9192 6.06171 28.988 6.45872 28.8659 6.63574C28.7233 6.84369 28.3761 6.74058 28.1699 6.73714C28.095 6.73154 28.0197 6.73154 27.9448 6.73714C28.1751 6.73714 28.4036 6.79041 28.6322 6.76979C28.6913 6.76854 28.7491 6.75207 28.8 6.72196C28.8509 6.69185 28.8931 6.64913 28.9227 6.59793C28.9488 6.54382 28.9656 6.48573 28.9725 6.42606C28.9725 6.40372 28.9725 6.30748 29 6.29373C28.9706 6.25211 28.9384 6.2125 28.9038 6.17514C28.9038 6.14936 28.8316 5.84516 28.835 5.84516C28.8728 5.84516 28.9313 5.9775 28.9536 6.005C28.9759 6.0325 28.9777 6.03765 28.9845 6.0325C28.9914 6.02734 28.9845 6.00328 28.9845 5.97406C28.942 5.76738 28.8514 5.57365 28.7199 5.40863C28.646 5.32957 28.4535 5.13708 28.3314 5.2213C28.3001 5.24025 28.2641 5.25027 28.2275 5.25027C28.1908 5.25027 28.1549 5.24025 28.1235 5.2213C27.9344 5.09927 27.7454 4.97725 27.5615 4.84664C27.5153 4.80942 27.4665 4.77553 27.4154 4.74524C27.2796 4.64899 27.1456 4.55103 27.0115 4.45307C27.1009 4.48057 27.0768 4.41354 27.0614 4.37057C26.5234 4.19871 26.5458 3.95294 25.6865 3.41673C25.7002 3.35829 26.1058 3.62296 26.1866 3.6075C25.7071 3.32564 24.9835 2.88051 24.8306 2.89254C24.2239 2.49898 23.6275 2.09166 22.9848 1.75481C23.0363 1.78059 23.2804 1.94042 23.3474 1.88199C23.4144 1.82355 23.5382 1.88198 23.6121 1.91464C22.9246 1.64138 22.2372 1.34061 21.5497 1.08626C21.206 0.917829 20.8623 0.75685 20.5185 0.603319C20.5185 0.579258 20.5409 0.562071 20.6062 0.548322C20.4485 0.469024 20.284 0.404027 20.1146 0.354115C20.1043 0.352397 20.1714 0.371303 20.1353 0.359272ZM25.3943 4.31214L25.2345 4.20215L25.3977 4.31214H25.3943ZM23.7977 3.32392C23.6972 3.28018 23.6034 3.22231 23.5193 3.15206L23.7977 3.32392ZM23.7977 3.32392C24.0051 3.44537 24.2113 3.56911 24.4164 3.69515C24.2167 3.57737 24.0053 3.48061 23.7857 3.40642C23.6447 3.29986 23.6963 3.28783 23.7977 3.32392C24.0125 3.43735 23.7032 3.27924 23.8046 3.31533L23.7977 3.32392ZM25.3616 4.31386H25.3393H25.3685C25.4098 4.3362 25.451 4.35854 25.4923 4.38432L25.3943 4.3173L25.5198 4.39979L25.4905 4.3826L25.5163 4.39979H25.4682C25.4871 4.4376 25.5524 4.46682 25.6401 4.49088L25.6899 4.52353L25.6315 4.5115C25.4321 4.38948 25.1657 4.25371 24.9921 4.1334C25.1168 4.18363 25.2384 4.24102 25.3565 4.30526C25.3565 4.30526 25.2327 4.22793 25.3685 4.30526L25.3616 4.31386ZM25.4768 4.43588L25.5748 4.50463L25.4871 4.48744H25.5232L25.408 4.46338L25.4768 4.43588ZM20.6216 4.98756C20.5103 4.98934 20.4 4.96645 20.2985 4.92054L20.6835 4.94804L20.6216 4.98756ZM23.2821 1.98338C23.2821 2.0126 23.5261 2.13119 23.5519 2.15525C23.71 2.25264 23.8681 2.35232 24.0263 2.45429C23.8149 2.32539 23.6018 2.19993 23.3869 2.07619C23.3612 2.05213 23.3268 2.02463 23.2821 1.99026V1.98338Z" fill="white"/>
<path d="M24.3735 5.84342L24.4217 5.81592C24.4038 5.82138 24.3873 5.83078 24.3735 5.84342Z" fill="white"/>
<path d="M23.1137 3.09692C23.0914 3.10022 23.0689 3.10022 23.0466 3.09692C23.0999 3.11583 23.124 3.11755 23.1137 3.09692Z" fill="white"/>
<path d="M22.7803 3.04378C22.7287 2.97332 22.9092 3.06956 23.0467 3.09362C22.8525 3.01456 22.385 2.76192 22.7803 3.04378Z" fill="white"/>
<path d="M23.8579 5.40341L23.5589 5.34497L23.1429 5.40169C23.7874 5.4859 23.5107 5.36903 24.1552 5.46528L23.8579 5.40341Z" fill="white"/>
<path d="M22.4709 5.18179L22.6119 5.16976C22.483 5.16804 22.4555 5.1732 22.4709 5.18179Z" fill="white"/>
<path d="M22.9985 5.31054L22.6978 5.25898C22.6978 5.22976 22.5053 5.19883 22.4778 5.18164L22.1753 5.20914C22.2667 5.20722 22.3581 5.21297 22.4486 5.22633L22.2045 5.28304C22.4623 5.28991 22.727 5.29851 22.9985 5.31054Z" fill="white"/>
<path d="M21.7662 5.16626C21.7817 5.17657 21.8058 5.18688 21.8178 5.19548C21.8298 5.20407 21.804 5.17657 21.7662 5.16626Z" fill="white"/>
<path d="M13.6595 4.93408L13.1646 4.99939L13.5444 4.9822L13.6595 4.93408Z" fill="white"/>
<path d="M10.7223 5.22461C10.7197 5.22905 10.7184 5.23409 10.7184 5.23922C10.7184 5.24435 10.7197 5.24938 10.7223 5.25383C10.736 5.24867 10.7378 5.2332 10.7223 5.22461Z" fill="white"/>
<path d="M6.39123 6.14575L6.19702 6.21278C6.26401 6.1976 6.32914 6.17512 6.39123 6.14575Z" fill="white"/>
<path d="M10.8117 5.32088L10.8718 5.26245L10.6536 5.31401L10.8117 5.32088Z" fill="white"/>
<path d="M5.984 6.27988L5.81213 6.37268L5.95134 6.32284C6.07165 6.30222 6.10774 6.25925 5.984 6.27988Z" fill="white"/>
<path d="M5.07312 6.43472L4.89954 6.53268L5.38763 6.40894L5.07312 6.43472Z" fill="white"/>
<path d="M16.7667 3.55239C17.2113 3.58241 17.6575 3.58241 18.1021 3.55239C17.6415 3.49739 17.2222 3.55755 16.7667 3.55239Z" fill="white"/>
<path d="M21.5514 3.53003C21.4363 3.54378 21.2781 3.54034 21.5239 3.57128L21.0702 3.65893C21.7301 3.75517 21.5686 3.58674 21.5514 3.53003C21.5686 3.58503 21.4363 3.54206 21.5514 3.53003Z" fill="white"/>
<path d="M24.0435 4.0011L24.2755 4.03032C24.2039 3.99376 24.1218 3.98342 24.0435 4.0011Z" fill="white"/>
<path d="M24.5263 4.07153H24.6105L24.2754 4.02856C24.3551 4.0603 24.4407 4.07437 24.5263 4.06981V4.07153Z" fill="white"/>
<path d="M20.6783 0.41748C20.7031 0.437048 20.7295 0.454307 20.7574 0.46904L20.6783 0.41748Z" fill="white"/>
<path d="M19.9461 0.238875C19.721 0.457142 19.7949 0.871334 19.8619 1.13944L19.8757 1.19272L19.8877 1.23053L19.9118 1.30443C19.9559 1.45557 20.0355 1.59401 20.1438 1.70831C20.2646 1.80126 20.3991 1.87489 20.5425 1.92658L20.4703 1.81315L20.3483 1.75643C20.2851 1.73302 20.2268 1.69805 20.1764 1.65331C19.9933 1.44632 19.8791 1.18742 19.8499 0.912581C19.8207 0.769114 19.8207 0.621232 19.8499 0.477766C19.8688 0.383241 19.9513 0.182161 20.0819 0.216533C20.23 0.228153 20.3752 0.264155 20.5116 0.323088C20.5717 0.355742 20.6284 0.386678 20.6834 0.417614C20.6828 0.413051 20.6828 0.408427 20.6834 0.403864C20.7041 0.391834 20.9034 0.465736 20.9069 0.443393C20.9154 0.393553 20.5064 0.238876 20.4634 0.218252H20.4119C20.301 0.217427 20.1903 0.210542 20.0802 0.197628C20.0693 0.196819 20.0584 0.196819 20.0475 0.197628C20.0143 0.207943 19.9837 0.225559 19.9582 0.249188C19.8722 0.311059 19.965 0.221689 19.9461 0.238875Z" fill="white"/>
<path d="M21.2799 0.83873C21.4999 0.953878 21.7577 1.04325 21.6494 0.955597C21.4243 0.955597 21.4346 0.783734 21.1716 0.723581C21.0599 0.694364 21.206 0.782015 21.2799 0.83873C21.1974 0.780296 21.4913 0.95216 21.2799 0.83873Z" fill="white"/>
<path d="M23.8286 2.17056C24.3442 2.48336 24.2617 2.3304 24.5488 2.4507C24.1414 2.13791 23.6894 2.01417 24.0074 2.24619C23.8355 2.14135 23.5846 2.00386 23.8355 2.17056C24.3528 2.48336 23.5846 2.00386 23.8286 2.17056Z" fill="white"/>
<path d="M28.053 4.99954L27.9207 4.89471L27.6973 4.86377L28.053 4.99954Z" fill="white"/>
<path d="M26.8105 6.8986L27.1542 6.85048L26.9273 6.82642L26.4788 6.95016L26.8225 6.8986H26.8105Z" fill="white"/>
<path d="M25.6298 6.99829H25.8429C26.135 6.97422 26.0285 6.94157 26.2278 6.91235L25.6298 6.99829Z" fill="white"/>
<path d="M24.4834 7.19238L24.4319 7.2027L24.4834 7.19238Z" fill="white"/>
<path d="M24.6003 7.18897L25.1365 7.05835L24.4834 7.1924C24.5221 7.18713 24.5613 7.18598 24.6003 7.18897Z" fill="white"/>
</g>
<defs>
<filter id="filter0_d" x="0" y="0.197021" width="31" height="11.718" filterUnits="userSpaceOnUse" color-interpolation-filters="sRGB">
<feFlood flood-opacity="0" result="BackgroundImageFix"/>
<feColorMatrix in="SourceAlpha" type="matrix" values="0 0 0 0 0 0 0 0 0 0 0 0 0 0 0 0 0 0 127 0"/>
<feOffset dy="2"/>
<feGaussianBlur stdDeviation="1"/>
<feColorMatrix type="matrix" values="0 0 0 0 0 0 0 0 0 0 0 0 0 0 0 0 0 0 0.25 0"/>
<feBlend mode="normal" in2="BackgroundImageFix" result="effect1_dropShadow"/>
<feBlend mode="normal" in="SourceGraphic" in2="effect1_dropShadow" result="shape"/>
</filter>
</defs>
</svg>
