<svg width="291" height="21" viewBox="0 0 291 21" fill="none" xmlns="http://www.w3.org/2000/svg">
    <path d="M11.8003 5.00263C11.0035 5.00318 10.2232 5.23368 9.54991 5.66736C8.87667 6.10104 8.33813 6.72011 7.99684 7.4527C7.72504 6.86566 7.32535 6.34934 6.82812 5.94293C6.33089 5.53652 5.74918 5.25071 5.12716 5.10719C4.50515 4.96367 3.85917 4.96622 3.23826 5.11465C2.61735 5.26307 2.03784 5.55346 1.54373 5.96379C1.04961 6.37411 0.653869 6.89357 0.386551 7.48273C0.119232 8.0719 -0.012635 8.71529 0.000953036 9.36405C0.014541 10.0128 0.173229 10.6499 0.464973 11.227C0.756717 11.804 1.17385 12.3058 1.68469 12.6944C1.76199 12.7533 1.84995 12.7962 1.94355 12.8206C2.03714 12.845 2.13454 12.8504 2.23018 12.8365C2.32582 12.8225 2.41782 12.7896 2.50095 12.7395C2.58408 12.6894 2.65669 12.6232 2.71465 12.5445C2.7726 12.4659 2.81476 12.3764 2.83873 12.2812C2.86269 12.1859 2.86798 12.0868 2.8543 11.9895C2.84063 11.8922 2.80825 11.7986 2.75901 11.7141C2.70977 11.6295 2.64465 11.5556 2.56735 11.4966C2.1096 11.1473 1.77144 10.6603 1.60072 10.1046C1.43 9.54889 1.43537 8.95265 1.61606 8.40024C1.79675 7.84783 2.14363 7.36721 2.60758 7.02642C3.07154 6.68562 3.62909 6.5019 4.20133 6.50125C4.5616 6.50292 4.91801 6.57685 5.25017 6.71881C5.58232 6.86076 5.8837 7.06796 6.13707 7.32854C6.39044 7.58912 6.59082 7.89798 6.72675 8.23743C6.86267 8.57688 6.93147 8.94027 6.92922 9.3068L7.26492 17.627C7.27539 17.8179 7.35731 17.9975 7.49385 18.1289C7.63039 18.2603 7.81119 18.3335 7.99913 18.3335C8.18707 18.3335 8.36787 18.2603 8.50441 18.1289C8.64095 17.9975 8.72287 17.8179 8.73334 17.627L9.07589 9.27079C9.07575 8.79747 9.19459 8.33197 9.42112 7.91855C9.64765 7.50513 9.97434 7.15752 10.3701 6.90876C10.7659 6.66001 11.2177 6.51837 11.6824 6.49732C12.1472 6.47627 12.6096 6.5765 13.0255 6.78849C13.4415 7.00047 13.7972 7.31717 14.059 7.70847C14.3207 8.09978 14.4797 8.55269 14.5209 9.02415C14.5621 9.49561 14.4841 9.96996 14.2944 10.4021C14.1046 10.8343 13.8093 11.2098 13.4366 11.4932C13.3593 11.552 13.2942 11.6258 13.2449 11.7103C13.1956 11.7948 13.1632 11.8884 13.1495 11.9856C13.1358 12.0829 13.141 12.1819 13.1649 12.2771C13.1888 12.3723 13.2309 12.4618 13.2888 12.5404C13.3466 12.6191 13.4192 12.6854 13.5022 12.7355C13.5853 12.7856 13.6772 12.8186 13.7728 12.8326C13.8684 12.8465 13.9658 12.8412 14.0593 12.8169C14.1529 12.7926 14.2408 12.7498 14.3181 12.6909C15.0238 12.1537 15.5453 11.4042 15.809 10.5486C16.0726 9.69303 16.0649 8.77473 15.787 7.92383C15.5091 7.07293 14.9751 6.33258 14.2606 5.80766C13.5461 5.28274 12.6874 4.99988 11.8061 4.99915L11.8003 5.00263Z"
          fill="#7490CA"/>
    <path d="M27.3037 6.46104C27.3262 6.46104 27.8669 6.3485 28.705 6.75138C29.0813 6.93369 29.4057 7.35008 29.8957 7.98029C30.2652 8.45407 30.7361 9.06064 31.3996 9.78088C30.53 10.2901 29.8521 11.0709 29.4703 12.0029C29.0885 12.9349 29.024 13.9664 29.2867 14.9386C29.5494 15.9108 30.1247 16.7698 30.9241 17.3832C31.7235 17.9967 32.7026 18.3306 33.7106 18.3335C34.7186 18.3364 35.6996 18.0082 36.5025 17.3994C37.3055 16.7905 37.8858 15.9349 38.1541 14.9642C38.4224 13.9936 38.3639 12.9617 37.9875 12.0275C37.6111 11.0933 36.9378 10.3087 36.0711 9.79439C36.7414 9.07078 37.2156 8.46082 37.5874 7.98366C38.0774 7.35346 38.4018 6.93707 38.7769 6.75589C39.5993 6.35863 40.1287 6.45541 40.1771 6.46441C40.2694 6.48798 40.3655 6.49316 40.4598 6.47965C40.5541 6.46614 40.6449 6.4342 40.7268 6.38566C40.8088 6.33712 40.8803 6.27293 40.9375 6.19675C40.9946 6.12057 41.0361 6.0339 41.0597 5.94168C41.0833 5.84946 41.0885 5.7535 41.075 5.65928C41.0615 5.56506 41.0295 5.47443 40.9809 5.39255C40.9323 5.31067 40.8681 5.23916 40.7918 5.18209C40.7156 5.12502 40.6288 5.08352 40.5365 5.05995C40.4317 5.03181 39.4776 4.80674 38.1461 5.45045C37.4634 5.77906 37.0343 6.33049 36.4417 7.09462C35.8736 7.84416 35.26 8.55824 34.6044 9.23283C34.0332 9.1203 33.4454 9.1203 32.8742 9.23283C32.2202 8.5608 31.6081 7.84936 31.0414 7.1025C30.4477 6.33837 30.0185 5.78694 29.337 5.45833C28.0044 4.81462 27.0502 5.03969 26.9466 5.06783C26.7645 5.11651 26.6089 5.23481 26.5134 5.39717C26.418 5.55952 26.3902 5.75289 26.4363 5.93549C26.4855 6.11773 26.6031 6.27402 26.7646 6.3719C26.9261 6.46978 27.1192 6.5017 27.3037 6.46104ZM36.8687 13.7309C36.8687 14.3524 36.6842 14.9599 36.3386 15.4766C35.993 15.9933 35.5018 16.396 34.9271 16.6338C34.3524 16.8716 33.72 16.9338 33.1099 16.8126C32.4998 16.6914 31.9394 16.3921 31.4996 15.9527C31.0597 15.5133 30.7602 14.9534 30.6388 14.3439C30.5175 13.7344 30.5797 13.1027 30.8178 12.5285C31.0558 11.9544 31.459 11.4637 31.9762 11.1184C32.4934 10.7732 33.1015 10.5889 33.7235 10.5889C34.5575 10.5895 35.3571 10.9207 35.9468 11.5098C36.5365 12.099 36.8681 12.8978 36.8687 13.7309Z"
          fill="#7490CA"/>
    <path d="M51.6024 17.3437C51.5082 17.485 51.4748 17.6575 51.5095 17.8231C51.5442 17.9887 51.6442 18.1339 51.7875 18.2268C51.9309 18.3197 52.1057 18.3527 52.2737 18.3185C52.4417 18.2842 52.589 18.1856 52.6832 18.0443C52.6932 18.0284 53.766 16.4719 56.8297 16.4719C59.8341 16.4719 60.926 17.974 60.9781 18.0482C61.0729 18.1892 61.2205 18.2872 61.3886 18.3208C61.5566 18.3544 61.7314 18.3208 61.8743 18.2273C62.0172 18.1339 62.1166 17.9883 62.1507 17.8226C62.1848 17.6569 62.1507 17.4846 62.0559 17.3437C62.0118 17.2784 61.213 16.1177 59.2531 15.5309V7.79989C61.213 7.21311 62.0158 6.04846 62.0559 5.98711C62.1501 5.84579 62.1835 5.67335 62.1488 5.50773C62.1141 5.34211 62.0141 5.19687 61.8708 5.10397C61.7274 5.01107 61.5526 4.97811 61.3846 5.01235C61.2166 5.04659 61.0694 5.14521 60.9751 5.28654C60.9651 5.30237 59.8923 6.85887 56.8297 6.85887C53.8191 6.85887 52.7313 5.3558 52.6802 5.28159C52.5824 5.14741 52.4357 5.05583 52.2709 5.02611C52.1061 4.99638 51.9361 5.03082 51.7965 5.1222C51.6569 5.21357 51.5587 5.35475 51.5225 5.51605C51.4863 5.67735 51.5149 5.84621 51.6024 5.98711C51.6486 6.05539 52.5236 7.31602 54.6791 7.87212V15.4587C52.5236 16.0148 51.6486 17.2754 51.6024 17.3437ZM55.9727 8.09081C56.2446 8.11554 56.5266 8.13335 56.8297 8.13335C57.2078 8.13301 57.5855 8.10921 57.9606 8.06211V15.2687C57.5855 15.2216 57.2078 15.1978 56.8297 15.1975C56.5286 15.1975 56.2446 15.2153 55.9727 15.24V8.09081Z"
          fill="#7490CA"/>
    <path d="M73.73 15.5558L73.7465 15.5711L73.7841 15.5959L73.8334 15.6289C75.347 16.5736 77.0912 17.0807 78.8738 17.094C80.83 17.094 83.1528 16.4434 85.4861 14.2898C85.6338 14.1535 85.7215 13.9639 85.7299 13.7628C85.7383 13.5616 85.6666 13.3653 85.5308 13.2172C85.3949 13.069 85.2059 12.981 85.0054 12.9726C84.8049 12.9642 84.6093 13.0361 84.4616 13.1724C81.7029 15.7173 79.0253 15.8292 77.1619 15.412C77.5992 15.0346 77.9083 14.5298 78.0464 13.968C78.1845 13.4061 78.1447 12.8151 77.9325 12.277C77.7203 11.7389 77.3462 11.2805 76.8623 10.9656C76.3784 10.6507 75.8087 10.4949 75.2324 10.5198C74.6562 10.5447 74.102 10.7492 73.6469 11.1048C73.1918 11.4603 72.8585 11.9493 72.6932 12.5037C72.528 13.0582 72.539 13.6505 72.7248 14.1983C72.9107 14.7461 73.262 15.2223 73.73 15.5605V15.5558ZM75.3514 12.0361C75.5203 12.0309 75.6884 12.0598 75.846 12.1211C76.0035 12.1823 76.1472 12.2747 76.2684 12.3927C76.3897 12.5107 76.4861 12.652 76.552 12.8081C76.6178 12.9642 76.6517 13.1319 76.6517 13.3014C76.6517 13.4709 76.6178 13.6387 76.552 13.7948C76.4861 13.9509 76.3897 14.0922 76.2684 14.2102C76.1472 14.3282 76.0035 14.4206 75.846 14.4818C75.6884 14.5431 75.5203 14.572 75.3514 14.5668C75.1033 14.5672 74.8607 14.4934 74.6547 14.3546L74.6394 14.344C74.4174 14.1914 74.25 13.9715 74.1616 13.7165C74.0731 13.4615 74.0684 13.1848 74.1479 12.9269C74.2275 12.669 74.3872 12.4434 74.6038 12.2831C74.8203 12.1228 75.0823 12.0362 75.3514 12.0361Z"
          fill="#7490CA"/>
    <path d="M73.335 10.4548C73.5248 10.4552 73.7077 10.3837 73.8472 10.2547C76.6058 7.71222 79.2833 7.6004 81.1466 8.01826C80.709 8.39512 80.3995 8.89922 80.2611 9.46047C80.1227 10.0217 80.1623 10.6122 80.3744 11.1499C80.5865 11.6876 80.9606 12.1456 81.4446 12.4604C81.9286 12.7752 82.4984 12.9311 83.0749 12.9064C83.6515 12.8817 84.206 12.6776 84.6613 12.3226C85.1167 11.9675 85.4504 11.4791 85.6159 10.9253C85.7814 10.3714 85.7705 9.77967 85.5848 9.23231C85.399 8.68494 85.0477 8.20916 84.5796 7.87113C84.5743 7.86504 84.5684 7.85952 84.5619 7.85465L84.5232 7.82875L84.4844 7.80168C83.7724 7.33085 78.3258 4.06329 72.8227 9.13295C72.7108 9.23645 72.6326 9.37134 72.5983 9.52004C72.564 9.66873 72.5753 9.82432 72.6306 9.96652C72.6859 10.1087 72.7826 10.2309 72.9083 10.3172C73.034 10.4034 73.1826 10.4498 73.335 10.4501V10.4548ZM82.9571 11.3894C82.7882 11.3946 82.62 11.3657 82.4625 11.3045C82.305 11.2434 82.1613 11.1511 82.0401 11.0333C81.9188 10.9154 81.8224 10.7744 81.7565 10.6185C81.6907 10.4626 81.6568 10.2951 81.6568 10.1258C81.6568 9.95655 81.6907 9.78902 81.7565 9.63314C81.8224 9.47726 81.9188 9.33622 82.0401 9.21837C82.1613 9.10052 82.305 9.00828 82.4625 8.9471C82.62 8.88592 82.7882 8.85706 82.9571 8.86222C83.2056 8.86165 83.4486 8.93543 83.6549 9.0741L83.669 9.08351C83.8915 9.23577 84.0594 9.45543 84.1482 9.71029C84.237 9.96514 84.2419 10.2418 84.1623 10.4996C84.0827 10.7575 83.9227 10.983 83.7058 11.1432C83.4889 11.3033 83.2265 11.3896 82.9571 11.3894Z"
          fill="#7490CA"/>
    <path d="M96.1466 12.3538C96.1459 12.6777 96.2273 12.998 96.3853 13.2927C96.5433 13.5875 96.7741 13.8498 97.0621 14.0618C97.3501 14.2738 97.6884 14.4306 98.0541 14.5213C98.4197 14.6121 98.8041 14.6347 99.1809 14.5877C99.5578 14.5407 99.9183 14.4252 100.238 14.249C100.558 14.0727 100.829 13.84 101.033 13.5666C101.237 13.2932 101.37 12.9855 101.422 12.6646C101.474 12.3437 101.443 12.017 101.333 11.7069V11.7C101.247 11.4596 101.113 11.2332 100.939 11.0303C100.612 10.2477 100.552 8.96689 100.603 8.20313C100.603 8.19124 100.603 8.17836 100.603 8.16648C100.588 7.90376 100.635 7.64113 100.743 7.39464C100.851 7.14815 101.017 6.92298 101.231 6.7329C101.445 6.54281 101.702 6.3918 101.987 6.2891C102.272 6.18639 102.578 6.13416 102.887 6.13557C103.197 6.13699 103.502 6.19203 103.786 6.29734C104.069 6.40264 104.324 6.556 104.536 6.74803C104.747 6.94007 104.91 7.16674 105.015 7.4142C105.12 7.66166 105.164 7.92472 105.146 8.18728C105.166 8.77843 105.095 9.36927 104.934 9.94461C104.787 10.4686 104.457 10.851 104.076 11.2938C103.831 11.5697 103.604 11.8575 103.397 12.1556C103.022 12.7134 102.83 13.3998 102.808 14.2538C102.786 15.1077 103.104 15.8754 103.679 16.3766C103.913 16.5787 104.193 16.7382 104.501 16.8453C104.81 16.9524 105.141 17.0049 105.474 16.9997C107.125 16.9997 108.147 15.6129 108.147 14.3251C108.14 14.1601 108.057 14.004 107.917 13.8896C107.777 13.7752 107.591 13.7113 107.397 13.7113C107.203 13.7113 107.016 13.7752 106.876 13.8896C106.736 14.004 106.654 14.1601 106.646 14.3251C106.646 14.8957 106.229 15.7208 105.474 15.7208C105.341 15.726 105.208 15.7074 105.083 15.6661C104.959 15.6248 104.846 15.5618 104.752 15.4811C104.461 15.2285 104.294 14.7788 104.308 14.2785C104.325 13.6425 104.453 13.1542 104.701 12.7857C104.878 12.5292 105.072 12.2818 105.283 12.0447C105.72 11.5375 106.171 11.0125 106.389 10.2378C106.58 9.55887 106.665 8.8614 106.641 8.16351C106.627 7.32173 106.225 6.51839 105.521 5.92653C104.817 5.33466 103.868 5.00163 102.878 4.99916C101.888 4.99669 100.936 5.32499 100.228 5.91333C99.5203 6.50168 99.1124 7.303 99.0923 8.14469C99.0542 8.80584 99.0811 9.46855 99.1727 10.1259C98.7965 10.0772 98.4124 10.0984 98.0468 10.1882C97.6812 10.278 97.3429 10.4342 97.0552 10.646C96.7675 10.8578 96.5373 11.1202 96.3804 11.415C96.2235 11.7099 96.1437 12.0302 96.1466 12.3538ZM99.91 12.1239C99.9659 12.3212 99.9482 12.5283 99.8592 12.7166C99.7703 12.9049 99.6145 13.0649 99.4137 13.1743C99.2128 13.2838 98.9768 13.3373 98.7385 13.3273C98.5002 13.3174 98.2715 13.2446 98.0842 13.1189C97.8968 12.9933 97.7602 12.8211 97.6934 12.6263C97.6265 12.4316 97.6327 12.2239 97.711 12.0323C97.7894 11.8406 97.936 11.6745 98.1306 11.5571C98.3251 11.4397 98.5579 11.3767 98.7965 11.377C98.9549 11.3772 99.1115 11.4055 99.2563 11.46C99.4011 11.5146 99.5309 11.5943 99.6374 11.694C99.7149 11.8446 99.8076 11.9891 99.9147 12.1259L99.91 12.1239Z"
          fill="#7490CA"/>
    <path d="M119.257 8.15133C119.442 8.15133 119.62 8.08201 119.751 7.95862C119.882 7.83522 119.956 7.66786 119.956 7.49335C119.956 6.84661 120.435 6.32043 121.026 6.32043C121.616 6.32043 122.096 6.84661 122.096 7.49335V13.9301C122.103 14.1003 122.18 14.2612 122.31 14.3793C122.441 14.4973 122.615 14.5632 122.796 14.5632C122.977 14.5632 123.15 14.4973 123.281 14.3793C123.411 14.2612 123.488 14.1003 123.495 13.9301V7.49335C123.495 7.18255 123.626 6.88447 123.86 6.66469C124.093 6.44492 124.41 6.32145 124.74 6.32145C125.07 6.32145 125.387 6.44492 125.62 6.66469C125.854 6.88447 125.985 7.18255 125.985 7.49335V13.9301C125.992 14.1003 126.069 14.2612 126.199 14.3793C126.33 14.4973 126.504 14.5632 126.685 14.5632C126.865 14.5632 127.039 14.4973 127.17 14.3793C127.3 14.2612 127.377 14.1003 127.384 13.9301V7.49335C127.384 7.18255 127.515 6.88447 127.749 6.66469C127.982 6.44492 128.299 6.32145 128.629 6.32145C128.959 6.32145 129.276 6.44492 129.509 6.66469C129.743 6.88447 129.874 7.18255 129.874 7.49335V13.9301C129.879 14.122 129.911 14.3123 129.969 14.4962C129.369 14.9713 128.724 15.3946 128.043 15.761C127.879 15.8431 127.757 15.9831 127.703 16.1501C127.649 16.317 127.668 16.4974 127.755 16.6514C127.842 16.8055 127.991 16.9206 128.168 16.9715C128.345 17.0224 128.537 17.0048 128.701 16.9227C129.41 16.5493 130.083 16.1175 130.712 15.6323C131.207 16.0706 131.962 16.417 133.081 16.4783H133.121C133.301 16.4748 133.473 16.4064 133.6 16.2872C133.728 16.1679 133.802 16.007 133.807 15.8378C133.812 15.6686 133.748 15.504 133.627 15.3783C133.507 15.2525 133.34 15.1752 133.161 15.1623C132.476 15.1255 132.041 14.958 131.763 14.7536C132.638 13.9434 133.509 12.9197 134.081 11.7028C135.151 9.42439 134.17 8.19629 133.698 7.7733C133.369 7.48906 132.977 7.27738 132.55 7.15367C132.123 7.02995 131.673 6.99731 131.231 7.0581C131.146 6.60067 130.928 6.17466 130.599 5.82842C130.27 5.48219 129.845 5.22961 129.372 5.09937C128.899 4.96913 128.396 4.96645 127.921 5.09163C127.446 5.2168 127.018 5.46483 126.685 5.80753C126.441 5.55495 126.143 5.35273 125.812 5.21362C125.48 5.07451 125.121 5.0015 124.758 4.9992C124.395 4.9969 124.036 5.06535 123.702 5.20024C123.369 5.33513 123.068 5.53355 122.82 5.78301C122.598 5.54077 122.323 5.346 122.015 5.21173C121.706 5.07747 121.37 5.0068 121.03 5.00447C119.669 5.00447 118.561 6.1212 118.561 7.49335C118.561 7.66733 118.634 7.83423 118.765 7.95754C118.895 8.08085 119.072 8.15052 119.257 8.15133ZM132.734 8.72962C133.286 9.22413 133.31 10.0916 132.802 11.1725C132.416 11.9618 131.9 12.6886 131.273 13.3263V8.39143C131.797 8.28109 132.366 8.39961 132.734 8.72962Z"
          fill="#7490CA"/>
    <path d="M161.443 14.6409H145.719C145.519 14.6499 145.33 14.7477 145.192 14.9137C145.053 15.0796 144.976 15.3009 144.976 15.5311C144.976 15.7613 145.053 15.9826 145.192 16.1486C145.33 16.3145 145.519 16.4123 145.719 16.4214H161.443C161.643 16.4123 161.832 16.3145 161.971 16.1486C162.11 15.9826 162.187 15.7613 162.187 15.5311C162.187 15.3009 162.11 15.0796 161.971 14.9137C161.832 14.7477 161.643 14.6499 161.443 14.6409Z"
          fill="#7490CA"/>
    <path d="M161.441 10.9332H158.463V10.4748C158.443 9.37016 157.92 8.31663 157.007 7.54159C156.093 6.76655 154.863 6.33215 153.581 6.33215C152.3 6.33215 151.069 6.76655 150.156 7.54159C149.243 8.31663 148.719 9.37016 148.699 10.4748V10.9332H145.719C145.52 10.94 145.33 11.0132 145.192 11.1376C145.053 11.2619 144.976 11.4277 144.976 11.6002C144.976 11.7726 145.053 11.9384 145.192 12.0628C145.33 12.1871 145.52 12.2603 145.719 12.2671H149.474C149.679 12.2668 149.875 12.1964 150.02 12.0713C150.165 11.9461 150.247 11.7765 150.247 11.5997V10.4748C150.263 9.72195 150.622 9.00475 151.245 8.47739C151.869 7.95002 152.708 7.65459 153.581 7.65459C154.455 7.65459 155.294 7.95002 155.917 8.47739C156.541 9.00475 156.899 9.72195 156.916 10.4748V11.5997C156.916 11.7767 156.997 11.9464 157.143 12.0716C157.288 12.1968 157.485 12.2671 157.69 12.2671H161.443C161.643 12.2603 161.832 12.1871 161.971 12.0628C162.11 11.9384 162.187 11.7726 162.187 11.6002C162.187 11.4277 162.11 11.2619 161.971 11.1376C161.832 11.0132 161.643 10.94 161.443 10.9332H161.441Z"
          fill="#7490CA"/>
    <path d="M188.34 14.3057L186.488 12.8305C186.392 12.7542 186.278 12.7075 186.158 12.6957C186.038 12.6839 185.917 12.7075 185.81 12.7638C185.702 12.8201 185.611 12.9069 185.548 13.0144C185.485 13.1218 185.451 13.2458 185.452 13.3721V14.0581H184.783C184.654 14.0041 184.545 13.9108 184.468 13.7903C184.391 13.6698 184.35 13.5277 184.351 13.3827V7.5662C184.352 7.04921 184.204 6.54404 183.927 6.11706C183.649 5.69007 183.255 5.36124 182.797 5.17374C182.338 4.98625 181.836 4.94886 181.357 5.06649C180.878 5.18412 180.443 5.45127 180.111 5.83285C179.885 5.57235 179.611 5.36381 179.304 5.22034C178.998 5.07687 178.666 5.00158 178.331 4.9992C177.995 4.99683 177.663 5.06742 177.355 5.20654C177.046 5.34565 176.769 5.55029 176.54 5.80756C176.334 5.55637 176.08 5.35427 175.794 5.21487C175.509 5.07546 175.198 5.00197 174.883 4.99936C173.625 4.99936 172.601 6.15107 172.601 7.5662C172.607 7.74169 172.678 7.90768 172.799 8.02939C172.919 8.15111 173.08 8.21909 173.247 8.21909C173.414 8.21909 173.575 8.15111 173.695 8.02939C173.816 7.90768 173.887 7.74169 173.894 7.5662C173.894 6.89921 174.337 6.3576 174.883 6.3576C175.428 6.3576 175.872 6.89921 175.872 7.5662V14.2046C175.872 14.3845 175.94 14.5571 176.061 14.6844C176.182 14.8117 176.346 14.8832 176.517 14.8832C176.689 14.8832 176.853 14.8117 176.974 14.6844C177.095 14.5571 177.163 14.3845 177.163 14.2046V7.5662C177.163 7.24482 177.285 6.9366 177.501 6.70935C177.718 6.4821 178.011 6.35444 178.317 6.35444C178.623 6.35444 178.916 6.4821 179.133 6.70935C179.349 6.9366 179.47 7.24482 179.47 7.5662V14.2046C179.47 14.3845 179.538 14.5571 179.66 14.6844C179.781 14.8117 179.945 14.8832 180.116 14.8832C180.288 14.8832 180.452 14.8117 180.573 14.6844C180.694 14.5571 180.762 14.3845 180.762 14.2046V7.5662C180.762 7.24482 180.884 6.9366 181.1 6.70935C181.317 6.4821 181.61 6.35444 181.916 6.35444C182.222 6.35444 182.515 6.4821 182.731 6.70935C182.948 6.9366 183.069 7.24482 183.069 7.5662V13.3827C183.065 13.8435 183.209 14.2925 183.476 14.6576C183.744 15.0227 184.121 15.2828 184.546 15.3963C184.597 15.4089 184.649 15.4153 184.701 15.4153H185.458V16.3215C185.457 16.4476 185.491 16.5714 185.554 16.6786C185.617 16.7859 185.708 16.8724 185.816 16.9284C185.905 16.9757 186.004 17.0003 186.104 17.0001C186.244 17.0001 186.382 16.9516 186.494 16.862L188.346 15.3868C188.426 15.3234 188.49 15.2416 188.534 15.1477C188.579 15.0539 188.602 14.9505 188.602 14.8457C188.602 14.741 188.579 14.6376 188.534 14.5438C188.49 14.4499 188.426 14.3681 188.346 14.3047L188.34 14.3057Z"
          fill="#7490CA"/>
    <path d="M211.605 4.99966H206.96C206.86 4.99612 206.76 5.01075 206.666 5.04268C206.573 5.07461 206.487 5.12318 206.415 5.18547C206.343 5.24776 206.285 5.32249 206.246 5.40518C206.207 5.48788 206.187 5.57683 206.187 5.66671C206.187 5.75659 206.207 5.84554 206.246 5.92824C206.285 6.01093 206.343 6.08567 206.415 6.14796C206.487 6.21025 206.573 6.25881 206.666 6.29074C206.76 6.32267 206.86 6.33731 206.96 6.33377H209.858L204.986 10.7035L202.933 8.86225C202.793 8.73721 202.604 8.66697 202.407 8.66697C202.21 8.66697 202.021 8.73721 201.881 8.86225C201.742 8.98728 201.664 9.15687 201.664 9.33369C201.664 9.51052 201.742 9.68009 201.881 9.80512L203.934 11.6464L199.233 15.8619C199.164 15.9238 199.109 15.9973 199.072 16.0782C199.034 16.1591 199.015 16.2458 199.015 16.3333C199.015 16.4209 199.034 16.5076 199.072 16.5885C199.109 16.6694 199.164 16.7429 199.233 16.8048C199.302 16.8667 199.384 16.9158 199.474 16.9493C199.564 16.9828 199.661 17.0001 199.759 17.0001C199.856 17.0001 199.953 16.9828 200.043 16.9493C200.133 16.9158 200.215 16.8667 200.284 16.8048L204.986 12.5882L206.782 14.2007C206.922 14.3258 207.111 14.396 207.308 14.396C207.505 14.396 207.694 14.3258 207.834 14.2007C207.973 14.0757 208.052 13.9061 208.052 13.7293C208.052 13.5525 207.973 13.3829 207.834 13.2579L206.036 11.6464L210.862 7.31805V9.9997C210.87 10.1721 210.951 10.3351 211.09 10.4547C211.229 10.5742 211.413 10.641 211.606 10.641C211.798 10.641 211.983 10.5742 212.122 10.4547C212.26 10.3351 212.342 10.1721 212.349 9.9997V5.67034C212.35 5.58241 212.331 5.49526 212.294 5.41391C212.257 5.33256 212.202 5.25861 212.133 5.19629C212.064 5.13397 211.981 5.08451 211.891 5.05077C211.8 5.01703 211.703 4.99966 211.605 4.99966Z"
          fill="#7490CA"/>
    <path d="M238.321 9.59278C237.833 9.59338 237.354 9.73114 236.936 9.9912C236.519 10.2513 236.178 10.6237 235.951 11.0684C235.638 10.1416 235.478 9.08782 235.478 7.87885C235.477 7.24277 235.271 6.62492 234.893 6.12187C234.514 5.61882 233.984 5.2589 233.386 5.09835C232.787 4.9378 232.154 4.98567 231.584 5.23448C231.015 5.48328 230.542 5.91901 230.239 6.47356C229.937 5.91756 229.464 5.48036 228.894 5.23053C228.325 4.98071 227.69 4.93238 227.091 5.09313C226.492 5.25388 225.961 5.61461 225.583 6.11876C225.204 6.62291 224.999 7.24197 225 7.87885C225 8.03481 225.06 8.18438 225.167 8.29466C225.275 8.40494 225.42 8.4669 225.572 8.4669C225.724 8.4669 225.869 8.40494 225.976 8.29466C226.083 8.18438 226.144 8.03481 226.144 7.87885C226.147 7.42793 226.324 6.99676 226.636 6.68022C226.949 6.36368 227.371 6.18769 227.809 6.19096C228.248 6.19423 228.667 6.37649 228.975 6.69765C229.283 7.01882 229.454 7.45258 229.45 7.90351L229.667 13.3101C229.675 13.4604 229.739 13.6018 229.845 13.7052C229.952 13.8086 230.093 13.8663 230.239 13.8663C230.385 13.8663 230.526 13.8086 230.633 13.7052C230.739 13.6018 230.803 13.4604 230.811 13.3101L231.028 7.87885C231.028 7.42793 231.202 6.99546 231.512 6.67661C231.822 6.35775 232.242 6.17863 232.681 6.17863C233.119 6.17863 233.54 6.35775 233.85 6.67661C234.16 6.99546 234.334 7.42793 234.334 7.87885C234.334 10.0429 234.815 11.8646 235.762 13.2982C235.369 14.0981 234.771 14.7726 234.032 15.2495C233.253 15.7238 232.341 15.9124 231.444 15.7846C231.368 15.7713 231.291 15.7737 231.217 15.7917C231.142 15.8097 231.072 15.8429 231.01 15.8894C230.948 15.9358 230.896 15.9946 230.856 16.0622C230.817 16.1298 230.791 16.2049 230.781 16.2829C230.77 16.3609 230.775 16.4403 230.795 16.5164C230.815 16.5925 230.849 16.6637 230.896 16.7258C230.943 16.788 231.002 16.8397 231.069 16.878C231.136 16.9163 231.21 16.9404 231.286 16.9489C231.521 16.9833 231.759 17.0004 231.996 17C232.919 17.0001 233.825 16.7447 234.619 16.2604C235.378 15.7785 236.02 15.1249 236.497 14.3492C236.815 14.6557 237.202 14.8775 237.623 14.9952C238.044 15.1129 238.486 15.1229 238.912 15.0245C239.337 14.926 239.733 14.722 240.065 14.4303C240.396 14.1385 240.653 13.7679 240.813 13.3506C240.973 12.9333 241.032 12.4821 240.984 12.0363C240.935 11.5904 240.782 11.1634 240.536 10.7925C240.291 10.4217 239.961 10.1181 239.575 9.90837C239.19 9.69862 238.76 9.58902 238.324 9.58912L238.321 9.59278ZM238.321 13.9228C238.037 13.9218 237.759 13.8395 237.518 13.6852C237.277 13.5308 237.082 13.3105 236.956 13.0489C236.941 13.0014 236.921 12.956 236.895 12.9138C236.825 12.7331 236.789 12.5404 236.788 12.3458C236.788 12.0339 236.878 11.729 237.046 11.4697C237.215 11.2104 237.454 11.0083 237.734 10.8889C238.015 10.7696 238.323 10.7383 238.62 10.7992C238.918 10.86 239.191 11.0102 239.406 11.2308C239.62 11.4513 239.766 11.7323 239.825 12.0382C239.885 12.3441 239.854 12.6612 239.738 12.9493C239.622 13.2375 239.425 13.4837 239.173 13.657C238.921 13.8303 238.625 13.9228 238.321 13.9228Z"
          fill="#7490CA"/>
    <path d="M267.278 6.95855L265.375 9.06345C265.353 9.08601 265.324 9.09854 265.294 9.09854C265.264 9.09854 265.235 9.08601 265.213 9.06345L263.227 6.86646C263.074 6.69708 262.893 6.56272 262.693 6.47103C262.493 6.37935 262.279 6.33215 262.063 6.33215C261.846 6.33215 261.632 6.37935 261.433 6.47103C261.233 6.56272 261.051 6.69708 260.898 6.86646L258.935 9.03713C258.925 9.04903 258.912 9.05849 258.898 9.06494C258.884 9.0714 258.87 9.07472 258.855 9.07472C258.84 9.07472 258.825 9.0714 258.811 9.06494C258.797 9.05849 258.785 9.04903 258.774 9.03713L256.872 6.93223C256.562 6.59177 256.144 6.40065 255.707 6.40065C255.271 6.40065 254.852 6.59177 254.543 6.93223L252.069 9.66861C251.925 9.82753 251.845 10.0431 251.845 10.2678C251.845 10.4926 251.925 10.7082 252.069 10.8671C252.213 11.026 252.408 11.1153 252.611 11.1153C252.814 11.1153 253.009 11.026 253.153 10.8671L255.626 8.13071C255.636 8.11658 255.648 8.10507 255.662 8.09714C255.676 8.08921 255.691 8.08508 255.707 8.08508C255.723 8.08508 255.739 8.08921 255.753 8.09714C255.767 8.10507 255.779 8.11658 255.788 8.13071L257.691 10.2356C258 10.5766 258.418 10.7682 258.855 10.7682C259.291 10.7682 259.71 10.5766 260.018 10.2356L261.982 8.06493C262.004 8.04237 262.033 8.02984 262.063 8.02984C262.093 8.02984 262.122 8.04237 262.144 8.06493L264.13 10.2619C264.439 10.603 264.858 10.7946 265.294 10.7946C265.731 10.7946 266.149 10.603 266.458 10.2619L268.361 8.15703C268.505 7.9981 268.586 7.78254 268.586 7.55778C268.586 7.33303 268.505 7.11748 268.361 6.95855C268.218 6.79963 268.023 6.71033 267.82 6.71033C267.616 6.71033 267.422 6.79963 267.278 6.95855Z"
          fill="#7490CA"/>
    <path d="M267.278 12.9373L265.375 15.0422C265.353 15.0648 265.324 15.0773 265.294 15.0773C265.264 15.0773 265.235 15.0648 265.213 15.0422L263.227 12.8452C263.074 12.6759 262.893 12.5415 262.693 12.4498C262.493 12.3581 262.279 12.3109 262.063 12.3109C261.846 12.3109 261.632 12.3581 261.433 12.4498C261.233 12.5415 261.051 12.6759 260.898 12.8452L258.935 15.0159C258.925 15.0278 258.912 15.0372 258.898 15.0437C258.884 15.0502 258.87 15.0535 258.855 15.0535C258.84 15.0535 258.825 15.0502 258.811 15.0437C258.797 15.0372 258.785 15.0278 258.774 15.0159L256.872 12.911C256.562 12.5705 256.144 12.3794 255.707 12.3794C255.271 12.3794 254.852 12.5705 254.543 12.911L252.069 15.6474C251.998 15.7261 251.942 15.8195 251.903 15.9223C251.865 16.0251 251.845 16.1353 251.845 16.2466C251.845 16.3579 251.865 16.4681 251.903 16.5709C251.942 16.6737 251.998 16.7671 252.069 16.8458C252.14 16.9245 252.225 16.987 252.318 17.0296C252.411 17.0721 252.51 17.094 252.611 17.094C252.711 17.094 252.811 17.0721 252.904 17.0296C252.997 16.987 253.081 16.9245 253.153 16.8458L255.626 14.1095C255.636 14.0954 255.648 14.0839 255.662 14.0759C255.676 14.068 255.691 14.0638 255.707 14.0638C255.723 14.0638 255.739 14.068 255.753 14.0759C255.767 14.0839 255.779 14.0954 255.788 14.1095L257.691 16.2144C258 16.5554 258.418 16.7469 258.855 16.7469C259.291 16.7469 259.71 16.5554 260.018 16.2144L261.982 14.0437C262.004 14.0211 262.033 14.0086 262.063 14.0086C262.093 14.0086 262.122 14.0211 262.144 14.0437L264.13 16.2407C264.439 16.5818 264.858 16.7734 265.294 16.7734C265.731 16.7734 266.149 16.5818 266.458 16.2407L268.361 14.1358C268.505 13.9769 268.586 13.7613 268.586 13.5366C268.586 13.3118 268.505 13.0962 268.361 12.9373C268.218 12.7784 268.023 12.6891 267.82 12.6891C267.616 12.6891 267.422 12.7784 267.278 12.9373Z"
          fill="#7490CA"/>
    <path d="M290.301 10.5319H287.612C287.741 7.72448 289.37 6.39293 289.448 6.33225C289.597 6.21671 289.696 6.04317 289.725 5.84981C289.753 5.65646 289.708 5.45913 289.599 5.30123C289.49 5.14333 289.326 5.0378 289.143 5.00784C288.961 4.97789 288.775 5.02597 288.626 5.14151C288.53 5.21593 286.358 6.94249 286.222 10.5319H283.782C283.643 6.94249 281.474 5.21593 281.377 5.14151C281.228 5.02643 281.042 4.97891 280.86 5.0094C280.677 5.03989 280.514 5.14589 280.405 5.3041C280.297 5.4623 280.252 5.65974 280.281 5.85299C280.309 6.04623 280.409 6.21945 280.559 6.33454C280.576 6.34828 282.258 7.68555 282.395 10.5319H279.695C279.51 10.5319 279.333 10.6095 279.203 10.7478C279.072 10.8861 278.999 11.0736 278.999 11.2692C278.999 11.4648 279.072 11.6523 279.203 11.7906C279.333 11.9288 279.51 12.0065 279.695 12.0065H282.321C281.968 14.3685 280.593 15.6211 280.528 15.6783C280.455 15.7386 280.393 15.814 280.347 15.9001C280.301 15.9862 280.272 16.0812 280.261 16.1794C280.251 16.2777 280.259 16.3771 280.286 16.4719C280.312 16.5667 280.356 16.6549 280.415 16.7313C280.475 16.8076 280.548 16.8705 280.631 16.9163C280.713 16.9621 280.804 16.9897 280.897 16.9977C280.99 17.0056 281.083 16.9937 281.172 16.9625C281.26 16.9314 281.342 16.8817 281.412 16.8164C281.499 16.7408 283.341 15.0898 283.723 12.0077H286.284C286.666 15.091 288.508 16.742 288.595 16.8164C288.665 16.879 288.746 16.9263 288.834 16.9554C288.922 16.9845 289.014 16.9949 289.105 16.986C289.197 16.9771 289.286 16.9491 289.367 16.9035C289.448 16.858 289.52 16.7958 289.579 16.7206C289.637 16.6455 289.681 16.5588 289.708 16.4655C289.734 16.3723 289.743 16.2744 289.734 16.1775C289.725 16.0806 289.697 15.9866 289.654 15.9009C289.61 15.8152 289.551 15.7396 289.479 15.6783C289.463 15.6635 288.047 14.3994 287.686 12.0065H290.304C290.489 12.0065 290.666 11.9288 290.796 11.7906C290.927 11.6523 291 11.4648 291 11.2692C291 11.0736 290.927 10.8861 290.796 10.7478C290.666 10.6095 290.489 10.5319 290.304 10.5319H290.301Z"
          fill="#7490CA"/>
    <line x1="20.708" y1="21.0001" x2="20.708" y2="0.99859" stroke="#4166B1"/>
    <line x1="45.7893" y1="21.0001" x2="45.7893" y2="0.99859" stroke="#4166B1"/>
    <line x1="66.8701" y1="21.0001" x2="66.8701" y2="0.99859" stroke="#4166B1"/>
    <line x1="90.4397" y1="21.0001" x2="90.4397" y2="0.99859" stroke="#4166B1"/>
    <line x1="112.854" y1="21.0001" x2="112.854" y2="0.99859" stroke="#4166B1"/>
    <line x1="139.269" y1="21.0001" x2="139.269" y2="0.99859" stroke="#4166B1"/>
    <line x1="166.894" y1="21.0001" x2="166.894" y2="0.99859" stroke="#4166B1"/>
    <line x1="193.309" y1="21.0001" x2="193.309" y2="0.99859" stroke="#4166B1"/>
    <line x1="217.056" y1="21.0001" x2="217.056" y2="0.99859" stroke="#4166B1"/>
    <line x1="246.138" y1="21.0001" x2="246.138" y2="0.99859" stroke="#4166B1"/>
    <line x1="273.292" y1="21.0001" x2="273.292" y2="0.99859" stroke="#4166B1"/>
</svg>
