<svg width="53" height="50" viewBox="0 0 53 50" fill="none" xmlns="http://www.w3.org/2000/svg">
<path d="M52.9574 16.2797H0V49.9723H52.9574V16.2797Z" fill="#F7C600"/>
<path d="M0 16.2797H52.9574L26.4787 0L0 16.2797Z" fill="#FFD630"/>
<path d="M7.54552 10.2543H45.4117C47.3741 10.2543 48.9772 11.8574 48.9772 13.8198V49.9723H3.97998V13.8198C3.97998 11.8574 5.58311 10.2543 7.54552 10.2543Z" fill="white"/>
<path d="M0 16.2797L25.8982 33.1398L0 50V16.3074V16.2797Z" fill="#FFD630"/>
<path d="M0 49.9723H52.9574L26.4787 33.1123L0 49.9723Z" fill="#F5C918"/>
<path d="M52.9574 16.2797L27.059 33.1398L52.9572 49.9998V16.3074V16.2797H52.9574Z" fill="#FFD630"/>
<path d="M26.4787 12.0233C34.9917 12.0233 41.9015 15.1189 41.9015 18.9608C41.9015 22.0012 37.5069 24.5993 31.3985 25.5391C30.8733 27.3633 29.4084 29.1598 26.6167 30.7077C28.0263 28.9664 27.8881 27.1699 27.5012 25.8708C27.1696 25.8708 26.8101 25.8985 26.4785 25.8985C17.9656 25.8985 11.0557 22.8029 11.0557 18.961C11.0557 15.1466 17.9657 12.0233 26.4787 12.0233Z" fill="#00CC96"/>
<path d="M21.1995 19.8453C21.1995 20.2876 21.0889 20.6745 20.923 20.9784C20.7295 21.2825 20.4532 21.5313 20.0663 21.6971C19.6794 21.863 19.2371 21.9459 18.6844 21.9459C18.1592 21.9459 17.7169 21.863 17.3577 21.6695C16.9984 21.5036 16.722 21.2825 16.5561 21.0061C16.3902 20.7297 16.3074 20.4809 16.3074 20.2045C16.3074 20.0387 16.3627 19.8729 16.4733 19.7622C16.5838 19.624 16.722 19.5687 16.8879 19.5687C17.0261 19.5687 17.1643 19.624 17.2471 19.7069C17.33 19.7897 17.413 19.9004 17.4682 20.0662C17.6064 20.3426 17.7998 20.5636 17.9934 20.7018C18.1869 20.84 18.4908 20.9229 18.8226 20.9229C19.099 20.9229 19.3478 20.84 19.5136 20.7018C19.7072 20.5636 19.79 20.3978 19.79 20.2044C19.79 19.928 19.7072 19.7069 19.5136 19.5964C19.3201 19.4581 19.0162 19.3476 18.5739 19.2371C18.0764 19.0989 17.6894 18.9607 17.3577 18.7948C17.0536 18.6566 16.8049 18.4355 16.6115 18.1868C16.4179 17.938 16.335 17.634 16.335 17.2747C16.335 16.9431 16.4179 16.639 16.5838 16.3626C16.7497 16.0862 16.9984 15.8374 17.33 15.6716C17.6616 15.5057 18.0762 15.4228 18.5462 15.4228C18.9055 15.4228 19.2649 15.4782 19.5411 15.561C19.8452 15.6439 20.094 15.7546 20.2874 15.9203C20.4809 16.0585 20.6466 16.2244 20.7297 16.4178C20.8402 16.5837 20.8955 16.777 20.8955 16.9429C20.8955 17.1365 20.8402 17.2745 20.7297 17.3852C20.6191 17.4957 20.4532 17.5511 20.2599 17.5511C20.1216 17.5511 19.9834 17.4957 19.8729 17.4129C19.7624 17.33 19.6518 17.1642 19.5136 16.9983C19.4031 16.8324 19.2649 16.7219 19.1267 16.6113C18.9885 16.5285 18.7674 16.4731 18.5187 16.4731C18.2699 16.4731 18.0489 16.5285 17.883 16.6667C17.7171 16.8049 17.6343 16.9431 17.6343 17.1365C17.6343 17.3024 17.6896 17.4406 17.8278 17.5511C17.966 17.6616 18.1319 17.7447 18.3253 17.8275C18.5464 17.9104 18.8228 17.9934 19.2097 18.0763C19.652 18.1868 20.0113 18.3527 20.2877 18.5185C20.5641 18.6844 20.7852 18.8778 20.9234 19.1266C21.0616 19.3476 21.1444 19.624 21.1444 19.9281L21.1995 19.8453ZM27.1695 18.795V20.9509C27.1695 21.2825 27.1142 21.5314 26.976 21.7248C26.8378 21.8907 26.6719 21.9735 26.4231 21.9735C26.2021 21.9735 26.0362 21.8907 25.898 21.7248C25.7598 21.5589 25.7044 21.3102 25.7044 20.9509V18.3805C25.7044 17.9659 25.7044 17.6618 25.6768 17.4407C25.6491 17.2197 25.5939 17.0261 25.4832 16.8879C25.3727 16.7497 25.2068 16.6668 24.958 16.6668C24.4882 16.6668 24.1842 16.8604 24.0183 17.2197C23.8801 17.5789 23.7972 18.1041 23.7972 18.7674V20.9509C23.7972 21.2825 23.7419 21.5314 23.6037 21.7248C23.4654 21.8907 23.2996 21.9735 23.0785 21.9735C22.8574 21.9735 22.6916 21.8907 22.5533 21.7248C22.4151 21.5589 22.3323 21.3102 22.3323 20.9509V16.3351C22.3323 16.031 22.3876 15.8099 22.5258 15.644C22.6364 15.4782 22.8023 15.3953 23.0233 15.3953C23.2169 15.3953 23.3826 15.4782 23.5208 15.6164C23.659 15.7546 23.7144 15.9756 23.7144 16.2244V16.3903C23.9631 16.0587 24.2395 15.8098 24.5159 15.644C24.7923 15.4783 25.1239 15.3953 25.4557 15.3953C25.815 15.3953 26.119 15.4782 26.3955 15.644C26.6442 15.8099 26.8653 16.0587 27.0311 16.3628C27.2799 16.0312 27.5286 15.7823 27.805 15.6165C28.0815 15.4508 28.3855 15.3678 28.7171 15.3678C29.1041 15.3678 29.4358 15.4507 29.7398 15.6165C30.0162 15.7824 30.2372 16.0312 30.3755 16.3628C30.486 16.6668 30.569 17.109 30.569 17.7447V20.8956C30.569 21.2272 30.5137 21.4761 30.3755 21.6695C30.2372 21.8353 30.0714 21.9182 29.8226 21.9182C29.6016 21.9182 29.4357 21.8353 29.2975 21.6695C29.1593 21.5036 29.0764 21.2548 29.0764 20.8956V18.1869C29.0764 17.8277 29.0764 17.5513 29.0487 17.3577C29.0211 17.1366 28.9382 16.9708 28.8277 16.8326C28.7171 16.6943 28.5236 16.6115 28.3025 16.6115C28.109 16.6115 27.9432 16.6668 27.7497 16.805C27.5838 16.9433 27.4456 17.1091 27.3627 17.3025C27.2522 17.5789 27.1969 18.0487 27.1969 18.7398L27.1695 18.795ZM36.5394 19.8453C36.5394 20.2876 36.4289 20.6745 36.263 20.9784C36.0694 21.2825 35.7932 21.5313 35.4062 21.6971C35.0193 21.863 34.577 21.9459 34.0243 21.9459C33.4992 21.9459 33.0569 21.863 32.6976 21.6695C32.3384 21.5036 32.0619 21.2825 31.8961 21.0061C31.7302 20.7297 31.6473 20.4809 31.6473 20.2045C31.6473 20.0387 31.7027 19.8729 31.8132 19.7622C31.9237 19.624 32.0619 19.5687 32.2278 19.5687C32.366 19.5687 32.5042 19.624 32.5871 19.7069C32.67 19.7897 32.753 19.9004 32.8082 20.0662C32.9464 20.3426 33.1398 20.5636 33.3333 20.7018C33.5269 20.84 33.8308 20.9229 34.1626 20.9229C34.439 20.9229 34.6877 20.84 34.8536 20.7018C35.0471 20.5636 35.13 20.3978 35.13 20.2044C35.13 19.928 35.0471 19.7069 34.8536 19.5964C34.66 19.4581 34.3561 19.3476 33.9138 19.2371C33.4163 19.0989 33.0294 18.9607 32.6976 18.7948C32.3935 18.6566 32.1448 18.4355 31.9514 18.1868C31.7579 17.938 31.675 17.634 31.675 17.2747C31.675 16.9431 31.7579 16.639 31.9237 16.3626C32.0896 16.0862 32.3384 15.8374 32.67 15.6716C33.0015 15.5057 33.4162 15.4228 33.8861 15.4228C34.2454 15.4228 34.6048 15.4782 34.8811 15.561C35.1852 15.6439 35.4339 15.7546 35.6273 15.9203C35.8209 16.0585 35.9866 16.2244 36.0696 16.4178C36.1801 16.5837 36.2355 16.777 36.2355 16.9429C36.2355 17.1365 36.1801 17.2745 36.0696 17.3852C35.9591 17.4957 35.7932 17.5511 35.5998 17.5511C35.4616 17.5511 35.3234 17.4957 35.2129 17.4129C35.1023 17.33 34.9918 17.1642 34.8536 16.9983C34.7431 16.8324 34.6048 16.7219 34.4666 16.6113C34.3284 16.5285 34.1074 16.4731 33.8586 16.4731C33.6099 16.4731 33.3888 16.5285 33.2229 16.6667C33.0571 16.8049 32.9742 16.9431 32.9742 17.1365C32.9742 17.3024 33.0296 17.4406 33.1678 17.5511C33.306 17.6616 33.4719 17.7447 33.6652 17.8275C33.8863 17.9104 34.1627 17.9934 34.5497 18.0763C34.992 18.1868 35.3512 18.3527 35.6276 18.5185C35.9041 18.6844 36.1251 18.8778 36.2633 19.1266C36.4015 19.3476 36.4844 19.624 36.4844 19.9281L36.5394 19.8453Z" fill="white"/>
</svg>
