<svg width="104" height="97" viewBox="0 0 104 97" fill="none" xmlns="http://www.w3.org/2000/svg">
    <path d="M71.3788 95.9545C71.0262 95.8148 70.6649 95.6984 70.2972 95.606C62.7329 94.1911 58.0841 88.2176 58.4516 80.4599C58.7081 75.0789 61.01 71.0885 66.1303 69.109C68.2449 68.2935 70.4601 67.5442 72.6927 67.2514C80.2361 66.2756 83.1239 71.2384 82.2641 77.4C81.6055 82.1257 76.8319 84.8371 72.2871 83.2898C69.4756 82.3314 68.7788 80.5679 69.9089 77.2815C69.282 77.4313 68.697 77.7221 68.1979 78.1319C67.6988 78.5417 67.2986 79.0599 67.0273 79.6475C66.756 80.2352 66.6208 80.877 66.6318 81.5247C66.6427 82.1725 66.7996 82.8093 67.0905 83.3873C67.8836 85.0772 69.1978 86.4647 70.8379 87.3437C72.4779 88.2227 74.3564 88.5463 76.194 88.2664C81.2276 87.5171 85.7758 82.3592 85.9006 77.2745C86.0497 70.4995 82.4999 64.9827 77.0433 64.087C68.4079 62.6651 59.4847 65.2789 56.1393 75.4065C56.0387 75.6461 55.9229 75.8789 55.7927 76.1035H42.1305C42.593 75.3333 43.012 74.5374 43.3855 73.7197C43.9179 72.4364 44.3558 71.1155 44.6959 69.7677C44.786 69.3843 44.3215 68.534 44.0025 68.4643C43.5415 68.3702 42.9625 68.7744 42.4564 69.0288C42.29 69.1125 42.1964 69.3773 42.1097 69.5969C40.4284 74.0334 36.9895 76.8633 33.2073 79.3551C30.3577 81.2022 27.4215 82.9447 24.5753 84.8232C23.4566 85.5634 22.423 86.426 21.4935 87.3952C20.4916 88.4407 20.7204 89.1865 22.1417 89.5455C23.4366 89.8883 24.7658 90.0835 26.1041 90.1275C29.7233 90.2041 33.346 90.1553 36.9825 90.1553C37.2113 88.7334 37.2911 87.6182 37.5857 86.5657C37.9532 85.2553 38.7991 84.5827 40.2481 85.088C41.7665 85.6178 43.2919 86.1336 45.3545 86.8132C44.1863 88.0085 43.3473 88.9913 42.3801 89.8173C41.6209 90.462 40.5497 90.7687 39.8772 91.4762C37.9636 93.4801 35.5924 93.6125 33.0825 93.5115C28.5169 93.3337 23.9479 93.163 19.3788 93.0933C16.394 93.0445 14.9588 91.0022 16.2588 88.2142C18.0649 84.3806 20.9527 81.4183 24.1455 78.7278C25.4593 77.6195 26.8009 76.5427 27.9068 75.6365C24.2009 73.197 20.5713 70.7574 16.9001 68.3736C16.0914 67.8788 15.2236 67.4889 14.3175 67.2131C13.1284 66.8263 12.4663 67.1713 11.3465 68.1576C9.34279 69.921 9.78999 71.8587 9.61319 73.8696C9.33932 76.7587 8.99959 79.6409 8.67719 82.6346H12.286C12.4524 86.144 12.6327 89.6047 12.7783 93.0898C10.0049 92.5844 7.74812 89.7476 7.31826 86.5553C7.20732 85.7363 6.62492 84.9905 6.40306 84.175C5.96626 82.645 5.36306 81.0942 5.29719 79.5363C5.17932 76.0513 5.40119 72.5662 5.40119 69.0985C5.40119 67.7603 5.15506 66.4185 5.05452 65.0768C4.85692 62.1493 6.25399 60.8947 9.13479 61.5046C10.8681 61.8809 12.5287 62.7487 14.2689 62.9195C16.7961 63.1669 19.3649 62.9822 21.9303 62.9822C22.0239 64.195 21.9511 65.3974 22.2284 66.5091C23.1055 70.0465 25.6951 71.8622 28.9815 72.8241C29.2067 72.8393 29.4324 72.8016 29.6406 72.7139C29.8488 72.6262 30.0338 72.4909 30.1809 72.3187C31.3561 70.8097 31.7271 69.1822 30.902 67.3072C28.978 62.9056 29.6297 60.2325 33.2593 57.0088C36.343 54.3172 39.941 52.2869 43.8327 51.0424C41.2327 48.5471 37.7244 48.317 35.166 50.7287C31.8345 53.8653 29.2727 57.6117 27.8548 62.0413C27.1615 64.2508 27.3175 65.1116 28.5481 69.4157C26.3919 68.7187 24.9567 66.3349 25.3692 63.5817C26.0348 59.1521 27.4769 54.984 30.3543 51.4501C31.3076 50.2791 32.3164 49.1465 33.3495 48.0417C35.8128 45.462 37.2667 42.0747 37.4436 38.5031C37.6169 35.3142 37.5649 32.108 37.5025 28.9122C37.4885 28.0158 37.2385 27.1392 36.778 26.3715C36.56 26.1177 36.2886 25.9156 35.9834 25.78C35.6783 25.6444 35.347 25.5786 35.0135 25.5874C34.6911 25.6083 34.1537 26.5876 34.1919 27.0964C34.2903 28.7195 34.5398 30.3296 34.9372 31.9058C36.5977 38.1441 34.7327 43.3717 30.6593 48.0731C29.5881 49.3138 28.7457 50.7531 27.834 52.0496C27.834 47.979 27.7092 43.7028 27.9172 39.4406C27.9727 38.3044 28.8636 37.0359 29.7025 36.1472C30.5301 35.3063 31.1654 34.2942 31.5641 33.1813C31.9629 32.0684 32.1155 30.8815 32.0113 29.7033C31.8033 26.7967 31.5295 23.8902 31.1308 20.9906C30.8188 18.7358 32.0044 17.0873 34.2508 17.394C36.5196 17.7049 38.7502 18.2515 40.9068 19.025C42.6713 19.6558 44.318 20.6804 45.9335 21.6667C50.1212 24.2282 52.8668 27.8039 54.0108 32.7248C56.3716 42.8594 62.2615 50.4813 70.9975 55.9633C72.9839 57.2144 75.0223 58.4028 76.9393 59.7376C79.4076 61.4802 81.9175 63.1809 84.1708 65.1743C92.5636 72.615 90.9238 82.5997 86.8921 88.9913C84.6318 92.581 81.3212 94.7347 77.1854 95.613C76.8159 95.7106 76.4514 95.827 76.0935 95.9615L71.3788 95.9545Z"
          fill="#EDE6DE"/>
    <path d="M2.4751 18.3106C4.61056 17.5927 6.7495 16.8957 8.87456 16.1429C9.25732 16.024 9.57921 15.7603 9.77243 15.4075C12.7746 7.01547 21.0322 3.43631 29.8791 4.50971C34.8607 5.11263 39.7938 6.08845 44.7858 6.64954C50.2845 7.27204 55.8459 7.03693 61.2732 5.95253L61.3946 6.48923C59.3527 6.99805 57.3316 7.84144 55.269 7.94947C50.3775 8.20737 45.4652 8.2004 40.5634 8.13767C35.3876 8.07145 30.2119 7.64627 25.0396 7.71597C22.2871 7.75083 19.7148 8.96363 17.5863 10.7968C17.1287 11.1906 17.0975 12.0897 16.8722 12.7554C17.6244 12.9296 18.4148 13.3339 19.1151 13.205C19.746 13.09 20.3284 12.4522 20.8484 11.9503C22.4743 10.3402 24.4226 9.30517 26.6759 9.38184C31.9071 9.56306 37.1556 9.70595 42.3522 10.288C52.3223 11.3997 62.178 11.4206 71.8535 8.39208C73.5868 7.85189 75.237 7.07124 77.154 6.7297C75.9268 7.60445 74.7724 8.61512 73.4586 9.33305C69.6036 11.445 65.3674 12.3407 61.0514 12.3441C53.4074 12.3441 45.7668 11.9678 38.1194 11.9015C34.4066 11.8702 30.6868 12.1594 26.974 12.3651C26.3578 12.3927 25.7679 12.6242 25.2962 13.0237C24.9452 13.4652 24.7675 14.0207 24.797 14.5851C24.797 15.2821 25.0708 15.9791 25.2476 16.7841C26.0999 16.2842 26.977 15.8282 27.8754 15.418C28.2671 15.2577 28.9396 15.2507 29.217 15.4912C29.4943 15.7316 29.6884 16.5367 29.5047 16.7946C28.8772 17.631 28.1908 18.6626 27.2999 19.0041C25.525 19.6767 25.0951 20.081 25.3516 22.2174C25.5005 22.2455 25.6534 22.2455 25.8023 22.2174C28.898 20.7885 29.9068 21.2938 30.4719 24.6569C30.6618 25.7607 30.7776 26.8762 30.8186 27.9956C30.8948 30.4805 29.9242 32.4635 27.806 33.8227C26.4887 34.666 25.2164 35.5966 23.8367 36.3249C20.4532 38.0884 18.6436 41.1239 17.1668 44.4486C16.8202 45.1944 16.7682 46.0622 16.581 46.8882C13.5892 47.5852 12.3794 46.7732 12.2199 43.7063C12.0882 41.2668 12.1575 38.7854 12.0951 36.3249C12.0877 35.7617 11.9833 35.2039 11.7866 34.6765C10.1052 30.4317 9.67883 25.9638 9.6303 21.4716C9.61296 19.5826 8.5903 19.2097 7.13083 19.1644C5.5951 19.1122 4.05936 19.1644 2.52363 19.1644L2.4751 18.3106ZM15.1388 30.8011C16.4596 30.1389 17.7111 29.5604 18.9175 28.8913C20.1239 28.2221 20.1655 26.9884 18.966 26.4517C18.1215 26.133 17.1878 26.1504 16.3556 26.5005C14.8407 27.2289 14.5218 28.8146 15.1388 30.8011Z"
          fill="#EDE6DE"/>
    <path d="M102.436 55.6775C95.3505 51.4745 87.339 55.1652 85.571 63.1808L77.4798 57.5664C77.9166 55.9319 78.4574 54.4298 78.6966 52.9138C79.2756 49.1987 77.9478 45.8287 76.367 42.612C75.4726 40.7962 73.5556 40.148 71.6593 39.7159C71.011 39.566 70.3524 39.4754 69.6001 39.343C75.3444 36.4434 83.8134 42.2739 83.9278 51.1434C88.9302 49.0524 93.9084 48.8677 98.7894 51.3734C100.408 52.2064 101.573 53.5272 102.436 55.6775Z"
          fill="#EDE6DE"/>
    <path d="M19.4342 53.6701C18.3248 50.0178 18.6403 46.3515 20.1934 42.8002C20.4707 42.1292 20.8561 41.5087 21.3339 40.9636C21.899 40.3432 22.6651 40.3293 22.7483 41.3121C22.9355 43.539 23.0048 45.7799 22.991 48.0139C22.991 48.561 22.5507 49.143 22.2144 49.6484C21.3027 51.0354 20.339 52.3772 19.4342 53.6701Z"
          fill="#EDE6DE"/>
</svg>
