<svg width="104" height="96" viewBox="0 0 104 96" fill="none" xmlns="http://www.w3.org/2000/svg">
    <path d="M28.9674 94.0486C28.6652 93.9286 28.3532 93.8351 28.0349 93.7693C26.6482 93.5738 25.9341 92.7221 26.4437 91.4339C27.137 89.6885 26.676 88.6412 25.1125 87.7161C23.445 86.7177 23.3549 85.6041 23.8125 83.733C24.648 80.3328 25.376 76.8943 25.941 73.4383C26.6101 69.3399 28.6832 66.3482 32.2608 64.3619C33.2592 63.8034 34.2125 63.1785 35.1866 62.585L35.041 62.0544L28.2221 63.0563C31.4461 59.0697 34.9682 55.3589 36.289 50.2482C37.648 50.4088 37.6514 51.2431 37.596 52.1821C37.4885 53.9625 37.3152 55.7498 37.3845 57.5232C37.537 61.2934 39.3328 64.327 41.8912 66.9487C42.9312 67.9959 44.0336 69.0153 45.2781 70.2057C42.7336 69.7472 40.429 68.4058 38.7642 66.4146C37.9634 65.479 37.2354 65.4336 36.185 65.9817C31.7442 68.2822 28.4266 71.4589 27.5634 76.7093C27.3173 78.2453 26.9186 79.7603 26.5893 81.2823C26.1282 83.4327 26.6344 85.255 27.5392 87.3286C28.5272 89.5872 31.0058 91.1686 30.6314 94.0486H28.9674Z"
          fill="#EDE6DE"/>
    <path d="M101.851 46.1254C99.5038 50.9917 97.2574 55.8999 96.4046 61.3004C96.1065 63.1959 96.103 65.1404 95.947 67.2978C94.5603 63.0807 94.0334 59.0557 95.4963 54.926C96.2763 52.7267 97.1118 50.5379 97.7636 48.2933C98.6441 45.2771 99.2438 42.2156 97.2158 38.9202C100.045 39.9674 100.967 42.0271 101.851 44.1111V46.1254Z"
          fill="#EDE6DE"/>
    <path d="M71.8433 72.2932C71.7879 72.2758 71.7324 72.2408 71.6839 72.2513C70.6439 72.4538 69.5831 72.6632 68.5292 72.8727C69.1116 73.6686 69.6385 74.5169 70.2868 75.257C72.0444 77.2678 74.1175 78.8003 76.7903 79.3658C77.1095 79.456 77.4117 79.5987 77.6847 79.7882C77.8095 79.865 77.8719 80.043 78.1735 80.4864C75.7919 82.1864 73.4831 83.9773 71.0321 85.5342C69.4513 86.5431 67.5897 87.0947 65.9847 88.0686C62.7572 90.0235 59.4812 89.4371 56.1913 88.4771C54.5273 87.9918 52.9223 87.2902 51.0745 86.6059C52.482 85.0211 54.4823 84.6056 56.2745 83.8586C56.8916 84.7243 57.2625 85.7681 57.9871 86.1661C60.7881 87.716 60.958 88.0966 63.6239 86.2045C65.7732 84.6755 68.342 83.7608 70.6404 82.4308C71.4759 81.9491 72.0721 81.0519 72.7759 80.3363C71.8399 79.8755 70.9489 79.2296 69.9609 78.9958C67.4996 78.4093 64.9724 78.0916 62.5076 77.5121C60.6911 77.0862 59.1068 76.2868 58.4377 74.2237C58.2852 73.7489 57.2487 73.4068 56.5692 73.2916C50.6759 72.3142 46.0479 69.3329 43.2745 64.0163C41.9641 61.5028 41.3228 58.5879 40.6468 55.7917C39.7767 52.1891 38.8684 48.6353 36.5631 45.6471C34.2577 42.6589 31.2729 41.7408 28.0524 42.9382C27.6017 43.1092 27.0644 43.3361 26.8183 43.7062C26.5132 44.1739 26.4716 44.8128 26.3087 45.3783C26.7983 45.544 27.3002 45.6701 27.8097 45.7553C29.5015 45.9089 31.2521 45.7763 32.8711 46.1882C34.6807 46.6455 35.3428 47.9336 34.9823 49.7978C34.7396 51.0406 34.4796 52.4404 33.7447 53.3899C30.8951 57.0728 27.9484 60.6964 24.8249 64.1419C23.7503 65.3254 22.1071 66.0584 20.6164 66.7636C19.1777 67.4408 18.1897 66.8648 18.3076 65.2974C18.4869 63.1012 18.8569 60.925 19.4135 58.7939C19.9751 56.5387 20.8487 54.3674 21.4935 52.1297C21.9268 50.5833 22.1244 49.0612 23.5735 47.9197C24.6135 47.0819 24.0865 45.8531 23.1991 45.0048C22.8058 44.6449 22.3388 44.3764 21.8312 44.2182C21.3236 44.06 20.7876 44.016 20.2613 44.0892C19.7349 44.1625 19.2309 44.3512 18.7849 44.6421C18.3389 44.933 17.9617 45.319 17.6801 45.7728C16.8828 47.0365 16.3524 48.4678 15.6001 49.7768C14.6191 51.5223 13.7385 53.362 12.4801 54.8945C9.66866 58.361 5.70973 57.9246 3.51533 54.0288C2.98493 53.0862 2.64866 52.032 2.12866 50.7718C5.058 52.3915 6.0876 52.1681 8.0012 49.7035C11.0935 45.7309 13.1735 41.259 14.6156 36.466C14.886 35.5584 15.1529 34.6473 15.4788 33.7571C16.1721 31.8406 17.1497 30.2173 19.4655 30.0253C22.0343 29.8089 24.3951 30.3744 25.5668 32.818C26.4612 34.6717 26.7801 36.8186 27.262 38.8538C27.4215 39.5275 27.2897 40.2502 27.2897 41.4441C28.6764 40.9239 29.8412 40.711 30.7564 40.107C33.8764 38.0334 36.8612 38.2778 39.9743 40.0721C44.4081 42.6275 48.9321 45.0886 54.1217 45.5808C56.1116 45.7693 58.1847 45.3853 60.1711 45.0118C60.5491 44.8917 60.8934 44.6829 61.1755 44.4025C61.4576 44.122 61.6694 43.7781 61.7935 43.399C61.8975 42.8998 61.1521 42.0585 60.5905 41.6116C59.5505 40.7843 58.3476 40.1769 57.2625 39.4054C55.4737 38.1312 55.498 37.3422 57.4913 35.6387C58.5487 36.8116 59.6095 37.995 60.6807 39.1715C61.7519 40.3479 62.7607 41.6745 63.974 42.7043C67.3921 45.5982 71.3476 45.0152 74.0273 41.4126C74.2977 41.0635 74.9841 40.7145 75.3689 40.8122C75.7537 40.9099 76.0623 41.5488 76.2009 42.0096C76.766 43.8214 77.2409 45.6576 77.7956 47.5671C79.678 46.5198 80.1564 45.1235 79.4388 43.6678C79.2689 43.3187 78.9639 42.9696 78.95 42.6205C78.9917 42.1502 79.0955 41.6877 79.2585 41.2451C79.6919 41.3987 80.2153 41.4441 80.5412 41.7233C82.0215 43.001 82.0527 44.5754 81.2727 46.5862C80.4927 48.5969 80.0697 50.7194 79.5948 52.8174C79.5185 53.1491 79.9796 53.6029 80.1945 54.0008C80.4996 53.732 80.9503 53.5191 81.0889 53.1805C81.6124 51.8923 81.9972 50.5483 82.5103 49.2532C82.8252 48.5775 83.1818 47.9222 83.578 47.2913H84.1119C84.4585 48.171 84.9127 49.0368 85.1207 49.9374C85.3425 50.9079 85.5713 51.9831 85.3737 52.9222C84.9023 55.1808 85.9492 56.7028 87.2943 58.2772C89.2607 60.5469 91.0404 62.9742 92.6156 65.5348L85.2663 57.6488C83.1239 60.3927 81.0439 63.0318 78.9916 65.6954C77.6639 67.4164 77.7609 68.2542 79.0297 70.0136C80.6972 72.3246 82.9089 73.5395 85.6649 74.0491C87.5142 74.3855 89.325 74.9094 91.0695 75.6131C92.834 76.3322 92.8548 77.1944 91.3815 78.3744C88.9964 80.2839 86.5281 82.0957 84.254 84.1379C82.6177 85.6145 81.4807 87.7335 79.7057 88.9448C77.9967 90.1108 75.7607 90.5018 73.7396 91.186C72.1796 91.7201 70.5988 92.1844 69.0249 92.6766L68.7025 92.3101L71.9439 87.3739C73.4311 87.4752 74.7172 87.7544 75.9063 87.5764C76.7695 87.4472 77.5599 86.7246 78.3572 86.2219C78.7732 85.9601 79.0817 85.4888 79.5185 85.3003C82.4929 84.0227 84.514 81.6488 86.4865 79.2262C87.5439 77.924 87.3775 77.3306 85.7031 76.985C83.0441 76.4439 80.3471 76.1053 77.6812 75.5886C76.2103 75.3283 74.7683 74.9237 73.3756 74.3808C72.6996 74.1015 72.2489 73.2742 71.6977 72.6982L71.8433 72.2932ZM76.3049 51.7562C76.1281 55.0935 76.2599 58.5495 75.6809 61.8798C75.0708 65.3987 72.1623 67.5072 69.1497 69.6331C74.4607 70.7432 80.7665 62.8712 80.3644 55.1843C79.3695 54.7165 78.4543 54.4861 77.8407 53.9415C77.1439 53.3062 76.7175 52.3636 76.3049 51.7562Z"
          fill="#EDE6DE"/>
    <path d="M64.8267 38.4244C66.5601 38.4244 67.9467 38.4873 69.2953 38.4244C70.8622 38.3337 72.2454 37.7542 72.9942 36.2636C73.1005 36.0229 73.1554 35.7624 73.1554 35.4991C73.1554 35.2357 73.1005 34.9752 72.9942 34.7345C72.859 34.4867 72.0582 34.3855 71.6561 34.5391C70.4541 34.9571 69.2819 35.4574 68.1478 36.0367C65.2358 37.5343 64.3795 37.5377 61.0827 35.5968L67.2638 34.8463C67.0038 33.1252 66.1718 32.8879 64.7574 33.024C60.5142 33.4394 56.5518 34.6857 52.6657 36.3997C49.9671 37.6128 47.0045 38.108 44.0614 37.838C42.6747 37.7088 41.3332 37.454 40.8132 35.9633C40.2724 34.4099 40.6086 32.8215 41.8532 31.8231C44.6713 29.4853 47.6318 27.3272 50.7174 25.3615C52.7974 24.0768 55.3107 23.4729 57.5779 22.4431C58.3406 22.094 58.9403 21.3958 59.9838 20.551L68.4494 21.2492L69.6974 23.2076C73.8123 18.1039 78.0833 13.0839 82.5726 8.19666L70.5329 24.3177C71.1707 25.3964 71.7254 26.489 72.4257 27.4804C73.5558 29.0828 74.2006 30.713 73.9683 32.7761C73.847 33.8513 74.5438 34.9999 74.7206 36.1379C74.8281 36.8361 74.9113 37.7681 74.5473 38.2324C72.6926 40.5399 67.4337 40.7599 64.8267 38.4244ZM43.0214 34.7241C45.4307 35.8691 49.303 35.0033 53.3798 32.6086C51.3449 33.0554 49.6219 33.408 47.9094 33.8199C46.9041 34.0608 45.9785 34.2458 45.7323 32.64L43.0214 34.7241Z"
          fill="#EDE6DE"/>
    <path d="M50.2356 17.7373C53.3556 17.0915 52.9431 14.8189 52.9431 12.7523C52.9431 12.082 52.9431 11.4083 52.9153 10.7415C52.7316 7.84406 53.7127 5.54006 56.4305 4.32872C59.6788 2.87999 62.9964 2.25861 66.2655 4.32872C66.4197 4.4673 66.5508 4.62996 66.6537 4.81046C65.3745 6.65716 63.6377 7.21919 61.4121 6.55592C58.6977 5.73905 57.4497 6.63621 57.3353 9.49177L59.9735 6.63272V16.1664C58.4516 16.5748 58.4516 16.5748 58.6665 19.5491C55.8135 19.4269 52.9951 19.4723 50.2356 17.7373Z"
          fill="#EDE6DE"/>
    <path d="M19.76 68.9768C16.89 72.6988 14.8771 77.0163 13.8667 81.6174C13.1317 85.049 14.1683 87.922 16.7301 90.3447C17.5205 91.0987 17.8395 92.359 18.4635 93.5389C16.5984 93.5389 15.1597 93.5808 13.7245 93.5389C12.1229 93.4795 11.388 92.3171 12.2581 90.98C13.4299 89.1822 13.3709 87.8627 11.7555 86.3022C11.0621 85.6285 10.8853 84.1553 10.9061 83.0522C10.9269 81.9491 11.2181 80.6086 11.8595 79.7323C13.6691 77.2503 13.4472 74.6321 12.8995 71.8918C12.7138 70.9627 12.6417 70.0143 12.6845 69.0676C12.8024 66.8858 14.9101 65.7617 16.7544 66.8788C17.7424 67.4827 18.6541 68.2054 19.76 68.9768Z"
          fill="#EDE6DE"/>
    <path d="M87.8072 3.14185C89.6445 9.58606 93.5931 14.6618 98.0408 19.3571C99.8955 21.3295 100.696 23.4694 99.7741 26.0457C99.2947 27.2059 98.6243 28.2764 97.7912 29.212C98.3805 23.2076 94.5464 19.3641 91.4021 15.2902C88.5907 11.6562 87.7725 7.55436 87.8072 3.14185Z"
          fill="#EDE6DE"/>
    <path d="M67.0246 16.2711C65.9048 16.1315 64.9688 16.0337 64.0398 15.8941C62.0534 15.5939 60.32 12.3613 61.36 10.6159C61.9534 9.68428 62.7225 8.87896 63.6238 8.24553C64.8059 7.3728 65.9395 7.40771 66.8304 8.87389C67.3747 9.76407 68.2171 10.4727 68.8307 11.3175C69.3784 12.0611 70.0995 12.8675 68.8307 13.6739C68.7226 13.7932 68.6449 13.9373 68.6044 14.0936C68.564 14.2499 68.5619 14.4138 68.5984 14.5711C69.1046 16.3305 67.9016 16.2118 67.0246 16.2711Z"
          fill="#EDE6DE"/>
    <path d="M83.1722 41.3289C82.6356 40.5171 82.397 39.5422 82.4976 38.5723C82.5982 37.6024 83.0317 36.6983 83.7234 36.0157C83.8828 35.8621 84.0978 35.7085 84.1498 35.5165C84.7287 33.2788 86.4447 33.2754 88.2301 33.3591C89.8837 33.4394 92.2029 35.4537 92.1751 37.0595C92.1751 37.5762 91.4818 38.3302 90.9341 38.5466C88.3791 39.5555 85.7687 40.4143 83.1722 41.3289Z"
          fill="#EDE6DE"/>
    <path d="M74.6964 30.2522C75.5423 28.5312 74.9703 27.3582 73.542 26.3528C73.1537 26.0771 73.0497 25.3056 72.9631 24.7191C72.9111 24.37 73.1745 23.9825 73.2369 23.602C73.4276 22.4326 73.8505 21.1584 75.1471 21.3224C76.1108 21.4481 77.5183 22.2929 77.7471 23.0993C78.3503 25.2253 78.4196 27.5083 78.742 30.0811C79.8617 30.7409 80.2847 32.1757 79.3105 33.7501C79.0125 34.1173 78.6014 34.374 78.1423 34.4797C77.9447 34.539 77.3831 34.1306 77.4039 34.0154C77.7748 31.8545 76.1073 31.1633 74.6964 30.2522Z"
          fill="#EDE6DE"/>
    <path d="M100.187 30.2662C100.187 32.235 100.232 33.8374 100.169 35.4362C100.124 36.4835 99.5801 36.8535 98.4777 36.6127C97.3753 36.3718 96.2487 36.4381 95.1497 36.2636C94.5084 36.1553 93.6799 35.9773 93.3575 35.5235C93.0732 35.1255 93.3852 34.3017 93.4129 33.6663C93.5308 31.0202 95.1844 30.7619 97.3268 30.912C98.294 30.9644 99.3028 30.4756 100.187 30.2662Z"
          fill="#EDE6DE"/>
    <path d="M60.6978 17.3498C61.9909 17.4196 63.2875 17.5767 64.5771 17.5418C66.5392 17.4895 68.5568 17.5837 70.1237 15.9325C70.3421 15.7021 71.1464 15.9046 71.5971 16.0966C71.7357 16.1559 71.7565 17.1089 71.5728 17.2172C70.6418 17.7884 69.6557 18.2633 68.6296 18.6345C67.5896 18.9836 66.5011 19.1546 65.0416 19.4932L60.6216 17.6815L60.6978 17.3498Z"
          fill="#EDE6DE"/>
    <path d="M81.231 38.201C81.1097 38.5222 81.0196 39.4298 80.5377 39.8871C80.0558 40.3444 79.151 40.3724 78.4577 40.3759C78.2878 40.3759 77.9932 39.5171 77.9758 39.0423C77.992 38.3226 78.0685 37.6056 78.2046 36.8989C78.3294 35.9319 78.7593 34.9615 79.7993 35.2477C80.406 35.4153 80.7942 36.4346 81.2379 37.1014C81.3177 37.255 81.231 37.5343 81.231 38.201Z"
          fill="#EDE6DE"/>
</svg>
